<svg xmlns="http://www.w3.org/2000/svg" width="18" height="18" viewBox="0 0 18 18">
    <g fill="none" fill-rule="evenodd">
        <g>
            <g>
                <g>
                    <g>
                        <path d="M0 0H18V18H0z"
                            transform="translate(-729 -907) translate(101 732) translate(622 169) translate(6 6)" />
                        <path fill="#000"
                            d="M9 0c1.105 0 2 .895 2 2 0 .097-.007.192-.02.286 2.274.667 4.067 2.46 4.736 4.734l.135-.015L16 7c1.105 0 2 .895 2 2s-.895 2-2 2c-.097 0-.192-.007-.286-.02-.667 2.274-2.46 4.067-4.734 4.736.013.092.02.187.02.284 0 1.105-.895 2-2 2s-2-.895-2-2c0-.097.007-.192.02-.286-2.274-.667-4.067-2.46-4.736-4.734l-.135.015L2 11c-1.105 0-2-.895-2-2s.895-2 2-2c.097 0 .192.007.286.02.667-2.274 2.46-4.067 4.734-4.736C7.007 2.192 7 2.097 7 2c0-1.105.895-2 2-2zm1.59 3.213l-.08.1C10.142 3.732 9.601 4 9 4c-.648 0-1.224-.308-1.59-.786-2.036.557-3.639 2.16-4.197 4.196C3.692 7.776 4 8.352 4 9c0 .648-.308 1.224-.786 1.59.557 2.036 2.16 3.639 4.196 4.197C7.776 14.308 8.352 14 9 14c.648 0 1.224.308 1.59.786 2.036-.557 3.639-2.16 4.197-4.196C14.308 10.224 14 9.648 14 9c0-.648.308-1.224.786-1.59-.557-2.036-2.16-3.639-4.196-4.197z"
                            transform="translate(-729 -907) translate(101 732) translate(622 169) translate(6 6)" />
                    </g>
                </g>
            </g>
        </g>
    </g>
</svg>