<svg xmlns="http://www.w3.org/2000/svg" width="18" height="18" viewBox="0 0 18 18">
    <g fill="none" fill-rule="evenodd">
        <g>
            <g>
                <g>
                    <g>
                        <path d="M0 0H18V18H0z"
                            transform="translate(-729 -945) translate(101 732) translate(622 207) translate(6 6)" />
                        <path fill="#000"
                            d="M9 0c4.97 0 9 4.03 9 9s-4.03 9-9 9-9-4.03-9-9 4.03-9 9-9zm0 1C4.582 1 1 4.582 1 9s3.582 8 8 8c4.25 0 7.726-3.314 7.985-7.5l-6.048.001C10.714 10.363 9.932 11 9 11c-1.105 0-2-.895-2-2s.895-2 2-2c.932 0 1.715.637 1.937 1.5h6.048C16.727 4.316 13.25 1 9 1z"
                            transform="translate(-729 -945) translate(101 732) translate(622 207) translate(6 6)" />
                    </g>
                </g>
            </g>
        </g>
    </g>
</svg>