<svg xmlns="http://www.w3.org/2000/svg" width="18" height="18" viewBox="0 0 18 18">
    <g fill="none" fill-rule="evenodd">
        <g>
            <g>
                <g>
                    <g>
                        <path d="M0 0H18V18H0z"
                            transform="translate(-729 -1021) translate(101 732) translate(622 283) translate(6 6)" />
                        <path fill="#2A2A2A" fill-rule="nonzero"
                            d="M9 0c.316-.014.586.28.586.587V2.4c.564.05 1.122.17 1.651.365 1.288.474 2.384 1.313 3.182 2.43.672.94 1.071 2.067 1.175 3.217h1.82c.328 0 .572.267.586.586.014.317-.28.587-.587.587h-1.82c-.016.164-.037.328-.062.493-.201 1.313-.84 2.556-1.759 3.514-.909.946-2.118 1.626-3.407 1.888-.257.053-.518.092-.78.115v1.817c0 .329-.268.573-.586.587-.316.014-.586-.28-.586-.587l-.001-1.821-.12-.01c-.603-.07-1.176-.211-1.734-.43l-.334-.14c-1.198-.54-2.22-1.474-2.899-2.596-.518-.853-.836-1.834-.924-2.83H.587c-.329 0-.572-.268-.587-.587-.014-.316.28-.586.587-.586h1.817c.127-1.351.653-2.61 1.515-3.66.838-1.02 2.007-1.768 3.276-2.128.396-.112.804-.187 1.217-.223V.587C8.413.258 8.68.015 9 0zm-.02 3.55H8.84c-.218.006-.436.023-.652.052l.059-.007-.215.036c-.311.06-.617.142-.915.249l-.219.084-.25.115c-.103.05-.205.104-.305.16l-.296.177c-.123.08-.242.161-.36.249l.032-.023-.01.007c.002 0-.012.01-.037.03l-.014.009.027-.02.013-.01-.01.007-.061.047.017-.014.006-.004-.004.005-.04.032c-.059.05-.118.098-.176.149-.225.198-.433.411-.627.64-.028.032-.055.066-.082.099l-.022.025-.026.027-.016.026v.001l-.018.023-.03.042c-.09.125-.177.253-.257.384-.158.258-.295.528-.412.805l.031-.07-.087.225c-.106.298-.19.604-.249.915l-.037.22-.027.262c-.026.326-.026.653 0 .98l.027.26.037.22c.06.312.143.617.249.915l.084.219-.027-.059.028.066.03.07-.028-.071.112.245c.05.103.104.204.16.305l.177.295c.08.124.162.242.25.36l-.026-.035.009.013.018.024-.002-.003-.004-.006.016.021-.003-.003.014.018-.004-.006.015.019.033.04c.049.058.097.117.148.176.198.224.411.433.64.627l.099.082.019.017-.014-.01.016.012.002.002-.002-.002.004.003.016.012-.017-.012.029.026.021.012-.012-.01-.016-.012.034.026-.006-.004.029.021.04.03c.126.091.254.177.385.257.258.159.528.296.806.413l-.057-.026.211.081c.298.107.604.19.915.25l.218.035.264.028c.326.026.654.026.98 0l.261-.028.22-.036c.31-.059.616-.142.915-.249l.207-.08.262-.119c.103-.05.205-.103.305-.16l.295-.177c.124-.079.243-.161.36-.249l-.03.021.008-.004.004-.005.004-.003.003-.002.026-.02.005-.004.009-.007.013-.01.04-.032.176-.149c.224-.197.433-.41.627-.64l.082-.098.015-.017.007-.008.019-.025.01-.012-.016.02-.014.018c.01-.01.02-.02.027-.03l.016-.026.018-.023.03-.041c.09-.125.176-.254.256-.385.159-.258.296-.528.413-.805l-.032.07-.025.065.028-.065.029-.07-.028.06.084-.215c.106-.298.19-.604.249-.915l.035-.223.024-.203c.008-.09.014-.182.018-.272L14.448 9l.008.09c.047.27.294.507.579.495-.328-.001-.571-.268-.585-.587v-.033l-.001.033c0-.272-.018-.545-.055-.815l.008.077.012.073-.01-.072-.01-.078.007.073-.036-.23c-.06-.31-.143-.616-.25-.914l-.087-.226.03.065-.027-.064-.03-.07.025.064-.11-.238c-.05-.104-.103-.205-.16-.305l-.177-.296c-.079-.123-.16-.242-.248-.36l.019.027-.01-.013-.011-.014.005.006-.003-.005-.003-.003-.01-.013-.01-.014-.009-.011.007.01-.042-.052-.074-.088-.074-.087c-.198-.225-.412-.434-.64-.627l-.1-.083-.019-.018-.06-.046-.023-.017-.041-.03c-.125-.091-.253-.177-.385-.257-.258-.159-.527-.295-.805-.413l.071.032-.225-.087c-.298-.107-.604-.19-.915-.25l-.218-.035-.265-.028c-.16-.013-.322-.02-.484-.02l-.027.004zM9 6.999c1.105 0 2 .896 2 2.001 0 1.106-.895 2.002-2 2.002-1.106 0-2.002-.896-2.002-2.002 0-1.105.896-2.001 2.001-2.001z"
                            transform="translate(-729 -1021) translate(101 732) translate(622 283) translate(6 6)" />
                    </g>
                </g>
            </g>
        </g>
    </g>
</svg>