<svg width="18" height="18" viewBox="0 0 18 18" fill="none" xmlns="http://www.w3.org/2000/svg">
    <path fill-rule="evenodd" clip-rule="evenodd"
        d="M9.29452 17.8648C10.5002 16.5008 15 11.0906 15 6.28661C15 4.04061 13.8562 1.9648 11.9996 0.841997C10.1438 -0.280666 7.85627 -0.280666 6.00038 0.841997C4.14381 1.96466 3 4.04041 3 6.28661C3 11.0912 7.49895 16.5014 8.70548 17.8648C8.78153 17.9508 8.88815 18 9 18C9.11185 18 9.21846 17.9508 9.29452 17.8648ZM5.87109 6.28635C5.87109 5.41681 6.20066 4.58401 6.78745 3.96915C7.3735 3.35509 8.16907 3.00977 8.99818 3.00977C9.82729 3.00977 10.6229 3.35509 11.2089 3.96915C11.7957 4.58399 12.1253 5.41681 12.1253 6.28555C12.1253 7.1551 11.7957 7.9879 11.2089 8.60276C10.6229 9.21682 9.82729 9.56214 8.99818 9.56214C8.16907 9.56214 7.3735 9.21682 6.78745 8.60276C6.20066 7.98792 5.87109 7.1551 5.87109 6.28635Z"
        fill="black" />
</svg>