<svg xmlns="http://www.w3.org/2000/svg" width="18" height="18" viewBox="0 0 18 18">
    <g fill="none" fill-rule="evenodd">
        <g>
            <g>
                <g>
                    <g>
                        <path d="M0 0H18V18H0z"
                            transform="translate(-729 -983) translate(101 732) translate(622 245) translate(6 6)" />
                        <path fill="#2A2A2A" fill-rule="nonzero"
                            d="M9 0c1.105 0 2 .895 2 2 0 .594-.26 1.128-.67 1.494l5.428 10.52c.08-.01.16-.014.242-.014 1.105 0 2 .895 2 2s-.895 2-2 2c-.932 0-1.715-.637-1.937-1.5H3.937C3.715 17.363 2.932 18 2 18c-1.105 0-2-.895-2-2s.895-2 2-2c.144 0 .284.015.419.044L7.685 3.507C7.265 3.14 7 2.6 7 2c0-1.105.895-2 2-2zm.44 3.951C9.3 3.983 9.151 4 9 4c-.145 0-.286-.015-.422-.045L3.312 14.491c.3.26.522.61.625 1.008h10.126c.118-.455.391-.847.76-1.116z"
                            transform="translate(-729 -983) translate(101 732) translate(622 245) translate(6 6)" />
                    </g>
                </g>
            </g>
        </g>
    </g>
</svg>