<svg xmlns="http://www.w3.org/2000/svg" width="18" height="18" viewBox="0 0 18 18">
    <g fill="none" fill-rule="evenodd">
        <g>
            <g>
                <g>
                    <g>
                        <path d="M0 0H18V18H0z"
                            transform="translate(-729 -1059) translate(101 732) translate(622 321) translate(6 6)" />
                        <path fill="#2A2A2A" fill-rule="nonzero"
                            d="M12.295 17c1.055 0 1.746-.658 1.8-1.71l.493-10.379h.843c.31 0 .569-.257.569-.567 0-.318-.258-.575-.57-.575h-3.256V2.732c0-1.051-.714-1.732-1.86-1.732H7.67c-1.146 0-1.86.68-1.86 1.732V3.77H2.57c-.31 0-.569.257-.569.575 0 .31.258.567.57.567h.842l.494 10.387C3.95 16.349 4.642 17 5.705 17h6.59zM10.966 3.769h-3.94V2.8c0-.4.296-.688.729-.688h2.483c.432 0 .728.288.728.688v.969zm1.2 12.089h-6.34c-.41 0-.713-.303-.736-.727l-.493-10.22h8.776l-.47 10.22c-.016.432-.312.727-.737.727zm-1.04-1.226c.243 0 .425-.204.44-.484l.213-7.452c.007-.272-.182-.491-.433-.491-.235 0-.433.22-.44.484l-.213 7.451c-.008.273.175.492.433.492zm-4.252 0c.25 0 .44-.22.433-.492L7.094 6.69c-.007-.265-.212-.484-.44-.484-.258 0-.44.212-.433.491l.213 7.452c.007.28.19.484.44.484zm2.126 0c.243 0 .448-.22.448-.492V6.696c0-.272-.205-.491-.448-.491-.243 0-.448.22-.448.491v7.444c0 .273.205.492.448.492z"
                            transform="translate(-729 -1059) translate(101 732) translate(622 321) translate(6 6)" />
                    </g>
                </g>
            </g>
        </g>
    </g>
</svg>