<svg xmlns="http://www.w3.org/2000/svg" width="128" height="55" viewBox="0 0 128 55">
    <g fill="#FFF" fill-rule="nonzero">
        <path d="M112.247 4.712a4.62 4.62 0 0 1 4.647-4.628c2.567 0 4.647 2.08 4.63 4.645a4.628 4.628 0 0 1-4.63 4.628 4.646 4.646 0 0 1-4.647-4.645M122.33 11.15a6.196 6.196 0 0 1 5.62 6.172v12.86c0 .99-.806 1.795-1.795 1.795-.99 0-1.795-.805-1.795-1.794V19.116c0-.42-.118-.973-.873-.973-.52 0-.637.554-.654.906v33.117a2.584 2.584 0 0 1-5.167 0V33.101c0-.218-.084-.755-.738-.755s-.738.553-.755.755v19.082a2.585 2.585 0 0 1-5.167.134V19.066c-.017-.353-.134-.906-.654-.906-.755 0-.873.553-.873.973v11.05c-.05.99-.889 1.76-1.878 1.727-.94-.033-1.678-.788-1.728-1.727V17.305a6.196 6.196 0 0 1 5.62-6.17c.117-.018.218-.034.335-.034h10.133c.117.016.235.016.369.05M84.634 7.143A4.388 4.388 0 0 0 80.24 2.75a4.388 4.388 0 0 0-4.395 4.393 4.388 4.388 0 0 0 4.395 4.394 4.388 4.388 0 0 0 4.395-4.394M71.381 17.104l-3.657 11.905s-.654 2.18 1.191 2.717c1.846.536 2.4-1.577 2.4-1.577l2.952-9.926s.168-.772.738-.604c.57.168.352.972.352.972l-5.133 18.613h4.764v13.331a2.299 2.299 0 0 0 2.349 2.23 2.286 2.286 0 0 0 2.231-2.23V39.188h1.309v13.33a2.299 2.299 0 0 0 2.348 2.23 2.286 2.286 0 0 0 2.231-2.23v-13.33h4.765l-5.134-18.613s-.218-.805.353-.973c.57-.168.738.604.738.604l2.952 9.927s.554 2.13 2.4 1.576c1.845-.554 1.207-2.717 1.207-2.717L89.08 17.087s-1.309-3.438-4.194-3.438h-9.327c-2.87.017-4.178 3.455-4.178 3.455M58.296 7.143a4.388 4.388 0 0 0-4.395-4.393 4.388 4.388 0 0 0-4.395 4.393 4.388 4.388 0 0 0 4.395 4.394 4.388 4.388 0 0 0 4.395-4.394M45.043 17.104l-3.657 11.905s-.654 2.18 1.191 2.717c1.846.536 2.4-1.577 2.4-1.577l2.952-9.926s.167-.772.738-.604c.57.168.352.972.352.972l-5.133 18.613h4.764v13.331a2.301 2.301 0 0 0 2.298 2.297 2.29 2.29 0 0 0 2.299-2.297V39.188h1.308v13.33a2.299 2.299 0 0 0 2.349 2.23 2.286 2.286 0 0 0 2.231-2.23v-13.33h4.781l-5.133-18.613s-.218-.822.352-.973c.57-.15.738.604.738.604l2.953 9.927s.553 2.13 2.399 1.576c1.845-.554 1.19-2.717 1.19-2.717L62.76 17.087s-1.309-3.438-4.194-3.438h-9.328c-2.885.017-4.194 3.455-4.194 3.455"/>
        <g>
            <path d="M99.397 31.742a3.654 3.654 0 0 0 3.657-3.655 3.654 3.654 0 0 0-3.657-3.656 3.665 3.665 0 0 0-3.657 3.656 3.654 3.654 0 0 0 3.657 3.655M90.623 43.111c-.184.42-.318 1.342.537 1.727 1.007.47 1.56-.503 1.56-.503l1.997-6.338s.352-.42.352.017v14.923a1.887 1.887 0 0 0 1.93 1.828 1.89 1.89 0 0 0 1.828-1.828v-5.902s-.118-.838.57-.838.57.838.57.838v5.902c0 1.04.84 1.879 1.88 1.879s1.878-.839 1.878-1.879v-14.94c0-.436.235-.134.235-.134l1.56 4.343s.671 1.945.89 2.029a1.38 1.38 0 0 0 1.811-.738 1.374 1.374 0 0 0-.15-1.342l.016-.016c-.05-.134-2.332-5.752-2.6-6.54-.822-2.415-2.332-2.381-3.775-2.431-1.443-.05-2.315 0-2.315 0s-.923-.034-2.835.016-2.516 1.04-4.613 6.456c-.302.788-1.326 3.32-1.326 3.471z"/>
        </g>
        <g>
            <path d="M14.377 9.357a4.646 4.646 0 1 0 0-9.29A4.646 4.646 0 0 0 9.73 4.712c0 2.565 2.08 4.628 4.647 4.645zM19.83 11.117c-.118-.016-.253-.05-.37-.05H9.31c-.117.017-.217.034-.335.05a6.212 6.212 0 0 0-5.62 6.188v12.878c0 .654.352 1.274.94 1.593-.034.05-.05.1-.067.15L.1 53.777a.672.672 0 0 0 .52.788h.016c.034 0 .084.017.135.017a.683.683 0 0 0 .67-.554L5.57 32.178c0-.083 0-.167-.017-.251a1.764 1.764 0 0 0 1.325-1.744V19.116c0-.42.1-.973.872-.973.52 0 .638.554.638.906v33.117c0 1.442 1.157 2.6 2.6 2.6s2.6-1.158 2.6-2.6V33.101c0-.403.302-.721.705-.738h.067c.654 0 .722.52.722.738v19.082c0 1.442 1.157 2.599 2.6 2.599s2.6-1.157 2.6-2.6V19.067c0-.353.117-.906.638-.906.771 0 .872.553.872.973v11.05a1.84 1.84 0 0 0 1.845 1.844 1.84 1.84 0 0 0 1.846-1.844V17.305c0-3.203-2.45-5.886-5.654-6.188z"/>
        </g>
        <g>
            <path d="M37.78 37.796l3.388-6.171s.403-.889.403-1.09a1.357 1.357 0 0 0-1.36-1.325c-.452 0-.855.235-1.106.62h-.017c-.1.085-1.812 3.12-2.382 3.69-.588.603-1.124.52-1.124.52h-4.43s-.536.083-1.123-.52c-.57-.57-2.265-3.605-2.382-3.69l-.017.018a1.349 1.349 0 0 0-1.862-.386c-.37.235-.587.637-.604 1.073.017.201.067.402.134.587l3.69 6.674c.135.285.202.57.219.872v1.308l-1.946 7.143h1.929v5.869h.017a1.829 1.829 0 0 0 1.828 1.81c1.007.018 1.812-.787 1.829-1.793v-5.651a.3.3 0 0 1-.067-.235h1.09a.538.538 0 0 1-.016.235v5.65a1.84 1.84 0 0 0 1.845 1.845 1.84 1.84 0 0 0 1.845-1.844v-5.886h1.896l-1.879-7.177v-1.274a2.74 2.74 0 0 1 .201-.872z"/>
            <path d="M33.367 31.742a3.654 3.654 0 0 0 3.657-3.655 3.665 3.665 0 0 0-3.657-3.656 3.665 3.665 0 0 0-3.657 3.656c-.017 2.012 1.627 3.655 3.657 3.655-.017 0 0 0 0 0z"/>
        </g>
    </g>
</svg>
