<svg xmlns="http://www.w3.org/2000/svg" width="87" height="65" viewBox="0 0 87 65">
    <g fill="#FFF" fill-rule="nonzero">
        <path d="M.64 46.997h19.242a.47.47 0 0 0 .473-.46.444.444 0 0 0-.128-.32l-.025-.026-9.57-12.386-.09-.102a.447.447 0 0 0-.652-.026l-.051.064-.09.103L.41 46.1l-.14.18a.473.473 0 0 0-.077.268c-.026.23.179.448.448.448zM19.818 48.75H.538a.48.48 0 0 0-.474.473V64.31c0 .256.205.473.473.473h6.205v-9.494c0-.256.205-.473.474-.473h5.757c.256 0 .474.205.474.473v9.494h6.371a.48.48 0 0 0 .473-.473V49.223a.472.472 0 0 0-.473-.473zM86.463 44.796H67.387a.448.448 0 0 0-.461.448v19.27c0 .256.218.46.473.448h19.09c.255 0 .46-.205.473-.448v-19.27a.5.5 0 0 0-.5-.448c.013 0 0 0 0 0m-10.44 12.578c0 .256-.217.46-.46.46h-5.706a.478.478 0 0 1-.474-.46v-3.468c0-.255.218-.46.461-.46h5.706c.256 0 .46.205.46.448v3.48h.014zm0-6.398c0 .256-.217.461-.46.461h-5.706a.478.478 0 0 1-.474-.46v-3.468c0-.256.218-.46.474-.448h5.706c.256 0 .46.205.46.448v3.467zm8.713 6.398c0 .256-.217.46-.46.46h-5.706a.476.476 0 0 1-.474-.447v-3.468c0-.256.218-.46.46-.46h5.694c.256 0 .46.204.474.447l.012 3.468zm0-6.398c0 .256-.217.461-.46.461h-5.706a.476.476 0 0 1-.474-.448v-3.467c0-.256.218-.461.474-.448h5.693c.256 0 .46.205.473.448v3.454zM42.105.051H23.426a.459.459 0 0 0-.46.46v63.836c0 .256.204.461.46.461h18.68c.255 0 .46-.205.46-.46V.511a.476.476 0 0 0-.46-.46M30.986 57.54c0 .141-.115.243-.243.243h-4.273a.243.243 0 0 1-.243-.243v-4.76c0-.14.115-.243.243-.243h4.273c.141 0 .243.103.243.244v4.76zm0-10.952c0 .14-.115.243-.243.243h-4.273a.252.252 0 0 1-.243-.243v-4.76c0-.141.102-.243.243-.243h4.273c.141 0 .243.102.243.243v4.76zm0-10.94c0 .14-.115.243-.243.243h-4.273a.243.243 0 0 1-.243-.243v-4.773c0-.14.115-.243.243-.243h4.273c.141 0 .243.115.243.243v4.773zm0-10.953c0 .14-.115.243-.243.243h-4.273a.243.243 0 0 1-.243-.243v-4.76c0-.128.115-.243.243-.243h4.273c.128 0 .243.102.243.243v4.76zm0-10.94c0 .14-.115.243-.243.243h-4.273a.243.243 0 0 1-.243-.243V8.982c0-.14.115-.243.243-.243h4.273c.141 0 .243.115.243.243v4.773zM39.38 57.54c0 .141-.115.243-.243.243h-4.273a.235.235 0 0 1-.243-.243v-4.76c0-.14.115-.243.243-.243h4.273c.14 0 .243.103.243.244v4.76zm0-10.952c0 .14-.102.243-.243.243h-4.273a.243.243 0 0 1-.243-.243v-4.76c0-.128.102-.243.243-.243h4.273c.14 0 .243.102.243.243v4.76zm0-10.94c0 .14-.115.243-.243.243h-4.273a.235.235 0 0 1-.243-.243v-4.773c0-.14.115-.243.243-.243h4.273c.14 0 .243.102.243.243v4.773zm0-10.953c0 .14-.115.243-.243.243h-4.273a.235.235 0 0 1-.243-.243v-4.773c0-.128.115-.243.243-.243h4.273c.128 0 .243.102.243.243v4.773zm0-10.94c0 .14-.115.243-.243.243h-4.273a.235.235 0 0 1-.243-.243V8.982c0-.14.102-.243.243-.243h4.273c.14 0 .243.103.243.243v4.773zM86.91 42.851a.377.377 0 0 1-.383.384H67.323a.377.377 0 0 1-.384-.384v-3.838c0-.218.166-.384.384-.384h19.216c.218 0 .384.166.384.384v3.838h-.013zM64.661 12.104a.507.507 0 0 0-.473-.358.518.518 0 0 0-.269.09l-.038.025-.154.205-18.36 23.287-.089.116a.484.484 0 0 0-.153.358v28.61c0 .256.205.46.46.46H64.24c.256 0 .46-.204.46-.447V12.296a.513.513 0 0 0-.038-.192zM56.934 24.76l.128-.166c1.254-1.613 3.377-4.223 4.4-5.49l.142-.166a.521.521 0 0 1 .41-.192c.255 0 .46.18.51.422v5.912c0 .281-.23.512-.51.524H57.33a.533.533 0 0 1-.511-.524.689.689 0 0 1 .115-.32zM54.03 57.374c0 .256-.205.46-.448.46h-5.566a.456.456 0 0 1-.46-.447v-3.48c0-.256.204-.461.46-.461h5.566c.256 0 .46.205.46.448l-.012 3.48zm0-6.436c0 .256-.205.46-.448.46h-5.566a.456.456 0 0 1-.46-.447v-3.48c0-.256.204-.461.448-.461h5.565c.256 0 .46.205.46.448v3.48zm0-6.436c0 .256-.205.46-.461.46h-5.565a.456.456 0 0 1-.461-.447v-3.48c0-.256.205-.461.448-.461h5.565c.256 0 .46.205.46.448l.014 3.48zm.012-14.113v7.677c0 .256-.204.46-.46.46h-5.566a.456.456 0 0 1-.46-.447v-.96c0-.064.013-.115.038-.166.013-.013.013-.039.026-.051.013-.026.025-.039.038-.064.013-.026.038-.052.051-.077.717-1.024 3.928-4.978 5.271-6.628l.141-.166a.521.521 0 0 1 .41-.192c.255 0 .46.179.511.422v.192zm8.496 26.985c0 .256-.205.46-.46.46h-5.566a.456.456 0 0 1-.461-.447v-3.48c0-.256.205-.461.46-.461h5.566c.256 0 .46.205.46.46v3.468zm0-6.436c0 .256-.205.46-.46.46h-5.566a.456.456 0 0 1-.461-.447v-3.48c0-.256.205-.461.448-.461h5.565c.256 0 .46.205.46.46v3.468h.014zm0-6.436c0 .256-.205.46-.46.46h-5.566a.456.456 0 0 1-.461-.447v-3.48c0-.256.205-.461.46-.461h5.566c.256 0 .46.205.46.46v3.468zm0-6.449c0 .256-.205.46-.46.46h-5.566a.456.456 0 0 1-.461-.447v-3.48c0-.256.205-.461.46-.461h5.566c.256 0 .46.205.46.46v3.468zm0-6.436c0 .256-.205.46-.46.46h-5.566a.456.456 0 0 1-.461-.447v-3.48c0-.256.205-.461.46-.461h5.566c.256 0 .46.205.46.46v3.468z"/>
    </g>
</svg>
