<svg xmlns="http://www.w3.org/2000/svg" width="70" height="60" viewBox="0 0 70 60">
    <g fill="#FFF" fill-rule="nonzero">
        <path d="M69.509 43.389c-1.613-2.176-12.02-15.437-26.611-15.437-12.672 0-26.228 11.494-26.228 11.494S11.576 29.027 1.17 28.03c-.064 0-.128-.013-.192-.013H.914c-.218.013-.423.23-.397.41.025.14.09.268.166.384 1.344 2.214 4.775 8.563 4.775 14.886 0 6.349-3.444 12.71-4.775 14.925l-.09.14a.408.408 0 0 0 .32.627l.116-.012c.038 0 .077 0 .115-.013 10.445-.973 15.552-11.417 15.552-11.417S30.238 59.44 42.898 59.44c14.592 0 24.998-13.26 26.61-15.437a.798.798 0 0 1 .116-.153.34.34 0 0 0 .038-.154.34.34 0 0 0-.038-.154l-.115-.153m-18.496 1.984a4.25 4.25 0 0 1-4.25-4.263 4.25 4.25 0 0 1 4.263-4.25 4.255 4.255 0 1 1-.013 8.513M.85 3.018c-.026-.013-.052-.013-.077-.013a.426.426 0 0 0-.423.422V6.32c0 .115.039.218.116.307 7.04 6.119 13.708.384 15.257-1.126a.251.251 0 0 1 .115-.115.397.397 0 0 1 .512.038c0 .013.013.013.026.013 7.949 7.59 16.294 1.446 18.035 0l.167-.154c.05-.025.102-.038.153-.025a.75.75 0 0 1 .167.025l.179.154c1.74 1.446 10.073 7.59 18.035 0l.013-.013a.397.397 0 0 1 .512-.038.33.33 0 0 1 .115.115c1.536 1.51 8.205 7.245 15.258 1.126a.447.447 0 0 0 .128-.307V3.414c0-.23-.18-.422-.41-.422-.026 0-.064.013-.09.013-.064.038-.128.077-.217.115-2.163 1.088-8.883 3.66-14.976-2.1a2.125 2.125 0 0 1-.18-.166.409.409 0 0 0-.179-.038c-.038 0-.09.013-.128.013a.552.552 0 0 0-.217.166c-1.818 1.383-10.163 7.027-17.587.103l-.116-.103a.447.447 0 0 0-.307-.128.417.417 0 0 0-.294.128l-.115.103c-7.424 6.924-15.77 1.28-17.588-.103A.514.514 0 0 0 16.53.83c-.039-.013-.09-.013-.128-.013a.452.452 0 0 0-.18.038c-.05.064-.115.116-.179.167C9.95 6.794 3.23 4.208 1.067 3.12.99 3.082.927 3.056.85 3.018M15.723 16.06a.33.33 0 0 1 .115-.114.397.397 0 0 1 .512.038c0 .013.013.013.013.013 7.949 7.577 16.295 1.433 18.035 0l.167-.167c.051-.025.102-.025.153-.025a.75.75 0 0 1 .167.025l.166.167c1.741 1.433 10.074 7.577 18.035 0l.013-.013a.397.397 0 0 1 .512-.038c.051.025.09.064.115.115 1.536 1.51 8.205 7.257 15.258 1.126a.417.417 0 0 0 .128-.294v-2.919c0-.23-.18-.41-.41-.41-.025 0-.064.014-.09.014l-.217.102c-2.163 1.088-8.883 3.66-14.976-2.1l-.179-.166c-.051-.025-.115-.05-.18-.038a.455.455 0 0 0-.127.026.382.382 0 0 0-.218.153c-1.817 1.383-10.163 7.027-17.587.103l-.115-.116a.436.436 0 0 0-.307-.115.427.427 0 0 0-.295.115l-.115.116c-7.424 6.924-15.77 1.28-17.587-.103a.353.353 0 0 0-.205-.153c-.038-.026-.09-.026-.128-.026a.452.452 0 0 0-.18.038 2.125 2.125 0 0 1-.178.167C9.925 17.34 3.205 14.768 1.042 13.68l-.218-.102c-.026-.013-.051-.013-.077-.013-.23 0-.422.179-.422.41v2.918c0 .115.038.217.115.294 7.04 6.119 13.709.384 15.258-1.126"/>
    </g>
</svg>
