<svg xmlns="http://www.w3.org/2000/svg" width="86" height="61" viewBox="0 0 86 61">
    <g fill="#FFF" fill-rule="nonzero">
        <path d="M85.918 32c0-3.597-2.304-6.528-5.81-6.528-1.754 0-3.866 1.92-5.006 3.098-1.152-1.178-3.123-3.098-4.864-3.098-3.494 0-5.952 2.918-5.952 6.528 0 1.715.666 3.38 1.856 4.608l8.973 8.986 8.96-8.986h-.013A6.638 6.638 0 0 0 85.918 32z"/>
        <path d="M47.71 60.275h-.09a1.47 1.47 0 0 1-1.356-1.216l-4.557-26.547-6.899 12.8a1.476 1.476 0 0 1-1.997.602 1.463 1.463 0 0 1-.755-1.088l-2.931-20.48-5.363 12.044c-.23.538-.768.87-1.344.884H1.554A1.467 1.467 0 0 1 .17 35.712a1.466 1.466 0 0 1 1.383-1.382h19.89l7.054-15.847a1.489 1.489 0 0 1 1.945-.755c.461.205.781.627.858 1.14l3.02 21.12 6.81-12.622a1.46 1.46 0 0 1 1.997-.588c.397.217.678.601.755 1.05l4.224 24.588L63.48 1.28C63.71.5 64.542.064 65.323.294c.397.116.717.397.896.768l8.09 16.781c.371.73.077 1.613-.653 1.984a1.473 1.473 0 0 1-1.984-.653c-.013-.012-.013-.038-.026-.05L65.221 5.76 49.118 59.226a1.47 1.47 0 0 1-1.408 1.05z"/>
    </g>
</svg>
