<svg xmlns="http://www.w3.org/2000/svg" width="66" height="67" viewBox="0 0 66 67">
    <path fill="#FFF" fill-rule="nonzero" d="M64.987 37.134l-15.219-8.78V10.779c0-.371-.192-.704-.512-.896L33.525.795a1.005 1.005 0 0 0-1.037 0L16.744 9.883c-.32.192-.512.525-.512.896v17.575l-15.22 8.78c-.32.18-.524.525-.524.896v18.176c0 .372.205.717.525.896l15.731 9.088c.32.18.717.18 1.037 0L33 57.397l15.206 8.78c.32.18.717.18 1.037 0l15.731-9.087c.32-.18.512-.525.525-.896V38.018c0-.359-.192-.704-.512-.884zM31.963 54.402l-12.62-7.284 12.62-7.283v14.567zm14.695-25.447l-12.621 7.283V21.66l12.62 7.296zm-14.695 7.283l-12.62-7.283 12.62-7.283v14.566zm3.11 1.792l13.658-7.872 13.658 7.885-13.658 7.885-13.657-7.898zm12.621-10.88l-12.62-7.283 12.62-7.283V27.15zm-16.768-7.296l-12.62 7.284V12.584l12.62 7.27zM16.232 63.49L2.574 55.605V39.822l13.658 7.898v15.77zm2.074 0V48.91l12.62 7.284-12.62 7.296zm45.12-7.885L49.768 63.49V47.72l13.658-7.885v15.77z"/>
</svg>
