<svg xmlns="http://www.w3.org/2000/svg" width="52" height="69" viewBox="0 0 52 69">
    <g fill="#FFF" fill-rule="nonzero">
        <path d="M51.222.435H35.325a.202.202 0 0 0-.205.205v5.286c0 .116.09.205.205.205h6.336l-7.04 7.04A20.775 20.775 0 0 0 21.77 8.717C10.275 8.717.93 18.06.93 29.555c0 10.573 7.923 19.328 18.15 20.66v6.092H12.81c-.116 0-.205.09-.205.192v5.67c0 .116.09.205.205.205h6.272v5.978c0 .115.09.205.204.205h5.658c.115 0 .205-.09.205-.205v-5.99h6.272c.115 0 .205-.09.205-.205v-5.67a.202.202 0 0 0-.205-.205h-6.272v-6.196c9.894-1.6 17.459-10.201 17.459-20.544 0-4.288-1.331-8.473-3.802-11.98l6.938-6.938v5.914c0 .115.09.204.205.204h5.286c.115 0 .205-.09.205-.204V.64c0-.115-.102-.205-.218-.205M21.77 44.89c-8.474 0-15.335-6.861-15.335-15.335 0-8.473 6.861-15.334 15.335-15.334 8.473 0 15.334 6.86 15.334 15.334 0 8.461-6.86 15.322-15.334 15.335"/>
        <path d="M31.306 23.258H12.694a.207.207 0 0 0-.204.179v4.505c0 .103.09.192.204.18h18.599a.19.19 0 0 0 .205-.18v-4.505c0-.115-.09-.192-.192-.18M31.306 31.296H12.694a.208.208 0 0 0-.204.192v4.506c0 .102.09.192.204.179h18.599a.19.19 0 0 0 .205-.18v-4.505c0-.115-.09-.205-.192-.192"/>
    </g>
</svg>
