<svg xmlns="http://www.w3.org/2000/svg" width="64" height="64" viewBox="0 0 64 64">
    <path fill="#FFF" fill-rule="nonzero" d="M63.782 28.632c0-8.986-7.155-16.333-16.064-16.653C44.66 3.301 35.136-1.256 26.458 1.803A16.673 16.673 0 0 0 16.282 11.98C7.372 12.3.23 19.646.23 28.632c0 5.133 2.381 9.984 6.439 13.146a16.675 16.675 0 0 0-.653 4.633c0 9.19 7.475 16.666 16.678 16.666 3.354 0 6.644-1.011 9.408-2.919a16.533 16.533 0 0 0 9.255 2.804c9.19 0 16.665-7.476 16.665-16.666 0-1.536-.217-3.06-.627-4.531a16.777 16.777 0 0 0 6.387-13.133m-18.47-11.11c0 6.668-4.94 12.198-11.354 13.158a13.68 13.68 0 0 1-.179-2.048c.013-6.592 4.839-12.186 11.354-13.158.115.678.179 1.356.179 2.048M32.064 55.819c-5.274-5.094-5.414-13.504-.32-18.777l.192-.192c5.274 5.094 5.414 13.49.32 18.764-.064.077-.128.141-.192.205m-13.21-40.345c6.413.96 11.354 6.476 11.354 13.158 0 .691-.064 1.37-.18 2.048-6.4-.96-11.34-6.49-11.34-13.158 0-.692.064-1.37.166-2.048m9.933 19.11c-3.264 6.554-11.225 9.229-17.779 5.965-.077-.039-.154-.077-.218-.115 3.264-6.554 11.226-9.23 17.78-5.965.064.038.14.077.217.115m6.387-.09c6.49-3.404 14.516-.908 17.92 5.581.064.115.116.23.18.346-6.49 3.405-14.516.909-17.92-5.581a4.447 4.447 0 0 1-.18-.346M32 4.21c5.3 0 10.086 3.148 12.198 8A16.733 16.733 0 0 0 32 21.58a16.754 16.754 0 0 0-12.211-9.37A13.34 13.34 0 0 1 32 4.21M3.584 28.632c.013-6.797 5.133-12.506 11.891-13.235a16.61 16.61 0 0 0 5.3 14.451 16.743 16.743 0 0 0-12.788 8.666 13.32 13.32 0 0 1-4.403-9.882m5.773 17.766c0-.921.102-1.856.294-2.764a16.603 16.603 0 0 0 15.296-.423 16.598 16.598 0 0 0 4.429 14.656c-6.336 3.712-14.477 1.587-18.189-4.736a13.233 13.233 0 0 1-1.83-6.733m45.286-.115c.013 7.347-5.926 13.3-13.273 13.312a13.28 13.28 0 0 1-6.605-1.753 16.603 16.603 0 0 0 4.262-14.644 16.632 16.632 0 0 0 15.347.423c.18.883.27 1.766.27 2.662M43.327 29.746a16.654 16.654 0 0 0 5.35-12.224c0-.717-.05-1.421-.14-2.125 7.296.768 12.595 7.321 11.814 14.617a13.356 13.356 0 0 1-4.3 8.461 16.719 16.719 0 0 0-12.724-8.73"/>
</svg>
