<svg xmlns="http://www.w3.org/2000/svg" width="88" height="45" viewBox="0 0 88 45">
    <path fill="#FFF" fill-rule="nonzero" d="M79.648 4.57C74.426.448 68.166 0 65.722 0c-1.293 0-2.484.115-3.367.32l-.345.077c-3.303.78-8.845 2.086-15.284 10.086l-.192.23a.924.924 0 0 0-.166.487c0 .154.038.294.115.422l.141.244a124.066 124.066 0 0 1 2.65 4.633.853.853 0 0 0 1.152.371.626.626 0 0 0 .23-.179.94.94 0 0 1 .128-.166c5.555-7.693 9.92-8.717 12.8-9.395l.358-.09a8.171 8.171 0 0 1 1.767-.154c1.344 0 6.003.218 9.638 3.098 3.239 2.56 4.877 6.63 4.877 12.134 0 9.204-4.454 12.8-8.192 14.183-1.46.537-3.008.806-4.57.806a16.343 16.343 0 0 1-6.86-1.561l-.27-.128c-3.212-1.396-8.012-4.301-12.543-13.415C38.483 3.315 30.675 1.55 25.504.384L25.235.32c-.397-.09-1.51-.294-3.328-.294-2.995 0-8.755.588-13.696 4.53C4.845 7.246.813 12.468.813 22.094c0 5.862 1.203 9.728 4.3 13.798.577.794 5.965 7.757 16.32 7.757 1.588 0 3.175-.166 4.724-.46 1.894-.36 4.8-1.294 8.064-3.687l2.713 2.457a.81.81 0 0 0 1.101-.05.693.693 0 0 0 .192-.513l2.15-12.979v-.154a.73.73 0 0 0-.255-.563.795.795 0 0 0-.55-.205L26.95 30.976l-.243.038a.774.774 0 0 0-.346 1.331l.013.013 2.612 2.368c-1.37.845-2.752 1.408-4.084 1.664-1.1.218-2.227.32-3.353.333-7.155 0-10.675-4.697-10.816-4.89l-.077-.102C8.48 28.877 7.75 26.445 7.75 22.093c0-5.517 1.613-9.6 4.788-12.135 3.545-2.828 8.09-3.046 9.408-3.046a8.407 8.407 0 0 1 1.792.154l.281.064c4.135.934 9.78 2.214 17.626 17.958 4.134 8.32 9.331 13.747 15.859 16.614.755.384 4.813 2.317 9.997 2.317 2.38.013 4.749-.41 6.976-1.241 3.814-1.421 12.685-6.285 12.685-20.66 0-9.612-4.084-14.848-7.514-17.548z"/>
</svg>
