<svg xmlns="http://www.w3.org/2000/svg" width="54" height="52" viewBox="0 0 54 52">
    <g fill="#FFF" fill-rule="nonzero">
        <path d="M45.618.785s-1.074 1.432-.767 2.826c.307 1.394 1.905 2.225 1.905 2.225s1.074-1.432.767-2.826C47.217 1.616 45.618.785 45.618.785M43.866 8.943s1.074-1.432.768-2.826c-.307-1.393-1.906-2.224-1.906-2.224s-1.074 1.432-.767 2.825c.307 1.394 1.905 2.225 1.905 2.225M48.29 7.422s1.139 1.15 2.43 1.036c1.292-.116 2.25-1.445 2.25-1.445s-1.137-1.151-2.429-1.036c-1.291.115-2.25 1.445-2.25 1.445M50.158 1.297C49.109 2.37 49.25 4.25 49.25 4.25s1.854.166 2.915-.908c1.049-1.062.908-2.954.908-2.954s-1.867-.154-2.915.908M47.83 11.667c1.292.154 2.507-.959 2.507-.959s-.883-1.355-2.174-1.509c-1.292-.153-2.506.96-2.506.96s.882 1.355 2.173 1.508M48.981 34.058H39.34a1.37 1.37 0 0 0-1.369 1.368 1.37 1.37 0 0 0 1.369 1.368h9.641a1.37 1.37 0 0 0 1.368-1.368 1.37 1.37 0 0 0-1.368-1.368M48.981 49.083H39.34a1.37 1.37 0 0 0-1.369 1.368 1.37 1.37 0 0 0 1.369 1.368h9.641a1.37 1.37 0 0 0 1.368-1.368 1.37 1.37 0 0 0-1.368-1.368M5.645 30.746a6.316 6.316 0 0 0-.665-.167s.243.077.665.167"/>
        <path d="M48.623 37.74h-8.925a.783.783 0 0 0-.78.78v2.711l-5.831.64-8.517-.192v-5.217a21.81 21.81 0 0 0 3.389-.691c8.197-2.314 9.987-9.092 9.808-13.785-.18-4.77 1.355-6.623 3.542-7.455a10.021 10.021 0 0 1 1.816-.485c.025 1.176.255 2.531.792 4.155.192-.012.384-.025.576-.05-.55-1.663-.793-3.031-.806-4.195.64-.077 1.292-.102 1.944-.064a12.497 12.497 0 0 1-1.854-1.317c.37-2.263 1.713-3.644 3.107-5.076.767-.78 1.547-1.586 2.174-2.545l-.486-.307c-.588.908-1.355 1.7-2.097 2.455-1.356 1.381-2.724 2.8-3.184 5.051-.499-.448-.96-.92-1.407-1.42-2.02-2.263-4.629-.6-8.337 2.852-3.708 3.453-8.376 3.568-12.94-1.087-6.01-6.163-11.266-6.125-14.86-5.78 2.456 1.049 3.325 3.35 4.566 9.194 1.304 6.138 4.603 8.913 9.104 9.297-2.506.882-2.634 2.301-5.984 4.616-2.622 1.803-6.317 1.24-7.8.895 2.749.857 5.997 3.734 8.9 4.731 1.713.589 3.503.947 5.306 1.087v4.974l-15.23-.32v3.479l28.49-.652 5.831.64v2.697c0 .435.346.78.78.78h8.926c.435 0 .78-.345.78-.78v-8.849a.792.792 0 0 0-.793-.767zM21.26 36.653c.639.013 1.278-.012 1.905-.05v5.037l-1.905-.038v-4.949zM3.766 44.108c0 .73-.512 1.33-1.138 1.33h-.69c-.628 0-1.139-.588-1.139-1.33v-2.404c0-.729.511-1.33 1.138-1.33h.69c.627 0 1.139.589 1.139 1.33v2.404z"/>
    </g>
</svg>
