<svg xmlns="http://www.w3.org/2000/svg" width="78" height="66" viewBox="0 0 78 66">
    <g fill="#FFF" fill-rule="nonzero">
        <path d="M26.448 62.944V65.053a.938.938 0 0 0 .939.904H51.307a.956.956 0 0 0 .939-.947v-2.296c13.418-4.361 23.457-15.165 25.667-28.322 0-.029.015-.058.015-.072.014-.043.014-.086.014-.13a.965.965 0 0 0-.968-.96H1.026a.962.962 0 0 0-.968.947l.058.43C2.44 47.893 12.754 58.754 26.448 62.944M52.217 1.033c-.318.445-7.656 10.933.159 19.413 3.582 3.888 3.278 7.331 2.253 9.641h5.012c1.011-3.429.592-7.719-3.467-12.138-5.763-6.256.073-14.706.16-14.836.693-.96.317-2.21-.81-2.783-1.126-.574-2.614-.258-3.307.703M39.52 30.102h5.012c1.011-3.43.592-7.72-3.48-12.139-5.764-6.255.071-14.706.158-14.835.679-.961.318-2.195-.809-2.784-1.127-.588-2.614-.272-3.293.689-.318.445-7.656 10.933.159 19.413 3.582 3.902 3.279 7.331 2.253 9.656M21.999 1.033c-.318.445-7.656 10.933.159 19.413 3.582 3.902 3.279 7.331 2.253 9.641h5.012c1.011-3.429.593-7.719-3.48-12.138-5.764-6.256.071-14.706.158-14.836.679-.96.318-2.21-.823-2.783-1.141-.574-2.586-.258-3.28.703"/>
    </g>
</svg>
