<svg xmlns="http://www.w3.org/2000/svg" width="64" height="63" viewBox="0 0 64 63">
    <g fill="#FFF" fill-rule="nonzero">
        <path d="M21.658 36.54c.153 0 .281.129.281.282v9.319a.284.284 0 0 1-.281.281h-3.776a.284.284 0 0 1-.282-.281v-9.319c0-.153.128-.281.282-.281h3.776zM63.078 50.429H.922a.287.287 0 0 0-.282.294v3.802c0 .153.128.281.282.281h62.156a.284.284 0 0 0 .282-.281v-3.802a.305.305 0 0 0-.282-.294M63.078 57.98H.922a.284.284 0 0 0-.282.282v3.815c0 .153.128.281.282.281h62.156a.284.284 0 0 0 .282-.281v-3.815a.284.284 0 0 0-.282-.281M51.251 26.224c-.78-.614-2.854-2.022-5.376-2.022-1.805 0-3.481.716-4.992 2.124a.555.555 0 0 0-.166.384v.346a.518.518 0 0 0 .179.422c.115.103.282.141.435.103.039 0 .077-.013.115-.026a.957.957 0 0 0 .308-.192c.32-.217 1.216-.512 2.496-.512 1.318 0 3.904.359 6.4 2.688l.064.051c.14.141.332.23.537.23a.747.747 0 0 0 .525-.217l.051-.051c2.509-2.33 5.095-2.688 6.413-2.688 1.28 0 2.176.294 2.496.512.102.09.218.166.346.205a.846.846 0 0 0 .358 0 .534.534 0 0 0 .397-.512v-.295a.555.555 0 0 0-.167-.384c-1.523-1.446-3.212-2.176-5.056-2.176-2.508-.012-4.57 1.383-5.363 2.01M47.398 1.456a.508.508 0 0 0-.268.333l-.064.205a.535.535 0 0 0 .076.46c.09.128.23.205.384.205h.077a.595.595 0 0 0 .295-.077c.128-.025.256-.038.384-.038.281 0 2.79.09 4.441 2.906l.026.038c.077.154.23.269.397.32a.694.694 0 0 0 .512-.051l.038-.026a6.321 6.321 0 0 1 2.778-.691c1.574 0 2.598.64 2.841.909.051.09.115.166.205.23.064.039.128.064.205.103a.218.218 0 0 0 .09.012h.05a.558.558 0 0 0 .512-.384l.052-.179a.504.504 0 0 0-.051-.422c-1.204-2.1-2.957-2.535-4.212-2.535a6.684 6.684 0 0 0-2.24.423c-.563-.768-2.01-2.355-4.198-2.355-.82.025-1.613.23-2.33.614M34.266 11.018l.012.281a.531.531 0 0 0 .564.5c.038 0 .064-.013.102-.013.026-.013.064-.013.09-.026a.797.797 0 0 0 .268-.192c.27-.192 1.114-.538 2.368-.538 1.204 0 3.047.32 4.916 1.856l.038.052c.128.115.307.179.486.179h.052a.759.759 0 0 0 .486-.23l.038-.052c2.074-2.189 4.301-2.521 5.453-2.521.82 0 1.395.166 1.626.294.09.077.205.14.32.166a.682.682 0 0 0 .358-.012.543.543 0 0 0 .359-.538l-.013-.243a.53.53 0 0 0-.192-.371c-1.242-1.037-2.573-1.562-3.981-1.562-2.189 0-3.93 1.293-4.646 1.92-.666-.448-2.266-1.382-4.148-1.382-1.65 0-3.136.69-4.416 2.035a.494.494 0 0 0-.14.397M2.803 16.01c0-3.725 3.021-6.746 6.733-6.746.14 0 .282.013.435.026.371-5.018 4.749-8.781 9.767-8.41 5.017.371 8.78 4.749 8.41 9.766a9.06 9.06 0 0 1-.897 3.316c5.491 1.216 8.96 6.643 7.757 12.147-1.037 4.672-5.171 8-9.958 7.987-.41 0-13.594-.077-13.594-.077a7.214 7.214 0 0 1-7.22-7.193c0-1.844.705-3.623 1.972-4.954a6.774 6.774 0 0 1-3.405-5.862z"/>
    </g>
</svg>
