<svg xmlns="http://www.w3.org/2000/svg" width="62" height="66" viewBox="0 0 62 66">
    <g fill="#FFF" fill-rule="nonzero">
        <path d="M55.858 15.976L42.853 28.354c-.487.486-.743.844-.743 1.856v34.688c0 .41.333.742.743.742h13.44c.41 0 .742-.333.742-.742V16.283c-.013-.41-.333-1.152-1.177-.307M18.366 32.104L5.362 44.469c-.487.486-.743.845-.743 1.856v18.56c0 .41.333.742.743.742h13.44c.41 0 .742-.333.742-.742V32.41c0-.41-.32-1.165-1.178-.307"/>
        <path d="M61.771.962a.397.397 0 0 0-.115-.282.35.35 0 0 0-.243-.102h-.179L51.275 2.83l-.179.013a.352.352 0 0 0-.192.103.395.395 0 0 0 0 .537l.115.115 2.279 2.279-22.58 22.579-10.432-10.432a.301.301 0 0 0-.422 0l-2.829 2.829L.318 37.57a.301.301 0 0 0 0 .422l2.83 2.829a.301.301 0 0 0 .422 0l16.512-16.5 7.564 7.565c.013.013.013.026.026.039l2.829 2.829a.301.301 0 0 0 .422 0L56.536 9.128l2.394 2.38c.14.142.384.154.524 0a.35.35 0 0 0 .103-.242v-.026l2.189-10.163.025-.115z"/>
        <path d="M37.182 34.267l-6.297 6.349c-.115.102-.295.09-.41-.013l-5.696-5.811c-1.05-1.037-1.267-.192-1.267.218v29.888c0 .41.333.742.742.742h13.44c.41 0 .743-.333.743-.742V34.51c-.013-.41-.333-1.164-1.255-.243"/>
    </g>
</svg>
