<svg xmlns="http://www.w3.org/2000/svg" width="66" height="66" viewBox="0 0 66 66">
    <g fill="#FFF" fill-rule="nonzero">
        <path d="M33 14.143a18.762 18.762 0 1 0 18.755 18.76c0-10.359-8.396-18.757-18.755-18.76m-1.389 7.41c0-.622.626-1.311 1.397-1.311.77 0 1.388.689 1.388 1.312v6.442c0 .621-.62 1.302-1.388 1.302-.768 0-1.397-.681-1.397-1.302v-6.442zM33 42.517a9.759 9.759 0 0 1-2.9-19.072v3.634a6.386 6.386 0 1 0 5.784-.009v-3.633A9.759 9.759 0 0 1 33 42.516M11.461 32.74c0-.851-.753-1.536-1.44-1.536H1.803c-.693 0-1.453.688-1.453 1.536 0 .847.76 1.545 1.453 1.545h8.216c.688 0 1.441-.693 1.441-1.545M65.649 32.74c0-.851-.754-1.536-1.441-1.536h-8.215c-.693 0-1.453.688-1.453 1.536 0 .847.76 1.545 1.453 1.545h8.215c.687 0 1.441-.693 1.441-1.545M33 11.204c.849 0 1.536-.754 1.536-1.441V1.546c0-.692-.69-1.453-1.536-1.453-.846 0-1.548.76-1.548 1.453v8.217c0 .687.696 1.44 1.548 1.44"/>
        <path d="M33 65.39c.849 0 1.536-.754 1.536-1.441v-8.215c0-.691-.69-1.453-1.536-1.453-.846 0-1.548.762-1.548 1.453v8.215c0 .687.696 1.441 1.548 1.441M14.312 22.04c.424-.738.113-1.71-.486-2.048l-7.13-4.08c-.602-.345-1.603-.128-2.026.614-.424.742-.106 1.72.494 2.063l7.13 4.081c.597.342 1.596.115 2.018-.626M61.338 48.956c.421-.736.11-1.71-.486-2.048l-7.13-4.08c-.602-.344-1.604-.128-2.026.615-.423.744-.108 1.72.492 2.062l7.131 4.08c.597.343 1.595.116 2.019-.625M43.702 14.05c.737.422 1.709.11 2.048-.486l4.08-7.13c.345-.602.127-1.605-.614-2.027-.74-.422-1.72-.107-2.063.494l-4.077 7.131c-.342.598-.115 1.596.626 2.02M16.786 61.08c.738.421 1.709.11 2.048-.487l4.08-7.13c.344-.6.128-1.604-.615-2.026-.742-.423-1.715-.109-2.058.494l-4.08 7.13c-.342.596-.116 1.596.625 2.02M22.266 14.068c.736-.423.959-1.42.616-2.017L18.786 4.93c-.346-.6-1.321-.915-2.059-.491-.737.423-.96 1.43-.614 2.03l4.096 7.12c.344.597 1.318.905 2.06.48M49.278 61.043c.737-.423.958-1.42.617-2.016l-4.096-7.122c-.346-.601-1.321-.916-2.06-.493-.738.424-.961 1.43-.613 2.032l4.096 7.12c.343.597 1.318.904 2.058.48M51.674 22.007c.424.737 1.42.959 2.016.617l7.12-4.096c.602-.346.92-1.322.495-2.06-.425-.737-1.429-.96-2.03-.614l-7.121 4.096c-.598.343-.905 1.32-.48 2.058M4.7 49.024c.423.737 1.419.959 2.016.616l7.121-4.096c.6-.346.918-1.323.492-2.06-.427-.737-1.429-.96-2.03-.616l-7.12 4.096c-.598.342-.905 1.32-.48 2.059"/>
    </g>
</svg>
