<svg xmlns="http://www.w3.org/2000/svg" width="48" height="66" viewBox="0 0 48 66">
    <path fill="#FFF" fill-rule="nonzero" d="M47.642.763a.56.56 0 0 0-.423-.18H.781a.51.51 0 0 0-.538.5c0 .039 0 .077.013.115L8.064 48.38a.539.539 0 0 0 .538.448h9.574l.653 7.68h-4.045l9.37 9.37 9.395-9.395h-4.032l.653-7.655h9.74c.27 0 .5-.192.538-.46l7.296-47.181a.507.507 0 0 0-.102-.423zM29.683 38.536a7.482 7.482 0 0 1-5.542 1.933 7.413 7.413 0 0 1-5.543-1.933c-3.481-3.482-2.24-7.795-1.024-10.035.743-1.395 6.093-9.421 6.554-10.112v-.051l.026.025.012-.025v.05c.448.68 5.799 8.705 6.554 10.113 1.203 2.227 2.445 6.553-1.037 10.035zm14.733-27.853c-1.254-.55-2.854-.358-4.39.269-5.76 2.33-9.69 3.174-15.744 1.28-3.815-1.19-7.386-3.7-11.61-2.176-2.803 1.011-5.414 1.971-8.576 1.946l-1.83-9.383h43.456l-1.306 8.064z"/>
</svg>
