<svg xmlns="http://www.w3.org/2000/svg" width="96" height="49" viewBox="0 0 96 49">
    <path fill="#FFF" fill-rule="nonzero" d="M94.989 24.128C91.609 19.405 76.365.512 48 .512S4.39 19.405 1.011 24.128c-.14.205-.269.384-.371.525.102.153.23.32.371.537C4.391 29.926 19.635 48.806 48 48.806S91.61 29.914 94.989 25.19c.153-.204.269-.384.358-.537-.09-.141-.217-.32-.358-.525M32.192 12.454c.256-.37 1.1-1.446 1.203-1.574.218-.282.653-.346.96-.397.307-.051.704.115.755.333.052.218-.115 1.1-.268 1.254-.41.436-1.498 1.037-2.1.948-.46-.064-.64-.423-.55-.564m-1.024 2.023c.051-.051.09-.103.102-.115.359-.41 1.063-.5 1.562-.576.5-.077 1.152.166 1.229.486.077.32-1.229.922-1.472 1.152-.679.627-1.754 1.907-2.368 2.048a.783.783 0 0 1-.512-.051 18 18 0 0 1 1.459-2.944M41.779 36.25c-.384 1.51-.832 2.048-1.216 2.534-.384.486-1.792 1.1-2.688 1.024-.896-.077-1.024-2.458-1.024-3.7 0-.422-.601.833-.921-1.727-.205-1.639-1.255.166-1.332-.922-.076-1.088-.601-.87-1.152-1.561-.55-.692-1.241.064-2.01.41-.767.345-.447.524-1.535.178-.026-.012-.039-.012-.064-.025a19.587 19.587 0 0 1-1.46-9.664.909.909 0 0 1 .129-.18c1.05-1.241 1.024-1.523 1.024-1.523l1.152-.396s1.843.281 3.238.806c1.152.422 2.944 1.395 3.994.973.755-.307 1.356-.73 1.28-1.357-.09-.794-.704-.986-1.46-.448-.281.192-.87-1.19-1.344-1.126-.473.064.576 1.638.18 1.702-.397.064-1.19-1.626-1.332-1.907-.14-.282-.755-.96-1.305-.435-1.165 1.113-3.06 1.036-3.443 1.318-1.152.87-1.46-.282-1.434-.986.051-.153.09-.32.14-.486.385-.41 1.729-.55 2.202-.243.512.345.884-.09 1.076-.295.192-.204.128-.537 0-.806s.256-.474.524-.55c.27-.077 1.152-.692 1.498-.896.346-.205 2.176-.423 2.995-.013a1.576 1.576 0 0 0 1.971-.397 5.16 5.16 0 0 1 1.434-1.19c.282-.128-.704-1.063-1.523-.052-.82 1.012-1.229 1.101-1.613 1.101-.384 0-2.662-.563-2.944-1.293-.282-.73.717-1.254 1.549-1.664.832-.41 3.149-.396 3.737-.524 1.204-.256 2.727-.87 3.495-.346.768.525-3.213 1.42-1.907 2.138.46.256 2.572-1.216 3.302-1.588 1.702-.87-1.651-1.164-1.216-2.944.486-2.01-4.109-1.228-6.4-1.062 9.19-5.875 21.402-3.2 27.277 5.99a19.952 19.952 0 0 1 2.573 6.03c.012.306-.026.614-.103.92-.179.718-1.536 1.32-2.317.18-.204-.294-1.05-1.088-1.024.282.026 1.37 1.332 1.51.064 2.33-1.267.818-1.497.626-2.073.831-.576.205-1.152 1.613-1.011 2.368.14.755 1.945 2.816.601 2.727-.32-.026-2.675-1.639-3.059-2.676-.41-1.088-.858-2.163-1.178-2.982-.32-.82-1.152-1.024-1.856-.55-.704.473.192.96-.307 1.984s-.87 1.945-1.6 1.1c-1.933-2.214-4.736-1.126-5.171-3.584-.243-1.33-1.382-1.203-2.342-1.958-.96-.755-1.498-1.152-1.664-.614-.141.473 3.02 2.982 3.25 3.622.334.96-.946 1.792-1.88 2.022-.935.23-1.345-.524-2.266-1.484-.922-.96-1.319-1.639-1.383-.884-.09 1.088.87 2.688 1.805 3.277.794.512 1.69.73 1.434 1.562-.256.832 0 .358-.896 1.241-.896.884-1.063 1.178-.999 2.407.064 1.229-.256 1.305-.448 2.33-.192 1.023-.64.14-1.024 1.65m21.197-7.884c.666-.051 1.664.87 1.267 1.216-.397.345-1.382.217-1.881-.167-.5-.384.32-1.024.614-1.05m-.845-.6c-.217-.078-.397-.282-.563-.769-.166-.486.243-.768.64-.563.397.205.934.806.934 1.126 0 .32-.793.282-1.01.205m-8.718-.038c-.384.345-1.382.217-1.894-.167s.32-1.024.614-1.05c.666-.063 1.664.858 1.28 1.217m-8.064 3.917c-.268.448-1.01 3.763-1.51 3.379-.5-.384.205-3.853.346-4.122.78-1.42 2.47-1.344 1.164.743m2.688 12.876a19.89 19.89 0 0 1-5.555-.793.815.815 0 0 1-.243-.96c.614-1.6 2.432-2.215 3.866-2.355 3.2-.308 7.41 2.073 8.076 1.69.666-.385 2.023-2.151 4.007-2.074 1.357.05 1.344.281 1.805.448a19.48 19.48 0 0 1-11.956 4.044m13.94-5.747a2.532 2.532 0 0 1-.615-.23c-1.075-.55-.947.333-1.485.128-.537-.205.602-1.434-.998-.384-1.6 1.05-1.152-.167-1.856-1.92-.704-1.754.794-3.763 2.048-4.224 1.715-.615 2.778-.743 3.584-.947 2.368-.59 2.88-1.997 3.302-1.14.077.154.154.32.23.461.193.41.295.845.295 1.293a19.732 19.732 0 0 1-4.505 6.963m5.401-9.971c-.525-.14-2.752-3.213-.998-5.222.294-.333-.589-1.306-.346-1.332.96-.076 1.472.525 1.728 1.383.026.384.039.755.039 1.152-.013 1.357-.141 2.7-.423 4.019"/>
</svg>
