<svg xmlns="http://www.w3.org/2000/svg" width="68" height="67" viewBox="0 0 68 67">
    <g fill="#FFF" fill-rule="nonzero">
        <path d="M45.814 37.16H22.186c-.154.013-.27.14-.256.282v7.104a.256.256 0 0 0 .256.281h23.628c.154-.013.27-.14.256-.281v-7.104c.013-.141-.102-.27-.256-.282M45.814 22.056H22.186c-.154.013-.27.14-.256.282v7.104a.256.256 0 0 0 .256.281h23.628c.154-.013.27-.14.256-.281v-7.104c.013-.141-.102-.27-.256-.282"/>
        <g>
            <path d="M45.482 11.317L34.14-.024a.2.2 0 0 0-.282 0l-11.34 11.34a.2.2 0 0 0 0 .282c.038.039.089.052.14.052h22.682c.102 0 .192-.09.192-.192a.192.192 0 0 0-.051-.141zM56.131 44.93l11.341-11.341a.2.2 0 0 0 0-.282l-11.34-11.34a.2.2 0 0 0-.282 0 .192.192 0 0 0-.052.14V44.79c0 .102.09.192.192.192.052.013.103-.013.141-.051zM22.518 55.58L33.86 66.92c.077.077.205.077.269 0l11.34-11.34a.2.2 0 0 0 0-.282.206.206 0 0 0-.14-.064H22.659a.208.208 0 0 0-.205.192c0 .064.026.115.064.153zM11.869 21.966L.528 33.307a.2.2 0 0 0 0 .282l11.34 11.34a.2.2 0 0 0 .282 0 .192.192 0 0 0 .052-.14V22.107a.197.197 0 0 0-.192-.192.192.192 0 0 0-.141.051z"/>
        </g>
    </g>
</svg>
