<svg xmlns="http://www.w3.org/2000/svg" width="72" height="59" viewBox="0 0 72 59">
    <g fill="#FFF" fill-rule="nonzero">
        <path d="M28.102 17.634L5.152 4.373v42.88l22.95 6.925zM30.624 17.723v36.48l23.104-6.95V4.373zM71.75 3.285A2.718 2.718 0 0 0 69.088.507 2.718 2.718 0 0 0 66.31 3.17V6.216h5.428V3.285h.012zM67.002 46.498h-.679l2.714 9.484 2.713-9.484h-.678.678V8.34H66.323v38.157z"/>
        <path d="M58.669 6.216l-2.47-1.946v44.148L30.7 56.66h-2.599L2.707 49.57V4.27L.25 6.216v45.082l27.737 7.68H30.816l25.587-8.128 2.266-.666z"/>
    </g>
</svg>
