<svg xmlns="http://www.w3.org/2000/svg" width="160" height="160" viewBox="0 0 160 160" fill="none">
    <rect x="2" y="2" width="156" height="156" rx="14" fill="#F2FAFD" />
    <path fill-rule="evenodd" clip-rule="evenodd"
        d="M80.6123 56C93.9707 56 104.8 66.8291 104.8 80.1875C104.8 93.5459 93.9707 104.375 80.6123 104.375C67.2539 104.375 56.4248 93.5459 56.4248 80.1875C56.4248 66.8291 67.2539 56 80.6123 56ZM80.612 59.0234C68.9234 59.0234 59.4479 68.4989 59.4479 80.1875C59.4479 85.9799 61.7749 91.2288 65.545 95.0503C65.6174 94.4723 65.7681 93.8758 65.9933 93.2743C67.5862 89.0191 72.9061 84.5106 80.6123 84.5106C89.4255 84.5106 95.0962 90.3833 95.6797 95.0496C99.4494 91.2281 101.776 85.9795 101.776 80.1875C101.776 68.4989 92.3006 59.0234 80.612 59.0234ZM80.6307 81.2113C84.5001 81.2113 87.8194 77.6396 87.8194 73.0335C87.8194 68.4859 84.4811 65.0703 80.6307 65.0703C76.7613 65.0703 73.423 68.5639 73.423 73.0725C73.4419 77.6396 76.7423 81.2113 80.6307 81.2113Z"
        fill="#CEE6F4" />
    <rect x="2" y="2" width="156" height="156" rx="14" stroke="white" stroke-width="4" />
</svg>