<svg width="660" height="238" viewBox="0 0 660 238" fill="none" xmlns="http://www.w3.org/2000/svg">
<path d="M60.4444 235.04V234.273L63.3251 231.12C63.6632 230.75 63.9416 230.429 64.1603 230.157C64.3791 229.881 64.541 229.622 64.6461 229.381C64.7541 229.137 64.8081 228.881 64.8081 228.614C64.8081 228.307 64.7342 228.041 64.5865 227.817C64.4416 227.593 64.2427 227.419 63.9899 227.297C63.737 227.175 63.4529 227.114 63.1376 227.114C62.8024 227.114 62.5098 227.184 62.2598 227.323C62.0126 227.459 61.8208 227.651 61.6845 227.898C61.551 228.145 61.4842 228.435 61.4842 228.767H60.4785C60.4785 228.256 60.5964 227.807 60.8322 227.421C61.068 227.034 61.389 226.733 61.7953 226.517C62.2044 226.301 62.6632 226.193 63.1717 226.193C63.6831 226.193 64.1362 226.301 64.5311 226.517C64.926 226.733 65.2356 227.024 65.46 227.391C65.6845 227.757 65.7967 228.165 65.7967 228.614C65.7967 228.935 65.7385 229.249 65.622 229.556C65.5083 229.86 65.3095 230.199 65.0254 230.574C64.7441 230.946 64.3535 231.401 63.8535 231.938L61.8933 234.034V234.103H65.9501V235.04H60.4444ZM70.5566 235.159C69.9146 235.159 69.3677 234.985 68.916 234.635C68.4643 234.283 68.1191 233.773 67.8805 233.105C67.6419 232.435 67.5225 231.625 67.5225 230.676C67.5225 229.733 67.6419 228.928 67.8805 228.26C68.122 227.59 68.4686 227.078 68.9203 226.726C69.3748 226.371 69.9203 226.193 70.5566 226.193C71.193 226.193 71.737 226.371 72.1887 226.726C72.6433 227.078 72.9899 227.59 73.2285 228.26C73.47 228.928 73.5907 229.733 73.5907 230.676C73.5907 231.625 73.4714 232.435 73.2328 233.105C72.9941 233.773 72.649 234.283 72.1973 234.635C71.7456 234.985 71.1987 235.159 70.5566 235.159ZM70.5566 234.222C71.193 234.222 71.6873 233.915 72.0396 233.301C72.3919 232.688 72.568 231.813 72.568 230.676C72.568 229.921 72.487 229.277 72.3251 228.746C72.166 228.215 71.9359 227.81 71.6348 227.532C71.3365 227.253 70.9771 227.114 70.5566 227.114C69.926 227.114 69.4331 227.425 69.0779 228.047C68.7228 228.666 68.5453 229.543 68.5453 230.676C68.5453 231.432 68.6248 232.074 68.7839 232.603C68.943 233.131 69.1717 233.533 69.47 233.809C69.7711 234.084 70.1333 234.222 70.5566 234.222ZM78.2782 226.313V235.04H77.2214V227.421H77.1703L75.0396 228.835V227.762L77.2214 226.313H78.2782ZM80.5836 233.25V232.381L84.4189 226.313H85.0495V227.659H84.6234L81.7257 232.245V232.313H86.8904V233.25H80.5836ZM84.6916 235.04V232.986V232.581V226.313H85.6973V235.04H84.6916Z" fill="black"/>
<path d="M117.538 235.04V234.273L120.419 231.12C120.757 230.75 121.035 230.429 121.254 230.157C121.473 229.881 121.635 229.622 121.74 229.381C121.848 229.137 121.902 228.881 121.902 228.614C121.902 228.307 121.828 228.041 121.68 227.817C121.535 227.593 121.336 227.419 121.084 227.297C120.831 227.175 120.547 227.114 120.231 227.114C119.896 227.114 119.604 227.184 119.354 227.323C119.106 227.459 118.915 227.651 118.778 227.898C118.645 228.145 118.578 228.435 118.578 228.767H117.572C117.572 228.256 117.69 227.807 117.926 227.421C118.162 227.034 118.483 226.733 118.889 226.517C119.298 226.301 119.757 226.193 120.265 226.193C120.777 226.193 121.23 226.301 121.625 226.517C122.02 226.733 122.329 227.024 122.554 227.391C122.778 227.757 122.89 228.165 122.89 228.614C122.89 228.935 122.832 229.249 122.716 229.556C122.602 229.86 122.403 230.199 122.119 230.574C121.838 230.946 121.447 231.401 120.947 231.938L118.987 234.034V234.103H123.044V235.04H117.538ZM127.65 235.159C127.008 235.159 126.461 234.985 126.01 234.635C125.558 234.283 125.213 233.773 124.974 233.105C124.736 232.435 124.616 231.625 124.616 230.676C124.616 229.733 124.736 228.928 124.974 228.26C125.216 227.59 125.562 227.078 126.014 226.726C126.469 226.371 127.014 226.193 127.65 226.193C128.287 226.193 128.831 226.371 129.282 226.726C129.737 227.078 130.084 227.59 130.322 228.26C130.564 228.928 130.684 229.733 130.684 230.676C130.684 231.625 130.565 232.435 130.327 233.105C130.088 233.773 129.743 234.283 129.291 234.635C128.839 234.985 128.292 235.159 127.65 235.159ZM127.65 234.222C128.287 234.222 128.781 233.915 129.133 233.301C129.486 232.688 129.662 231.813 129.662 230.676C129.662 229.921 129.581 229.277 129.419 228.746C129.26 228.215 129.03 227.81 128.729 227.532C128.43 227.253 128.071 227.114 127.65 227.114C127.02 227.114 126.527 227.425 126.172 228.047C125.817 228.666 125.639 229.543 125.639 230.676C125.639 231.432 125.719 232.074 125.878 232.603C126.037 233.131 126.265 233.533 126.564 233.809C126.865 234.084 127.227 234.222 127.65 234.222ZM135.372 226.313V235.04H134.315V227.421H134.264L132.133 228.835V227.762L134.315 226.313H135.372ZM140.609 235.159C140.109 235.159 139.659 235.06 139.258 234.861C138.858 234.662 138.537 234.389 138.295 234.043C138.054 233.696 137.922 233.301 137.899 232.858H138.922C138.961 233.253 139.14 233.58 139.459 233.838C139.78 234.094 140.163 234.222 140.609 234.222C140.967 234.222 141.285 234.138 141.564 233.97C141.845 233.803 142.065 233.573 142.224 233.28C142.386 232.985 142.467 232.651 142.467 232.279C142.467 231.898 142.383 231.559 142.216 231.26C142.051 230.959 141.824 230.722 141.534 230.549C141.244 230.375 140.913 230.287 140.541 230.284C140.274 230.282 140 230.323 139.719 230.408C139.437 230.49 139.206 230.597 139.024 230.728L138.035 230.608L138.564 226.313H143.098V227.25H139.45L139.143 229.824H139.194C139.373 229.682 139.598 229.564 139.868 229.47C140.138 229.377 140.419 229.33 140.711 229.33C141.246 229.33 141.721 229.458 142.139 229.713C142.559 229.966 142.889 230.313 143.128 230.753C143.369 231.193 143.49 231.696 143.49 232.262C143.49 232.818 143.365 233.316 143.115 233.753C142.868 234.188 142.527 234.532 142.092 234.784C141.657 235.034 141.163 235.159 140.609 235.159Z" fill="black"/>
<path d="M173.839 235.04V234.273L176.72 231.12C177.058 230.75 177.336 230.429 177.555 230.157C177.774 229.881 177.936 229.622 178.041 229.381C178.149 229.137 178.203 228.881 178.203 228.614C178.203 228.307 178.129 228.041 177.981 227.817C177.836 227.593 177.637 227.419 177.384 227.297C177.132 227.175 176.847 227.114 176.532 227.114C176.197 227.114 175.904 227.184 175.654 227.323C175.407 227.459 175.215 227.651 175.079 227.898C174.945 228.145 174.879 228.435 174.879 228.767H173.873C173.873 228.256 173.991 227.807 174.227 227.421C174.463 227.034 174.784 226.733 175.19 226.517C175.599 226.301 176.058 226.193 176.566 226.193C177.078 226.193 177.531 226.301 177.926 226.517C178.32 226.733 178.63 227.024 178.855 227.391C179.079 227.757 179.191 228.165 179.191 228.614C179.191 228.935 179.133 229.249 179.017 229.556C178.903 229.86 178.704 230.199 178.42 230.574C178.139 230.946 177.748 231.401 177.248 231.938L175.288 234.034V234.103H179.345V235.04H173.839ZM183.951 235.159C183.309 235.159 182.762 234.985 182.311 234.635C181.859 234.283 181.514 233.773 181.275 233.105C181.036 232.435 180.917 231.625 180.917 230.676C180.917 229.733 181.036 228.928 181.275 228.26C181.517 227.59 181.863 227.078 182.315 226.726C182.769 226.371 183.315 226.193 183.951 226.193C184.588 226.193 185.132 226.371 185.583 226.726C186.038 227.078 186.384 227.59 186.623 228.26C186.865 228.928 186.985 229.733 186.985 230.676C186.985 231.625 186.866 232.435 186.627 233.105C186.389 233.773 186.044 234.283 185.592 234.635C185.14 234.985 184.593 235.159 183.951 235.159ZM183.951 234.222C184.588 234.222 185.082 233.915 185.434 233.301C185.786 232.688 185.963 231.813 185.963 230.676C185.963 229.921 185.882 229.277 185.72 228.746C185.561 228.215 185.33 227.81 185.029 227.532C184.731 227.253 184.372 227.114 183.951 227.114C183.32 227.114 182.828 227.425 182.472 228.047C182.117 228.666 181.94 229.543 181.94 230.676C181.94 231.432 182.019 232.074 182.178 232.603C182.338 233.131 182.566 233.533 182.865 233.809C183.166 234.084 183.528 234.222 183.951 234.222ZM191.673 226.313V235.04H190.616V227.421H190.565L188.434 228.835V227.762L190.616 226.313H191.673ZM197.08 235.159C196.722 235.154 196.365 235.085 196.007 234.955C195.649 234.824 195.322 234.604 195.026 234.294C194.731 233.982 194.494 233.56 194.315 233.029C194.136 232.495 194.046 231.824 194.046 231.017C194.046 230.245 194.119 229.56 194.264 228.963C194.409 228.364 194.619 227.86 194.894 227.451C195.17 227.039 195.502 226.726 195.892 226.513C196.284 226.3 196.725 226.193 197.217 226.193C197.705 226.193 198.14 226.291 198.521 226.487C198.904 226.681 199.217 226.951 199.458 227.297C199.7 227.644 199.856 228.043 199.927 228.495H198.887C198.791 228.103 198.603 227.777 198.325 227.519C198.046 227.26 197.677 227.131 197.217 227.131C196.541 227.131 196.008 227.425 195.619 228.013C195.232 228.601 195.038 229.426 195.035 230.489H195.103C195.262 230.247 195.451 230.041 195.67 229.871C195.892 229.698 196.136 229.564 196.403 229.47C196.67 229.377 196.953 229.33 197.251 229.33C197.751 229.33 198.208 229.455 198.623 229.705C199.038 229.952 199.37 230.294 199.62 230.732C199.87 231.166 199.995 231.665 199.995 232.228C199.995 232.767 199.874 233.262 199.633 233.71C199.392 234.157 199.052 234.512 198.615 234.776C198.18 235.037 197.669 235.165 197.08 235.159ZM197.08 234.222C197.438 234.222 197.759 234.132 198.044 233.953C198.33 233.774 198.556 233.534 198.721 233.233C198.889 232.932 198.972 232.597 198.972 232.228C198.972 231.867 198.892 231.539 198.73 231.243C198.57 230.945 198.35 230.708 198.069 230.532C197.791 230.355 197.472 230.267 197.115 230.267C196.845 230.267 196.593 230.321 196.36 230.429C196.127 230.534 195.923 230.679 195.747 230.864C195.573 231.049 195.437 231.26 195.338 231.499C195.238 231.735 195.188 231.983 195.188 232.245C195.188 232.591 195.269 232.915 195.431 233.216C195.596 233.517 195.82 233.76 196.105 233.945C196.392 234.13 196.717 234.222 197.08 234.222Z" fill="black"/>
<path d="M230.55 235.04V234.273L233.431 231.12C233.769 230.75 234.047 230.429 234.266 230.157C234.485 229.881 234.646 229.622 234.752 229.381C234.86 229.137 234.914 228.881 234.914 228.614C234.914 228.307 234.84 228.041 234.692 227.817C234.547 227.593 234.348 227.419 234.095 227.297C233.843 227.175 233.558 227.114 233.243 227.114C232.908 227.114 232.615 227.184 232.365 227.323C232.118 227.459 231.926 227.651 231.79 227.898C231.656 228.145 231.59 228.435 231.59 228.767H230.584C230.584 228.256 230.702 227.807 230.938 227.421C231.173 227.034 231.494 226.733 231.901 226.517C232.31 226.301 232.769 226.193 233.277 226.193C233.789 226.193 234.242 226.301 234.637 226.517C235.031 226.733 235.341 227.024 235.566 227.391C235.79 227.757 235.902 228.165 235.902 228.614C235.902 228.935 235.844 229.249 235.727 229.556C235.614 229.86 235.415 230.199 235.131 230.574C234.85 230.946 234.459 231.401 233.959 231.938L231.999 234.034V234.103H236.056V235.04H230.55ZM240.662 235.159C240.02 235.159 239.473 234.985 239.021 234.635C238.57 234.283 238.225 233.773 237.986 233.105C237.747 232.435 237.628 231.625 237.628 230.676C237.628 229.733 237.747 228.928 237.986 228.26C238.227 227.59 238.574 227.078 239.026 226.726C239.48 226.371 240.026 226.193 240.662 226.193C241.298 226.193 241.843 226.371 242.294 226.726C242.749 227.078 243.095 227.59 243.334 228.26C243.575 228.928 243.696 229.733 243.696 230.676C243.696 231.625 243.577 232.435 243.338 233.105C243.1 233.773 242.754 234.283 242.303 234.635C241.851 234.985 241.304 235.159 240.662 235.159ZM240.662 234.222C241.298 234.222 241.793 233.915 242.145 233.301C242.497 232.688 242.673 231.813 242.673 230.676C242.673 229.921 242.593 229.277 242.431 228.746C242.271 228.215 242.041 227.81 241.74 227.532C241.442 227.253 241.083 227.114 240.662 227.114C240.031 227.114 239.539 227.425 239.183 228.047C238.828 228.666 238.651 229.543 238.651 230.676C238.651 231.432 238.73 232.074 238.889 232.603C239.048 233.131 239.277 233.533 239.575 233.809C239.877 234.084 240.239 234.222 240.662 234.222ZM248.384 226.313V235.04H247.327V227.421H247.276L245.145 228.835V227.762L247.327 226.313H248.384ZM251.166 235.04L255.07 227.318V227.25H250.57V226.313H256.161V227.301L252.274 235.04H251.166Z" fill="black"/>
<path d="M286.675 235.04V234.273L289.556 231.12C289.894 230.75 290.172 230.429 290.391 230.157C290.61 229.881 290.771 229.622 290.877 229.381C290.985 229.137 291.039 228.881 291.039 228.614C291.039 228.307 290.965 228.041 290.817 227.817C290.672 227.593 290.473 227.419 290.22 227.297C289.968 227.175 289.683 227.114 289.368 227.114C289.033 227.114 288.74 227.184 288.49 227.323C288.243 227.459 288.051 227.651 287.915 227.898C287.781 228.145 287.715 228.435 287.715 228.767H286.709C286.709 228.256 286.827 227.807 287.063 227.421C287.298 227.034 287.619 226.733 288.026 226.517C288.435 226.301 288.894 226.193 289.402 226.193C289.914 226.193 290.367 226.301 290.762 226.517C291.156 226.733 291.466 227.024 291.691 227.391C291.915 227.757 292.027 228.165 292.027 228.614C292.027 228.935 291.969 229.249 291.852 229.556C291.739 229.86 291.54 230.199 291.256 230.574C290.975 230.946 290.584 231.401 290.084 231.938L288.124 234.034V234.103H292.181V235.04H286.675ZM296.787 235.159C296.145 235.159 295.598 234.985 295.146 234.635C294.695 234.283 294.35 233.773 294.111 233.105C293.872 232.435 293.753 231.625 293.753 230.676C293.753 229.733 293.872 228.928 294.111 228.26C294.352 227.59 294.699 227.078 295.151 226.726C295.605 226.371 296.151 226.193 296.787 226.193C297.423 226.193 297.968 226.371 298.419 226.726C298.874 227.078 299.22 227.59 299.459 228.26C299.7 228.928 299.821 229.733 299.821 230.676C299.821 231.625 299.702 232.435 299.463 233.105C299.225 233.773 298.879 234.283 298.428 234.635C297.976 234.985 297.429 235.159 296.787 235.159ZM296.787 234.222C297.423 234.222 297.918 233.915 298.27 233.301C298.622 232.688 298.798 231.813 298.798 230.676C298.798 229.921 298.718 229.277 298.556 228.746C298.396 228.215 298.166 227.81 297.865 227.532C297.567 227.253 297.208 227.114 296.787 227.114C296.156 227.114 295.664 227.425 295.308 228.047C294.953 228.666 294.776 229.543 294.776 230.676C294.776 231.432 294.855 232.074 295.014 232.603C295.173 233.131 295.402 233.533 295.7 233.809C296.002 234.084 296.364 234.222 296.787 234.222ZM304.509 226.313V235.04H303.452V227.421H303.401L301.27 228.835V227.762L303.452 226.313H304.509ZM309.814 235.159C309.229 235.159 308.712 235.056 308.263 234.848C307.817 234.638 307.469 234.35 307.219 233.983C306.969 233.614 306.845 233.193 306.848 232.722C306.845 232.353 306.918 232.012 307.066 231.699C307.213 231.384 307.415 231.121 307.671 230.911C307.929 230.698 308.218 230.563 308.536 230.506V230.455C308.118 230.347 307.786 230.112 307.539 229.752C307.291 229.388 307.169 228.975 307.172 228.512C307.169 228.068 307.281 227.672 307.509 227.323C307.736 226.973 308.048 226.698 308.446 226.496C308.847 226.294 309.303 226.193 309.814 226.193C310.32 226.193 310.771 226.294 311.169 226.496C311.567 226.698 311.879 226.973 312.107 227.323C312.337 227.672 312.453 228.068 312.456 228.512C312.453 228.975 312.327 229.388 312.077 229.752C311.83 230.112 311.502 230.347 311.093 230.455V230.506C311.408 230.563 311.692 230.698 311.945 230.911C312.198 231.121 312.399 231.384 312.55 231.699C312.7 232.012 312.777 232.353 312.78 232.722C312.777 233.193 312.649 233.614 312.396 233.983C312.146 234.35 311.798 234.638 311.352 234.848C310.909 235.056 310.396 235.159 309.814 235.159ZM309.814 234.222C310.209 234.222 310.55 234.158 310.837 234.03C311.124 233.902 311.345 233.722 311.502 233.489C311.658 233.256 311.737 232.983 311.74 232.671C311.737 232.341 311.652 232.05 311.485 231.797C311.317 231.544 311.088 231.345 310.798 231.201C310.512 231.056 310.183 230.983 309.814 230.983C309.442 230.983 309.11 231.056 308.817 231.201C308.527 231.345 308.298 231.544 308.131 231.797C307.966 232.05 307.885 232.341 307.888 232.671C307.885 232.983 307.96 233.256 308.114 233.489C308.27 233.722 308.493 233.902 308.783 234.03C309.073 234.158 309.416 234.222 309.814 234.222ZM309.814 230.08C310.127 230.08 310.404 230.017 310.645 229.892C310.889 229.767 311.081 229.593 311.22 229.368C311.36 229.144 311.431 228.881 311.433 228.58C311.431 228.284 311.361 228.027 311.225 227.809C311.088 227.587 310.899 227.416 310.658 227.297C310.416 227.175 310.135 227.114 309.814 227.114C309.487 227.114 309.202 227.175 308.958 227.297C308.713 227.416 308.524 227.587 308.391 227.809C308.257 228.027 308.192 228.284 308.195 228.58C308.192 228.881 308.259 229.144 308.395 229.368C308.534 229.593 308.726 229.767 308.97 229.892C309.215 230.017 309.496 230.08 309.814 230.08Z" fill="black"/>
<path d="M343.019 235.04V234.273L345.899 231.12C346.237 230.75 346.516 230.429 346.735 230.157C346.953 229.881 347.115 229.622 347.22 229.381C347.328 229.137 347.382 228.881 347.382 228.614C347.382 228.307 347.308 228.041 347.161 227.817C347.016 227.593 346.817 227.419 346.564 227.297C346.311 227.175 346.027 227.114 345.712 227.114C345.377 227.114 345.084 227.184 344.834 227.323C344.587 227.459 344.395 227.651 344.259 227.898C344.125 228.145 344.058 228.435 344.058 228.767H343.053C343.053 228.256 343.171 227.807 343.406 227.421C343.642 227.034 343.963 226.733 344.369 226.517C344.779 226.301 345.237 226.193 345.746 226.193C346.257 226.193 346.71 226.301 347.105 226.517C347.5 226.733 347.81 227.024 348.034 227.391C348.259 227.757 348.371 228.165 348.371 228.614C348.371 228.935 348.313 229.249 348.196 229.556C348.083 229.86 347.884 230.199 347.6 230.574C347.318 230.946 346.928 231.401 346.428 231.938L344.468 234.034V234.103H348.524V235.04H343.019ZM353.131 235.159C352.489 235.159 351.942 234.985 351.49 234.635C351.039 234.283 350.693 233.773 350.455 233.105C350.216 232.435 350.097 231.625 350.097 230.676C350.097 229.733 350.216 228.928 350.455 228.26C350.696 227.59 351.043 227.078 351.494 226.726C351.949 226.371 352.494 226.193 353.131 226.193C353.767 226.193 354.311 226.371 354.763 226.726C355.218 227.078 355.564 227.59 355.803 228.26C356.044 228.928 356.165 229.733 356.165 230.676C356.165 231.625 356.046 232.435 355.807 233.105C355.568 233.773 355.223 234.283 354.771 234.635C354.32 234.985 353.773 235.159 353.131 235.159ZM353.131 234.222C353.767 234.222 354.262 233.915 354.614 233.301C354.966 232.688 355.142 231.813 355.142 230.676C355.142 229.921 355.061 229.277 354.899 228.746C354.74 228.215 354.51 227.81 354.209 227.532C353.911 227.253 353.551 227.114 353.131 227.114C352.5 227.114 352.007 227.425 351.652 228.047C351.297 228.666 351.119 229.543 351.119 230.676C351.119 231.432 351.199 232.074 351.358 232.603C351.517 233.131 351.746 233.533 352.044 233.809C352.345 234.084 352.708 234.222 353.131 234.222ZM360.852 226.313V235.04H359.796V227.421H359.744L357.614 228.835V227.762L359.796 226.313H360.852ZM366.141 226.193C366.499 226.196 366.857 226.264 367.215 226.398C367.573 226.532 367.899 226.753 368.195 227.063C368.49 227.37 368.727 227.789 368.906 228.32C369.085 228.851 369.175 229.517 369.175 230.318C369.175 231.094 369.101 231.783 368.953 232.385C368.808 232.985 368.598 233.49 368.323 233.902C368.05 234.314 367.718 234.627 367.325 234.84C366.936 235.053 366.496 235.159 366.004 235.159C365.516 235.159 365.08 235.063 364.696 234.87C364.316 234.674 364.003 234.402 363.759 234.056C363.517 233.706 363.362 233.301 363.294 232.841H364.334C364.428 233.242 364.614 233.573 364.892 233.834C365.173 234.093 365.544 234.222 366.004 234.222C366.678 234.222 367.209 233.928 367.598 233.34C367.99 232.752 368.186 231.921 368.186 230.847H368.118C367.959 231.085 367.77 231.291 367.551 231.465C367.333 231.638 367.09 231.772 366.823 231.865C366.556 231.959 366.271 232.006 365.97 232.006C365.47 232.006 365.012 231.882 364.594 231.635C364.179 231.385 363.847 231.043 363.597 230.608C363.35 230.171 363.226 229.671 363.226 229.108C363.226 228.574 363.345 228.085 363.584 227.642C363.825 227.196 364.164 226.841 364.598 226.577C365.036 226.313 365.55 226.185 366.141 226.193ZM366.141 227.131C365.783 227.131 365.46 227.22 365.173 227.399C364.889 227.576 364.664 227.814 364.496 228.115C364.331 228.414 364.249 228.745 364.249 229.108C364.249 229.472 364.328 229.803 364.487 230.101C364.649 230.397 364.869 230.632 365.148 230.809C365.429 230.982 365.749 231.068 366.107 231.068C366.377 231.068 366.628 231.016 366.861 230.911C367.094 230.803 367.297 230.657 367.47 230.472C367.646 230.284 367.784 230.073 367.884 229.837C367.983 229.598 368.033 229.35 368.033 229.091C368.033 228.75 367.95 228.431 367.786 228.132C367.624 227.834 367.399 227.593 367.112 227.408C366.828 227.223 366.504 227.131 366.141 227.131Z" fill="black"/>
<path d="M399.564 235.04V234.273L402.444 231.12C402.782 230.75 403.061 230.429 403.279 230.157C403.498 229.881 403.66 229.622 403.765 229.381C403.873 229.137 403.927 228.881 403.927 228.614C403.927 228.307 403.853 228.041 403.706 227.817C403.561 227.593 403.362 227.419 403.109 227.297C402.856 227.175 402.572 227.114 402.257 227.114C401.922 227.114 401.629 227.184 401.379 227.323C401.132 227.459 400.94 227.651 400.804 227.898C400.67 228.145 400.603 228.435 400.603 228.767H399.598C399.598 228.256 399.716 227.807 399.951 227.421C400.187 227.034 400.508 226.733 400.914 226.517C401.324 226.301 401.782 226.193 402.291 226.193C402.802 226.193 403.255 226.301 403.65 226.517C404.045 226.733 404.355 227.024 404.579 227.391C404.804 227.757 404.916 228.165 404.916 228.614C404.916 228.935 404.858 229.249 404.741 229.556C404.627 229.86 404.429 230.199 404.145 230.574C403.863 230.946 403.473 231.401 402.973 231.938L401.012 234.034V234.103H405.069V235.04H399.564ZM409.676 235.159C409.034 235.159 408.487 234.985 408.035 234.635C407.583 234.283 407.238 233.773 407 233.105C406.761 232.435 406.642 231.625 406.642 230.676C406.642 229.733 406.761 228.928 407 228.26C407.241 227.59 407.588 227.078 408.039 226.726C408.494 226.371 409.039 226.193 409.676 226.193C410.312 226.193 410.856 226.371 411.308 226.726C411.762 227.078 412.109 227.59 412.348 228.26C412.589 228.928 412.71 229.733 412.71 230.676C412.71 231.625 412.591 232.435 412.352 233.105C412.113 233.773 411.768 234.283 411.316 234.635C410.865 234.985 410.318 235.159 409.676 235.159ZM409.676 234.222C410.312 234.222 410.806 233.915 411.159 233.301C411.511 232.688 411.687 231.813 411.687 230.676C411.687 229.921 411.606 229.277 411.444 228.746C411.285 228.215 411.055 227.81 410.754 227.532C410.456 227.253 410.096 227.114 409.676 227.114C409.045 227.114 408.552 227.425 408.197 228.047C407.842 228.666 407.664 229.543 407.664 230.676C407.664 231.432 407.744 232.074 407.903 232.603C408.062 233.131 408.291 233.533 408.589 233.809C408.89 234.084 409.252 234.222 409.676 234.222ZM414.329 235.04V234.273L417.21 231.12C417.548 230.75 417.826 230.429 418.045 230.157C418.264 229.881 418.426 229.622 418.531 229.381C418.639 229.137 418.693 228.881 418.693 228.614C418.693 228.307 418.619 228.041 418.471 227.817C418.326 227.593 418.127 227.419 417.875 227.297C417.622 227.175 417.338 227.114 417.022 227.114C416.687 227.114 416.395 227.184 416.145 227.323C415.897 227.459 415.706 227.651 415.569 227.898C415.436 228.145 415.369 228.435 415.369 228.767H414.363C414.363 228.256 414.481 227.807 414.717 227.421C414.953 227.034 415.274 226.733 415.68 226.517C416.089 226.301 416.548 226.193 417.056 226.193C417.568 226.193 418.021 226.301 418.416 226.517C418.811 226.733 419.12 227.024 419.345 227.391C419.569 227.757 419.681 228.165 419.681 228.614C419.681 228.935 419.623 229.249 419.507 229.556C419.393 229.86 419.194 230.199 418.91 230.574C418.629 230.946 418.238 231.401 417.738 231.938L415.778 234.034V234.103H419.835V235.04H414.329ZM424.441 235.159C423.799 235.159 423.252 234.985 422.801 234.635C422.349 234.283 422.004 233.773 421.765 233.105C421.527 232.435 421.407 231.625 421.407 230.676C421.407 229.733 421.527 228.928 421.765 228.26C422.007 227.59 422.353 227.078 422.805 226.726C423.26 226.371 423.805 226.193 424.441 226.193C425.078 226.193 425.622 226.371 426.074 226.726C426.528 227.078 426.875 227.59 427.113 228.26C427.355 228.928 427.475 229.733 427.475 230.676C427.475 231.625 427.356 232.435 427.118 233.105C426.879 233.773 426.534 234.283 426.082 234.635C425.63 234.985 425.083 235.159 424.441 235.159ZM424.441 234.222C425.078 234.222 425.572 233.915 425.924 233.301C426.277 232.688 426.453 231.813 426.453 230.676C426.453 229.921 426.372 229.277 426.21 228.746C426.051 228.215 425.821 227.81 425.52 227.532C425.221 227.253 424.862 227.114 424.441 227.114C423.811 227.114 423.318 227.425 422.963 228.047C422.608 228.666 422.43 229.543 422.43 230.676C422.43 231.432 422.51 232.074 422.669 232.603C422.828 233.131 423.056 233.533 423.355 233.809C423.656 234.084 424.018 234.222 424.441 234.222Z" fill="black"/>
<path d="M457.919 235.04V234.273L460.8 231.12C461.138 230.75 461.416 230.429 461.635 230.157C461.854 229.881 462.016 229.622 462.121 229.381C462.229 229.137 462.283 228.881 462.283 228.614C462.283 228.307 462.209 228.041 462.061 227.817C461.916 227.593 461.717 227.419 461.464 227.297C461.212 227.175 460.928 227.114 460.612 227.114C460.277 227.114 459.984 227.184 459.734 227.323C459.487 227.459 459.295 227.651 459.159 227.898C459.026 228.145 458.959 228.435 458.959 228.767H457.953C457.953 228.256 458.071 227.807 458.307 227.421C458.543 227.034 458.864 226.733 459.27 226.517C459.679 226.301 460.138 226.193 460.646 226.193C461.158 226.193 461.611 226.301 462.006 226.517C462.401 226.733 462.71 227.024 462.935 227.391C463.159 227.757 463.271 228.165 463.271 228.614C463.271 228.935 463.213 229.249 463.097 229.556C462.983 229.86 462.784 230.199 462.5 230.574C462.219 230.946 461.828 231.401 461.328 231.938L459.368 234.034V234.103H463.425V235.04H457.919ZM468.031 235.159C467.389 235.159 466.842 234.985 466.391 234.635C465.939 234.283 465.594 233.773 465.355 233.105C465.116 232.435 464.997 231.625 464.997 230.676C464.997 229.733 465.116 228.928 465.355 228.26C465.597 227.59 465.943 227.078 466.395 226.726C466.849 226.371 467.395 226.193 468.031 226.193C468.668 226.193 469.212 226.371 469.663 226.726C470.118 227.078 470.464 227.59 470.703 228.26C470.945 228.928 471.065 229.733 471.065 230.676C471.065 231.625 470.946 232.435 470.707 233.105C470.469 233.773 470.124 234.283 469.672 234.635C469.22 234.985 468.673 235.159 468.031 235.159ZM468.031 234.222C468.668 234.222 469.162 233.915 469.514 233.301C469.866 232.688 470.043 231.813 470.043 230.676C470.043 229.921 469.962 229.277 469.8 228.746C469.641 228.215 469.411 227.81 469.109 227.532C468.811 227.253 468.452 227.114 468.031 227.114C467.401 227.114 466.908 227.425 466.553 228.047C466.197 228.666 466.02 229.543 466.02 230.676C466.02 231.432 466.099 232.074 466.259 232.603C466.418 233.131 466.646 233.533 466.945 233.809C467.246 234.084 467.608 234.222 468.031 234.222ZM472.685 235.04V234.273L475.565 231.12C475.903 230.75 476.182 230.429 476.401 230.157C476.619 229.881 476.781 229.622 476.886 229.381C476.994 229.137 477.048 228.881 477.048 228.614C477.048 228.307 476.974 228.041 476.827 227.817C476.682 227.593 476.483 227.419 476.23 227.297C475.977 227.175 475.693 227.114 475.378 227.114C475.043 227.114 474.75 227.184 474.5 227.323C474.253 227.459 474.061 227.651 473.925 227.898C473.791 228.145 473.724 228.435 473.724 228.767H472.719C472.719 228.256 472.837 227.807 473.072 227.421C473.308 227.034 473.629 226.733 474.036 226.517C474.445 226.301 474.903 226.193 475.412 226.193C475.923 226.193 476.376 226.301 476.771 226.517C477.166 226.733 477.476 227.024 477.7 227.391C477.925 227.757 478.037 228.165 478.037 228.614C478.037 228.935 477.979 229.249 477.862 229.556C477.749 229.86 477.55 230.199 477.266 230.574C476.984 230.946 476.594 231.401 476.094 231.938L474.134 234.034V234.103H478.19V235.04H472.685ZM483.018 226.313V235.04H481.962V227.421H481.911L479.78 228.835V227.762L481.962 226.313H483.018Z" fill="black"/>
<path d="M514.47 235.04V234.273L517.35 231.12C517.689 230.75 517.967 230.429 518.186 230.157C518.404 229.881 518.566 229.622 518.672 229.381C518.779 229.137 518.833 228.881 518.833 228.614C518.833 228.307 518.76 228.041 518.612 227.817C518.467 227.593 518.268 227.419 518.015 227.297C517.762 227.175 517.478 227.114 517.163 227.114C516.828 227.114 516.535 227.184 516.285 227.323C516.038 227.459 515.846 227.651 515.71 227.898C515.576 228.145 515.51 228.435 515.51 228.767H514.504C514.504 228.256 514.622 227.807 514.858 227.421C515.093 227.034 515.414 226.733 515.821 226.517C516.23 226.301 516.689 226.193 517.197 226.193C517.708 226.193 518.162 226.301 518.556 226.517C518.951 226.733 519.261 227.024 519.485 227.391C519.71 227.757 519.822 228.165 519.822 228.614C519.822 228.935 519.764 229.249 519.647 229.556C519.534 229.86 519.335 230.199 519.051 230.574C518.77 230.946 518.379 231.401 517.879 231.938L515.919 234.034V234.103H519.975V235.04H514.47ZM524.582 235.159C523.94 235.159 523.393 234.985 522.941 234.635C522.49 234.283 522.145 233.773 521.906 233.105C521.667 232.435 521.548 231.625 521.548 230.676C521.548 229.733 521.667 228.928 521.906 228.26C522.147 227.59 522.494 227.078 522.946 226.726C523.4 226.371 523.946 226.193 524.582 226.193C525.218 226.193 525.762 226.371 526.214 226.726C526.669 227.078 527.015 227.59 527.254 228.26C527.495 228.928 527.616 229.733 527.616 230.676C527.616 231.625 527.497 232.435 527.258 233.105C527.02 233.773 526.674 234.283 526.223 234.635C525.771 234.985 525.224 235.159 524.582 235.159ZM524.582 234.222C525.218 234.222 525.713 233.915 526.065 233.301C526.417 232.688 526.593 231.813 526.593 230.676C526.593 229.921 526.512 229.277 526.35 228.746C526.191 228.215 525.961 227.81 525.66 227.532C525.362 227.253 525.002 227.114 524.582 227.114C523.951 227.114 523.458 227.425 523.103 228.047C522.748 228.666 522.571 229.543 522.571 230.676C522.571 231.432 522.65 232.074 522.809 232.603C522.968 233.131 523.197 233.533 523.495 233.809C523.797 234.084 524.159 234.222 524.582 234.222ZM529.235 235.04V234.273L532.116 231.12C532.454 230.75 532.733 230.429 532.951 230.157C533.17 229.881 533.332 229.622 533.437 229.381C533.545 229.137 533.599 228.881 533.599 228.614C533.599 228.307 533.525 228.041 533.377 227.817C533.233 227.593 533.034 227.419 532.781 227.297C532.528 227.175 532.244 227.114 531.929 227.114C531.593 227.114 531.301 227.184 531.051 227.323C530.804 227.459 530.612 227.651 530.475 227.898C530.342 228.145 530.275 228.435 530.275 228.767H529.27C529.27 228.256 529.387 227.807 529.623 227.421C529.859 227.034 530.18 226.733 530.586 226.517C530.995 226.301 531.454 226.193 531.963 226.193C532.474 226.193 532.927 226.301 533.322 226.517C533.717 226.733 534.027 227.024 534.251 227.391C534.475 227.757 534.588 228.165 534.588 228.614C534.588 228.935 534.529 229.249 534.413 229.556C534.299 229.86 534.1 230.199 533.816 230.574C533.535 230.946 533.145 231.401 532.645 231.938L530.684 234.034V234.103H534.741V235.04H529.235ZM536.501 235.04V234.273L539.382 231.12C539.72 230.75 539.998 230.429 540.217 230.157C540.436 229.881 540.598 229.622 540.703 229.381C540.811 229.137 540.865 228.881 540.865 228.614C540.865 228.307 540.791 228.041 540.643 227.817C540.498 227.593 540.299 227.419 540.047 227.297C539.794 227.175 539.51 227.114 539.194 227.114C538.859 227.114 538.566 227.184 538.316 227.323C538.069 227.459 537.877 227.651 537.741 227.898C537.608 228.145 537.541 228.435 537.541 228.767H536.535C536.535 228.256 536.653 227.807 536.889 227.421C537.125 227.034 537.446 226.733 537.852 226.517C538.261 226.301 538.72 226.193 539.228 226.193C539.74 226.193 540.193 226.301 540.588 226.517C540.983 226.733 541.292 227.024 541.517 227.391C541.741 227.757 541.853 228.165 541.853 228.614C541.853 228.935 541.795 229.249 541.679 229.556C541.565 229.86 541.366 230.199 541.082 230.574C540.801 230.946 540.41 231.401 539.91 231.938L537.95 234.034V234.103H542.007V235.04H536.501Z" fill="black"/>
<path d="M572.677 235.04V234.273L575.558 231.12C575.896 230.75 576.174 230.429 576.393 230.157C576.612 229.881 576.773 229.622 576.879 229.381C576.987 229.137 577.04 228.881 577.04 228.614C577.04 228.307 576.967 228.041 576.819 227.817C576.674 227.593 576.475 227.419 576.222 227.297C575.969 227.175 575.685 227.114 575.37 227.114C575.035 227.114 574.742 227.184 574.492 227.323C574.245 227.459 574.053 227.651 573.917 227.898C573.783 228.145 573.717 228.435 573.717 228.767H572.711C572.711 228.256 572.829 227.807 573.065 227.421C573.3 227.034 573.621 226.733 574.028 226.517C574.437 226.301 574.896 226.193 575.404 226.193C575.915 226.193 576.369 226.301 576.763 226.517C577.158 226.733 577.468 227.024 577.692 227.391C577.917 227.757 578.029 228.165 578.029 228.614C578.029 228.935 577.971 229.249 577.854 229.556C577.741 229.86 577.542 230.199 577.258 230.574C576.977 230.946 576.586 231.401 576.086 231.938L574.126 234.034V234.103H578.183V235.04H572.677ZM582.789 235.159C582.147 235.159 581.6 234.985 581.148 234.635C580.697 234.283 580.352 233.773 580.113 233.105C579.874 232.435 579.755 231.625 579.755 230.676C579.755 229.733 579.874 228.928 580.113 228.26C580.354 227.59 580.701 227.078 581.153 226.726C581.607 226.371 582.153 226.193 582.789 226.193C583.425 226.193 583.969 226.371 584.421 226.726C584.876 227.078 585.222 227.59 585.461 228.26C585.702 228.928 585.823 229.733 585.823 230.676C585.823 231.625 585.704 232.435 585.465 233.105C585.227 233.773 584.881 234.283 584.43 234.635C583.978 234.985 583.431 235.159 582.789 235.159ZM582.789 234.222C583.425 234.222 583.92 233.915 584.272 233.301C584.624 232.688 584.8 231.813 584.8 230.676C584.8 229.921 584.719 229.277 584.558 228.746C584.398 228.215 584.168 227.81 583.867 227.532C583.569 227.253 583.21 227.114 582.789 227.114C582.158 227.114 581.665 227.425 581.31 228.047C580.955 228.666 580.778 229.543 580.778 230.676C580.778 231.432 580.857 232.074 581.016 232.603C581.175 233.131 581.404 233.533 581.702 233.809C582.004 234.084 582.366 234.222 582.789 234.222ZM587.442 235.04V234.273L590.323 231.12C590.661 230.75 590.94 230.429 591.158 230.157C591.377 229.881 591.539 229.622 591.644 229.381C591.752 229.137 591.806 228.881 591.806 228.614C591.806 228.307 591.732 228.041 591.585 227.817C591.44 227.593 591.241 227.419 590.988 227.297C590.735 227.175 590.451 227.114 590.136 227.114C589.8 227.114 589.508 227.184 589.258 227.323C589.011 227.459 588.819 227.651 588.683 227.898C588.549 228.145 588.482 228.435 588.482 228.767H587.477C587.477 228.256 587.594 227.807 587.83 227.421C588.066 227.034 588.387 226.733 588.793 226.517C589.202 226.301 589.661 226.193 590.17 226.193C590.681 226.193 591.134 226.301 591.529 226.517C591.924 226.733 592.234 227.024 592.458 227.391C592.683 227.757 592.795 228.165 592.795 228.614C592.795 228.935 592.737 229.249 592.62 229.556C592.506 229.86 592.308 230.199 592.023 230.574C591.742 230.946 591.352 231.401 590.852 231.938L588.891 234.034V234.103H592.948V235.04H587.442ZM597.657 235.159C597.094 235.159 596.593 235.063 596.153 234.87C595.715 234.676 595.367 234.408 595.109 234.064C594.853 233.718 594.714 233.316 594.691 232.858H595.765C595.788 233.139 595.884 233.382 596.055 233.587C596.225 233.789 596.448 233.945 596.724 234.056C596.999 234.166 597.305 234.222 597.64 234.222C598.015 234.222 598.347 234.157 598.637 234.026C598.927 233.895 599.154 233.713 599.319 233.48C599.484 233.247 599.566 232.978 599.566 232.671C599.566 232.35 599.487 232.067 599.327 231.823C599.168 231.576 598.935 231.382 598.629 231.243C598.322 231.104 597.947 231.034 597.504 231.034H596.805V230.097H597.504C597.85 230.097 598.154 230.034 598.415 229.909C598.68 229.784 598.886 229.608 599.033 229.381C599.184 229.154 599.259 228.887 599.259 228.58C599.259 228.284 599.194 228.027 599.063 227.809C598.933 227.59 598.748 227.419 598.509 227.297C598.273 227.175 597.995 227.114 597.674 227.114C597.373 227.114 597.089 227.169 596.822 227.28C596.558 227.388 596.342 227.546 596.174 227.753C596.006 227.958 595.915 228.205 595.901 228.495H594.879C594.896 228.037 595.033 227.637 595.292 227.293C595.55 226.946 595.888 226.676 596.306 226.483C596.727 226.29 597.188 226.193 597.691 226.193C598.231 226.193 598.694 226.303 599.08 226.522C599.467 226.737 599.763 227.023 599.971 227.378C600.178 227.733 600.282 228.117 600.282 228.529C600.282 229.02 600.153 229.439 599.894 229.786C599.638 230.132 599.29 230.372 598.85 230.506V230.574C599.401 230.665 599.832 230.899 600.141 231.277C600.451 231.652 600.606 232.117 600.606 232.671C600.606 233.145 600.477 233.571 600.218 233.949C599.962 234.324 599.613 234.62 599.17 234.835C598.727 235.051 598.222 235.159 597.657 235.159Z" fill="black"/>
<path d="M631.136 235.04V234.273L634.017 231.12C634.355 230.75 634.633 230.429 634.852 230.157C635.07 229.881 635.232 229.622 635.338 229.381C635.445 229.137 635.499 228.881 635.499 228.614C635.499 228.307 635.426 228.041 635.278 227.817C635.133 227.593 634.934 227.419 634.681 227.297C634.428 227.175 634.144 227.114 633.829 227.114C633.494 227.114 633.201 227.184 632.951 227.323C632.704 227.459 632.512 227.651 632.376 227.898C632.242 228.145 632.176 228.435 632.176 228.767H631.17C631.17 228.256 631.288 227.807 631.524 227.421C631.759 227.034 632.08 226.733 632.487 226.517C632.896 226.301 633.355 226.193 633.863 226.193C634.374 226.193 634.828 226.301 635.222 226.517C635.617 226.733 635.927 227.024 636.151 227.391C636.376 227.757 636.488 228.165 636.488 228.614C636.488 228.935 636.43 229.249 636.313 229.556C636.2 229.86 636.001 230.199 635.717 230.574C635.436 230.946 635.045 231.401 634.545 231.938L632.585 234.034V234.103H636.642V235.04H631.136ZM641.248 235.159C640.606 235.159 640.059 234.985 639.607 234.635C639.156 234.283 638.811 233.773 638.572 233.105C638.333 232.435 638.214 231.625 638.214 230.676C638.214 229.733 638.333 228.928 638.572 228.26C638.813 227.59 639.16 227.078 639.612 226.726C640.066 226.371 640.612 226.193 641.248 226.193C641.884 226.193 642.428 226.371 642.88 226.726C643.335 227.078 643.681 227.59 643.92 228.26C644.161 228.928 644.282 229.733 644.282 230.676C644.282 231.625 644.163 232.435 643.924 233.105C643.686 233.773 643.34 234.283 642.889 234.635C642.437 234.985 641.89 235.159 641.248 235.159ZM641.248 234.222C641.884 234.222 642.379 233.915 642.731 233.301C643.083 232.688 643.259 231.813 643.259 230.676C643.259 229.921 643.178 229.277 643.017 228.746C642.857 228.215 642.627 227.81 642.326 227.532C642.028 227.253 641.669 227.114 641.248 227.114C640.617 227.114 640.124 227.425 639.769 228.047C639.414 228.666 639.237 229.543 639.237 230.676C639.237 231.432 639.316 232.074 639.475 232.603C639.634 233.131 639.863 233.533 640.161 233.809C640.463 234.084 640.825 234.222 641.248 234.222ZM645.901 235.04V234.273L648.782 231.12C649.12 230.75 649.399 230.429 649.617 230.157C649.836 229.881 649.998 229.622 650.103 229.381C650.211 229.137 650.265 228.881 650.265 228.614C650.265 228.307 650.191 228.041 650.044 227.817C649.899 227.593 649.7 227.419 649.447 227.297C649.194 227.175 648.91 227.114 648.595 227.114C648.259 227.114 647.967 227.184 647.717 227.323C647.47 227.459 647.278 227.651 647.142 227.898C647.008 228.145 646.941 228.435 646.941 228.767H645.936C645.936 228.256 646.053 227.807 646.289 227.421C646.525 227.034 646.846 226.733 647.252 226.517C647.661 226.301 648.12 226.193 648.629 226.193C649.14 226.193 649.593 226.301 649.988 226.517C650.383 226.733 650.693 227.024 650.917 227.391C651.142 227.757 651.254 228.165 651.254 228.614C651.254 228.935 651.195 229.249 651.079 229.556C650.965 229.86 650.767 230.199 650.482 230.574C650.201 230.946 649.811 231.401 649.311 231.938L647.35 234.034V234.103H651.407V235.04H645.901ZM652.775 233.25V232.381L656.61 226.313H657.241V227.659H656.815L653.917 232.245V232.313H659.082V233.25H652.775ZM656.883 235.04V232.986V232.581V226.313H657.889V235.04H656.883Z" fill="black"/>
<path d="M26.0682 10.1193C25.5682 10.1193 25.1179 10.0199 24.7173 9.82102C24.3168 9.62216 23.9957 9.34943 23.7543 9.00284C23.5128 8.65625 23.3807 8.26136 23.358 7.81818H24.3807C24.4205 8.21307 24.5994 8.53977 24.9176 8.7983C25.2386 9.05398 25.6222 9.18182 26.0682 9.18182C26.4261 9.18182 26.7443 9.09801 27.0227 8.9304C27.304 8.76278 27.5241 8.53267 27.6832 8.24006C27.8452 7.9446 27.9261 7.6108 27.9261 7.23864C27.9261 6.85795 27.8423 6.51847 27.6747 6.22017C27.5099 5.91903 27.2827 5.68182 26.9929 5.50852C26.7031 5.33523 26.3722 5.24716 26 5.24432C25.733 5.24148 25.4588 5.28267 25.1776 5.3679C24.8963 5.45028 24.6648 5.55682 24.483 5.6875L23.4943 5.56818L24.0227 1.27273H28.5568V2.21023H24.9091L24.6023 4.78409H24.6534C24.8324 4.64205 25.0568 4.52415 25.3267 4.4304C25.5966 4.33665 25.8778 4.28977 26.1705 4.28977C26.7045 4.28977 27.1804 4.41761 27.598 4.6733C28.0185 4.92614 28.348 5.27273 28.5866 5.71307C28.8281 6.15341 28.9489 6.65625 28.9489 7.22159C28.9489 7.77841 28.8239 8.27557 28.5739 8.71307C28.3267 9.14773 27.9858 9.49148 27.5511 9.74432C27.1165 9.99432 26.6222 10.1193 26.0682 10.1193ZM31.8306 8.80682L31.7624 9.26705C31.7141 9.59091 31.6403 9.9375 31.5408 10.3068C31.4442 10.6761 31.3434 11.0241 31.2383 11.3509C31.1332 11.6776 31.0465 11.9375 30.9783 12.1307H30.2113C30.2482 11.9489 30.2965 11.7088 30.3562 11.4105C30.4158 11.1122 30.4755 10.7784 30.5352 10.4091C30.5977 10.0426 30.6488 9.66761 30.6886 9.28409L30.7397 8.80682H31.8306ZM36.2188 10.1193C35.5767 10.1193 35.0298 9.9446 34.5781 9.59517C34.1264 9.2429 33.7813 8.73295 33.5426 8.06534C33.304 7.39489 33.1847 6.58523 33.1847 5.63636C33.1847 4.69318 33.304 3.88778 33.5426 3.22017C33.7841 2.54972 34.1307 2.03835 34.5824 1.68608C35.0369 1.33097 35.5824 1.15341 36.2188 1.15341C36.8551 1.15341 37.3991 1.33097 37.8509 1.68608C38.3054 2.03835 38.652 2.54972 38.8906 3.22017C39.1321 3.88778 39.2528 4.69318 39.2528 5.63636C39.2528 6.58523 39.1335 7.39489 38.8949 8.06534C38.6562 8.73295 38.3111 9.2429 37.8594 9.59517C37.4077 9.9446 36.8608 10.1193 36.2188 10.1193ZM36.2188 9.18182C36.8551 9.18182 37.3494 8.875 37.7017 8.26136C38.054 7.64773 38.2301 6.77273 38.2301 5.63636C38.2301 4.88068 38.1491 4.23722 37.9872 3.70597C37.8281 3.17472 37.598 2.76989 37.2969 2.49148C36.9986 2.21307 36.6392 2.07386 36.2188 2.07386C35.5881 2.07386 35.0952 2.38494 34.7401 3.0071C34.3849 3.62642 34.2074 4.50284 34.2074 5.63636C34.2074 6.39205 34.2869 7.03409 34.446 7.5625C34.6051 8.09091 34.8338 8.4929 35.1321 8.76847C35.4332 9.04403 35.7955 9.18182 36.2188 9.18182ZM43.7188 10.1193C43.0767 10.1193 42.5298 9.9446 42.0781 9.59517C41.6264 9.2429 41.2813 8.73295 41.0426 8.06534C40.804 7.39489 40.6847 6.58523 40.6847 5.63636C40.6847 4.69318 40.804 3.88778 41.0426 3.22017C41.2841 2.54972 41.6307 2.03835 42.0824 1.68608C42.5369 1.33097 43.0824 1.15341 43.7188 1.15341C44.3551 1.15341 44.8991 1.33097 45.3509 1.68608C45.8054 2.03835 46.152 2.54972 46.3906 3.22017C46.6321 3.88778 46.7528 4.69318 46.7528 5.63636C46.7528 6.58523 46.6335 7.39489 46.3949 8.06534C46.1562 8.73295 45.8111 9.2429 45.3594 9.59517C44.9077 9.9446 44.3608 10.1193 43.7188 10.1193ZM43.7188 9.18182C44.3551 9.18182 44.8494 8.875 45.2017 8.26136C45.554 7.64773 45.7301 6.77273 45.7301 5.63636C45.7301 4.88068 45.6491 4.23722 45.4872 3.70597C45.3281 3.17472 45.098 2.76989 44.7969 2.49148C44.4986 2.21307 44.1392 2.07386 43.7188 2.07386C43.0881 2.07386 42.5952 2.38494 42.2401 3.0071C41.8849 3.62642 41.7074 4.50284 41.7074 5.63636C41.7074 6.39205 41.7869 7.03409 41.946 7.5625C42.1051 8.09091 42.3338 8.4929 42.6321 8.76847C42.9332 9.04403 43.2955 9.18182 43.7188 9.18182ZM51.2188 10.1193C50.5767 10.1193 50.0298 9.9446 49.5781 9.59517C49.1264 9.2429 48.7813 8.73295 48.5426 8.06534C48.304 7.39489 48.1847 6.58523 48.1847 5.63636C48.1847 4.69318 48.304 3.88778 48.5426 3.22017C48.7841 2.54972 49.1307 2.03835 49.5824 1.68608C50.0369 1.33097 50.5824 1.15341 51.2188 1.15341C51.8551 1.15341 52.3991 1.33097 52.8509 1.68608C53.3054 2.03835 53.652 2.54972 53.8906 3.22017C54.1321 3.88778 54.2528 4.69318 54.2528 5.63636C54.2528 6.58523 54.1335 7.39489 53.8949 8.06534C53.6562 8.73295 53.3111 9.2429 52.8594 9.59517C52.4077 9.9446 51.8608 10.1193 51.2188 10.1193ZM51.2188 9.18182C51.8551 9.18182 52.3494 8.875 52.7017 8.26136C53.054 7.64773 53.2301 6.77273 53.2301 5.63636C53.2301 4.88068 53.1491 4.23722 52.9872 3.70597C52.8281 3.17472 52.598 2.76989 52.2969 2.49148C51.9986 2.21307 51.6392 2.07386 51.2188 2.07386C50.5881 2.07386 50.0952 2.38494 49.7401 3.0071C49.3849 3.62642 49.2074 4.50284 49.2074 5.63636C49.2074 6.39205 49.2869 7.03409 49.446 7.5625C49.6051 8.09091 49.8338 8.4929 50.1321 8.76847C50.4332 9.04403 50.7955 9.18182 51.2188 9.18182Z" fill="black"/>
<path d="M23.1364 58.4006V57.5313L26.9716 51.4631H27.6023V52.8097H27.1761L24.2784 57.3949V57.4631H29.4432V58.4006H23.1364ZM27.2443 60.1904V58.1364V57.7316V51.4631H28.25V60.1904H27.2443ZM32.147 58.9972L32.0788 59.4574C32.0305 59.7813 31.9567 60.1279 31.8572 60.4972C31.7607 60.8665 31.6598 61.2145 31.5547 61.5413C31.4496 61.868 31.3629 62.1279 31.2947 62.3211H30.5277C30.5646 62.1393 30.6129 61.8992 30.6726 61.6009C30.7322 61.3026 30.7919 60.9688 30.8516 60.5995C30.9141 60.233 30.9652 59.858 31.005 59.4745L31.0561 58.9972H32.147ZM36.5352 60.3097C35.8931 60.3097 35.3462 60.135 34.8945 59.7856C34.4428 59.4333 34.0977 58.9234 33.859 58.2557C33.6204 57.5853 33.5011 56.7756 33.5011 55.8268C33.5011 54.8836 33.6204 54.0782 33.859 53.4106C34.1005 52.7401 34.4471 52.2288 34.8988 51.8765C35.3533 51.5214 35.8988 51.3438 36.5352 51.3438C37.1715 51.3438 37.7156 51.5214 38.1673 51.8765C38.6218 52.2288 38.9684 52.7401 39.207 53.4106C39.4485 54.0782 39.5692 54.8836 39.5692 55.8268C39.5692 56.7756 39.4499 57.5853 39.2113 58.2557C38.9727 58.9234 38.6275 59.4333 38.1758 59.7856C37.7241 60.135 37.1772 60.3097 36.5352 60.3097ZM36.5352 59.3722C37.1715 59.3722 37.6658 59.0654 38.0181 58.4518C38.3704 57.8381 38.5465 56.9631 38.5465 55.8268C38.5465 55.0711 38.4656 54.4276 38.3036 53.8964C38.1445 53.3651 37.9144 52.9603 37.6133 52.6819C37.315 52.4035 36.9556 52.2643 36.5352 52.2643C35.9045 52.2643 35.4116 52.5753 35.0565 53.1975C34.7013 53.8168 34.5238 54.6932 34.5238 55.8268C34.5238 56.5824 34.6033 57.2245 34.7624 57.7529C34.9215 58.2813 35.1502 58.6833 35.4485 58.9589C35.7496 59.2344 36.1119 59.3722 36.5352 59.3722ZM44.0352 60.3097C43.3931 60.3097 42.8462 60.135 42.3945 59.7856C41.9428 59.4333 41.5977 58.9234 41.359 58.2557C41.1204 57.5853 41.0011 56.7756 41.0011 55.8268C41.0011 54.8836 41.1204 54.0782 41.359 53.4106C41.6005 52.7401 41.9471 52.2288 42.3988 51.8765C42.8533 51.5214 43.3988 51.3438 44.0352 51.3438C44.6715 51.3438 45.2156 51.5214 45.6673 51.8765C46.1218 52.2288 46.4684 52.7401 46.707 53.4106C46.9485 54.0782 47.0692 54.8836 47.0692 55.8268C47.0692 56.7756 46.9499 57.5853 46.7113 58.2557C46.4727 58.9234 46.1275 59.4333 45.6758 59.7856C45.2241 60.135 44.6772 60.3097 44.0352 60.3097ZM44.0352 59.3722C44.6715 59.3722 45.1658 59.0654 45.5181 58.4518C45.8704 57.8381 46.0465 56.9631 46.0465 55.8268C46.0465 55.0711 45.9656 54.4276 45.8036 53.8964C45.6445 53.3651 45.4144 52.9603 45.1133 52.6819C44.815 52.4035 44.4556 52.2643 44.0352 52.2643C43.4045 52.2643 42.9116 52.5753 42.5565 53.1975C42.2013 53.8168 42.0238 54.6932 42.0238 55.8268C42.0238 56.5824 42.1033 57.2245 42.2624 57.7529C42.4215 58.2813 42.6502 58.6833 42.9485 58.9589C43.2496 59.2344 43.6119 59.3722 44.0352 59.3722ZM51.5352 60.3097C50.8931 60.3097 50.3462 60.135 49.8945 59.7856C49.4428 59.4333 49.0977 58.9234 48.859 58.2557C48.6204 57.5853 48.5011 56.7756 48.5011 55.8268C48.5011 54.8836 48.6204 54.0782 48.859 53.4106C49.1005 52.7401 49.4471 52.2288 49.8988 51.8765C50.3533 51.5214 50.8988 51.3438 51.5352 51.3438C52.1715 51.3438 52.7156 51.5214 53.1673 51.8765C53.6218 52.2288 53.9684 52.7401 54.207 53.4106C54.4485 54.0782 54.5692 54.8836 54.5692 55.8268C54.5692 56.7756 54.4499 57.5853 54.2113 58.2557C53.9727 58.9234 53.6275 59.4333 53.1758 59.7856C52.7241 60.135 52.1772 60.3097 51.5352 60.3097ZM51.5352 59.3722C52.1715 59.3722 52.6658 59.0654 53.0181 58.4518C53.3704 57.8381 53.5465 56.9631 53.5465 55.8268C53.5465 55.0711 53.4656 54.4276 53.3036 53.8964C53.1445 53.3651 52.9144 52.9603 52.6133 52.6819C52.315 52.4035 51.9556 52.2643 51.5352 52.2643C50.9045 52.2643 50.4116 52.5753 50.0565 53.1975C49.7013 53.8168 49.5238 54.6932 49.5238 55.8268C49.5238 56.5824 49.6033 57.2245 49.7624 57.7529C49.9215 58.2813 50.1502 58.6833 50.4485 58.9589C50.7496 59.2344 51.1119 59.3722 51.5352 59.3722Z" fill="black"/>
<path d="M26.2898 110.5C25.7273 110.5 25.2259 110.404 24.7855 110.21C24.348 110.017 24 109.749 23.7415 109.405C23.4858 109.058 23.3466 108.656 23.3239 108.199H24.3977C24.4205 108.48 24.517 108.723 24.6875 108.928C24.858 109.129 25.081 109.286 25.3565 109.396C25.6321 109.507 25.9375 109.563 26.2727 109.563C26.6477 109.563 26.9801 109.497 27.2699 109.367C27.5597 109.236 27.7869 109.054 27.9517 108.821C28.1165 108.588 28.1989 108.318 28.1989 108.012C28.1989 107.69 28.1193 107.408 27.9602 107.163C27.8011 106.916 27.5682 106.723 27.2614 106.584C26.9545 106.445 26.5795 106.375 26.1364 106.375H25.4375V105.438H26.1364C26.483 105.438 26.7869 105.375 27.0483 105.25C27.3125 105.125 27.5185 104.949 27.6662 104.722C27.8168 104.494 27.892 104.227 27.892 103.921C27.892 103.625 27.8267 103.368 27.696 103.149C27.5653 102.931 27.3807 102.76 27.142 102.638C26.9063 102.516 26.6278 102.455 26.3068 102.455C26.0057 102.455 25.7216 102.51 25.4545 102.621C25.1903 102.729 24.9744 102.887 24.8068 103.094C24.6392 103.298 24.5483 103.546 24.5341 103.835H23.5114C23.5284 103.378 23.6662 102.977 23.9247 102.634C24.1832 102.287 24.5213 102.017 24.9389 101.824C25.3594 101.631 25.821 101.534 26.3239 101.534C26.8636 101.534 27.3267 101.644 27.7131 101.862C28.0994 102.078 28.3963 102.364 28.6037 102.719C28.8111 103.074 28.9148 103.458 28.9148 103.869C28.9148 104.361 28.7855 104.78 28.527 105.127C28.2713 105.473 27.9233 105.713 27.483 105.847V105.915C28.0341 106.006 28.4645 106.24 28.7741 106.618C29.0838 106.993 29.2386 107.458 29.2386 108.012C29.2386 108.486 29.1094 108.912 28.8509 109.29C28.5952 109.665 28.2457 109.96 27.8026 110.176C27.3594 110.392 26.8551 110.5 26.2898 110.5ZM32.229 109.188L32.1609 109.648C32.1126 109.972 32.0387 110.318 31.9393 110.688C31.8427 111.057 31.7418 111.405 31.6367 111.732C31.5316 112.058 31.445 112.318 31.3768 112.512H30.6097C30.6467 112.33 30.695 112.09 30.7546 111.791C30.8143 111.493 30.8739 111.159 30.9336 110.79C30.9961 110.423 31.0472 110.048 31.087 109.665L31.1381 109.188H32.229ZM36.6172 110.5C35.9751 110.5 35.4283 110.325 34.9766 109.976C34.5249 109.624 34.1797 109.114 33.9411 108.446C33.7024 107.776 33.5831 106.966 33.5831 106.017C33.5831 105.074 33.7024 104.269 33.9411 103.601C34.1825 102.931 34.5291 102.419 34.9808 102.067C35.4354 101.712 35.9808 101.534 36.6172 101.534C37.2536 101.534 37.7976 101.712 38.2493 102.067C38.7038 102.419 39.0504 102.931 39.2891 103.601C39.5305 104.269 39.6513 105.074 39.6513 106.017C39.6513 106.966 39.532 107.776 39.2933 108.446C39.0547 109.114 38.7095 109.624 38.2578 109.976C37.8061 110.325 37.2592 110.5 36.6172 110.5ZM36.6172 109.563C37.2536 109.563 37.7479 109.256 38.1001 108.642C38.4524 108.029 38.6286 107.154 38.6286 106.017C38.6286 105.262 38.5476 104.618 38.3857 104.087C38.2266 103.556 37.9964 103.151 37.6953 102.872C37.397 102.594 37.0376 102.455 36.6172 102.455C35.9865 102.455 35.4936 102.766 35.1385 103.388C34.7834 104.007 34.6058 104.884 34.6058 106.017C34.6058 106.773 34.6854 107.415 34.8445 107.943C35.0036 108.472 35.2322 108.874 35.5305 109.149C35.8317 109.425 36.1939 109.563 36.6172 109.563ZM44.1172 110.5C43.4751 110.5 42.9283 110.325 42.4766 109.976C42.0249 109.624 41.6797 109.114 41.4411 108.446C41.2024 107.776 41.0831 106.966 41.0831 106.017C41.0831 105.074 41.2024 104.269 41.4411 103.601C41.6825 102.931 42.0291 102.419 42.4808 102.067C42.9354 101.712 43.4808 101.534 44.1172 101.534C44.7536 101.534 45.2976 101.712 45.7493 102.067C46.2038 102.419 46.5504 102.931 46.7891 103.601C47.0305 104.269 47.1513 105.074 47.1513 106.017C47.1513 106.966 47.032 107.776 46.7933 108.446C46.5547 109.114 46.2095 109.624 45.7578 109.976C45.3061 110.325 44.7592 110.5 44.1172 110.5ZM44.1172 109.563C44.7536 109.563 45.2479 109.256 45.6001 108.642C45.9524 108.029 46.1286 107.154 46.1286 106.017C46.1286 105.262 46.0476 104.618 45.8857 104.087C45.7266 103.556 45.4964 103.151 45.1953 102.872C44.897 102.594 44.5376 102.455 44.1172 102.455C43.4865 102.455 42.9936 102.766 42.6385 103.388C42.2834 104.007 42.1058 104.884 42.1058 106.017C42.1058 106.773 42.1854 107.415 42.3445 107.943C42.5036 108.472 42.7322 108.874 43.0305 109.149C43.3317 109.425 43.6939 109.563 44.1172 109.563ZM51.6172 110.5C50.9751 110.5 50.4283 110.325 49.9766 109.976C49.5249 109.624 49.1797 109.114 48.9411 108.446C48.7024 107.776 48.5831 106.966 48.5831 106.017C48.5831 105.074 48.7024 104.269 48.9411 103.601C49.1825 102.931 49.5291 102.419 49.9808 102.067C50.4354 101.712 50.9808 101.534 51.6172 101.534C52.2536 101.534 52.7976 101.712 53.2493 102.067C53.7038 102.419 54.0504 102.931 54.2891 103.601C54.5305 104.269 54.6513 105.074 54.6513 106.017C54.6513 106.966 54.532 107.776 54.2933 108.446C54.0547 109.114 53.7095 109.624 53.2578 109.976C52.8061 110.325 52.2592 110.5 51.6172 110.5ZM51.6172 109.563C52.2536 109.563 52.7479 109.256 53.1001 108.642C53.4524 108.029 53.6286 107.154 53.6286 106.017C53.6286 105.262 53.5476 104.618 53.3857 104.087C53.2266 103.556 52.9964 103.151 52.6953 102.872C52.397 102.594 52.0376 102.455 51.6172 102.455C50.9865 102.455 50.4936 102.766 50.1385 103.388C49.7834 104.007 49.6058 104.884 49.6058 106.017C49.6058 106.773 49.6854 107.415 49.8445 107.943C50.0036 108.472 50.2322 108.874 50.5305 109.149C50.8317 109.425 51.1939 109.563 51.6172 109.563Z" fill="black"/>
<path d="M23.3409 160.571V159.804L26.2216 156.651C26.5597 156.281 26.8381 155.96 27.0568 155.688C27.2756 155.412 27.4375 155.154 27.5426 154.912C27.6506 154.668 27.7045 154.412 27.7045 154.145C27.7045 153.838 27.6307 153.573 27.483 153.348C27.3381 153.124 27.1392 152.95 26.8864 152.828C26.6335 152.706 26.3494 152.645 26.0341 152.645C25.6989 152.645 25.4062 152.715 25.1562 152.854C24.9091 152.99 24.7173 153.182 24.581 153.429C24.4474 153.676 24.3807 153.966 24.3807 154.299H23.375C23.375 153.787 23.4929 153.338 23.7287 152.952C23.9645 152.566 24.2855 152.264 24.6918 152.049C25.1009 151.833 25.5597 151.725 26.0682 151.725C26.5795 151.725 27.0327 151.833 27.4276 152.049C27.8224 152.264 28.1321 152.556 28.3565 152.922C28.581 153.289 28.6932 153.696 28.6932 154.145C28.6932 154.466 28.6349 154.78 28.5185 155.087C28.4048 155.391 28.206 155.73 27.9219 156.105C27.6406 156.477 27.25 156.932 26.75 157.469L24.7898 159.566V159.634H28.8466V160.571H23.3409ZM32.1236 159.378L32.0554 159.838C32.0071 160.162 31.9332 160.509 31.8338 160.878C31.7372 161.247 31.6364 161.595 31.5312 161.922C31.4261 162.249 31.3395 162.509 31.2713 162.702H30.5043C30.5412 162.52 30.5895 162.28 30.6491 161.982C30.7088 161.683 30.7685 161.35 30.8281 160.98C30.8906 160.614 30.9418 160.239 30.9815 159.855L31.0327 159.378H32.1236ZM36.5117 160.691C35.8697 160.691 35.3228 160.516 34.8711 160.166C34.4194 159.814 34.0742 159.304 33.8356 158.637C33.5969 157.966 33.4776 157.156 33.4776 156.208C33.4776 155.264 33.5969 154.459 33.8356 153.791C34.0771 153.121 34.4237 152.61 34.8754 152.257C35.3299 151.902 35.8754 151.725 36.5117 151.725C37.1481 151.725 37.6921 151.902 38.1438 152.257C38.5984 152.61 38.945 153.121 39.1836 153.791C39.4251 154.459 39.5458 155.264 39.5458 156.208C39.5458 157.156 39.4265 157.966 39.1879 158.637C38.9492 159.304 38.604 159.814 38.1523 160.166C37.7006 160.516 37.1538 160.691 36.5117 160.691ZM36.5117 159.753C37.1481 159.753 37.6424 159.446 37.9947 158.833C38.3469 158.219 38.5231 157.344 38.5231 156.208C38.5231 155.452 38.4421 154.808 38.2802 154.277C38.1211 153.746 37.891 153.341 37.5898 153.063C37.2915 152.784 36.9322 152.645 36.5117 152.645C35.881 152.645 35.3881 152.956 35.033 153.578C34.6779 154.198 34.5004 155.074 34.5004 156.208C34.5004 156.963 34.5799 157.605 34.739 158.134C34.8981 158.662 35.1268 159.064 35.4251 159.34C35.7262 159.615 36.0884 159.753 36.5117 159.753ZM44.0117 160.691C43.3697 160.691 42.8228 160.516 42.3711 160.166C41.9194 159.814 41.5742 159.304 41.3356 158.637C41.0969 157.966 40.9776 157.156 40.9776 156.208C40.9776 155.264 41.0969 154.459 41.3356 153.791C41.5771 153.121 41.9237 152.61 42.3754 152.257C42.8299 151.902 43.3754 151.725 44.0117 151.725C44.6481 151.725 45.1921 151.902 45.6438 152.257C46.0984 152.61 46.445 153.121 46.6836 153.791C46.9251 154.459 47.0458 155.264 47.0458 156.208C47.0458 157.156 46.9265 157.966 46.6879 158.637C46.4492 159.304 46.104 159.814 45.6523 160.166C45.2006 160.516 44.6538 160.691 44.0117 160.691ZM44.0117 159.753C44.6481 159.753 45.1424 159.446 45.4947 158.833C45.8469 158.219 46.0231 157.344 46.0231 156.208C46.0231 155.452 45.9421 154.808 45.7802 154.277C45.6211 153.746 45.391 153.341 45.0898 153.063C44.7915 152.784 44.4322 152.645 44.0117 152.645C43.381 152.645 42.8881 152.956 42.533 153.578C42.1779 154.198 42.0004 155.074 42.0004 156.208C42.0004 156.963 42.0799 157.605 42.239 158.134C42.3981 158.662 42.6268 159.064 42.9251 159.34C43.2262 159.615 43.5884 159.753 44.0117 159.753ZM51.5117 160.691C50.8697 160.691 50.3228 160.516 49.8711 160.166C49.4194 159.814 49.0742 159.304 48.8356 158.637C48.5969 157.966 48.4776 157.156 48.4776 156.208C48.4776 155.264 48.5969 154.459 48.8356 153.791C49.0771 153.121 49.4237 152.61 49.8754 152.257C50.3299 151.902 50.8754 151.725 51.5117 151.725C52.1481 151.725 52.6921 151.902 53.1438 152.257C53.5984 152.61 53.945 153.121 54.1836 153.791C54.4251 154.459 54.5458 155.264 54.5458 156.208C54.5458 157.156 54.4265 157.966 54.1879 158.637C53.9492 159.304 53.604 159.814 53.1523 160.166C52.7006 160.516 52.1538 160.691 51.5117 160.691ZM51.5117 159.753C52.1481 159.753 52.6424 159.446 52.9947 158.833C53.3469 158.219 53.5231 157.344 53.5231 156.208C53.5231 155.452 53.4421 154.808 53.2802 154.277C53.1211 153.746 52.891 153.341 52.5898 153.063C52.2915 152.784 51.9322 152.645 51.5117 152.645C50.881 152.645 50.3881 152.956 50.033 153.578C49.6779 154.198 49.5004 155.074 49.5004 156.208C49.5004 156.963 49.5799 157.605 49.739 158.134C49.8981 158.662 50.1268 159.064 50.4251 159.34C50.7262 159.615 51.0884 159.753 51.5117 159.753Z" fill="black"/>
<path d="M26.4091 202.034V210.762H25.3523V203.142H25.3011L23.1705 204.557V203.483L25.3523 202.034H26.4091ZM29.9205 209.568L29.8523 210.029C29.804 210.353 29.7301 210.699 29.6307 211.068C29.5341 211.438 29.4332 211.786 29.3281 212.112C29.223 212.439 29.1364 212.699 29.0682 212.892H28.3011C28.3381 212.711 28.3864 212.47 28.446 212.172C28.5057 211.874 28.5653 211.54 28.625 211.171C28.6875 210.804 28.7386 210.429 28.7784 210.046L28.8295 209.568H29.9205ZM34.3086 210.881C33.6665 210.881 33.1197 210.706 32.668 210.357C32.2163 210.005 31.8711 209.495 31.6325 208.827C31.3938 208.157 31.2745 207.347 31.2745 206.398C31.2745 205.455 31.3938 204.649 31.6325 203.982C31.8739 203.311 32.2205 202.8 32.6722 202.448C33.1268 202.093 33.6722 201.915 34.3086 201.915C34.945 201.915 35.489 202.093 35.9407 202.448C36.3952 202.8 36.7418 203.311 36.9805 203.982C37.2219 204.649 37.3427 205.455 37.3427 206.398C37.3427 207.347 37.2234 208.157 36.9847 208.827C36.7461 209.495 36.4009 210.005 35.9492 210.357C35.4975 210.706 34.9506 210.881 34.3086 210.881ZM34.3086 209.943C34.945 209.943 35.4393 209.637 35.7915 209.023C36.1438 208.409 36.32 207.534 36.32 206.398C36.32 205.642 36.239 204.999 36.0771 204.468C35.918 203.936 35.6879 203.532 35.3867 203.253C35.0884 202.975 34.729 202.836 34.3086 202.836C33.6779 202.836 33.185 203.147 32.8299 203.769C32.4748 204.388 32.2972 205.264 32.2972 206.398C32.2972 207.154 32.3768 207.796 32.5359 208.324C32.695 208.853 32.9237 209.255 33.2219 209.53C33.5231 209.806 33.8853 209.943 34.3086 209.943ZM41.8086 210.881C41.1665 210.881 40.6197 210.706 40.168 210.357C39.7163 210.005 39.3711 209.495 39.1325 208.827C38.8938 208.157 38.7745 207.347 38.7745 206.398C38.7745 205.455 38.8938 204.649 39.1325 203.982C39.3739 203.311 39.7205 202.8 40.1722 202.448C40.6268 202.093 41.1722 201.915 41.8086 201.915C42.445 201.915 42.989 202.093 43.4407 202.448C43.8952 202.8 44.2418 203.311 44.4805 203.982C44.7219 204.649 44.8427 205.455 44.8427 206.398C44.8427 207.347 44.7234 208.157 44.4847 208.827C44.2461 209.495 43.9009 210.005 43.4492 210.357C42.9975 210.706 42.4506 210.881 41.8086 210.881ZM41.8086 209.943C42.445 209.943 42.9393 209.637 43.2915 209.023C43.6438 208.409 43.82 207.534 43.82 206.398C43.82 205.642 43.739 204.999 43.5771 204.468C43.418 203.936 43.1879 203.532 42.8867 203.253C42.5884 202.975 42.229 202.836 41.8086 202.836C41.1779 202.836 40.685 203.147 40.3299 203.769C39.9748 204.388 39.7972 205.264 39.7972 206.398C39.7972 207.154 39.8768 207.796 40.0359 208.324C40.195 208.853 40.4237 209.255 40.7219 209.53C41.0231 209.806 41.3853 209.943 41.8086 209.943ZM49.3086 210.881C48.6665 210.881 48.1197 210.706 47.668 210.357C47.2163 210.005 46.8711 209.495 46.6325 208.827C46.3938 208.157 46.2745 207.347 46.2745 206.398C46.2745 205.455 46.3938 204.649 46.6325 203.982C46.8739 203.311 47.2205 202.8 47.6722 202.448C48.1268 202.093 48.6722 201.915 49.3086 201.915C49.945 201.915 50.489 202.093 50.9407 202.448C51.3952 202.8 51.7418 203.311 51.9805 203.982C52.2219 204.649 52.3427 205.455 52.3427 206.398C52.3427 207.347 52.2234 208.157 51.9847 208.827C51.7461 209.495 51.4009 210.005 50.9492 210.357C50.4975 210.706 49.9506 210.881 49.3086 210.881ZM49.3086 209.943C49.945 209.943 50.4393 209.637 50.7915 209.023C51.1438 208.409 51.32 207.534 51.32 206.398C51.32 205.642 51.239 204.999 51.0771 204.468C50.918 203.936 50.6879 203.532 50.3867 203.253C50.0884 202.975 49.729 202.836 49.3086 202.836C48.6779 202.836 48.185 203.147 47.8299 203.769C47.4748 204.388 47.2972 205.264 47.2972 206.398C47.2972 207.154 47.3768 207.796 47.5359 208.324C47.695 208.853 47.9237 209.255 48.2219 209.53C48.5231 209.806 48.8853 209.943 49.3086 209.943Z" fill="black"/>
<line x1="59.0625" y1="6.11899" x2="660.003" y2="6.11904" stroke="#DFE3E8"/>
<line x1="59.0625" y1="56.3117" x2="660.003" y2="56.3117" stroke="#DFE3E8"/>
<line x1="59.0625" y1="106.504" x2="660.003" y2="106.504" stroke="#DFE3E8"/>
<line x1="59.0625" y1="156.697" x2="660.003" y2="156.697" stroke="#DFE3E8"/>
<line x1="59.0625" y1="206.89" x2="660.003" y2="206.89" stroke="#DFE3E8"/>
<line x1="467.5" y1="206" x2="467.5" y2="7" stroke="#DFE3E8"/>
<path d="M11 135.732L2.27273 135.732L2.27273 134.676L6.15909 134.676L6.15909 130.022L2.27273 130.022L2.27273 128.965L11 128.965L11 130.022L7.09659 130.022L7.09659 134.676L11 134.676L11 135.732ZM11.1364 124.242C11.1364 124.872 10.9972 125.416 10.7187 125.874C10.4375 126.328 10.0455 126.679 9.54261 126.926C9.03693 127.171 8.44886 127.293 7.77841 127.293C7.10795 127.293 6.51705 127.171 6.00568 126.926C5.49148 126.679 5.09091 126.335 4.80398 125.895C4.5142 125.452 4.36932 124.935 4.36932 124.344C4.36932 124.003 4.42614 123.666 4.53977 123.334C4.65341 123.002 4.83807 122.699 5.09375 122.426C5.34659 122.154 5.68182 121.936 6.09943 121.774C6.51704 121.612 7.03125 121.531 7.64204 121.531L8.06818 121.531L8.06818 126.577L7.19886 126.577L7.19886 122.554C6.82954 122.554 6.5 122.628 6.21023 122.776C5.92045 122.921 5.69176 123.128 5.52415 123.398C5.35653 123.665 5.27273 123.98 5.27273 124.344C5.27273 124.744 5.37216 125.091 5.57102 125.384C5.76705 125.673 6.02273 125.896 6.33807 126.053C6.65341 126.209 6.99148 126.287 7.35227 126.287L7.93182 126.287C8.42614 126.287 8.84517 126.202 9.18892 126.031C9.52983 125.858 9.78977 125.618 9.96875 125.311C10.1449 125.004 10.233 124.648 10.233 124.242C10.233 123.977 10.196 123.739 10.1222 123.526C10.0455 123.31 9.93182 123.124 9.78125 122.967C9.62784 122.811 9.4375 122.69 9.21023 122.605L9.48295 121.634C9.8125 121.736 10.1023 121.908 10.3523 122.149C10.5994 122.391 10.7926 122.689 10.9318 123.044C11.0682 123.399 11.1364 123.798 11.1364 124.242ZM11.1364 117.342C11.1364 117.956 10.9915 118.485 10.7017 118.928C10.4119 119.371 10.0128 119.712 9.50426 119.95C8.99574 120.189 8.41477 120.308 7.76136 120.308C7.09659 120.308 6.50994 120.186 6.00142 119.942C5.49006 119.695 5.09091 119.351 4.80398 118.911C4.5142 118.467 4.36932 117.95 4.36932 117.36C4.36932 116.899 4.45454 116.485 4.625 116.115C4.79545 115.746 5.03409 115.443 5.34091 115.208C5.64773 114.972 6.00568 114.825 6.41477 114.769L6.41477 115.774C6.11648 115.851 5.85227 116.021 5.62216 116.286C5.3892 116.547 5.27273 116.899 5.27273 117.342C5.27273 117.735 5.375 118.078 5.57954 118.374C5.78125 118.666 6.06676 118.895 6.43608 119.06C6.80256 119.222 7.23295 119.303 7.72727 119.303C8.23295 119.303 8.67329 119.223 9.04829 119.064C9.42329 118.902 9.71449 118.675 9.92187 118.382C10.1293 118.087 10.233 117.74 10.233 117.342C10.233 117.081 10.1875 116.844 10.0966 116.631C10.0057 116.418 9.875 116.237 9.70454 116.09C9.53409 115.942 9.32954 115.837 9.09091 115.774L9.09091 114.769C9.47727 114.825 9.82528 114.966 10.1349 115.19C10.4418 115.412 10.6861 115.706 10.8679 116.073C11.0469 116.436 11.1364 116.86 11.1364 117.342ZM4.45454 110.452L5.30682 110.452L5.30682 113.844L4.45454 113.844L4.45454 110.452ZM2.88636 112.855L2.88636 111.85L9.125 111.85C9.40909 111.85 9.62216 111.808 9.7642 111.726C9.90341 111.641 9.99716 111.533 10.0455 111.402C10.0909 111.269 10.1136 111.128 10.1136 110.98C10.1136 110.869 10.108 110.779 10.0966 110.708C10.0824 110.637 10.071 110.58 10.0625 110.537L10.9659 110.333C10.9915 110.401 11.017 110.496 11.0426 110.618C11.071 110.74 11.0852 110.895 11.0852 111.083C11.0852 111.367 11.0241 111.645 10.902 111.918C10.7798 112.188 10.5937 112.412 10.3437 112.591C10.0937 112.767 9.77841 112.855 9.39773 112.855L2.88636 112.855ZM11.1534 107.013C11.1534 107.428 11.0753 107.804 10.919 108.142C10.7599 108.48 10.5312 108.749 10.233 108.948C9.93182 109.146 9.56818 109.246 9.14204 109.246C8.76704 109.246 8.46307 109.172 8.23011 109.024C7.99432 108.877 7.80966 108.679 7.67614 108.432C7.54261 108.185 7.44318 107.912 7.37784 107.614C7.30966 107.313 7.25568 107.01 7.21591 106.706C7.16477 106.308 7.12642 105.986 7.10085 105.739C7.07244 105.489 7.02557 105.307 6.96023 105.193C6.89489 105.077 6.78125 105.019 6.61932 105.019L6.58523 105.019C6.16477 105.019 5.83807 105.134 5.60511 105.364C5.37216 105.591 5.25568 105.936 5.25568 106.399C5.25568 106.879 5.36079 107.256 5.57102 107.529C5.78125 107.801 6.00568 107.993 6.24432 108.104L5.90341 109.058C5.50568 108.888 5.19602 108.661 4.97443 108.377C4.75 108.09 4.59375 107.777 4.50568 107.439C4.41477 107.098 4.36932 106.763 4.36932 106.433C4.36932 106.223 4.39489 105.982 4.44602 105.709C4.49432 105.433 4.59517 105.168 4.74858 104.912C4.90199 104.654 5.13352 104.439 5.44318 104.269C5.75284 104.098 6.16761 104.013 6.6875 104.013L11 104.013L11 105.019L10.1136 105.019L10.1136 105.07C10.2557 105.138 10.4077 105.252 10.5696 105.411C10.7315 105.57 10.8693 105.781 10.983 106.046C11.0966 106.31 11.1534 106.632 11.1534 107.013ZM10.25 106.86C10.25 106.462 10.1719 106.127 10.0156 105.854C9.85937 105.578 9.65767 105.371 9.41051 105.232C9.16335 105.09 8.90341 105.019 8.63068 105.019L7.71023 105.019C7.76136 105.061 7.80824 105.155 7.85085 105.3C7.89062 105.442 7.92614 105.607 7.95739 105.794C7.98579 105.979 8.01136 106.159 8.03409 106.335C8.05398 106.509 8.07102 106.649 8.08523 106.757C8.11932 107.019 8.17472 107.263 8.25142 107.49C8.32528 107.715 8.4375 107.896 8.58807 108.036C8.73579 108.172 8.9375 108.24 9.19318 108.24C9.54261 108.24 9.80682 108.111 9.98579 107.852C10.1619 107.591 10.25 107.26 10.25 106.86ZM11 102.177L4.45454 102.177L4.45454 101.206L5.44318 101.206L5.44318 101.138C5.11932 101.018 4.85653 100.802 4.65483 100.49C4.45312 100.177 4.35227 99.8251 4.35227 99.433C4.35227 99.3592 4.35369 99.2668 4.35653 99.156C4.35937 99.0453 4.36364 98.9614 4.36932 98.9046L5.39204 98.9046C5.38352 98.9387 5.37074 99.0168 5.35369 99.139C5.33381 99.2583 5.32386 99.3847 5.32386 99.5183C5.32386 99.8364 5.39062 100.121 5.52415 100.371C5.65483 100.618 5.83665 100.814 6.0696 100.959C6.29971 101.101 6.5625 101.172 6.85795 101.172L11 101.172L11 102.177ZM11.1364 95.1674C11.1364 95.7981 10.9972 96.3421 10.7187 96.7995C10.4375 97.2541 10.0455 97.6049 9.54261 97.8521C9.03693 98.0964 8.44886 98.2185 7.77841 98.2185C7.10795 98.2185 6.51704 98.0964 6.00568 97.8521C5.49148 97.6049 5.09091 97.2612 4.80398 96.8208C4.5142 96.3776 4.36932 95.8606 4.36932 95.2697C4.36932 94.9288 4.42614 94.5921 4.53977 94.2597C4.65341 93.9274 4.83807 93.6248 5.09375 93.3521C5.34659 93.0793 5.68182 92.862 6.09943 92.7001C6.51704 92.5381 7.03125 92.4572 7.64204 92.4572L8.06818 92.4572L8.06818 97.5026L7.19886 97.5026L7.19886 93.4799C6.82954 93.4799 6.5 93.5538 6.21023 93.7015C5.92045 93.8464 5.69176 94.0538 5.52415 94.3237C5.35653 94.5907 5.27273 94.906 5.27273 95.2697C5.27273 95.6703 5.37216 96.0168 5.57102 96.3095C5.76704 96.5992 6.02273 96.8222 6.33807 96.9785C6.65341 97.1347 6.99148 97.2129 7.35227 97.2129L7.93182 97.2129C8.42614 97.2129 8.84517 97.1276 9.18892 96.9572C9.52983 96.7839 9.78977 96.5438 9.96875 96.237C10.1449 95.9302 10.233 95.5737 10.233 95.1674C10.233 94.9032 10.196 94.6646 10.1222 94.4515C10.0455 94.2356 9.93182 94.0495 9.78125 93.8933C9.62784 93.737 9.4375 93.6163 9.21023 93.531L9.48295 92.5595C9.8125 92.6617 10.1023 92.8336 10.3523 93.0751C10.5994 93.3166 10.7926 93.6149 10.9318 93.97C11.0682 94.3251 11.1364 94.7242 11.1364 95.1674ZM5.92045 86.291L6.17613 87.1944C6.02557 87.2512 5.87926 87.335 5.73721 87.4458C5.59233 87.5538 5.47301 87.7015 5.37926 87.889C5.28551 88.0765 5.23863 88.3166 5.23863 88.6092C5.23863 89.0097 5.33096 89.3435 5.51562 89.6106C5.69744 89.8748 5.92898 90.0069 6.21023 90.0069C6.46023 90.0069 6.65767 89.916 6.80256 89.7342C6.94744 89.5524 7.06818 89.2683 7.16477 88.8819L7.40341 87.9103C7.54545 87.3251 7.76278 86.889 8.0554 86.6021C8.34517 86.3151 8.71875 86.1717 9.17614 86.1717C9.55114 86.1717 9.88636 86.2796 10.1818 86.4955C10.4773 86.7086 10.7102 87.0069 10.8807 87.3904C11.0511 87.7739 11.1364 88.22 11.1364 88.7285C11.1364 89.3961 10.9915 89.9487 10.7017 90.3862C10.4119 90.8237 9.98864 91.1006 9.43182 91.2171L9.19318 90.2626C9.54545 90.1717 9.80966 89.9998 9.98579 89.747C10.1619 89.4913 10.25 89.1575 10.25 88.7455C10.25 88.2768 10.1506 87.9046 9.9517 87.6291C9.75 87.3506 9.50852 87.2114 9.22727 87.2114C9 87.2114 8.80966 87.291 8.65625 87.4501C8.5 87.6092 8.38352 87.8535 8.30682 88.183L8.05114 89.2739C7.90909 89.8734 7.68892 90.3137 7.39062 90.595C7.08949 90.8734 6.71307 91.0126 6.26136 91.0126C5.89204 91.0126 5.56534 90.9089 5.28125 90.7015C4.99716 90.4913 4.77415 90.2058 4.61221 89.845C4.45028 89.4813 4.36932 89.0694 4.36932 88.6092C4.36932 87.9614 4.51136 87.4529 4.79545 87.0836C5.07954 86.7114 5.45454 86.4472 5.92045 86.291Z" fill="black"/>
<path d="M69.5 204.978L126.026 202.383L181.206 179.896L239.751 202.383L298.969 176.437L352.804 197.194L412.695 157.409L467.202 182.491L525.747 155.68L582.946 121.949L640.145 141.841" stroke="#D54789" stroke-width="2"/>
<path d="M69.5 198.059L126.026 181.626L181.206 169.518L241.097 181.626L298.969 166.058L355.495 167.788L414.04 145.301L467.202 154.814L525.747 145.301L582.946 111.57L640.145 114.165" stroke="#489B7B" stroke-width="2"/>
<path d="M69.5 185.95L126.026 169.517L183.898 159.139L239.751 162.598L298.969 141.841L352.804 145.301L407.311 121.084L469.894 97.732L525.747 129.733L582.946 87.3533L640.145 89.948" stroke="#DDAB3B" stroke-width="2"/>
<path d="M69.5 175.572L126.026 155.68L183.898 145.301L239.751 136.652L298.969 103.787L352.804 124.544L412.695 83.0294L468.548 76.9752L525.747 100.327L582.946 66.5966L640.145 69.1912" stroke="#CB6527" stroke-width="2"/>
<path d="M69.5 111.57L126.026 100.327L183.898 64.0016L239.751 70.9207L298.969 38.0551L352.804 41.5146L407.311 22.4871L467.202 14.7032L525.747 24.2169L582.946 16.433L640.145 15.5681" stroke="#57C2FD" stroke-width="2"/>
<path d="M69.5 163.463L126.026 140.111L183.898 133.192L239.751 110.705L298.969 82.2519L352.804 98.5966L412.695 64.0012L467.202 54.4874L525.747 76.1096L582.946 56.2172L640.145 51.8928" stroke="#7471AD" stroke-width="2"/>
<path d="M69.5 132.327L126.026 119.354L183.898 93.4075L239.751 81.2991L298.969 60.5418L355.495 50.1632L412.695 32.8655L467.202 25.0816L525.747 44.9739L584.292 28.5411L640.145 29.406" stroke="#9F7830" stroke-width="2"/>
<path d="M69.5 147.895L126.026 129.732L183.898 119.354L239.751 95.1371L298.969 70.9203L352.804 65.731L412.695 48.4333L467.202 38.9196L525.747 60.5417L585.638 42.3791L640.145 39.7845" stroke="#75A338" stroke-width="2"/>
<circle cx="467.867" cy="182.437" r="5.5" fill="#D54789" stroke="white"/>
<circle cx="467.867" cy="154.76" r="5.5" fill="#489B7B" stroke="white"/>
<circle cx="467.867" cy="99.4073" r="5.5" fill="#DDAB3B" stroke="white"/>
<circle cx="467.867" cy="76.921" r="5.5" fill="#CB6527" stroke="white"/>
<circle cx="467.867" cy="54.4332" r="5.5" fill="#7471AD" stroke="white"/>
<circle cx="467.867" cy="40.5953" r="5.5" fill="#75A338" stroke="white"/>
<circle cx="467.867" cy="25.0279" r="5.5" fill="#9F7830" stroke="white"/>
<circle cx="467.867" cy="12.6495" r="5.5" fill="#57C2FD" stroke="white"/>
</svg>
