<svg width="660" height="125" viewBox="0 0 660 125" fill="none" xmlns="http://www.w3.org/2000/svg">
<path d="M25.6307 17.1193C25.1307 17.1193 24.6804 17.0199 24.2798 16.821C23.8793 16.6222 23.5582 16.3494 23.3168 16.0028C23.0753 15.6562 22.9432 15.2614 22.9205 14.8182H23.9432C23.983 15.2131 24.1619 15.5398 24.4801 15.7983C24.8011 16.054 25.1847 16.1818 25.6307 16.1818C25.9886 16.1818 26.3068 16.098 26.5852 15.9304C26.8665 15.7628 27.0866 15.5327 27.2457 15.2401C27.4077 14.9446 27.4886 14.6108 27.4886 14.2386C27.4886 13.858 27.4048 13.5185 27.2372 13.2202C27.0724 12.919 26.8452 12.6818 26.5554 12.5085C26.2656 12.3352 25.9347 12.2472 25.5625 12.2443C25.2955 12.2415 25.0213 12.2827 24.7401 12.3679C24.4588 12.4503 24.2273 12.5568 24.0455 12.6875L23.0568 12.5682L23.5852 8.27273H28.1193V9.21023H24.4716L24.1648 11.7841H24.2159C24.3949 11.642 24.6193 11.5241 24.8892 11.4304C25.1591 11.3366 25.4403 11.2898 25.733 11.2898C26.267 11.2898 26.7429 11.4176 27.1605 11.6733C27.581 11.9261 27.9105 12.2727 28.1491 12.7131C28.3906 13.1534 28.5114 13.6562 28.5114 14.2216C28.5114 14.7784 28.3864 15.2756 28.1364 15.7131C27.8892 16.1477 27.5483 16.4915 27.1136 16.7443C26.679 16.9943 26.1847 17.1193 25.6307 17.1193ZM31.3931 15.8068L31.3249 16.267C31.2766 16.5909 31.2028 16.9375 31.1033 17.3068C31.0067 17.6761 30.9059 18.0241 30.8008 18.3509C30.6957 18.6776 30.609 18.9375 30.5408 19.1307H29.7738C29.8107 18.9489 29.859 18.7088 29.9187 18.4105C29.9783 18.1122 30.038 17.7784 30.0977 17.4091C30.1602 17.0426 30.2113 16.6676 30.2511 16.2841L30.3022 15.8068H31.3931ZM35.7812 17.1193C35.1392 17.1193 34.5923 16.9446 34.1406 16.5952C33.6889 16.2429 33.3438 15.733 33.1051 15.0653C32.8665 14.3949 32.7472 13.5852 32.7472 12.6364C32.7472 11.6932 32.8665 10.8878 33.1051 10.2202C33.3466 9.54972 33.6932 9.03835 34.1449 8.68608C34.5994 8.33097 35.1449 8.15341 35.7812 8.15341C36.4176 8.15341 36.9616 8.33097 37.4134 8.68608C37.8679 9.03835 38.2145 9.54972 38.4531 10.2202C38.6946 10.8878 38.8153 11.6932 38.8153 12.6364C38.8153 13.5852 38.696 14.3949 38.4574 15.0653C38.2188 15.733 37.8736 16.2429 37.4219 16.5952C36.9702 16.9446 36.4233 17.1193 35.7812 17.1193ZM35.7812 16.1818C36.4176 16.1818 36.9119 15.875 37.2642 15.2614C37.6165 14.6477 37.7926 13.7727 37.7926 12.6364C37.7926 11.8807 37.7116 11.2372 37.5497 10.706C37.3906 10.1747 37.1605 9.76989 36.8594 9.49148C36.5611 9.21307 36.2017 9.07386 35.7812 9.07386C35.1506 9.07386 34.6577 9.38494 34.3026 10.0071C33.9474 10.6264 33.7699 11.5028 33.7699 12.6364C33.7699 13.392 33.8494 14.0341 34.0085 14.5625C34.1676 15.0909 34.3963 15.4929 34.6946 15.7685C34.9957 16.044 35.358 16.1818 35.7812 16.1818ZM43.2812 17.1193C42.6392 17.1193 42.0923 16.9446 41.6406 16.5952C41.1889 16.2429 40.8438 15.733 40.6051 15.0653C40.3665 14.3949 40.2472 13.5852 40.2472 12.6364C40.2472 11.6932 40.3665 10.8878 40.6051 10.2202C40.8466 9.54972 41.1932 9.03835 41.6449 8.68608C42.0994 8.33097 42.6449 8.15341 43.2812 8.15341C43.9176 8.15341 44.4616 8.33097 44.9134 8.68608C45.3679 9.03835 45.7145 9.54972 45.9531 10.2202C46.1946 10.8878 46.3153 11.6932 46.3153 12.6364C46.3153 13.5852 46.196 14.3949 45.9574 15.0653C45.7188 15.733 45.3736 16.2429 44.9219 16.5952C44.4702 16.9446 43.9233 17.1193 43.2812 17.1193ZM43.2812 16.1818C43.9176 16.1818 44.4119 15.875 44.7642 15.2614C45.1165 14.6477 45.2926 13.7727 45.2926 12.6364C45.2926 11.8807 45.2116 11.2372 45.0497 10.706C44.8906 10.1747 44.6605 9.76989 44.3594 9.49148C44.0611 9.21307 43.7017 9.07386 43.2812 9.07386C42.6506 9.07386 42.1577 9.38494 41.8026 10.0071C41.4474 10.6264 41.2699 11.5028 41.2699 12.6364C41.2699 13.392 41.3494 14.0341 41.5085 14.5625C41.6676 15.0909 41.8963 15.4929 42.1946 15.7685C42.4957 16.044 42.858 16.1818 43.2812 16.1818ZM50.7812 17.1193C50.1392 17.1193 49.5923 16.9446 49.1406 16.5952C48.6889 16.2429 48.3438 15.733 48.1051 15.0653C47.8665 14.3949 47.7472 13.5852 47.7472 12.6364C47.7472 11.6932 47.8665 10.8878 48.1051 10.2202C48.3466 9.54972 48.6932 9.03835 49.1449 8.68608C49.5994 8.33097 50.1449 8.15341 50.7812 8.15341C51.4176 8.15341 51.9616 8.33097 52.4134 8.68608C52.8679 9.03835 53.2145 9.54972 53.4531 10.2202C53.6946 10.8878 53.8153 11.6932 53.8153 12.6364C53.8153 13.5852 53.696 14.3949 53.4574 15.0653C53.2188 15.733 52.8736 16.2429 52.4219 16.5952C51.9702 16.9446 51.4233 17.1193 50.7812 17.1193ZM50.7812 16.1818C51.4176 16.1818 51.9119 15.875 52.2642 15.2614C52.6165 14.6477 52.7926 13.7727 52.7926 12.6364C52.7926 11.8807 52.7116 11.2372 52.5497 10.706C52.3906 10.1747 52.1605 9.76989 51.8594 9.49148C51.5611 9.21307 51.2017 9.07386 50.7812 9.07386C50.1506 9.07386 49.6577 9.38494 49.3026 10.0071C48.9474 10.6264 48.7699 11.5028 48.7699 12.6364C48.7699 13.392 48.8494 14.0341 49.0085 14.5625C49.1676 15.0909 49.3963 15.4929 49.6946 15.7685C49.9957 16.044 50.358 16.1818 50.7812 16.1818Z" fill="black"/>
<path d="M22.6989 38.7102V37.8409L26.5341 31.7727H27.1648V33.1193H26.7386L23.8409 37.7045V37.7727H29.0057V38.7102H22.6989ZM26.8068 40.5V38.446V38.0412V31.7727H27.8125V40.5H26.8068ZM31.7095 39.3068L31.6413 39.767C31.593 40.0909 31.5192 40.4375 31.4197 40.8068C31.3232 41.1761 31.2223 41.5241 31.1172 41.8509C31.0121 42.1776 30.9254 42.4375 30.8572 42.6307H30.0902C30.1271 42.4489 30.1754 42.2088 30.2351 41.9105C30.2947 41.6122 30.3544 41.2784 30.4141 40.9091C30.4766 40.5426 30.5277 40.1676 30.5675 39.7841L30.6186 39.3068H31.7095ZM36.0977 40.6193C35.4556 40.6193 34.9087 40.4446 34.457 40.0952C34.0053 39.7429 33.6602 39.233 33.4215 38.5653C33.1829 37.8949 33.0636 37.0852 33.0636 36.1364C33.0636 35.1932 33.1829 34.3878 33.4215 33.7202C33.663 33.0497 34.0096 32.5384 34.4613 32.1861C34.9158 31.831 35.4613 31.6534 36.0977 31.6534C36.734 31.6534 37.2781 31.831 37.7298 32.1861C38.1843 32.5384 38.5309 33.0497 38.7695 33.7202C39.011 34.3878 39.1317 35.1932 39.1317 36.1364C39.1317 37.0852 39.0124 37.8949 38.7738 38.5653C38.5352 39.233 38.19 39.7429 37.7383 40.0952C37.2866 40.4446 36.7397 40.6193 36.0977 40.6193ZM36.0977 39.6818C36.734 39.6818 37.2283 39.375 37.5806 38.7614C37.9329 38.1477 38.109 37.2727 38.109 36.1364C38.109 35.3807 38.0281 34.7372 37.8661 34.206C37.707 33.6747 37.4769 33.2699 37.1758 32.9915C36.8775 32.7131 36.5181 32.5739 36.0977 32.5739C35.467 32.5739 34.9741 32.8849 34.619 33.5071C34.2638 34.1264 34.0863 35.0028 34.0863 36.1364C34.0863 36.892 34.1658 37.5341 34.3249 38.0625C34.484 38.5909 34.7127 38.9929 35.011 39.2685C35.3121 39.544 35.6744 39.6818 36.0977 39.6818ZM43.5977 40.6193C42.9556 40.6193 42.4087 40.4446 41.957 40.0952C41.5053 39.7429 41.1602 39.233 40.9215 38.5653C40.6829 37.8949 40.5636 37.0852 40.5636 36.1364C40.5636 35.1932 40.6829 34.3878 40.9215 33.7202C41.163 33.0497 41.5096 32.5384 41.9613 32.1861C42.4158 31.831 42.9613 31.6534 43.5977 31.6534C44.234 31.6534 44.7781 31.831 45.2298 32.1861C45.6843 32.5384 46.0309 33.0497 46.2695 33.7202C46.511 34.3878 46.6317 35.1932 46.6317 36.1364C46.6317 37.0852 46.5124 37.8949 46.2738 38.5653C46.0352 39.233 45.69 39.7429 45.2383 40.0952C44.7866 40.4446 44.2397 40.6193 43.5977 40.6193ZM43.5977 39.6818C44.234 39.6818 44.7283 39.375 45.0806 38.7614C45.4329 38.1477 45.609 37.2727 45.609 36.1364C45.609 35.3807 45.5281 34.7372 45.3661 34.206C45.207 33.6747 44.9769 33.2699 44.6758 32.9915C44.3775 32.7131 44.0181 32.5739 43.5977 32.5739C42.967 32.5739 42.4741 32.8849 42.119 33.5071C41.7638 34.1264 41.5863 35.0028 41.5863 36.1364C41.5863 36.892 41.6658 37.5341 41.8249 38.0625C41.984 38.5909 42.2127 38.9929 42.511 39.2685C42.8121 39.544 43.1744 39.6818 43.5977 39.6818ZM51.0977 40.6193C50.4556 40.6193 49.9087 40.4446 49.457 40.0952C49.0053 39.7429 48.6602 39.233 48.4215 38.5653C48.1829 37.8949 48.0636 37.0852 48.0636 36.1364C48.0636 35.1932 48.1829 34.3878 48.4215 33.7202C48.663 33.0497 49.0096 32.5384 49.4613 32.1861C49.9158 31.831 50.4613 31.6534 51.0977 31.6534C51.734 31.6534 52.2781 31.831 52.7298 32.1861C53.1843 32.5384 53.5309 33.0497 53.7695 33.7202C54.011 34.3878 54.1317 35.1932 54.1317 36.1364C54.1317 37.0852 54.0124 37.8949 53.7738 38.5653C53.5352 39.233 53.19 39.7429 52.7383 40.0952C52.2866 40.4446 51.7397 40.6193 51.0977 40.6193ZM51.0977 39.6818C51.734 39.6818 52.2283 39.375 52.5806 38.7614C52.9329 38.1477 53.109 37.2727 53.109 36.1364C53.109 35.3807 53.0281 34.7372 52.8661 34.206C52.707 33.6747 52.4769 33.2699 52.1758 32.9915C51.8775 32.7131 51.5181 32.5739 51.0977 32.5739C50.467 32.5739 49.9741 32.8849 49.619 33.5071C49.2638 34.1264 49.0863 35.0028 49.0863 36.1364C49.0863 36.892 49.1658 37.5341 49.3249 38.0625C49.484 38.5909 49.7127 38.9929 50.011 39.2685C50.3121 39.544 50.6744 39.6818 51.0977 39.6818Z" fill="black"/>
<path d="M25.8523 64.1193C25.2898 64.1193 24.7884 64.0227 24.348 63.8295C23.9105 63.6364 23.5625 63.3679 23.304 63.0241C23.0483 62.6776 22.9091 62.2756 22.8864 61.8182H23.9602C23.983 62.0994 24.0795 62.3423 24.25 62.5469C24.4205 62.7486 24.6435 62.9048 24.919 63.0156C25.1946 63.1264 25.5 63.1818 25.8352 63.1818C26.2102 63.1818 26.5426 63.1165 26.8324 62.9858C27.1222 62.8551 27.3494 62.6733 27.5142 62.4403C27.679 62.2074 27.7614 61.9375 27.7614 61.6307C27.7614 61.3097 27.6818 61.027 27.5227 60.7827C27.3636 60.5355 27.1307 60.3423 26.8239 60.2031C26.517 60.0639 26.142 59.9943 25.6989 59.9943H25V59.0568H25.6989C26.0455 59.0568 26.3494 58.9943 26.6108 58.8693C26.875 58.7443 27.081 58.5682 27.2287 58.3409C27.3793 58.1136 27.4545 57.8466 27.4545 57.5398C27.4545 57.2443 27.3892 56.9872 27.2585 56.7685C27.1278 56.5497 26.9432 56.3793 26.7045 56.2571C26.4688 56.1349 26.1903 56.0739 25.8693 56.0739C25.5682 56.0739 25.2841 56.1293 25.017 56.2401C24.7528 56.348 24.5369 56.5057 24.3693 56.7131C24.2017 56.9176 24.1108 57.1648 24.0966 57.4545H23.0739C23.0909 56.9972 23.2287 56.5966 23.4872 56.2528C23.7457 55.9062 24.0838 55.6364 24.5014 55.4432C24.9219 55.25 25.3835 55.1534 25.8864 55.1534C26.4261 55.1534 26.8892 55.2628 27.2756 55.4815C27.6619 55.6974 27.9588 55.983 28.1662 56.3381C28.3736 56.6932 28.4773 57.0767 28.4773 57.4886C28.4773 57.9801 28.348 58.3991 28.0895 58.7457C27.8338 59.0923 27.4858 59.3324 27.0455 59.4659V59.5341C27.5966 59.625 28.027 59.8594 28.3366 60.2372C28.6463 60.6122 28.8011 61.0767 28.8011 61.6307C28.8011 62.1051 28.6719 62.5312 28.4134 62.9091C28.1577 63.2841 27.8082 63.5795 27.3651 63.7955C26.9219 64.0114 26.4176 64.1193 25.8523 64.1193ZM31.7915 62.8068L31.7234 63.267C31.6751 63.5909 31.6012 63.9375 31.5018 64.3068C31.4052 64.6761 31.3043 65.0241 31.1992 65.3509C31.0941 65.6776 31.0075 65.9375 30.9393 66.1307H30.1722C30.2092 65.9489 30.2575 65.7088 30.3171 65.4105C30.3768 65.1122 30.4364 64.7784 30.4961 64.4091C30.5586 64.0426 30.6097 63.6676 30.6495 63.2841L30.7006 62.8068H31.7915ZM36.1797 64.1193C35.5376 64.1193 34.9908 63.9446 34.5391 63.5952C34.0874 63.2429 33.7422 62.733 33.5036 62.0653C33.2649 61.3949 33.1456 60.5852 33.1456 59.6364C33.1456 58.6932 33.2649 57.8878 33.5036 57.2202C33.745 56.5497 34.0916 56.0384 34.5433 55.6861C34.9979 55.331 35.5433 55.1534 36.1797 55.1534C36.8161 55.1534 37.3601 55.331 37.8118 55.6861C38.2663 56.0384 38.6129 56.5497 38.8516 57.2202C39.093 57.8878 39.2138 58.6932 39.2138 59.6364C39.2138 60.5852 39.0945 61.3949 38.8558 62.0653C38.6172 62.733 38.272 63.2429 37.8203 63.5952C37.3686 63.9446 36.8217 64.1193 36.1797 64.1193ZM36.1797 63.1818C36.8161 63.1818 37.3104 62.875 37.6626 62.2614C38.0149 61.6477 38.1911 60.7727 38.1911 59.6364C38.1911 58.8807 38.1101 58.2372 37.9482 57.706C37.7891 57.1747 37.5589 56.7699 37.2578 56.4915C36.9595 56.2131 36.6001 56.0739 36.1797 56.0739C35.549 56.0739 35.0561 56.3849 34.701 57.0071C34.3459 57.6264 34.1683 58.5028 34.1683 59.6364C34.1683 60.392 34.2479 61.0341 34.407 61.5625C34.5661 62.0909 34.7947 62.4929 35.093 62.7685C35.3942 63.044 35.7564 63.1818 36.1797 63.1818ZM43.6797 64.1193C43.0376 64.1193 42.4908 63.9446 42.0391 63.5952C41.5874 63.2429 41.2422 62.733 41.0036 62.0653C40.7649 61.3949 40.6456 60.5852 40.6456 59.6364C40.6456 58.6932 40.7649 57.8878 41.0036 57.2202C41.245 56.5497 41.5916 56.0384 42.0433 55.6861C42.4979 55.331 43.0433 55.1534 43.6797 55.1534C44.3161 55.1534 44.8601 55.331 45.3118 55.6861C45.7663 56.0384 46.1129 56.5497 46.3516 57.2202C46.593 57.8878 46.7138 58.6932 46.7138 59.6364C46.7138 60.5852 46.5945 61.3949 46.3558 62.0653C46.1172 62.733 45.772 63.2429 45.3203 63.5952C44.8686 63.9446 44.3217 64.1193 43.6797 64.1193ZM43.6797 63.1818C44.3161 63.1818 44.8104 62.875 45.1626 62.2614C45.5149 61.6477 45.6911 60.7727 45.6911 59.6364C45.6911 58.8807 45.6101 58.2372 45.4482 57.706C45.2891 57.1747 45.0589 56.7699 44.7578 56.4915C44.4595 56.2131 44.1001 56.0739 43.6797 56.0739C43.049 56.0739 42.5561 56.3849 42.201 57.0071C41.8459 57.6264 41.6683 58.5028 41.6683 59.6364C41.6683 60.392 41.7479 61.0341 41.907 61.5625C42.0661 62.0909 42.2947 62.4929 42.593 62.7685C42.8942 63.044 43.2564 63.1818 43.6797 63.1818ZM51.1797 64.1193C50.5376 64.1193 49.9908 63.9446 49.5391 63.5952C49.0874 63.2429 48.7422 62.733 48.5036 62.0653C48.2649 61.3949 48.1456 60.5852 48.1456 59.6364C48.1456 58.6932 48.2649 57.8878 48.5036 57.2202C48.745 56.5497 49.0916 56.0384 49.5433 55.6861C49.9979 55.331 50.5433 55.1534 51.1797 55.1534C51.8161 55.1534 52.3601 55.331 52.8118 55.6861C53.2663 56.0384 53.6129 56.5497 53.8516 57.2202C54.093 57.8878 54.2138 58.6932 54.2138 59.6364C54.2138 60.5852 54.0945 61.3949 53.8558 62.0653C53.6172 62.733 53.272 63.2429 52.8203 63.5952C52.3686 63.9446 51.8217 64.1193 51.1797 64.1193ZM51.1797 63.1818C51.8161 63.1818 52.3104 62.875 52.6626 62.2614C53.0149 61.6477 53.1911 60.7727 53.1911 59.6364C53.1911 58.8807 53.1101 58.2372 52.9482 57.706C52.7891 57.1747 52.5589 56.7699 52.2578 56.4915C51.9595 56.2131 51.6001 56.0739 51.1797 56.0739C50.549 56.0739 50.0561 56.3849 49.701 57.0071C49.3459 57.6264 49.1683 58.5028 49.1683 59.6364C49.1683 60.392 49.2479 61.0341 49.407 61.5625C49.5661 62.0909 49.7947 62.4929 50.093 62.7685C50.3942 63.044 50.7564 63.1818 51.1797 63.1818Z" fill="black"/>
<path d="M22.9034 87.5V86.733L25.7841 83.5795C26.1222 83.2102 26.4006 82.8892 26.6193 82.6165C26.8381 82.3409 27 82.0824 27.1051 81.8409C27.2131 81.5966 27.267 81.3409 27.267 81.0739C27.267 80.767 27.1932 80.5014 27.0455 80.277C26.9006 80.0526 26.7017 79.8793 26.4489 79.7571C26.196 79.6349 25.9119 79.5739 25.5966 79.5739C25.2614 79.5739 24.9688 79.6435 24.7188 79.7827C24.4716 79.919 24.2798 80.1108 24.1435 80.358C24.0099 80.6051 23.9432 80.8949 23.9432 81.2273H22.9375C22.9375 80.7159 23.0554 80.267 23.2912 79.8807C23.527 79.4943 23.848 79.1932 24.2543 78.9773C24.6634 78.7614 25.1222 78.6534 25.6307 78.6534C26.142 78.6534 26.5952 78.7614 26.9901 78.9773C27.3849 79.1932 27.6946 79.4844 27.919 79.8509C28.1435 80.2173 28.2557 80.625 28.2557 81.0739C28.2557 81.3949 28.1974 81.7088 28.081 82.0156C27.9673 82.3196 27.7685 82.6591 27.4844 83.0341C27.2031 83.4062 26.8125 83.8608 26.3125 84.3977L24.3523 86.4943V86.5625H28.4091V87.5H22.9034ZM31.6861 86.3068L31.6179 86.767C31.5696 87.0909 31.4957 87.4375 31.3963 87.8068C31.2997 88.1761 31.1989 88.5241 31.0938 88.8509C30.9886 89.1776 30.902 89.4375 30.8338 89.6307H30.0668C30.1037 89.4489 30.152 89.2088 30.2116 88.9105C30.2713 88.6122 30.331 88.2784 30.3906 87.9091C30.4531 87.5426 30.5043 87.1676 30.544 86.7841L30.5952 86.3068H31.6861ZM36.0742 87.6193C35.4322 87.6193 34.8853 87.4446 34.4336 87.0952C33.9819 86.7429 33.6367 86.233 33.3981 85.5653C33.1594 84.8949 33.0401 84.0852 33.0401 83.1364C33.0401 82.1932 33.1594 81.3878 33.3981 80.7202C33.6396 80.0497 33.9862 79.5384 34.4379 79.1861C34.8924 78.831 35.4379 78.6534 36.0742 78.6534C36.7106 78.6534 37.2546 78.831 37.7063 79.1861C38.1609 79.5384 38.5075 80.0497 38.7461 80.7202C38.9876 81.3878 39.1083 82.1932 39.1083 83.1364C39.1083 84.0852 38.989 84.8949 38.7504 85.5653C38.5117 86.233 38.1665 86.7429 37.7148 87.0952C37.2631 87.4446 36.7163 87.6193 36.0742 87.6193ZM36.0742 86.6818C36.7106 86.6818 37.2049 86.375 37.5572 85.7614C37.9094 85.1477 38.0856 84.2727 38.0856 83.1364C38.0856 82.3807 38.0046 81.7372 37.8427 81.206C37.6836 80.6747 37.4535 80.2699 37.1523 79.9915C36.854 79.7131 36.4947 79.5739 36.0742 79.5739C35.4435 79.5739 34.9506 79.8849 34.5955 80.5071C34.2404 81.1264 34.0629 82.0028 34.0629 83.1364C34.0629 83.892 34.1424 84.5341 34.3015 85.0625C34.4606 85.5909 34.6893 85.9929 34.9876 86.2685C35.2887 86.544 35.6509 86.6818 36.0742 86.6818ZM43.5742 87.6193C42.9322 87.6193 42.3853 87.4446 41.9336 87.0952C41.4819 86.7429 41.1367 86.233 40.8981 85.5653C40.6594 84.8949 40.5401 84.0852 40.5401 83.1364C40.5401 82.1932 40.6594 81.3878 40.8981 80.7202C41.1396 80.0497 41.4862 79.5384 41.9379 79.1861C42.3924 78.831 42.9379 78.6534 43.5742 78.6534C44.2106 78.6534 44.7546 78.831 45.2063 79.1861C45.6609 79.5384 46.0075 80.0497 46.2461 80.7202C46.4876 81.3878 46.6083 82.1932 46.6083 83.1364C46.6083 84.0852 46.489 84.8949 46.2504 85.5653C46.0117 86.233 45.6665 86.7429 45.2148 87.0952C44.7631 87.4446 44.2163 87.6193 43.5742 87.6193ZM43.5742 86.6818C44.2106 86.6818 44.7049 86.375 45.0572 85.7614C45.4094 85.1477 45.5856 84.2727 45.5856 83.1364C45.5856 82.3807 45.5046 81.7372 45.3427 81.206C45.1836 80.6747 44.9535 80.2699 44.6523 79.9915C44.354 79.7131 43.9947 79.5739 43.5742 79.5739C42.9435 79.5739 42.4506 79.8849 42.0955 80.5071C41.7404 81.1264 41.5629 82.0028 41.5629 83.1364C41.5629 83.892 41.6424 84.5341 41.8015 85.0625C41.9606 85.5909 42.1893 85.9929 42.4876 86.2685C42.7887 86.544 43.1509 86.6818 43.5742 86.6818ZM51.0742 87.6193C50.4322 87.6193 49.8853 87.4446 49.4336 87.0952C48.9819 86.7429 48.6367 86.233 48.3981 85.5653C48.1594 84.8949 48.0401 84.0852 48.0401 83.1364C48.0401 82.1932 48.1594 81.3878 48.3981 80.7202C48.6396 80.0497 48.9862 79.5384 49.4379 79.1861C49.8924 78.831 50.4379 78.6534 51.0742 78.6534C51.7106 78.6534 52.2546 78.831 52.7063 79.1861C53.1609 79.5384 53.5075 80.0497 53.7461 80.7202C53.9876 81.3878 54.1083 82.1932 54.1083 83.1364C54.1083 84.0852 53.989 84.8949 53.7504 85.5653C53.5117 86.233 53.1665 86.7429 52.7148 87.0952C52.2631 87.4446 51.7163 87.6193 51.0742 87.6193ZM51.0742 86.6818C51.7106 86.6818 52.2049 86.375 52.5572 85.7614C52.9094 85.1477 53.0856 84.2727 53.0856 83.1364C53.0856 82.3807 53.0046 81.7372 52.8427 81.206C52.6836 80.6747 52.4535 80.2699 52.1523 79.9915C51.854 79.7131 51.4947 79.5739 51.0742 79.5739C50.4435 79.5739 49.9506 79.8849 49.5955 80.5071C49.2404 81.1264 49.0629 82.0028 49.0629 83.1364C49.0629 83.892 49.1424 84.5341 49.3015 85.0625C49.4606 85.5909 49.6893 85.9929 49.9876 86.2685C50.2887 86.544 50.6509 86.6818 51.0742 86.6818Z" fill="black"/>
<path d="M25.9716 102.273V111H24.9148V103.381H24.8636L22.733 104.795V103.722L24.9148 102.273H25.9716ZM29.483 109.807L29.4148 110.267C29.3665 110.591 29.2926 110.938 29.1932 111.307C29.0966 111.676 28.9957 112.024 28.8906 112.351C28.7855 112.678 28.6989 112.938 28.6307 113.131H27.8636C27.9006 112.949 27.9489 112.709 28.0085 112.411C28.0682 112.112 28.1278 111.778 28.1875 111.409C28.25 111.043 28.3011 110.668 28.3409 110.284L28.392 109.807H29.483ZM33.8711 111.119C33.229 111.119 32.6822 110.945 32.2305 110.595C31.7788 110.243 31.4336 109.733 31.195 109.065C30.9563 108.395 30.837 107.585 30.837 106.636C30.837 105.693 30.9563 104.888 31.195 104.22C31.4364 103.55 31.783 103.038 32.2347 102.686C32.6893 102.331 33.2347 102.153 33.8711 102.153C34.5075 102.153 35.0515 102.331 35.5032 102.686C35.9577 103.038 36.3043 103.55 36.543 104.22C36.7844 104.888 36.9052 105.693 36.9052 106.636C36.9052 107.585 36.7859 108.395 36.5472 109.065C36.3086 109.733 35.9634 110.243 35.5117 110.595C35.06 110.945 34.5131 111.119 33.8711 111.119ZM33.8711 110.182C34.5075 110.182 35.0018 109.875 35.354 109.261C35.7063 108.648 35.8825 107.773 35.8825 106.636C35.8825 105.881 35.8015 105.237 35.6396 104.706C35.4805 104.175 35.2504 103.77 34.9492 103.491C34.6509 103.213 34.2915 103.074 33.8711 103.074C33.2404 103.074 32.7475 103.385 32.3924 104.007C32.0373 104.626 31.8597 105.503 31.8597 106.636C31.8597 107.392 31.9393 108.034 32.0984 108.562C32.2575 109.091 32.4862 109.493 32.7844 109.768C33.0856 110.044 33.4478 110.182 33.8711 110.182ZM41.3711 111.119C40.729 111.119 40.1822 110.945 39.7305 110.595C39.2788 110.243 38.9336 109.733 38.695 109.065C38.4563 108.395 38.337 107.585 38.337 106.636C38.337 105.693 38.4563 104.888 38.695 104.22C38.9364 103.55 39.283 103.038 39.7347 102.686C40.1893 102.331 40.7347 102.153 41.3711 102.153C42.0075 102.153 42.5515 102.331 43.0032 102.686C43.4577 103.038 43.8043 103.55 44.043 104.22C44.2844 104.888 44.4052 105.693 44.4052 106.636C44.4052 107.585 44.2859 108.395 44.0472 109.065C43.8086 109.733 43.4634 110.243 43.0117 110.595C42.56 110.945 42.0131 111.119 41.3711 111.119ZM41.3711 110.182C42.0075 110.182 42.5018 109.875 42.854 109.261C43.2063 108.648 43.3825 107.773 43.3825 106.636C43.3825 105.881 43.3015 105.237 43.1396 104.706C42.9805 104.175 42.7504 103.77 42.4492 103.491C42.1509 103.213 41.7915 103.074 41.3711 103.074C40.7404 103.074 40.2475 103.385 39.8924 104.007C39.5373 104.626 39.3597 105.503 39.3597 106.636C39.3597 107.392 39.4393 108.034 39.5984 108.562C39.7575 109.091 39.9862 109.493 40.2844 109.768C40.5856 110.044 40.9478 110.182 41.3711 110.182ZM48.8711 111.119C48.229 111.119 47.6822 110.945 47.2305 110.595C46.7788 110.243 46.4336 109.733 46.195 109.065C45.9563 108.395 45.837 107.585 45.837 106.636C45.837 105.693 45.9563 104.888 46.195 104.22C46.4364 103.55 46.783 103.038 47.2347 102.686C47.6893 102.331 48.2347 102.153 48.8711 102.153C49.5075 102.153 50.0515 102.331 50.5032 102.686C50.9577 103.038 51.3043 103.55 51.543 104.22C51.7844 104.888 51.9052 105.693 51.9052 106.636C51.9052 107.585 51.7859 108.395 51.5472 109.065C51.3086 109.733 50.9634 110.243 50.5117 110.595C50.06 110.945 49.5131 111.119 48.8711 111.119ZM48.8711 110.182C49.5075 110.182 50.0018 109.875 50.354 109.261C50.7063 108.648 50.8825 107.773 50.8825 106.636C50.8825 105.881 50.8015 105.237 50.6396 104.706C50.4805 104.175 50.2504 103.77 49.9492 103.491C49.6509 103.213 49.2915 103.074 48.8711 103.074C48.2404 103.074 47.7475 103.385 47.3924 104.007C47.0373 104.626 46.8597 105.503 46.8597 106.636C46.8597 107.392 46.9393 108.034 47.0984 108.562C47.2575 109.091 47.4862 109.493 47.7844 109.768C48.0856 110.044 48.4478 110.182 48.8711 110.182Z" fill="black"/>
<line x1="67" y1="12.5" x2="646" y2="12.5001" stroke="#DFE3E8"/>
<line x1="67" y1="36" x2="646" y2="36" stroke="#DFE3E8"/>
<line x1="67" y1="59.5" x2="646" y2="59.5" stroke="#DFE3E8"/>
<line x1="67" y1="83" x2="646" y2="83.0001" stroke="#DFE3E8"/>
<line x1="67" y1="106.5" x2="646" y2="106.5" stroke="#DFE3E8"/>
<path d="M11 86.9432L2.27273 86.9432L2.27273 85.8864L6.15909 85.8864L6.15909 81.233L2.27273 81.233L2.27273 80.1761L11 80.1761L11 81.233L7.09659 81.233L7.09659 85.8864L11 85.8864L11 86.9432ZM11.1364 75.4524C11.1364 76.0831 10.9972 76.6271 10.7187 77.0845C10.4375 77.5391 10.0455 77.8899 9.54261 78.1371C9.03693 78.3814 8.44886 78.5036 7.77841 78.5036C7.10795 78.5036 6.51704 78.3814 6.00568 78.1371C5.49148 77.8899 5.09091 77.5462 4.80398 77.1058C4.5142 76.6626 4.36932 76.1456 4.36932 75.5547C4.36932 75.2138 4.42614 74.8771 4.53977 74.5447C4.65341 74.2124 4.83807 73.9098 5.09375 73.6371C5.34659 73.3643 5.68182 73.147 6.09943 72.9851C6.51704 72.8232 7.03125 72.7422 7.64204 72.7422L8.06818 72.7422L8.06818 77.7876L7.19886 77.7876L7.19886 73.7649C6.82954 73.7649 6.5 73.8388 6.21023 73.9865C5.92045 74.1314 5.69176 74.3388 5.52415 74.6087C5.35653 74.8757 5.27273 75.1911 5.27273 75.5547C5.27273 75.9553 5.37216 76.3018 5.57102 76.5945C5.76705 76.8842 6.02273 77.1072 6.33807 77.2635C6.65341 77.4197 6.99148 77.4979 7.35227 77.4979L7.93182 77.4979C8.42614 77.4979 8.84517 77.4126 9.18892 77.2422C9.52983 77.0689 9.78977 76.8288 9.96875 76.522C10.1449 76.2152 10.233 75.8587 10.233 75.4524C10.233 75.1882 10.196 74.9496 10.1222 74.7365C10.0455 74.5206 9.93182 74.3345 9.78125 74.1783C9.62784 74.022 9.4375 73.9013 9.21023 73.8161L9.48295 72.8445C9.8125 72.9467 10.1023 73.1186 10.3523 73.3601C10.5994 73.6016 10.7926 73.8999 10.9318 74.255C11.0682 74.6101 11.1364 75.0092 11.1364 75.4524ZM11.1364 68.5533C11.1364 69.1669 10.9915 69.6953 10.7017 70.1385C10.4119 70.5817 10.0128 70.9226 9.50426 71.1612C8.99574 71.3999 8.41477 71.5192 7.76136 71.5192C7.09659 71.5192 6.50994 71.397 6.00142 71.1527C5.49006 70.9055 5.09091 70.5618 4.80398 70.1214C4.5142 69.6783 4.36932 69.1612 4.36932 68.5703C4.36932 68.1101 4.45454 67.6953 4.625 67.326C4.79545 66.9567 5.03409 66.6541 5.34091 66.4183C5.64773 66.1825 6.00568 66.0362 6.41477 65.9794L6.41477 66.9851C6.11648 67.0618 5.85227 67.2322 5.62216 67.4964C5.3892 67.7578 5.27273 68.1101 5.27273 68.5533C5.27273 68.9453 5.375 69.2891 5.57954 69.5845C5.78125 69.8771 6.06676 70.1058 6.43608 70.2706C6.80256 70.4325 7.23295 70.5135 7.72727 70.5135C8.23295 70.5135 8.67329 70.4339 9.04829 70.2749C9.42329 70.1129 9.71449 69.8857 9.92187 69.593C10.1293 69.2976 10.233 68.951 10.233 68.5533C10.233 68.2919 10.1875 68.0547 10.0966 67.8416C10.0057 67.6286 9.875 67.4482 9.70454 67.3004C9.53409 67.1527 9.32954 67.0476 9.09091 66.9851L9.09091 65.9794C9.47727 66.0362 9.82528 66.1768 10.1349 66.4013C10.4418 66.6229 10.6861 66.9169 10.8679 67.2834C11.0469 67.647 11.1364 68.0703 11.1364 68.5533ZM4.45454 61.6626L5.30682 61.6626L5.30682 65.0547L4.45454 65.0547L4.45454 61.6626ZM2.88636 64.0661L2.88636 63.0604L9.125 63.0604C9.40909 63.0604 9.62216 63.0192 9.7642 62.9368C9.90341 62.8516 9.99716 62.7436 10.0455 62.6129C10.0909 62.4794 10.1136 62.3388 10.1136 62.1911C10.1136 62.0803 10.108 61.9893 10.0966 61.9183C10.0824 61.8473 10.071 61.7905 10.0625 61.7479L10.9659 61.5433C10.9915 61.6115 11.017 61.7067 11.0426 61.8288C11.071 61.951 11.0852 62.1058 11.0852 62.2933C11.0852 62.5774 11.0241 62.8558 10.902 63.1286C10.7798 63.3984 10.5937 63.6229 10.3437 63.8018C10.0937 63.978 9.77841 64.0661 9.39773 64.0661L2.88636 64.0661ZM11.1534 58.2237C11.1534 58.6385 11.0753 59.0149 10.919 59.353C10.7599 59.6911 10.5312 59.9595 10.233 60.1584C9.93182 60.3572 9.56818 60.4567 9.14204 60.4567C8.76704 60.4567 8.46307 60.3828 8.23011 60.2351C7.99432 60.0874 7.80966 59.8899 7.67614 59.6428C7.54261 59.3956 7.44318 59.1229 7.37784 58.8246C7.30966 58.5234 7.25568 58.2209 7.21591 57.9169C7.16477 57.5192 7.12642 57.1967 7.10085 56.9496C7.07244 56.6996 7.02557 56.5178 6.96023 56.4041C6.89489 56.2876 6.78125 56.2294 6.61932 56.2294L6.58523 56.2294C6.16477 56.2294 5.83807 56.3445 5.60511 56.5746C5.37216 56.8018 5.25568 57.147 5.25568 57.6101C5.25568 58.0902 5.36079 58.4666 5.57102 58.7393C5.78125 59.0121 6.00568 59.2038 6.24432 59.3146L5.90341 60.2692C5.50568 60.0987 5.19602 59.8714 4.97443 59.5874C4.75 59.3004 4.59375 58.9879 4.50568 58.6499C4.41477 58.3089 4.36932 57.9737 4.36932 57.6442C4.36932 57.4339 4.39489 57.1925 4.44602 56.9197C4.49432 56.6442 4.59517 56.3786 4.74858 56.1229C4.90199 55.8643 5.13352 55.6499 5.44318 55.4794C5.75284 55.3089 6.16761 55.2237 6.6875 55.2237L11 55.2237L11 56.2294L10.1136 56.2294L10.1136 56.2805C10.2557 56.3487 10.4077 56.4624 10.5696 56.6214C10.7315 56.7805 10.8693 56.9922 10.983 57.2564C11.0966 57.5206 11.1534 57.843 11.1534 58.2237ZM10.25 58.0703C10.25 57.6726 10.1719 57.3374 10.0156 57.0646C9.85937 56.7891 9.65767 56.5817 9.41051 56.4425C9.16335 56.3004 8.90341 56.2294 8.63068 56.2294L7.71023 56.2294C7.76136 56.272 7.80824 56.3658 7.85085 56.5107C7.89062 56.6527 7.92614 56.8175 7.95739 57.005C7.98579 57.1896 8.01136 57.37 8.03409 57.5462C8.05398 57.7195 8.07102 57.8601 8.08523 57.968C8.11932 58.2294 8.17471 58.4737 8.25142 58.701C8.32528 58.9254 8.4375 59.1072 8.58807 59.2464C8.73579 59.3828 8.9375 59.451 9.19318 59.451C9.54261 59.451 9.80682 59.3217 9.98579 59.0632C10.1619 58.8018 10.25 58.4709 10.25 58.0703ZM11 53.3881L4.45454 53.3881L4.45454 52.4165L5.44318 52.4165L5.44318 52.3484C5.11932 52.229 4.85653 52.0131 4.65483 51.7006C4.45312 51.3881 4.35227 51.0359 4.35227 50.6438C4.35227 50.57 4.35369 50.4776 4.35653 50.3668C4.35937 50.256 4.36364 50.1722 4.36932 50.1154L5.39204 50.1154C5.38352 50.1495 5.37074 50.2276 5.35369 50.3498C5.33381 50.4691 5.32386 50.5955 5.32386 50.729C5.32386 51.0472 5.39062 51.3313 5.52415 51.5813C5.65483 51.8285 5.83665 52.0245 6.0696 52.1694C6.29971 52.3114 6.5625 52.3825 6.85795 52.3825L11 52.3825L11 53.3881ZM11.1364 46.3782C11.1364 47.0089 10.9972 47.5529 10.7187 48.0103C10.4375 48.4648 10.0455 48.8157 9.54261 49.0629C9.03693 49.3072 8.44886 49.4293 7.77841 49.4293C7.10795 49.4293 6.51704 49.3072 6.00568 49.0629C5.49148 48.8157 5.09091 48.4719 4.80398 48.0316C4.5142 47.5884 4.36932 47.0714 4.36932 46.4805C4.36932 46.1396 4.42614 45.8029 4.53977 45.4705C4.65341 45.1381 4.83807 44.8356 5.09375 44.5629C5.34659 44.2901 5.68182 44.0728 6.09943 43.9109C6.51704 43.7489 7.03125 43.668 7.64204 43.668L8.06818 43.668L8.06818 48.7134L7.19886 48.7134L7.19886 44.6907C6.82954 44.6907 6.5 44.7646 6.21023 44.9123C5.92045 45.0572 5.69176 45.2646 5.52415 45.5344C5.35653 45.8015 5.27273 46.1168 5.27273 46.4805C5.27273 46.881 5.37216 47.2276 5.57102 47.5202C5.76704 47.81 6.02273 48.033 6.33807 48.1893C6.65341 48.3455 6.99148 48.4237 7.35227 48.4236L7.93182 48.4236C8.42614 48.4236 8.84517 48.3384 9.18892 48.168C9.52983 47.9947 9.78977 47.7546 9.96875 47.4478C10.1449 47.141 10.233 46.7844 10.233 46.3782C10.233 46.114 10.196 45.8754 10.1222 45.6623C10.0455 45.4464 9.93182 45.2603 9.78125 45.104C9.62784 44.9478 9.4375 44.8271 9.21023 44.7418L9.48295 43.7702C9.8125 43.8725 10.1023 44.0444 10.3523 44.2859C10.5994 44.5273 10.7926 44.8256 10.9318 45.1808C11.0682 45.5359 11.1364 45.935 11.1364 46.3782ZM5.92045 37.5018L6.17613 38.4052C6.02557 38.462 5.87926 38.5458 5.73721 38.6566C5.59233 38.7646 5.47301 38.9123 5.37926 39.0998C5.28551 39.2873 5.23863 39.5273 5.23863 39.82C5.23863 40.2205 5.33096 40.5543 5.51562 40.8214C5.69744 41.0856 5.92898 41.2177 6.21023 41.2177C6.46023 41.2177 6.65767 41.1268 6.80256 40.945C6.94744 40.7631 7.06818 40.479 7.16477 40.0927L7.40341 39.1211C7.54545 38.5359 7.76278 38.0998 8.0554 37.8129C8.34517 37.5259 8.71875 37.3825 9.17613 37.3825C9.55113 37.3825 9.88636 37.4904 10.1818 37.7063C10.4773 37.9194 10.7102 38.2177 10.8807 38.6012C11.0511 38.9847 11.1364 39.4308 11.1364 39.9393C11.1364 40.6069 10.9915 41.1594 10.7017 41.5969C10.4119 42.0344 9.98864 42.3114 9.43182 42.4279L9.19318 41.4734C9.54545 41.3825 9.80966 41.2106 9.98579 40.9577C10.1619 40.7021 10.25 40.3683 10.25 39.9563C10.25 39.4876 10.1506 39.1154 9.9517 38.8398C9.75 38.5614 9.50852 38.4222 9.22727 38.4222C9 38.4222 8.80966 38.5018 8.65625 38.6609C8.5 38.82 8.38352 39.0643 8.30682 39.3938L8.05113 40.4847C7.90909 41.0842 7.68892 41.5245 7.39062 41.8058C7.08949 42.0842 6.71307 42.2234 6.26136 42.2234C5.89204 42.2234 5.56534 42.1197 5.28125 41.9123C4.99716 41.7021 4.77415 41.4165 4.61221 41.0558C4.45028 40.6921 4.36932 40.2802 4.36932 39.82C4.36932 39.1722 4.51136 38.6637 4.79545 38.2944C5.07954 37.9222 5.45454 37.658 5.92045 37.5018Z" fill="black"/>
<path d="M71 103.671L127.527 102.271L182.708 90.1374L241.254 102.271L300.472 88.2706L354.308 99.4712L414.199 78.0035L468.707 91.5375L527.253 77.0701L584.453 58.8693L641.653 69.6031" stroke="#D54789" stroke-width="2"/>
<path d="M71 99.9379L127.527 91.0708L182.708 84.5372L242.6 91.0708L300.472 82.6704L356.999 83.6038L415.545 71.4699L468.707 76.6035L527.253 71.4699L584.453 53.269L641.653 54.6691" stroke="#489B7B" stroke-width="2"/>
<path d="M71 93.4043L127.527 84.5372L185.4 78.9369L241.254 80.8037L300.472 69.6032L354.308 71.4699L408.816 58.4026L471.399 45.802L527.253 63.0695L584.453 40.2018L641.653 41.6018" stroke="#DDAB3B" stroke-width="2"/>
<path d="M71 87.8041L127.527 77.0703L185.4 71.47L241.254 66.8031L300.472 49.069L354.308 60.2695L414.199 37.8684L470.053 34.6016L527.253 47.2022L584.453 29.0013L641.653 30.4014" stroke="#CB6527" stroke-width="2"/>
<path d="M71 53.2691L127.527 47.2022L185.4 27.6013L241.254 31.3348L300.472 13.6006L354.308 15.4673L408.816 5.2002L468.707 1L527.253 6.13358L584.453 1.93338L641.653 1.46669" stroke="#57C2FD" stroke-width="2"/>
<path d="M71 81.2703L127.527 68.6697L185.4 64.9362L241.254 52.8023L300.472 37.4492L354.308 46.2687L414.199 27.6011L468.707 22.4676L527.253 34.1348L584.453 23.4009L641.653 21.0675" stroke="#7471AD" stroke-width="2"/>
<path d="M71 64.4696L127.527 57.4693L185.4 43.4686L241.254 36.935L300.472 25.7345L356.999 20.1342L414.199 10.8004L468.707 6.60022L527.253 17.3341L585.799 8.46697L641.653 8.93366" stroke="#9F7830" stroke-width="2"/>
<path d="M71 72.87L127.527 63.0696L185.4 57.4693L241.254 44.402L300.472 31.3347L354.308 28.5346L414.199 19.2008L468.707 14.0673L527.253 25.7345L587.145 15.934L641.653 14.5339" stroke="#75A338" stroke-width="2"/>
<path d="M60.4366 123V122.233L63.3173 119.08C63.6554 118.71 63.9338 118.389 64.1525 118.116C64.3713 117.841 64.5332 117.582 64.6383 117.341C64.7463 117.097 64.8002 116.841 64.8002 116.574C64.8002 116.267 64.7264 116.001 64.5787 115.777C64.4338 115.553 64.2349 115.379 63.9821 115.257C63.7292 115.135 63.4451 115.074 63.1298 115.074C62.7946 115.074 62.502 115.143 62.252 115.283C62.0048 115.419 61.813 115.611 61.6767 115.858C61.5431 116.105 61.4764 116.395 61.4764 116.727H60.4707C60.4707 116.216 60.5886 115.767 60.8244 115.381C61.0602 114.994 61.3812 114.693 61.7875 114.477C62.1966 114.261 62.6554 114.153 63.1639 114.153C63.6752 114.153 64.1284 114.261 64.5233 114.477C64.9181 114.693 65.2278 114.984 65.4522 115.351C65.6767 115.717 65.7889 116.125 65.7889 116.574C65.7889 116.895 65.7306 117.209 65.6142 117.516C65.5005 117.82 65.3017 118.159 65.0176 118.534C64.7363 118.906 64.3457 119.361 63.8457 119.898L61.8855 121.994V122.062H65.9423V123H60.4366ZM70.5488 123.119C69.9068 123.119 69.3599 122.945 68.9082 122.595C68.4565 122.243 68.1113 121.733 67.8727 121.065C67.6341 120.395 67.5147 119.585 67.5147 118.636C67.5147 117.693 67.6341 116.888 67.8727 116.22C68.1142 115.55 68.4608 115.038 68.9125 114.686C69.367 114.331 69.9125 114.153 70.5488 114.153C71.1852 114.153 71.7292 114.331 72.1809 114.686C72.6355 115.038 72.9821 115.55 73.2207 116.22C73.4622 116.888 73.5829 117.693 73.5829 118.636C73.5829 119.585 73.4636 120.395 73.225 121.065C72.9863 121.733 72.6412 122.243 72.1895 122.595C71.7377 122.945 71.1909 123.119 70.5488 123.119ZM70.5488 122.182C71.1852 122.182 71.6795 121.875 72.0318 121.261C72.3841 120.648 72.5602 119.773 72.5602 118.636C72.5602 117.881 72.4792 117.237 72.3173 116.706C72.1582 116.175 71.9281 115.77 71.627 115.491C71.3287 115.213 70.9693 115.074 70.5488 115.074C69.9181 115.074 69.4252 115.385 69.0701 116.007C68.715 116.626 68.5375 117.503 68.5375 118.636C68.5375 119.392 68.617 120.034 68.7761 120.562C68.9352 121.091 69.1639 121.493 69.4622 121.768C69.7633 122.044 70.1255 122.182 70.5488 122.182ZM78.2704 114.273V123H77.2136V115.381H77.1625L75.0318 116.795V115.722L77.2136 114.273H78.2704ZM80.5758 121.21V120.341L84.411 114.273H85.0417V115.619H84.6156L81.7179 120.205V120.273H86.8826V121.21H80.5758ZM84.6838 123V120.946V120.541V114.273H85.6895V123H84.6838Z" fill="black"/>
<path d="M117.53 123V122.233L120.411 119.08C120.749 118.71 121.028 118.389 121.246 118.116C121.465 117.841 121.627 117.582 121.732 117.341C121.84 117.097 121.894 116.841 121.894 116.574C121.894 116.267 121.82 116.001 121.672 115.777C121.528 115.553 121.329 115.379 121.076 115.257C120.823 115.135 120.539 115.074 120.224 115.074C119.888 115.074 119.596 115.143 119.346 115.283C119.099 115.419 118.907 115.611 118.77 115.858C118.637 116.105 118.57 116.395 118.57 116.727H117.564C117.564 116.216 117.682 115.767 117.918 115.381C118.154 114.994 118.475 114.693 118.881 114.477C119.29 114.261 119.749 114.153 120.258 114.153C120.769 114.153 121.222 114.261 121.617 114.477C122.012 114.693 122.322 114.984 122.546 115.351C122.77 115.717 122.883 116.125 122.883 116.574C122.883 116.895 122.824 117.209 122.708 117.516C122.594 117.82 122.395 118.159 122.111 118.534C121.83 118.906 121.439 119.361 120.939 119.898L118.979 121.994V122.062H123.036V123H117.53ZM127.643 123.119C127.001 123.119 126.454 122.945 126.002 122.595C125.55 122.243 125.205 121.733 124.966 121.065C124.728 120.395 124.608 119.585 124.608 118.636C124.608 117.693 124.728 116.888 124.966 116.22C125.208 115.55 125.555 115.038 126.006 114.686C126.461 114.331 127.006 114.153 127.643 114.153C128.279 114.153 128.823 114.331 129.275 114.686C129.729 115.038 130.076 115.55 130.314 116.22C130.556 116.888 130.677 117.693 130.677 118.636C130.677 119.585 130.557 120.395 130.319 121.065C130.08 121.733 129.735 122.243 129.283 122.595C128.831 122.945 128.285 123.119 127.643 123.119ZM127.643 122.182C128.279 122.182 128.773 121.875 129.126 121.261C129.478 120.648 129.654 119.773 129.654 118.636C129.654 117.881 129.573 117.237 129.411 116.706C129.252 116.175 129.022 115.77 128.721 115.491C128.422 115.213 128.063 115.074 127.643 115.074C127.012 115.074 126.519 115.385 126.164 116.007C125.809 116.626 125.631 117.503 125.631 118.636C125.631 119.392 125.711 120.034 125.87 120.562C126.029 121.091 126.258 121.493 126.556 121.768C126.857 122.044 127.219 122.182 127.643 122.182ZM135.364 114.273V123H134.307V115.381H134.256L132.126 116.795V115.722L134.307 114.273H135.364ZM140.601 123.119C140.101 123.119 139.651 123.02 139.251 122.821C138.85 122.622 138.529 122.349 138.287 122.003C138.046 121.656 137.914 121.261 137.891 120.818H138.914C138.954 121.213 139.133 121.54 139.451 121.798C139.772 122.054 140.155 122.182 140.601 122.182C140.959 122.182 141.278 122.098 141.556 121.93C141.837 121.763 142.057 121.533 142.216 121.24C142.378 120.945 142.459 120.611 142.459 120.239C142.459 119.858 142.376 119.518 142.208 119.22C142.043 118.919 141.816 118.682 141.526 118.509C141.236 118.335 140.905 118.247 140.533 118.244C140.266 118.241 139.992 118.283 139.711 118.368C139.43 118.45 139.198 118.557 139.016 118.688L138.028 118.568L138.556 114.273H143.09V115.21H139.442L139.135 117.784H139.187C139.366 117.642 139.59 117.524 139.86 117.43C140.13 117.337 140.411 117.29 140.704 117.29C141.238 117.29 141.714 117.418 142.131 117.673C142.552 117.926 142.881 118.273 143.12 118.713C143.361 119.153 143.482 119.656 143.482 120.222C143.482 120.778 143.357 121.276 143.107 121.713C142.86 122.148 142.519 122.491 142.084 122.744C141.65 122.994 141.155 123.119 140.601 123.119Z" fill="black"/>
<path d="M173.831 123V122.233L176.712 119.08C177.05 118.71 177.328 118.389 177.547 118.116C177.766 117.841 177.928 117.582 178.033 117.341C178.141 117.097 178.195 116.841 178.195 116.574C178.195 116.267 178.121 116.001 177.973 115.777C177.828 115.553 177.629 115.379 177.377 115.257C177.124 115.135 176.84 115.074 176.524 115.074C176.189 115.074 175.896 115.143 175.646 115.283C175.399 115.419 175.208 115.611 175.071 115.858C174.938 116.105 174.871 116.395 174.871 116.727H173.865C173.865 116.216 173.983 115.767 174.219 115.381C174.455 114.994 174.776 114.693 175.182 114.477C175.591 114.261 176.05 114.153 176.558 114.153C177.07 114.153 177.523 114.261 177.918 114.477C178.313 114.693 178.622 114.984 178.847 115.351C179.071 115.717 179.183 116.125 179.183 116.574C179.183 116.895 179.125 117.209 179.009 117.516C178.895 117.82 178.696 118.159 178.412 118.534C178.131 118.906 177.74 119.361 177.24 119.898L175.28 121.994V122.062H179.337V123H173.831ZM183.943 123.119C183.301 123.119 182.754 122.945 182.303 122.595C181.851 122.243 181.506 121.733 181.267 121.065C181.029 120.395 180.909 119.585 180.909 118.636C180.909 117.693 181.029 116.888 181.267 116.22C181.509 115.55 181.855 115.038 182.307 114.686C182.762 114.331 183.307 114.153 183.943 114.153C184.58 114.153 185.124 114.331 185.575 114.686C186.03 115.038 186.377 115.55 186.615 116.22C186.857 116.888 186.977 117.693 186.977 118.636C186.977 119.585 186.858 120.395 186.619 121.065C186.381 121.733 186.036 122.243 185.584 122.595C185.132 122.945 184.585 123.119 183.943 123.119ZM183.943 122.182C184.58 122.182 185.074 121.875 185.426 121.261C185.779 120.648 185.955 119.773 185.955 118.636C185.955 117.881 185.874 117.237 185.712 116.706C185.553 116.175 185.323 115.77 185.021 115.491C184.723 115.213 184.364 115.074 183.943 115.074C183.313 115.074 182.82 115.385 182.465 116.007C182.11 116.626 181.932 117.503 181.932 118.636C181.932 119.392 182.012 120.034 182.171 120.562C182.33 121.091 182.558 121.493 182.857 121.768C183.158 122.044 183.52 122.182 183.943 122.182ZM191.665 114.273V123H190.608V115.381H190.557L188.426 116.795V115.722L190.608 114.273H191.665ZM197.073 123.119C196.715 123.114 196.357 123.045 195.999 122.915C195.641 122.784 195.314 122.564 195.019 122.254C194.723 121.942 194.486 121.52 194.307 120.989C194.128 120.455 194.039 119.784 194.039 118.977C194.039 118.205 194.111 117.52 194.256 116.923C194.401 116.324 194.611 115.82 194.887 115.411C195.162 114.999 195.494 114.686 195.884 114.473C196.276 114.26 196.718 114.153 197.209 114.153C197.698 114.153 198.132 114.251 198.513 114.447C198.896 114.641 199.209 114.911 199.45 115.257C199.692 115.604 199.848 116.003 199.919 116.455H198.879C198.783 116.062 198.595 115.737 198.317 115.479C198.039 115.22 197.669 115.091 197.209 115.091C196.533 115.091 196 115.385 195.611 115.973C195.225 116.561 195.03 117.386 195.027 118.449H195.095C195.254 118.207 195.443 118.001 195.662 117.831C195.884 117.658 196.128 117.524 196.395 117.43C196.662 117.337 196.945 117.29 197.243 117.29C197.743 117.29 198.2 117.415 198.615 117.665C199.03 117.912 199.362 118.254 199.612 118.692C199.862 119.126 199.987 119.625 199.987 120.188C199.987 120.727 199.867 121.222 199.625 121.67C199.384 122.116 199.044 122.472 198.607 122.736C198.172 122.997 197.661 123.125 197.073 123.119ZM197.073 122.182C197.431 122.182 197.752 122.092 198.036 121.913C198.323 121.734 198.548 121.494 198.713 121.193C198.881 120.892 198.965 120.557 198.965 120.188C198.965 119.827 198.884 119.499 198.722 119.203C198.563 118.905 198.343 118.668 198.061 118.491C197.783 118.315 197.465 118.227 197.107 118.227C196.837 118.227 196.585 118.281 196.352 118.389C196.119 118.494 195.915 118.639 195.739 118.824C195.566 119.009 195.429 119.22 195.33 119.459C195.23 119.695 195.181 119.943 195.181 120.205C195.181 120.551 195.262 120.875 195.423 121.176C195.588 121.477 195.813 121.72 196.097 121.905C196.384 122.089 196.709 122.182 197.073 122.182Z" fill="black"/>
<path d="M230.542 123V122.233L233.423 119.08C233.761 118.71 234.039 118.389 234.258 118.116C234.477 117.841 234.639 117.582 234.744 117.341C234.852 117.097 234.906 116.841 234.906 116.574C234.906 116.267 234.832 116.001 234.684 115.777C234.539 115.553 234.34 115.379 234.088 115.257C233.835 115.135 233.551 115.074 233.235 115.074C232.9 115.074 232.607 115.143 232.357 115.283C232.11 115.419 231.919 115.611 231.782 115.858C231.649 116.105 231.582 116.395 231.582 116.727H230.576C230.576 116.216 230.694 115.767 230.93 115.381C231.166 114.994 231.487 114.693 231.893 114.477C232.302 114.261 232.761 114.153 233.269 114.153C233.781 114.153 234.234 114.261 234.629 114.477C235.024 114.693 235.333 114.984 235.558 115.351C235.782 115.717 235.894 116.125 235.894 116.574C235.894 116.895 235.836 117.209 235.72 117.516C235.606 117.82 235.407 118.159 235.123 118.534C234.842 118.906 234.451 119.361 233.951 119.898L231.991 121.994V122.062H236.048V123H230.542ZM240.654 123.119C240.012 123.119 239.465 122.945 239.014 122.595C238.562 122.243 238.217 121.733 237.978 121.065C237.74 120.395 237.62 119.585 237.62 118.636C237.62 117.693 237.74 116.888 237.978 116.22C238.22 115.55 238.566 115.038 239.018 114.686C239.472 114.331 240.018 114.153 240.654 114.153C241.291 114.153 241.835 114.331 242.286 114.686C242.741 115.038 243.088 115.55 243.326 116.22C243.568 116.888 243.688 117.693 243.688 118.636C243.688 119.585 243.569 120.395 243.33 121.065C243.092 121.733 242.747 122.243 242.295 122.595C241.843 122.945 241.296 123.119 240.654 123.119ZM240.654 122.182C241.291 122.182 241.785 121.875 242.137 121.261C242.49 120.648 242.666 119.773 242.666 118.636C242.666 117.881 242.585 117.237 242.423 116.706C242.264 116.175 242.034 115.77 241.732 115.491C241.434 115.213 241.075 115.074 240.654 115.074C240.024 115.074 239.531 115.385 239.176 116.007C238.82 116.626 238.643 117.503 238.643 118.636C238.643 119.392 238.722 120.034 238.882 120.562C239.041 121.091 239.269 121.493 239.568 121.768C239.869 122.044 240.231 122.182 240.654 122.182ZM248.376 114.273V123H247.319V115.381H247.268L245.137 116.795V115.722L247.319 114.273H248.376ZM251.159 123L255.062 115.278V115.21H250.562V114.273H256.153V115.261L252.267 123H251.159Z" fill="black"/>
<path d="M286.667 123V122.233L289.548 119.08C289.886 118.71 290.164 118.389 290.383 118.116C290.602 117.841 290.764 117.582 290.869 117.341C290.977 117.097 291.031 116.841 291.031 116.574C291.031 116.267 290.957 116.001 290.809 115.777C290.664 115.553 290.465 115.379 290.213 115.257C289.96 115.135 289.676 115.074 289.36 115.074C289.025 115.074 288.732 115.143 288.482 115.283C288.235 115.419 288.044 115.611 287.907 115.858C287.774 116.105 287.707 116.395 287.707 116.727H286.701C286.701 116.216 286.819 115.767 287.055 115.381C287.291 114.994 287.612 114.693 288.018 114.477C288.427 114.261 288.886 114.153 289.394 114.153C289.906 114.153 290.359 114.261 290.754 114.477C291.149 114.693 291.458 114.984 291.683 115.351C291.907 115.717 292.019 116.125 292.019 116.574C292.019 116.895 291.961 117.209 291.845 117.516C291.731 117.82 291.532 118.159 291.248 118.534C290.967 118.906 290.576 119.361 290.076 119.898L288.116 121.994V122.062H292.173V123H286.667ZM296.779 123.119C296.137 123.119 295.59 122.945 295.139 122.595C294.687 122.243 294.342 121.733 294.103 121.065C293.865 120.395 293.745 119.585 293.745 118.636C293.745 117.693 293.865 116.888 294.103 116.22C294.345 115.55 294.691 115.038 295.143 114.686C295.597 114.331 296.143 114.153 296.779 114.153C297.416 114.153 297.96 114.331 298.411 114.686C298.866 115.038 299.213 115.55 299.451 116.22C299.693 116.888 299.813 117.693 299.813 118.636C299.813 119.585 299.694 120.395 299.455 121.065C299.217 121.733 298.872 122.243 298.42 122.595C297.968 122.945 297.421 123.119 296.779 123.119ZM296.779 122.182C297.416 122.182 297.91 121.875 298.262 121.261C298.615 120.648 298.791 119.773 298.791 118.636C298.791 117.881 298.71 117.237 298.548 116.706C298.389 116.175 298.159 115.77 297.857 115.491C297.559 115.213 297.2 115.074 296.779 115.074C296.149 115.074 295.656 115.385 295.301 116.007C294.945 116.626 294.768 117.503 294.768 118.636C294.768 119.392 294.847 120.034 295.007 120.562C295.166 121.091 295.394 121.493 295.693 121.768C295.994 122.044 296.356 122.182 296.779 122.182ZM304.501 114.273V123H303.444V115.381H303.393L301.262 116.795V115.722L303.444 114.273H304.501ZM309.806 123.119C309.221 123.119 308.704 123.016 308.255 122.808C307.809 122.598 307.461 122.31 307.211 121.943C306.961 121.574 306.838 121.153 306.84 120.682C306.838 120.312 306.91 119.972 307.058 119.659C307.205 119.344 307.407 119.081 307.663 118.871C307.921 118.658 308.21 118.523 308.528 118.466V118.415C308.11 118.307 307.778 118.072 307.531 117.712C307.284 117.348 307.161 116.935 307.164 116.472C307.161 116.028 307.274 115.632 307.501 115.283C307.728 114.933 308.041 114.658 308.438 114.456C308.839 114.254 309.295 114.153 309.806 114.153C310.312 114.153 310.764 114.254 311.161 114.456C311.559 114.658 311.872 114.933 312.099 115.283C312.329 115.632 312.445 116.028 312.448 116.472C312.445 116.935 312.319 117.348 312.069 117.712C311.822 118.072 311.494 118.307 311.085 118.415V118.466C311.4 118.523 311.684 118.658 311.937 118.871C312.19 119.081 312.392 119.344 312.542 119.659C312.693 119.972 312.769 120.312 312.772 120.682C312.769 121.153 312.642 121.574 312.389 121.943C312.139 122.31 311.791 122.598 311.345 122.808C310.901 123.016 310.389 123.119 309.806 123.119ZM309.806 122.182C310.201 122.182 310.542 122.118 310.829 121.99C311.116 121.862 311.338 121.682 311.494 121.449C311.65 121.216 311.73 120.943 311.732 120.631C311.73 120.301 311.644 120.01 311.477 119.757C311.309 119.504 311.08 119.305 310.791 119.161C310.504 119.016 310.176 118.943 309.806 118.943C309.434 118.943 309.102 119.016 308.809 119.161C308.519 119.305 308.291 119.504 308.123 119.757C307.958 120.01 307.877 120.301 307.88 120.631C307.877 120.943 307.953 121.216 308.106 121.449C308.262 121.682 308.485 121.862 308.775 121.99C309.065 122.118 309.409 122.182 309.806 122.182ZM309.806 118.04C310.119 118.04 310.396 117.977 310.637 117.852C310.882 117.727 311.073 117.553 311.213 117.328C311.352 117.104 311.423 116.841 311.426 116.54C311.423 116.244 311.353 115.987 311.217 115.768C311.08 115.547 310.892 115.376 310.65 115.257C310.409 115.135 310.127 115.074 309.806 115.074C309.48 115.074 309.194 115.135 308.95 115.257C308.705 115.376 308.517 115.547 308.383 115.768C308.249 115.987 308.184 116.244 308.187 116.54C308.184 116.841 308.251 117.104 308.387 117.328C308.526 117.553 308.718 117.727 308.963 117.852C309.207 117.977 309.488 118.04 309.806 118.04Z" fill="black"/>
<path d="M343.015 123V122.233L345.895 119.08C346.233 118.71 346.512 118.389 346.731 118.116C346.949 117.841 347.111 117.582 347.216 117.341C347.324 117.097 347.378 116.841 347.378 116.574C347.378 116.267 347.305 116.001 347.157 115.777C347.012 115.553 346.813 115.379 346.56 115.257C346.307 115.135 346.023 115.074 345.708 115.074C345.373 115.074 345.08 115.143 344.83 115.283C344.583 115.419 344.391 115.611 344.255 115.858C344.121 116.105 344.055 116.395 344.055 116.727H343.049C343.049 116.216 343.167 115.767 343.403 115.381C343.638 114.994 343.959 114.693 344.366 114.477C344.775 114.261 345.233 114.153 345.742 114.153C346.253 114.153 346.706 114.261 347.101 114.477C347.496 114.693 347.806 114.984 348.03 115.351C348.255 115.717 348.367 116.125 348.367 116.574C348.367 116.895 348.309 117.209 348.192 117.516C348.079 117.82 347.88 118.159 347.596 118.534C347.314 118.906 346.924 119.361 346.424 119.898L344.464 121.994V122.062H348.52V123H343.015ZM353.127 123.119C352.485 123.119 351.938 122.945 351.486 122.595C351.035 122.243 350.689 121.733 350.451 121.065C350.212 120.395 350.093 119.585 350.093 118.636C350.093 117.693 350.212 116.888 350.451 116.22C350.692 115.55 351.039 115.038 351.491 114.686C351.945 114.331 352.491 114.153 353.127 114.153C353.763 114.153 354.307 114.331 354.759 114.686C355.214 115.038 355.56 115.55 355.799 116.22C356.04 116.888 356.161 117.693 356.161 118.636C356.161 119.585 356.042 120.395 355.803 121.065C355.564 121.733 355.219 122.243 354.768 122.595C354.316 122.945 353.769 123.119 353.127 123.119ZM353.127 122.182C353.763 122.182 354.258 121.875 354.61 121.261C354.962 120.648 355.138 119.773 355.138 118.636C355.138 117.881 355.057 117.237 354.895 116.706C354.736 116.175 354.506 115.77 354.205 115.491C353.907 115.213 353.547 115.074 353.127 115.074C352.496 115.074 352.003 115.385 351.648 116.007C351.293 116.626 351.116 117.503 351.116 118.636C351.116 119.392 351.195 120.034 351.354 120.562C351.513 121.091 351.742 121.493 352.04 121.768C352.341 122.044 352.704 122.182 353.127 122.182ZM360.849 114.273V123H359.792V115.381H359.741L357.61 116.795V115.722L359.792 114.273H360.849ZM366.137 114.153C366.495 114.156 366.853 114.224 367.211 114.358C367.569 114.491 367.895 114.713 368.191 115.023C368.486 115.33 368.724 115.749 368.903 116.28C369.081 116.811 369.171 117.477 369.171 118.278C369.171 119.054 369.097 119.743 368.949 120.345C368.805 120.945 368.594 121.45 368.319 121.862C368.046 122.274 367.714 122.587 367.322 122.8C366.932 123.013 366.492 123.119 366.001 123.119C365.512 123.119 365.076 123.023 364.692 122.83C364.312 122.634 363.999 122.362 363.755 122.016C363.513 121.666 363.358 121.261 363.29 120.801H364.33C364.424 121.202 364.61 121.533 364.888 121.794C365.17 122.053 365.54 122.182 366.001 122.182C366.674 122.182 367.205 121.888 367.594 121.3C367.986 120.712 368.182 119.881 368.182 118.807H368.114C367.955 119.045 367.766 119.251 367.547 119.425C367.329 119.598 367.086 119.732 366.819 119.825C366.552 119.919 366.268 119.966 365.966 119.966C365.466 119.966 365.008 119.842 364.59 119.595C364.175 119.345 363.843 119.003 363.593 118.568C363.346 118.131 363.222 117.631 363.222 117.068C363.222 116.534 363.341 116.045 363.58 115.602C363.822 115.156 364.16 114.801 364.594 114.537C365.032 114.273 365.546 114.145 366.137 114.153ZM366.137 115.091C365.779 115.091 365.456 115.18 365.17 115.359C364.885 115.536 364.66 115.774 364.492 116.075C364.327 116.374 364.245 116.705 364.245 117.068C364.245 117.432 364.324 117.763 364.483 118.061C364.645 118.357 364.866 118.592 365.144 118.768C365.425 118.942 365.745 119.028 366.103 119.028C366.373 119.028 366.624 118.976 366.857 118.871C367.09 118.763 367.293 118.616 367.466 118.432C367.643 118.244 367.78 118.033 367.88 117.797C367.979 117.558 368.029 117.31 368.029 117.051C368.029 116.71 367.947 116.391 367.782 116.092C367.62 115.794 367.395 115.553 367.108 115.368C366.824 115.183 366.501 115.091 366.137 115.091Z" fill="black"/>
<path d="M399.564 123V122.233L402.444 119.08C402.782 118.71 403.061 118.389 403.279 118.116C403.498 117.841 403.66 117.582 403.765 117.341C403.873 117.097 403.927 116.841 403.927 116.574C403.927 116.267 403.853 116.001 403.706 115.777C403.561 115.553 403.362 115.379 403.109 115.257C402.856 115.135 402.572 115.074 402.257 115.074C401.922 115.074 401.629 115.143 401.379 115.283C401.132 115.419 400.94 115.611 400.804 115.858C400.67 116.105 400.603 116.395 400.603 116.727H399.598C399.598 116.216 399.716 115.767 399.951 115.381C400.187 114.994 400.508 114.693 400.914 114.477C401.324 114.261 401.782 114.153 402.291 114.153C402.802 114.153 403.255 114.261 403.65 114.477C404.045 114.693 404.355 114.984 404.579 115.351C404.804 115.717 404.916 116.125 404.916 116.574C404.916 116.895 404.858 117.209 404.741 117.516C404.627 117.82 404.429 118.159 404.145 118.534C403.863 118.906 403.473 119.361 402.973 119.898L401.012 121.994V122.062H405.069V123H399.564ZM409.676 123.119C409.034 123.119 408.487 122.945 408.035 122.595C407.583 122.243 407.238 121.733 407 121.065C406.761 120.395 406.642 119.585 406.642 118.636C406.642 117.693 406.761 116.888 407 116.22C407.241 115.55 407.588 115.038 408.039 114.686C408.494 114.331 409.039 114.153 409.676 114.153C410.312 114.153 410.856 114.331 411.308 114.686C411.762 115.038 412.109 115.55 412.348 116.22C412.589 116.888 412.71 117.693 412.71 118.636C412.71 119.585 412.591 120.395 412.352 121.065C412.113 121.733 411.768 122.243 411.316 122.595C410.865 122.945 410.318 123.119 409.676 123.119ZM409.676 122.182C410.312 122.182 410.806 121.875 411.159 121.261C411.511 120.648 411.687 119.773 411.687 118.636C411.687 117.881 411.606 117.237 411.444 116.706C411.285 116.175 411.055 115.77 410.754 115.491C410.456 115.213 410.096 115.074 409.676 115.074C409.045 115.074 408.552 115.385 408.197 116.007C407.842 116.626 407.664 117.503 407.664 118.636C407.664 119.392 407.744 120.034 407.903 120.562C408.062 121.091 408.291 121.493 408.589 121.768C408.89 122.044 409.252 122.182 409.676 122.182ZM414.329 123V122.233L417.21 119.08C417.548 118.71 417.826 118.389 418.045 118.116C418.264 117.841 418.426 117.582 418.531 117.341C418.639 117.097 418.693 116.841 418.693 116.574C418.693 116.267 418.619 116.001 418.471 115.777C418.326 115.553 418.127 115.379 417.875 115.257C417.622 115.135 417.338 115.074 417.022 115.074C416.687 115.074 416.395 115.143 416.145 115.283C415.897 115.419 415.706 115.611 415.569 115.858C415.436 116.105 415.369 116.395 415.369 116.727H414.363C414.363 116.216 414.481 115.767 414.717 115.381C414.953 114.994 415.274 114.693 415.68 114.477C416.089 114.261 416.548 114.153 417.056 114.153C417.568 114.153 418.021 114.261 418.416 114.477C418.811 114.693 419.12 114.984 419.345 115.351C419.569 115.717 419.681 116.125 419.681 116.574C419.681 116.895 419.623 117.209 419.507 117.516C419.393 117.82 419.194 118.159 418.91 118.534C418.629 118.906 418.238 119.361 417.738 119.898L415.778 121.994V122.062H419.835V123H414.329ZM424.441 123.119C423.799 123.119 423.252 122.945 422.801 122.595C422.349 122.243 422.004 121.733 421.765 121.065C421.527 120.395 421.407 119.585 421.407 118.636C421.407 117.693 421.527 116.888 421.765 116.22C422.007 115.55 422.353 115.038 422.805 114.686C423.26 114.331 423.805 114.153 424.441 114.153C425.078 114.153 425.622 114.331 426.074 114.686C426.528 115.038 426.875 115.55 427.113 116.22C427.355 116.888 427.475 117.693 427.475 118.636C427.475 119.585 427.356 120.395 427.118 121.065C426.879 121.733 426.534 122.243 426.082 122.595C425.63 122.945 425.083 123.119 424.441 123.119ZM424.441 122.182C425.078 122.182 425.572 121.875 425.924 121.261C426.277 120.648 426.453 119.773 426.453 118.636C426.453 117.881 426.372 117.237 426.21 116.706C426.051 116.175 425.821 115.77 425.52 115.491C425.221 115.213 424.862 115.074 424.441 115.074C423.811 115.074 423.318 115.385 422.963 116.007C422.608 116.626 422.43 117.503 422.43 118.636C422.43 119.392 422.51 120.034 422.669 120.562C422.828 121.091 423.056 121.493 423.355 121.768C423.656 122.044 424.018 122.182 424.441 122.182Z" fill="black"/>
<path d="M457.919 123V122.233L460.8 119.08C461.138 118.71 461.416 118.389 461.635 118.116C461.854 117.841 462.016 117.582 462.121 117.341C462.229 117.097 462.283 116.841 462.283 116.574C462.283 116.267 462.209 116.001 462.061 115.777C461.916 115.553 461.717 115.379 461.464 115.257C461.212 115.135 460.928 115.074 460.612 115.074C460.277 115.074 459.984 115.143 459.734 115.283C459.487 115.419 459.295 115.611 459.159 115.858C459.026 116.105 458.959 116.395 458.959 116.727H457.953C457.953 116.216 458.071 115.767 458.307 115.381C458.543 114.994 458.864 114.693 459.27 114.477C459.679 114.261 460.138 114.153 460.646 114.153C461.158 114.153 461.611 114.261 462.006 114.477C462.401 114.693 462.71 114.984 462.935 115.351C463.159 115.717 463.271 116.125 463.271 116.574C463.271 116.895 463.213 117.209 463.097 117.516C462.983 117.82 462.784 118.159 462.5 118.534C462.219 118.906 461.828 119.361 461.328 119.898L459.368 121.994V122.062H463.425V123H457.919ZM468.031 123.119C467.389 123.119 466.842 122.945 466.391 122.595C465.939 122.243 465.594 121.733 465.355 121.065C465.116 120.395 464.997 119.585 464.997 118.636C464.997 117.693 465.116 116.888 465.355 116.22C465.597 115.55 465.943 115.038 466.395 114.686C466.849 114.331 467.395 114.153 468.031 114.153C468.668 114.153 469.212 114.331 469.663 114.686C470.118 115.038 470.464 115.55 470.703 116.22C470.945 116.888 471.065 117.693 471.065 118.636C471.065 119.585 470.946 120.395 470.707 121.065C470.469 121.733 470.124 122.243 469.672 122.595C469.22 122.945 468.673 123.119 468.031 123.119ZM468.031 122.182C468.668 122.182 469.162 121.875 469.514 121.261C469.866 120.648 470.043 119.773 470.043 118.636C470.043 117.881 469.962 117.237 469.8 116.706C469.641 116.175 469.411 115.77 469.109 115.491C468.811 115.213 468.452 115.074 468.031 115.074C467.401 115.074 466.908 115.385 466.553 116.007C466.197 116.626 466.02 117.503 466.02 118.636C466.02 119.392 466.099 120.034 466.259 120.562C466.418 121.091 466.646 121.493 466.945 121.768C467.246 122.044 467.608 122.182 468.031 122.182ZM472.685 123V122.233L475.565 119.08C475.903 118.71 476.182 118.389 476.401 118.116C476.619 117.841 476.781 117.582 476.886 117.341C476.994 117.097 477.048 116.841 477.048 116.574C477.048 116.267 476.974 116.001 476.827 115.777C476.682 115.553 476.483 115.379 476.23 115.257C475.977 115.135 475.693 115.074 475.378 115.074C475.043 115.074 474.75 115.143 474.5 115.283C474.253 115.419 474.061 115.611 473.925 115.858C473.791 116.105 473.724 116.395 473.724 116.727H472.719C472.719 116.216 472.837 115.767 473.072 115.381C473.308 114.994 473.629 114.693 474.036 114.477C474.445 114.261 474.903 114.153 475.412 114.153C475.923 114.153 476.376 114.261 476.771 114.477C477.166 114.693 477.476 114.984 477.7 115.351C477.925 115.717 478.037 116.125 478.037 116.574C478.037 116.895 477.979 117.209 477.862 117.516C477.749 117.82 477.55 118.159 477.266 118.534C476.984 118.906 476.594 119.361 476.094 119.898L474.134 121.994V122.062H478.19V123H472.685ZM483.018 114.273V123H481.962V115.381H481.911L479.78 116.795V115.722L481.962 114.273H483.018Z" fill="black"/>
<path d="M514.47 123V122.233L517.35 119.08C517.689 118.71 517.967 118.389 518.186 118.116C518.404 117.841 518.566 117.582 518.672 117.341C518.779 117.097 518.833 116.841 518.833 116.574C518.833 116.267 518.76 116.001 518.612 115.777C518.467 115.553 518.268 115.379 518.015 115.257C517.762 115.135 517.478 115.074 517.163 115.074C516.828 115.074 516.535 115.143 516.285 115.283C516.038 115.419 515.846 115.611 515.71 115.858C515.576 116.105 515.51 116.395 515.51 116.727H514.504C514.504 116.216 514.622 115.767 514.858 115.381C515.093 114.994 515.414 114.693 515.821 114.477C516.23 114.261 516.689 114.153 517.197 114.153C517.708 114.153 518.162 114.261 518.556 114.477C518.951 114.693 519.261 114.984 519.485 115.351C519.71 115.717 519.822 116.125 519.822 116.574C519.822 116.895 519.764 117.209 519.647 117.516C519.534 117.82 519.335 118.159 519.051 118.534C518.77 118.906 518.379 119.361 517.879 119.898L515.919 121.994V122.062H519.975V123H514.47ZM524.582 123.119C523.94 123.119 523.393 122.945 522.941 122.595C522.49 122.243 522.145 121.733 521.906 121.065C521.667 120.395 521.548 119.585 521.548 118.636C521.548 117.693 521.667 116.888 521.906 116.22C522.147 115.55 522.494 115.038 522.946 114.686C523.4 114.331 523.946 114.153 524.582 114.153C525.218 114.153 525.762 114.331 526.214 114.686C526.669 115.038 527.015 115.55 527.254 116.22C527.495 116.888 527.616 117.693 527.616 118.636C527.616 119.585 527.497 120.395 527.258 121.065C527.02 121.733 526.674 122.243 526.223 122.595C525.771 122.945 525.224 123.119 524.582 123.119ZM524.582 122.182C525.218 122.182 525.713 121.875 526.065 121.261C526.417 120.648 526.593 119.773 526.593 118.636C526.593 117.881 526.512 117.237 526.35 116.706C526.191 116.175 525.961 115.77 525.66 115.491C525.362 115.213 525.002 115.074 524.582 115.074C523.951 115.074 523.458 115.385 523.103 116.007C522.748 116.626 522.571 117.503 522.571 118.636C522.571 119.392 522.65 120.034 522.809 120.562C522.968 121.091 523.197 121.493 523.495 121.768C523.797 122.044 524.159 122.182 524.582 122.182ZM529.235 123V122.233L532.116 119.08C532.454 118.71 532.733 118.389 532.951 118.116C533.17 117.841 533.332 117.582 533.437 117.341C533.545 117.097 533.599 116.841 533.599 116.574C533.599 116.267 533.525 116.001 533.377 115.777C533.233 115.553 533.034 115.379 532.781 115.257C532.528 115.135 532.244 115.074 531.929 115.074C531.593 115.074 531.301 115.143 531.051 115.283C530.804 115.419 530.612 115.611 530.475 115.858C530.342 116.105 530.275 116.395 530.275 116.727H529.27C529.27 116.216 529.387 115.767 529.623 115.381C529.859 114.994 530.18 114.693 530.586 114.477C530.995 114.261 531.454 114.153 531.963 114.153C532.474 114.153 532.927 114.261 533.322 114.477C533.717 114.693 534.027 114.984 534.251 115.351C534.475 115.717 534.588 116.125 534.588 116.574C534.588 116.895 534.529 117.209 534.413 117.516C534.299 117.82 534.1 118.159 533.816 118.534C533.535 118.906 533.145 119.361 532.645 119.898L530.684 121.994V122.062H534.741V123H529.235ZM536.501 123V122.233L539.382 119.08C539.72 118.71 539.998 118.389 540.217 118.116C540.436 117.841 540.598 117.582 540.703 117.341C540.811 117.097 540.865 116.841 540.865 116.574C540.865 116.267 540.791 116.001 540.643 115.777C540.498 115.553 540.299 115.379 540.047 115.257C539.794 115.135 539.51 115.074 539.194 115.074C538.859 115.074 538.566 115.143 538.316 115.283C538.069 115.419 537.877 115.611 537.741 115.858C537.608 116.105 537.541 116.395 537.541 116.727H536.535C536.535 116.216 536.653 115.767 536.889 115.381C537.125 114.994 537.446 114.693 537.852 114.477C538.261 114.261 538.72 114.153 539.228 114.153C539.74 114.153 540.193 114.261 540.588 114.477C540.983 114.693 541.292 114.984 541.517 115.351C541.741 115.717 541.853 116.125 541.853 116.574C541.853 116.895 541.795 117.209 541.679 117.516C541.565 117.82 541.366 118.159 541.082 118.534C540.801 118.906 540.41 119.361 539.91 119.898L537.95 121.994V122.062H542.007V123H536.501Z" fill="black"/>
<path d="M572.677 123V122.233L575.558 119.08C575.896 118.71 576.174 118.389 576.393 118.116C576.612 117.841 576.773 117.582 576.879 117.341C576.987 117.097 577.04 116.841 577.04 116.574C577.04 116.267 576.967 116.001 576.819 115.777C576.674 115.553 576.475 115.379 576.222 115.257C575.969 115.135 575.685 115.074 575.37 115.074C575.035 115.074 574.742 115.143 574.492 115.283C574.245 115.419 574.053 115.611 573.917 115.858C573.783 116.105 573.717 116.395 573.717 116.727H572.711C572.711 116.216 572.829 115.767 573.065 115.381C573.3 114.994 573.621 114.693 574.028 114.477C574.437 114.261 574.896 114.153 575.404 114.153C575.915 114.153 576.369 114.261 576.763 114.477C577.158 114.693 577.468 114.984 577.692 115.351C577.917 115.717 578.029 116.125 578.029 116.574C578.029 116.895 577.971 117.209 577.854 117.516C577.741 117.82 577.542 118.159 577.258 118.534C576.977 118.906 576.586 119.361 576.086 119.898L574.126 121.994V122.062H578.183V123H572.677ZM582.789 123.119C582.147 123.119 581.6 122.945 581.148 122.595C580.697 122.243 580.352 121.733 580.113 121.065C579.874 120.395 579.755 119.585 579.755 118.636C579.755 117.693 579.874 116.888 580.113 116.22C580.354 115.55 580.701 115.038 581.153 114.686C581.607 114.331 582.153 114.153 582.789 114.153C583.425 114.153 583.969 114.331 584.421 114.686C584.876 115.038 585.222 115.55 585.461 116.22C585.702 116.888 585.823 117.693 585.823 118.636C585.823 119.585 585.704 120.395 585.465 121.065C585.227 121.733 584.881 122.243 584.43 122.595C583.978 122.945 583.431 123.119 582.789 123.119ZM582.789 122.182C583.425 122.182 583.92 121.875 584.272 121.261C584.624 120.648 584.8 119.773 584.8 118.636C584.8 117.881 584.719 117.237 584.558 116.706C584.398 116.175 584.168 115.77 583.867 115.491C583.569 115.213 583.21 115.074 582.789 115.074C582.158 115.074 581.665 115.385 581.31 116.007C580.955 116.626 580.778 117.503 580.778 118.636C580.778 119.392 580.857 120.034 581.016 120.562C581.175 121.091 581.404 121.493 581.702 121.768C582.004 122.044 582.366 122.182 582.789 122.182ZM587.442 123V122.233L590.323 119.08C590.661 118.71 590.94 118.389 591.158 118.116C591.377 117.841 591.539 117.582 591.644 117.341C591.752 117.097 591.806 116.841 591.806 116.574C591.806 116.267 591.732 116.001 591.585 115.777C591.44 115.553 591.241 115.379 590.988 115.257C590.735 115.135 590.451 115.074 590.136 115.074C589.8 115.074 589.508 115.143 589.258 115.283C589.011 115.419 588.819 115.611 588.683 115.858C588.549 116.105 588.482 116.395 588.482 116.727H587.477C587.477 116.216 587.594 115.767 587.83 115.381C588.066 114.994 588.387 114.693 588.793 114.477C589.202 114.261 589.661 114.153 590.17 114.153C590.681 114.153 591.134 114.261 591.529 114.477C591.924 114.693 592.234 114.984 592.458 115.351C592.683 115.717 592.795 116.125 592.795 116.574C592.795 116.895 592.737 117.209 592.62 117.516C592.506 117.82 592.308 118.159 592.023 118.534C591.742 118.906 591.352 119.361 590.852 119.898L588.891 121.994V122.062H592.948V123H587.442ZM597.657 123.119C597.094 123.119 596.593 123.023 596.153 122.83C595.715 122.636 595.367 122.368 595.109 122.024C594.853 121.678 594.714 121.276 594.691 120.818H595.765C595.788 121.099 595.884 121.342 596.055 121.547C596.225 121.749 596.448 121.905 596.724 122.016C596.999 122.126 597.305 122.182 597.64 122.182C598.015 122.182 598.347 122.116 598.637 121.986C598.927 121.855 599.154 121.673 599.319 121.44C599.484 121.207 599.566 120.938 599.566 120.631C599.566 120.31 599.487 120.027 599.327 119.783C599.168 119.536 598.935 119.342 598.629 119.203C598.322 119.064 597.947 118.994 597.504 118.994H596.805V118.057H597.504C597.85 118.057 598.154 117.994 598.415 117.869C598.68 117.744 598.886 117.568 599.033 117.341C599.184 117.114 599.259 116.847 599.259 116.54C599.259 116.244 599.194 115.987 599.063 115.768C598.933 115.55 598.748 115.379 598.509 115.257C598.273 115.135 597.995 115.074 597.674 115.074C597.373 115.074 597.089 115.129 596.822 115.24C596.558 115.348 596.342 115.506 596.174 115.713C596.006 115.918 595.915 116.165 595.901 116.455H594.879C594.896 115.997 595.033 115.597 595.292 115.253C595.55 114.906 595.888 114.636 596.306 114.443C596.727 114.25 597.188 114.153 597.691 114.153C598.231 114.153 598.694 114.263 599.08 114.482C599.467 114.697 599.763 114.983 599.971 115.338C600.178 115.693 600.282 116.077 600.282 116.489C600.282 116.98 600.153 117.399 599.894 117.746C599.638 118.092 599.29 118.332 598.85 118.466V118.534C599.401 118.625 599.832 118.859 600.141 119.237C600.451 119.612 600.606 120.077 600.606 120.631C600.606 121.105 600.477 121.531 600.218 121.909C599.962 122.284 599.613 122.58 599.17 122.795C598.727 123.011 598.222 123.119 597.657 123.119Z" fill="black"/>
<path d="M631.136 123V122.233L634.017 119.08C634.355 118.71 634.633 118.389 634.852 118.116C635.07 117.841 635.232 117.582 635.338 117.341C635.445 117.097 635.499 116.841 635.499 116.574C635.499 116.267 635.426 116.001 635.278 115.777C635.133 115.553 634.934 115.379 634.681 115.257C634.428 115.135 634.144 115.074 633.829 115.074C633.494 115.074 633.201 115.143 632.951 115.283C632.704 115.419 632.512 115.611 632.376 115.858C632.242 116.105 632.176 116.395 632.176 116.727H631.17C631.17 116.216 631.288 115.767 631.524 115.381C631.759 114.994 632.08 114.693 632.487 114.477C632.896 114.261 633.355 114.153 633.863 114.153C634.374 114.153 634.828 114.261 635.222 114.477C635.617 114.693 635.927 114.984 636.151 115.351C636.376 115.717 636.488 116.125 636.488 116.574C636.488 116.895 636.43 117.209 636.313 117.516C636.2 117.82 636.001 118.159 635.717 118.534C635.436 118.906 635.045 119.361 634.545 119.898L632.585 121.994V122.062H636.642V123H631.136ZM641.248 123.119C640.606 123.119 640.059 122.945 639.607 122.595C639.156 122.243 638.811 121.733 638.572 121.065C638.333 120.395 638.214 119.585 638.214 118.636C638.214 117.693 638.333 116.888 638.572 116.22C638.813 115.55 639.16 115.038 639.612 114.686C640.066 114.331 640.612 114.153 641.248 114.153C641.884 114.153 642.428 114.331 642.88 114.686C643.335 115.038 643.681 115.55 643.92 116.22C644.161 116.888 644.282 117.693 644.282 118.636C644.282 119.585 644.163 120.395 643.924 121.065C643.686 121.733 643.34 122.243 642.889 122.595C642.437 122.945 641.89 123.119 641.248 123.119ZM641.248 122.182C641.884 122.182 642.379 121.875 642.731 121.261C643.083 120.648 643.259 119.773 643.259 118.636C643.259 117.881 643.178 117.237 643.017 116.706C642.857 116.175 642.627 115.77 642.326 115.491C642.028 115.213 641.669 115.074 641.248 115.074C640.617 115.074 640.124 115.385 639.769 116.007C639.414 116.626 639.237 117.503 639.237 118.636C639.237 119.392 639.316 120.034 639.475 120.562C639.634 121.091 639.863 121.493 640.161 121.768C640.463 122.044 640.825 122.182 641.248 122.182ZM645.901 123V122.233L648.782 119.08C649.12 118.71 649.399 118.389 649.617 118.116C649.836 117.841 649.998 117.582 650.103 117.341C650.211 117.097 650.265 116.841 650.265 116.574C650.265 116.267 650.191 116.001 650.044 115.777C649.899 115.553 649.7 115.379 649.447 115.257C649.194 115.135 648.91 115.074 648.595 115.074C648.259 115.074 647.967 115.143 647.717 115.283C647.47 115.419 647.278 115.611 647.142 115.858C647.008 116.105 646.941 116.395 646.941 116.727H645.936C645.936 116.216 646.053 115.767 646.289 115.381C646.525 114.994 646.846 114.693 647.252 114.477C647.661 114.261 648.12 114.153 648.629 114.153C649.14 114.153 649.593 114.261 649.988 114.477C650.383 114.693 650.693 114.984 650.917 115.351C651.142 115.717 651.254 116.125 651.254 116.574C651.254 116.895 651.195 117.209 651.079 117.516C650.965 117.82 650.767 118.159 650.482 118.534C650.201 118.906 649.811 119.361 649.311 119.898L647.35 121.994V122.062H651.407V123H645.901ZM652.775 121.21V120.341L656.61 114.273H657.241V115.619H656.815L653.917 120.205V120.273H659.082V121.21H652.775ZM656.883 123V120.946V120.541V114.273H657.889V123H656.883Z" fill="black"/>
</svg>
