<svg width="354" height="141" viewBox="0 0 354 141" fill="none" xmlns="http://www.w3.org/2000/svg">
<path d="M41.5097 140V139.361L43.9102 136.733C44.192 136.425 44.424 136.158 44.6063 135.93C44.7886 135.701 44.9235 135.485 45.0111 135.284C45.1011 135.08 45.146 134.867 45.146 134.645C45.146 134.389 45.0845 134.168 44.9614 133.981C44.8406 133.794 44.6749 133.649 44.4642 133.548C44.2535 133.446 44.0168 133.395 43.754 133.395C43.4746 133.395 43.2308 133.453 43.0225 133.569C42.8165 133.683 42.6567 133.842 42.5431 134.048C42.4318 134.254 42.3762 134.496 42.3762 134.773H41.5381C41.5381 134.347 41.6363 133.973 41.8328 133.651C42.0293 133.329 42.2968 133.078 42.6354 132.898C42.9763 132.718 43.3586 132.628 43.7824 132.628C44.2085 132.628 44.5861 132.718 44.9152 132.898C45.2443 133.078 45.5023 133.32 45.6894 133.626C45.8764 133.931 45.9699 134.271 45.9699 134.645C45.9699 134.912 45.9214 135.174 45.8243 135.43C45.7296 135.683 45.5639 135.966 45.3271 136.278C45.0928 136.589 44.7673 136.967 44.3506 137.415L42.7171 139.162V139.219H46.0977V140H41.5097ZM49.9365 140.099C49.4015 140.099 48.9458 139.954 48.5693 139.663C48.1929 139.369 47.9053 138.944 47.7064 138.388C47.5075 137.829 47.4081 137.154 47.4081 136.364C47.4081 135.578 47.5075 134.906 47.7064 134.35C47.9076 133.791 48.1965 133.365 48.5729 133.072C48.9517 132.776 49.4062 132.628 49.9365 132.628C50.4668 132.628 50.9202 132.776 51.2966 133.072C51.6754 133.365 51.9642 133.791 52.1631 134.35C52.3643 134.906 52.4649 135.578 52.4649 136.364C52.4649 137.154 52.3655 137.829 52.1666 138.388C51.9678 138.944 51.6801 139.369 51.3037 139.663C50.9273 139.954 50.4716 140.099 49.9365 140.099ZM49.9365 139.318C50.4668 139.318 50.8788 139.062 51.1723 138.551C51.4659 138.04 51.6127 137.311 51.6127 136.364C51.6127 135.734 51.5452 135.198 51.4102 134.755C51.2777 134.312 51.0859 133.975 50.835 133.743C50.5864 133.511 50.2869 133.395 49.9365 133.395C49.411 133.395 49.0002 133.654 48.7043 134.173C48.4084 134.689 48.2604 135.419 48.2604 136.364C48.2604 136.993 48.3267 137.528 48.4593 137.969C48.5918 138.409 48.7824 138.744 49.031 138.974C49.2819 139.203 49.5838 139.318 49.9365 139.318ZM56.3712 132.727V140H55.4905V133.651H55.4479L53.6723 134.83V133.935L55.4905 132.727H56.3712ZM58.2923 138.509V137.784L61.4884 132.727H62.0139V133.849H61.6588L59.2441 137.67V137.727H63.548V138.509H58.2923ZM61.7156 140V138.288V137.951V132.727H62.5537V140H61.7156Z" fill="black"/>
<path d="M70.1757 140V139.361L72.5763 136.733C72.858 136.425 73.09 136.158 73.2723 135.93C73.4546 135.701 73.5895 135.485 73.6771 135.284C73.7671 135.08 73.8121 134.867 73.8121 134.645C73.8121 134.389 73.7505 134.168 73.6274 133.981C73.5067 133.794 73.3409 133.649 73.1302 133.548C72.9195 133.446 72.6828 133.395 72.42 133.395C72.1407 133.395 71.8968 133.453 71.6885 133.569C71.4825 133.683 71.3227 133.842 71.2091 134.048C71.0978 134.254 71.0422 134.496 71.0422 134.773H70.2041C70.2041 134.347 70.3023 133.973 70.4988 133.651C70.6953 133.329 70.9629 133.078 71.3014 132.898C71.6423 132.718 72.0247 132.628 72.4484 132.628C72.8746 132.628 73.2522 132.718 73.5812 132.898C73.9103 133.078 74.1684 133.32 74.3554 133.626C74.5424 133.931 74.6359 134.271 74.6359 134.645C74.6359 134.912 74.5874 135.174 74.4903 135.43C74.3956 135.683 74.2299 135.966 73.9932 136.278C73.7588 136.589 73.4333 136.967 73.0166 137.415L71.3831 139.162V139.219H74.7638V140H70.1757ZM78.6025 140.099C78.0675 140.099 77.6118 139.954 77.2354 139.663C76.8589 139.369 76.5713 138.944 76.3724 138.388C76.1736 137.829 76.0741 137.154 76.0741 136.364C76.0741 135.578 76.1736 134.906 76.3724 134.35C76.5737 133.791 76.8625 133.365 77.2389 133.072C77.6177 132.776 78.0722 132.628 78.6025 132.628C79.1328 132.628 79.5862 132.776 79.9626 133.072C80.3414 133.365 80.6302 133.791 80.8291 134.35C81.0303 134.906 81.1309 135.578 81.1309 136.364C81.1309 137.154 81.0315 137.829 80.8327 138.388C80.6338 138.944 80.3461 139.369 79.9697 139.663C79.5933 139.954 79.1376 140.099 78.6025 140.099ZM78.6025 139.318C79.1328 139.318 79.5448 139.062 79.8383 138.551C80.1319 138.04 80.2787 137.311 80.2787 136.364C80.2787 135.734 80.2112 135.198 80.0763 134.755C79.9437 134.312 79.7519 133.975 79.501 133.743C79.2524 133.511 78.9529 133.395 78.6025 133.395C78.077 133.395 77.6662 133.654 77.3703 134.173C77.0744 134.689 76.9264 135.419 76.9264 136.364C76.9264 136.993 76.9927 137.528 77.1253 137.969C77.2578 138.409 77.4484 138.744 77.697 138.974C77.9479 139.203 78.2498 139.318 78.6025 139.318ZM85.0372 132.727V140H84.1565V133.651H84.1139L82.3383 134.83V133.935L84.1565 132.727H85.0372ZM89.4015 140.099C88.9849 140.099 88.6096 140.017 88.2758 139.851C87.942 139.685 87.6745 139.458 87.4733 139.169C87.272 138.88 87.162 138.551 87.143 138.182H87.9953C88.0284 138.511 88.1776 138.783 88.4427 138.999C88.7103 139.212 89.0299 139.318 89.4015 139.318C89.6998 139.318 89.965 139.248 90.197 139.109C90.4314 138.969 90.6148 138.777 90.7474 138.533C90.8824 138.287 90.9498 138.009 90.9498 137.699C90.9498 137.382 90.88 137.099 90.7403 136.85C90.603 136.599 90.4136 136.402 90.1721 136.257C89.9307 136.113 89.6549 136.039 89.3447 136.037C89.1222 136.035 88.8937 136.069 88.6594 136.14C88.425 136.209 88.232 136.297 88.0805 136.406L87.2567 136.307L87.697 132.727H91.4754V133.509H88.4356L88.18 135.653H88.2226C88.3717 135.535 88.5587 135.437 88.7836 135.359C89.0086 135.281 89.2429 135.241 89.4868 135.241C89.9318 135.241 90.3284 135.348 90.6764 135.561C91.0268 135.772 91.3014 136.061 91.5003 136.428C91.7015 136.795 91.8021 137.214 91.8021 137.685C91.8021 138.149 91.6979 138.563 91.4896 138.928C91.2836 139.29 90.9996 139.576 90.6373 139.787C90.2751 139.995 89.8632 140.099 89.4015 140.099Z" fill="black"/>
<path d="M99.0976 140V139.361L101.498 136.733C101.78 136.425 102.012 136.158 102.194 135.93C102.376 135.701 102.511 135.485 102.599 135.284C102.689 135.08 102.734 134.867 102.734 134.645C102.734 134.389 102.672 134.168 102.549 133.981C102.429 133.794 102.263 133.649 102.052 133.548C101.841 133.446 101.605 133.395 101.342 133.395C101.063 133.395 100.819 133.453 100.61 133.569C100.404 133.683 100.245 133.842 100.131 134.048C100.02 134.254 99.964 134.496 99.964 134.773H99.126C99.126 134.347 99.2242 133.973 99.4207 133.651C99.6172 133.329 99.8847 133.078 100.223 132.898C100.564 132.718 100.947 132.628 101.37 132.628C101.796 132.628 102.174 132.718 102.503 132.898C102.832 133.078 103.09 133.32 103.277 133.626C103.464 133.931 103.558 134.271 103.558 134.645C103.558 134.912 103.509 135.174 103.412 135.43C103.318 135.683 103.152 135.966 102.915 136.278C102.681 136.589 102.355 136.967 101.938 137.415L100.305 139.162V139.219H103.686V140H99.0976ZM107.524 140.099C106.989 140.099 106.534 139.954 106.157 139.663C105.781 139.369 105.493 138.944 105.294 138.388C105.095 137.829 104.996 137.154 104.996 136.364C104.996 135.578 105.095 134.906 105.294 134.35C105.496 133.791 105.784 133.365 106.161 133.072C106.54 132.776 106.994 132.628 107.524 132.628C108.055 132.628 108.508 132.776 108.884 133.072C109.263 133.365 109.552 133.791 109.751 134.35C109.952 134.906 110.053 135.578 110.053 136.364C110.053 137.154 109.953 137.829 109.755 138.388C109.556 138.944 109.268 139.369 108.892 139.663C108.515 139.954 108.059 140.099 107.524 140.099ZM107.524 139.318C108.055 139.318 108.467 139.062 108.76 138.551C109.054 138.04 109.201 137.311 109.201 136.364C109.201 135.734 109.133 135.198 108.998 134.755C108.866 134.312 108.674 133.975 108.423 133.743C108.174 133.511 107.875 133.395 107.524 133.395C106.999 133.395 106.588 133.654 106.292 134.173C105.996 134.689 105.848 135.419 105.848 136.364C105.848 136.993 105.915 137.528 106.047 137.969C106.18 138.409 106.37 138.744 106.619 138.974C106.87 139.203 107.172 139.318 107.524 139.318ZM113.959 132.727V140H113.078V133.651H113.036L111.26 134.83V133.935L113.078 132.727H113.959ZM118.465 140.099C118.167 140.095 117.869 140.038 117.571 139.929C117.272 139.82 117 139.637 116.754 139.379C116.508 139.118 116.31 138.767 116.161 138.324C116.012 137.879 115.937 137.32 115.937 136.648C115.937 136.004 115.997 135.433 116.118 134.936C116.239 134.437 116.414 134.016 116.644 133.675C116.873 133.332 117.15 133.072 117.475 132.894C117.801 132.717 118.17 132.628 118.579 132.628C118.986 132.628 119.349 132.71 119.666 132.873C119.985 133.034 120.246 133.259 120.447 133.548C120.648 133.836 120.778 134.169 120.838 134.545H119.971C119.891 134.219 119.734 133.948 119.502 133.732C119.27 133.517 118.963 133.409 118.579 133.409C118.016 133.409 117.572 133.654 117.247 134.144C116.925 134.634 116.763 135.322 116.761 136.207H116.818C116.95 136.006 117.108 135.835 117.29 135.692C117.475 135.548 117.678 135.437 117.901 135.359C118.123 135.281 118.359 135.241 118.608 135.241C119.024 135.241 119.405 135.346 119.751 135.554C120.097 135.76 120.374 136.045 120.582 136.41C120.79 136.772 120.894 137.188 120.894 137.656C120.894 138.106 120.794 138.518 120.593 138.892C120.391 139.264 120.108 139.56 119.744 139.78C119.382 139.998 118.956 140.104 118.465 140.099ZM118.465 139.318C118.764 139.318 119.031 139.244 119.268 139.094C119.507 138.945 119.695 138.745 119.833 138.494C119.972 138.243 120.042 137.964 120.042 137.656C120.042 137.356 119.975 137.082 119.84 136.836C119.707 136.587 119.524 136.39 119.289 136.243C119.057 136.096 118.792 136.023 118.494 136.023C118.269 136.023 118.059 136.068 117.865 136.158C117.671 136.245 117.501 136.366 117.354 136.52C117.21 136.674 117.096 136.85 117.013 137.049C116.93 137.246 116.889 137.453 116.889 137.67C116.889 137.959 116.956 138.229 117.091 138.48C117.228 138.731 117.416 138.933 117.652 139.087C117.891 139.241 118.162 139.318 118.465 139.318Z" fill="black"/>
<path d="M127.861 140V139.361L130.262 136.733C130.544 136.425 130.776 136.158 130.958 135.93C131.14 135.701 131.275 135.485 131.363 135.284C131.453 135.08 131.498 134.867 131.498 134.645C131.498 134.389 131.436 134.168 131.313 133.981C131.192 133.794 131.026 133.649 130.816 133.548C130.605 133.446 130.368 133.395 130.106 133.395C129.826 133.395 129.582 133.453 129.374 133.569C129.168 133.683 129.008 133.842 128.895 134.048C128.783 134.254 128.728 134.496 128.728 134.773H127.89C127.89 134.347 127.988 133.973 128.184 133.651C128.381 133.329 128.648 133.078 128.987 132.898C129.328 132.718 129.71 132.628 130.134 132.628C130.56 132.628 130.938 132.718 131.267 132.898C131.596 133.078 131.854 133.32 132.041 133.626C132.228 133.931 132.321 134.271 132.321 134.645C132.321 134.912 132.273 135.174 132.176 135.43C132.081 135.683 131.915 135.966 131.679 136.278C131.444 136.589 131.119 136.967 130.702 137.415L129.069 139.162V139.219H132.449V140H127.861ZM136.288 140.099C135.753 140.099 135.297 139.954 134.921 139.663C134.544 139.369 134.257 138.944 134.058 138.388C133.859 137.829 133.76 137.154 133.76 136.364C133.76 135.578 133.859 134.906 134.058 134.35C134.259 133.791 134.548 133.365 134.924 133.072C135.303 132.776 135.758 132.628 136.288 132.628C136.818 132.628 137.272 132.776 137.648 133.072C138.027 133.365 138.316 133.791 138.515 134.35C138.716 134.906 138.816 135.578 138.816 136.364C138.816 137.154 138.717 137.829 138.518 138.388C138.319 138.944 138.032 139.369 137.655 139.663C137.279 139.954 136.823 140.099 136.288 140.099ZM136.288 139.318C136.818 139.318 137.23 139.062 137.524 138.551C137.817 138.04 137.964 137.311 137.964 136.364C137.964 135.734 137.897 135.198 137.762 134.755C137.629 134.312 137.437 133.975 137.187 133.743C136.938 133.511 136.638 133.395 136.288 133.395C135.763 133.395 135.352 133.654 135.056 134.173C134.76 134.689 134.612 135.419 134.612 136.364C134.612 136.993 134.678 137.528 134.811 137.969C134.943 138.409 135.134 138.744 135.383 138.974C135.633 139.203 135.935 139.318 136.288 139.318ZM142.723 132.727V140H141.842V133.651H141.799L140.024 134.83V133.935L141.842 132.727H142.723ZM145.042 140L148.294 133.565V133.509H144.544V132.727H149.204V133.551L145.965 140H145.042Z" fill="black"/>
<path d="M156.137 140V139.361L158.537 136.733C158.819 136.425 159.051 136.158 159.233 135.93C159.416 135.701 159.55 135.485 159.638 135.284C159.728 135.08 159.773 134.867 159.773 134.645C159.773 134.389 159.711 134.168 159.588 133.981C159.468 133.794 159.302 133.649 159.091 133.548C158.88 133.446 158.644 133.395 158.381 133.395C158.102 133.395 157.858 133.453 157.649 133.569C157.443 133.683 157.284 133.842 157.17 134.048C157.059 134.254 157.003 134.496 157.003 134.773H156.165C156.165 134.347 156.263 133.973 156.46 133.651C156.656 133.329 156.924 133.078 157.262 132.898C157.603 132.718 157.986 132.628 158.409 132.628C158.835 132.628 159.213 132.718 159.542 132.898C159.871 133.078 160.129 133.32 160.316 133.626C160.503 133.931 160.597 134.271 160.597 134.645C160.597 134.912 160.548 135.174 160.451 135.43C160.357 135.683 160.191 135.966 159.954 136.278C159.72 136.589 159.394 136.967 158.978 137.415L157.344 139.162V139.219H160.725V140H156.137ZM164.563 140.099C164.028 140.099 163.573 139.954 163.196 139.663C162.82 139.369 162.532 138.944 162.333 138.388C162.134 137.829 162.035 137.154 162.035 136.364C162.035 135.578 162.134 134.906 162.333 134.35C162.535 133.791 162.823 133.365 163.2 133.072C163.579 132.776 164.033 132.628 164.563 132.628C165.094 132.628 165.547 132.776 165.924 133.072C166.302 133.365 166.591 133.791 166.79 134.35C166.991 134.906 167.092 135.578 167.092 136.364C167.092 137.154 166.992 137.829 166.794 138.388C166.595 138.944 166.307 139.369 165.931 139.663C165.554 139.954 165.099 140.099 164.563 140.099ZM164.563 139.318C165.094 139.318 165.506 139.062 165.799 138.551C166.093 138.04 166.24 137.311 166.24 136.364C166.24 135.734 166.172 135.198 166.037 134.755C165.905 134.312 165.713 133.975 165.462 133.743C165.213 133.511 164.914 133.395 164.563 133.395C164.038 133.395 163.627 133.654 163.331 134.173C163.035 134.689 162.887 135.419 162.887 136.364C162.887 136.993 162.954 137.528 163.086 137.969C163.219 138.409 163.409 138.744 163.658 138.974C163.909 139.203 164.211 139.318 164.563 139.318ZM170.998 132.727V140H170.117V133.651H170.075L168.299 134.83V133.935L170.117 132.727H170.998ZM175.419 140.099C174.932 140.099 174.501 140.013 174.127 139.84C173.755 139.665 173.465 139.425 173.257 139.119C173.048 138.812 172.945 138.461 172.948 138.068C172.945 137.76 173.006 137.476 173.129 137.216C173.252 136.953 173.42 136.734 173.633 136.559C173.849 136.381 174.089 136.269 174.354 136.222V136.179C174.006 136.089 173.729 135.894 173.523 135.593C173.317 135.29 173.215 134.946 173.218 134.56C173.215 134.19 173.309 133.86 173.498 133.569C173.688 133.278 173.948 133.048 174.279 132.88C174.613 132.712 174.993 132.628 175.419 132.628C175.841 132.628 176.217 132.712 176.549 132.88C176.88 133.048 177.14 133.278 177.33 133.569C177.522 133.86 177.619 134.19 177.621 134.56C177.619 134.946 177.513 135.29 177.305 135.593C177.099 135.894 176.826 136.089 176.485 136.179V136.222C176.747 136.269 176.984 136.381 177.195 136.559C177.406 136.734 177.574 136.953 177.699 137.216C177.825 137.476 177.889 137.76 177.891 138.068C177.889 138.461 177.782 138.812 177.571 139.119C177.363 139.425 177.073 139.665 176.701 139.84C176.332 140.013 175.905 140.099 175.419 140.099ZM175.419 139.318C175.748 139.318 176.032 139.265 176.272 139.158C176.511 139.052 176.695 138.902 176.826 138.707C176.956 138.513 177.022 138.286 177.024 138.026C177.022 137.751 176.951 137.508 176.811 137.298C176.672 137.087 176.481 136.921 176.24 136.8C176.001 136.68 175.727 136.619 175.419 136.619C175.109 136.619 174.832 136.68 174.588 136.8C174.347 136.921 174.156 137.087 174.017 137.298C173.879 137.508 173.812 137.751 173.814 138.026C173.812 138.286 173.875 138.513 174.002 138.707C174.133 138.902 174.318 139.052 174.56 139.158C174.801 139.265 175.088 139.318 175.419 139.318ZM175.419 135.866C175.68 135.866 175.911 135.814 176.112 135.71C176.315 135.606 176.475 135.46 176.591 135.273C176.707 135.086 176.766 134.867 176.769 134.616C176.766 134.37 176.708 134.156 176.595 133.974C176.481 133.789 176.324 133.647 176.122 133.548C175.921 133.446 175.687 133.395 175.419 133.395C175.147 133.395 174.909 133.446 174.706 133.548C174.502 133.647 174.344 133.789 174.233 133.974C174.122 134.156 174.068 134.37 174.07 134.616C174.068 134.867 174.123 135.086 174.237 135.273C174.353 135.46 174.513 135.606 174.716 135.71C174.92 135.814 175.154 135.866 175.419 135.866Z" fill="black"/>
<path d="M185.098 140V139.361L187.498 136.733C187.78 136.425 188.012 136.158 188.194 135.93C188.376 135.701 188.511 135.485 188.599 135.284C188.689 135.08 188.734 134.867 188.734 134.645C188.734 134.389 188.672 134.168 188.549 133.981C188.429 133.794 188.263 133.649 188.052 133.548C187.841 133.446 187.605 133.395 187.342 133.395C187.063 133.395 186.819 133.453 186.61 133.569C186.404 133.683 186.245 133.842 186.131 134.048C186.02 134.254 185.964 134.496 185.964 134.773H185.126C185.126 134.347 185.224 133.973 185.421 133.651C185.617 133.329 185.885 133.078 186.223 132.898C186.564 132.718 186.947 132.628 187.37 132.628C187.796 132.628 188.174 132.718 188.503 132.898C188.832 133.078 189.09 133.32 189.277 133.626C189.464 133.931 189.558 134.271 189.558 134.645C189.558 134.912 189.509 135.174 189.412 135.43C189.318 135.683 189.152 135.966 188.915 136.278C188.681 136.589 188.355 136.967 187.938 137.415L186.305 139.162V139.219H189.686V140H185.098ZM193.524 140.099C192.989 140.099 192.534 139.954 192.157 139.663C191.781 139.369 191.493 138.944 191.294 138.388C191.095 137.829 190.996 137.154 190.996 136.364C190.996 135.578 191.095 134.906 191.294 134.35C191.496 133.791 191.784 133.365 192.161 133.072C192.54 132.776 192.994 132.628 193.524 132.628C194.055 132.628 194.508 132.776 194.884 133.072C195.263 133.365 195.552 133.791 195.751 134.35C195.952 134.906 196.053 135.578 196.053 136.364C196.053 137.154 195.953 137.829 195.755 138.388C195.556 138.944 195.268 139.369 194.892 139.663C194.515 139.954 194.059 140.099 193.524 140.099ZM193.524 139.318C194.055 139.318 194.467 139.062 194.76 138.551C195.054 138.04 195.201 137.311 195.201 136.364C195.201 135.734 195.133 135.198 194.998 134.755C194.866 134.312 194.674 133.975 194.423 133.743C194.174 133.511 193.875 133.395 193.524 133.395C192.999 133.395 192.588 133.654 192.292 134.173C191.996 134.689 191.848 135.419 191.848 136.364C191.848 136.993 191.915 137.528 192.047 137.969C192.18 138.409 192.37 138.744 192.619 138.974C192.87 139.203 193.172 139.318 193.524 139.318ZM199.959 132.727V140H199.078V133.651H199.036L197.26 134.83V133.935L199.078 132.727H199.959ZM204.366 132.628C204.664 132.63 204.963 132.687 205.261 132.798C205.559 132.91 205.831 133.094 206.078 133.352C206.324 133.608 206.522 133.957 206.671 134.4C206.82 134.843 206.894 135.398 206.894 136.065C206.894 136.712 206.833 137.286 206.71 137.788C206.589 138.287 206.414 138.709 206.184 139.052C205.957 139.395 205.68 139.656 205.353 139.833C205.029 140.011 204.662 140.099 204.252 140.099C203.845 140.099 203.482 140.019 203.162 139.858C202.845 139.695 202.585 139.469 202.381 139.18C202.18 138.888 202.051 138.551 201.994 138.168H202.86C202.938 138.501 203.094 138.777 203.326 138.995C203.56 139.21 203.869 139.318 204.252 139.318C204.813 139.318 205.256 139.073 205.581 138.583C205.907 138.093 206.071 137.401 206.071 136.506H206.014C205.881 136.705 205.724 136.876 205.541 137.021C205.359 137.165 205.157 137.276 204.934 137.354C204.712 137.433 204.475 137.472 204.224 137.472C203.807 137.472 203.425 137.369 203.077 137.163C202.731 136.954 202.454 136.669 202.246 136.307C202.04 135.942 201.937 135.526 201.937 135.057C201.937 134.612 202.036 134.205 202.235 133.835C202.437 133.464 202.718 133.168 203.081 132.947C203.445 132.727 203.874 132.621 204.366 132.628ZM204.366 133.409C204.068 133.409 203.799 133.484 203.56 133.633C203.323 133.78 203.135 133.978 202.995 134.229C202.858 134.478 202.789 134.754 202.789 135.057C202.789 135.36 202.856 135.636 202.988 135.884C203.123 136.13 203.307 136.327 203.539 136.474C203.773 136.618 204.039 136.69 204.338 136.69C204.563 136.69 204.772 136.647 204.966 136.559C205.16 136.469 205.33 136.347 205.474 136.193C205.621 136.037 205.736 135.861 205.818 135.664C205.901 135.465 205.943 135.258 205.943 135.043C205.943 134.759 205.874 134.492 205.737 134.244C205.602 133.995 205.415 133.794 205.176 133.64C204.939 133.486 204.669 133.409 204.366 133.409Z" fill="black"/>
<path d="M213.39 140V139.361L215.79 136.733C216.072 136.425 216.304 136.158 216.486 135.93C216.668 135.701 216.803 135.485 216.891 135.284C216.981 135.08 217.026 134.867 217.026 134.645C217.026 134.389 216.964 134.168 216.841 133.981C216.721 133.794 216.555 133.649 216.344 133.548C216.133 133.446 215.897 133.395 215.634 133.395C215.355 133.395 215.111 133.453 214.902 133.569C214.696 133.683 214.537 133.842 214.423 134.048C214.312 134.254 214.256 134.496 214.256 134.773H213.418C213.418 134.347 213.516 133.973 213.713 133.651C213.909 133.329 214.177 133.078 214.515 132.898C214.856 132.718 215.239 132.628 215.662 132.628C216.088 132.628 216.466 132.718 216.795 132.898C217.124 133.078 217.382 133.32 217.569 133.626C217.756 133.931 217.85 134.271 217.85 134.645C217.85 134.912 217.801 135.174 217.704 135.43C217.609 135.683 217.444 135.966 217.207 136.278C216.973 136.589 216.647 136.967 216.23 137.415L214.597 139.162V139.219H217.978V140H213.39ZM221.816 140.099C221.281 140.099 220.826 139.954 220.449 139.663C220.073 139.369 219.785 138.944 219.586 138.388C219.387 137.829 219.288 137.154 219.288 136.364C219.288 135.578 219.387 134.906 219.586 134.35C219.788 133.791 220.076 133.365 220.453 133.072C220.832 132.776 221.286 132.628 221.816 132.628C222.347 132.628 222.8 132.776 223.176 133.072C223.555 133.365 223.844 133.791 224.043 134.35C224.244 134.906 224.345 135.578 224.345 136.364C224.345 137.154 224.245 137.829 224.047 138.388C223.848 138.944 223.56 139.369 223.184 139.663C222.807 139.954 222.351 140.099 221.816 140.099ZM221.816 139.318C222.347 139.318 222.759 139.062 223.052 138.551C223.346 138.04 223.493 137.311 223.493 136.364C223.493 135.734 223.425 135.198 223.29 134.755C223.158 134.312 222.966 133.975 222.715 133.743C222.466 133.511 222.167 133.395 221.816 133.395C221.291 133.395 220.88 133.654 220.584 134.173C220.288 134.689 220.14 135.419 220.14 136.364C220.14 136.993 220.207 137.528 220.339 137.969C220.472 138.409 220.662 138.744 220.911 138.974C221.162 139.203 221.464 139.318 221.816 139.318ZM225.694 140V139.361L228.095 136.733C228.377 136.425 228.609 136.158 228.791 135.93C228.973 135.701 229.108 135.485 229.196 135.284C229.286 135.08 229.331 134.867 229.331 134.645C229.331 134.389 229.269 134.168 229.146 133.981C229.025 133.794 228.859 133.649 228.649 133.548C228.438 133.446 228.201 133.395 227.939 133.395C227.659 133.395 227.415 133.453 227.207 133.569C227.001 133.683 226.841 133.842 226.728 134.048C226.616 134.254 226.561 134.496 226.561 134.773H225.723C225.723 134.347 225.821 133.973 226.017 133.651C226.214 133.329 226.481 133.078 226.82 132.898C227.161 132.718 227.543 132.628 227.967 132.628C228.393 132.628 228.771 132.718 229.1 132.898C229.429 133.078 229.687 133.32 229.874 133.626C230.061 133.931 230.154 134.271 230.154 134.645C230.154 134.912 230.106 135.174 230.009 135.43C229.914 135.683 229.748 135.966 229.512 136.278C229.277 136.589 228.952 136.967 228.535 137.415L226.902 139.162V139.219H230.282V140H225.694ZM234.121 140.099C233.586 140.099 233.13 139.954 232.754 139.663C232.377 139.369 232.09 138.944 231.891 138.388C231.692 137.829 231.593 137.154 231.593 136.364C231.593 135.578 231.692 134.906 231.891 134.35C232.092 133.791 232.381 133.365 232.757 133.072C233.136 132.776 233.591 132.628 234.121 132.628C234.651 132.628 235.105 132.776 235.481 133.072C235.86 133.365 236.149 133.791 236.348 134.35C236.549 134.906 236.65 135.578 236.65 136.364C236.65 137.154 236.55 137.829 236.351 138.388C236.152 138.944 235.865 139.369 235.488 139.663C235.112 139.954 234.656 140.099 234.121 140.099ZM234.121 139.318C234.651 139.318 235.063 139.062 235.357 138.551C235.65 138.04 235.797 137.311 235.797 136.364C235.797 135.734 235.73 135.198 235.595 134.755C235.462 134.312 235.27 133.975 235.02 133.743C234.771 133.511 234.471 133.395 234.121 133.395C233.596 133.395 233.185 133.654 232.889 134.173C232.593 134.689 232.445 135.419 232.445 136.364C232.445 136.993 232.511 137.528 232.644 137.969C232.776 138.409 232.967 138.744 233.216 138.974C233.467 139.203 233.768 139.318 234.121 139.318Z" fill="black"/>
<path d="M243.19 140V139.361L245.591 136.733C245.873 136.425 246.105 136.158 246.287 135.93C246.469 135.701 246.604 135.485 246.692 135.284C246.782 135.08 246.827 134.867 246.827 134.645C246.827 134.389 246.765 134.168 246.642 133.981C246.521 133.794 246.356 133.649 246.145 133.548C245.934 133.446 245.697 133.395 245.435 133.395C245.155 133.395 244.911 133.453 244.703 133.569C244.497 133.683 244.337 133.842 244.224 134.048C244.112 134.254 244.057 134.496 244.057 134.773H243.219C243.219 134.347 243.317 133.973 243.513 133.651C243.71 133.329 243.978 133.078 244.316 132.898C244.657 132.718 245.039 132.628 245.463 132.628C245.889 132.628 246.267 132.718 246.596 132.898C246.925 133.078 247.183 133.32 247.37 133.626C247.557 133.931 247.651 134.271 247.651 134.645C247.651 134.912 247.602 135.174 247.505 135.43C247.41 135.683 247.245 135.966 247.008 136.278C246.773 136.589 246.448 136.967 246.031 137.415L244.398 139.162V139.219H247.778V140H243.19ZM251.617 140.099C251.082 140.099 250.626 139.954 250.25 139.663C249.874 139.369 249.586 138.944 249.387 138.388C249.188 137.829 249.089 137.154 249.089 136.364C249.089 135.578 249.188 134.906 249.387 134.35C249.588 133.791 249.877 133.365 250.254 133.072C250.632 132.776 251.087 132.628 251.617 132.628C252.147 132.628 252.601 132.776 252.977 133.072C253.356 133.365 253.645 133.791 253.844 134.35C254.045 134.906 254.146 135.578 254.146 136.364C254.146 137.154 254.046 137.829 253.847 138.388C253.648 138.944 253.361 139.369 252.984 139.663C252.608 139.954 252.152 140.099 251.617 140.099ZM251.617 139.318C252.147 139.318 252.559 139.062 252.853 138.551C253.147 138.04 253.293 137.311 253.293 136.364C253.293 135.734 253.226 135.198 253.091 134.755C252.958 134.312 252.767 133.975 252.516 133.743C252.267 133.511 251.968 133.395 251.617 133.395C251.092 133.395 250.681 133.654 250.385 134.173C250.089 134.689 249.941 135.419 249.941 136.364C249.941 136.993 250.007 137.528 250.14 137.969C250.272 138.409 250.463 138.744 250.712 138.974C250.963 139.203 251.264 139.318 251.617 139.318ZM255.495 140V139.361L257.896 136.733C258.177 136.425 258.409 136.158 258.592 135.93C258.774 135.701 258.909 135.485 258.996 135.284C259.086 135.08 259.131 134.867 259.131 134.645C259.131 134.389 259.07 134.168 258.947 133.981C258.826 133.794 258.66 133.649 258.45 133.548C258.239 133.446 258.002 133.395 257.739 133.395C257.46 133.395 257.216 133.453 257.008 133.569C256.802 133.683 256.642 133.842 256.528 134.048C256.417 134.254 256.362 134.496 256.362 134.773H255.523C255.523 134.347 255.622 133.973 255.818 133.651C256.015 133.329 256.282 133.078 256.621 132.898C256.962 132.718 257.344 132.628 257.768 132.628C258.194 132.628 258.571 132.718 258.901 132.898C259.23 133.078 259.488 133.32 259.675 133.626C259.862 133.931 259.955 134.271 259.955 134.645C259.955 134.912 259.907 135.174 259.81 135.43C259.715 135.683 259.549 135.966 259.312 136.278C259.078 136.589 258.753 136.967 258.336 137.415L256.702 139.162V139.219H260.083V140H255.495ZM264.107 132.727V140H263.226V133.651H263.183L261.408 134.83V133.935L263.226 132.727H264.107Z" fill="black"/>
<path d="M271.487 140V139.361L273.888 136.733C274.17 136.425 274.402 136.158 274.584 135.93C274.766 135.701 274.901 135.485 274.989 135.284C275.079 135.08 275.124 134.867 275.124 134.645C275.124 134.389 275.062 134.168 274.939 133.981C274.818 133.794 274.652 133.649 274.442 133.548C274.231 133.446 273.994 133.395 273.732 133.395C273.452 133.395 273.208 133.453 273 133.569C272.794 133.683 272.634 133.842 272.521 134.048C272.409 134.254 272.354 134.496 272.354 134.773H271.516C271.516 134.347 271.614 133.973 271.81 133.651C272.007 133.329 272.274 133.078 272.613 132.898C272.954 132.718 273.336 132.628 273.76 132.628C274.186 132.628 274.564 132.718 274.893 132.898C275.222 133.078 275.48 133.32 275.667 133.626C275.854 133.931 275.947 134.271 275.947 134.645C275.947 134.912 275.899 135.174 275.802 135.43C275.707 135.683 275.541 135.966 275.305 136.278C275.07 136.589 274.745 136.967 274.328 137.415L272.695 139.162V139.219H276.075V140H271.487ZM279.914 140.099C279.379 140.099 278.923 139.954 278.547 139.663C278.17 139.369 277.883 138.944 277.684 138.388C277.485 137.829 277.386 137.154 277.386 136.364C277.386 135.578 277.485 134.906 277.684 134.35C277.885 133.791 278.174 133.365 278.55 133.072C278.929 132.776 279.384 132.628 279.914 132.628C280.444 132.628 280.898 132.776 281.274 133.072C281.653 133.365 281.942 133.791 282.141 134.35C282.342 134.906 282.442 135.578 282.442 136.364C282.442 137.154 282.343 137.829 282.144 138.388C281.945 138.944 281.658 139.369 281.281 139.663C280.905 139.954 280.449 140.099 279.914 140.099ZM279.914 139.318C280.444 139.318 280.856 139.062 281.15 138.551C281.443 138.04 281.59 137.311 281.59 136.364C281.59 135.734 281.523 135.198 281.388 134.755C281.255 134.312 281.063 133.975 280.812 133.743C280.564 133.511 280.264 133.395 279.914 133.395C279.388 133.395 278.978 133.654 278.682 134.173C278.386 134.689 278.238 135.419 278.238 136.364C278.238 136.993 278.304 137.528 278.437 137.969C278.569 138.409 278.76 138.744 279.009 138.974C279.259 139.203 279.561 139.318 279.914 139.318ZM283.792 140V139.361L286.192 136.733C286.474 136.425 286.706 136.158 286.888 135.93C287.071 135.701 287.206 135.485 287.293 135.284C287.383 135.08 287.428 134.867 287.428 134.645C287.428 134.389 287.367 134.168 287.244 133.981C287.123 133.794 286.957 133.649 286.746 133.548C286.536 133.446 286.299 133.395 286.036 133.395C285.757 133.395 285.513 133.453 285.305 133.569C285.099 133.683 284.939 133.842 284.825 134.048C284.714 134.254 284.658 134.496 284.658 134.773H283.82C283.82 134.347 283.919 133.973 284.115 133.651C284.312 133.329 284.579 133.078 284.918 132.898C285.259 132.718 285.641 132.628 286.065 132.628C286.491 132.628 286.868 132.718 287.197 132.898C287.527 133.078 287.785 133.32 287.972 133.626C288.159 133.931 288.252 134.271 288.252 134.645C288.252 134.912 288.204 135.174 288.107 135.43C288.012 135.683 287.846 135.966 287.609 136.278C287.375 136.589 287.049 136.967 286.633 137.415L284.999 139.162V139.219H288.38V140H283.792ZM289.847 140V139.361L292.247 136.733C292.529 136.425 292.761 136.158 292.943 135.93C293.125 135.701 293.26 135.485 293.348 135.284C293.438 135.08 293.483 134.867 293.483 134.645C293.483 134.389 293.421 134.168 293.298 133.981C293.178 133.794 293.012 133.649 292.801 133.548C292.59 133.446 292.354 133.395 292.091 133.395C291.812 133.395 291.568 133.453 291.359 133.569C291.153 133.683 290.994 133.842 290.88 134.048C290.769 134.254 290.713 134.496 290.713 134.773H289.875C289.875 134.347 289.973 133.973 290.17 133.651C290.366 133.329 290.634 133.078 290.972 132.898C291.313 132.718 291.696 132.628 292.119 132.628C292.545 132.628 292.923 132.718 293.252 132.898C293.581 133.078 293.839 133.32 294.026 133.626C294.213 133.931 294.307 134.271 294.307 134.645C294.307 134.912 294.258 135.174 294.161 135.43C294.067 135.683 293.901 135.966 293.664 136.278C293.43 136.589 293.104 136.967 292.688 137.415L291.054 139.162V139.219H294.435V140H289.847Z" fill="black"/>
<path d="M300.331 140V139.361L302.732 136.733C303.013 136.425 303.245 136.158 303.428 135.93C303.61 135.701 303.745 135.485 303.832 135.284C303.922 135.08 303.967 134.867 303.967 134.645C303.967 134.389 303.906 134.168 303.783 133.981C303.662 133.794 303.496 133.649 303.286 133.548C303.075 133.446 302.838 133.395 302.575 133.395C302.296 133.395 302.052 133.453 301.844 133.569C301.638 133.683 301.478 133.842 301.364 134.048C301.253 134.254 301.197 134.496 301.197 134.773H300.359C300.359 134.347 300.458 133.973 300.654 133.651C300.851 133.329 301.118 133.078 301.457 132.898C301.798 132.718 302.18 132.628 302.604 132.628C303.03 132.628 303.407 132.718 303.737 132.898C304.066 133.078 304.324 133.32 304.511 133.626C304.698 133.931 304.791 134.271 304.791 134.645C304.791 134.912 304.743 135.174 304.646 135.43C304.551 135.683 304.385 135.966 304.148 136.278C303.914 136.589 303.589 136.967 303.172 137.415L301.538 139.162V139.219H304.919V140H300.331ZM308.758 140.099C308.223 140.099 307.767 139.954 307.391 139.663C307.014 139.369 306.727 138.944 306.528 138.388C306.329 137.829 306.229 137.154 306.229 136.364C306.229 135.578 306.329 134.906 306.528 134.35C306.729 133.791 307.018 133.365 307.394 133.072C307.773 132.776 308.228 132.628 308.758 132.628C309.288 132.628 309.741 132.776 310.118 133.072C310.497 133.365 310.786 133.791 310.984 134.35C311.186 134.906 311.286 135.578 311.286 136.364C311.286 137.154 311.187 137.829 310.988 138.388C310.789 138.944 310.501 139.369 310.125 139.663C309.749 139.954 309.293 140.099 308.758 140.099ZM308.758 139.318C309.288 139.318 309.7 139.062 309.994 138.551C310.287 138.04 310.434 137.311 310.434 136.364C310.434 135.734 310.366 135.198 310.232 134.755C310.099 134.312 309.907 133.975 309.656 133.743C309.408 133.511 309.108 133.395 308.758 133.395C308.232 133.395 307.821 133.654 307.526 134.173C307.23 134.689 307.082 135.419 307.082 136.364C307.082 136.993 307.148 137.528 307.281 137.969C307.413 138.409 307.604 138.744 307.852 138.974C308.103 139.203 308.405 139.318 308.758 139.318ZM312.636 140V139.361L315.036 136.733C315.318 136.425 315.55 136.158 315.732 135.93C315.915 135.701 316.049 135.485 316.137 135.284C316.227 135.08 316.272 134.867 316.272 134.645C316.272 134.389 316.21 134.168 316.087 133.981C315.967 133.794 315.801 133.649 315.59 133.548C315.379 133.446 315.143 133.395 314.88 133.395C314.601 133.395 314.357 133.453 314.148 133.569C313.942 133.683 313.783 133.842 313.669 134.048C313.558 134.254 313.502 134.496 313.502 134.773H312.664C312.664 134.347 312.762 133.973 312.959 133.651C313.155 133.329 313.423 133.078 313.761 132.898C314.102 132.718 314.485 132.628 314.908 132.628C315.335 132.628 315.712 132.718 316.041 132.898C316.37 133.078 316.628 133.32 316.815 133.626C317.002 133.931 317.096 134.271 317.096 134.645C317.096 134.912 317.047 135.174 316.95 135.43C316.856 135.683 316.69 135.966 316.453 136.278C316.219 136.589 315.893 136.967 315.477 137.415L313.843 139.162V139.219H317.224V140H312.636ZM321.148 140.099C320.679 140.099 320.261 140.019 319.894 139.858C319.53 139.697 319.24 139.473 319.024 139.187C318.811 138.898 318.695 138.563 318.676 138.182H319.571C319.59 138.416 319.67 138.619 319.812 138.789C319.955 138.957 320.14 139.087 320.37 139.18C320.6 139.272 320.854 139.318 321.134 139.318C321.446 139.318 321.723 139.264 321.964 139.155C322.206 139.046 322.395 138.894 322.533 138.7C322.67 138.506 322.739 138.281 322.739 138.026C322.739 137.758 322.672 137.522 322.54 137.319C322.407 137.113 322.213 136.952 321.957 136.836C321.702 136.72 321.389 136.662 321.02 136.662H320.438V135.881H321.02C321.309 135.881 321.562 135.829 321.78 135.724C322 135.62 322.172 135.473 322.295 135.284C322.42 135.095 322.483 134.872 322.483 134.616C322.483 134.37 322.429 134.156 322.32 133.974C322.211 133.791 322.057 133.649 321.858 133.548C321.661 133.446 321.429 133.395 321.162 133.395C320.911 133.395 320.674 133.441 320.452 133.533C320.232 133.623 320.052 133.755 319.912 133.928C319.772 134.098 319.696 134.304 319.685 134.545H318.832C318.847 134.164 318.961 133.83 319.177 133.544C319.392 133.255 319.674 133.03 320.022 132.869C320.372 132.708 320.757 132.628 321.176 132.628C321.626 132.628 322.012 132.719 322.334 132.901C322.656 133.081 322.903 133.319 323.076 133.615C323.249 133.911 323.335 134.231 323.335 134.574C323.335 134.983 323.228 135.333 323.012 135.621C322.799 135.91 322.509 136.11 322.142 136.222V136.278C322.601 136.354 322.96 136.549 323.218 136.864C323.476 137.177 323.605 137.564 323.605 138.026C323.605 138.421 323.497 138.776 323.282 139.091C323.069 139.403 322.778 139.65 322.408 139.83C322.039 140.009 321.619 140.099 321.148 140.099Z" fill="black"/>
<path d="M329.385 140V139.361L331.785 136.733C332.067 136.425 332.299 136.158 332.481 135.93C332.664 135.701 332.799 135.485 332.886 135.284C332.976 135.08 333.021 134.867 333.021 134.645C333.021 134.389 332.959 134.168 332.836 133.981C332.716 133.794 332.55 133.649 332.339 133.548C332.129 133.446 331.892 133.395 331.629 133.395C331.35 133.395 331.106 133.453 330.897 133.569C330.691 133.683 330.532 133.842 330.418 134.048C330.307 134.254 330.251 134.496 330.251 134.773H329.413C329.413 134.347 329.511 133.973 329.708 133.651C329.904 133.329 330.172 133.078 330.51 132.898C330.851 132.718 331.234 132.628 331.657 132.628C332.084 132.628 332.461 132.718 332.79 132.898C333.119 133.078 333.377 133.32 333.564 133.626C333.751 133.931 333.845 134.271 333.845 134.645C333.845 134.912 333.796 135.174 333.699 135.43C333.605 135.683 333.439 135.966 333.202 136.278C332.968 136.589 332.642 136.967 332.226 137.415L330.592 139.162V139.219H333.973V140H329.385ZM337.812 140.099C337.276 140.099 336.821 139.954 336.444 139.663C336.068 139.369 335.78 138.944 335.581 138.388C335.383 137.829 335.283 137.154 335.283 136.364C335.283 135.578 335.383 134.906 335.581 134.35C335.783 133.791 336.071 133.365 336.448 133.072C336.827 132.776 337.281 132.628 337.812 132.628C338.342 132.628 338.795 132.776 339.172 133.072C339.55 133.365 339.839 133.791 340.038 134.35C340.239 134.906 340.34 135.578 340.34 136.364C340.34 137.154 340.241 137.829 340.042 138.388C339.843 138.944 339.555 139.369 339.179 139.663C338.802 139.954 338.347 140.099 337.812 140.099ZM337.812 139.318C338.342 139.318 338.754 139.062 339.047 138.551C339.341 138.04 339.488 137.311 339.488 136.364C339.488 135.734 339.42 135.198 339.285 134.755C339.153 134.312 338.961 133.975 338.71 133.743C338.461 133.511 338.162 133.395 337.812 133.395C337.286 133.395 336.875 133.654 336.579 134.173C336.283 134.689 336.135 135.419 336.135 136.364C336.135 136.993 336.202 137.528 336.334 137.969C336.467 138.409 336.657 138.744 336.906 138.974C337.157 139.203 337.459 139.318 337.812 139.318ZM341.689 140V139.361L344.09 136.733C344.372 136.425 344.604 136.158 344.786 135.93C344.968 135.701 345.103 135.485 345.191 135.284C345.281 135.08 345.326 134.867 345.326 134.645C345.326 134.389 345.264 134.168 345.141 133.981C345.02 133.794 344.855 133.649 344.644 133.548C344.433 133.446 344.196 133.395 343.934 133.395C343.654 133.395 343.41 133.453 343.202 133.569C342.996 133.683 342.836 133.842 342.723 134.048C342.611 134.254 342.556 134.496 342.556 134.773H341.718C341.718 134.347 341.816 133.973 342.013 133.651C342.209 133.329 342.477 133.078 342.815 132.898C343.156 132.718 343.538 132.628 343.962 132.628C344.388 132.628 344.766 132.718 345.095 132.898C345.424 133.078 345.682 133.32 345.869 133.626C346.056 133.931 346.15 134.271 346.15 134.645C346.15 134.912 346.101 135.174 346.004 135.43C345.909 135.683 345.744 135.966 345.507 136.278C345.272 136.589 344.947 136.967 344.53 137.415L342.897 139.162V139.219H346.277V140H341.689ZM347.417 138.509V137.784L350.613 132.727H351.139V133.849H350.784L348.369 137.67V137.727H352.673V138.509H347.417ZM350.841 140V138.288V137.951V132.727H351.679V140H350.841Z" fill="black"/>
<path d="M15.3576 9.09943C14.9409 9.09943 14.5657 9.01657 14.2319 8.85085C13.8981 8.68513 13.6306 8.45786 13.4293 8.16903C13.2281 7.88021 13.118 7.55114 13.0991 7.18182H13.9513C13.9845 7.51089 14.1336 7.78314 14.3988 7.99858C14.6663 8.21165 14.9859 8.31818 15.3576 8.31818C15.6559 8.31818 15.921 8.24834 16.1531 8.10866C16.3874 7.96899 16.5709 7.77723 16.7035 7.53338C16.8384 7.28717 16.9059 7.009 16.9059 6.69886C16.9059 6.38163 16.8361 6.09872 16.6964 5.85014C16.5591 5.5992 16.3697 5.40152 16.1282 5.2571C15.8867 5.11269 15.6109 5.0393 15.3008 5.03693C15.0782 5.03456 14.8498 5.06889 14.6154 5.13991C14.381 5.20857 14.1881 5.29735 14.0366 5.40625L13.2127 5.30682L13.6531 1.72727H17.4315V2.50852H14.3917L14.136 4.65341H14.1786C14.3278 4.53504 14.5148 4.43679 14.7397 4.35866C14.9646 4.28054 15.199 4.24148 15.4428 4.24148C15.8879 4.24148 16.2844 4.34801 16.6325 4.56108C16.9828 4.77178 17.2575 5.06061 17.4563 5.42756C17.6576 5.79451 17.7582 6.21354 17.7582 6.68466C17.7582 7.14867 17.654 7.56297 17.4457 7.92756C17.2397 8.28977 16.9556 8.57623 16.5934 8.78693C16.2312 8.99527 15.8192 9.09943 15.3576 9.09943ZM20.1596 8.00568L20.1028 8.3892C20.0626 8.65909 20.001 8.94792 19.9181 9.25568C19.8377 9.56345 19.7536 9.85346 19.666 10.1257C19.5784 10.398 19.5062 10.6146 19.4494 10.7756H18.8102C18.841 10.6241 18.8812 10.424 18.9309 10.1754C18.9806 9.92685 19.0304 9.64867 19.0801 9.34091C19.1322 9.03551 19.1748 8.72301 19.2079 8.40341L19.2505 8.00568H20.1596ZM23.8164 9.09943C23.2814 9.09943 22.8256 8.95384 22.4492 8.66264C22.0728 8.36908 21.7852 7.94413 21.5863 7.38778C21.3874 6.82907 21.288 6.15436 21.288 5.36364C21.288 4.57765 21.3874 3.90649 21.5863 3.35014C21.7875 2.79143 22.0763 2.36529 22.4528 2.07173C22.8316 1.7758 23.2861 1.62784 23.8164 1.62784C24.3467 1.62784 24.8001 1.7758 25.1765 2.07173C25.5553 2.36529 25.8441 2.79143 26.043 3.35014C26.2442 3.90649 26.3448 4.57765 26.3448 5.36364C26.3448 6.15436 26.2454 6.82907 26.0465 7.38778C25.8477 7.94413 25.56 8.36908 25.1836 8.66264C24.8072 8.95384 24.3514 9.09943 23.8164 9.09943ZM23.8164 8.31818C24.3467 8.31818 24.7586 8.0625 25.0522 7.55114C25.3458 7.03977 25.4925 6.31061 25.4925 5.36364C25.4925 4.7339 25.4251 4.19768 25.2901 3.75497C25.1576 3.31226 24.9658 2.97491 24.7148 2.7429C24.4663 2.51089 24.1668 2.39489 23.8164 2.39489C23.2908 2.39489 22.8801 2.65412 22.5842 3.17259C22.2882 3.68868 22.1403 4.41903 22.1403 5.36364C22.1403 5.99337 22.2066 6.52841 22.3391 6.96875C22.4717 7.40909 22.6623 7.74408 22.9109 7.97372C23.1618 8.20336 23.4637 8.31818 23.8164 8.31818ZM30.0664 9.09943C29.5314 9.09943 29.0756 8.95384 28.6992 8.66264C28.3228 8.36908 28.0352 7.94413 27.8363 7.38778C27.6374 6.82907 27.538 6.15436 27.538 5.36364C27.538 4.57765 27.6374 3.90649 27.8363 3.35014C28.0375 2.79143 28.3263 2.36529 28.7028 2.07173C29.0816 1.7758 29.5361 1.62784 30.0664 1.62784C30.5967 1.62784 31.0501 1.7758 31.4265 2.07173C31.8053 2.36529 32.0941 2.79143 32.293 3.35014C32.4942 3.90649 32.5948 4.57765 32.5948 5.36364C32.5948 6.15436 32.4954 6.82907 32.2965 7.38778C32.0977 7.94413 31.81 8.36908 31.4336 8.66264C31.0572 8.95384 30.6014 9.09943 30.0664 9.09943ZM30.0664 8.31818C30.5967 8.31818 31.0086 8.0625 31.3022 7.55114C31.5958 7.03977 31.7425 6.31061 31.7425 5.36364C31.7425 4.7339 31.6751 4.19768 31.5401 3.75497C31.4076 3.31226 31.2158 2.97491 30.9648 2.7429C30.7163 2.51089 30.4168 2.39489 30.0664 2.39489C29.5408 2.39489 29.1301 2.65412 28.8342 3.17259C28.5382 3.68868 28.3903 4.41903 28.3903 5.36364C28.3903 5.99337 28.4566 6.52841 28.5891 6.96875C28.7217 7.40909 28.9123 7.74408 29.1609 7.97372C29.4118 8.20336 29.7137 8.31818 30.0664 8.31818ZM36.3164 9.09943C35.7814 9.09943 35.3256 8.95384 34.9492 8.66264C34.5728 8.36908 34.2852 7.94413 34.0863 7.38778C33.8874 6.82907 33.788 6.15436 33.788 5.36364C33.788 4.57765 33.8874 3.90649 34.0863 3.35014C34.2875 2.79143 34.5763 2.36529 34.9528 2.07173C35.3316 1.7758 35.7861 1.62784 36.3164 1.62784C36.8467 1.62784 37.3001 1.7758 37.6765 2.07173C38.0553 2.36529 38.3441 2.79143 38.543 3.35014C38.7442 3.90649 38.8448 4.57765 38.8448 5.36364C38.8448 6.15436 38.7454 6.82907 38.5465 7.38778C38.3477 7.94413 38.06 8.36908 37.6836 8.66264C37.3072 8.95384 36.8514 9.09943 36.3164 9.09943ZM36.3164 8.31818C36.8467 8.31818 37.2586 8.0625 37.5522 7.55114C37.8458 7.03977 37.9925 6.31061 37.9925 5.36364C37.9925 4.7339 37.9251 4.19768 37.7901 3.75497C37.6576 3.31226 37.4658 2.97491 37.2148 2.7429C36.9663 2.51089 36.6668 2.39489 36.3164 2.39489C35.7908 2.39489 35.3801 2.65412 35.0842 3.17259C34.7882 3.68868 34.6403 4.41903 34.6403 5.36364C34.6403 5.99337 34.7066 6.52841 34.8391 6.96875C34.9717 7.40909 35.1623 7.74408 35.4109 7.97372C35.6618 8.20336 35.9637 8.31818 36.3164 8.31818Z" fill="black"/>
<path d="M12.9144 35.7585V35.0341L16.1104 29.9773H16.636V31.0994H16.2809L13.8661 34.9205V34.9773H18.1701V35.7585H12.9144ZM16.3377 37.25V35.5384V35.201V29.9773H17.1758V37.25H16.3377ZM20.4233 36.2557L20.3665 36.6392C20.3262 36.9091 20.2647 37.1979 20.1818 37.5057C20.1013 37.8134 20.0173 38.1035 19.9297 38.3757C19.8421 38.648 19.7699 38.8646 19.7131 39.0256H19.0739C19.1046 38.8741 19.1449 38.674 19.1946 38.4254C19.2443 38.1768 19.294 37.8987 19.3438 37.5909C19.3958 37.2855 19.4384 36.973 19.4716 36.6534L19.5142 36.2557H20.4233ZM24.0801 37.3494C23.545 37.3494 23.0893 37.2038 22.7129 36.9126C22.3365 36.6191 22.0488 36.1941 21.85 35.6378C21.6511 35.0791 21.5517 34.4044 21.5517 33.6136C21.5517 32.8277 21.6511 32.1565 21.85 31.6001C22.0512 31.0414 22.34 30.6153 22.7164 30.3217C23.0952 30.0258 23.5498 29.8778 24.0801 29.8778C24.6104 29.8778 25.0637 30.0258 25.4402 30.3217C25.819 30.6153 26.1078 31.0414 26.3066 31.6001C26.5079 32.1565 26.6085 32.8277 26.6085 33.6136C26.6085 34.4044 26.5091 35.0791 26.3102 35.6378C26.1113 36.1941 25.8237 36.6191 25.4473 36.9126C25.0708 37.2038 24.6151 37.3494 24.0801 37.3494ZM24.0801 36.5682C24.6104 36.5682 25.0223 36.3125 25.3159 35.8011C25.6094 35.2898 25.7562 34.5606 25.7562 33.6136C25.7562 32.9839 25.6887 32.4477 25.5538 32.005C25.4212 31.5623 25.2295 31.2249 24.9785 30.9929C24.7299 30.7609 24.4305 30.6449 24.0801 30.6449C23.5545 30.6449 23.1438 30.9041 22.8478 31.4226C22.5519 31.9387 22.4039 32.669 22.4039 33.6136C22.4039 34.2434 22.4702 34.7784 22.6028 35.2188C22.7354 35.6591 22.926 35.9941 23.1745 36.2237C23.4255 36.4534 23.7273 36.5682 24.0801 36.5682ZM30.3301 37.3494C29.795 37.3494 29.3393 37.2038 28.9629 36.9126C28.5865 36.6191 28.2988 36.1941 28.1 35.6378C27.9011 35.0791 27.8017 34.4044 27.8017 33.6136C27.8017 32.8277 27.9011 32.1565 28.1 31.6001C28.3012 31.0414 28.59 30.6153 28.9664 30.3217C29.3452 30.0258 29.7998 29.8778 30.3301 29.8778C30.8604 29.8778 31.3137 30.0258 31.6902 30.3217C32.069 30.6153 32.3578 31.0414 32.5566 31.6001C32.7579 32.1565 32.8585 32.8277 32.8585 33.6136C32.8585 34.4044 32.7591 35.0791 32.5602 35.6378C32.3613 36.1941 32.0737 36.6191 31.6973 36.9126C31.3208 37.2038 30.8651 37.3494 30.3301 37.3494ZM30.3301 36.5682C30.8604 36.5682 31.2723 36.3125 31.5659 35.8011C31.8594 35.2898 32.0062 34.5606 32.0062 33.6136C32.0062 32.9839 31.9387 32.4477 31.8038 32.005C31.6712 31.5623 31.4795 31.2249 31.2285 30.9929C30.9799 30.7609 30.6805 30.6449 30.3301 30.6449C29.8045 30.6449 29.3938 30.9041 29.0978 31.4226C28.8019 31.9387 28.6539 32.669 28.6539 33.6136C28.6539 34.2434 28.7202 34.7784 28.8528 35.2188C28.9854 35.6591 29.176 35.9941 29.4245 36.2237C29.6755 36.4534 29.9773 36.5682 30.3301 36.5682ZM36.5801 37.3494C36.045 37.3494 35.5893 37.2038 35.2129 36.9126C34.8365 36.6191 34.5488 36.1941 34.35 35.6378C34.1511 35.0791 34.0517 34.4044 34.0517 33.6136C34.0517 32.8277 34.1511 32.1565 34.35 31.6001C34.5512 31.0414 34.84 30.6153 35.2164 30.3217C35.5952 30.0258 36.0498 29.8778 36.5801 29.8778C37.1104 29.8778 37.5637 30.0258 37.9402 30.3217C38.319 30.6153 38.6078 31.0414 38.8066 31.6001C39.0079 32.1565 39.1085 32.8277 39.1085 33.6136C39.1085 34.4044 39.0091 35.0791 38.8102 35.6378C38.6113 36.1941 38.3237 36.6191 37.9473 36.9126C37.5708 37.2038 37.1151 37.3494 36.5801 37.3494ZM36.5801 36.5682C37.1104 36.5682 37.5223 36.3125 37.8159 35.8011C38.1094 35.2898 38.2562 34.5606 38.2562 33.6136C38.2562 32.9839 38.1887 32.4477 38.0538 32.005C37.9212 31.5623 37.7295 31.2249 37.4785 30.9929C37.2299 30.7609 36.9305 30.6449 36.5801 30.6449C36.0545 30.6449 35.6438 30.9041 35.3478 31.4226C35.0519 31.9387 34.9039 32.669 34.9039 33.6136C34.9039 34.2434 34.9702 34.7784 35.1028 35.2188C35.2354 35.6591 35.426 35.9941 35.6745 36.2237C35.9255 36.4534 36.2273 36.5682 36.5801 36.5682Z" fill="black"/>
<path d="M15.5423 65.5994C15.0735 65.5994 14.6557 65.5189 14.2887 65.358C13.9241 65.197 13.6341 64.9732 13.4187 64.6868C13.2056 64.398 13.0896 64.063 13.0707 63.6818H13.9656C13.9845 63.9162 14.065 64.1186 14.207 64.2891C14.3491 64.4571 14.5349 64.5874 14.7646 64.6797C14.9942 64.772 15.2487 64.8182 15.5281 64.8182C15.8406 64.8182 16.1175 64.7637 16.359 64.6548C16.6005 64.5459 16.7899 64.3944 16.9272 64.2003C17.0645 64.0062 17.1332 63.7812 17.1332 63.5256C17.1332 63.258 17.0669 63.0225 16.9343 62.8189C16.8017 62.6129 16.6076 62.4519 16.3519 62.3359C16.0962 62.2199 15.7837 62.1619 15.4144 62.1619H14.832V61.3807H15.4144C15.7032 61.3807 15.9566 61.3286 16.1744 61.2244C16.3945 61.1203 16.5662 60.9735 16.6893 60.7841C16.8147 60.5947 16.8775 60.3722 16.8775 60.1165C16.8775 59.8703 16.823 59.656 16.7141 59.4737C16.6052 59.2914 16.4513 59.1494 16.2525 59.0476C16.056 58.9458 15.824 58.8949 15.5565 58.8949C15.3055 58.8949 15.0688 58.9411 14.8462 59.0334C14.6261 59.1233 14.4461 59.2547 14.3065 59.4276C14.1668 59.598 14.091 59.804 14.0792 60.0455H13.2269C13.2411 59.6643 13.3559 59.3305 13.5714 59.044C13.7868 58.7552 14.0685 58.5303 14.4165 58.3693C14.7669 58.2083 15.1516 58.1278 15.5707 58.1278C16.0205 58.1278 16.4064 58.219 16.7283 58.4013C17.0503 58.5812 17.2977 58.8191 17.4705 59.1151C17.6433 59.411 17.7298 59.7306 17.7298 60.0739C17.7298 60.4834 17.622 60.8326 17.4066 61.1214C17.1935 61.4103 16.9035 61.6103 16.5366 61.7216V61.7784C16.9959 61.8542 17.3545 62.0495 17.6126 62.3643C17.8706 62.6768 17.9996 63.0639 17.9996 63.5256C17.9996 63.9209 17.8919 64.276 17.6765 64.5909C17.4634 64.9034 17.1722 65.1496 16.8029 65.3295C16.4336 65.5095 16.0134 65.5994 15.5423 65.5994ZM20.4917 64.5057L20.4348 64.8892C20.3946 65.1591 20.333 65.4479 20.2502 65.7557C20.1697 66.0634 20.0856 66.3535 19.998 66.6257C19.9105 66.898 19.8382 67.1146 19.7814 67.2756H19.1422C19.173 67.1241 19.2132 66.924 19.263 66.6754C19.3127 66.4268 19.3624 66.1487 19.4121 65.8409C19.4642 65.5355 19.5068 65.223 19.54 64.9034L19.5826 64.5057H20.4917ZM24.1484 65.5994C23.6134 65.5994 23.1577 65.4538 22.7812 65.1626C22.4048 64.8691 22.1172 64.4441 21.9183 63.8878C21.7195 63.3291 21.62 62.6544 21.62 61.8636C21.62 61.0777 21.7195 60.4065 21.9183 59.8501C22.1196 59.2914 22.4084 58.8653 22.7848 58.5717C23.1636 58.2758 23.6181 58.1278 24.1484 58.1278C24.6787 58.1278 25.1321 58.2758 25.5085 58.5717C25.8873 58.8653 26.1761 59.2914 26.375 59.8501C26.5762 60.4065 26.6768 61.0777 26.6768 61.8636C26.6768 62.6544 26.5774 63.3291 26.3786 63.8878C26.1797 64.4441 25.892 64.8691 25.5156 65.1626C25.1392 65.4538 24.6835 65.5994 24.1484 65.5994ZM24.1484 64.8182C24.6787 64.8182 25.0907 64.5625 25.3842 64.0511C25.6778 63.5398 25.8246 62.8106 25.8246 61.8636C25.8246 61.2339 25.7571 60.6977 25.6222 60.255C25.4896 59.8123 25.2978 59.4749 25.0469 59.2429C24.7983 59.0109 24.4988 58.8949 24.1484 58.8949C23.6229 58.8949 23.2121 59.1541 22.9162 59.6726C22.6203 60.1887 22.4723 60.919 22.4723 61.8636C22.4723 62.4934 22.5386 63.0284 22.6712 63.4688C22.8037 63.9091 22.9943 64.2441 23.2429 64.4737C23.4938 64.7034 23.7957 64.8182 24.1484 64.8182ZM30.3984 65.5994C29.8634 65.5994 29.4077 65.4538 29.0312 65.1626C28.6548 64.8691 28.3672 64.4441 28.1683 63.8878C27.9695 63.3291 27.87 62.6544 27.87 61.8636C27.87 61.0777 27.9695 60.4065 28.1683 59.8501C28.3696 59.2914 28.6584 58.8653 29.0348 58.5717C29.4136 58.2758 29.8681 58.1278 30.3984 58.1278C30.9287 58.1278 31.3821 58.2758 31.7585 58.5717C32.1373 58.8653 32.4261 59.2914 32.625 59.8501C32.8262 60.4065 32.9268 61.0777 32.9268 61.8636C32.9268 62.6544 32.8274 63.3291 32.6286 63.8878C32.4297 64.4441 32.142 64.8691 31.7656 65.1626C31.3892 65.4538 30.9335 65.5994 30.3984 65.5994ZM30.3984 64.8182C30.9287 64.8182 31.3407 64.5625 31.6342 64.0511C31.9278 63.5398 32.0746 62.8106 32.0746 61.8636C32.0746 61.2339 32.0071 60.6977 31.8722 60.255C31.7396 59.8123 31.5478 59.4749 31.2969 59.2429C31.0483 59.0109 30.7488 58.8949 30.3984 58.8949C29.8729 58.8949 29.4621 59.1541 29.1662 59.6726C28.8703 60.1887 28.7223 60.919 28.7223 61.8636C28.7223 62.4934 28.7886 63.0284 28.9212 63.4688C29.0537 63.9091 29.2443 64.2441 29.4929 64.4737C29.7438 64.7034 30.0457 64.8182 30.3984 64.8182ZM36.6484 65.5994C36.1134 65.5994 35.6577 65.4538 35.2812 65.1626C34.9048 64.8691 34.6172 64.4441 34.4183 63.8878C34.2195 63.3291 34.12 62.6544 34.12 61.8636C34.12 61.0777 34.2195 60.4065 34.4183 59.8501C34.6196 59.2914 34.9084 58.8653 35.2848 58.5717C35.6636 58.2758 36.1181 58.1278 36.6484 58.1278C37.1787 58.1278 37.6321 58.2758 38.0085 58.5717C38.3873 58.8653 38.6761 59.2914 38.875 59.8501C39.0762 60.4065 39.1768 61.0777 39.1768 61.8636C39.1768 62.6544 39.0774 63.3291 38.8786 63.8878C38.6797 64.4441 38.392 64.8691 38.0156 65.1626C37.6392 65.4538 37.1835 65.5994 36.6484 65.5994ZM36.6484 64.8182C37.1787 64.8182 37.5907 64.5625 37.8842 64.0511C38.1778 63.5398 38.3246 62.8106 38.3246 61.8636C38.3246 61.2339 38.2571 60.6977 38.1222 60.255C37.9896 59.8123 37.7978 59.4749 37.5469 59.2429C37.2983 59.0109 36.9988 58.8949 36.6484 58.8949C36.1229 58.8949 35.7121 59.1541 35.4162 59.6726C35.1203 60.1887 34.9723 60.919 34.9723 61.8636C34.9723 62.4934 35.0386 63.0284 35.1712 63.4688C35.3037 63.9091 35.4943 64.2441 35.7429 64.4737C35.9938 64.7034 36.2957 64.8182 36.6484 64.8182Z" fill="black"/>
<path d="M13.0849 93.75V93.1108L15.4854 90.483C15.7672 90.1752 15.9992 89.9077 16.1815 89.6804C16.3638 89.4508 16.4987 89.2353 16.5863 89.0341C16.6763 88.8305 16.7212 88.6174 16.7212 88.3949C16.7212 88.1392 16.6597 87.9179 16.5366 87.7308C16.4158 87.5438 16.2501 87.3994 16.0394 87.2976C15.8287 87.1958 15.592 87.1449 15.3292 87.1449C15.0498 87.1449 14.806 87.2029 14.5977 87.3189C14.3917 87.4325 14.2319 87.5923 14.1183 87.7983C14.007 88.0043 13.9513 88.2457 13.9513 88.5227H13.1133C13.1133 88.0966 13.2115 87.7225 13.408 87.4006C13.6045 87.0786 13.872 86.8277 14.2106 86.6477C14.5515 86.4678 14.9338 86.3778 15.3576 86.3778C15.7837 86.3778 16.1613 86.4678 16.4904 86.6477C16.8195 86.8277 17.0775 87.0703 17.2646 87.3757C17.4516 87.6811 17.5451 88.0208 17.5451 88.3949C17.5451 88.6624 17.4966 88.924 17.3995 89.1797C17.3048 89.433 17.1391 89.7159 16.9023 90.0284C16.668 90.3385 16.3424 90.7173 15.9258 91.1648L14.2923 92.9119V92.9688H17.6729V93.75H13.0849ZM20.4038 92.7557L20.3469 93.1392C20.3067 93.4091 20.2451 93.6979 20.1623 94.0057C20.0818 94.3134 19.9978 94.6035 19.9102 94.8757C19.8226 95.148 19.7504 95.3646 19.6935 95.5256H19.0543C19.0851 95.3741 19.1254 95.174 19.1751 94.9254C19.2248 94.6768 19.2745 94.3987 19.3242 94.0909C19.3763 93.7855 19.4189 93.473 19.4521 93.1534L19.4947 92.7557H20.4038ZM24.0605 93.8494C23.5255 93.8494 23.0698 93.7038 22.6934 93.4126C22.3169 93.1191 22.0293 92.6941 21.8304 92.1378C21.6316 91.5791 21.5321 90.9044 21.5321 90.1136C21.5321 89.3277 21.6316 88.6565 21.8304 88.1001C22.0317 87.5414 22.3205 87.1153 22.6969 86.8217C23.0757 86.5258 23.5302 86.3778 24.0605 86.3778C24.5908 86.3778 25.0442 86.5258 25.4206 86.8217C25.7994 87.1153 26.0882 87.5414 26.2871 88.1001C26.4883 88.6565 26.589 89.3277 26.589 90.1136C26.589 90.9044 26.4895 91.5791 26.2907 92.1378C26.0918 92.6941 25.8042 93.1191 25.4277 93.4126C25.0513 93.7038 24.5956 93.8494 24.0605 93.8494ZM24.0605 93.0682C24.5908 93.0682 25.0028 92.8125 25.2963 92.3011C25.5899 91.7898 25.7367 91.0606 25.7367 90.1136C25.7367 89.4839 25.6692 88.9477 25.5343 88.505C25.4017 88.0623 25.2099 87.7249 24.959 87.4929C24.7104 87.2609 24.4109 87.1449 24.0605 87.1449C23.535 87.1449 23.1242 87.4041 22.8283 87.9226C22.5324 88.4387 22.3844 89.169 22.3844 90.1136C22.3844 90.7434 22.4507 91.2784 22.5833 91.7188C22.7158 92.1591 22.9064 92.4941 23.155 92.7237C23.406 92.9534 23.7078 93.0682 24.0605 93.0682ZM30.3105 93.8494C29.7755 93.8494 29.3198 93.7038 28.9434 93.4126C28.5669 93.1191 28.2793 92.6941 28.0804 92.1378C27.8816 91.5791 27.7821 90.9044 27.7821 90.1136C27.7821 89.3277 27.8816 88.6565 28.0804 88.1001C28.2817 87.5414 28.5705 87.1153 28.9469 86.8217C29.3257 86.5258 29.7802 86.3778 30.3105 86.3778C30.8408 86.3778 31.2942 86.5258 31.6706 86.8217C32.0494 87.1153 32.3382 87.5414 32.5371 88.1001C32.7383 88.6565 32.839 89.3277 32.839 90.1136C32.839 90.9044 32.7395 91.5791 32.5407 92.1378C32.3418 92.6941 32.0542 93.1191 31.6777 93.4126C31.3013 93.7038 30.8456 93.8494 30.3105 93.8494ZM30.3105 93.0682C30.8408 93.0682 31.2528 92.8125 31.5463 92.3011C31.8399 91.7898 31.9867 91.0606 31.9867 90.1136C31.9867 89.4839 31.9192 88.9477 31.7843 88.505C31.6517 88.0623 31.4599 87.7249 31.209 87.4929C30.9604 87.2609 30.6609 87.1449 30.3105 87.1449C29.785 87.1449 29.3742 87.4041 29.0783 87.9226C28.7824 88.4387 28.6344 89.169 28.6344 90.1136C28.6344 90.7434 28.7007 91.2784 28.8333 91.7188C28.9658 92.1591 29.1564 92.4941 29.405 92.7237C29.656 92.9534 29.9578 93.0682 30.3105 93.0682ZM36.5605 93.8494C36.0255 93.8494 35.5698 93.7038 35.1934 93.4126C34.8169 93.1191 34.5293 92.6941 34.3304 92.1378C34.1316 91.5791 34.0321 90.9044 34.0321 90.1136C34.0321 89.3277 34.1316 88.6565 34.3304 88.1001C34.5317 87.5414 34.8205 87.1153 35.1969 86.8217C35.5757 86.5258 36.0302 86.3778 36.5605 86.3778C37.0908 86.3778 37.5442 86.5258 37.9206 86.8217C38.2994 87.1153 38.5882 87.5414 38.7871 88.1001C38.9883 88.6565 39.089 89.3277 39.089 90.1136C39.089 90.9044 38.9895 91.5791 38.7907 92.1378C38.5918 92.6941 38.3042 93.1191 37.9277 93.4126C37.5513 93.7038 37.0956 93.8494 36.5605 93.8494ZM36.5605 93.0682C37.0908 93.0682 37.5028 92.8125 37.7963 92.3011C38.0899 91.7898 38.2367 91.0606 38.2367 90.1136C38.2367 89.4839 38.1692 88.9477 38.0343 88.505C37.9017 88.0623 37.7099 87.7249 37.459 87.4929C37.2104 87.2609 36.9109 87.1449 36.5605 87.1449C36.035 87.1449 35.6242 87.4041 35.3283 87.9226C35.0324 88.4387 34.8844 89.169 34.8844 90.1136C34.8844 90.7434 34.9507 91.2784 35.0833 91.7188C35.2158 92.1591 35.4064 92.4941 35.655 92.7237C35.906 92.9534 36.2078 93.0682 36.5605 93.0682Z" fill="black"/>
<path d="M15.6417 114.727V122H14.761V115.651H14.7184L12.9428 116.83V115.935L14.761 114.727H15.6417ZM18.5678 121.006L18.511 121.389C18.4708 121.659 18.4092 121.948 18.3263 122.256C18.2459 122.563 18.1618 122.853 18.0742 123.126C17.9866 123.398 17.9144 123.615 17.8576 123.776H17.2184C17.2492 123.624 17.2894 123.424 17.3391 123.175C17.3888 122.927 17.4386 122.649 17.4883 122.341C17.5404 122.036 17.583 121.723 17.6161 121.403L17.6587 121.006H18.5678ZM22.2246 122.099C21.6896 122.099 21.2338 121.954 20.8574 121.663C20.481 121.369 20.1934 120.944 19.9945 120.388C19.7956 119.829 19.6962 119.154 19.6962 118.364C19.6962 117.578 19.7956 116.906 19.9945 116.35C20.1957 115.791 20.4846 115.365 20.861 115.072C21.2398 114.776 21.6943 114.628 22.2246 114.628C22.7549 114.628 23.2083 114.776 23.5847 115.072C23.9635 115.365 24.2523 115.791 24.4512 116.35C24.6524 116.906 24.753 117.578 24.753 118.364C24.753 119.154 24.6536 119.829 24.4547 120.388C24.2559 120.944 23.9682 121.369 23.5918 121.663C23.2154 121.954 22.7596 122.099 22.2246 122.099ZM22.2246 121.318C22.7549 121.318 23.1668 121.062 23.4604 120.551C23.754 120.04 23.9007 119.311 23.9007 118.364C23.9007 117.734 23.8333 117.198 23.6983 116.755C23.5658 116.312 23.374 115.975 23.123 115.743C22.8745 115.511 22.575 115.395 22.2246 115.395C21.699 115.395 21.2883 115.654 20.9924 116.173C20.6964 116.689 20.5485 117.419 20.5485 118.364C20.5485 118.993 20.6148 119.528 20.7473 119.969C20.8799 120.409 21.0705 120.744 21.3191 120.974C21.57 121.203 21.8719 121.318 22.2246 121.318ZM28.4746 122.099C27.9396 122.099 27.4838 121.954 27.1074 121.663C26.731 121.369 26.4434 120.944 26.2445 120.388C26.0456 119.829 25.9462 119.154 25.9462 118.364C25.9462 117.578 26.0456 116.906 26.2445 116.35C26.4457 115.791 26.7346 115.365 27.111 115.072C27.4898 114.776 27.9443 114.628 28.4746 114.628C29.0049 114.628 29.4583 114.776 29.8347 115.072C30.2135 115.365 30.5023 115.791 30.7012 116.35C30.9024 116.906 31.003 117.578 31.003 118.364C31.003 119.154 30.9036 119.829 30.7047 120.388C30.5059 120.944 30.2182 121.369 29.8418 121.663C29.4654 121.954 29.0096 122.099 28.4746 122.099ZM28.4746 121.318C29.0049 121.318 29.4168 121.062 29.7104 120.551C30.004 120.04 30.1507 119.311 30.1507 118.364C30.1507 117.734 30.0833 117.198 29.9483 116.755C29.8158 116.312 29.624 115.975 29.373 115.743C29.1245 115.511 28.825 115.395 28.4746 115.395C27.949 115.395 27.5383 115.654 27.2424 116.173C26.9464 116.689 26.7985 117.419 26.7985 118.364C26.7985 118.993 26.8648 119.528 26.9973 119.969C27.1299 120.409 27.3205 120.744 27.5691 120.974C27.82 121.203 28.1219 121.318 28.4746 121.318ZM34.7246 122.099C34.1896 122.099 33.7338 121.954 33.3574 121.663C32.981 121.369 32.6934 120.944 32.4945 120.388C32.2956 119.829 32.1962 119.154 32.1962 118.364C32.1962 117.578 32.2956 116.906 32.4945 116.35C32.6957 115.791 32.9846 115.365 33.361 115.072C33.7398 114.776 34.1943 114.628 34.7246 114.628C35.2549 114.628 35.7083 114.776 36.0847 115.072C36.4635 115.365 36.7523 115.791 36.9512 116.35C37.1524 116.906 37.253 117.578 37.253 118.364C37.253 119.154 37.1536 119.829 36.9547 120.388C36.7559 120.944 36.4682 121.369 36.0918 121.663C35.7154 121.954 35.2596 122.099 34.7246 122.099ZM34.7246 121.318C35.2549 121.318 35.6668 121.062 35.9604 120.551C36.254 120.04 36.4007 119.311 36.4007 118.364C36.4007 117.734 36.3333 117.198 36.1983 116.755C36.0658 116.312 35.874 115.975 35.623 115.743C35.3745 115.511 35.075 115.395 34.7246 115.395C34.199 115.395 33.7883 115.654 33.4924 116.173C33.1964 116.689 33.0485 117.419 33.0485 118.364C33.0485 118.993 33.1148 119.528 33.2473 119.969C33.3799 120.409 33.5705 120.744 33.8191 120.974C34.07 121.203 34.3719 121.318 34.7246 121.318Z" fill="black"/>
<path d="M7 78.2955L1.18182 78.2955L1.18182 77.5909L3.77273 77.5909L3.77273 74.4886L1.18182 74.4886L1.18182 73.7841L7 73.7841L7 74.4886L4.39773 74.4886L4.39773 77.5909L7 77.5909L7 78.2955ZM7.09091 70.6349C7.09091 71.0554 6.99811 71.4181 6.8125 71.723C6.625 72.026 6.36364 72.2599 6.02841 72.4247C5.69129 72.5876 5.29924 72.669 4.85227 72.669C4.4053 72.669 4.01136 72.5876 3.67045 72.4247C3.32765 72.2599 3.06061 72.0308 2.86932 71.7372C2.67614 71.4418 2.57955 71.0971 2.57955 70.7031C2.57955 70.4759 2.61742 70.2514 2.69318 70.0298C2.76894 69.8082 2.89204 69.6065 3.0625 69.4247C3.23106 69.2429 3.45454 69.098 3.73295 68.9901C4.01136 68.8821 4.35417 68.8281 4.76136 68.8281L5.04545 68.8281L5.04545 72.1918L4.46591 72.1918L4.46591 69.5099C4.2197 69.5099 4 69.5592 3.80682 69.6577C3.61364 69.7543 3.46117 69.8925 3.34943 70.0724C3.23769 70.2505 3.18182 70.4607 3.18182 70.7031C3.18182 70.9702 3.24811 71.2012 3.38068 71.3963C3.51136 71.5895 3.68182 71.7382 3.89204 71.8423C4.10227 71.9465 4.32765 71.9986 4.56818 71.9986L4.95455 71.9986C5.28409 71.9986 5.56345 71.9418 5.79261 71.8281C6.01989 71.7126 6.19318 71.5526 6.3125 71.348C6.42992 71.1435 6.48864 70.9058 6.48864 70.6349C6.48864 70.4588 6.46401 70.2997 6.41477 70.1577C6.36364 70.0137 6.28788 69.8897 6.1875 69.7855C6.08523 69.6813 5.95833 69.6009 5.80682 69.544L5.98864 68.8963C6.20833 68.9645 6.40151 69.0791 6.56818 69.2401C6.73295 69.401 6.86174 69.5999 6.95455 69.8366C7.04545 70.0734 7.09091 70.3395 7.09091 70.6349ZM7.09091 66.0355C7.09091 66.4446 6.99432 66.7969 6.80114 67.0923C6.60795 67.3878 6.34186 67.6151 6.00284 67.7741C5.66383 67.9332 5.27651 68.0128 4.84091 68.0128C4.39773 68.0128 4.00663 67.9313 3.66761 67.7685C3.3267 67.6037 3.06061 67.3745 2.86932 67.081C2.67614 66.7855 2.57954 66.4408 2.57954 66.0469C2.57954 65.7401 2.63636 65.4635 2.75 65.2173C2.86364 64.9711 3.02273 64.7694 3.22727 64.6122C3.43182 64.455 3.67045 64.3575 3.94318 64.3196L3.94318 64.9901C3.74432 65.0412 3.56818 65.1548 3.41477 65.331C3.25947 65.5052 3.18182 65.7401 3.18182 66.0355C3.18182 66.2969 3.25 66.526 3.38636 66.723C3.52083 66.9181 3.71117 67.0705 3.95739 67.1804C4.2017 67.2884 4.48864 67.3423 4.81818 67.3423C5.1553 67.3423 5.44886 67.2893 5.69886 67.1832C5.94886 67.0753 6.14299 66.9238 6.28125 66.7287C6.41951 66.5317 6.48864 66.3007 6.48864 66.0355C6.48864 65.8613 6.45833 65.7031 6.39773 65.5611C6.33712 65.419 6.25 65.2988 6.13636 65.2003C6.02273 65.1018 5.88636 65.0317 5.72727 64.9901L5.72727 64.3196C5.98485 64.3575 6.21686 64.4512 6.42329 64.6009C6.62784 64.7486 6.79072 64.9446 6.91193 65.1889C7.03125 65.4313 7.09091 65.7135 7.09091 66.0355ZM2.63636 61.4418L3.20454 61.4418L3.20454 63.7031L2.63636 63.7031L2.63636 61.4418ZM1.59091 63.044L1.59091 62.3736L5.75 62.3736C5.93939 62.3736 6.08144 62.3461 6.17614 62.2912C6.26894 62.2344 6.33144 62.1624 6.36364 62.0753C6.39394 61.9863 6.40909 61.8925 6.40909 61.794C6.40909 61.7202 6.4053 61.6596 6.39773 61.6122C6.38826 61.5649 6.38068 61.527 6.375 61.4986L6.97727 61.3622C6.99432 61.4077 7.01136 61.4711 7.02841 61.5526C7.04735 61.634 7.05682 61.7372 7.05682 61.8622C7.05682 62.0516 7.0161 62.2372 6.93466 62.419C6.85322 62.599 6.72917 62.7486 6.5625 62.8679C6.39583 62.9853 6.18561 63.044 5.93182 63.044L1.59091 63.044ZM7.10227 59.1491C7.10227 59.4257 7.05019 59.6766 6.94602 59.902C6.83996 60.1274 6.6875 60.3063 6.48864 60.4389C6.28788 60.5715 6.04545 60.6378 5.76136 60.6378C5.51136 60.6378 5.30871 60.5885 5.15341 60.4901C4.99621 60.3916 4.87311 60.2599 4.78409 60.0952C4.69507 59.9304 4.62879 59.7486 4.58523 59.5497C4.53977 59.349 4.50379 59.1473 4.47727 58.9446C4.44318 58.6795 4.41761 58.4645 4.40057 58.2997C4.38163 58.133 4.35038 58.0118 4.30682 57.9361C4.26326 57.8584 4.1875 57.8196 4.07954 57.8196L4.05682 57.8196C3.77651 57.8196 3.55871 57.8963 3.40341 58.0497C3.24811 58.2012 3.17045 58.4313 3.17045 58.7401C3.17045 59.0601 3.24053 59.3111 3.38068 59.4929C3.52083 59.6747 3.67045 59.8026 3.82954 59.8764L3.60227 60.5128C3.33712 60.3991 3.13068 60.2476 2.98295 60.0582C2.83333 59.867 2.72917 59.6586 2.67045 59.4332C2.60985 59.206 2.57954 58.9825 2.57954 58.7628C2.57954 58.6226 2.59659 58.4616 2.63068 58.2798C2.66288 58.0961 2.73011 57.919 2.83239 57.7486C2.93466 57.5762 3.08901 57.4332 3.29545 57.3196C3.50189 57.206 3.77841 57.1491 4.125 57.1491L7 57.1491L7 57.8196L6.40909 57.8196L6.40909 57.8537C6.50379 57.8991 6.60511 57.9749 6.71307 58.081C6.82102 58.187 6.91288 58.3281 6.98864 58.5043C7.06439 58.6804 7.10227 58.8954 7.10227 59.1491ZM6.5 59.0469C6.5 58.7817 6.44792 58.5582 6.34375 58.3764C6.23958 58.1927 6.10511 58.0545 5.94034 57.9616C5.77557 57.867 5.60227 57.8196 5.42045 57.8196L4.80682 57.8196C4.84091 57.848 4.87216 57.9105 4.90057 58.0071C4.92708 58.1018 4.95076 58.2116 4.97159 58.3366C4.99053 58.4598 5.00757 58.58 5.02273 58.6974C5.03598 58.813 5.04735 58.9067 5.05682 58.9787C5.07954 59.1529 5.11648 59.3158 5.16761 59.4673C5.21686 59.617 5.29167 59.7382 5.39204 59.831C5.49053 59.9219 5.625 59.9673 5.79545 59.9673C6.02841 59.9673 6.20454 59.8812 6.32386 59.7088C6.44129 59.5346 6.5 59.3139 6.5 59.0469ZM7 55.9254L2.63636 55.9254L2.63636 55.2777L3.29545 55.2777L3.29545 55.2322C3.07954 55.1527 2.90435 55.0088 2.76988 54.8004C2.63542 54.5921 2.56818 54.3572 2.56818 54.0959C2.56818 54.0466 2.56913 53.9851 2.57102 53.9112C2.57292 53.8374 2.57576 53.7815 2.57954 53.7436L3.26136 53.7436C3.25568 53.7663 3.24716 53.8184 3.23579 53.8999C3.22254 53.9794 3.21591 54.0637 3.21591 54.1527C3.21591 54.3648 3.26042 54.5542 3.34943 54.7209C3.43655 54.8857 3.55776 55.0163 3.71307 55.1129C3.86648 55.2076 4.04167 55.255 4.23864 55.255L7 55.255L7 55.9254ZM7.09091 51.2521C7.09091 51.6726 6.9981 52.0353 6.8125 52.3402C6.625 52.6432 6.36364 52.8771 6.02841 53.0419C5.69129 53.2048 5.29924 53.2862 4.85227 53.2862C4.4053 53.2862 4.01136 53.2048 3.67045 53.0419C3.32765 52.8771 3.0606 52.648 2.86932 52.3544C2.67614 52.0589 2.57954 51.7143 2.57954 51.3203C2.57954 51.093 2.61742 50.8686 2.69318 50.647C2.76894 50.4254 2.89204 50.2237 3.0625 50.0419C3.23106 49.8601 3.45454 49.7152 3.73295 49.6072C4.01136 49.4993 4.35417 49.4453 4.76136 49.4453L5.04545 49.4453L5.04545 52.8089L4.46591 52.8089L4.46591 50.1271C4.2197 50.1271 4 50.1764 3.80682 50.2749C3.61363 50.3714 3.46117 50.5097 3.34943 50.6896C3.23769 50.8677 3.18182 51.0779 3.18182 51.3203C3.18182 51.5874 3.2481 51.8184 3.38068 52.0135C3.51136 52.2067 3.68182 52.3554 3.89204 52.4595C4.10227 52.5637 4.32765 52.6158 4.56818 52.6158L4.95454 52.6158C5.28409 52.6158 5.56345 52.5589 5.79261 52.4453C6.01989 52.3298 6.19318 52.1697 6.3125 51.9652C6.42992 51.7607 6.48864 51.523 6.48864 51.2521C6.48864 51.076 6.46401 50.9169 6.41477 50.7749C6.36364 50.6309 6.28788 50.5069 6.1875 50.4027C6.08523 50.2985 5.95833 50.218 5.80682 50.1612L5.98864 49.5135C6.20833 49.5817 6.40151 49.6963 6.56818 49.8572C6.73295 50.0182 6.86174 50.2171 6.95454 50.4538C7.04545 50.6906 7.09091 50.9567 7.09091 51.2521ZM3.61363 45.3345L3.78409 45.9368C3.68371 45.9747 3.58617 46.0305 3.49148 46.1044C3.39488 46.1764 3.31534 46.2749 3.25284 46.3999C3.19034 46.5249 3.15909 46.6849 3.15909 46.88C3.15909 47.147 3.22064 47.3696 3.34375 47.5476C3.46496 47.7237 3.61932 47.8118 3.80682 47.8118C3.97348 47.8118 4.10511 47.7512 4.2017 47.63C4.29829 47.5088 4.37879 47.3194 4.44318 47.0618L4.60227 46.4141C4.69697 46.0239 4.84185 45.7332 5.03693 45.5419C5.23011 45.3506 5.47917 45.255 5.78409 45.255C6.03409 45.255 6.25757 45.3269 6.45454 45.4709C6.65151 45.6129 6.80682 45.8118 6.92045 46.0675C7.03409 46.3232 7.09091 46.6205 7.09091 46.9595C7.09091 47.4046 6.99432 47.773 6.80114 48.0646C6.60795 48.3563 6.32576 48.541 5.95454 48.6186L5.79545 47.9822C6.0303 47.9216 6.20644 47.8071 6.32386 47.6385C6.44129 47.468 6.5 47.2455 6.5 46.9709C6.5 46.6584 6.43371 46.4103 6.30113 46.2266C6.16667 46.041 6.00568 45.9482 5.81818 45.9482C5.66667 45.9482 5.53977 46.0012 5.4375 46.1072C5.33333 46.2133 5.25568 46.3762 5.20454 46.5959L5.03409 47.3232C4.93939 47.7228 4.79261 48.0163 4.59375 48.2038C4.39299 48.3894 4.14204 48.4822 3.84091 48.4822C3.5947 48.4822 3.37689 48.4131 3.1875 48.2749C2.9981 48.1347 2.84943 47.9444 2.74148 47.7038C2.63352 47.4614 2.57954 47.1868 2.57954 46.88C2.57954 46.4482 2.67424 46.1091 2.86363 45.8629C3.05303 45.6148 3.30303 45.4387 3.61363 45.3345Z" fill="black"/>
<path d="M50.6836 118.5L78.8716 117L106.388 104L135.583 117L165.113 102L191.959 114L221.825 91L249.006 105.5L278.201 90L306.725 70.5L335.248 82" stroke="#D54789" stroke-width="2"/>
<path d="M50.6836 114.5L78.8716 105L106.388 98L136.254 105L165.113 96L193.301 97L222.496 84L249.006 89.5L278.201 84L306.725 64.5L335.248 66" stroke="#489B7B" stroke-width="2"/>
<path d="M50.6836 107.5L78.8716 98L107.731 92L135.583 94L165.113 82L191.959 84L219.14 70L250.349 56.5L278.201 75L306.725 50.5L335.248 52" stroke="#DDAB3B" stroke-width="2"/>
<path d="M50.6836 101.5L78.8716 90L107.731 84L135.583 79L165.113 60L191.959 72L221.825 48L249.677 44.5L278.201 58L306.725 38.5L335.248 40" stroke="#CB6527" stroke-width="2"/>
<path d="M50.6836 64.5L78.8716 58L107.731 37L135.583 41L165.113 22L191.959 24L219.14 13L249.006 8.5L278.201 14L306.725 9.5L335.248 9" stroke="#57C2FD" stroke-width="2"/>
<path d="M50.6836 94.5L78.8716 81L107.731 77L135.583 64L165.113 45L191.959 57L221.825 37L249.006 31.5L278.201 44L306.725 32.5L335.248 30" stroke="#7471AD" stroke-width="2"/>
<path d="M50.6836 76.5L78.8716 69L107.731 54L135.583 47L165.113 35L193.301 29L221.825 19L249.006 14.5L278.201 26L307.396 16.5L335.248 17" stroke="#9F7830" stroke-width="2"/>
<path d="M50.6836 85.5L78.8716 75L107.731 69L135.583 55L165.113 41L191.959 38L221.825 28L249.006 22.5L278.201 35L308.067 24.5L335.248 23" stroke="#75A338" stroke-width="2"/>
<path d="M82.6134 117C82.6134 118.387 81.506 119.5 80.1544 119.5C78.8027 119.5 77.6953 118.387 77.6953 117C77.6953 115.613 78.8027 114.5 80.1544 114.5C81.506 114.5 82.6134 115.613 82.6134 117Z" fill="#D54789" stroke="white"/>
<path d="M53.7541 119C53.7541 120.387 52.6466 121.5 51.295 121.5C49.9434 121.5 48.8359 120.387 48.8359 119C48.8359 117.613 49.9434 116.5 51.295 116.5C52.6466 116.5 53.7541 117.613 53.7541 119Z" fill="#D54789" stroke="white"/>
<path d="M110.801 104C110.801 105.387 109.694 106.5 108.342 106.5C106.99 106.5 105.883 105.387 105.883 104C105.883 102.613 106.99 101.5 108.342 101.5C109.694 101.5 110.801 102.613 110.801 104Z" fill="#D54789" stroke="white"/>
<path d="M139.66 117C139.66 118.387 138.553 119.5 137.201 119.5C135.85 119.5 134.742 118.387 134.742 117C134.742 115.613 135.85 114.5 137.201 114.5C138.553 114.5 139.66 115.613 139.66 117Z" fill="#D54789" stroke="white"/>
<path d="M168.516 102C168.516 103.387 167.408 104.5 166.057 104.5C164.705 104.5 163.598 103.387 163.598 102C163.598 100.613 164.705 99.5 166.057 99.5C167.408 99.5 168.516 100.613 168.516 102Z" fill="#D54789" stroke="white"/>
<path d="M196.707 113C196.707 114.387 195.6 115.5 194.248 115.5C192.896 115.5 191.789 114.387 191.789 113C191.789 111.613 192.896 110.5 194.248 110.5C195.6 110.5 196.707 111.613 196.707 113Z" fill="#D54789" stroke="white"/>
<g filter="url(#filter0_d_5257_16752)">
<ellipse cx="223.104" cy="91" rx="2.95906" ry="3" fill="#D54789"/>
<path d="M225.563 91C225.563 92.3872 224.455 93.5 223.104 93.5C221.752 93.5 220.645 92.3872 220.645 91C220.645 89.6128 221.752 88.5 223.104 88.5C224.455 88.5 225.563 89.6128 225.563 91Z" stroke="white"/>
</g>
<path d="M253.754 105C253.754 106.387 252.647 107.5 251.295 107.5C249.943 107.5 248.836 106.387 248.836 105C248.836 103.613 249.943 102.5 251.295 102.5C252.647 102.5 253.754 103.613 253.754 105Z" fill="#D54789" stroke="white"/>
<path d="M281.942 89C281.942 90.3872 280.834 91.5 279.482 91.5C278.131 91.5 277.023 90.3872 277.023 89C277.023 87.6128 278.131 86.5 279.482 86.5C280.834 86.5 281.942 87.6128 281.942 89Z" fill="#D54789" stroke="white"/>
<path d="M310.801 71C310.801 72.3872 309.694 73.5 308.342 73.5C306.99 73.5 305.883 72.3872 305.883 71C305.883 69.6128 306.99 68.5 308.342 68.5C309.694 68.5 310.801 69.6128 310.801 71Z" fill="#D54789" stroke="white"/>
<path d="M339.656 82C339.656 83.3872 338.549 84.5 337.197 84.5C335.846 84.5 334.738 83.3872 334.738 82C334.738 80.6128 335.846 79.5 337.197 79.5C338.549 79.5 339.656 80.6128 339.656 82Z" fill="#D54789" stroke="white"/>
<path d="M82.6134 105C82.6134 106.387 81.506 107.5 80.1544 107.5C78.8027 107.5 77.6953 106.387 77.6953 105C77.6953 103.613 78.8027 102.5 80.1544 102.5C81.506 102.5 82.6134 103.613 82.6134 105Z" fill="#489B7B" stroke="white"/>
<path d="M53.7541 114C53.7541 115.387 52.6466 116.5 51.295 116.5C49.9434 116.5 48.8359 115.387 48.8359 114C48.8359 112.613 49.9434 111.5 51.295 111.5C52.6466 111.5 53.7541 112.613 53.7541 114Z" fill="#489B7B" stroke="white"/>
<path d="M110.801 98C110.801 99.3872 109.694 100.5 108.342 100.5C106.99 100.5 105.883 99.3872 105.883 98C105.883 96.6128 106.99 95.5 108.342 95.5C109.694 95.5 110.801 96.6128 110.801 98Z" fill="#489B7B" stroke="white"/>
<path d="M139.66 105C139.66 106.387 138.553 107.5 137.201 107.5C135.85 107.5 134.742 106.387 134.742 105C134.742 103.613 135.85 102.5 137.201 102.5C138.553 102.5 139.66 103.613 139.66 105Z" fill="#489B7B" stroke="white"/>
<path d="M168.516 96C168.516 97.3872 167.408 98.5 166.057 98.5C164.705 98.5 163.598 97.3872 163.598 96C163.598 94.6128 164.705 93.5 166.057 93.5C167.408 93.5 168.516 94.6128 168.516 96Z" fill="#489B7B" stroke="white"/>
<path d="M196.707 97C196.707 98.3872 195.6 99.5 194.248 99.5C192.896 99.5 191.789 98.3872 191.789 97C191.789 95.6128 192.896 94.5 194.248 94.5C195.6 94.5 196.707 95.6128 196.707 97Z" fill="#489B7B" stroke="white"/>
<g filter="url(#filter1_d_5257_16752)">
<ellipse cx="223.104" cy="83" rx="2.95906" ry="3" fill="#489B7B"/>
<path d="M225.563 83C225.563 84.3872 224.455 85.5 223.104 85.5C221.752 85.5 220.645 84.3872 220.645 83C220.645 81.6128 221.752 80.5 223.104 80.5C224.455 80.5 225.563 81.6128 225.563 83Z" stroke="white"/>
</g>
<path d="M253.754 89C253.754 90.3872 252.647 91.5 251.295 91.5C249.943 91.5 248.836 90.3872 248.836 89C248.836 87.6128 249.943 86.5 251.295 86.5C252.647 86.5 253.754 87.6128 253.754 89Z" fill="#489B7B" stroke="white"/>
<path d="M281.942 83C281.942 84.3872 280.834 85.5 279.482 85.5C278.131 85.5 277.023 84.3872 277.023 83C277.023 81.6128 278.131 80.5 279.482 80.5C280.834 80.5 281.942 81.6128 281.942 83Z" fill="#489B7B" stroke="white"/>
<path d="M310.801 64C310.801 65.3872 309.694 66.5 308.342 66.5C306.99 66.5 305.883 65.3872 305.883 64C305.883 62.6128 306.99 61.5 308.342 61.5C309.694 61.5 310.801 62.6128 310.801 64Z" fill="#489B7B" stroke="white"/>
<path d="M339.656 66C339.656 67.3872 338.549 68.5 337.197 68.5C335.846 68.5 334.738 67.3872 334.738 66C334.738 64.6128 335.846 63.5 337.197 63.5C338.549 63.5 339.656 64.6128 339.656 66Z" fill="#489B7B" stroke="white"/>
<path d="M82.6134 98C82.6134 99.3872 81.506 100.5 80.1544 100.5C78.8027 100.5 77.6953 99.3872 77.6953 98C77.6953 96.6128 78.8027 95.5 80.1544 95.5C81.506 95.5 82.6134 96.6128 82.6134 98Z" fill="#DDAB3B" stroke="white"/>
<path d="M53.7541 108C53.7541 109.387 52.6466 110.5 51.295 110.5C49.9434 110.5 48.8359 109.387 48.8359 108C48.8359 106.613 49.9434 105.5 51.295 105.5C52.6466 105.5 53.7541 106.613 53.7541 108Z" fill="#DDAB3B" stroke="white"/>
<path d="M110.801 91C110.801 92.3872 109.694 93.5 108.342 93.5C106.99 93.5 105.883 92.3872 105.883 91C105.883 89.6128 106.99 88.5 108.342 88.5C109.694 88.5 110.801 89.6128 110.801 91Z" fill="#DDAB3B" stroke="white"/>
<path d="M139.66 94C139.66 95.3872 138.553 96.5 137.201 96.5C135.85 96.5 134.742 95.3872 134.742 94C134.742 92.6128 135.85 91.5 137.201 91.5C138.553 91.5 139.66 92.6128 139.66 94Z" fill="#DDAB3B" stroke="white"/>
<path d="M168.516 81C168.516 82.3872 167.408 83.5 166.057 83.5C164.705 83.5 163.598 82.3872 163.598 81C163.598 79.6128 164.705 78.5 166.057 78.5C167.408 78.5 168.516 79.6128 168.516 81Z" fill="#DDAB3B" stroke="white"/>
<path d="M196.707 84C196.707 85.3872 195.6 86.5 194.248 86.5C192.896 86.5 191.789 85.3872 191.789 84C191.789 82.6128 192.896 81.5 194.248 81.5C195.6 81.5 196.707 82.6128 196.707 84Z" fill="#DDAB3B" stroke="white"/>
<g filter="url(#filter2_d_5257_16752)">
<ellipse cx="223.104" cy="68" rx="2.95906" ry="3" fill="#DDAB3B"/>
<path d="M225.563 68C225.563 69.3872 224.455 70.5 223.104 70.5C221.752 70.5 220.645 69.3872 220.645 68C220.645 66.6128 221.752 65.5 223.104 65.5C224.455 65.5 225.563 66.6128 225.563 68Z" stroke="white"/>
</g>
<path d="M253.754 57C253.754 58.3872 252.647 59.5 251.295 59.5C249.943 59.5 248.836 58.3872 248.836 57C248.836 55.6128 249.943 54.5 251.295 54.5C252.647 54.5 253.754 55.6128 253.754 57Z" fill="#DDAB3B" stroke="white"/>
<path d="M281.942 75C281.942 76.3872 280.834 77.5 279.482 77.5C278.131 77.5 277.023 76.3872 277.023 75C277.023 73.6128 278.131 72.5 279.482 72.5C280.834 72.5 281.942 73.6128 281.942 75Z" fill="#DDAB3B" stroke="white"/>
<path d="M310.801 51C310.801 52.3872 309.694 53.5 308.342 53.5C306.99 53.5 305.883 52.3872 305.883 51C305.883 49.6128 306.99 48.5 308.342 48.5C309.694 48.5 310.801 49.6128 310.801 51Z" fill="#DDAB3B" stroke="white"/>
<path d="M339.656 53C339.656 54.3872 338.549 55.5 337.197 55.5C335.846 55.5 334.738 54.3872 334.738 53C334.738 51.6128 335.846 50.5 337.197 50.5C338.549 50.5 339.656 51.6128 339.656 53Z" fill="#DDAB3B" stroke="white"/>
<path d="M82.6134 91C82.6134 92.3872 81.506 93.5 80.1544 93.5C78.8027 93.5 77.6953 92.3872 77.6953 91C77.6953 89.6128 78.8027 88.5 80.1544 88.5C81.506 88.5 82.6134 89.6128 82.6134 91Z" fill="#CB6527" stroke="white"/>
<path d="M53.7541 101C53.7541 102.387 52.6466 103.5 51.295 103.5C49.9434 103.5 48.8359 102.387 48.8359 101C48.8359 99.6128 49.9434 98.5 51.295 98.5C52.6466 98.5 53.7541 99.6128 53.7541 101Z" fill="#CB6527" stroke="white"/>
<path d="M110.801 84C110.801 85.3872 109.694 86.5 108.342 86.5C106.99 86.5 105.883 85.3872 105.883 84C105.883 82.6128 106.99 81.5 108.342 81.5C109.694 81.5 110.801 82.6128 110.801 84Z" fill="#CB6527" stroke="white"/>
<path d="M139.66 79C139.66 80.3872 138.553 81.5 137.201 81.5C135.85 81.5 134.742 80.3872 134.742 79C134.742 77.6128 135.85 76.5 137.201 76.5C138.553 76.5 139.66 77.6128 139.66 79Z" fill="#CB6527" stroke="white"/>
<path d="M168.516 60C168.516 61.3872 167.408 62.5 166.057 62.5C164.705 62.5 163.598 61.3872 163.598 60C163.598 58.6128 164.705 57.5 166.057 57.5C167.408 57.5 168.516 58.6128 168.516 60Z" fill="#CB6527" stroke="white"/>
<path d="M196.707 71C196.707 72.3872 195.6 73.5 194.248 73.5C192.896 73.5 191.789 72.3872 191.789 71C191.789 69.6128 192.896 68.5 194.248 68.5C195.6 68.5 196.707 69.6128 196.707 71Z" fill="#CB6527" stroke="white"/>
<g filter="url(#filter3_d_5257_16752)">
<ellipse cx="223.104" cy="48" rx="2.95906" ry="3" fill="#CB6527"/>
<path d="M225.563 48C225.563 49.3872 224.455 50.5 223.104 50.5C221.752 50.5 220.645 49.3872 220.645 48C220.645 46.6128 221.752 45.5 223.104 45.5C224.455 45.5 225.563 46.6128 225.563 48Z" stroke="white"/>
</g>
<path d="M253.754 44C253.754 45.3872 252.647 46.5 251.295 46.5C249.943 46.5 248.836 45.3872 248.836 44C248.836 42.6128 249.943 41.5 251.295 41.5C252.647 41.5 253.754 42.6128 253.754 44Z" fill="#CB6527" stroke="white"/>
<path d="M281.942 58C281.942 59.3872 280.834 60.5 279.482 60.5C278.131 60.5 277.023 59.3872 277.023 58C277.023 56.6128 278.131 55.5 279.482 55.5C280.834 55.5 281.942 56.6128 281.942 58Z" fill="#CB6527" stroke="white"/>
<path d="M310.801 38C310.801 39.3872 309.694 40.5 308.342 40.5C306.99 40.5 305.883 39.3872 305.883 38C305.883 36.6128 306.99 35.5 308.342 35.5C309.694 35.5 310.801 36.6128 310.801 38Z" fill="#CB6527" stroke="white"/>
<path d="M339.656 40C339.656 41.3872 338.549 42.5 337.197 42.5C335.846 42.5 334.738 41.3872 334.738 40C334.738 38.6128 335.846 37.5 337.197 37.5C338.549 37.5 339.656 38.6128 339.656 40Z" fill="#CB6527" stroke="white"/>
<path d="M82.6134 81C82.6134 82.3872 81.506 83.5 80.1544 83.5C78.8027 83.5 77.6953 82.3872 77.6953 81C77.6953 79.6128 78.8027 78.5 80.1544 78.5C81.506 78.5 82.6134 79.6128 82.6134 81Z" fill="#7471AD" stroke="white"/>
<path d="M53.7541 94C53.7541 95.3872 52.6466 96.5 51.295 96.5C49.9434 96.5 48.8359 95.3872 48.8359 94C48.8359 92.6128 49.9434 91.5 51.295 91.5C52.6466 91.5 53.7541 92.6128 53.7541 94Z" fill="#7471AD" stroke="white"/>
<path d="M110.801 77C110.801 78.3872 109.694 79.5 108.342 79.5C106.99 79.5 105.883 78.3872 105.883 77C105.883 75.6128 106.99 74.5 108.342 74.5C109.694 74.5 110.801 75.6128 110.801 77Z" fill="#7471AD" stroke="white"/>
<path d="M139.66 63C139.66 64.3872 138.553 65.5 137.201 65.5C135.85 65.5 134.742 64.3872 134.742 63C134.742 61.6128 135.85 60.5 137.201 60.5C138.553 60.5 139.66 61.6128 139.66 63Z" fill="#7471AD" stroke="white"/>
<path d="M168.516 46C168.516 47.3872 167.408 48.5 166.057 48.5C164.705 48.5 163.598 47.3872 163.598 46C163.598 44.6128 164.705 43.5 166.057 43.5C167.408 43.5 168.516 44.6128 168.516 46Z" fill="#7471AD" stroke="white"/>
<path d="M196.707 56C196.707 57.3872 195.6 58.5 194.248 58.5C192.896 58.5 191.789 57.3872 191.789 56C191.789 54.6128 192.896 53.5 194.248 53.5C195.6 53.5 196.707 54.6128 196.707 56Z" fill="#7471AD" stroke="white"/>
<g filter="url(#filter4_d_5257_16752)">
<ellipse cx="223.104" cy="37" rx="2.95906" ry="3" fill="#7471AD"/>
<path d="M225.563 37C225.563 38.3872 224.455 39.5 223.104 39.5C221.752 39.5 220.645 38.3872 220.645 37C220.645 35.6128 221.752 34.5 223.104 34.5C224.455 34.5 225.563 35.6128 225.563 37Z" stroke="white"/>
</g>
<path d="M253.754 31C253.754 32.3872 252.647 33.5 251.295 33.5C249.943 33.5 248.836 32.3872 248.836 31C248.836 29.6128 249.943 28.5 251.295 28.5C252.647 28.5 253.754 29.6128 253.754 31Z" fill="#7471AD" stroke="white"/>
<path d="M281.942 44C281.942 45.3872 280.834 46.5 279.482 46.5C278.131 46.5 277.023 45.3872 277.023 44C277.023 42.6128 278.131 41.5 279.482 41.5C280.834 41.5 281.942 42.6128 281.942 44Z" fill="#7471AD" stroke="white"/>
<path d="M310.801 32C310.801 33.3872 309.694 34.5 308.342 34.5C306.99 34.5 305.883 33.3872 305.883 32C305.883 30.6128 306.99 29.5 308.342 29.5C309.694 29.5 310.801 30.6128 310.801 32Z" fill="#7471AD" stroke="white"/>
<path d="M339.656 30C339.656 31.3872 338.549 32.5 337.197 32.5C335.846 32.5 334.738 31.3872 334.738 30C334.738 28.6128 335.846 27.5 337.197 27.5C338.549 27.5 339.656 28.6128 339.656 30Z" fill="#7471AD" stroke="white"/>
<path d="M82.6134 75C82.6134 76.3872 81.506 77.5 80.1544 77.5C78.8027 77.5 77.6953 76.3872 77.6953 75C77.6953 73.6128 78.8027 72.5 80.1544 72.5C81.506 72.5 82.6134 73.6128 82.6134 75Z" fill="#75A338" stroke="white"/>
<path d="M53.7541 86C53.7541 87.3872 52.6466 88.5 51.295 88.5C49.9434 88.5 48.8359 87.3872 48.8359 86C48.8359 84.6128 49.9434 83.5 51.295 83.5C52.6466 83.5 53.7541 84.6128 53.7541 86Z" fill="#75A338" stroke="white"/>
<path d="M110.801 69C110.801 70.3872 109.694 71.5 108.342 71.5C106.99 71.5 105.883 70.3872 105.883 69C105.883 67.6128 106.99 66.5 108.342 66.5C109.694 66.5 110.801 67.6128 110.801 69Z" fill="#75A338" stroke="white"/>
<path d="M139.66 55C139.66 56.3872 138.553 57.5 137.201 57.5C135.85 57.5 134.742 56.3872 134.742 55C134.742 53.6128 135.85 52.5 137.201 52.5C138.553 52.5 139.66 53.6128 139.66 55Z" fill="#75A338" stroke="white"/>
<path d="M168.516 40C168.516 41.3872 167.408 42.5 166.057 42.5C164.705 42.5 163.598 41.3872 163.598 40C163.598 38.6128 164.705 37.5 166.057 37.5C167.408 37.5 168.516 38.6128 168.516 40Z" fill="#75A338" stroke="white"/>
<path d="M196.707 38C196.707 39.3872 195.6 40.5 194.248 40.5C192.896 40.5 191.789 39.3872 191.789 38C191.789 36.6128 192.896 35.5 194.248 35.5C195.6 35.5 196.707 36.6128 196.707 38Z" fill="#75A338" stroke="white"/>
<g filter="url(#filter5_d_5257_16752)">
<ellipse cx="223.104" cy="29" rx="2.95906" ry="3" fill="#75A338"/>
<path d="M225.563 29C225.563 30.3872 224.455 31.5 223.104 31.5C221.752 31.5 220.645 30.3872 220.645 29C220.645 27.6128 221.752 26.5 223.104 26.5C224.455 26.5 225.563 27.6128 225.563 29Z" stroke="white"/>
</g>
<path d="M253.754 23C253.754 24.3872 252.647 25.5 251.295 25.5C249.943 25.5 248.836 24.3872 248.836 23C248.836 21.6128 249.943 20.5 251.295 20.5C252.647 20.5 253.754 21.6128 253.754 23Z" fill="#75A338" stroke="white"/>
<path d="M281.942 36C281.942 37.3872 280.834 38.5 279.482 38.5C278.131 38.5 277.023 37.3872 277.023 36C277.023 34.6128 278.131 33.5 279.482 33.5C280.834 33.5 281.942 34.6128 281.942 36Z" fill="#75A338" stroke="white"/>
<path d="M310.801 24C310.801 25.3872 309.694 26.5 308.342 26.5C306.99 26.5 305.883 25.3872 305.883 24C305.883 22.6128 306.99 21.5 308.342 21.5C309.694 21.5 310.801 22.6128 310.801 24Z" fill="#75A338" stroke="white"/>
<path d="M339.656 22C339.656 23.3872 338.549 24.5 337.197 24.5C335.846 24.5 334.738 23.3872 334.738 22C334.738 20.6128 335.846 19.5 337.197 19.5C338.549 19.5 339.656 20.6128 339.656 22Z" fill="#75A338" stroke="white"/>
<path d="M82.6134 68C82.6134 69.3872 81.506 70.5 80.1544 70.5C78.8027 70.5 77.6953 69.3872 77.6953 68C77.6953 66.6128 78.8027 65.5 80.1544 65.5C81.506 65.5 82.6134 66.6128 82.6134 68Z" fill="#9F7830" stroke="white"/>
<path d="M53.7541 77C53.7541 78.3872 52.6466 79.5 51.295 79.5C49.9434 79.5 48.8359 78.3872 48.8359 77C48.8359 75.6128 49.9434 74.5 51.295 74.5C52.6466 74.5 53.7541 75.6128 53.7541 77Z" fill="#9F7830" stroke="white"/>
<path d="M111.473 54C111.473 55.3872 110.365 56.5 109.014 56.5C107.662 56.5 106.555 55.3872 106.555 54C106.555 52.6128 107.662 51.5 109.014 51.5C110.365 51.5 111.473 52.6128 111.473 54Z" fill="#9F7830" stroke="white"/>
<path d="M139.66 46C139.66 47.3872 138.553 48.5 137.201 48.5C135.85 48.5 134.742 47.3872 134.742 46C134.742 44.6128 135.85 43.5 137.201 43.5C138.553 43.5 139.66 44.6128 139.66 46Z" fill="#9F7830" stroke="white"/>
<path d="M168.516 35C168.516 36.3872 167.408 37.5 166.057 37.5C164.705 37.5 163.598 36.3872 163.598 35C163.598 33.6128 164.705 32.5 166.057 32.5C167.408 32.5 168.516 33.6128 168.516 35Z" fill="#9F7830" stroke="white"/>
<path d="M196.707 29C196.707 30.3872 195.6 31.5 194.248 31.5C192.896 31.5 191.789 30.3872 191.789 29C191.789 27.6128 192.896 26.5 194.248 26.5C195.6 26.5 196.707 27.6128 196.707 29Z" fill="#9F7830" stroke="white"/>
<g filter="url(#filter6_d_5257_16752)">
<ellipse cx="223.104" cy="20" rx="2.95906" ry="3" fill="#9F7830"/>
<path d="M225.563 20C225.563 21.3872 224.455 22.5 223.104 22.5C221.752 22.5 220.645 21.3872 220.645 20C220.645 18.6128 221.752 17.5 223.104 17.5C224.455 17.5 225.563 18.6128 225.563 20Z" stroke="white"/>
</g>
<path d="M253.754 14C253.754 15.3872 252.647 16.5 251.295 16.5C249.943 16.5 248.836 15.3872 248.836 14C248.836 12.6128 249.943 11.5 251.295 11.5C252.647 11.5 253.754 12.6128 253.754 14Z" fill="#9F7830" stroke="white"/>
<path d="M281.942 26C281.942 27.3872 280.834 28.5 279.482 28.5C278.131 28.5 277.023 27.3872 277.023 26C277.023 24.6128 278.131 23.5 279.482 23.5C280.834 23.5 281.942 24.6128 281.942 26Z" fill="#9F7830" stroke="white"/>
<path d="M310.801 16C310.801 17.3872 309.694 18.5 308.342 18.5C306.99 18.5 305.883 17.3872 305.883 16C305.883 14.6128 306.99 13.5 308.342 13.5C309.694 13.5 310.801 14.6128 310.801 16Z" fill="#9F7830" stroke="white"/>
<path d="M339.656 17C339.656 18.3872 338.549 19.5 337.197 19.5C335.846 19.5 334.738 18.3872 334.738 17C334.738 15.6128 335.846 14.5 337.197 14.5C338.549 14.5 339.656 15.6128 339.656 17Z" fill="#9F7830" stroke="white"/>
<path d="M82.6134 57C82.6134 58.3872 81.506 59.5 80.1544 59.5C78.8027 59.5 77.6953 58.3872 77.6953 57C77.6953 55.6128 78.8027 54.5 80.1544 54.5C81.506 54.5 82.6134 55.6128 82.6134 57Z" fill="#57C2FD" stroke="white"/>
<path d="M53.7541 64C53.7541 65.3872 52.6466 66.5 51.295 66.5C49.9434 66.5 48.8359 65.3872 48.8359 64C48.8359 62.6128 49.9434 61.5 51.295 61.5C52.6466 61.5 53.7541 62.6128 53.7541 64Z" fill="#57C2FD" stroke="white"/>
<path d="M111.473 37C111.473 38.3872 110.365 39.5 109.014 39.5C107.662 39.5 106.555 38.3872 106.555 37C106.555 35.6128 107.662 34.5 109.014 34.5C110.365 34.5 111.473 35.6128 111.473 37Z" fill="#57C2FD" stroke="white"/>
<path d="M139.66 40C139.66 41.3872 138.553 42.5 137.201 42.5C135.85 42.5 134.742 41.3872 134.742 40C134.742 38.6128 135.85 37.5 137.201 37.5C138.553 37.5 139.66 38.6128 139.66 40Z" fill="#57C2FD" stroke="white"/>
<path d="M168.516 22C168.516 23.3872 167.408 24.5 166.057 24.5C164.705 24.5 163.598 23.3872 163.598 22C163.598 20.6128 164.705 19.5 166.057 19.5C167.408 19.5 168.516 20.6128 168.516 22Z" fill="#57C2FD" stroke="white"/>
<path d="M196.707 23C196.707 24.3872 195.6 25.5 194.248 25.5C192.896 25.5 191.789 24.3872 191.789 23C191.789 21.6128 192.896 20.5 194.248 20.5C195.6 20.5 196.707 21.6128 196.707 23Z" fill="#57C2FD" stroke="white"/>
<g filter="url(#filter7_d_5257_16752)">
<ellipse cx="223.104" cy="12" rx="2.95906" ry="3" fill="#57C2FD"/>
<path d="M225.563 12C225.563 13.3872 224.455 14.5 223.104 14.5C221.752 14.5 220.645 13.3872 220.645 12C220.645 10.6128 221.752 9.5 223.104 9.5C224.455 9.5 225.563 10.6128 225.563 12Z" stroke="white"/>
</g>
<path d="M253.754 8C253.754 9.38721 252.647 10.5 251.295 10.5C249.943 10.5 248.836 9.38721 248.836 8C248.836 6.61279 249.943 5.5 251.295 5.5C252.647 5.5 253.754 6.61279 253.754 8Z" fill="#57C2FD" stroke="white"/>
<path d="M281.942 13C281.942 14.3872 280.834 15.5 279.482 15.5C278.131 15.5 277.023 14.3872 277.023 13C277.023 11.6128 278.131 10.5 279.482 10.5C280.834 10.5 281.942 11.6128 281.942 13Z" fill="#57C2FD" stroke="white"/>
<path d="M310.801 9C310.801 10.3872 309.694 11.5 308.342 11.5C306.99 11.5 305.883 10.3872 305.883 9C305.883 7.61279 306.99 6.5 308.342 6.5C309.694 6.5 310.801 7.61279 310.801 9Z" fill="#57C2FD" stroke="white"/>
<path d="M339.656 9C339.656 10.3872 338.549 11.5 337.197 11.5C335.846 11.5 334.738 10.3872 334.738 9C334.738 7.61279 335.846 6.5 337.197 6.5C338.549 6.5 339.656 7.61279 339.656 9Z" fill="#57C2FD" stroke="white"/>
<defs>
<filter id="filter0_d_5257_16752" x="218.145" y="87" width="9.91797" height="10" filterUnits="userSpaceOnUse" color-interpolation-filters="sRGB">
<feFlood flood-opacity="0" result="BackgroundImageFix"/>
<feColorMatrix in="SourceAlpha" type="matrix" values="0 0 0 0 0 0 0 0 0 0 0 0 0 0 0 0 0 0 127 0" result="hardAlpha"/>
<feOffset dy="1"/>
<feGaussianBlur stdDeviation="1"/>
<feComposite in2="hardAlpha" operator="out"/>
<feColorMatrix type="matrix" values="0 0 0 0 0 0 0 0 0 0 0 0 0 0 0 0 0 0 0.25 0"/>
<feBlend mode="normal" in2="BackgroundImageFix" result="effect1_dropShadow_5257_16752"/>
<feBlend mode="normal" in="SourceGraphic" in2="effect1_dropShadow_5257_16752" result="shape"/>
</filter>
<filter id="filter1_d_5257_16752" x="218.145" y="79" width="9.91797" height="10" filterUnits="userSpaceOnUse" color-interpolation-filters="sRGB">
<feFlood flood-opacity="0" result="BackgroundImageFix"/>
<feColorMatrix in="SourceAlpha" type="matrix" values="0 0 0 0 0 0 0 0 0 0 0 0 0 0 0 0 0 0 127 0" result="hardAlpha"/>
<feOffset dy="1"/>
<feGaussianBlur stdDeviation="1"/>
<feComposite in2="hardAlpha" operator="out"/>
<feColorMatrix type="matrix" values="0 0 0 0 0 0 0 0 0 0 0 0 0 0 0 0 0 0 0.25 0"/>
<feBlend mode="normal" in2="BackgroundImageFix" result="effect1_dropShadow_5257_16752"/>
<feBlend mode="normal" in="SourceGraphic" in2="effect1_dropShadow_5257_16752" result="shape"/>
</filter>
<filter id="filter2_d_5257_16752" x="218.145" y="64" width="9.91797" height="10" filterUnits="userSpaceOnUse" color-interpolation-filters="sRGB">
<feFlood flood-opacity="0" result="BackgroundImageFix"/>
<feColorMatrix in="SourceAlpha" type="matrix" values="0 0 0 0 0 0 0 0 0 0 0 0 0 0 0 0 0 0 127 0" result="hardAlpha"/>
<feOffset dy="1"/>
<feGaussianBlur stdDeviation="1"/>
<feComposite in2="hardAlpha" operator="out"/>
<feColorMatrix type="matrix" values="0 0 0 0 0 0 0 0 0 0 0 0 0 0 0 0 0 0 0.25 0"/>
<feBlend mode="normal" in2="BackgroundImageFix" result="effect1_dropShadow_5257_16752"/>
<feBlend mode="normal" in="SourceGraphic" in2="effect1_dropShadow_5257_16752" result="shape"/>
</filter>
<filter id="filter3_d_5257_16752" x="218.145" y="44" width="9.91797" height="10" filterUnits="userSpaceOnUse" color-interpolation-filters="sRGB">
<feFlood flood-opacity="0" result="BackgroundImageFix"/>
<feColorMatrix in="SourceAlpha" type="matrix" values="0 0 0 0 0 0 0 0 0 0 0 0 0 0 0 0 0 0 127 0" result="hardAlpha"/>
<feOffset dy="1"/>
<feGaussianBlur stdDeviation="1"/>
<feComposite in2="hardAlpha" operator="out"/>
<feColorMatrix type="matrix" values="0 0 0 0 0 0 0 0 0 0 0 0 0 0 0 0 0 0 0.25 0"/>
<feBlend mode="normal" in2="BackgroundImageFix" result="effect1_dropShadow_5257_16752"/>
<feBlend mode="normal" in="SourceGraphic" in2="effect1_dropShadow_5257_16752" result="shape"/>
</filter>
<filter id="filter4_d_5257_16752" x="218.145" y="33" width="9.91797" height="10" filterUnits="userSpaceOnUse" color-interpolation-filters="sRGB">
<feFlood flood-opacity="0" result="BackgroundImageFix"/>
<feColorMatrix in="SourceAlpha" type="matrix" values="0 0 0 0 0 0 0 0 0 0 0 0 0 0 0 0 0 0 127 0" result="hardAlpha"/>
<feOffset dy="1"/>
<feGaussianBlur stdDeviation="1"/>
<feComposite in2="hardAlpha" operator="out"/>
<feColorMatrix type="matrix" values="0 0 0 0 0 0 0 0 0 0 0 0 0 0 0 0 0 0 0.25 0"/>
<feBlend mode="normal" in2="BackgroundImageFix" result="effect1_dropShadow_5257_16752"/>
<feBlend mode="normal" in="SourceGraphic" in2="effect1_dropShadow_5257_16752" result="shape"/>
</filter>
<filter id="filter5_d_5257_16752" x="218.145" y="25" width="9.91797" height="10" filterUnits="userSpaceOnUse" color-interpolation-filters="sRGB">
<feFlood flood-opacity="0" result="BackgroundImageFix"/>
<feColorMatrix in="SourceAlpha" type="matrix" values="0 0 0 0 0 0 0 0 0 0 0 0 0 0 0 0 0 0 127 0" result="hardAlpha"/>
<feOffset dy="1"/>
<feGaussianBlur stdDeviation="1"/>
<feComposite in2="hardAlpha" operator="out"/>
<feColorMatrix type="matrix" values="0 0 0 0 0 0 0 0 0 0 0 0 0 0 0 0 0 0 0.25 0"/>
<feBlend mode="normal" in2="BackgroundImageFix" result="effect1_dropShadow_5257_16752"/>
<feBlend mode="normal" in="SourceGraphic" in2="effect1_dropShadow_5257_16752" result="shape"/>
</filter>
<filter id="filter6_d_5257_16752" x="218.145" y="16" width="9.91797" height="10" filterUnits="userSpaceOnUse" color-interpolation-filters="sRGB">
<feFlood flood-opacity="0" result="BackgroundImageFix"/>
<feColorMatrix in="SourceAlpha" type="matrix" values="0 0 0 0 0 0 0 0 0 0 0 0 0 0 0 0 0 0 127 0" result="hardAlpha"/>
<feOffset dy="1"/>
<feGaussianBlur stdDeviation="1"/>
<feComposite in2="hardAlpha" operator="out"/>
<feColorMatrix type="matrix" values="0 0 0 0 0 0 0 0 0 0 0 0 0 0 0 0 0 0 0.25 0"/>
<feBlend mode="normal" in2="BackgroundImageFix" result="effect1_dropShadow_5257_16752"/>
<feBlend mode="normal" in="SourceGraphic" in2="effect1_dropShadow_5257_16752" result="shape"/>
</filter>
<filter id="filter7_d_5257_16752" x="218.145" y="8" width="9.91797" height="10" filterUnits="userSpaceOnUse" color-interpolation-filters="sRGB">
<feFlood flood-opacity="0" result="BackgroundImageFix"/>
<feColorMatrix in="SourceAlpha" type="matrix" values="0 0 0 0 0 0 0 0 0 0 0 0 0 0 0 0 0 0 127 0" result="hardAlpha"/>
<feOffset dy="1"/>
<feGaussianBlur stdDeviation="1"/>
<feComposite in2="hardAlpha" operator="out"/>
<feColorMatrix type="matrix" values="0 0 0 0 0 0 0 0 0 0 0 0 0 0 0 0 0 0 0.25 0"/>
<feBlend mode="normal" in2="BackgroundImageFix" result="effect1_dropShadow_5257_16752"/>
<feBlend mode="normal" in="SourceGraphic" in2="effect1_dropShadow_5257_16752" result="shape"/>
</filter>
</defs>
</svg>
