<svg width="265" height="30" viewBox="0 0 265 30" fill="none" xmlns="http://www.w3.org/2000/svg">
<path fill-rule="evenodd" clip-rule="evenodd" d="M10.7812 26.25H0V15.4688C2.65625 16.1562 4.94531 17.4609 6.86719 19.3828C8.78906 21.3047 10.0938 23.5938 10.7812 26.25ZM18.75 30C18.75 25.8125 17.2969 22.2656 14.3906 19.3594C11.4844 16.4531 7.9375 15 3.75 15C3.09375 15 2.46094 15.0391 1.85156 15.1172C1.24219 15.1953 0.625 15.3125 0 15.4688V0H8.8125C10.1875 1.75 11.25 3.6875 12 5.8125C12.75 7.9375 13.125 10.1875 13.125 12.5625C13.125 12.75 13.1094 12.9453 13.0781 13.1484C13.0469 13.3516 13.0313 13.5469 13.0313 13.7344C13.4375 13.9844 13.8281 14.2344 14.2031 14.4844C14.5781 14.7344 14.9531 15 15.3281 15.2813C15.5156 14.1875 15.8125 13.1172 16.2188 12.0703C16.625 11.0234 17.1094 10.0312 17.6719 9.09375C16.8594 7.03125 15.6953 5.21094 14.1797 3.63281C12.6641 2.05469 10.875 0.84375 8.8125 0H54.3125C55.6875 1.75 56.75 3.6875 57.5 5.8125C58.25 7.9375 58.625 10.1875 58.625 12.5625C58.625 12.75 58.6094 12.9453 58.5781 13.1484C58.5469 13.3516 58.5312 13.5469 58.5312 13.7344C58.9375 13.9844 59.3281 14.2344 59.7031 14.4844C60.0781 14.7344 60.4531 15 60.8281 15.2813C61.0156 14.1875 61.3125 13.1172 61.7188 12.0703C62.125 11.0234 62.6094 10.0312 63.1719 9.09375C62.3594 7.03125 61.1953 5.21094 59.6797 3.63281C58.1641 2.05469 56.375 0.84375 54.3125 0H99.8125C101.188 1.75 102.25 3.6875 103 5.8125C103.75 7.9375 104.125 10.1875 104.125 12.5625C104.125 12.75 104.109 12.9453 104.078 13.1484C104.047 13.3516 104.031 13.5469 104.031 13.7344C104.438 13.9844 104.828 14.2344 105.203 14.4844C105.578 14.7344 105.953 15 106.328 15.2813C106.516 14.1875 106.812 13.1172 107.219 12.0703C107.625 11.0234 108.109 10.0312 108.672 9.09375C107.859 7.03125 106.695 5.21094 105.18 3.63281C103.664 2.05469 101.875 0.84375 99.8125 0H145.312C146.688 1.75 147.75 3.6875 148.5 5.8125C149.25 7.9375 149.625 10.1875 149.625 12.5625C149.625 12.75 149.609 12.9453 149.578 13.1484C149.547 13.3516 149.531 13.5469 149.531 13.7344C149.938 13.9844 150.328 14.2344 150.703 14.4844C151.078 14.7344 151.453 15 151.828 15.2813C152.016 14.1875 152.312 13.1172 152.719 12.0703C153.125 11.0234 153.609 10.0312 154.172 9.09375C153.359 7.03125 152.195 5.21094 150.68 3.63281C149.164 2.05469 147.375 0.84375 145.312 0H190.812C192.188 1.75 193.25 3.6875 194 5.8125C194.75 7.9375 195.125 10.1875 195.125 12.5625C195.125 12.75 195.109 12.9453 195.078 13.1484C195.047 13.3516 195.031 13.5469 195.031 13.7344C195.438 13.9844 195.828 14.2344 196.203 14.4844C196.578 14.7344 196.953 15 197.328 15.2813C197.516 14.1875 197.812 13.1172 198.219 12.0703C198.625 11.0234 199.109 10.0312 199.672 9.09375C198.859 7.03125 197.695 5.21094 196.18 3.63281C194.664 2.05469 192.875 0.84375 190.812 0H236.312C237.688 1.75 238.75 3.6875 239.5 5.8125C240.25 7.9375 240.625 10.1875 240.625 12.5625C240.625 12.75 240.609 12.9453 240.578 13.1484C240.547 13.3516 240.531 13.5469 240.531 13.7344C240.938 13.9844 241.328 14.2344 241.703 14.4844C242.078 14.7344 242.453 15 242.828 15.2813C243.016 14.1875 243.312 13.1172 243.719 12.0703C244.125 11.0234 244.609 10.0312 245.172 9.09375C244.359 7.03125 243.195 5.21094 241.68 3.63281C240.164 2.05469 238.375 0.84375 236.312 0H265V15.4688C264.375 15.3125 263.758 15.1953 263.148 15.1172C262.539 15.0391 261.906 15 261.25 15C258.5 15 255.992 15.6719 253.727 17.0156C251.461 18.3594 249.672 20.1406 248.359 22.3594C248.891 23.5469 249.297 24.7891 249.578 26.0859C249.859 27.3828 250 28.6875 250 30H246.25C246.25 25.8125 244.797 22.2656 241.891 19.3594C238.984 16.4531 235.438 15 231.25 15C230.594 15 229.961 15.0391 229.352 15.1172C228.742 15.1953 228.125 15.3125 227.5 15.4688C230.156 16.1562 232.445 17.4609 234.367 19.3828C236.289 21.3047 237.594 23.5938 238.281 26.25H227.5V30H219.5V26.25H208.719C209.438 23.5938 210.75 21.3047 212.656 19.3828C214.562 17.4609 216.844 16.1562 219.5 15.4688C218.875 15.3125 218.258 15.1953 217.648 15.1172C217.039 15.0391 216.406 15 215.75 15C213 15 210.492 15.6719 208.227 17.0156C205.961 18.3594 204.172 20.1406 202.859 22.3594C203.391 23.5469 203.797 24.7891 204.078 26.0859C204.359 27.3828 204.5 28.6875 204.5 30H200.75C200.75 25.8125 199.297 22.2656 196.391 19.3594C193.484 16.4531 189.938 15 185.75 15C185.094 15 184.461 15.0391 183.852 15.1172C183.242 15.1953 182.625 15.3125 182 15.4688C184.656 16.1562 186.945 17.4609 188.867 19.3828C190.789 21.3047 192.094 23.5938 192.781 26.25H182V30H174V26.25H163.219C163.938 23.5938 165.25 21.3047 167.156 19.3828C169.062 17.4609 171.344 16.1562 174 15.4688C173.375 15.3125 172.758 15.1953 172.148 15.1172C171.539 15.0391 170.906 15 170.25 15C167.5 15 164.992 15.6719 162.727 17.0156C160.461 18.3594 158.672 20.1406 157.359 22.3594C157.891 23.5469 158.297 24.7891 158.578 26.0859C158.859 27.3828 159 28.6875 159 30H155.25C155.25 25.8125 153.797 22.2656 150.891 19.3594C147.984 16.4531 144.438 15 140.25 15C139.594 15 138.961 15.0391 138.352 15.1172C137.742 15.1953 137.125 15.3125 136.5 15.4688C139.156 16.1562 141.445 17.4609 143.367 19.3828C145.289 21.3047 146.594 23.5938 147.281 26.25H136.5V30H128.5V26.25H117.719C118.438 23.5938 119.75 21.3047 121.656 19.3828C123.562 17.4609 125.844 16.1562 128.5 15.4688C127.875 15.3125 127.258 15.1953 126.648 15.1172C126.039 15.0391 125.406 15 124.75 15C122 15 119.492 15.6719 117.227 17.0156C114.961 18.3594 113.172 20.1406 111.859 22.3594C112.391 23.5469 112.797 24.7891 113.078 26.0859C113.359 27.3828 113.5 28.6875 113.5 30H109.75C109.75 25.8125 108.297 22.2656 105.391 19.3594C102.484 16.4531 98.9375 15 94.75 15C94.0938 15 93.4609 15.0391 92.8516 15.1172C92.2422 15.1953 91.625 15.3125 91 15.4688C93.6562 16.1562 95.9453 17.4609 97.8672 19.3828C99.7891 21.3047 101.094 23.5938 101.781 26.25H91V30H83V26.25H72.2188C72.9375 23.5938 74.25 21.3047 76.1562 19.3828C78.0625 17.4609 80.3438 16.1562 83 15.4688C82.375 15.3125 81.7578 15.1953 81.1484 15.1172C80.5391 15.0391 79.9062 15 79.25 15C76.5 15 73.9922 15.6719 71.7266 17.0156C69.4609 18.3594 67.6719 20.1406 66.3594 22.3594C66.8906 23.5469 67.2969 24.7891 67.5781 26.0859C67.8594 27.3828 68 28.6875 68 30H64.25C64.25 25.8125 62.7969 22.2656 59.8906 19.3594C56.9844 16.4531 53.4375 15 49.25 15C48.5938 15 47.9609 15.0391 47.3516 15.1172C46.7422 15.1953 46.125 15.3125 45.5 15.4688C48.1562 16.1562 50.4453 17.4609 52.3672 19.3828C54.2891 21.3047 55.5938 23.5938 56.2812 26.25H45.5V30H37.5V26.25H26.7188C27.4375 23.5938 28.75 21.3047 30.6562 19.3828C32.5625 17.4609 34.8438 16.1562 37.5 15.4688C36.875 15.3125 36.2578 15.1953 35.6484 15.1172C35.0391 15.0391 34.4062 15 33.75 15C31 15 28.4922 15.6719 26.2266 17.0156C23.9609 18.3594 22.1719 20.1406 20.8594 22.3594C21.3906 23.5469 21.7969 24.7891 22.0781 26.0859C22.3594 27.3828 22.5 28.6875 22.5 30H18.75ZM265 26.25H254.219C254.938 23.5938 256.25 21.3047 258.156 19.3828C260.062 17.4609 262.344 16.1562 265 15.4688V26.25ZM19.875 13.0781C19.125 14.8594 18.75 16.7656 18.75 18.7969C19.6562 17.6094 20.6797 16.5391 21.8203 15.5859C22.9609 14.6328 24.2188 13.8281 25.5938 13.1719C26.3125 11.2031 27.3281 9.42188 28.6406 7.82813C29.9531 6.23438 31.4844 4.89063 33.2344 3.79688C31.2344 3.85938 29.3516 4.29688 27.5859 5.10938C25.8203 5.92188 24.2812 7.00781 22.9688 8.36719C21.6562 9.72656 20.625 11.2969 19.875 13.0781ZM65.375 13.0781C64.625 14.8594 64.25 16.7656 64.25 18.7969C65.1562 17.6094 66.1797 16.5391 67.3203 15.5859C68.4609 14.6328 69.7188 13.8281 71.0938 13.1719C71.8125 11.2031 72.8281 9.42188 74.1406 7.82813C75.4531 6.23438 76.9844 4.89063 78.7344 3.79688C76.7344 3.85938 74.8516 4.29688 73.0859 5.10938C71.3203 5.92188 69.7812 7.00781 68.4688 8.36719C67.1562 9.72656 66.125 11.2969 65.375 13.0781ZM109.75 18.7969C109.75 16.7656 110.125 14.8594 110.875 13.0781C111.625 11.2969 112.656 9.72656 113.969 8.36719C115.281 7.00781 116.82 5.92188 118.586 5.10938C120.352 4.29688 122.234 3.85938 124.234 3.79688C122.484 4.89063 120.953 6.23438 119.641 7.82813C118.328 9.42188 117.312 11.2031 116.594 13.1719C115.219 13.8281 113.961 14.6328 112.82 15.5859C111.68 16.5391 110.656 17.6094 109.75 18.7969ZM156.375 13.0781C155.625 14.8594 155.25 16.7656 155.25 18.7969C156.156 17.6094 157.18 16.5391 158.32 15.5859C159.461 14.6328 160.719 13.8281 162.094 13.1719C162.812 11.2031 163.828 9.42188 165.141 7.82813C166.453 6.23438 167.984 4.89063 169.734 3.79688C167.734 3.85938 165.852 4.29688 164.086 5.10938C162.32 5.92188 160.781 7.00781 159.469 8.36719C158.156 9.72656 157.125 11.2969 156.375 13.0781ZM200.75 18.7969C200.75 16.7656 201.125 14.8594 201.875 13.0781C202.625 11.2969 203.656 9.72656 204.969 8.36719C206.281 7.00781 207.82 5.92188 209.586 5.10938C211.352 4.29688 213.234 3.85938 215.234 3.79688C213.484 4.89063 211.953 6.23438 210.641 7.82813C209.328 9.42188 208.312 11.2031 207.594 13.1719C206.219 13.8281 204.961 14.6328 203.82 15.5859C202.68 16.5391 201.656 17.6094 200.75 18.7969ZM247.375 13.0781C246.625 14.8594 246.25 16.7656 246.25 18.7969C247.156 17.6094 248.18 16.5391 249.32 15.5859C250.461 14.6328 251.719 13.8281 253.094 13.1719C253.812 11.2031 254.828 9.42188 256.141 7.82813C257.453 6.23438 258.984 4.89063 260.734 3.79688C258.734 3.85938 256.852 4.29688 255.086 5.10938C253.32 5.92188 251.781 7.00781 250.469 8.36719C249.156 9.72656 248.125 11.2969 247.375 13.0781Z" fill="white"/>
</svg>
