<svg width="242" height="40" viewBox="0 0 242 40" fill="none" xmlns="http://www.w3.org/2000/svg">
<path fill-rule="evenodd" clip-rule="evenodd" d="M16.925 0H0V22.4928V40H16.8402H58.5041H100.168H141.832H183.496H225.16H242V22.4928V0H225.245H183.581C184.069 9.1161e-05 184.493 0.186834 184.852 0.56023L189.671 5.56923C190.045 5.95827 190.232 6.41216 190.232 6.9309C190.232 7.44963 190.045 7.90352 189.671 8.29256L184.852 13.3016C184.478 13.6906 184.034 13.877 183.519 13.8608C183.005 13.8446 182.56 13.642 182.186 13.2529C181.843 12.8639 181.664 12.41 181.648 11.8913C181.633 11.3725 181.812 10.9186 182.186 10.5296L183.777 8.87614H183.496C179.847 8.87614 176.752 10.1973 174.21 12.8396C171.669 15.4819 170.398 18.6996 170.398 22.4928C170.398 26.286 171.669 29.5038 174.21 32.1461C174.873 32.8354 175.574 33.4349 176.313 33.9444C176.668 33.3946 177.351 32.4367 178.059 31.9896C179.083 31.3423 180.262 30.9356 181.596 30.7696C181.498 30.0724 181.368 29.3753 181.206 28.6782C181.043 27.981 180.848 27.3336 180.62 26.7361C180.262 27.0349 179.872 27.2673 179.449 27.4332C179.026 27.5992 178.571 27.6822 178.083 27.6822C177.01 27.6822 176.091 27.2922 175.327 26.512C174.563 25.7319 174.18 24.794 174.18 23.6985V21.7067C174.18 21.1423 174.091 20.6111 173.912 20.1132C173.733 19.6152 173.497 19.1504 173.205 18.7189C174.831 18.6857 176.278 18.8351 177.547 19.167C178.652 19.4658 179.661 19.9555 180.571 20.636C181.482 21.3166 181.954 22.3374 181.986 23.6985C181.986 23.9973 181.962 24.2712 181.913 24.5202C181.864 24.7691 181.775 25.0264 181.645 25.292C181.222 24.96 180.799 24.6612 180.376 24.3957C179.953 24.1301 179.514 23.8977 179.059 23.6985C179.612 24.1301 180.246 24.794 180.962 25.6904C181.677 26.5867 182.344 27.649 182.962 28.8773C183.612 27.2507 184.426 25.6489 185.401 24.072C186.377 22.4951 187.515 21.0427 188.816 19.7148C188.068 20.246 187.353 20.8103 186.67 21.4079C185.987 22.0054 185.32 22.6362 184.669 23.3001C184.442 22.935 184.263 22.5283 184.133 22.0801C184.003 21.632 183.938 21.1755 183.938 20.7107C183.938 19.3164 184.409 18.1379 185.352 17.1752C186.296 16.2125 187.45 15.7311 188.816 15.7311H190.768C191.516 15.7311 192.134 15.6315 192.622 15.4323C193.109 15.2331 193.516 15.0008 193.841 14.7352C194.199 14.4364 194.476 14.1044 194.671 13.7392C194.801 15.9635 194.687 17.9553 194.329 19.7148C194.036 21.2087 193.484 22.5781 192.67 23.823C191.857 25.0679 190.573 25.6904 188.816 25.6904C188.328 25.6904 187.865 25.624 187.426 25.4912C186.987 25.3584 186.588 25.1758 186.231 24.9434C186.003 25.5742 185.743 26.4124 185.45 27.4581C185.157 28.5039 184.93 29.6243 184.767 30.8194C186.003 31.0518 187.092 31.4833 188.036 32.1141C189.177 32.8771 190.027 34.3549 190.027 34.3549L190.015 34.365L189.987 34.389C190.983 33.7951 191.914 33.0475 192.781 32.1461C195.323 29.5038 196.594 26.286 196.594 22.4928C196.594 21.9417 196.773 21.4797 197.132 21.1068C197.49 20.734 197.935 20.5476 198.465 20.5476C198.995 20.5476 199.439 20.734 199.798 21.1068C200.157 21.4797 200.336 21.9417 200.336 22.4928C200.336 24.9244 199.892 27.2019 199.003 29.3255C198.114 31.449 196.913 33.297 195.401 34.8694C193.888 36.4418 192.111 37.69 190.068 38.614C188.026 39.538 185.835 40 183.496 40C181.157 40 178.966 39.538 176.924 38.614C174.881 37.69 173.103 36.4418 171.591 34.8694C170.078 33.297 168.878 31.449 167.989 29.3255C167.1 27.2019 166.656 24.9244 166.656 22.4928C166.656 20.0613 167.1 17.7837 167.989 15.6602C168.878 13.5366 170.078 11.6886 171.591 10.1162C173.103 8.54383 174.881 7.29563 176.924 6.37164C178.966 5.44765 181.157 4.98565 183.496 4.98565H183.777L182.186 3.3322C181.812 2.94315 181.633 2.48926 181.648 1.97053C181.664 1.4518 181.843 0.997909 182.186 0.608861C182.56 0.219812 183.005 0.017183 183.519 0.000972621C183.54 0.000329273 183.56 5.02616e-06 183.58 0H141.917H100.253C100.742 9.1161e-05 101.165 0.186834 101.525 0.56023L106.343 5.56923C106.717 5.95827 106.904 6.41216 106.904 6.9309C106.904 7.44963 106.717 7.90352 106.343 8.29256L101.525 13.3016C101.15 13.6906 100.706 13.877 100.191 13.8608C99.6769 13.8446 99.2325 13.642 98.8582 13.2529C98.5152 12.8639 98.3359 12.41 98.3203 11.8913C98.3047 11.3725 98.484 10.9186 98.8582 10.5296L100.449 8.87614H100.168C96.5193 8.87614 93.4242 10.1973 90.8825 12.8396C88.3409 15.4819 87.0701 18.6996 87.0701 22.4928C87.0701 26.286 88.3409 29.5038 90.8825 32.1461C91.5456 32.8354 92.2464 33.4349 92.9848 33.9444C93.3399 33.3946 94.0234 32.4367 94.731 31.9896C95.7556 31.3423 96.9346 30.9356 98.2681 30.7696C98.1705 30.0724 98.0404 29.3753 97.8778 28.6782C97.7151 27.981 97.52 27.3336 97.2923 26.7361C96.9346 27.0349 96.5443 27.2673 96.1215 27.4332C95.6986 27.5992 95.2433 27.6822 94.7554 27.6822C93.6821 27.6822 92.7633 27.2922 91.999 26.512C91.2347 25.7319 90.8525 24.794 90.8525 23.6985V21.7067C90.8525 21.1423 90.7631 20.6111 90.5842 20.1132C90.4053 19.6152 90.1695 19.1504 89.8768 18.7189C91.503 18.6857 92.9503 18.8351 94.2188 19.167C95.3246 19.4658 96.3329 19.9555 97.2436 20.636C98.1542 21.3166 98.6258 22.3374 98.6583 23.6985C98.6583 23.9973 98.634 24.2712 98.5852 24.5202C98.5364 24.7691 98.4469 25.0264 98.3168 25.292C97.894 24.96 97.4712 24.6612 97.0484 24.3957C96.6256 24.1301 96.1865 23.8977 95.7312 23.6985C96.2841 24.1301 96.9183 24.794 97.6338 25.6904C98.3494 26.5867 99.0161 27.649 99.6341 28.8773C100.285 27.2507 101.098 25.6489 102.073 24.072C103.049 22.4951 104.187 21.0427 105.488 19.7148C104.74 20.246 104.025 20.8103 103.342 21.4079C102.659 22.0054 101.992 22.6362 101.342 23.3001C101.114 22.935 100.935 22.5283 100.805 22.0801C100.675 21.632 100.61 21.1755 100.61 20.7107C100.61 19.3164 101.081 18.1379 102.025 17.1752C102.968 16.2125 104.122 15.7311 105.488 15.7311H107.44C108.188 15.7311 108.806 15.6315 109.294 15.4323C109.782 15.2331 110.188 15.0008 110.513 14.7352C110.871 14.4364 111.148 14.1044 111.343 13.7392C111.473 15.9635 111.359 17.9553 111.001 19.7148C110.709 21.2087 110.156 22.5781 109.343 23.823C108.529 25.0679 107.245 25.6904 105.488 25.6904C105.001 25.6904 104.537 25.624 104.098 25.4912C103.659 25.3584 103.261 25.1758 102.903 24.9434C102.675 25.5742 102.415 26.4124 102.122 27.4581C101.829 28.5039 101.602 29.6243 101.439 30.8194C102.675 31.0518 103.765 31.4833 104.708 32.1141C105.849 32.8771 106.699 34.3549 106.699 34.3549L106.687 34.3658L106.659 34.389C107.655 33.7951 108.587 33.0475 109.454 32.1461C111.995 29.5038 113.266 26.286 113.266 22.4928C113.266 21.9417 113.445 21.4797 113.804 21.1068C114.163 20.734 114.607 20.5476 115.137 20.5476C115.667 20.5476 116.112 20.734 116.47 21.1068C116.829 21.4797 117.008 21.9417 117.008 22.4928C117.008 24.9244 116.564 27.2019 115.675 29.3255C114.786 31.449 113.586 33.297 112.073 34.8694C110.561 36.4418 108.783 37.69 106.74 38.614C104.698 39.538 102.507 40 100.168 40C97.8291 40 95.6383 39.538 93.5957 38.614C91.553 37.69 89.7755 36.4418 88.263 34.8694C86.7505 33.297 85.5498 31.449 84.661 29.3255C83.7722 27.2019 83.3278 24.9244 83.3278 22.4928C83.3278 20.0613 83.7722 17.7837 84.661 15.6602C85.5498 13.5366 86.7505 11.6886 88.263 10.1162C89.7755 8.54383 91.553 7.29563 93.5957 6.37164C95.6383 5.44765 97.8291 4.98565 100.168 4.98565H100.449L98.8582 3.3322C98.484 2.94315 98.3047 2.48926 98.3203 1.97053C98.3359 1.4518 98.5152 0.997909 98.8582 0.608861C99.2325 0.219812 99.6769 0.017183 100.191 0.000972621C100.212 0.000329273 100.232 5.02616e-06 100.252 0H58.5889H16.925ZM16.925 0C17.4136 0 17.8375 0.186743 18.1968 0.56023L23.0149 5.56923C23.3892 5.95827 23.5763 6.41216 23.5763 6.9309C23.5763 7.44963 23.3892 7.90352 23.0149 8.29256L18.1968 13.3016C17.8225 13.6906 17.3782 13.877 16.8636 13.8608C16.349 13.8446 15.9046 13.642 15.5304 13.2529C15.1874 12.8639 15.0081 12.41 14.9925 11.8913C14.9769 11.3725 15.1562 10.9186 15.5304 10.5296L17.1209 8.87614H16.8402C13.1915 8.87614 10.0963 10.1973 7.5547 12.8396C5.01308 15.4819 3.74227 18.6996 3.74227 22.4928C3.74227 26.286 5.01308 29.5038 7.5547 32.1461C8.21778 32.8354 8.91854 33.4349 9.65697 33.9444C10.0121 33.3946 10.6956 32.4367 11.4032 31.9896C12.4277 31.3423 13.6067 30.9356 14.9402 30.7696C14.8427 30.0724 14.7126 29.3753 14.5499 28.6782C14.3873 27.981 14.1922 27.3336 13.9645 26.7361C13.6067 27.0349 13.2164 27.2673 12.7936 27.4332C12.3708 27.5992 11.9155 27.6822 11.4276 27.6822C10.3543 27.6822 9.4355 27.2922 8.67118 26.512C7.90686 25.7319 7.5247 24.794 7.5247 23.6985V21.7067C7.5247 21.1423 7.43526 20.6111 7.25637 20.1132C7.07749 19.6152 6.84169 19.1504 6.54897 18.7189C8.17518 18.6857 9.62251 18.8351 10.891 19.167C11.9968 19.4658 13.005 19.9555 13.9157 20.636C14.8264 21.3166 15.298 22.3374 15.3305 23.6985C15.3305 23.9973 15.3061 24.2712 15.2573 24.5202C15.2086 24.7691 15.1191 25.0264 14.989 25.292C14.5662 24.96 14.1434 24.6612 13.7206 24.3957C13.2978 24.1301 12.8587 23.8977 12.4033 23.6985C12.9562 24.1301 13.5905 24.794 14.306 25.6904C15.0215 26.5867 15.6883 27.649 16.3062 28.8773C16.9567 27.2507 17.7698 25.6489 18.7456 24.072C19.7213 22.4951 20.8596 21.0427 22.1606 19.7148C21.4125 20.246 20.697 20.8103 20.014 21.4079C19.331 22.0054 18.6642 22.6362 18.0138 23.3001C17.7861 22.935 17.6072 22.5283 17.4771 22.0801C17.347 21.632 17.282 21.1755 17.282 20.7107C17.282 19.3164 17.7536 18.1379 18.6968 17.1752C19.64 16.2125 20.7946 15.7311 22.1606 15.7311H24.1121C24.8601 15.7311 25.4781 15.6315 25.9659 15.4323C26.4538 15.2331 26.8604 15.0008 27.1856 14.7352C27.5434 14.4364 27.8198 14.1044 28.015 13.7392C28.1451 15.9635 28.0312 17.9553 27.6735 19.7148C27.3807 21.2087 26.8278 22.5781 26.0147 23.823C25.2016 25.0679 23.9169 25.6904 22.1606 25.6904C21.6727 25.6904 21.2093 25.624 20.7702 25.4912C20.3311 25.3584 19.9327 25.1758 19.5749 24.9434C19.3473 25.5742 19.0871 26.4124 18.7943 27.4581C18.5016 28.5039 18.274 29.6243 18.1113 30.8194C19.3473 31.0518 20.4368 31.4833 21.38 32.1141C22.521 32.8771 23.3713 34.3549 23.3713 34.3549C23.3713 34.3549 23.3578 34.3668 23.3314 34.389C24.3272 33.7951 25.2587 33.0475 26.1257 32.1461C28.6673 29.5038 29.9381 26.286 29.9381 22.4928C29.9381 21.9417 30.1175 21.4797 30.4761 21.1068C30.8347 20.734 31.2791 20.5476 31.8093 20.5476C32.3394 20.5476 32.7838 20.734 33.1425 21.1068C33.5011 21.4797 33.6804 21.9417 33.6804 22.4928C33.6804 24.9244 33.236 27.2019 32.3472 29.3255C31.4584 31.449 30.2578 33.297 28.7453 34.8694C27.2328 36.4418 25.4552 37.69 23.4126 38.614C21.3699 39.538 19.1791 40 16.8402 40C14.5013 40 12.3105 39.538 10.2678 38.614C8.22519 37.69 6.44762 36.4418 4.93512 34.8694C3.42262 33.297 2.22197 31.449 1.33318 29.3255C0.444394 27.2019 0 24.9244 0 22.4928C0 20.0613 0.444394 17.7837 1.33318 15.6602C2.22197 13.5366 3.42262 11.6886 4.93512 10.1162C6.44762 8.54383 8.22519 7.29563 10.2678 6.37164C12.3105 5.44765 14.5013 4.98565 16.8402 4.98565H17.1209L15.5304 3.3322C15.1562 2.94315 14.9769 2.48926 14.9925 1.97053C15.0081 1.4518 15.1874 0.997909 15.5304 0.608861C15.9046 0.219812 16.349 0.017183 16.8636 0.000972621C16.8842 0.000324207 16.9046 0 16.925 0ZM58.5889 0C59.0775 0 59.5014 0.186743 59.8607 0.56023L64.6789 5.56923C65.0531 5.95827 65.2402 6.41216 65.2402 6.9309C65.2402 7.44963 65.0531 7.90352 64.6789 8.29256L59.8607 13.3016C59.4865 13.6906 59.0421 13.877 58.5275 13.8608C58.013 13.8446 57.5686 13.642 57.1943 13.2529C56.8513 12.8639 56.672 12.41 56.6564 11.8913C56.6408 11.3725 56.8201 10.9186 57.1943 10.5296L58.7848 8.87614H58.5041C54.8554 8.87614 51.7602 10.1973 49.2186 12.8396C46.677 15.4819 45.4062 18.6996 45.4062 22.4928C45.4062 26.286 46.677 29.5038 49.2186 32.1461C49.8817 32.8354 50.5825 33.4349 51.3209 33.9444C51.676 33.3946 52.3595 32.4367 53.0671 31.9896C54.0916 31.3423 55.2706 30.9356 56.6041 30.7696C56.5066 30.0724 56.3765 29.3753 56.2139 28.6782C56.0512 27.981 55.8561 27.3336 55.6284 26.7361C55.2706 27.0349 54.8804 27.2673 54.4575 27.4332C54.0347 27.5992 53.5794 27.6822 53.0915 27.6822C52.0182 27.6822 51.0994 27.2922 50.3351 26.512C49.5708 25.7319 49.1886 24.794 49.1886 23.6985V21.7067C49.1886 21.1423 49.0992 20.6111 48.9203 20.1132C48.7414 19.6152 48.5056 19.1504 48.2129 18.7189C49.8391 18.6857 51.2864 18.8351 52.5549 19.167C53.6607 19.4658 54.6689 19.9555 55.5796 20.636C56.4903 21.3166 56.9619 22.3374 56.9944 23.6985C56.9944 23.9973 56.97 24.2712 56.9213 24.5202C56.8725 24.7691 56.783 25.0264 56.6529 25.292C56.2301 24.96 55.8073 24.6612 55.3845 24.3957C54.9617 24.1301 54.5226 23.8977 54.0673 23.6985C54.6202 24.1301 55.2544 24.794 55.9699 25.6904C56.6855 26.5867 57.3522 27.649 57.9702 28.8773C58.6206 27.2507 59.4338 25.6489 60.4095 24.072C61.3852 22.4951 62.5236 21.0427 63.8245 19.7148C63.0765 20.246 62.3609 20.8103 61.6779 21.4079C60.9949 22.0054 60.3282 22.6362 59.6777 23.3001C59.45 22.935 59.2711 22.5283 59.141 22.0801C59.0109 21.632 58.9459 21.1755 58.9459 20.7107C58.9459 19.3164 59.4175 18.1379 60.3607 17.1752C61.3039 16.2125 62.4585 15.7311 63.8245 15.7311H65.776C66.524 15.7311 67.142 15.6315 67.6299 15.4323C68.1177 15.2331 68.5243 15.0008 68.8495 14.7352C69.2073 14.4364 69.4837 14.1044 69.6789 13.7392C69.809 15.9635 69.6952 17.9553 69.3374 19.7148C69.0447 21.2087 68.4918 22.5781 67.6786 23.823C66.8655 25.0679 65.5808 25.6904 63.8245 25.6904C63.3367 25.6904 62.8732 25.624 62.4341 25.4912C61.995 25.3584 61.5966 25.1758 61.2388 24.9434C61.0112 25.5742 60.751 26.4124 60.4583 27.4581C60.1656 28.5039 59.9379 29.6243 59.7753 30.8194C61.0112 31.0518 62.1007 31.4833 63.0439 32.1141C64.1849 32.8771 65.0352 34.3549 65.0352 34.3549L65.022 34.3663L64.9953 34.389C65.9912 33.7951 66.9226 33.0475 67.7896 32.1461C70.3313 29.5038 71.6021 26.286 71.6021 22.4928C71.6021 21.9417 71.7814 21.4797 72.14 21.1068C72.4986 20.734 72.943 20.5476 73.4732 20.5476C74.0033 20.5476 74.4477 20.734 74.8064 21.1068C75.165 21.4797 75.3443 21.9417 75.3443 22.4928C75.3443 24.9244 74.8999 27.2019 74.0111 29.3255C73.1224 31.449 71.9217 33.297 70.4092 34.8694C68.8967 36.4418 67.1191 37.69 65.0765 38.614C63.0338 39.538 60.843 40 58.5041 40C56.1652 40 53.9744 39.538 51.9318 38.614C49.8891 37.69 48.1115 36.4418 46.599 34.8694C45.0865 33.297 43.8859 31.449 42.9971 29.3255C42.1083 27.2019 41.6639 24.9244 41.6639 22.4928C41.6639 20.0613 42.1083 17.7837 42.9971 15.6602C43.8859 13.5366 45.0865 11.6886 46.599 10.1162C48.1115 8.54383 49.8891 7.29563 51.9318 6.37164C53.9744 5.44765 56.1652 4.98565 58.5041 4.98565H58.7848L57.1943 3.3322C56.8201 2.94315 56.6408 2.48926 56.6564 1.97053C56.672 1.4518 56.8513 0.997909 57.1943 0.608861C57.5686 0.219812 58.013 0.017183 58.5275 0.000972621C58.5481 0.000324207 58.5686 0 58.5889 0ZM141.917 0C142.405 0 142.829 0.186743 143.189 0.56023L148.007 5.56923C148.381 5.95827 148.568 6.41216 148.568 6.9309C148.568 7.44963 148.381 7.90352 148.007 8.29256L143.189 13.3016C142.814 13.6906 142.37 13.877 141.855 13.8608C141.341 13.8446 140.896 13.642 140.522 13.2529C140.179 12.8639 140 12.41 139.984 11.8913C139.969 11.3725 140.148 10.9186 140.522 10.5296L142.113 8.87614H141.832C138.183 8.87614 135.088 10.1973 132.546 12.8396C130.005 15.4819 128.734 18.6996 128.734 22.4928C128.734 26.286 130.005 29.5038 132.546 32.1461C133.21 32.8354 133.91 33.4349 134.649 33.9444C135.004 33.3946 135.687 32.4367 136.395 31.9896C137.419 31.3423 138.598 30.9356 139.932 30.7696C139.834 30.0724 139.704 29.3753 139.542 28.6782C139.379 27.981 139.184 27.3336 138.956 26.7361C138.598 27.0349 138.208 27.2673 137.785 27.4332C137.363 27.5992 136.907 27.6822 136.419 27.6822C135.346 27.6822 134.427 27.2922 133.663 26.512C132.899 25.7319 132.516 24.794 132.516 23.6985V21.7067C132.516 21.1423 132.427 20.6111 132.248 20.1132C132.069 19.6152 131.833 19.1504 131.541 18.7189C133.167 18.6857 134.614 18.8351 135.883 19.167C136.989 19.4658 137.997 19.9555 138.907 20.636C139.818 21.3166 140.29 22.3374 140.322 23.6985C140.322 23.9973 140.298 24.2712 140.249 24.5202C140.2 24.7691 140.111 25.0264 139.981 25.292C139.558 24.96 139.135 24.6612 138.712 24.3957C138.29 24.1301 137.85 23.8977 137.395 23.6985C137.948 24.1301 138.582 24.794 139.298 25.6904C140.013 26.5867 140.68 27.649 141.298 28.8773C141.948 27.2507 142.762 25.6489 143.737 24.072C144.713 22.4951 145.851 21.0427 147.152 19.7148C146.404 20.246 145.689 20.8103 145.006 21.4079C144.323 22.0054 143.656 22.6362 143.006 23.3001C142.778 22.935 142.599 22.5283 142.469 22.0801C142.339 21.632 142.274 21.1755 142.274 20.7107C142.274 19.3164 142.745 18.1379 143.689 17.1752C144.632 16.2125 145.786 15.7311 147.152 15.7311H149.104C149.852 15.7311 150.47 15.6315 150.958 15.4323C151.446 15.2331 151.852 15.0008 152.177 14.7352C152.535 14.4364 152.812 14.1044 153.007 13.7392C153.137 15.9635 153.023 17.9553 152.665 19.7148C152.372 21.2087 151.82 22.5781 151.006 23.823C150.193 25.0679 148.909 25.6904 147.152 25.6904C146.664 25.6904 146.201 25.624 145.762 25.4912C145.323 25.3584 144.924 25.1758 144.567 24.9434C144.339 25.5742 144.079 26.4124 143.786 27.4581C143.493 28.5039 143.266 29.6243 143.103 30.8194C144.339 31.0518 145.429 31.4833 146.372 32.1141C147.513 32.8771 148.363 34.3549 148.363 34.3549L148.347 34.3688L148.323 34.389C149.319 33.7951 150.25 33.0475 151.117 32.1461C153.659 29.5038 154.93 26.286 154.93 22.4928C154.93 21.9417 155.109 21.4797 155.468 21.1068C155.826 20.734 156.271 20.5476 156.801 20.5476C157.331 20.5476 157.776 20.734 158.134 21.1068C158.493 21.4797 158.672 21.9417 158.672 22.4928C158.672 24.9244 158.228 27.2019 157.339 29.3255C156.45 31.449 155.25 33.297 153.737 34.8694C152.225 36.4418 150.447 37.69 148.404 38.614C146.362 39.538 144.171 40 141.832 40C139.493 40 137.302 39.538 135.26 38.614C133.217 37.69 131.439 36.4418 129.927 34.8694C128.414 33.297 127.214 31.449 126.325 29.3255C125.436 27.2019 124.992 24.9244 124.992 22.4928C124.992 20.0613 125.436 17.7837 126.325 15.6602C127.214 13.5366 128.414 11.6886 129.927 10.1162C131.439 8.54383 133.217 7.29563 135.26 6.37164C137.302 5.44765 139.493 4.98565 141.832 4.98565H142.113L140.522 3.3322C140.148 2.94315 139.969 2.48926 139.984 1.97053C140 1.4518 140.179 0.997909 140.522 0.608861C140.896 0.219812 141.341 0.017183 141.855 0.000972621C141.876 0.000324207 141.896 0 141.917 0ZM225.245 0C225.733 0 226.157 0.186743 226.516 0.56023L231.335 5.56923C231.709 5.95827 231.896 6.41216 231.896 6.9309C231.896 7.44963 231.709 7.90352 231.335 8.29256L226.516 13.3016C226.142 13.6906 225.698 13.877 225.183 13.8608C224.669 13.8446 224.224 13.642 223.85 13.2529C223.507 12.8639 223.328 12.41 223.312 11.8913C223.296 11.3725 223.476 10.9186 223.85 10.5296L225.44 8.87614H225.16C221.511 8.87614 218.416 10.1973 215.874 12.8396C213.333 15.4819 212.062 18.6996 212.062 22.4928C212.062 26.286 213.333 29.5038 215.874 32.1461C216.537 32.8354 217.238 33.4349 217.977 33.9444C218.332 33.3946 219.015 32.4367 219.723 31.9896C220.747 31.3423 221.926 30.9356 223.26 30.7696C223.162 30.0724 223.032 29.3753 222.87 28.6782C222.707 27.981 222.512 27.3336 222.284 26.7361C221.926 27.0349 221.536 27.2673 221.113 27.4332C220.69 27.5992 220.235 27.6822 219.747 27.6822C218.674 27.6822 217.755 27.2922 216.991 26.512C216.226 25.7319 215.844 24.794 215.844 23.6985V21.7067C215.844 21.1423 215.755 20.6111 215.576 20.1132C215.397 19.6152 215.161 19.1504 214.869 18.7189C216.495 18.6857 217.942 18.8351 219.211 19.167C220.316 19.4658 221.325 19.9555 222.235 20.636C223.146 21.3166 223.618 22.3374 223.65 23.6985C223.65 23.9973 223.626 24.2712 223.577 24.5202C223.528 24.7691 223.439 25.0264 223.309 25.292C222.886 24.96 222.463 24.6612 222.04 24.3957C221.617 24.1301 221.178 23.8977 220.723 23.6985C221.276 24.1301 221.91 24.794 222.626 25.6904C223.341 26.5867 224.008 27.649 224.626 28.8773C225.276 27.2507 226.089 25.6489 227.065 24.072C228.041 22.4951 229.179 21.0427 230.48 19.7148C229.732 20.246 229.017 20.8103 228.334 21.4079C227.651 22.0054 226.984 22.6362 226.333 23.3001C226.106 22.935 225.927 22.5283 225.797 22.0801C225.667 21.632 225.602 21.1755 225.602 20.7107C225.602 19.3164 226.073 18.1379 227.016 17.1752C227.96 16.2125 229.114 15.7311 230.48 15.7311H232.432C233.18 15.7311 233.798 15.6315 234.286 15.4323C234.773 15.2331 235.18 15.0008 235.505 14.7352C235.863 14.4364 236.139 14.1044 236.335 13.7392C236.465 15.9635 236.351 17.9553 235.993 19.7148C235.7 21.2087 235.147 22.5781 234.334 23.823C233.521 25.0679 232.236 25.6904 230.48 25.6904C229.992 25.6904 229.529 25.624 229.09 25.4912C228.651 25.3584 228.252 25.1758 227.895 24.9434C227.667 25.5742 227.407 26.4124 227.114 27.4581C226.821 28.5039 226.594 29.6243 226.431 30.8194C227.667 31.0518 228.756 31.4833 229.7 32.1141C230.841 32.8771 231.691 34.3549 231.691 34.3549C231.691 34.3549 231.677 34.3668 231.651 34.389C232.647 33.7951 233.578 33.0475 234.445 32.1461C236.987 29.5038 238.258 26.286 238.258 22.4928C238.258 21.9417 238.437 21.4797 238.796 21.1068C239.154 20.734 239.599 20.5476 240.129 20.5476C240.659 20.5476 241.103 20.734 241.462 21.1068C241.821 21.4797 242 21.9417 242 22.4928C242 24.9244 241.556 27.2019 240.667 29.3255C239.778 31.449 238.577 33.297 237.065 34.8694C235.552 36.4418 233.775 37.69 231.732 38.614C229.689 39.538 227.499 40 225.16 40C222.821 40 220.63 39.538 218.587 38.614C216.545 37.69 214.767 36.4418 213.255 34.8694C211.742 33.297 210.542 31.449 209.653 29.3255C208.764 27.2019 208.32 24.9244 208.32 22.4928C208.32 20.0613 208.764 17.7837 209.653 15.6602C210.542 13.5366 211.742 11.6886 213.255 10.1162C214.767 8.54383 216.545 7.29563 218.587 6.37164C220.63 5.44765 222.821 4.98565 225.16 4.98565H225.44L223.85 3.3322C223.476 2.94315 223.296 2.48926 223.312 1.97053C223.328 1.4518 223.507 0.997909 223.85 0.608861C224.224 0.219812 224.669 0.017183 225.183 0.000972621C225.204 0.000324207 225.224 0 225.245 0Z" fill="white"/>
</svg>
