<svg width="256" height="34" viewBox="0 0 256 34" fill="none" xmlns="http://www.w3.org/2000/svg">
<path fill-rule="evenodd" clip-rule="evenodd" d="M256 0H0V8.27717V34H256V0ZM0 8.27717C2.71739 8.22283 5.13587 8.46739 7.25543 9.01087C9.10326 9.5 10.788 10.3016 12.3098 11.4158C13.8315 12.5299 14.6196 14.2011 14.6739 16.4293C14.6739 16.9185 14.6332 17.3668 14.5516 17.7745C14.4701 18.1821 14.3206 18.6033 14.1033 19.038C13.3967 18.4946 12.6902 18.0054 11.9837 17.5707C11.2772 17.1359 10.5435 16.7554 9.78261 16.4293C10.7065 17.1359 11.7663 18.2228 12.962 19.6902C14.1576 21.1576 15.2717 22.8967 16.3043 24.9076C17.3913 22.2446 18.75 19.6223 20.3804 17.0408C22.0109 14.4592 23.913 12.0815 26.087 9.90761C24.837 10.7772 23.6413 11.7011 22.5 12.6793C21.3587 13.6576 20.2446 14.6902 19.1576 15.7772C18.7772 15.1793 18.4783 14.5136 18.2609 13.7799C18.0435 13.0462 17.9348 12.2989 17.9348 11.538C17.9348 9.25543 18.7228 7.32609 20.2989 5.75C21.875 4.17391 23.8043 3.38587 26.087 3.38587H29.3478C30.5978 3.38587 31.6304 3.22283 32.4456 2.89674C33.2609 2.57065 33.9402 2.19022 34.4837 1.75543C35.0815 1.2663 35.5435 0.722826 35.8696 0.125C36.087 3.7663 35.8967 7.02717 35.2989 9.90761C34.8098 12.3533 33.8859 14.5951 32.5272 16.6332C31.1685 18.6712 29.0217 19.6902 26.087 19.6902C25.2717 19.6902 24.4973 19.5815 23.7636 19.3641C23.0299 19.1467 22.3641 18.8478 21.7663 18.4674C21.3859 19.5 20.9511 20.8723 20.462 22.5842C19.9728 24.2962 19.5924 26.1304 19.3207 28.087C21.3859 28.4674 23.2065 29.1739 24.7826 30.2065C26.6891 31.4556 28.11 33.875 28.11 33.875H16.3043H4.77199C4.77199 33.875 6.39946 31.0625 8.11141 30.0027C9.82337 28.9429 11.7935 28.2772 14.0217 28.0054C13.8587 26.8641 13.6413 25.7228 13.3696 24.5815C13.0978 23.4402 12.7717 22.3804 12.3913 21.4022C11.7935 21.8913 11.1413 22.2717 10.4348 22.5435C9.72826 22.8152 8.96739 22.9511 8.15217 22.9511C6.3587 22.9511 4.82337 22.3125 3.5462 21.0353C2.26902 19.7582 1.63043 18.2228 1.63043 16.4293V13.1685C1.63043 12.2446 1.48098 11.375 1.18207 10.5598C0.883153 9.74457 0.48913 8.9837 0 8.27717ZM48.7285 33.875H60.2609H72.0666C72.0666 33.875 70.6457 31.4556 68.7392 30.2065C67.1631 29.1739 65.3424 28.4674 63.2772 28.087C63.5489 26.1304 63.9294 24.2962 64.4185 22.5842C64.9076 20.8723 65.3424 19.5 65.7228 18.4674C66.3207 18.8478 66.9864 19.1467 67.7201 19.3641C68.4538 19.5815 69.2283 19.6902 70.0435 19.6902C72.9783 19.6902 75.125 18.6712 76.4837 16.6332C77.8424 14.5951 78.7663 12.3533 79.2554 9.90761C79.8533 7.02717 80.0435 3.7663 79.8261 0.125C79.5 0.722826 79.0381 1.2663 78.4402 1.75543C77.8968 2.19022 77.2174 2.57065 76.4022 2.89674C75.587 3.22283 74.5544 3.38587 73.3044 3.38587H70.0435C67.7609 3.38587 65.8315 4.17391 64.2555 5.75C62.6794 7.32609 61.8913 9.25543 61.8913 11.538C61.8913 12.2989 62 13.0462 62.2174 13.7799C62.4348 14.5136 62.7337 15.1793 63.1141 15.7772C64.2011 14.6902 65.3152 13.6576 66.4565 12.6793C67.5978 11.7011 68.7935 10.7772 70.0435 9.90761C67.8696 12.0815 65.9674 14.4592 64.337 17.0408C62.7065 19.6223 61.3478 22.2446 60.2609 24.9076C59.2283 22.8967 58.1142 21.1576 56.9185 19.6902C55.7228 18.2228 54.6631 17.1359 53.7392 16.4293C54.5 16.7554 55.2337 17.1359 55.9402 17.5707C56.6468 18.0054 57.3533 18.4946 58.0598 19.038C58.2772 18.6033 58.4267 18.1821 58.5082 17.7745C58.5897 17.3668 58.6305 16.9185 58.6305 16.4293C58.5761 14.2011 57.7881 12.5299 56.2663 11.4158C54.7446 10.3016 53.0598 9.5 51.212 9.01087C49.0924 8.46739 46.6739 8.22283 43.9565 8.27717C44.4457 8.9837 44.8397 9.74457 45.1386 10.5598C45.4375 11.375 45.587 12.2446 45.587 13.1685V16.4293C45.587 18.2228 46.2256 19.7582 47.5027 21.0353C48.7799 22.3125 50.3152 22.9511 52.1087 22.9511C52.9239 22.9511 53.6848 22.8152 54.3913 22.5435C55.0978 22.2717 55.75 21.8913 56.3478 21.4022C56.7283 22.3804 57.0544 23.4402 57.3261 24.5815C57.5978 25.7228 57.8152 26.8641 57.9783 28.0054C55.75 28.2772 53.7799 28.9429 52.068 30.0027C50.356 31.0625 48.7285 33.875 48.7285 33.875ZM104.217 33.875H92.6851C92.6851 33.875 94.3125 31.0625 96.0245 30.0027C97.7365 28.9429 99.7066 28.2772 101.935 28.0054C101.772 26.8641 101.554 25.7228 101.283 24.5815C101.011 23.4402 100.685 22.3804 100.304 21.4022C99.7066 21.8913 99.0544 22.2717 98.3479 22.5435C97.6413 22.8152 96.8805 22.9511 96.0653 22.9511C94.2718 22.9511 92.7365 22.3125 91.4593 21.0353C90.1821 19.7582 89.5435 18.2228 89.5435 16.4293V13.1685C89.5435 12.2446 89.3941 11.375 89.0952 10.5598C88.7962 9.74457 88.4022 8.9837 87.9131 8.27717C90.6305 8.22283 93.049 8.46739 95.1685 9.01087C97.0163 9.5 98.7011 10.3016 100.223 11.4158C101.745 12.5299 102.533 14.2011 102.587 16.4293C102.587 16.9185 102.546 17.3668 102.465 17.7745C102.383 18.1821 102.234 18.6033 102.016 19.038C101.31 18.4946 100.603 18.0054 99.8968 17.5707C99.1903 17.1359 98.4566 16.7554 97.6957 16.4293C98.6196 17.1359 99.6794 18.2228 100.875 19.6902C102.071 21.1576 103.185 22.8967 104.217 24.9076C105.304 22.2446 106.663 19.6223 108.294 17.0408C109.924 14.4592 111.826 12.0815 114 9.90761C112.75 10.7772 111.554 11.7011 110.413 12.6793C109.272 13.6576 108.158 14.6902 107.071 15.7772C106.69 15.1793 106.391 14.5136 106.174 13.7799C105.957 13.0462 105.848 12.2989 105.848 11.538C105.848 9.25543 106.636 7.32609 108.212 5.75C109.788 4.17391 111.717 3.38587 114 3.38587H117.261C118.511 3.38587 119.544 3.22283 120.359 2.89674C121.174 2.57065 121.853 2.19022 122.397 1.75543C122.995 1.2663 123.457 0.722826 123.783 0.125C124 3.7663 123.81 7.02717 123.212 9.90761C122.723 12.3533 121.799 14.5951 120.44 16.6332C119.082 18.6712 116.935 19.6902 114 19.6902C113.185 19.6902 112.41 19.5815 111.677 19.3641C110.943 19.1467 110.277 18.8478 109.679 18.4674C109.299 19.5 108.864 20.8723 108.375 22.5842C107.886 24.2962 107.505 26.1304 107.234 28.087C109.299 28.4674 111.12 29.1739 112.696 30.2065C114.602 31.4556 116.023 33.875 116.023 33.875H104.217ZM136.642 33.875H148.174H159.98C159.98 33.875 158.559 31.4556 156.652 30.2065C155.076 29.1739 153.255 28.4674 151.19 28.087C151.462 26.1304 151.842 24.2962 152.332 22.5842C152.821 20.8723 153.255 19.5 153.636 18.4674C154.234 18.8478 154.9 19.1467 155.633 19.3641C156.367 19.5815 157.141 19.6902 157.957 19.6902C160.891 19.6902 163.038 18.6712 164.397 16.6332C165.755 14.5951 166.679 12.3533 167.169 9.90761C167.766 7.02717 167.957 3.7663 167.739 0.125C167.413 0.722826 166.951 1.2663 166.353 1.75543C165.81 2.19022 165.13 2.57065 164.315 2.89674C163.5 3.22283 162.467 3.38587 161.217 3.38587H157.957C155.674 3.38587 153.745 4.17391 152.169 5.75C150.592 7.32609 149.804 9.25543 149.804 11.538C149.804 12.2989 149.913 13.0462 150.13 13.7799C150.348 14.5136 150.647 15.1793 151.027 15.7772C152.114 14.6902 153.228 13.6576 154.37 12.6793C155.511 11.7011 156.707 10.7772 157.957 9.90761C155.783 12.0815 153.88 14.4592 152.25 17.0408C150.62 19.6223 149.261 22.2446 148.174 24.9076C147.141 22.8967 146.027 21.1576 144.832 19.6902C143.636 18.2228 142.576 17.1359 141.652 16.4293C142.413 16.7554 143.147 17.1359 143.853 17.5707C144.56 18.0054 145.266 18.4946 145.973 19.038C146.19 18.6033 146.34 18.1821 146.421 17.7745C146.503 17.3668 146.544 16.9185 146.544 16.4293C146.489 14.2011 145.701 12.5299 144.179 11.4158C142.658 10.3016 140.973 9.5 139.125 9.01087C137.005 8.46739 134.587 8.22283 131.87 8.27717C132.359 8.9837 132.753 9.74457 133.052 10.5598C133.351 11.375 133.5 12.2446 133.5 13.1685V16.4293C133.5 18.2228 134.139 19.7582 135.416 21.0353C136.693 22.3125 138.228 22.9511 140.022 22.9511C140.837 22.9511 141.598 22.8152 142.304 22.5435C143.011 22.2717 143.663 21.8913 144.261 21.4022C144.641 22.3804 144.967 23.4402 145.239 24.5815C145.511 25.7228 145.728 26.8641 145.891 28.0054C143.663 28.2772 141.693 28.9429 139.981 30.0027C138.269 31.0625 136.642 33.875 136.642 33.875ZM192.131 33.875H180.598C180.598 33.875 182.226 31.0625 183.938 30.0027C185.65 28.9429 187.62 28.2772 189.848 28.0054C189.685 26.8641 189.467 25.7228 189.196 24.5815C188.924 23.4402 188.598 22.3804 188.217 21.4022C187.62 21.8913 186.967 22.2717 186.261 22.5435C185.554 22.8152 184.794 22.9511 183.978 22.9511C182.185 22.9511 180.65 22.3125 179.372 21.0353C178.095 19.7582 177.457 18.2228 177.457 16.4293V13.1685C177.457 12.2446 177.307 11.375 177.008 10.5598C176.709 9.74457 176.315 8.9837 175.826 8.27717C178.544 8.22283 180.962 8.46739 183.082 9.01087C184.929 9.5 186.614 10.3016 188.136 11.4158C189.658 12.5299 190.446 14.2011 190.5 16.4293C190.5 16.9185 190.459 17.3668 190.378 17.7745C190.296 18.1821 190.147 18.6033 189.929 19.038C189.223 18.4946 188.516 18.0054 187.81 17.5707C187.103 17.1359 186.37 16.7554 185.609 16.4293C186.533 17.1359 187.592 18.2228 188.788 19.6902C189.984 21.1576 191.098 22.8967 192.131 24.9076C193.217 22.2446 194.576 19.6223 196.207 17.0408C197.837 14.4592 199.739 12.0815 201.913 9.90761C200.663 10.7772 199.467 11.7011 198.326 12.6793C197.185 13.6576 196.071 14.6902 194.984 15.7772C194.603 15.1793 194.304 14.5136 194.087 13.7799C193.87 13.0462 193.761 12.2989 193.761 11.538C193.761 9.25543 194.549 7.32609 196.125 5.75C197.701 4.17391 199.631 3.38587 201.913 3.38587H205.174C206.424 3.38587 207.457 3.22283 208.272 2.89674C209.087 2.57065 209.766 2.19022 210.31 1.75543C210.908 1.2663 211.37 0.722826 211.696 0.125C211.913 3.7663 211.723 7.02717 211.125 9.90761C210.636 12.3533 209.712 14.5951 208.353 16.6332C206.995 18.6712 204.848 19.6902 201.913 19.6902C201.098 19.6902 200.323 19.5815 199.59 19.3641C198.856 19.1467 198.19 18.8478 197.592 18.4674C197.212 19.5 196.777 20.8723 196.288 22.5842C195.799 24.2962 195.419 26.1304 195.147 28.087C197.212 28.4674 199.033 29.1739 200.609 30.2065C202.515 31.4556 203.936 33.875 203.936 33.875H192.131ZM224.554 33.875H236.087H247.892C247.892 33.875 246.472 31.4556 244.565 30.2065C242.989 29.1739 241.168 28.4674 239.103 28.087C239.375 26.1304 239.755 24.2962 240.244 22.5842C240.734 20.8723 241.168 19.5 241.549 18.4674C242.147 18.8478 242.812 19.1467 243.546 19.3641C244.28 19.5815 245.054 19.6902 245.869 19.6902C248.804 19.6902 250.951 18.6712 252.31 16.6332C253.668 14.5951 254.592 12.3533 255.081 9.90761C255.679 7.02717 255.869 3.7663 255.652 0.125C255.326 0.722826 254.864 1.2663 254.266 1.75543C253.723 2.19022 253.043 2.57065 252.228 2.89674C251.413 3.22283 250.38 3.38587 249.13 3.38587H245.869C243.587 3.38587 241.657 4.17391 240.081 5.75C238.505 7.32609 237.717 9.25543 237.717 11.538C237.717 12.2989 237.826 13.0462 238.043 13.7799C238.261 14.5136 238.56 15.1793 238.94 15.7772C240.027 14.6902 241.141 13.6576 242.282 12.6793C243.424 11.7011 244.619 10.7772 245.869 9.90761C243.696 12.0815 241.793 14.4592 240.163 17.0408C238.532 19.6223 237.174 22.2446 236.087 24.9076C235.054 22.8967 233.94 21.1576 232.744 19.6902C231.549 18.2228 230.489 17.1359 229.565 16.4293C230.326 16.7554 231.06 17.1359 231.766 17.5707C232.473 18.0054 233.179 18.4946 233.886 19.038C234.103 18.6033 234.253 18.1821 234.334 17.7745C234.416 17.3668 234.456 16.9185 234.456 16.4293C234.402 14.2011 233.614 12.5299 232.092 11.4158C230.571 10.3016 228.886 9.5 227.038 9.01087C224.918 8.46739 222.5 8.22283 219.782 8.27717C220.272 8.9837 220.666 9.74457 220.965 10.5598C221.263 11.375 221.413 12.2446 221.413 13.1685V16.4293C221.413 18.2228 222.051 19.7582 223.329 21.0353C224.606 22.3125 226.141 22.9511 227.935 22.9511C228.75 22.9511 229.511 22.8152 230.217 22.5435C230.924 22.2717 231.576 21.8913 232.174 21.4022C232.554 22.3804 232.88 23.4402 233.152 24.5815C233.424 25.7228 233.641 26.8641 233.804 28.0054C231.576 28.2772 229.606 28.9429 227.894 30.0027C226.182 31.0625 224.554 33.875 224.554 33.875Z" fill="white"/>
</svg>
