<svg width="412" height="47" viewBox="0 0 412 47" fill="none" xmlns="http://www.w3.org/2000/svg">
<path fill-rule="evenodd" clip-rule="evenodd" d="M0 0H412V47H0V25.25C0 30.8419 4.53312 35.375 10.125 35.375H15.1875V39.875H7.3125C6.38052 39.875 5.625 40.6305 5.625 41.5625C5.625 42.4945 6.38052 43.25 7.3125 43.25H16.875H26.4375C27.3695 43.25 28.125 42.4945 28.125 41.5625C28.125 40.6305 27.3695 39.875 26.4375 39.875H18.5625V35.375H23.625C29.2169 35.375 33.75 30.8419 33.75 25.25C33.75 20.8356 30.925 17.081 26.9842 15.6956C26.9947 15.5067 27 15.3165 27 15.125C27 9.53312 22.4669 5 16.875 5C11.2831 5 6.75 9.53312 6.75 15.125C6.75 15.3165 6.75532 15.5067 6.76581 15.6956C2.82503 17.081 0 20.8356 0 25.25V0ZM49.3125 43.25H58.875H68.4375C69.3695 43.25 70.125 42.4945 70.125 41.5625C70.125 40.6305 69.3695 39.875 68.4375 39.875H60.5625V35.375H65.625C71.2169 35.375 75.75 30.8419 75.75 25.25C75.75 20.8356 72.925 17.081 68.9842 15.6956C68.9947 15.5067 69 15.3165 69 15.125C69 9.53312 64.4669 5 58.875 5C53.2831 5 48.75 9.53312 48.75 15.125C48.75 15.3165 48.7553 15.5067 48.7658 15.6956C44.825 17.081 42 20.8356 42 25.25C42 30.8419 46.5331 35.375 52.125 35.375H57.1875V39.875H49.3125C48.3805 39.875 47.625 40.6305 47.625 41.5625C47.625 42.4945 48.3805 43.25 49.3125 43.25ZM72.9375 25.25C73.2482 25.25 73.5 25.5018 73.5 25.8125C73.5 28.0955 72.6931 29.6717 71.6437 30.7002C70.6099 31.7133 69.3673 32.1694 68.5073 32.2769C68.199 32.3154 67.9179 32.0968 67.8793 31.7885C67.8408 31.4803 68.0595 31.1991 68.3677 31.1606C69.0077 31.0806 70.0151 30.721 70.8563 29.8967C71.6819 29.0876 72.375 27.8045 72.375 25.8125C72.375 25.5018 72.6268 25.25 72.9375 25.25ZM100.875 43.25H91.3125C90.3805 43.25 89.625 42.4945 89.625 41.5625C89.625 40.6305 90.3805 39.875 91.3125 39.875H99.1875V35.375H94.125C88.5331 35.375 84 30.8419 84 25.25C84 20.8356 86.825 17.081 90.7658 15.6956C90.7553 15.5067 90.75 15.3165 90.75 15.125C90.75 9.53312 95.2831 5 100.875 5C106.467 5 111 9.53312 111 15.125C111 15.3165 110.995 15.5067 110.984 15.6956C114.925 17.081 117.75 20.8356 117.75 25.25C117.75 30.8419 113.217 35.375 107.625 35.375H102.562V39.875H110.438C111.369 39.875 112.125 40.6305 112.125 41.5625C112.125 42.4945 111.369 43.25 110.438 43.25H100.875ZM115.5 25.8125C115.5 25.5018 115.248 25.25 114.938 25.25C114.627 25.25 114.375 25.5018 114.375 25.8125C114.375 27.8045 113.682 29.0876 112.856 29.8967C112.015 30.721 111.008 31.0806 110.368 31.1606C110.059 31.1991 109.841 31.4803 109.879 31.7885C109.918 32.0968 110.199 32.3154 110.507 32.2769C111.367 32.1694 112.61 31.7133 113.644 30.7002C114.693 29.6717 115.5 28.0955 115.5 25.8125ZM30.9375 25.25C31.2482 25.25 31.5 25.5018 31.5 25.8125C31.5 28.0955 30.6931 29.6717 29.6437 30.7002C28.6099 31.7133 27.3673 32.1694 26.5073 32.2769C26.199 32.3154 25.9179 32.0968 25.8793 31.7885C25.8408 31.4803 26.0595 31.1991 26.3677 31.1606C27.0077 31.0806 28.0151 30.721 28.8563 29.8967C29.6819 29.0876 30.375 27.8045 30.375 25.8125C30.375 25.5018 30.6268 25.25 30.9375 25.25ZM142.875 43.25H133.312C132.381 43.25 131.625 42.4945 131.625 41.5625C131.625 40.6305 132.381 39.875 133.312 39.875H141.188V35.375H136.125C130.533 35.375 126 30.8419 126 25.25C126 20.8356 128.825 17.081 132.766 15.6956C132.755 15.5067 132.75 15.3165 132.75 15.125C132.75 9.53312 137.283 5 142.875 5C148.467 5 153 9.53312 153 15.125C153 15.3165 152.995 15.5067 152.984 15.6956C156.925 17.081 159.75 20.8356 159.75 25.25C159.75 30.8419 155.217 35.375 149.625 35.375H144.562V39.875H152.438C153.369 39.875 154.125 40.6305 154.125 41.5625C154.125 42.4945 153.369 43.25 152.438 43.25H142.875ZM157.5 25.8125C157.5 25.5018 157.248 25.25 156.938 25.25C156.627 25.25 156.375 25.5018 156.375 25.8125C156.375 27.8045 155.682 29.0876 154.856 29.8967C154.015 30.721 153.008 31.0806 152.368 31.1606C152.059 31.1991 151.841 31.4803 151.879 31.7885C151.918 32.0968 152.199 32.3154 152.507 32.2769C153.367 32.1694 154.61 31.7133 155.644 30.7002C156.693 29.6717 157.5 28.0955 157.5 25.8125ZM175.312 43.25H184.875H194.438C195.369 43.25 196.125 42.4945 196.125 41.5625C196.125 40.6305 195.369 39.875 194.438 39.875H186.562V35.375H191.625C197.217 35.375 201.75 30.8419 201.75 25.25C201.75 20.8356 198.925 17.081 194.984 15.6956C194.995 15.5067 195 15.3165 195 15.125C195 9.53312 190.467 5 184.875 5C179.283 5 174.75 9.53312 174.75 15.125C174.75 15.3165 174.755 15.5067 174.766 15.6956C170.825 17.081 168 20.8356 168 25.25C168 30.8419 172.533 35.375 178.125 35.375H183.188V39.875H175.312C174.381 39.875 173.625 40.6305 173.625 41.5625C173.625 42.4945 174.381 43.25 175.312 43.25ZM198.938 25.25C199.248 25.25 199.5 25.5018 199.5 25.8125C199.5 28.0955 198.693 29.6717 197.644 30.7002C196.61 31.7133 195.367 32.1694 194.507 32.2769C194.199 32.3154 193.918 32.0968 193.879 31.7885C193.841 31.4803 194.059 31.1991 194.368 31.1606C195.008 31.0806 196.015 30.721 196.856 29.8967C197.682 29.0876 198.375 27.8045 198.375 25.8125C198.375 25.5018 198.627 25.25 198.938 25.25ZM268.875 43.25H259.312C258.381 43.25 257.625 42.4945 257.625 41.5625C257.625 40.6305 258.381 39.875 259.312 39.875H267.188V35.375H262.125C256.533 35.375 252 30.8419 252 25.25C252 20.8356 254.825 17.081 258.766 15.6956C258.755 15.5067 258.75 15.3165 258.75 15.125C258.75 9.53312 263.283 5 268.875 5C274.467 5 279 9.53312 279 15.125C279 15.3165 278.995 15.5067 278.984 15.6956C282.925 17.081 285.75 20.8356 285.75 25.25C285.75 30.8419 281.217 35.375 275.625 35.375H270.562V39.875H278.438C279.369 39.875 280.125 40.6305 280.125 41.5625C280.125 42.4945 279.369 43.25 278.438 43.25H268.875ZM283.5 25.8125C283.5 25.5018 283.248 25.25 282.938 25.25C282.627 25.25 282.375 25.5018 282.375 25.8125C282.375 27.8045 281.682 29.0876 280.856 29.8967C280.015 30.721 279.008 31.0806 278.368 31.1606C278.059 31.1991 277.841 31.4803 277.879 31.7885C277.918 32.0968 278.199 32.3154 278.507 32.2769C279.367 32.1694 280.61 31.7133 281.644 30.7002C282.693 29.6717 283.5 28.0955 283.5 25.8125ZM301.312 43.25H310.875H320.438C321.369 43.25 322.125 42.4945 322.125 41.5625C322.125 40.6305 321.369 39.875 320.438 39.875H312.562V35.375H317.625C323.217 35.375 327.75 30.8419 327.75 25.25C327.75 20.8356 324.925 17.081 320.984 15.6956C320.995 15.5067 321 15.3165 321 15.125C321 9.53312 316.467 5 310.875 5C305.283 5 300.75 9.53312 300.75 15.125C300.75 15.3165 300.755 15.5067 300.766 15.6956C296.825 17.081 294 20.8356 294 25.25C294 30.8419 298.533 35.375 304.125 35.375H309.188V39.875H301.312C300.381 39.875 299.625 40.6305 299.625 41.5625C299.625 42.4945 300.381 43.25 301.312 43.25ZM324.938 25.25C325.248 25.25 325.5 25.5018 325.5 25.8125C325.5 28.0955 324.693 29.6717 323.644 30.7002C322.61 31.7133 321.367 32.1694 320.507 32.2769C320.199 32.3154 319.918 32.0968 319.879 31.7885C319.841 31.4803 320.059 31.1991 320.368 31.1606C321.008 31.0806 322.015 30.721 322.856 29.8967C323.682 29.0876 324.375 27.8045 324.375 25.8125C324.375 25.5018 324.627 25.25 324.938 25.25ZM226.875 43.25H217.312C216.381 43.25 215.625 42.4945 215.625 41.5625C215.625 40.6305 216.381 39.875 217.312 39.875H225.188V35.375H220.125C214.533 35.375 210 30.8419 210 25.25C210 20.8356 212.825 17.081 216.766 15.6956C216.755 15.5067 216.75 15.3165 216.75 15.125C216.75 9.53312 221.283 5 226.875 5C232.467 5 237 9.53312 237 15.125C237 15.3165 236.995 15.5067 236.984 15.6956C240.925 17.081 243.75 20.8356 243.75 25.25C243.75 30.8419 239.217 35.375 233.625 35.375H228.562V39.875H236.438C237.369 39.875 238.125 40.6305 238.125 41.5625C238.125 42.4945 237.369 43.25 236.438 43.25H226.875ZM241.5 25.8125C241.5 25.5018 241.248 25.25 240.938 25.25C240.627 25.25 240.375 25.5018 240.375 25.8125C240.375 27.8045 239.682 29.0876 238.856 29.8967C238.015 30.721 237.008 31.0806 236.368 31.1606C236.059 31.1991 235.841 31.4803 235.879 31.7885C235.918 32.0968 236.199 32.3154 236.507 32.2769C237.367 32.1694 238.61 31.7133 239.644 30.7002C240.693 29.6717 241.5 28.0955 241.5 25.8125ZM343.312 43.25H352.875H362.438C363.369 43.25 364.125 42.4945 364.125 41.5625C364.125 40.6305 363.369 39.875 362.438 39.875H354.562V35.375H359.625C365.217 35.375 369.75 30.8419 369.75 25.25C369.75 20.8356 366.925 17.081 362.984 15.6956C362.995 15.5067 363 15.3165 363 15.125C363 9.53312 358.467 5 352.875 5C347.283 5 342.75 9.53312 342.75 15.125C342.75 15.3165 342.755 15.5067 342.766 15.6956C338.825 17.081 336 20.8356 336 25.25C336 30.8419 340.533 35.375 346.125 35.375H351.188V39.875H343.312C342.381 39.875 341.625 40.6305 341.625 41.5625C341.625 42.4945 342.381 43.25 343.312 43.25ZM366.938 25.25C367.248 25.25 367.5 25.5018 367.5 25.8125C367.5 28.0955 366.693 29.6717 365.644 30.7002C364.61 31.7133 363.367 32.1694 362.507 32.2769C362.199 32.3154 361.918 32.0968 361.879 31.7885C361.841 31.4803 362.059 31.1991 362.368 31.1606C363.008 31.0806 364.015 30.721 364.856 29.8967C365.682 29.0876 366.375 27.8045 366.375 25.8125C366.375 25.5018 366.627 25.25 366.938 25.25ZM394.875 43.25H385.312C384.381 43.25 383.625 42.4945 383.625 41.5625C383.625 40.6305 384.381 39.875 385.312 39.875H393.188V35.375H388.125C382.533 35.375 378 30.8419 378 25.25C378 20.8356 380.825 17.081 384.766 15.6956C384.755 15.5067 384.75 15.3165 384.75 15.125C384.75 9.53312 389.283 5 394.875 5C400.467 5 405 9.53312 405 15.125C405 15.3165 404.995 15.5067 404.984 15.6956C408.925 17.081 411.75 20.8356 411.75 25.25C411.75 30.8419 407.217 35.375 401.625 35.375H396.562V39.875H404.438C405.369 39.875 406.125 40.6305 406.125 41.5625C406.125 42.4945 405.369 43.25 404.438 43.25H394.875ZM409.5 25.8125C409.5 25.5018 409.248 25.25 408.938 25.25C408.627 25.25 408.375 25.5018 408.375 25.8125C408.375 27.8045 407.682 29.0876 406.856 29.8967C406.015 30.721 405.008 31.0806 404.368 31.1606C404.059 31.1991 403.841 31.4803 403.879 31.7885C403.918 32.0968 404.199 32.3154 404.507 32.2769C405.367 32.1694 406.61 31.7133 407.644 30.7002C408.693 29.6717 409.5 28.0955 409.5 25.8125Z" fill="white"/>
</svg>
