<svg width="220" height="34" viewBox="0 0 220 34" fill="none" xmlns="http://www.w3.org/2000/svg">
<path fill-rule="evenodd" clip-rule="evenodd" d="M81 32.5C81 33.3284 81.6716 34 82.5 34H0V18.0002C0 22.9708 4.02944 27.0002 9 27.0002H13.4988V30.9998H6.49922C5.67079 30.9998 4.99922 31.6714 4.99922 32.4998C4.99922 33.3282 5.67079 33.9998 6.49922 33.9998H15.0004H23.4992C24.3276 33.9998 24.9992 33.3282 24.9992 32.4998C24.9992 31.6714 24.3276 30.9998 23.4992 30.9998H16.4992V27.0002H21C25.9706 27.0002 30 22.9708 30 18.0002C30 14.0759 27.4883 10.7382 23.9848 9.50696C23.9941 9.33922 23.9988 9.17026 23.9988 9.00019C23.9988 4.03015 19.9702 0.00103932 15.0004 0.000194682L14.9988 0.00019455C10.0283 0.00019455 5.99883 4.02963 5.99883 9.00019C5.99883 9.17053 6.00356 9.33976 6.0129 9.50777C2.51059 10.7396 0 14.0767 0 18.0002V0H91C86.0294 0 82 4.02944 82 9C82 9.1702 82.0047 9.3393 82.0141 9.50717C78.5111 10.7387 76 14.0761 76 18C76 22.9706 80.0294 27 85 27H89.5V31H82.5C81.6716 31 81 31.6716 81 32.5ZM129 0H91C95.9706 0 100 4.02944 100 9C100 9.1702 99.9953 9.3393 99.9859 9.50717C103.489 10.7387 106 14.0761 106 18C106 22.9706 101.971 27 97 27H92.5V31H99.5C100.328 31 101 31.6716 101 32.5C101 33.3284 100.328 34 99.5 34H120.5C119.672 34 119 33.3284 119 32.5C119 31.6716 119.672 31 120.5 31H127.5V27H123C118.029 27 114 22.9706 114 18C114 14.0761 116.511 10.7387 120.014 9.50717C120.005 9.3393 120 9.1702 120 9C120 4.02944 124.029 0 129 0ZM167 0H129C133.971 0 138 4.02944 138 9C138 9.1702 137.995 9.3393 137.986 9.50717C141.489 10.7387 144 14.0761 144 18C144 22.9706 139.971 27 135 27H130.5V31H137.5C138.328 31 139 31.6716 139 32.5C139 33.3284 138.328 34 137.5 34H158.5C157.672 34 157 33.3284 157 32.5C157 31.6716 157.672 31 158.5 31H165.5V27H161C156.029 27 152 22.9706 152 18C152 14.0761 154.511 10.7387 158.014 9.50717C158.005 9.3393 158 9.1702 158 9C158 4.02944 162.029 0 167 0ZM205 0H167C171.971 0 176 4.02944 176 9C176 9.1702 175.995 9.3393 175.986 9.50717C179.489 10.7387 182 14.0761 182 18C182 22.9706 177.971 27 173 27H168.5V31H175.5C176.328 31 177 31.6716 177 32.5C177 33.3284 176.328 34 175.5 34H196.5C195.672 34 195 33.3284 195 32.5C195 31.6716 195.672 31 196.5 31H203.5V27H199C194.029 27 190 22.9706 190 18C190 14.0761 192.511 10.7387 196.014 9.50717C196.005 9.3393 196 9.1702 196 9C196 4.02944 200.029 0 205 0ZM220 18C220 14.0761 217.489 10.7387 213.986 9.50717C213.995 9.3393 214 9.1702 214 9C214 4.02944 209.971 0 205 0H220V18ZM213.5 34H220V18C220 22.9706 215.971 27 211 27H206.5V31H213.5C214.328 31 215 31.6716 215 32.5C215 33.3284 214.328 34 213.5 34ZM104.062 18.5C104.062 18.1893 103.811 17.9375 103.5 17.9375C103.189 17.9375 102.938 18.1893 102.938 18.5C102.938 20.2545 102.328 21.3788 101.606 22.0858C100.869 22.808 99.9869 23.1223 99.4302 23.1918C99.122 23.2304 98.9033 23.5115 98.9418 23.8198C98.9804 24.128 99.2615 24.3467 99.5698 24.3082C100.346 24.2111 101.464 23.8003 102.394 22.8892C103.339 21.9629 104.062 20.5455 104.062 18.5ZM27.4996 17.9381C27.8103 17.9381 28.0621 18.1899 28.0621 18.5006C28.0621 20.5461 27.3386 21.9635 26.3933 22.8898C25.4637 23.8009 24.3461 24.2117 23.5694 24.3087C23.2611 24.3473 22.98 24.1286 22.9415 23.8204C22.9029 23.5121 23.1216 23.231 23.4298 23.1924C23.9865 23.1228 24.8689 22.8086 25.6059 22.0863C26.3273 21.3794 26.9371 20.2551 26.9371 18.5006C26.9371 18.1899 27.1889 17.9381 27.4996 17.9381ZM53.0004 33.9998H61.4992C62.3276 33.9998 62.9992 33.3282 62.9992 32.4998C62.9992 31.6714 62.3276 30.9998 61.4992 30.9998H54.4992V27.0002H59C63.9706 27.0002 68 22.9708 68 18.0002C68 14.0759 65.4883 10.7382 61.9848 9.50696C61.9941 9.33922 61.9988 9.17026 61.9988 9.00019C61.9988 4.03015 57.9702 0.00103932 53.0004 0.000194682L52.9988 0.00019455C48.0283 0.00019455 43.9988 4.02963 43.9988 9.00019C43.9988 9.17053 44.0036 9.33976 44.0129 9.50777C40.5106 10.7396 38 14.0767 38 18.0002C38 22.9708 42.0294 27.0002 47 27.0002H51.4988V30.9998H44.4992C43.6708 30.9998 42.9992 31.6714 42.9992 32.4998C42.9992 33.3282 43.6708 33.9998 44.4992 33.9998H53.0004ZM66.0621 18.5006C66.0621 18.1899 65.8103 17.9381 65.4996 17.9381C65.1889 17.9381 64.9371 18.1899 64.9371 18.5006C64.9371 20.2551 64.3273 21.3794 63.6059 22.0863C62.8689 22.8086 61.9865 23.1228 61.4298 23.1924C61.1216 23.231 60.9029 23.5121 60.9415 23.8204C60.98 24.1286 61.2611 24.3473 61.5694 24.3087C62.3461 24.2117 63.4637 23.8009 64.3933 22.8898C65.3386 21.9635 66.0621 20.5461 66.0621 18.5006ZM142.062 18.5C142.062 18.1893 141.811 17.9375 141.5 17.9375C141.189 17.9375 140.938 18.1893 140.938 18.5C140.938 20.2545 140.328 21.3788 139.606 22.0858C138.869 22.808 137.987 23.1223 137.43 23.1918C137.122 23.2304 136.903 23.5115 136.942 23.8198C136.98 24.128 137.262 24.3467 137.57 24.3082C138.346 24.2111 139.464 23.8003 140.394 22.8892C141.339 21.9629 142.062 20.5455 142.062 18.5ZM180.062 18.5C180.062 18.1893 179.811 17.9375 179.5 17.9375C179.189 17.9375 178.938 18.1893 178.938 18.5C178.938 20.2545 178.328 21.3788 177.606 22.0858C176.869 22.808 175.987 23.1223 175.43 23.1918C175.122 23.2304 174.903 23.5115 174.942 23.8198C174.98 24.128 175.262 24.3467 175.57 24.3082C176.346 24.2111 177.464 23.8003 178.394 22.8892C179.339 21.9629 180.062 20.5455 180.062 18.5ZM218.062 18.5C218.062 18.1893 217.811 17.9375 217.5 17.9375C217.189 17.9375 216.938 18.1893 216.938 18.5C216.938 20.2545 216.328 21.3788 215.606 22.0858C214.869 22.808 213.987 23.1223 213.43 23.1918C213.122 23.2304 212.903 23.5115 212.942 23.8198C212.98 24.128 213.262 24.3467 213.57 24.3082C214.346 24.2111 215.464 23.8003 216.394 22.8892C217.339 21.9629 218.062 20.5455 218.062 18.5Z" fill="white"/>
</svg>
