<svg width="23" height="28" viewBox="0 0 23 28" fill="none" xmlns="http://www.w3.org/2000/svg">
<path d="M6.6 27H16.4C18.3602 27 19.3402 27 20.089 26.5277C20.7476 26.1122 21.283 25.4494 21.6185 24.634C22 23.707 22 22.4936 22 20.0667V7.93333C22 5.50644 22 4.29299 21.6185 3.36604C21.283 2.55067 20.7476 1.88776 20.089 1.4723C19.3402 1 18.3602 1 16.4 1H6.6C4.63981 1 3.65972 1 2.91104 1.4723C2.25246 1.88776 1.71703 2.55067 1.38148 3.36604C1 4.29299 1 5.50644 1 7.93333V20.0667C1 22.4936 1 23.707 1.38148 24.634C1.71703 25.4494 2.25246 26.1122 2.91104 26.5277C3.65972 27 4.63981 27 6.6 27Z" stroke="currentColor" stroke-linecap="round" stroke-linejoin="round"/>
<path d="M11 20H11.0108" stroke="currentColor" stroke-width="1.5" stroke-linecap="round" stroke-linejoin="round"/>
<path d="M8 9.17152C8.25469 8.44749 8.75741 7.83697 9.41917 7.44807C10.0809 7.05919 10.8588 6.91703 11.6153 7.04678C12.3718 7.17655 13.0579 7.56983 13.5522 8.15701C14.0464 8.74417 14.317 9.48733 14.3158 10.2548C14.3158 12.4215 11.0658 13.5048 11.0658 13.5048V17.1719" stroke="currentColor" stroke-width="1.5" stroke-linecap="round" stroke-linejoin="round"/>
</svg>
