<svg width="40" height="41" viewBox="0 0 40 41" fill="none" xmlns="http://www.w3.org/2000/svg">
<rect x="1" y="1.5" width="38" height="38" rx="19" stroke="currentColor" stroke-width="2"/>
<mask id="mask0_5142_8940" style="mask-type:alpha" maskUnits="userSpaceOnUse" x="8" y="8" width="24" height="25">
<rect x="8" y="8.5" width="24" height="24" fill="#D9D9D9"/>
</mask>
<g mask="url(#mask0_5142_8940)">
<path d="M19 21.5H14C13.7167 21.5 13.4792 21.4042 13.2875 21.2125C13.0958 21.0208 13 20.7833 13 20.5C13 20.2167 13.0958 19.9792 13.2875 19.7875C13.4792 19.5958 13.7167 19.5 14 19.5H19V14.5C19 14.2167 19.0958 13.9792 19.2875 13.7875C19.4792 13.5958 19.7167 13.5 20 13.5C20.2833 13.5 20.5208 13.5958 20.7125 13.7875C20.9042 13.9792 21 14.2167 21 14.5V19.5H26C26.2833 19.5 26.5208 19.5958 26.7125 19.7875C26.9042 19.9792 27 20.2167 27 20.5C27 20.7833 26.9042 21.0208 26.7125 21.2125C26.5208 21.4042 26.2833 21.5 26 21.5H21V26.5C21 26.7833 20.9042 27.0208 20.7125 27.2125C20.5208 27.4042 20.2833 27.5 20 27.5C19.7167 27.5 19.4792 27.4042 19.2875 27.2125C19.0958 27.0208 19 26.7833 19 26.5V21.5Z" fill="currentColor"/>
</g>
</svg>
