<svg width="32" height="32" viewBox="0 0 32 32" xmlns="http://www.w3.org/2000/svg">
<g id="users">
<path id="Vector" d="M15.9933 8C15.6317 8 15.2683 8.07167 14.9267 8.21417L7.4825 11.2925C7.06333 11.4658 7.07417 12.0492 7.4925 12.2225L14.9775 15.1875C15.6332 15.4533 16.3667 15.4533 17.0225 15.1875L24.5075 12.2225C24.9267 12.0592 24.9267 11.4658 24.5175 11.2925L17.0533 8.21417C16.7179 8.07236 16.3575 7.99952 15.9933 8ZM25.5 13.075C25.4365 13.0754 25.3736 13.0881 25.315 13.1125L16.9717 16.3433C16.8783 16.3816 16.7984 16.4466 16.742 16.5303C16.6857 16.614 16.6554 16.7125 16.655 16.8133V24.2267C16.6558 24.3078 16.6763 24.3876 16.7148 24.459C16.7533 24.5305 16.8086 24.5915 16.876 24.6368C16.9433 24.682 17.0207 24.7102 17.1014 24.7189C17.1821 24.7276 17.2637 24.7166 17.3392 24.6867L25.6833 21.445C25.7769 21.4102 25.8575 21.3475 25.9141 21.2654C25.9708 21.1832 26.0008 21.0856 26 20.9858V13.5725C25.9991 13.4405 25.946 13.3141 25.8524 13.2211C25.7587 13.128 25.632 13.0758 25.5 13.0758V13.075ZM6.56333 13.1075C6.48934 13.1049 6.41561 13.1176 6.34677 13.1448C6.27794 13.1721 6.21548 13.2133 6.16333 13.2658C6.07167 13.3583 6 13.47 6 13.6033V20.5658C6 20.9342 6.42917 21.18 6.75667 21.0158L11.9817 18.5108L12.2375 18.3883L14.7117 17.1917C15.1 17.0083 15.07 16.435 14.6608 16.2817L6.73583 13.1433C6.68113 13.1204 6.62262 13.108 6.56333 13.1067V13.1075Z" fill="currentColor"/>
</g>
</svg>
