<svg width="16" height="15" viewBox="0 0 16 15" fill="none" xmlns="http://www.w3.org/2000/svg">
<path d="M13.5091 11.4103C13.5091 11.4345 13.5187 11.4576 13.5358 11.4747C13.5528 11.4917 13.576 11.5013 13.6001 11.5013C13.6243 11.5013 13.6474 11.4917 13.6645 11.4747C13.6815 11.4576 13.6911 11.4345 13.6911 11.4103C13.6911 11.3862 13.6815 11.363 13.6645 11.346C13.6474 11.3289 13.6243 11.3193 13.6001 11.3193C13.576 11.3193 13.5528 11.3289 13.5358 11.346C13.5187 11.363 13.5091 11.3862 13.5091 11.4103ZM11.5001 13.4833C11.5001 13.5313 11.5192 13.5774 11.5531 13.6113C11.5871 13.6453 11.6331 13.6643 11.6811 13.6643C11.7291 13.6643 11.7752 13.6453 11.8091 13.6113C11.8431 13.5774 11.8621 13.5313 11.8621 13.4833C11.8621 13.4353 11.8431 13.3893 11.8091 13.3553C11.7752 13.3214 11.7291 13.3023 11.6811 13.3023C11.6331 13.3023 11.5871 13.3214 11.5531 13.3553C11.5192 13.3893 11.5001 13.4353 11.5001 13.4833ZM8.79213 14.5503C8.79213 14.6225 8.82078 14.6917 8.87179 14.7427C8.9228 14.7937 8.99199 14.8223 9.06413 14.8223C9.13626 14.8223 9.20545 14.7937 9.25646 14.7427C9.30747 14.6917 9.33612 14.6225 9.33612 14.5503C9.33612 14.5146 9.32909 14.4792 9.31542 14.4462C9.30175 14.4132 9.28172 14.3833 9.25646 14.358C9.2312 14.3327 9.20122 14.3127 9.16821 14.299C9.13521 14.2854 9.09984 14.2783 9.06413 14.2783C9.02841 14.2783 8.99304 14.2854 8.96004 14.299C8.92703 14.3127 8.89705 14.3327 8.87179 14.358C8.84653 14.3833 8.8265 14.4132 8.81283 14.4462C8.79916 14.4792 8.79213 14.5146 8.79213 14.5503ZM5.87712 14.4073C5.87712 14.5033 5.91526 14.5954 5.98315 14.6633C6.05104 14.7312 6.14312 14.7693 6.23912 14.7693C6.33513 14.7693 6.42721 14.7312 6.4951 14.6633C6.56299 14.5954 6.60113 14.5033 6.60113 14.4073C6.60113 14.3113 6.56299 14.2192 6.4951 14.1514C6.42721 14.0835 6.33513 14.0453 6.23912 14.0453C6.14312 14.0453 6.05104 14.0835 5.98315 14.1514C5.91526 14.2192 5.87712 14.3113 5.87712 14.4073ZM3.29113 13.0803C3.29113 13.1398 3.30284 13.1987 3.32561 13.2537C3.34837 13.3086 3.38174 13.3586 3.42381 13.4006C3.46587 13.4427 3.51581 13.4761 3.57077 13.4988C3.62573 13.5216 3.68464 13.5333 3.74412 13.5333C3.80361 13.5333 3.86252 13.5216 3.91748 13.4988C3.97244 13.4761 4.02238 13.4427 4.06444 13.4006C4.10651 13.3586 4.13988 13.3086 4.16264 13.2537C4.18541 13.1987 4.19712 13.1398 4.19712 13.0803C4.19712 13.0208 4.18541 12.9619 4.16264 12.907C4.13988 12.852 4.10651 12.8021 4.06444 12.76C4.02238 12.7179 3.97244 12.6846 3.91748 12.6618C3.86252 12.639 3.80361 12.6273 3.74412 12.6273C3.68464 12.6273 3.62573 12.639 3.57077 12.6618C3.51581 12.6846 3.46587 12.7179 3.42381 12.76C3.38174 12.8021 3.34837 12.852 3.32561 12.907C3.30284 12.9619 3.29113 13.0208 3.29113 13.0803ZM1.50013 10.8243C1.50013 10.9686 1.55744 11.107 1.65946 11.209C1.76148 11.311 1.89985 11.3683 2.04413 11.3683C2.1884 11.3683 2.32677 11.311 2.42879 11.209C2.53081 11.107 2.58812 10.9686 2.58812 10.8243C2.58812 10.6801 2.53081 10.5417 2.42879 10.4397C2.32677 10.3376 2.1884 10.2803 2.04413 10.2803C1.89985 10.2803 1.76148 10.3376 1.65946 10.4397C1.55744 10.5417 1.50013 10.6801 1.50013 10.8243ZM0.828125 8.05433C0.828125 8.13759 0.844524 8.22003 0.876385 8.29695C0.908247 8.37387 0.954947 8.44376 1.01382 8.50263C1.07269 8.56151 1.14258 8.60821 1.2195 8.64007C1.29642 8.67193 1.37887 8.68833 1.46213 8.68833C1.54538 8.68833 1.62783 8.67193 1.70475 8.64007C1.78167 8.60821 1.85156 8.56151 1.91043 8.50263C1.9693 8.44376 2.016 8.37387 2.04786 8.29695C2.07973 8.22003 2.09612 8.13759 2.09612 8.05433C2.09612 7.88618 2.02933 7.72492 1.91043 7.60602C1.79153 7.48712 1.63027 7.42033 1.46213 7.42033C1.29398 7.42033 1.13272 7.48712 1.01382 7.60602C0.894921 7.72492 0.828125 7.88618 0.828125 8.05433ZM1.38112 5.30233C1.38112 5.39754 1.39988 5.49181 1.43631 5.57977C1.47275 5.66773 1.52615 5.74766 1.59347 5.81498C1.6608 5.8823 1.74072 5.93571 1.82868 5.97214C1.91664 6.00858 2.01092 6.02733 2.10613 6.02733C2.29841 6.02733 2.48281 5.95094 2.61878 5.81498C2.75474 5.67902 2.83113 5.49461 2.83113 5.30233C2.83113 5.11005 2.75474 4.92564 2.61878 4.78968C2.48281 4.65371 2.29841 4.57733 2.10613 4.57733C1.91384 4.57733 1.72944 4.65371 1.59347 4.78968C1.45751 4.92564 1.38112 5.11005 1.38112 5.30233ZM3.04012 3.08333C3.04012 3.19049 3.06123 3.2966 3.10224 3.3956C3.14325 3.4946 3.20335 3.58455 3.27913 3.66033C3.3549 3.7361 3.44485 3.79621 3.54386 3.83721C3.64286 3.87822 3.74897 3.89933 3.85613 3.89933C3.96328 3.89933 4.06939 3.87822 4.16839 3.83721C4.2674 3.79621 4.35735 3.7361 4.43312 3.66033C4.5089 3.58455 4.569 3.4946 4.61001 3.3956C4.65102 3.2966 4.67212 3.19049 4.67212 3.08333C4.67212 2.86691 4.58615 2.65936 4.43312 2.50633C4.28009 2.3533 4.07254 2.26733 3.85613 2.26733C3.63971 2.26733 3.43216 2.3533 3.27913 2.50633C3.1261 2.65936 3.04012 2.86691 3.04012 3.08333ZM5.47613 1.81233C5.47613 1.93131 5.49956 2.04912 5.54509 2.15904C5.59062 2.26896 5.65736 2.36884 5.74149 2.45297C5.82562 2.5371 5.92549 2.60383 6.03541 2.64936C6.14533 2.69489 6.26315 2.71833 6.38212 2.71833C6.62241 2.71833 6.85286 2.62287 7.02276 2.45297C7.19267 2.28306 7.28813 2.05261 7.28813 1.81233C7.28813 1.57204 7.19267 1.3416 7.02276 1.17169C6.85286 1.00178 6.62241 0.906328 6.38212 0.906328C6.14184 0.906328 5.91139 1.00178 5.74149 1.17169C5.57158 1.3416 5.47613 1.57204 5.47613 1.81233ZM8.21213 1.73333C8.21213 1.99775 8.31717 2.25134 8.50414 2.43831C8.69111 2.62529 8.94471 2.73033 9.20913 2.73033C9.47355 2.73033 9.72714 2.62529 9.91411 2.43831C10.1011 2.25134 10.2061 1.99775 10.2061 1.73333C10.2061 1.46891 10.1011 1.21532 9.91411 1.02834C9.72714 0.841369 9.47355 0.736328 9.20913 0.736328C8.94471 0.736328 8.69111 0.841369 8.50414 1.02834C8.31717 1.21532 8.21213 1.46891 8.21213 1.73333ZM10.7171 2.86033C10.7171 3.14862 10.8316 3.4251 11.0355 3.62895C11.2394 3.83281 11.5158 3.94733 11.8041 3.94733C12.0924 3.94733 12.3689 3.83281 12.5728 3.62895C12.7766 3.4251 12.8911 3.14862 12.8911 2.86033C12.8911 2.57204 12.7766 2.29555 12.5728 2.0917C12.3689 1.88785 12.0924 1.77333 11.8041 1.77333C11.5158 1.77333 11.2394 1.88785 11.0355 2.0917C10.8316 2.29555 10.7171 2.57204 10.7171 2.86033ZM12.4971 4.97733C12.4971 5.13203 12.5276 5.28521 12.5868 5.42813C12.646 5.57105 12.7328 5.70091 12.8422 5.8103C12.9515 5.91969 13.0814 6.00646 13.2243 6.06566C13.3672 6.12486 13.5204 6.15533 13.6751 6.15533C13.8298 6.15533 13.983 6.12486 14.1259 6.06566C14.2688 6.00646 14.3987 5.91969 14.5081 5.8103C14.6175 5.70091 14.7043 5.57105 14.7635 5.42813C14.8227 5.28521 14.8531 5.13203 14.8531 4.97733C14.8531 4.82263 14.8227 4.66945 14.7635 4.52653C14.7043 4.38361 14.6175 4.25374 14.5081 4.14436C14.3987 4.03497 14.2688 3.9482 14.1259 3.889C13.983 3.8298 13.8298 3.79933 13.6751 3.79933C13.5204 3.79933 13.3672 3.8298 13.2243 3.889C13.0814 3.9482 12.9515 4.03497 12.8422 4.14436C12.7328 4.25374 12.646 4.38361 12.5868 4.52653C12.5276 4.66945 12.4971 4.82263 12.4971 4.97733ZM13.2051 7.71933C13.2051 7.88598 13.2379 8.05099 13.3017 8.20495C13.3655 8.35892 13.459 8.49881 13.5768 8.61665C13.6946 8.73448 13.8345 8.82796 13.9885 8.89173C14.1425 8.9555 14.3075 8.98833 14.4741 8.98833C14.8107 8.98833 15.1335 8.85463 15.3714 8.61665C15.6094 8.37866 15.7431 8.05589 15.7431 7.71933C15.7431 7.38277 15.6094 7.05999 15.3714 6.82201C15.1335 6.58403 14.8107 6.45033 14.4741 6.45033C14.1376 6.45033 13.8148 6.58403 13.5768 6.82201C13.3388 7.05999 13.2051 7.38277 13.2051 7.71933Z" fill="#29C499"/>
</svg>
