<svg width="32" height="32" viewBox="0 0 32 32" xmlns="http://www.w3.org/2000/svg">
<g id="users">
<g id="Group">
<g id="Group_2">
<g id="Group_3">
<path id="Vector" fill-rule="evenodd" clip-rule="evenodd" d="M5 27.1573V10.4578C5 9.99349 5.37729 9.61551 5.84231 9.61551H7.80758V7.64989C7.80758 7.18556 8.18522 6.80758 8.65024 6.80758H10.6155V4.84231C10.6155 4.37798 10.9928 4 11.4578 4H25.4114C25.8754 4 26.2538 4.37798 26.2538 4.84231V13.8764C26.2538 14.3414 25.8754 14.7187 25.4114 14.7187C24.9464 14.7187 24.5688 14.3414 24.5688 13.8764V5.68462H12.3001V6.80758H22.6028C23.0668 6.80758 23.4451 7.18556 23.4451 7.64989V20.6988H24.5688V19.3908C24.5688 18.9265 24.9464 18.5485 25.4114 18.5485C25.8754 18.5485 26.2538 18.9265 26.2538 19.3908V21.5412C26.2538 22.0062 25.8754 22.3835 25.4114 22.3835H23.4451V24.3498C23.4451 24.8148 23.0668 25.1921 22.6028 25.1921H20.6382V27.1573C20.6382 27.6224 20.2599 28 19.7956 28H5.84231C5.37729 28 5 27.6224 5 27.1573ZM18.9533 26.315V11.3001H6.68462V26.315H18.9533ZM7.99058 24.4529C7.99058 24.1438 8.2421 23.8916 8.55189 23.8916H12.8662C13.1753 23.8916 13.4279 24.1438 13.4279 24.4529C13.4279 24.763 13.1753 25.0146 12.8662 25.0146H8.55189C8.2421 25.0146 7.99058 24.763 7.99058 24.4529ZM14.6753 24.4529C14.6753 24.1438 14.9268 23.8916 15.2366 23.8916H17.1316C17.441 23.8916 17.6932 24.1438 17.6932 24.4529C17.6932 24.763 17.441 25.0146 17.1316 25.0146H15.2366C14.9268 25.0146 14.6753 24.763 14.6753 24.4529ZM21.7605 23.5075V8.4922H9.49255V9.61551H19.7956C20.2599 9.61551 20.6382 9.99349 20.6382 10.4578V23.5075H21.7605ZM7.99058 22.255C7.99058 21.9455 8.2421 21.6933 8.55189 21.6933H17.1316C17.441 21.6933 17.6932 21.9455 17.6932 22.255C17.6932 22.5647 17.441 22.8163 17.1316 22.8163H8.55189C8.2421 22.8163 7.99058 22.5647 7.99058 22.255ZM7.99058 19.9898C7.99058 19.6807 8.2421 19.4282 8.55189 19.4282H17.1316C17.441 19.4282 17.6932 19.6807 17.6932 19.9898C17.6932 20.3 17.441 20.5515 17.1316 20.5515H8.55189C8.2421 20.5515 7.99058 20.3 7.99058 19.9898ZM7.99058 17.7233C7.99058 17.4142 8.2421 17.162 8.55189 17.162H17.1316C17.441 17.162 17.6932 17.4142 17.6932 17.7233C17.6932 18.0335 17.441 18.285 17.1316 18.285H8.55189C8.2421 18.285 7.99058 18.0335 7.99058 17.7233ZM24.5547 16.6648V16.5291C24.5547 16.0651 24.932 15.6868 25.3971 15.6868C25.8614 15.6868 26.2394 16.0651 26.2394 16.5291V16.6648C26.2394 17.1298 25.8614 17.5071 25.3971 17.5071C24.932 17.5071 24.5547 17.1298 24.5547 16.6648ZM7.99058 15.4579C7.99058 15.1484 8.2421 14.8962 8.55189 14.8962H17.1316C17.441 14.8962 17.6932 15.1484 17.6932 15.4579C17.6932 15.7677 17.441 16.0192 17.1316 16.0192H8.55189C8.2421 16.0192 7.99058 15.7677 7.99058 15.4579ZM7.99058 13.1921C7.99058 12.883 8.2421 12.6304 8.55189 12.6304H17.1316C17.441 12.6304 17.6932 12.883 17.6932 13.1921C17.6932 13.5022 17.441 13.7537 17.1316 13.7537H8.55189C8.2421 13.7537 7.99058 13.5022 7.99058 13.1921Z" fill="currentColor"/>
</g>
</g>
</g>
</g>
</svg>
