<svg width="16" height="16" viewBox="0 0 16 16" fill="none" xmlns="http://www.w3.org/2000/svg">
<path d="M2.4 16C1.73333 16 1.16667 15.7667 0.7 15.3C0.233333 14.8333 0 14.2667 0 13.6C0 13.08 0.15 12.6167 0.45 12.21C0.75 11.8033 1.13333 11.5133 1.6 11.34V4.66C1.13333 4.48667 0.75 4.19667 0.45 3.79C0.15 3.38333 0 2.92 0 2.4C0 1.73333 0.233333 1.16667 0.7 0.7C1.16667 0.233333 1.73333 0 2.4 0C2.92 0 3.38333 0.15 3.79 0.45C4.19667 0.75 4.48667 1.13333 4.66 1.6H11.34C11.5 1.13333 11.7833 0.75 12.19 0.45C12.5967 0.15 13.0667 0 13.6 0C14.2667 0 14.8333 0.233333 15.3 0.7C15.7667 1.16667 16 1.73333 16 2.4C16 2.93333 15.85 3.40333 15.55 3.81C15.25 4.21667 14.8667 4.5 14.4 4.66V11.34C14.8667 11.5133 15.25 11.8033 15.55 12.21C15.85 12.6167 16 13.08 16 13.6C16 14.2667 15.7667 14.8333 15.3 15.3C14.8333 15.7667 14.2667 16 13.6 16C13.08 16 12.6167 15.85 12.21 15.55C11.8033 15.25 11.5133 14.8667 11.34 14.4H4.66C4.48667 14.8667 4.19667 15.25 3.79 15.55C3.38333 15.85 2.92 16 2.4 16ZM4.66 12.8H11.34C11.46 12.4533 11.6467 12.1533 11.9 11.9C12.1533 11.6467 12.4533 11.46 12.8 11.34V4.66C12.4533 4.54 12.1533 4.35333 11.9 4.1C11.6467 3.84667 11.46 3.54667 11.34 3.2H4.66C4.54 3.54667 4.35333 3.84667 4.1 4.1C3.84667 4.35333 3.54667 4.54 3.2 4.66V11.34C3.54667 11.46 3.84667 11.6467 4.1 11.9C4.35333 12.1533 4.54 12.4533 4.66 12.8Z" fill="currentColor"/>
</svg>
