<svg width="36" height="36" viewBox="0 0 36 36" fill="none" xmlns="http://www.w3.org/2000/svg">
  <rect width="36" height="36" rx="18" fill="#009344" />
  <g clip-path="url(#clip0_276_66)">
    <path
      fill-rule="evenodd"
      clip-rule="evenodd"
      d="M9.44488 17.5849C9.52462 18.8421 10.906 19.5599 12.0068 18.9216C12.547 18.602 12.8675 18.0035 12.8277 17.3854C12.8074 17.0261 12.8073 16.6668 12.8675 16.3083C13.1873 14.0129 15.1088 12.2172 17.4502 12.0777C20.4124 11.8782 22.8743 14.2725 22.7742 17.2054C22.6945 19.7198 20.6728 21.8148 18.1507 21.9736H18.1304V20.7164C18.1304 19.9183 17.2501 19.4398 16.5692 19.8583L11.8262 22.8123C11.1859 23.2114 11.1859 24.1295 11.8262 24.5285L16.5692 27.4817C17.2493 27.9011 18.1304 27.4217 18.1304 26.6236V25.3462C22.2934 25.1864 25.7559 21.9145 26.1358 17.7846C26.5759 12.5765 22.2331 8.24703 17.0296 8.72569C12.9269 9.085 9.66448 12.4566 9.44493 16.5673C9.42461 16.9063 9.42455 17.2451 9.44488 17.5849Z"
      fill="white"
    />
  </g>
  <defs>
    <clipPath id="clip0_276_66">
      <rect width="18" height="20" fill="white" transform="translate(9 8)" />
    </clipPath>
  </defs>
</svg>
