<svg width="17" height="12" viewBox="0 0 17 12" fill="none" xmlns="http://www.w3.org/2000/svg">
<path d="M15.7834 5.36259L10.6574 0.263323C10.3044 -0.0877743 9.733 -0.0877743 9.39686 0.263323C9.04392 0.61442 9.04392 1.18286 9.39686 1.51724L13.0103 5.11181H0.976694C0.489299 5.11181 0.0859375 5.51306 0.0859375 5.99791C0.0859375 6.48276 0.489299 6.88401 0.976694 6.88401H12.9935L9.39686 10.4786C9.04392 10.8297 9.04392 11.3981 9.39686 11.7325C9.56493 11.8997 9.80022 12 10.0355 12C10.2708 12 10.4893 11.9164 10.6742 11.7325L15.817 6.61651C15.9851 6.44932 16.0859 6.21526 16.0859 5.98119C16.0523 5.76385 15.9515 5.52978 15.7834 5.36259Z" fill="currentColor"/>
</svg>
