<svg width="50" height="50" viewBox="0 0 50 50" fill="none" xmlns="http://www.w3.org/2000/svg">
<g id="Icon/File">
<circle id="Oval" cx="25" cy="25" r="25" fill="#55AB68" fill-opacity="0.2"/>
<path id="Path" fill-rule="evenodd" clip-rule="evenodd" d="M11.0257 24.0234C11.1603 26.1466 13.4934 27.3589 15.3525 26.2809C16.2648 25.7412 16.8062 24.7303 16.7388 23.6864C16.7045 23.0796 16.7045 22.4728 16.8062 21.8673C17.3462 17.9907 20.5915 14.9579 24.5458 14.7224C29.5486 14.3854 33.7064 18.4291 33.5374 23.3824C33.4027 27.6289 29.9884 31.1672 25.7288 31.4354H25.6945V29.3122C25.6945 27.9643 24.2078 27.1561 23.0578 27.8629L15.0474 32.8519C13.9661 33.5258 13.9661 35.0765 15.0474 35.7504L23.0578 40.738C24.2065 41.4462 25.6945 40.6367 25.6945 39.2887V37.1313C32.7253 36.8615 38.5732 31.3356 39.2147 24.3606C39.958 15.5648 32.6236 8.25274 23.8355 9.06114C16.9064 9.66797 11.3965 15.3623 11.0257 22.3047C10.9914 22.8773 10.9914 23.4498 11.0257 24.0238L11.0257 24.0234Z" fill="#55AB68"/>
</g>
</svg>
