<svg width="24" height="24" viewBox="0 0 24 24" fill="none" xmlns="http://www.w3.org/2000/svg">
<mask id="mask0_5626_5816" style="mask-type:alpha" maskUnits="userSpaceOnUse" x="0" y="0" width="24" height="24">
<rect width="24" height="24" fill="#D9D9D9"/>
</mask>
<g mask="url(#mask0_5626_5816)">
<path fill-rule="evenodd" clip-rule="evenodd" d="M15.5125 21.2875C14.4208 21.7625 13.25 22 12 22C10.75 22 9.57917 21.7625 8.4875 21.2875C7.39583 20.8125 6.44583 20.1708 5.6375 19.3625C4.82917 18.5542 4.1875 17.6042 3.7125 16.5125C3.2375 15.4208 3 14.25 3 13C3 11.75 3.2375 10.5792 3.7125 9.48751C4.1875 8.39585 4.82917 7.44585 5.6375 6.63751C6.44583 5.82918 7.39583 5.18751 8.4875 4.71251C9.57917 4.23751 10.75 4.00001 12 4.00001H12.15L11.3 3.15001C11.1 2.95001 11.0042 2.71668 11.0125 2.45001C11.0208 2.18335 11.1167 1.95001 11.3 1.75001C11.5 1.55001 11.7375 1.44585 12.0125 1.43751C12.2875 1.42918 12.525 1.52501 12.725 1.72501L15.3 4.30001C15.5 4.50001 15.6 4.73335 15.6 5.00001C15.6 5.26668 15.5 5.50001 15.3 5.70001L12.725 8.27501C12.525 8.47501 12.2875 8.57085 12.0125 8.56251C11.7375 8.55418 11.5 8.45001 11.3 8.25001C11.1167 8.05001 11.0208 7.81668 11.0125 7.55001C11.0042 7.28335 11.1 7.05001 11.3 6.85001L12.15 6.00001H12C10.05 6.00001 8.39583 6.67918 7.0375 8.03751C5.67917 9.39585 5 11.05 5 13C5 14.95 5.67917 16.6042 7.0375 17.9625C7.39187 18.3169 7.76638 18.625 8.16103 18.887C8.35082 18.6043 8.7161 18.1119 9.09428 17.8821C9.64182 17.5493 10.2719 17.3402 10.9846 17.2549C10.9324 16.8965 10.8629 16.5381 10.776 16.1797C10.6891 15.8213 10.5848 15.4886 10.4631 15.1814C10.2719 15.335 10.0633 15.4544 9.83736 15.5398C9.6114 15.6251 9.36805 15.6678 9.10732 15.6678C8.53371 15.6678 8.04266 15.4672 7.63418 15.0662C7.2257 14.6651 7.02146 14.183 7.02146 13.6198V12.5959C7.02146 12.3057 6.97366 12.0327 6.87806 11.7767C6.78246 11.5207 6.65644 11.2818 6.5 11.0599C7.36911 11.0429 8.14261 11.1197 8.82051 11.2903C9.4115 11.4439 9.95035 11.6956 10.437 12.0455C10.9237 12.3953 11.1758 12.9201 11.1932 13.6198C11.1932 13.7734 11.1801 13.9142 11.1541 14.0422C11.128 14.1702 11.0802 14.3025 11.0107 14.439C10.7847 14.2683 10.5587 14.1147 10.3328 13.9782C10.1068 13.8417 9.87213 13.7222 9.62878 13.6198C9.92427 13.8417 10.2632 14.183 10.6456 14.6438C11.028 15.1046 11.3844 15.6507 11.7146 16.2821C12.0623 15.4459 12.4968 14.6225 13.0183 13.8118C13.5398 13.0012 14.1481 12.2545 14.8434 11.5719C14.4436 11.845 14.0612 12.1351 13.6962 12.4423C13.3312 12.7495 12.9748 13.0737 12.6272 13.415C12.5055 13.2273 12.4099 13.0182 12.3404 12.7879C12.2709 12.5575 12.2361 12.3228 12.2361 12.0839C12.2361 11.3671 12.4881 10.7613 12.9922 10.2664C13.4963 9.77144 14.1134 9.52398 14.8434 9.52398H15.8863C16.2861 9.52398 16.6164 9.47278 16.8771 9.37038C17.1378 9.26799 17.3551 9.14852 17.5289 9.012C17.7201 8.8584 17.8679 8.68774 17.9722 8.50002C18.0417 9.64344 17.9809 10.6674 17.7897 11.5719C17.6332 12.3399 17.3377 13.0438 16.9032 13.6838C16.4686 14.3238 15.782 14.6438 14.8434 14.6438C14.5827 14.6438 14.335 14.6097 14.1003 14.5414C13.8657 14.4731 13.6527 14.3793 13.4615 14.2598C13.3399 14.5841 13.2008 15.015 13.0444 15.5526C12.8879 16.0901 12.7662 16.6661 12.6793 17.2805C13.3399 17.4 13.9222 17.6218 14.4262 17.9461C15.036 18.3383 15.4904 19.098 15.4904 19.098C15.4904 19.098 15.4832 19.1041 15.4691 19.1155C16.0013 18.8102 16.4991 18.4259 16.9625 17.9625C18.3208 16.6042 19 14.95 19 13C19 12.7167 19.0958 12.4792 19.2875 12.2875C19.4792 12.0958 19.7167 12 20 12C20.2833 12 20.5208 12.0958 20.7125 12.2875C20.9042 12.4792 21 12.7167 21 13C21 14.25 20.7625 15.4208 20.2875 16.5125C19.8125 17.6042 19.1708 18.5542 18.3625 19.3625C17.5542 20.1708 16.6042 20.8125 15.5125 21.2875Z" fill="currentColor"/>
</g>
</svg>
