<svg width="96" height="96" viewBox="0 0 96 96" fill="none" xmlns="http://www.w3.org/2000/svg">
<circle cx="48" cy="48" r="48" fill="#55AB68" fill-opacity="0.2"/>
<path d="M52.158 43.3622H43.8418C43.0423 43.3622 42.3848 42.7099 42.3848 41.9085V33.6114C42.3848 32.8137 43.0423 32.1577 43.8418 32.1577H52.1618C52.965 32.1577 53.6188 32.8137 53.6188 33.6114V41.9085C53.615 42.7099 52.9613 43.3622 52.158 43.3622H52.158Z" fill="#55AB68"/>
<path d="M52.1588 42.6274H48.7592H44.1975H43.8425H43.8388H43.7865C43.7678 42.6274 43.7529 42.6274 43.7342 42.6237C43.667 42.6162 43.667 42.6162 43.7305 42.6237C43.7454 42.6274 43.7641 42.6274 43.779 42.6312C43.7454 42.6237 43.7118 42.62 43.6819 42.6088C43.6483 42.6013 43.6184 42.5902 43.5848 42.5827C43.4727 42.5529 43.6296 42.6013 43.6259 42.6051C43.6147 42.6125 43.5026 42.5454 43.4951 42.538C43.4652 42.5231 43.4391 42.5044 43.4129 42.4858C43.2859 42.4112 43.454 42.5119 43.4465 42.5156C43.4279 42.5268 43.2859 42.3628 43.271 42.3479C43.1888 42.2659 43.3083 42.3814 43.2971 42.3851C43.2934 42.3851 43.2485 42.3143 43.2448 42.3031C43.2261 42.2771 43.2112 42.2472 43.1962 42.2174C43.1103 42.0534 43.1813 42.2174 43.1925 42.2174C43.1813 42.2174 43.1253 41.9789 43.129 41.9751C43.1365 41.9714 43.1402 42.1727 43.1365 42.0236C43.1365 41.99 43.1327 41.9565 43.1327 41.9192V41.9006V41.7552V41.1141V36.1904V34.1404V33.6633V33.626V33.6185V33.5663C43.1327 33.5403 43.1365 33.5142 43.1365 33.4881C43.1402 33.4284 43.1402 33.4545 43.1253 33.5589C43.1477 33.5179 43.1776 33.3874 43.1813 33.3427C43.1888 33.2532 43.1103 33.462 43.1626 33.3837C43.185 33.3502 43.2 33.3092 43.2187 33.2756C43.2336 33.2458 43.2523 33.2197 43.271 33.1936C43.3457 33.0669 43.2448 33.2346 43.2411 33.2272C43.2299 33.2048 43.3905 33.0706 43.4092 33.052C43.5175 32.9439 43.3046 33.1004 43.3942 33.0632C43.4279 33.0482 43.4652 33.0184 43.4988 32.9998C43.5287 32.9849 43.5586 32.97 43.5848 32.9551C43.6894 32.8991 43.5437 32.9812 43.5437 32.9737C43.5437 32.9588 43.7491 32.9178 43.7604 32.9141C43.8612 32.8842 43.5698 32.9178 43.7379 32.9178C43.7716 32.9178 43.8089 32.9141 43.8425 32.9141H43.921H44.4515H46.5922H51.4564H52.0504H52.1588H52.1625C52.2111 32.9141 52.2036 32.9141 52.241 32.9178C52.4016 32.9252 52.2185 32.9103 52.2185 32.9103C52.2223 32.8991 52.3904 32.9551 52.4128 32.9588C52.5697 32.9961 52.3082 32.8954 52.3941 32.9476C52.4278 32.9662 52.4689 32.9849 52.5025 33.0035C52.5361 33.0222 52.5697 33.0557 52.6071 33.0669C52.693 33.1004 52.4801 32.9476 52.5921 33.0557C52.637 33.1004 52.6855 33.1452 52.7304 33.1936C52.8312 33.298 52.6967 33.1601 52.7042 33.1563C52.7117 33.1526 52.764 33.2458 52.7715 33.257C52.7939 33.2905 52.8088 33.3278 52.8312 33.3651C52.8947 33.4769 52.8163 33.2644 52.8238 33.3464C52.8275 33.3912 52.8574 33.5216 52.8798 33.5626C52.8275 33.4694 52.8723 33.4322 52.8723 33.5142C52.8723 33.421 52.8761 33.7117 52.8761 33.6185V33.6409V34.0546V38.7102V41.01V41.707V41.8785V41.9158V41.9195C52.8761 41.9605 52.8761 41.9642 52.8723 41.9978C52.8649 42.1692 52.8798 41.9754 52.8798 41.9754C52.8835 41.9754 52.8275 42.2177 52.8163 42.2177C52.8088 42.2177 52.9022 42.0462 52.835 42.1767C52.82 42.2065 52.8051 42.2363 52.7901 42.2624C52.7752 42.2922 52.7565 42.3183 52.7378 42.3444C52.6631 42.4786 52.8238 42.2699 52.7528 42.3295C52.7005 42.3742 52.6482 42.4376 52.5996 42.4861C52.495 42.5867 52.6332 42.4525 52.637 42.46C52.637 42.4637 52.566 42.5084 52.5548 42.5121C52.5212 42.5345 52.4838 42.5531 52.4464 42.5718C52.3119 42.6501 52.4651 42.5643 52.4651 42.5643C52.4651 42.5792 52.297 42.6128 52.2746 42.6202C52.1289 42.6612 52.3269 42.6091 52.3231 42.6165C52.3082 42.6314 52.1737 42.6277 52.1588 42.6277C51.7665 42.6351 51.3929 42.9669 51.4116 43.3732C51.4302 43.772 51.7403 44.1261 52.1588 44.1187C52.9807 44.1038 53.7876 43.6416 54.1351 42.8812C54.2957 42.5346 54.363 42.1767 54.363 41.7965V40.1714V34.9344C54.363 34.502 54.3667 34.0659 54.363 33.6335C54.348 32.3923 53.3505 31.4232 52.1139 31.4157C50.7615 31.412 49.4091 31.4157 48.0566 31.4157C46.6743 31.4157 45.292 31.412 43.9096 31.4157C42.6693 31.4194 41.6532 32.3699 41.6345 33.6186C41.6307 34.0249 41.6345 34.4275 41.6345 34.8337V40.0408V41.7517C41.6345 42.0238 41.6457 42.2959 41.7316 42.5568C42.0118 43.4104 42.744 43.9918 43.6332 44.0962C44.0217 44.1409 44.4252 44.1111 44.8137 44.1111H47.2383H51.8746H52.1548C52.5471 44.1111 52.9207 43.7682 52.902 43.3656C52.8908 42.9705 52.577 42.6276 52.1586 42.6276L52.1588 42.6274Z" fill="#55AB68"/>
<path d="M41.9762 63.7509H33.6562C32.8567 63.7509 32.1992 63.0986 32.1992 62.2972V54.0001C32.1992 53.2024 32.8567 52.5464 33.6562 52.5464H41.9762C42.7794 52.5464 43.4332 53.2024 43.4332 54.0001V62.301C43.4332 63.0987 42.7757 63.751 41.9762 63.751V63.7509Z" fill="#55AB68"/>
<path d="M41.9752 63.016H38.5756H34.0139H33.659H33.6552H33.6029C33.5842 63.016 33.5693 63.016 33.5506 63.0123C33.4834 63.0049 33.4834 63.0049 33.5469 63.0123C33.5618 63.016 33.5805 63.016 33.5954 63.0198C33.5618 63.0123 33.5282 63.0086 33.4983 62.9974C33.4647 62.9899 33.4348 62.9788 33.4012 62.9713C33.2891 62.9415 33.446 62.9899 33.4423 62.9937C33.4311 63.0011 33.319 62.934 33.3115 62.9266C33.2816 62.9117 33.2555 62.893 33.2293 62.8744C33.1023 62.7998 33.2704 62.9005 33.2629 62.9042C33.2443 62.9154 33.1023 62.7514 33.0874 62.7365C33.0052 62.6545 33.1247 62.77 33.1135 62.7738C33.1098 62.7738 33.0649 62.7029 33.0612 62.6918C33.0425 62.6657 33.0276 62.6358 33.0126 62.606C32.9267 62.442 32.9977 62.606 33.0089 62.606C32.9977 62.606 32.9417 62.3675 32.9454 62.3637C32.9529 62.36 32.9566 62.5613 32.9529 62.4122C32.9529 62.3787 32.9491 62.3451 32.9491 62.3078V62.2892V62.1438V61.5027V56.579V54.529V54.0519V54.0146V54.0071V53.955C32.9491 53.9289 32.9529 53.9028 32.9529 53.8767C32.9566 53.817 32.9566 53.8431 32.9417 53.9475C32.9641 53.9065 32.994 53.776 32.9977 53.7313C33.0052 53.6419 32.9267 53.8506 32.979 53.7723C33.0014 53.7388 33.0164 53.6978 33.0351 53.6642C33.05 53.6344 33.0687 53.6083 33.0874 53.5822C33.1621 53.4555 33.0612 53.6232 33.0575 53.6158C33.0463 53.5934 33.2069 53.4592 33.2256 53.4406C33.3339 53.3325 33.121 53.489 33.2106 53.4518C33.2443 53.4369 33.2816 53.407 33.3152 53.3884C33.3451 53.3735 33.375 53.3586 33.4012 53.3437C33.5058 53.2878 33.3601 53.3698 33.3601 53.3623C33.3601 53.3474 33.5656 53.3064 33.5768 53.3027C33.6776 53.2728 33.3862 53.3064 33.5543 53.3064C33.588 53.3064 33.6253 53.3027 33.659 53.3027H33.7374H34.2679H36.4086H41.2728H41.8668H41.9752H41.9789C42.0275 53.3027 42.02 53.3027 42.0574 53.3064C42.218 53.3139 42.0349 53.2989 42.0349 53.2989C42.0387 53.2878 42.2068 53.3437 42.2292 53.3474C42.3861 53.3847 42.1246 53.284 42.2105 53.3362C42.2442 53.3549 42.2853 53.3735 42.3189 53.3921C42.3525 53.4108 42.3861 53.4443 42.4235 53.4555C42.5094 53.489 42.2965 53.3362 42.4085 53.4443C42.4534 53.489 42.5019 53.5338 42.5468 53.5822C42.6476 53.6866 42.5131 53.5487 42.5206 53.5449C42.5281 53.5412 42.5804 53.6344 42.5879 53.6456C42.6103 53.6791 42.6252 53.7164 42.6476 53.7537C42.7111 53.8655 42.6327 53.653 42.6402 53.735C42.6439 53.7798 42.6738 53.9102 42.6962 53.9512C42.6439 53.858 42.6887 53.8208 42.6887 53.9028C42.6887 53.8096 42.6925 54.1003 42.6925 54.0071V54.0295V54.4432V59.0988V61.3986V62.0956V62.2671V62.3044V62.3081C42.6925 62.3491 42.6925 62.3528 42.6887 62.3864C42.6813 62.5578 42.6962 62.364 42.6962 62.364C42.6999 62.364 42.6439 62.6063 42.6327 62.6063C42.6252 62.6063 42.7186 62.4348 42.6514 62.5653C42.6364 62.5951 42.6215 62.6249 42.6065 62.651C42.5916 62.6808 42.5729 62.7069 42.5542 62.733C42.4795 62.8672 42.6402 62.6585 42.5692 62.7181C42.5169 62.7628 42.4646 62.8262 42.416 62.8747C42.3114 62.9753 42.4496 62.8411 42.4534 62.8486C42.4534 62.8523 42.3824 62.897 42.3712 62.9008C42.3376 62.9231 42.3002 62.9418 42.2628 62.9604C42.1283 63.0387 42.2815 62.9529 42.2815 62.9529C42.2815 62.9678 42.1134 63.0014 42.091 63.0088C41.9453 63.0499 42.1433 62.9977 42.1396 63.0051C42.1246 63.0238 41.9864 63.0163 41.9752 63.0163C41.5829 63.0238 41.2093 63.3555 41.228 63.7618C41.2467 64.1606 41.5567 64.5147 41.9752 64.5073C42.7971 64.4924 43.604 64.0302 43.9515 63.2698C44.1121 62.9232 44.1794 62.5653 44.1794 62.1851V60.56V55.323C44.1794 54.8906 44.1831 54.4545 44.1794 54.0221C44.1644 52.7809 43.1669 51.8118 41.9303 51.8043C40.5779 51.8006 39.2255 51.8043 37.873 51.8043C36.4907 51.8043 35.1084 51.8006 33.726 51.8043C32.4857 51.8118 31.4658 52.7623 31.4509 54.0147C31.4471 54.4209 31.4509 54.8235 31.4509 55.2298V60.4369V62.1478C31.4509 62.4199 31.4621 62.6919 31.548 62.9528C31.8282 63.8064 32.5605 64.3879 33.4496 64.4922C33.8381 64.537 34.2416 64.5072 34.6301 64.5072H37.0547H41.691H41.9712C42.3635 64.5072 42.7371 64.1642 42.7184 63.7617C42.7035 63.3591 42.3934 63.0162 41.975 63.0162L41.9752 63.016Z" fill="#55AB68"/>
<path d="M62.3473 63.7509H54.0273C53.2241 63.7509 52.5703 63.0986 52.5703 62.2972V54.0001C52.5703 53.2024 53.2241 52.5464 54.0273 52.5464H62.3473C63.1505 52.5464 63.8043 53.2024 63.8043 54.0001V62.301C63.8043 63.0987 63.1505 63.751 62.3473 63.751V63.7509Z" fill="#55AB68"/>
<path d="M62.3483 63.0161H58.9486H54.3869H54.032H54.0283H53.976C53.9573 63.0161 53.9423 63.0161 53.9237 63.0124C53.8564 63.0049 53.8564 63.0049 53.9199 63.0124C53.9349 63.0161 53.9536 63.0161 53.9685 63.0198C53.9349 63.0124 53.9012 63.0086 53.8714 62.9975C53.8377 62.99 53.8078 62.9788 53.7742 62.9714C53.6621 62.9415 53.8191 62.99 53.8153 62.9937C53.8041 63.0012 53.692 62.9341 53.6846 62.9266C53.6547 62.9117 53.6285 62.8931 53.6024 62.8745C53.4753 62.7999 53.6435 62.9005 53.636 62.9043C53.6173 62.9155 53.4753 62.7515 53.4604 62.7365C53.3782 62.6545 53.4978 62.7701 53.4866 62.7738C53.4828 62.7738 53.438 62.703 53.4343 62.6918C53.4156 62.6657 53.4006 62.6359 53.3857 62.6061C53.2998 62.4421 53.3707 62.6061 53.382 62.6061C53.3707 62.6061 53.3147 62.3675 53.3184 62.3638C53.3259 62.3601 53.3297 62.5614 53.3259 62.4123C53.3259 62.3787 53.3222 62.3452 53.3222 62.3079V62.2893V62.1439V61.5028V56.5791V54.529V54.0519V54.0147V54.0072V53.955C53.3222 53.9289 53.3259 53.9028 53.3259 53.8767C53.3297 53.8171 53.3297 53.8432 53.3147 53.9476C53.3371 53.9066 53.367 53.7761 53.3707 53.7314C53.3782 53.6419 53.2998 53.8506 53.3521 53.7724C53.3745 53.7388 53.3894 53.6978 53.4081 53.6643C53.423 53.6345 53.4417 53.6084 53.4604 53.5823C53.5351 53.4555 53.4343 53.6233 53.4305 53.6158C53.4193 53.5935 53.58 53.4593 53.5986 53.4406C53.707 53.3325 53.494 53.4891 53.5837 53.4518C53.6173 53.4369 53.6547 53.4071 53.6883 53.3885C53.7182 53.3735 53.7481 53.3586 53.7742 53.3437C53.8788 53.2878 53.7331 53.3698 53.7331 53.3624C53.7331 53.3475 53.9386 53.3065 53.9498 53.3027C54.0507 53.2729 53.7593 53.3065 53.9274 53.3065C53.961 53.3065 53.9984 53.3027 54.032 53.3027H54.1105H54.641H56.7816H61.6459H62.2399H62.3482H62.352C62.4005 53.3027 62.3931 53.3027 62.4304 53.3065C62.5911 53.3139 62.408 53.299 62.408 53.299C62.4117 53.2878 62.5798 53.3437 62.6023 53.3475C62.7592 53.3847 62.4977 53.2841 62.5836 53.3363C62.6172 53.3549 62.6583 53.3735 62.6919 53.3922C62.7255 53.4108 62.7592 53.4444 62.7965 53.4556C62.8825 53.4891 62.6695 53.3363 62.7816 53.4444C62.8264 53.4891 62.875 53.5338 62.9198 53.5823C63.0207 53.6866 62.8862 53.5487 62.8937 53.545C62.9011 53.5413 62.9534 53.6345 62.9609 53.6456C62.9833 53.6792 62.9983 53.7165 63.0207 53.7537C63.0842 53.8656 63.0057 53.6531 63.0132 53.7351C63.0169 53.7798 63.0468 53.9103 63.0692 53.9513C63.0169 53.8581 63.0618 53.8208 63.0618 53.9028C63.0618 53.8097 63.0655 54.1004 63.0655 54.0072V54.0296V54.4433V59.0989V61.3987V62.0957V62.2672V62.3044V62.3082C63.0655 62.3492 63.0655 62.3529 63.0618 62.3864C63.0543 62.5579 63.0692 62.3641 63.0692 62.3641C63.073 62.3641 63.0169 62.6064 63.0057 62.6064C62.9983 62.6064 63.0917 62.4349 63.0244 62.5654C63.0095 62.5952 62.9945 62.625 62.9796 62.6511C62.9646 62.6809 62.946 62.707 62.9273 62.7331C62.8526 62.8673 63.0132 62.6585 62.9422 62.7182C62.8899 62.7629 62.8376 62.8263 62.7891 62.8747C62.6845 62.9754 62.8227 62.8412 62.8264 62.8486C62.8264 62.8524 62.7554 62.8971 62.7442 62.9008C62.7106 62.9232 62.6732 62.9418 62.6359 62.9605C62.5014 63.0387 62.6546 62.953 62.6546 62.953C62.6546 62.9679 62.4865 63.0015 62.464 63.0089C62.3183 63.0499 62.5163 62.9977 62.5126 63.0052C62.4977 63.0238 62.3632 63.0164 62.3482 63.0164C61.9559 63.0238 61.5824 63.3556 61.601 63.7619C61.6197 64.1607 61.9298 64.5148 62.3482 64.5073C63.1701 64.4924 63.9771 64.0302 64.3245 63.2699C64.4852 62.9232 64.5524 62.5654 64.5524 62.1852V60.56V55.323C64.5524 54.8906 64.5561 54.4545 64.5524 54.0222C64.5375 52.781 63.54 51.8119 62.3034 51.8044C60.951 51.8007 59.5986 51.8044 58.246 51.8044C56.8637 51.8044 55.4814 51.8007 54.0991 51.8044C52.8588 51.8081 51.8426 52.7586 51.8239 54.0073C51.8202 54.4135 51.8239 54.8161 51.8239 55.2224V60.4295V62.1404C51.8239 62.4125 51.8351 62.6846 51.9211 62.9455C52.2013 63.799 52.9335 64.3805 53.8226 64.4849C54.2112 64.5296 54.6147 64.4998 55.0032 64.4998H57.4278H62.0641H62.3443C62.7366 64.4998 63.1101 64.1569 63.0915 63.7543C63.0765 63.3592 62.7665 63.0163 62.348 63.0163L62.3483 63.0161Z" fill="#55AB68"/>
<path d="M38.965 52.5317V49.6579C38.965 49.4827 38.9575 49.3038 38.9799 49.1286C38.965 49.2293 38.9538 49.3262 38.9388 49.4268C38.9575 49.3113 38.9874 49.1994 39.0285 49.0913L38.9164 49.3597C38.9538 49.2777 38.9949 49.1994 39.0397 49.1212C39.1443 48.9423 38.9687 49.2181 38.965 49.2106C38.9613 49.2032 39.0584 49.11 39.0621 49.1025C39.092 49.0727 39.1219 49.0503 39.1518 49.0205C39.2415 48.9311 38.9127 49.1808 39.0621 49.0914C39.1481 49.0429 39.2302 48.9944 39.3236 48.9534L39.0547 49.0653C39.1667 49.0243 39.2751 48.9944 39.3909 48.9758C39.29 48.9907 39.1929 49.0019 39.092 49.0168C39.2975 48.9907 39.5142 49.0019 39.7197 49.0019H40.9712H45.1516H50.2361H54.6145C55.3019 49.0019 55.9931 48.9944 56.6805 49.0019C56.7552 49.0019 56.8299 49.0056 56.9046 49.0168C56.8038 49.0019 56.7066 48.9907 56.6058 48.9758C56.7216 48.9944 56.8337 49.0243 56.942 49.0653L56.673 48.9534C56.7552 48.9907 56.8337 49.0317 56.9121 49.0764C57.0914 49.1808 56.815 49.0056 56.8225 49.0019C56.8299 48.9982 56.9233 49.0951 56.9308 49.0988C56.9607 49.1286 56.9831 49.1584 57.013 49.1883C57.1027 49.2777 56.8523 48.9497 56.942 49.0988C56.9906 49.1845 57.0391 49.2665 57.0802 49.3597L56.9682 49.0914C57.0093 49.2032 57.0391 49.3113 57.0578 49.4268C57.0429 49.3262 57.0317 49.2293 57.0167 49.1286C57.0653 49.5237 57.0317 49.9375 57.0317 50.3326V52.1068V52.5317C57.0317 53.1169 57.5472 53.676 58.1524 53.6499C58.7614 53.6238 59.2732 53.1579 59.2732 52.5317V49.6579C59.2732 49.5424 59.2769 49.4231 59.2732 49.3075C59.2583 48.6329 58.9893 47.9694 58.4999 47.4997C57.9918 47.0114 57.3268 46.7617 56.6244 46.7617H55.1226H52.1638H48.4577H44.6695H41.4789H39.5624H39.2673C37.8626 46.7953 36.738 47.9321 36.7156 49.3336C36.7007 50.2915 36.7156 51.2495 36.7156 52.2074V52.5317C36.7156 53.1169 37.2312 53.676 37.8364 53.6499C38.4528 53.6201 38.9647 53.1579 38.9647 52.5317L38.965 52.5317Z" fill="#55AB68"/>
<path d="M46.8809 43.3588V47.3137V47.8728C46.8809 48.458 47.3964 49.0171 48.0016 48.991C48.6106 48.9649 49.1224 48.499 49.1224 47.8728V43.9179V43.3588C49.1224 42.7736 48.6068 42.2145 48.0016 42.2406C47.3927 42.2704 46.8809 42.7326 46.8809 43.3588Z" fill="#55AB68"/>
</svg>
