<svg width="61" height="60" viewBox="0 0 61 60" fill="currentColor" xmlns="http://www.w3.org/2000/svg">
    <circle cx="30.5" cy="30" r="29" />
    <circle cx="30.5" cy="30" r="29.2544" stroke="#9B9B9B" stroke-opacity="0.2" stroke-width="0.508772" />
    <path
        d="M34.5177 25.915H26.4788C25.7059 25.915 25.0703 25.2844 25.0703 24.5098V16.4892C25.0703 15.7181 25.7059 15.084 26.4788 15.084H34.5214C35.2979 15.084 35.9299 15.7181 35.9299 16.4892V24.5098C35.9263 25.2844 35.2943 25.915 34.5178 25.915H34.5177Z"
        fill="white" />
    <path
        d="M34.5189 25.2048H31.2325H26.8229H26.4798H26.4762H26.4257C26.4076 25.2048 26.3932 25.2048 26.3751 25.2012C26.3101 25.194 26.3101 25.194 26.3715 25.2012C26.3859 25.2048 26.404 25.2048 26.4184 25.2084C26.3859 25.2012 26.3534 25.1976 26.3245 25.1868C26.292 25.1796 26.2631 25.1688 26.2306 25.1616C26.1223 25.1328 26.274 25.1796 26.2704 25.1832C26.2595 25.1904 26.1512 25.1256 26.144 25.1183C26.1151 25.1039 26.0898 25.0859 26.0645 25.0679C25.9417 24.9958 26.1042 25.0931 26.097 25.0967C26.079 25.1075 25.9417 24.949 25.9273 24.9346C25.8478 24.8553 25.9634 24.967 25.9526 24.9706C25.949 24.9706 25.9056 24.9022 25.902 24.8913C25.884 24.8661 25.8695 24.8373 25.8551 24.8085C25.772 24.6499 25.8406 24.8085 25.8514 24.8085C25.8406 24.8085 25.7864 24.5779 25.7901 24.5743C25.7973 24.5707 25.8009 24.7652 25.7973 24.6211C25.7973 24.5887 25.7937 24.5563 25.7937 24.5202V24.5022V24.3617V23.742V18.9824V17.0007V16.5395V16.5034V16.4962V16.4458C25.7937 16.4205 25.7973 16.3953 25.7973 16.3701C25.8009 16.3125 25.8009 16.3377 25.7864 16.4386C25.8081 16.3989 25.837 16.2728 25.8406 16.2296C25.8478 16.1431 25.772 16.3449 25.8226 16.2692C25.8442 16.2368 25.8587 16.1972 25.8767 16.1647C25.8912 16.1359 25.9092 16.1107 25.9273 16.0855C25.9995 15.963 25.902 16.1251 25.8984 16.1179C25.8876 16.0963 26.0429 15.9666 26.0609 15.9485C26.1656 15.8441 25.9598 15.9954 26.0465 15.9594C26.079 15.9449 26.1151 15.9161 26.1476 15.8981C26.1765 15.8837 26.2054 15.8693 26.2306 15.8549C26.3318 15.8008 26.1909 15.8801 26.1909 15.8729C26.1909 15.8585 26.3895 15.8188 26.4004 15.8152C26.4979 15.7864 26.2162 15.8188 26.3787 15.8188C26.4112 15.8188 26.4473 15.8152 26.4798 15.8152H26.5557H27.0685H29.1378H33.8399H34.4141H34.5188H34.5225C34.5694 15.8152 34.5622 15.8152 34.5983 15.8188C34.7536 15.826 34.5766 15.8116 34.5766 15.8116C34.5802 15.8008 34.7427 15.8549 34.7644 15.8585C34.9161 15.8945 34.6633 15.7972 34.7464 15.8477C34.7789 15.8657 34.8186 15.8837 34.8511 15.9017C34.8836 15.9197 34.9161 15.9521 34.9522 15.963C35.0353 15.9954 34.8294 15.8477 34.9378 15.9521C34.9811 15.9954 35.028 16.0386 35.0714 16.0855C35.1689 16.1863 35.0389 16.053 35.0461 16.0494C35.0533 16.0458 35.1039 16.1359 35.1111 16.1467C35.1328 16.1791 35.1472 16.2152 35.1689 16.2512C35.2303 16.3593 35.1544 16.1539 35.1617 16.2332C35.1653 16.2764 35.1942 16.4025 35.2158 16.4422C35.1653 16.3521 35.2086 16.3161 35.2086 16.3953C35.2086 16.3053 35.2122 16.5863 35.2122 16.4962V16.5178V16.9178V21.4182V23.6413V24.3151V24.4809V24.5169V24.5205C35.2122 24.5601 35.2122 24.5637 35.2086 24.5962C35.2014 24.7619 35.2158 24.5745 35.2158 24.5745C35.2194 24.5745 35.1653 24.8087 35.1544 24.8087C35.1472 24.8087 35.2375 24.643 35.1725 24.7691C35.1581 24.7979 35.1436 24.8268 35.1292 24.852C35.1147 24.8808 35.0967 24.906 35.0786 24.9312C35.0064 25.061 35.1617 24.8592 35.093 24.9168C35.0425 24.9601 34.9919 25.0213 34.945 25.0682C34.8439 25.1654 34.9775 25.0357 34.9811 25.0429C34.9811 25.0465 34.9125 25.0898 34.9016 25.0934C34.8691 25.115 34.833 25.133 34.7969 25.151C34.6669 25.2267 34.815 25.1438 34.815 25.1438C34.815 25.1582 34.6525 25.1907 34.6308 25.1979C34.4899 25.2375 34.6814 25.1871 34.6777 25.1943C34.6633 25.2087 34.5333 25.2051 34.5188 25.2051C34.1396 25.2123 33.7785 25.533 33.7965 25.9257C33.8146 26.3113 34.1143 26.6536 34.5188 26.6464C35.3133 26.6319 36.0934 26.1852 36.4293 25.4501C36.5846 25.1151 36.6496 24.7692 36.6496 24.4016V22.8306V17.7682C36.6496 17.3502 36.6532 16.9287 36.6496 16.5107C36.6351 15.3109 35.6709 14.3741 34.4755 14.3668C33.1682 14.3632 31.8608 14.3668 30.5534 14.3668C29.2172 14.3668 27.881 14.3632 26.5447 14.3668C25.3457 14.3704 24.3634 15.2892 24.3454 16.4963C24.3417 16.889 24.3454 17.2782 24.3454 17.6709V22.7044V24.3583C24.3454 24.6213 24.3562 24.8843 24.4393 25.1365C24.7101 25.9617 25.4179 26.5237 26.2774 26.6246C26.653 26.6679 27.0431 26.639 27.4186 26.639H29.7624H34.2442H34.515C34.8942 26.639 35.2554 26.3076 35.2373 25.9184C35.2265 25.5365 34.9231 25.205 34.5187 25.205L34.5189 25.2048Z"
        fill="white" />
    <path
        d="M24.6757 45.624H16.633C15.8602 45.624 15.2246 44.9934 15.2246 44.2188V36.1982C15.2246 35.4271 15.8602 34.793 16.633 34.793H24.6757C25.4522 34.793 26.0842 35.4271 26.0842 36.1982V44.2225C26.0842 44.9935 25.4486 45.6241 24.6757 45.6241V45.624Z"
        fill="white" />
    <path
        d="M24.6751 44.9138H21.3888H16.9792H16.6361H16.6325H16.5819C16.5639 44.9138 16.5494 44.9138 16.5314 44.9102C16.4663 44.903 16.4663 44.903 16.5277 44.9102C16.5422 44.9138 16.5602 44.9138 16.5747 44.9174C16.5422 44.9102 16.5097 44.9066 16.4808 44.8958C16.4483 44.8886 16.4194 44.8778 16.3869 44.8706C16.2786 44.8417 16.4302 44.8886 16.4266 44.8922C16.4158 44.8994 16.3074 44.8345 16.3002 44.8273C16.2713 44.8129 16.246 44.7949 16.2208 44.7769C16.098 44.7048 16.2605 44.8021 16.2533 44.8057C16.2352 44.8165 16.098 44.658 16.0835 44.6436C16.0041 44.5643 16.1197 44.676 16.1088 44.6796C16.1052 44.6796 16.0619 44.6111 16.0583 44.6003C16.0402 44.5751 16.0258 44.5463 16.0113 44.5175C15.9282 44.3589 15.9969 44.5175 16.0077 44.5175C15.9969 44.5175 15.9427 44.2869 15.9463 44.2833C15.9535 44.2797 15.9571 44.4742 15.9535 44.3301C15.9535 44.2977 15.9499 44.2652 15.9499 44.2292V44.2112V44.0707V43.4509V38.6914V36.7096V36.2484V36.2124V36.2052V36.1548C15.9499 36.1295 15.9535 36.1043 15.9535 36.0791C15.9571 36.0214 15.9571 36.0467 15.9427 36.1476C15.9644 36.1079 15.9933 35.9818 15.9969 35.9386C16.0041 35.8521 15.9282 36.0539 15.9788 35.9782C16.0005 35.9458 16.0149 35.9061 16.033 35.8737C16.0474 35.8449 16.0655 35.8197 16.0835 35.7944C16.1558 35.6719 16.0583 35.8341 16.0546 35.8269C16.0438 35.8053 16.1991 35.6755 16.2172 35.6575C16.3219 35.553 16.116 35.7044 16.2027 35.6683C16.2352 35.6539 16.2713 35.6251 16.3038 35.6071C16.3327 35.5927 16.3616 35.5783 16.3869 35.5638C16.488 35.5098 16.3472 35.5891 16.3472 35.5819C16.3472 35.5675 16.5458 35.5278 16.5566 35.5242C16.6541 35.4954 16.3724 35.5278 16.535 35.5278C16.5675 35.5278 16.6036 35.5242 16.6361 35.5242H16.7119H17.2247H19.2941H23.9961H24.5704H24.6751H24.6787C24.7256 35.5242 24.7184 35.5242 24.7545 35.5278C24.9098 35.535 24.7329 35.5206 24.7329 35.5206C24.7365 35.5098 24.899 35.5638 24.9207 35.5675C25.0723 35.6035 24.8195 35.5062 24.9026 35.5566C24.9351 35.5747 24.9748 35.5927 25.0073 35.6107C25.0398 35.6287 25.0723 35.6611 25.1085 35.6719C25.1915 35.7044 24.9857 35.5566 25.094 35.6611C25.1373 35.7044 25.1843 35.7476 25.2276 35.7944C25.3251 35.8953 25.1951 35.762 25.2023 35.7584C25.2096 35.7548 25.2601 35.8449 25.2674 35.8557C25.289 35.8881 25.3035 35.9242 25.3251 35.9602C25.3865 36.0683 25.3107 35.8629 25.3179 35.9422C25.3215 35.9854 25.3504 36.1115 25.3721 36.1512C25.3215 36.0611 25.3649 36.025 25.3649 36.1043C25.3649 36.0142 25.3685 36.2953 25.3685 36.2052V36.2268V36.6268V41.1272V43.3503V44.0241V44.1898V44.2259V44.2295C25.3685 44.2691 25.3685 44.2727 25.3649 44.3051C25.3576 44.4709 25.3721 44.2835 25.3721 44.2835C25.3757 44.2835 25.3215 44.5177 25.3107 44.5177C25.3035 44.5177 25.3938 44.352 25.3287 44.4781C25.3143 44.5069 25.2999 44.5357 25.2854 44.561C25.271 44.5898 25.2529 44.615 25.2349 44.6402C25.1626 44.7699 25.3179 44.5682 25.2493 44.6258C25.1987 44.669 25.1482 44.7303 25.1012 44.7771C25.0001 44.8744 25.1337 44.7447 25.1373 44.7519C25.1373 44.7555 25.0687 44.7988 25.0579 44.8024C25.0254 44.824 24.9893 44.842 24.9532 44.86C24.8232 44.9357 24.9712 44.8528 24.9712 44.8528C24.9712 44.8672 24.8087 44.8996 24.787 44.9069C24.6462 44.9465 24.8376 44.896 24.834 44.9033C24.8195 44.9213 24.6859 44.9141 24.6751 44.9141C24.2959 44.9213 23.9348 45.2419 23.9528 45.6347C23.9709 46.0202 24.2706 46.3625 24.6751 46.3553C25.4696 46.3409 26.2497 45.8941 26.5855 45.1591C26.7408 44.824 26.8058 44.4781 26.8058 44.1106V42.5396V37.4772C26.8058 37.0592 26.8094 36.6376 26.8058 36.2197C26.7914 35.0199 25.8271 34.083 24.6317 34.0758C23.3244 34.0722 22.0171 34.0758 20.7096 34.0758C19.3734 34.0758 18.0372 34.0722 16.7009 34.0758C15.502 34.083 14.5161 35.0018 14.5016 36.2125C14.498 36.6052 14.5016 36.9944 14.5016 37.3871V42.4206V44.0745C14.5016 44.3375 14.5124 44.6005 14.5955 44.8527C14.8664 45.6778 15.5742 46.2399 16.4337 46.3408C16.8093 46.384 17.1993 46.3552 17.5749 46.3552H19.9187H24.4004H24.6713C25.0505 46.3552 25.4116 46.0237 25.3936 45.6346C25.3791 45.2454 25.0794 44.9139 24.6749 44.9139L24.6751 44.9138Z"
        fill="white" />
    <path
        d="M44.3691 45.624H36.3264C35.55 45.624 34.918 44.9934 34.918 44.2188V36.1982C34.918 35.4271 35.55 34.793 36.3264 34.793H44.3691C45.1455 34.793 45.7775 35.4271 45.7775 36.1982V44.2225C45.7775 44.9935 45.1455 45.6241 44.3691 45.6241V45.624Z"
        fill="white" />
    <path
        d="M44.3685 44.9138H41.0822H36.6725H36.3294H36.3258H36.2753C36.2572 44.9138 36.2428 44.9138 36.2247 44.9102C36.1597 44.903 36.1597 44.903 36.2211 44.9102C36.2355 44.9138 36.2536 44.9138 36.268 44.9174C36.2355 44.9102 36.203 44.9066 36.1741 44.8958C36.1416 44.8886 36.1128 44.8778 36.0803 44.8706C35.9719 44.8417 36.1236 44.8886 36.12 44.8922C36.1091 44.8994 36.0008 44.8345 35.9936 44.8273C35.9647 44.8129 35.9394 44.7949 35.9141 44.7769C35.7913 44.7048 35.9539 44.8021 35.9466 44.8057C35.9286 44.8165 35.7913 44.658 35.7769 44.6436C35.6974 44.5643 35.813 44.676 35.8022 44.6796C35.7986 44.6796 35.7552 44.6111 35.7516 44.6003C35.7336 44.5751 35.7191 44.5463 35.7047 44.5175C35.6216 44.3589 35.6902 44.5175 35.7011 44.5175C35.6902 44.5175 35.6361 44.2869 35.6397 44.2833C35.6469 44.2797 35.6505 44.4742 35.6469 44.3301C35.6469 44.2977 35.6433 44.2652 35.6433 44.2292V44.2112V44.0707V43.4509V38.6914V36.7096V36.2484V36.2124V36.2052V36.1548C35.6433 36.1295 35.6469 36.1043 35.6469 36.0791C35.6505 36.0214 35.6505 36.0467 35.6361 36.1476C35.6577 36.1079 35.6866 35.9818 35.6902 35.9386C35.6974 35.8521 35.6216 36.0539 35.6722 35.9782C35.6938 35.9458 35.7083 35.9061 35.7263 35.8737C35.7408 35.8449 35.7588 35.8197 35.7769 35.7944C35.8491 35.6719 35.7516 35.8341 35.748 35.8269C35.7372 35.8053 35.8925 35.6755 35.9105 35.6575C36.0152 35.553 35.8094 35.7044 35.8961 35.6683C35.9286 35.6539 35.9647 35.6251 35.9972 35.6071C36.0261 35.5927 36.055 35.5783 36.0802 35.5638C36.1814 35.5098 36.0405 35.5891 36.0405 35.5819C36.0405 35.5675 36.2391 35.5278 36.25 35.5242C36.3475 35.4954 36.0658 35.5278 36.2283 35.5278C36.2608 35.5278 36.2969 35.5242 36.3294 35.5242H36.4053H36.9181H38.9874H43.6895H44.2637H44.3684H44.3721C44.419 35.5242 44.4118 35.5242 44.4479 35.5278C44.6032 35.535 44.4262 35.5206 44.4262 35.5206C44.4298 35.5098 44.5924 35.5638 44.614 35.5675C44.7657 35.6035 44.5129 35.5062 44.596 35.5566C44.6285 35.5747 44.6682 35.5927 44.7007 35.6107C44.7332 35.6287 44.7657 35.6611 44.8018 35.6719C44.8849 35.7044 44.679 35.5566 44.7874 35.6611C44.8307 35.7044 44.8777 35.7476 44.921 35.7944C45.0185 35.8953 44.8885 35.762 44.8957 35.7584C44.9029 35.7548 44.9535 35.8449 44.9607 35.8557C44.9824 35.8881 44.9968 35.9242 45.0185 35.9602C45.0799 36.0683 45.004 35.8629 45.0113 35.9422C45.0149 35.9854 45.0438 36.1115 45.0654 36.1512C45.0149 36.0611 45.0582 36.025 45.0582 36.1043C45.0582 36.0142 45.0618 36.2953 45.0618 36.2052V36.2268V36.6268V41.1272V43.3503V44.0241V44.1898V44.2259V44.2295C45.0618 44.2691 45.0618 44.2727 45.0582 44.3051C45.051 44.4709 45.0654 44.2835 45.0654 44.2835C45.0691 44.2835 45.0149 44.5177 45.004 44.5177C44.9968 44.5177 45.0871 44.352 45.0221 44.4781C45.0077 44.5069 44.9932 44.5357 44.9788 44.561C44.9643 44.5898 44.9463 44.615 44.9282 44.6402C44.856 44.7699 45.0113 44.5682 44.9427 44.6258C44.8921 44.669 44.8415 44.7303 44.7946 44.7771C44.6935 44.8744 44.8271 44.7447 44.8307 44.7519C44.8307 44.7555 44.7621 44.7988 44.7513 44.8024C44.7188 44.824 44.6826 44.842 44.6465 44.86C44.5165 44.9357 44.6646 44.8528 44.6646 44.8528C44.6646 44.8672 44.5021 44.8996 44.4804 44.9069C44.3396 44.9465 44.531 44.896 44.5274 44.9033C44.5129 44.9213 44.3829 44.9141 44.3684 44.9141C43.9892 44.9213 43.6281 45.2419 43.6462 45.6347C43.6642 46.0202 43.9639 46.3625 44.3684 46.3553C45.1629 46.3409 45.943 45.8941 46.2789 45.1591C46.4342 44.824 46.4992 44.4781 46.4992 44.1106V42.5396V37.4772C46.4992 37.0592 46.5028 36.6376 46.4992 36.2197C46.4847 35.0199 45.5205 34.083 44.3251 34.0758C43.0178 34.0722 41.7104 34.0758 40.403 34.0758C39.0668 34.0758 37.7306 34.0722 36.3943 34.0758C35.1953 34.0794 34.213 34.9982 34.195 36.2053C34.1914 36.598 34.195 36.9872 34.195 37.3799V42.4134V44.0673C34.195 44.3303 34.2058 44.5933 34.2889 44.8455C34.5597 45.6706 35.2676 46.2327 36.127 46.3336C36.5026 46.3768 36.8927 46.348 37.2682 46.348H39.612H44.0938H44.3646C44.7438 46.348 45.105 46.0165 45.0869 45.6274C45.0725 45.2454 44.7728 44.914 44.3683 44.914L44.3685 44.9138Z"
        fill="white" />
    <path
        d="M21.7648 34.7789V32.0008C21.7648 31.8315 21.7576 31.6585 21.7792 31.4892C21.7648 31.5865 21.754 31.6801 21.7395 31.7774C21.7576 31.6657 21.7865 31.5576 21.8262 31.4531L21.7178 31.7126C21.754 31.6333 21.7937 31.5576 21.837 31.482C21.9381 31.309 21.7684 31.5757 21.7648 31.5684C21.7612 31.5612 21.8551 31.4712 21.8587 31.464C21.8876 31.4351 21.9165 31.4135 21.9454 31.3847C22.032 31.2982 21.7142 31.5396 21.8587 31.4532C21.9418 31.4063 22.0212 31.3595 22.1115 31.3198L21.8515 31.4279C21.9598 31.3883 22.0645 31.3595 22.1765 31.3415C22.079 31.3559 21.9851 31.3667 21.8876 31.3811C22.0862 31.3559 22.2957 31.3667 22.4943 31.3667H23.7041H27.7452H32.6602H36.8927C37.5571 31.3667 38.2253 31.3595 38.8898 31.3667C38.962 31.3667 39.0342 31.3703 39.1065 31.3811C39.0089 31.3667 38.9151 31.3559 38.8175 31.3415C38.9295 31.3595 39.0378 31.3883 39.1426 31.4279L38.8826 31.3198C38.962 31.3559 39.0378 31.3955 39.1137 31.4387C39.287 31.5396 39.0198 31.3703 39.027 31.3667C39.0342 31.3631 39.1245 31.4568 39.1317 31.4604C39.1606 31.4892 39.1823 31.518 39.2112 31.5468C39.2979 31.6333 39.0559 31.3162 39.1426 31.4604C39.1895 31.5432 39.2365 31.6225 39.2762 31.7126L39.1679 31.4532C39.2076 31.5612 39.2365 31.6657 39.2545 31.7774C39.2401 31.6802 39.2292 31.5865 39.2148 31.4892C39.2617 31.8711 39.2292 32.2711 39.2292 32.653V34.3681V34.7788C39.2292 35.3445 39.7276 35.885 40.3127 35.8598C40.9013 35.8345 41.3961 35.3841 41.3961 34.7788V32.0008C41.3961 31.8891 41.3997 31.7738 41.3961 31.6621C41.3816 31.0099 41.1216 30.3686 40.6485 29.9146C40.1573 29.4426 39.5145 29.2012 38.8356 29.2012H37.3838H34.5236H30.9411H27.2791H24.1949H22.3423H22.057C20.6991 29.2336 19.6121 30.3326 19.5904 31.6873C19.576 32.6133 19.5904 33.5393 19.5904 34.4653V34.7788C19.5904 35.3445 20.0888 35.885 20.6738 35.8597C21.2697 35.8309 21.7645 35.3841 21.7645 34.7788L21.7648 34.7789Z"
        fill="white" />
    <path
        d="M29.418 25.9119V29.7349V30.2754C29.418 30.841 29.9163 31.3815 30.5014 31.3563C31.09 31.3311 31.5848 30.8807 31.5848 30.2754V26.4523V25.9119C31.5848 25.3462 31.0864 24.8057 30.5014 24.8309C29.9127 24.8598 29.418 25.3065 29.418 25.9119Z"
        fill="white" />
</svg>