<svg width="16" height="16" viewBox="0 0 16 16" fill="none" xmlns="http://www.w3.org/2000/svg">
  <path
    d="M2 7.33398L2.10192 9.48526C2.21142 11.7797 2.26618 12.9269 3.03923 13.6304C3.81228 14.334 5.01811 14.334 7.42975 14.334H8.57025C10.9819 14.334 12.1877 14.334 12.9608 13.6304C13.7338 12.9269 13.7886 11.7797 13.8981 9.48526L14 7.33398"
    stroke="currentColor" stroke-width="1.2" stroke-linecap="round" stroke-linejoin="round" />
  <path
    d="M1.89552 6.96204C3.02838 9.11629 5.58353 10 7.9974 10C10.4113 10 12.9664 9.11629 14.0993 6.96204C14.64 5.93371 14.2306 4 12.8987 4H3.09606C1.76422 4 1.35475 5.93371 1.89552 6.96204Z"
    stroke="currentColor" stroke-width="1.2" />
  <path d="M8 7.33398H8.00599" stroke="currentColor" stroke-width="1.2" stroke-linecap="round"
    stroke-linejoin="round" />
  <path
    d="M10.6615 4.00033L10.6026 3.79428C10.3092 2.76759 10.1626 2.25424 9.81339 1.96062C9.46421 1.66699 9.0004 1.66699 8.07277 1.66699H7.91682C6.98919 1.66699 6.52537 1.66699 6.17619 1.96062C5.82701 2.25424 5.68034 2.76759 5.38699 3.79428L5.32812 4.00033"
    stroke="currentColor" stroke-width="1.2" />
</svg>