<svg width="16" height="17" viewBox="0 0 16 17" fill="currentColor" xmlns="http://www.w3.org/2000/svg">
  <path
    d="M2.55556 16.5C2.12778 16.5 1.76157 16.3433 1.45694 16.03C1.15231 15.7167 1 15.34 1 14.9V3.7C1 3.26 1.15231 2.88333 1.45694 2.57C1.76157 2.25667 2.12778 2.1 2.55556 2.1H3.33333V1.3C3.33333 1.07333 3.40787 0.883333 3.55694 0.73C3.70602 0.576667 3.89074 0.5 4.11111 0.5C4.33148 0.5 4.5162 0.576667 4.66528 0.73C4.81435 0.883333 4.88889 1.07333 4.88889 1.3V2.1H11.1111V1.3C11.1111 1.07333 11.1856 0.883333 11.3347 0.73C11.4838 0.576667 11.6685 0.5 11.8889 0.5C12.1093 0.5 12.294 0.576667 12.4431 0.73C12.5921 0.883333 12.6667 1.07333 12.6667 1.3V2.1H13.4444C13.8722 2.1 14.2384 2.25667 14.5431 2.57C14.8477 2.88333 15 3.26 15 3.7V14.9C15 15.34 14.8477 15.7167 14.5431 16.03C14.2384 16.3433 13.8722 16.5 13.4444 16.5H2.55556ZM2.55556 14.9H13.4444V6.9H2.55556V14.9Z" />
</svg>