<svg width="17" height="16" viewBox="0 0 17 16" fill="currentColor" xmlns="http://www.w3.org/2000/svg">
  <path
    fill-rule="evenodd"
    clip-rule="evenodd"
    d="M8.5 16C4.08 16 0.5 12.42 0.5 8C0.5 3.58 4.08 0 8.5 0C12.92 0 16.5 3.58 16.5 8C16.5 12.42 12.92 16 8.5 16ZM12.12 5.38C11.88 5.14003 11.5 5.14003 11.26 5.38L7.43997 9.3L5.73997 7.54C5.5 7.30003 5.11998 7.30003 4.87993 7.54C4.63997 7.77997 4.63997 8.17997 4.87993 8.42002L7.01993 10.62C7.2599 10.86 7.63992 10.86 7.87997 10.62L12.14 6.26002C12.36 6.02005 12.36 5.62005 12.12 5.38007L12.12 5.38Z"
  />
</svg>
