<svg xmlns="http://www.w3.org/2000/svg" width="21" height="20" viewBox="0 0 21 20" fill="currentColor">
  <path
    d="M7.909 15.7628C7.74734 15.6047 7.6665 15.4177 7.6665 15.2016C7.6665 14.9855 7.74734 14.7984 7.909 14.6403L12.6457 10.0079L7.89283 5.35968C7.74195 5.21212 7.6665 5.02767 7.6665 4.80632C7.6665 4.58498 7.74734 4.39526 7.909 4.23715C8.07066 4.07905 8.26196 4 8.4829 4C8.70384 4 8.89514 4.07905 9.0568 4.23715L14.4887 9.56522C14.5533 9.62846 14.5991 9.69697 14.6261 9.77075C14.653 9.84453 14.6665 9.92358 14.6665 10.0079C14.6665 10.0922 14.653 10.1713 14.6261 10.2451C14.5991 10.3188 14.5533 10.3874 14.4887 10.4506L9.04064 15.7787C8.88975 15.9262 8.70384 16 8.4829 16C8.26196 16 8.07066 15.9209 7.909 15.7628Z" />
</svg>