<svg width="16" height="16" viewBox="0 0 16 16" fill="none" xmlns="http://www.w3.org/2000/svg">
<g id="elements/clear">
<path id="ic_close-white" fill-rule="evenodd" clip-rule="evenodd" d="M6.67417 7.88672L0.774587 1.98713C0.408471 1.62101 0.408471 1.02742 0.774587 0.661306C1.1407 0.29519 1.7343 0.29519 2.10041 0.661306L8 6.56089L13.8996 0.661306C14.2657 0.29519 14.8593 0.29519 15.2254 0.661306C15.5915 1.02742 15.5915 1.62101 15.2254 1.98713L9.32583 7.88672L15.2254 13.7863C15.5915 14.1524 15.5915 14.746 15.2254 15.1121C14.8593 15.4782 14.2657 15.4782 13.8996 15.1121L8 9.21254L2.10041 15.1121C1.7343 15.4782 1.1407 15.4782 0.774587 15.1121C0.408471 14.746 0.408471 14.1524 0.774587 13.7863L6.67417 7.88672Z" fill="currentColor" stroke="currentColor" stroke-width="0.5"/>
</g>
</svg>
