<svg width="17" height="16" viewBox="0 0 17 16" fill="none" xmlns="http://www.w3.org/2000/svg">
<g id="ic-click">
<g id="Group">
<g id="Group_2">
<path id="Vector" d="M11.2716 7.94895C11.1323 7.94895 10.9931 7.97427 10.8792 8.03756C10.702 7.79705 10.4235 7.65781 10.1197 7.65781C9.96778 7.65781 9.81589 7.69579 9.68931 7.77174C9.51209 7.55655 9.24626 7.42996 8.96778 7.42996C8.89183 7.42996 8.82854 7.44262 8.75259 7.45528V5.30337C8.75259 4.78439 8.32221 4.354 7.80322 4.354C7.28423 4.354 6.85385 4.78439 6.85385 5.30337V9.29073L6.39815 8.59453C6.27157 8.39199 6.05638 8.26541 5.80321 8.22743C5.56271 8.18946 5.3222 8.25275 5.11966 8.37933C4.91713 8.51858 4.76523 8.72111 4.70194 8.94896C4.63865 9.18946 4.67662 9.42998 4.80321 9.63251C4.81586 9.65782 6.70195 12.5059 7.03107 12.987C7.43613 13.5819 8.24626 13.9996 9.00576 13.9996H9.73993C11.0691 13.9996 12.1703 12.9237 12.1703 11.6072V8.89832C12.183 8.36667 11.7906 7.94895 11.2716 7.94895ZM11.6387 11.5692V11.6199C11.626 12.6452 10.7779 13.4806 9.73993 13.4806H9.00576C8.36018 13.4806 7.72727 13.0756 7.47411 12.6958C7.14499 12.2148 5.27157 9.36668 5.25891 9.34136C5.20828 9.26541 5.19562 9.1768 5.22094 9.0882C5.24625 8.98693 5.30954 8.89832 5.41081 8.83503C5.48676 8.7844 5.57537 8.75908 5.66398 8.75908C5.68929 8.75908 5.70195 8.75908 5.72727 8.75908C5.81587 8.77174 5.90448 8.82237 5.94245 8.88567L6.90448 10.3414C6.96778 10.4426 7.09435 10.4806 7.20828 10.4553C7.3222 10.4173 7.39815 10.3161 7.39815 10.1895V5.30337C7.39815 5.07553 7.57537 4.89831 7.80322 4.89831C8.03107 4.89831 8.20829 5.07553 8.20829 5.30337V9.17681C8.20829 9.3287 8.33487 9.44263 8.47411 9.44263C8.61335 9.44263 8.73994 9.31605 8.73994 9.17681V8.0249C8.80323 7.98693 8.87918 7.96161 8.95513 7.96161C9.11969 7.96161 9.25892 8.06288 9.32221 8.21478V9.2401C9.32221 9.392 9.4488 9.50592 9.58804 9.50592C9.72728 9.50592 9.85386 9.37934 9.85386 9.2401V8.27807C9.92981 8.22744 10.0058 8.18946 10.0944 8.18946C10.2716 8.18946 10.4235 8.30339 10.4741 8.46794V9.36668C10.4741 9.51858 10.6007 9.63251 10.7399 9.63251C10.8918 9.63251 11.0058 9.50592 11.0058 9.36668V8.55655C11.0691 8.50592 11.1577 8.4806 11.2336 8.4806C11.4741 8.4806 11.6007 8.68313 11.6007 8.88567V11.5692H11.6387Z" fill="black"/>
<path id="Vector_2" d="M7.76669 3.65824C7.91859 3.65824 8.03252 3.53165 8.03252 3.39241V2.26583C8.03252 2.11393 7.90594 2 7.76669 2C7.62745 2 7.50087 2.12659 7.50087 2.26583V3.39241C7.48822 3.53165 7.6148 3.65824 7.76669 3.65824Z" fill="black"/>
<path id="Vector_3" d="M6.24647 4.12671C6.2971 4.17734 6.37305 4.20266 6.43634 4.20266C6.49963 4.20266 6.57558 4.17734 6.62621 4.12671C6.72748 4.02544 6.72748 3.84823 6.62621 3.74696L5.82874 2.94948C5.72748 2.84822 5.55026 2.84822 5.449 2.94948C5.34773 3.05075 5.34773 3.22797 5.449 3.32923L6.24647 4.12671Z" fill="black"/>
<path id="Vector_4" d="M5.89241 5.53141C6.04431 5.53141 6.15823 5.40483 6.15823 5.26558C6.15823 5.12634 6.03165 4.99976 5.89241 4.99976H4.76582C4.61392 4.99976 4.5 5.12634 4.5 5.26558C4.5 5.40483 4.62658 5.53141 4.76582 5.53141H5.89241Z" fill="black"/>
<path id="Vector_5" d="M9.36133 5.25313C9.36133 5.40502 9.48792 5.51895 9.62716 5.51895H10.7537C10.9056 5.51895 11.0196 5.39237 11.0196 5.25313C11.0196 5.11388 10.893 4.9873 10.7537 4.9873H9.62716C9.48792 4.9873 9.36133 5.10123 9.36133 5.25313Z" fill="black"/>
<path id="Vector_6" d="M9.08223 4.20266C9.14552 4.20266 9.22147 4.17734 9.2721 4.12671L10.0696 3.32923C10.1708 3.22797 10.1708 3.05075 10.0696 2.94948C9.96831 2.84822 9.79109 2.84822 9.68983 2.94948L8.89236 3.74696C8.79109 3.84823 8.79109 4.02544 8.89236 4.12671C8.94299 4.17734 9.01894 4.20266 9.08223 4.20266Z" fill="black"/>
</g>
</g>
</g>
</svg>
