<svg width="16" height="16" viewBox="0 0 16 16" fill="none" xmlns="http://www.w3.org/2000/svg">
<path fill-rule="evenodd" clip-rule="evenodd" d="M8 16C3.58 16 0 12.42 0 8C0 3.58 3.58 0 8 0C12.42 0 16 3.58 16 8C16 12.42 12.42 16 8 16ZM3 8C3 5.2386 5.2386 3 8 3C10.7614 3 13 5.2386 13 8C13 10.7614 10.7614 13 8 13C5.2386 13 3 10.7614 3 8ZM8 4C5.7909 4 4 5.7909 4 8C4 10.2091 5.7909 12 8 12C10.2091 12 12 10.2091 12 8C12 5.7909 10.2091 4 8 4ZM8.5 5.5C8.5 5.22387 8.27613 5 8 5V5.00002C7.72387 5.00002 7.5 5.22389 7.5 5.50002L7.5 7.46482V7.48138V7.48281C7.5 7.59895 7.5 7.71723 7.50953 7.81982C7.52055 7.9379 7.54645 8.07001 7.61836 8.20427C7.69019 8.33857 7.7857 8.43337 7.87789 8.50806C7.95816 8.5731 8.05695 8.63894 8.15392 8.70356L8.15422 8.70376L8.16797 8.7129L9.22267 9.41606C9.4524 9.56923 9.76287 9.50712 9.91607 9.27735C10.0692 9.04762 10.0071 8.73715 9.77736 8.58395L8.72266 7.88086C8.60606 7.80308 8.54711 7.7632 8.50746 7.73109L8.50551 7.72949L8.50523 7.72695C8.50051 7.67613 8.5 7.60496 8.5 7.4648V5.5Z" fill="black"/>
</svg>
