<svg width="16" height="17" viewBox="0 0 16 17" fill="currentColor" xmlns="http://www.w3.org/2000/svg">
    <path fill-rule="evenodd" clip-rule="evenodd"
        d="M8 16.5C3.58 16.5 0 12.92 0 8.5C0 4.08 3.58 0.5 8 0.5C12.42 0.5 16 4.08 16 8.5C16 12.92 12.42 16.5 8 16.5Z" />
    <path fill-rule="evenodd" clip-rule="evenodd"
        d="M7.79997 3.5C8.24176 3.5 8.59994 3.89798 8.59994 4.38887L8.59994 7.88179C8.59994 8.13096 8.60076 8.25748 8.60832 8.34783L8.60876 8.35234L8.61188 8.35519C8.67532 8.41227 8.76963 8.48317 8.95619 8.62144L10.6437 9.87136C11.0113 10.1437 11.1106 10.6956 10.8656 11.104C10.6205 11.5125 10.1237 11.6229 9.75618 11.3506L8.06872 10.1006C8.06134 10.0952 8.05403 10.0898 8.04672 10.0844C7.89141 9.96935 7.73316 9.85219 7.6046 9.73645C7.45711 9.60367 7.3043 9.43513 7.18937 9.19638C7.07431 8.9577 7.03288 8.72284 7.01525 8.51293C6.99994 8.3298 7 8.11855 7 7.91127L7 7.88182L7 4.38891C7 3.89802 7.35818 3.50003 7.79997 3.50003L7.79997 3.5Z"
        fill="white" />
</svg>