<svg width="18" height="16" viewBox="0 0 18 16" fill="none" xmlns="http://www.w3.org/2000/svg">
<path d="M17.05 3.96133L17.05 3.95998C17.0051 2.29785 15.6572 0.95 13.9503 0.95H4.00553C2.34304 0.95 0.95 2.29787 0.95 4.00552V14.6132C0.95 14.857 1.09714 15.05 1.3331 15.1451C1.37968 15.1682 1.41715 15.181 1.45588 15.1874C1.49314 15.1936 1.52992 15.1936 1.57208 15.1936H1.57459C1.72042 15.1936 1.86551 15.1442 2.00721 15.0027L4.29056 12.8511H13.9945C15.657 12.8511 17.05 11.5032 17.05 9.79557L17.05 3.96133ZM3.58 11.7871L3.57953 11.7864L3.57291 11.7928L2.15497 13.1691V3.96133C2.15497 2.92817 2.97237 2.11077 4.00553 2.11077H13.9503C14.9834 2.11077 15.8008 2.92817 15.8008 3.96133V9.79557C15.8008 10.8287 14.9834 11.6461 13.9503 11.6461H4.00553C3.86122 11.6461 3.71913 11.6944 3.58 11.7871ZM12.7569 4.9721H5.50829C5.21548 4.9721 4.9721 5.21548 4.9721 5.50829C4.9721 5.8011 5.21549 6.04447 5.50829 6.04447H12.7569C13.0497 6.04447 13.2931 5.8011 13.2931 5.50829C13.2931 5.36469 13.2452 5.23039 13.1525 5.13155C13.0594 5.03221 12.9242 4.9721 12.7569 4.9721ZM9.53039 7.84503H5.55249C5.25969 7.84503 5.0163 8.08841 5.0163 8.38122C5.0163 8.67403 5.25969 8.9174 5.55249 8.9174H9.53039C9.72335 8.9174 9.91906 8.82066 10.0171 8.62457C10.1113 8.43624 10.1148 8.23958 10.014 8.08829C9.91518 7.94008 9.72175 7.84503 9.53039 7.84503Z" fill="currentColor" stroke="currentColor" stroke-width="0.1"/>
</svg>
