<svg width="24" height="24" viewBox="0 0 24 24" xmlns="http://www.w3.org/2000/svg">
<g id="fi:zoom-in">
<g id="Group">
<g id="Group_2">
<g id="Group_3">
<path id="Vector" d="M20.05 7.96133L20.05 7.95998C20.0051 6.29785 18.6572 4.95 16.9503 4.95H7.00553C5.34304 4.95 3.95 6.29787 3.95 8.00552V18.6132C3.95 18.857 4.09714 19.05 4.3331 19.1451C4.37968 19.1682 4.41715 19.181 4.45588 19.1874C4.49314 19.1936 4.52992 19.1936 4.57208 19.1936H4.57459C4.72042 19.1936 4.86551 19.1442 5.00721 19.0027L7.29056 16.8511H16.9945C18.657 16.8511 20.05 15.5032 20.05 13.7956L20.05 7.96133ZM6.58 15.7871L6.57953 15.7864L6.57291 15.7928L5.15497 17.1691V7.96133C5.15497 6.92817 5.97237 6.11077 7.00553 6.11077H16.9503C17.9834 6.11077 18.8008 6.92817 18.8008 7.96133V13.7956C18.8008 14.8287 17.9834 15.6461 16.9503 15.6461H7.00553C6.86122 15.6461 6.71913 15.6944 6.58 15.7871ZM15.7569 8.9721H8.50829C8.21548 8.9721 7.9721 9.21548 7.9721 9.50829C7.9721 9.8011 8.21549 10.0445 8.50829 10.0445H15.7569C16.0497 10.0445 16.2931 9.8011 16.2931 9.50829C16.2931 9.36469 16.2452 9.23039 16.1525 9.13155C16.0594 9.03221 15.9242 8.9721 15.7569 8.9721ZM12.5304 11.845H8.55249C8.25969 11.845 8.0163 12.0884 8.0163 12.3812C8.0163 12.674 8.25969 12.9174 8.55249 12.9174H12.5304C12.7234 12.9174 12.9191 12.8207 13.0171 12.6246C13.1113 12.4362 13.1148 12.2396 13.014 12.0883C12.9152 11.9401 12.7218 11.845 12.5304 11.845Z" fill="currentColor" stroke="currentColor" stroke-width="0.1"/>
</g>
</g>
</g>
</g>
</svg>
