<svg width="16" height="17" viewBox="0 0 16 17" fill="currentColor" xmlns="http://www.w3.org/2000/svg">
    <path
        d="M8 0.5C5.87825 0.5 3.8435 1.34285 2.34316 2.84316C0.842819 4.34347 0 6.37825 0 8.5C0 10.6218 0.84285 12.6565 2.34316 14.1568C3.84347 15.6572 5.87825 16.5 8 16.5C10.1218 16.5 12.1565 15.6572 13.6568 14.1568C15.1572 12.6565 16 10.6218 16 8.5C16 6.37825 15.1572 4.3435 13.6568 2.84316C12.1565 1.34282 10.1218 0.5 8 0.5Z" />
    <path
        d="M8 9.44826L5.13707 12.3112C5.0112 12.4371 4.85315 12.5 4.66294 12.5C4.47273 12.5 4.31469 12.4371 4.18881 12.3112C4.06294 12.1853 4 12.0273 4 11.8371C4 11.6468 4.06294 11.4888 4.18881 11.3629L7.05174 8.5L4.18881 5.63707C4.06294 5.5112 4 5.35315 4 5.16294C4 4.97273 4.06294 4.81469 4.18881 4.68881C4.31469 4.56294 4.47273 4.5 4.66294 4.5C4.85315 4.5 5.0112 4.56294 5.13707 4.68881L8 7.55174L10.8629 4.68881C10.9888 4.56294 11.1468 4.5 11.3371 4.5C11.5273 4.5 11.6853 4.56294 11.8112 4.68881C11.9371 4.81469 12 4.97273 12 5.16294C12 5.35315 11.9371 5.5112 11.8112 5.63707L8.94826 8.5L11.8112 11.3629C11.9371 11.4888 12 11.6468 12 11.8371C12 12.0273 11.9371 12.1853 11.8112 12.3112C11.6853 12.4371 11.5273 12.5 11.3371 12.5C11.1468 12.5 10.9888 12.4371 10.8629 12.3112L8 9.44826Z"
        fill="white" />
</svg>