<svg width="35" height="34" viewBox="0 0 35 34" fill="none" xmlns="http://www.w3.org/2000/svg">
<mask id="path-1-outside-1_6914_11613" maskUnits="userSpaceOnUse" x="0" y="0" width="35" height="34" fill="black">
<rect fill="white" width="35" height="34"/>
<path d="M33.6467 22.7029C32.9656 21.6349 31.6035 21.3249 30.6159 21.945C30.5819 21.8072 30.5478 21.7038 30.4797 21.566C29.9689 20.4637 28.6408 19.9814 27.483 20.4637L25.4398 21.566C24.8949 20.5326 23.6009 20.0503 22.5112 20.5326L21.5917 20.946C21.4896 20.8771 21.3534 20.8426 21.2172 20.8082C21.115 18.879 21.2853 17.0877 21.6939 15.4686C21.6939 15.4341 21.728 15.3997 21.728 15.3652C21.728 15.3652 21.728 15.3652 21.728 15.3308C22.2047 13.505 23.056 11.8514 24.2139 10.3701C24.929 10.5079 25.6101 10.5768 26.2571 10.5768C27.7214 10.5768 28.9132 10.2323 29.9349 9.5089C31.5694 8.33764 32.591 6.23625 33.0337 3.10139C33.0337 3.06694 33.0337 3.06694 33.0337 3.03249C33.0337 2.99804 33.0337 2.99804 33.0337 2.96359C33.0337 2.92914 32.9997 2.92914 32.9997 2.89469C32.9997 2.86025 32.9656 2.86025 32.9656 2.8258L32.9316 2.79135L32.8975 2.7569C32.8635 2.7569 32.8635 2.7569 32.8294 2.72245C32.7954 2.72245 32.7954 2.688 32.7613 2.688C27.1765 2.06792 24.4182 4.3071 23.7712 9.88784C22.8858 10.9902 22.2047 12.1959 21.6598 13.505C21.5917 13.1949 21.5236 12.9194 21.4555 12.6093C22.2388 9.61225 22.0685 7.13192 20.9107 5.23723C19.5826 3.13584 17.0286 1.68898 13.2827 1C13.2486 1 13.2486 1 13.2146 1C13.1805 1 13.1805 1 13.1465 1C13.1124 1 13.0784 1.03445 13.0784 1.03445C13.0784 1.03445 13.0443 1.03445 13.0443 1.0689C13.0103 1.0689 13.0103 1.10335 12.9762 1.1378L12.9421 1.17224C12.9421 1.20669 12.9081 1.20669 12.9081 1.24114C12.9081 1.27559 12.874 1.27559 12.874 1.31004C12.3292 5.20278 12.874 8.16539 14.4405 10.129C15.8026 11.7825 17.948 12.7471 20.8085 12.9883C21.0469 13.7806 21.115 14.5729 21.0469 15.3308V15.3652C20.6042 17.0877 20.4339 18.9135 20.5361 20.9115C20.1615 21.0838 19.855 21.4283 19.7869 21.8416C19.7529 21.8416 19.7188 21.8416 19.6507 21.8416C19.4804 21.8416 19.3102 21.8761 19.1739 21.945C19.1739 21.8761 19.1739 21.8416 19.1739 21.7727C19.1739 20.5326 18.1523 19.4991 16.9605 19.4991L11.2735 19.1546C7.76601 18.9824 6.06333 20.4981 3.91796 22.4617L3.64553 22.7029C2.99852 23.3574 2.21529 23.9775 1.15963 24.7009C0.989358 24.8043 0.955305 25.011 1.05747 25.1832C1.12557 25.2521 1.22773 25.321 1.32989 25.321C1.398 25.321 1.46611 25.2865 1.50016 25.2521C2.58987 24.5287 3.44121 23.8741 4.08823 23.1852L4.36066 22.944C6.47198 21.0493 7.97033 19.6714 11.2395 19.7747L16.9605 20.1192C17.8118 20.1192 18.5269 20.8426 18.5269 21.7038C18.5269 22.5651 17.8118 23.2885 16.9605 23.2885H12.1249C11.9205 23.2885 11.7843 23.4263 11.7843 23.633C11.7843 23.7708 11.8524 23.9086 11.9886 23.9775C14.134 24.9765 16.2453 25.631 18.2204 25.9066C21.728 26.3545 25.2355 25.6655 28.4024 23.943L30.9565 22.5651C31.6716 22.0828 32.6251 22.3239 33.1018 23.0818C33.3402 23.4263 33.4083 23.8397 33.3062 24.2531C33.204 24.6665 32.9656 25.011 32.591 25.2521C32.557 25.2865 27.5171 28.5936 23.7031 29.8683L23.2604 30.0061C19.855 31.1084 19.7869 31.1084 15.0875 31.1084C10.0476 31.1084 5.31416 31.763 4.02012 32.383C3.84985 32.4519 3.78175 32.6586 3.84985 32.8309C3.91796 32.9687 4.02012 33.0376 4.15634 33.0376C4.19039 33.0376 4.2585 33.0376 4.29255 33.0031C5.48442 32.4175 10.2179 31.7974 15.0875 31.7974C19.8891 31.7974 20.0253 31.763 23.4647 30.6606L23.9074 30.5228C27.7895 29.2137 32.7272 25.9411 32.9316 25.8033C33.4424 25.4588 33.7829 24.9765 33.9191 24.3909C34.0894 23.8052 33.9872 23.1852 33.6467 22.7029ZM14.9854 9.6467C13.5892 7.92425 13.0784 5.23723 13.5211 1.72343C16.8583 2.41241 19.1739 3.72147 20.2977 5.58172C21.2512 7.13192 21.4896 9.06107 21.0128 11.4725C20.2637 9.85339 18.9356 8.16539 17.0286 6.37404C16.8924 6.23625 16.688 6.23625 16.5518 6.40849C16.4156 6.54629 16.4156 6.75298 16.5859 6.89078C18.595 8.78547 19.9231 10.5424 20.6042 12.2304C18.0502 11.9892 16.1772 11.128 14.9854 9.6467ZM22.8177 21.1527C23.6009 20.8082 24.4863 21.1527 24.8609 21.8761L24.5203 22.0483C24.4863 22.0828 24.4522 22.0828 24.4182 22.1172C24.282 22.0828 24.1458 22.0483 24.0095 22.0483C23.8393 22.0483 23.7031 22.0828 23.5668 22.1172C23.3966 21.6694 22.9879 21.3249 22.5112 21.2905L22.8177 21.1527ZM32.3186 3.34253C31.8759 6.09845 30.9565 7.92425 29.5603 8.92327C28.3684 9.78449 26.8019 10.0256 24.7587 9.75004C25.8144 8.54433 27.1425 7.47641 28.7089 6.51184C28.8792 6.40849 28.9132 6.2018 28.8111 6.02955C28.7089 5.85731 28.5046 5.82286 28.3343 5.92621C26.87 6.82188 25.6441 7.8209 24.5884 8.92327C25.3717 4.61714 27.7554 2.92914 32.3186 3.34253ZM18.2885 25.2176C16.8242 25.0109 15.2918 24.5976 13.6913 23.9775H16.9605C17.4032 23.9775 17.8118 23.8397 18.1523 23.633C18.2204 23.7019 18.2886 23.7363 18.3907 23.7363C18.595 23.7363 18.7312 23.5985 18.7312 23.3918C18.7312 22.9785 19.242 22.4617 19.6847 22.4617C19.821 22.4617 19.9231 22.4962 20.0253 22.5306C20.1615 22.5995 20.3318 22.5651 20.4339 22.4617C20.5361 22.3584 20.5701 22.1861 20.502 22.0828C20.502 22.0828 20.502 22.0483 20.502 22.0139C20.502 21.8761 20.5701 21.7383 20.6382 21.6349C20.6723 21.8761 20.6723 22.1517 20.7064 22.3928C20.7404 22.5651 20.8766 22.7029 21.0469 22.7029H21.0809C21.2512 22.6684 21.3874 22.4962 21.3874 22.3239C21.3534 22.0483 21.3193 21.8072 21.3193 21.566C21.4215 21.6349 21.5236 21.7383 21.5577 21.8761C21.5917 21.9794 21.6598 22.0483 21.728 22.0828C21.8301 22.1172 21.9323 22.1172 22.0004 22.0828C22.1366 22.0139 22.2728 21.9794 22.375 21.9794C22.7155 21.9794 22.9539 22.2206 22.9539 22.5651V22.634C22.9539 22.7718 23.022 22.8751 23.1241 22.944C23.2263 23.0129 23.3625 23.0129 23.4647 22.944C23.6009 22.8407 23.7712 22.8062 23.9755 22.8062C24.4182 22.8062 24.8268 23.0818 24.9971 23.4952C25.0311 23.5985 25.1333 23.7019 25.2695 23.7019C25.4738 23.7363 25.7122 23.7363 25.9506 23.7019C26.2911 23.6674 26.7338 23.6674 26.9041 23.8052C26.9041 23.8052 26.9381 23.8397 26.9722 23.9086C24.2479 25.1487 21.2512 25.5966 18.2885 25.2176ZM28.0619 23.3229C27.8916 23.4263 27.7554 23.4952 27.5852 23.5641C27.5511 23.4607 27.483 23.3574 27.3808 23.2541C27.0063 22.9096 26.3933 22.944 25.9165 22.944C25.7803 22.944 25.6782 22.944 25.576 22.944C25.4738 22.7373 25.3376 22.5995 25.1674 22.4617L27.8235 21.0493C28.6068 20.7048 29.5262 21.0493 29.9008 21.8072C29.9689 21.945 30.003 22.0828 30.003 22.2206L28.0619 23.3229Z"/>
</mask>
<path d="M33.6467 22.7029C32.9656 21.6349 31.6035 21.3249 30.6159 21.945C30.5819 21.8072 30.5478 21.7038 30.4797 21.566C29.9689 20.4637 28.6408 19.9814 27.483 20.4637L25.4398 21.566C24.8949 20.5326 23.6009 20.0503 22.5112 20.5326L21.5917 20.946C21.4896 20.8771 21.3534 20.8426 21.2172 20.8082C21.115 18.879 21.2853 17.0877 21.6939 15.4686C21.6939 15.4341 21.728 15.3997 21.728 15.3652C21.728 15.3652 21.728 15.3652 21.728 15.3308C22.2047 13.505 23.056 11.8514 24.2139 10.3701C24.929 10.5079 25.6101 10.5768 26.2571 10.5768C27.7214 10.5768 28.9132 10.2323 29.9349 9.5089C31.5694 8.33764 32.591 6.23625 33.0337 3.10139C33.0337 3.06694 33.0337 3.06694 33.0337 3.03249C33.0337 2.99804 33.0337 2.99804 33.0337 2.96359C33.0337 2.92914 32.9997 2.92914 32.9997 2.89469C32.9997 2.86025 32.9656 2.86025 32.9656 2.8258L32.9316 2.79135L32.8975 2.7569C32.8635 2.7569 32.8635 2.7569 32.8294 2.72245C32.7954 2.72245 32.7954 2.688 32.7613 2.688C27.1765 2.06792 24.4182 4.3071 23.7712 9.88784C22.8858 10.9902 22.2047 12.1959 21.6598 13.505C21.5917 13.1949 21.5236 12.9194 21.4555 12.6093C22.2388 9.61225 22.0685 7.13192 20.9107 5.23723C19.5826 3.13584 17.0286 1.68898 13.2827 1C13.2486 1 13.2486 1 13.2146 1C13.1805 1 13.1805 1 13.1465 1C13.1124 1 13.0784 1.03445 13.0784 1.03445C13.0784 1.03445 13.0443 1.03445 13.0443 1.0689C13.0103 1.0689 13.0103 1.10335 12.9762 1.1378L12.9421 1.17224C12.9421 1.20669 12.9081 1.20669 12.9081 1.24114C12.9081 1.27559 12.874 1.27559 12.874 1.31004C12.3292 5.20278 12.874 8.16539 14.4405 10.129C15.8026 11.7825 17.948 12.7471 20.8085 12.9883C21.0469 13.7806 21.115 14.5729 21.0469 15.3308V15.3652C20.6042 17.0877 20.4339 18.9135 20.5361 20.9115C20.1615 21.0838 19.855 21.4283 19.7869 21.8416C19.7529 21.8416 19.7188 21.8416 19.6507 21.8416C19.4804 21.8416 19.3102 21.8761 19.1739 21.945C19.1739 21.8761 19.1739 21.8416 19.1739 21.7727C19.1739 20.5326 18.1523 19.4991 16.9605 19.4991L11.2735 19.1546C7.76601 18.9824 6.06333 20.4981 3.91796 22.4617L3.64553 22.7029C2.99852 23.3574 2.21529 23.9775 1.15963 24.7009C0.989358 24.8043 0.955305 25.011 1.05747 25.1832C1.12557 25.2521 1.22773 25.321 1.32989 25.321C1.398 25.321 1.46611 25.2865 1.50016 25.2521C2.58987 24.5287 3.44121 23.8741 4.08823 23.1852L4.36066 22.944C6.47198 21.0493 7.97033 19.6714 11.2395 19.7747L16.9605 20.1192C17.8118 20.1192 18.5269 20.8426 18.5269 21.7038C18.5269 22.5651 17.8118 23.2885 16.9605 23.2885H12.1249C11.9205 23.2885 11.7843 23.4263 11.7843 23.633C11.7843 23.7708 11.8524 23.9086 11.9886 23.9775C14.134 24.9765 16.2453 25.631 18.2204 25.9066C21.728 26.3545 25.2355 25.6655 28.4024 23.943L30.9565 22.5651C31.6716 22.0828 32.6251 22.3239 33.1018 23.0818C33.3402 23.4263 33.4083 23.8397 33.3062 24.2531C33.204 24.6665 32.9656 25.011 32.591 25.2521C32.557 25.2865 27.5171 28.5936 23.7031 29.8683L23.2604 30.0061C19.855 31.1084 19.7869 31.1084 15.0875 31.1084C10.0476 31.1084 5.31416 31.763 4.02012 32.383C3.84985 32.4519 3.78175 32.6586 3.84985 32.8309C3.91796 32.9687 4.02012 33.0376 4.15634 33.0376C4.19039 33.0376 4.2585 33.0376 4.29255 33.0031C5.48442 32.4175 10.2179 31.7974 15.0875 31.7974C19.8891 31.7974 20.0253 31.763 23.4647 30.6606L23.9074 30.5228C27.7895 29.2137 32.7272 25.9411 32.9316 25.8033C33.4424 25.4588 33.7829 24.9765 33.9191 24.3909C34.0894 23.8052 33.9872 23.1852 33.6467 22.7029ZM14.9854 9.6467C13.5892 7.92425 13.0784 5.23723 13.5211 1.72343C16.8583 2.41241 19.1739 3.72147 20.2977 5.58172C21.2512 7.13192 21.4896 9.06107 21.0128 11.4725C20.2637 9.85339 18.9356 8.16539 17.0286 6.37404C16.8924 6.23625 16.688 6.23625 16.5518 6.40849C16.4156 6.54629 16.4156 6.75298 16.5859 6.89078C18.595 8.78547 19.9231 10.5424 20.6042 12.2304C18.0502 11.9892 16.1772 11.128 14.9854 9.6467ZM22.8177 21.1527C23.6009 20.8082 24.4863 21.1527 24.8609 21.8761L24.5203 22.0483C24.4863 22.0828 24.4522 22.0828 24.4182 22.1172C24.282 22.0828 24.1458 22.0483 24.0095 22.0483C23.8393 22.0483 23.7031 22.0828 23.5668 22.1172C23.3966 21.6694 22.9879 21.3249 22.5112 21.2905L22.8177 21.1527ZM32.3186 3.34253C31.8759 6.09845 30.9565 7.92425 29.5603 8.92327C28.3684 9.78449 26.8019 10.0256 24.7587 9.75004C25.8144 8.54433 27.1425 7.47641 28.7089 6.51184C28.8792 6.40849 28.9132 6.2018 28.8111 6.02955C28.7089 5.85731 28.5046 5.82286 28.3343 5.92621C26.87 6.82188 25.6441 7.8209 24.5884 8.92327C25.3717 4.61714 27.7554 2.92914 32.3186 3.34253ZM18.2885 25.2176C16.8242 25.0109 15.2918 24.5976 13.6913 23.9775H16.9605C17.4032 23.9775 17.8118 23.8397 18.1523 23.633C18.2204 23.7019 18.2886 23.7363 18.3907 23.7363C18.595 23.7363 18.7312 23.5985 18.7312 23.3918C18.7312 22.9785 19.242 22.4617 19.6847 22.4617C19.821 22.4617 19.9231 22.4962 20.0253 22.5306C20.1615 22.5995 20.3318 22.5651 20.4339 22.4617C20.5361 22.3584 20.5701 22.1861 20.502 22.0828C20.502 22.0828 20.502 22.0483 20.502 22.0139C20.502 21.8761 20.5701 21.7383 20.6382 21.6349C20.6723 21.8761 20.6723 22.1517 20.7064 22.3928C20.7404 22.5651 20.8766 22.7029 21.0469 22.7029H21.0809C21.2512 22.6684 21.3874 22.4962 21.3874 22.3239C21.3534 22.0483 21.3193 21.8072 21.3193 21.566C21.4215 21.6349 21.5236 21.7383 21.5577 21.8761C21.5917 21.9794 21.6598 22.0483 21.728 22.0828C21.8301 22.1172 21.9323 22.1172 22.0004 22.0828C22.1366 22.0139 22.2728 21.9794 22.375 21.9794C22.7155 21.9794 22.9539 22.2206 22.9539 22.5651V22.634C22.9539 22.7718 23.022 22.8751 23.1241 22.944C23.2263 23.0129 23.3625 23.0129 23.4647 22.944C23.6009 22.8407 23.7712 22.8062 23.9755 22.8062C24.4182 22.8062 24.8268 23.0818 24.9971 23.4952C25.0311 23.5985 25.1333 23.7019 25.2695 23.7019C25.4738 23.7363 25.7122 23.7363 25.9506 23.7019C26.2911 23.6674 26.7338 23.6674 26.9041 23.8052C26.9041 23.8052 26.9381 23.8397 26.9722 23.9086C24.2479 25.1487 21.2512 25.5966 18.2885 25.2176ZM28.0619 23.3229C27.8916 23.4263 27.7554 23.4952 27.5852 23.5641C27.5511 23.4607 27.483 23.3574 27.3808 23.2541C27.0063 22.9096 26.3933 22.944 25.9165 22.944C25.7803 22.944 25.6782 22.944 25.576 22.944C25.4738 22.7373 25.3376 22.5995 25.1674 22.4617L27.8235 21.0493C28.6068 20.7048 29.5262 21.0493 29.9008 21.8072C29.9689 21.945 30.003 22.0828 30.003 22.2206L28.0619 23.3229Z" fill="white"/>
<path d="M33.6467 22.7029C32.9656 21.6349 31.6035 21.3249 30.6159 21.945C30.5819 21.8072 30.5478 21.7038 30.4797 21.566C29.9689 20.4637 28.6408 19.9814 27.483 20.4637L25.4398 21.566C24.8949 20.5326 23.6009 20.0503 22.5112 20.5326L21.5917 20.946C21.4896 20.8771 21.3534 20.8426 21.2172 20.8082C21.115 18.879 21.2853 17.0877 21.6939 15.4686C21.6939 15.4341 21.728 15.3997 21.728 15.3652C21.728 15.3652 21.728 15.3652 21.728 15.3308C22.2047 13.505 23.056 11.8514 24.2139 10.3701C24.929 10.5079 25.6101 10.5768 26.2571 10.5768C27.7214 10.5768 28.9132 10.2323 29.9349 9.5089C31.5694 8.33764 32.591 6.23625 33.0337 3.10139C33.0337 3.06694 33.0337 3.06694 33.0337 3.03249C33.0337 2.99804 33.0337 2.99804 33.0337 2.96359C33.0337 2.92914 32.9997 2.92914 32.9997 2.89469C32.9997 2.86025 32.9656 2.86025 32.9656 2.8258L32.9316 2.79135L32.8975 2.7569C32.8635 2.7569 32.8635 2.7569 32.8294 2.72245C32.7954 2.72245 32.7954 2.688 32.7613 2.688C27.1765 2.06792 24.4182 4.3071 23.7712 9.88784C22.8858 10.9902 22.2047 12.1959 21.6598 13.505C21.5917 13.1949 21.5236 12.9194 21.4555 12.6093C22.2388 9.61225 22.0685 7.13192 20.9107 5.23723C19.5826 3.13584 17.0286 1.68898 13.2827 1C13.2486 1 13.2486 1 13.2146 1C13.1805 1 13.1805 1 13.1465 1C13.1124 1 13.0784 1.03445 13.0784 1.03445C13.0784 1.03445 13.0443 1.03445 13.0443 1.0689C13.0103 1.0689 13.0103 1.10335 12.9762 1.1378L12.9421 1.17224C12.9421 1.20669 12.9081 1.20669 12.9081 1.24114C12.9081 1.27559 12.874 1.27559 12.874 1.31004C12.3292 5.20278 12.874 8.16539 14.4405 10.129C15.8026 11.7825 17.948 12.7471 20.8085 12.9883C21.0469 13.7806 21.115 14.5729 21.0469 15.3308V15.3652C20.6042 17.0877 20.4339 18.9135 20.5361 20.9115C20.1615 21.0838 19.855 21.4283 19.7869 21.8416C19.7529 21.8416 19.7188 21.8416 19.6507 21.8416C19.4804 21.8416 19.3102 21.8761 19.1739 21.945C19.1739 21.8761 19.1739 21.8416 19.1739 21.7727C19.1739 20.5326 18.1523 19.4991 16.9605 19.4991L11.2735 19.1546C7.76601 18.9824 6.06333 20.4981 3.91796 22.4617L3.64553 22.7029C2.99852 23.3574 2.21529 23.9775 1.15963 24.7009C0.989358 24.8043 0.955305 25.011 1.05747 25.1832C1.12557 25.2521 1.22773 25.321 1.32989 25.321C1.398 25.321 1.46611 25.2865 1.50016 25.2521C2.58987 24.5287 3.44121 23.8741 4.08823 23.1852L4.36066 22.944C6.47198 21.0493 7.97033 19.6714 11.2395 19.7747L16.9605 20.1192C17.8118 20.1192 18.5269 20.8426 18.5269 21.7038C18.5269 22.5651 17.8118 23.2885 16.9605 23.2885H12.1249C11.9205 23.2885 11.7843 23.4263 11.7843 23.633C11.7843 23.7708 11.8524 23.9086 11.9886 23.9775C14.134 24.9765 16.2453 25.631 18.2204 25.9066C21.728 26.3545 25.2355 25.6655 28.4024 23.943L30.9565 22.5651C31.6716 22.0828 32.6251 22.3239 33.1018 23.0818C33.3402 23.4263 33.4083 23.8397 33.3062 24.2531C33.204 24.6665 32.9656 25.011 32.591 25.2521C32.557 25.2865 27.5171 28.5936 23.7031 29.8683L23.2604 30.0061C19.855 31.1084 19.7869 31.1084 15.0875 31.1084C10.0476 31.1084 5.31416 31.763 4.02012 32.383C3.84985 32.4519 3.78175 32.6586 3.84985 32.8309C3.91796 32.9687 4.02012 33.0376 4.15634 33.0376C4.19039 33.0376 4.2585 33.0376 4.29255 33.0031C5.48442 32.4175 10.2179 31.7974 15.0875 31.7974C19.8891 31.7974 20.0253 31.763 23.4647 30.6606L23.9074 30.5228C27.7895 29.2137 32.7272 25.9411 32.9316 25.8033C33.4424 25.4588 33.7829 24.9765 33.9191 24.3909C34.0894 23.8052 33.9872 23.1852 33.6467 22.7029ZM14.9854 9.6467C13.5892 7.92425 13.0784 5.23723 13.5211 1.72343C16.8583 2.41241 19.1739 3.72147 20.2977 5.58172C21.2512 7.13192 21.4896 9.06107 21.0128 11.4725C20.2637 9.85339 18.9356 8.16539 17.0286 6.37404C16.8924 6.23625 16.688 6.23625 16.5518 6.40849C16.4156 6.54629 16.4156 6.75298 16.5859 6.89078C18.595 8.78547 19.9231 10.5424 20.6042 12.2304C18.0502 11.9892 16.1772 11.128 14.9854 9.6467ZM22.8177 21.1527C23.6009 20.8082 24.4863 21.1527 24.8609 21.8761L24.5203 22.0483C24.4863 22.0828 24.4522 22.0828 24.4182 22.1172C24.282 22.0828 24.1458 22.0483 24.0095 22.0483C23.8393 22.0483 23.7031 22.0828 23.5668 22.1172C23.3966 21.6694 22.9879 21.3249 22.5112 21.2905L22.8177 21.1527ZM32.3186 3.34253C31.8759 6.09845 30.9565 7.92425 29.5603 8.92327C28.3684 9.78449 26.8019 10.0256 24.7587 9.75004C25.8144 8.54433 27.1425 7.47641 28.7089 6.51184C28.8792 6.40849 28.9132 6.2018 28.8111 6.02955C28.7089 5.85731 28.5046 5.82286 28.3343 5.92621C26.87 6.82188 25.6441 7.8209 24.5884 8.92327C25.3717 4.61714 27.7554 2.92914 32.3186 3.34253ZM18.2885 25.2176C16.8242 25.0109 15.2918 24.5976 13.6913 23.9775H16.9605C17.4032 23.9775 17.8118 23.8397 18.1523 23.633C18.2204 23.7019 18.2886 23.7363 18.3907 23.7363C18.595 23.7363 18.7312 23.5985 18.7312 23.3918C18.7312 22.9785 19.242 22.4617 19.6847 22.4617C19.821 22.4617 19.9231 22.4962 20.0253 22.5306C20.1615 22.5995 20.3318 22.5651 20.4339 22.4617C20.5361 22.3584 20.5701 22.1861 20.502 22.0828C20.502 22.0828 20.502 22.0483 20.502 22.0139C20.502 21.8761 20.5701 21.7383 20.6382 21.6349C20.6723 21.8761 20.6723 22.1517 20.7064 22.3928C20.7404 22.5651 20.8766 22.7029 21.0469 22.7029H21.0809C21.2512 22.6684 21.3874 22.4962 21.3874 22.3239C21.3534 22.0483 21.3193 21.8072 21.3193 21.566C21.4215 21.6349 21.5236 21.7383 21.5577 21.8761C21.5917 21.9794 21.6598 22.0483 21.728 22.0828C21.8301 22.1172 21.9323 22.1172 22.0004 22.0828C22.1366 22.0139 22.2728 21.9794 22.375 21.9794C22.7155 21.9794 22.9539 22.2206 22.9539 22.5651V22.634C22.9539 22.7718 23.022 22.8751 23.1241 22.944C23.2263 23.0129 23.3625 23.0129 23.4647 22.944C23.6009 22.8407 23.7712 22.8062 23.9755 22.8062C24.4182 22.8062 24.8268 23.0818 24.9971 23.4952C25.0311 23.5985 25.1333 23.7019 25.2695 23.7019C25.4738 23.7363 25.7122 23.7363 25.9506 23.7019C26.2911 23.6674 26.7338 23.6674 26.9041 23.8052C26.9041 23.8052 26.9381 23.8397 26.9722 23.9086C24.2479 25.1487 21.2512 25.5966 18.2885 25.2176ZM28.0619 23.3229C27.8916 23.4263 27.7554 23.4952 27.5852 23.5641C27.5511 23.4607 27.483 23.3574 27.3808 23.2541C27.0063 22.9096 26.3933 22.944 25.9165 22.944C25.7803 22.944 25.6782 22.944 25.576 22.944C25.4738 22.7373 25.3376 22.5995 25.1674 22.4617L27.8235 21.0493C28.6068 20.7048 29.5262 21.0493 29.9008 21.8072C29.9689 21.945 30.003 22.0828 30.003 22.2206L28.0619 23.3229Z" stroke="white" stroke-width="0.3" mask="url(#path-1-outside-1_6914_11613)"/>
<path d="M20.5952 24.0802V24.0427L20.5688 24.0161C20.431 23.8766 20.2023 23.8766 20.0645 24.0161C19.9272 24.1549 19.9272 24.3844 20.0645 24.5233L20.0985 24.5577C20.1484 24.6082 20.2394 24.6537 20.3337 24.6537C20.4279 24.6537 20.5189 24.6082 20.5688 24.5577C20.6967 24.4284 20.7055 24.2205 20.5952 24.0803V24.0802Z" fill="white" stroke="white" stroke-width="0.182482"/>
<path d="M21.0878 22.8842C21.0872 22.885 21.0867 22.8859 21.0861 22.8867H21.0248V22.9731C21.0236 22.9763 21.0215 22.9806 21.0173 22.9892C21.0171 22.9896 21.0169 22.99 21.0167 22.9904C21.0128 22.9983 21.0067 23.0106 21.0018 23.0238C20.9965 23.038 20.9908 23.0579 20.9908 23.0813C20.9908 23.0822 20.9908 23.0831 20.9908 23.0841C20.9908 23.1156 20.9907 23.1704 21.0303 23.2244C21.0384 23.2535 21.0546 23.2781 21.0725 23.2962C21.0901 23.314 21.1142 23.3304 21.143 23.3388C21.1952 23.3802 21.2736 23.4137 21.3545 23.4137C21.4487 23.4137 21.5397 23.3682 21.5896 23.3177C21.6036 23.3036 21.6137 23.2898 21.6211 23.2785C21.6217 23.2776 21.6223 23.2767 21.6228 23.2759H21.6841V23.1896C21.6854 23.1863 21.6874 23.182 21.6917 23.1734C21.6918 23.173 21.692 23.1726 21.6922 23.1722C21.6961 23.1644 21.7022 23.152 21.7071 23.1389C21.7124 23.1246 21.7181 23.1047 21.7181 23.0813C21.7181 23.0804 21.7181 23.0795 21.7181 23.0786C21.7182 23.0422 21.7183 22.9751 21.6577 22.9138C21.6524 22.9084 21.6507 22.9057 21.6466 22.8989C21.6441 22.8948 21.6407 22.8891 21.635 22.8804C21.629 22.8713 21.6172 22.8543 21.5977 22.8405C21.5885 22.834 21.5788 22.829 21.5688 22.8254C21.4827 22.7506 21.3603 22.7124 21.2349 22.75C21.1956 22.7548 21.1628 22.7751 21.1406 22.7976C21.1228 22.8156 21.1067 22.84 21.0985 22.8689C21.0944 22.8743 21.0909 22.8795 21.0878 22.8842Z" fill="white" stroke="white" stroke-width="0.182482"/>
<path d="M24.3727 23.8708C24.3727 23.8494 24.3727 23.8175 24.3605 23.7823C24.3629 23.7734 24.3642 23.7636 24.3642 23.753C24.3642 23.6971 24.3287 23.6667 24.2927 23.6532C24.2066 23.5777 24.0835 23.5389 23.9575 23.5766C23.9182 23.5814 23.8855 23.6017 23.8632 23.6242C23.8463 23.6413 23.8309 23.6643 23.8225 23.6913L23.7739 23.7405L23.7475 23.7671V23.7997C23.7462 23.803 23.7442 23.8073 23.7399 23.8159C23.7397 23.8163 23.7395 23.8167 23.7393 23.8171C23.7354 23.8249 23.7293 23.8373 23.7245 23.8504C23.7192 23.8647 23.7134 23.8846 23.7134 23.908C23.7134 24.0023 23.758 24.0939 23.8079 24.1444C23.8578 24.1949 23.9488 24.2404 24.0431 24.2404C24.0439 24.2404 24.0448 24.2404 24.0456 24.2404C24.0771 24.2404 24.1319 24.2405 24.1857 24.2002C24.2148 24.1918 24.2392 24.1752 24.2569 24.1573C24.2747 24.1394 24.2907 24.115 24.2989 24.0862C24.3398 24.0335 24.3727 23.9546 24.3727 23.8735C24.3727 23.8726 24.3727 23.8717 24.3727 23.8708Z" fill="white" stroke="white" stroke-width="0.182482"/>
</svg>
