<svg width="23" height="28" viewBox="0 0 23 28" fill="none" xmlns="http://www.w3.org/2000/svg">
<path d="M21.9943 6.00602L16.7501 0.7619V0.760743C16.6899 0.700559 16.6089 0.666992 16.5233 0.666992H0.985278C0.900787 0.666992 0.81977 0.700556 0.760743 0.760743C0.700559 0.819771 0.666992 0.90079 0.666992 0.985278V27.0154C0.666992 27.0999 0.700556 27.1809 0.760743 27.2399C0.81977 27.3001 0.900789 27.3337 0.985278 27.3337H21.7698C21.8543 27.3337 21.9353 27.3001 21.9943 27.2399C22.0545 27.1809 22.0881 27.0999 22.0881 27.0154V6.23088C22.0881 6.14639 22.0545 6.06537 21.9943 6.00635L21.9943 6.00602ZM16.8426 1.75478L20.9999 5.91091H16.8426V1.75478ZM1.30339 26.6957V1.30471H16.2049V6.23061C16.2049 6.31511 16.2385 6.39728 16.2987 6.45631C16.3577 6.51649 16.4387 6.55006 16.5232 6.55006H21.4515V26.6957L1.30339 26.6957ZM7.11136 12.8116C8.36599 12.8105 9.56853 12.3116 10.4562 11.425C11.3428 10.5373 11.8416 9.33478 11.844 8.08018C11.844 7.90425 11.7016 7.7619 11.5257 7.76074H7.43088V3.66713C7.43088 3.58264 7.39732 3.50162 7.33713 3.44144C7.27695 3.38125 7.19593 3.34884 7.11144 3.34884C5.42048 3.34884 3.85812 4.25047 3.01309 5.71458C2.16817 7.17869 2.16817 8.98182 3.01309 10.4461C3.858 11.9102 5.4204 12.8116 7.11136 12.8116ZM6.79308 3.99803V8.08009C6.79308 8.16458 6.82664 8.24559 6.88567 8.30578C6.94585 8.36596 7.02687 8.39953 7.11136 8.40069H11.1934C11.0684 9.99327 10.0279 11.3672 8.52908 11.9204C7.03024 12.4736 5.34628 12.1044 4.2165 10.9736C3.08688 9.844 2.71882 8.15998 3.27206 6.66105C3.82531 5.16221 5.20043 4.12304 6.79308 3.99803ZM8.27224 7.23772H12.6856C12.7712 7.23772 12.8522 7.20416 12.9112 7.14397C12.9714 7.08494 13.005 7.00392 13.005 6.91944C13.0038 5.6648 12.505 4.46226 11.6173 3.57456C10.7307 2.68799 9.52815 2.18915 8.27358 2.18799C8.18909 2.18799 8.10808 2.22156 8.04789 2.28058C7.98886 2.34077 7.9553 2.42179 7.9553 2.50628V6.91959C7.9553 7.00408 7.98886 7.0851 8.04789 7.14412C8.10807 7.20431 8.18909 7.23788 8.27358 7.23788L8.27224 7.23772ZM8.59283 2.83715C10.6009 2.99687 12.1958 4.59178 12.3555 6.5998H8.59283V2.83715ZM5.14248 20.55H3.26981C3.09388 20.55 2.95153 20.6923 2.95153 20.8694V24.5882C2.95153 24.6727 2.98509 24.7537 3.04412 24.8127C3.1043 24.8729 3.18532 24.9065 3.26981 24.9065H5.14248C5.22698 24.9065 5.30799 24.8729 5.36818 24.8127C5.42721 24.7537 5.46077 24.6727 5.46077 24.5882V20.8694C5.46077 20.7849 5.42721 20.7027 5.36818 20.6437C5.30799 20.5835 5.22697 20.55 5.14248 20.55ZM4.8242 24.2687H3.58809V21.1879H4.82304L4.8242 24.2687ZM8.72818 17.734H6.85551C6.77102 17.734 6.69 17.7675 6.62981 17.8266C6.57079 17.8867 6.53722 17.9678 6.53722 18.0523V24.5882C6.53722 24.6727 6.57079 24.7537 6.62981 24.8128C6.69 24.8729 6.77102 24.9065 6.85551 24.9065H8.72818C8.81267 24.9065 8.89369 24.8729 8.95387 24.8128C9.0129 24.7537 9.04646 24.6727 9.04646 24.5882V18.0534C9.04762 17.9689 9.01406 17.8868 8.95387 17.8277C8.89369 17.7676 8.81267 17.734 8.72818 17.734ZM8.4099 24.2687H7.17379V18.3731H8.40874L8.4099 24.2687ZM12.3139 18.5316H10.4412C10.2653 18.5316 10.1229 18.674 10.1229 18.8499V24.5882C10.1229 24.6727 10.1565 24.7537 10.2155 24.8127C10.2757 24.8729 10.3567 24.9065 10.4412 24.9065H12.3139C12.3984 24.9065 12.4794 24.8729 12.5396 24.8127C12.5986 24.7537 12.6322 24.6727 12.6322 24.5882V18.8499C12.6322 18.7654 12.5986 18.6844 12.5396 18.6253C12.4794 18.5652 12.3984 18.5316 12.3139 18.5316ZM11.9956 24.2687H10.7595V19.1692H11.9944L11.9956 24.2687ZM15.8996 15.6635H14.0269C13.851 15.6635 13.7086 15.8058 13.7086 15.9817V24.5882C13.7086 24.6727 13.7422 24.7537 13.8012 24.8127C13.8614 24.8729 13.9424 24.9065 14.0269 24.9065H15.8996C15.9841 24.9065 16.0651 24.8729 16.1253 24.8127C16.1843 24.7537 16.2179 24.6727 16.2179 24.5882V15.9817C16.2179 15.8972 16.1843 15.8162 16.1253 15.756C16.0651 15.697 15.9841 15.6635 15.8996 15.6635ZM15.5813 24.2687H14.3452V16.2999H15.5801L15.5813 24.2687ZM19.4853 13.5384H17.6126C17.4367 13.5384 17.2943 13.6808 17.2943 13.8567V24.5882C17.2943 24.6727 17.3279 24.7537 17.3869 24.8127C17.4471 24.8729 17.5281 24.9065 17.6126 24.9065H19.4853C19.5698 24.9065 19.6508 24.8729 19.711 24.8127C19.77 24.7537 19.8036 24.6727 19.8036 24.5882V13.8567C19.8036 13.7722 19.77 13.6912 19.711 13.631C19.6508 13.572 19.5698 13.5384 19.4853 13.5384ZM19.167 24.2687H17.9309V14.1764H19.1658L19.167 24.2687ZM2.38131 14.1752C2.38131 14.0907 2.41487 14.0097 2.4739 13.9506C2.53408 13.8905 2.6151 13.8569 2.69959 13.8569H4.77019C4.857 13.8546 4.94033 13.887 5.00167 13.9472C5.06417 14.0073 5.09889 14.0895 5.09889 14.1752C5.09889 14.262 5.06417 14.3441 5.00167 14.4043C4.94033 14.4645 4.857 14.4969 4.77019 14.4946H2.69959C2.52367 14.4946 2.38131 14.3511 2.38131 14.1752ZM13.005 14.1752C13.005 14.3511 12.8626 14.4946 12.6855 14.4946H6.14155C5.97026 14.4888 5.83252 14.3476 5.83252 14.1752C5.83252 14.0039 5.97025 13.8627 6.14155 13.8569H12.6855C12.7712 13.8569 12.8522 13.8905 12.9112 13.9506C12.9714 14.0097 13.005 14.0907 13.005 14.1752ZM13.005 16.0883C13.005 16.1728 12.9714 16.2539 12.9112 16.3129C12.8522 16.3731 12.7712 16.4066 12.6867 16.4066H10.6149C10.4425 16.4008 10.3047 16.2608 10.3047 16.0884C10.3047 15.9159 10.4425 15.7747 10.6149 15.7689H12.6867C12.8626 15.7689 13.005 15.9124 13.005 16.0883ZM9.56174 16.0883C9.56174 16.2631 9.42054 16.4066 9.24462 16.4066H2.69947C2.61382 16.4089 2.52933 16.3765 2.46799 16.3163C2.40549 16.2562 2.37076 16.174 2.37076 16.0883C2.37076 16.0015 2.40549 15.9194 2.46799 15.8592C2.52933 15.799 2.61382 15.7666 2.69947 15.7689H9.24462C9.42054 15.7701 9.56174 15.9124 9.56174 16.0883Z" fill="currentColor"/>
</svg>
