<svg width="27" height="25" viewBox="0 0 27 25" fill="none" xmlns="http://www.w3.org/2000/svg">
<path d="M25.8943 7.36577H25.5263V1.10533C25.5263 0.496533 25.0309 0 24.4209 0H4.5368C3.928 0 3.43146 0.495377 3.43146 1.10533V6.99777C3.43146 7.60657 3.92684 8.1031 4.5368 8.1031H4.90486V11.7861H4.5368C3.928 11.7861 3.43146 12.2814 3.43146 12.8914V23.2028C3.43146 23.8116 3.92684 24.3081 4.5368 24.3081L24.4221 24.3058C25.0309 24.3058 25.5274 23.8104 25.5274 23.2005L25.5263 12.5211H25.8943C26.5031 12.5211 26.9997 12.0257 26.9997 11.4157V8.47015C26.9997 7.86135 26.5031 7.36577 25.8943 7.36577ZM24.7901 7.36577H10.0598V3.68281H24.7901V7.36577ZM4.16735 1.10533C4.16735 0.902787 4.33285 0.737273 4.5354 0.737273H24.4219C24.6244 0.737273 24.79 0.902781 24.79 1.10533V2.94675H4.16717L4.16735 1.10533ZM4.5354 7.36577C4.3317 7.36577 4.16735 7.20026 4.16735 6.99771V3.68275H9.3223V7.36571L4.5354 7.36577ZM5.64074 8.10189H10.7957V11.7848H5.64074V8.10189ZM4.16735 12.8888C4.16735 12.6863 4.33285 12.5208 4.5354 12.5208H9.32236V16.2037H4.1674L4.16735 12.8888ZM4.16735 16.9398H9.3223V20.6228H4.16735V16.9398ZM24.7901 23.2002C24.7901 23.4028 24.6246 23.5683 24.4221 23.5683H4.53677C4.33306 23.5683 4.16871 23.4028 4.16871 23.2002V21.3588H24.7903L24.7901 23.2002ZM24.7901 20.6227H10.0598V16.9397H24.7901V20.6227ZM24.7901 16.2037H10.0598V12.5208H24.7901V16.2037ZM26.2635 11.4168C26.2635 11.6193 26.098 11.7848 25.8955 11.7848H11.5343L11.5331 8.10189H25.8955C26.098 8.10189 26.2636 8.2674 26.2636 8.46995L26.2635 11.4168ZM3.58415 9.9434L0.853837 12.6737L0.333008 12.1529L2.54249 9.9434L0.333008 7.73392L0.853837 7.21309L3.58415 9.9434Z" fill="currentColor"/>
</svg>
