<svg width="32" height="32" viewBox="0 0 32 32" fill="none" xmlns="http://www.w3.org/2000/svg">
<path d="M12.4785 29.3337H4.93113C3.68333 29.3337 2.66699 28.3173 2.66699 27.0695V26.0633C2.66699 24.8155 3.68333 23.7992 4.93113 23.7992H12.4785C13.7263 23.7992 14.7426 24.8155 14.7426 26.0633V27.0695C14.7426 28.3173 13.7263 29.3337 12.4785 29.3337ZM4.93113 25.3085C4.51351 25.3085 4.1764 25.6457 4.1764 26.0633V27.0695C4.1764 27.4872 4.51351 27.8243 4.93113 27.8243H12.4785C12.8961 27.8243 13.2332 27.4872 13.2332 27.0695V26.0633C13.2332 25.6457 12.8961 25.3085 12.4785 25.3085H4.93113ZM12.4785 21.2834H4.93113C3.68333 21.2834 2.66699 20.2671 2.66699 19.0193V4.93142C2.66699 3.68364 3.68333 2.66731 4.93113 2.66731H12.4785C13.7263 2.66731 14.7426 3.68364 14.7426 4.93142V19.0193C14.7426 20.2671 13.7263 21.2834 12.4785 21.2834ZM4.93113 4.1767C4.51351 4.1767 4.1764 4.51381 4.1764 4.93142V19.0193C4.1764 19.4369 4.51351 19.774 4.93113 19.774H12.4785C12.8961 19.774 13.2332 19.4369 13.2332 19.0193V4.93142C13.2332 4.51381 12.8961 4.1767 12.4785 4.1767H4.93113ZM27.0695 14.7425H19.5222C18.2744 14.7425 17.258 13.7261 17.258 12.4783V4.9311C17.258 3.68332 18.2744 2.66699 19.5222 2.66699H27.0695C28.3173 2.66699 29.3337 3.68332 29.3337 4.9311V12.4783C29.3337 13.7261 28.3173 14.7425 27.0695 14.7425ZM19.5222 4.1767C19.1046 4.1767 18.7674 4.51381 18.7674 4.93142V12.4787C18.7674 12.8963 19.1046 13.2334 19.5222 13.2334H27.0695C27.4871 13.2334 27.8243 12.8963 27.8243 12.4787V4.93142C27.8243 4.51381 27.4871 4.1767 27.0695 4.1767H19.5222ZM27.0695 29.3337H19.5222C18.2744 29.3337 17.258 28.3173 17.258 27.0695V19.5223C17.258 18.2745 18.2744 17.2582 19.5222 17.2582H27.0695C28.3173 17.2582 29.3337 18.2745 29.3337 19.5223V27.0695C29.3337 28.3173 28.3173 29.3337 27.0695 29.3337ZM19.5222 18.7679C19.1046 18.7679 18.7674 19.105 18.7674 19.5226V27.0699C18.7674 27.4875 19.1046 27.8246 19.5222 27.8246H27.0695C27.4871 27.8246 27.8243 27.4875 27.8243 27.0699V19.5226C27.8243 19.105 27.4871 18.7679 27.0695 18.7679H19.5222Z" fill="currentColor"/>
</svg>
