<svg width="28" height="26" viewBox="0 0 28 26" fill="none" xmlns="http://www.w3.org/2000/svg">
<path d="M20.7842 14.2314C22.201 14.2315 23.3777 15.2617 23.6123 16.6123C25.0088 16.8798 25.9044 18.4717 25.3643 19.8203C26.2892 21.0472 26.1409 22.9217 25.1152 24.0107H27.2236C27.3983 24.014 27.5357 24.0817 27.6279 24.1875C27.7187 24.2918 27.7604 24.4273 27.7588 24.5586C27.7571 24.6897 27.7118 24.8231 27.6211 24.9258C27.5287 25.0302 27.3932 25.0986 27.2227 25.1006H1.43555C1.26152 25.0974 1.12453 25.0294 1.03223 24.9238C0.941404 24.8198 0.899304 24.685 0.900391 24.5537C0.901484 24.4226 0.945349 24.2885 1.03613 24.1855C1.12858 24.0808 1.26515 24.013 1.43652 24.0107H3.54102C2.98002 23.419 2.69267 22.6058 2.68359 21.792C2.67388 20.9125 2.98883 20.0231 3.64453 19.4023C3.39688 18.1304 4.27192 16.8615 5.51074 16.6133C6.08847 13.4648 10.5857 13.4625 11.166 16.6113C12.5627 16.879 13.4592 18.4724 12.916 19.8213C13.8422 21.0453 13.6939 22.9222 12.6689 24.0107H13.958C13.7899 23.7894 13.7942 23.5245 13.917 23.333C13.9954 23.2108 14.1216 23.1197 14.2754 23.0986C14.3918 23.0827 14.5162 23.1076 14.6387 23.1787L14.7598 23.2656L14.7656 23.2695L14.7695 23.2754C16.1093 24.7924 18.698 23.7808 18.6748 21.7607V21.7598C18.6748 21.2058 18.4702 20.6738 18.0986 20.2617C17.9413 20.0868 17.9137 19.8295 18.0312 19.625C18.1471 19.4239 18.208 19.1967 18.208 18.9678C18.208 18.2412 17.6163 17.6494 16.8896 17.6494C16.5889 17.6492 16.3459 17.4059 16.3457 17.1055V17.1045C16.3598 15.3369 13.9675 14.6503 13.0498 16.1602V16.1611C12.8908 16.4169 12.5554 16.4944 12.2998 16.3359H12.2988C12.0438 16.1771 11.9657 15.841 12.124 15.5859C12.6515 14.7377 13.5631 14.2314 14.5605 14.2314C15.9773 14.2315 17.1541 15.2617 17.3887 16.6123C18.7851 16.8798 19.6807 18.4717 19.1406 19.8203C20.0655 21.0472 19.9173 22.9217 18.8916 24.0107H20.1816C20.0135 23.7894 20.0179 23.5245 20.1406 23.333C20.219 23.2108 20.3453 23.1197 20.499 23.0986C20.6154 23.0827 20.7398 23.1076 20.8623 23.1787L20.9834 23.2656L20.9893 23.2695L20.9932 23.2754C22.3329 24.7924 24.9216 23.7808 24.8984 21.7607V21.7598C24.8984 21.2058 24.6938 20.6738 24.3223 20.2617C24.1649 20.0868 24.1373 19.8295 24.2549 19.625C24.3708 19.4239 24.4316 19.1967 24.4316 18.9678C24.4316 18.2412 23.8399 17.6494 23.1133 17.6494C22.8126 17.6492 22.5695 17.4059 22.5693 17.1055V17.1045C22.5834 15.3369 20.1912 14.6503 19.2734 16.1602V16.1611C19.1144 16.4169 18.7794 16.4943 18.5234 16.3359H18.5225C18.2675 16.1771 18.1893 15.841 18.3477 15.5859C18.8751 14.7377 19.7867 14.2314 20.7842 14.2314ZM4.69238 18.9746H4.69141C4.68644 19.0419 4.69803 19.1158 4.7168 19.1992C4.7342 19.2766 4.76098 19.3741 4.77637 19.46C4.7924 19.5496 4.80045 19.6476 4.77637 19.7441C4.75148 19.8439 4.6947 19.935 4.59473 20.0117C4.06432 20.4418 3.76074 21.0792 3.76074 21.7617V21.7627C3.73788 23.7181 6.18094 24.7497 7.56152 23.3818V19.2207C7.56172 18.9203 7.8048 18.677 8.10547 18.6768C8.40632 18.6768 8.6502 18.9202 8.65039 19.2207V23.3789C10.7511 25.3131 13.7412 22.4489 11.873 20.2617C11.7737 20.1459 11.7373 20.0232 11.7412 19.8994C11.745 19.7806 11.786 19.665 11.8291 19.5605C11.8747 19.45 11.9204 19.3561 11.9541 19.2549C11.9867 19.1571 12.002 19.0688 11.9873 18.9844L11.9854 18.9756V18.9668C11.9852 18.2401 11.3935 17.6484 10.667 17.6484C10.3672 17.6483 10.1247 17.4066 10.123 17.1074L10.1064 16.8926C9.83726 14.7488 6.62688 14.8212 6.55469 17.1074C6.55299 17.4065 6.31048 17.6482 6.01074 17.6484C5.2842 17.6484 4.69255 18.2401 4.69238 18.9668V18.9746Z" fill="currentColor" stroke="currentColor" stroke-width="0.2"/>
<path d="M14.3232 0.900391C14.6991 0.90059 15.0848 1.06365 15.2949 1.40234L20.4707 9.2168L20.5518 9.35547C20.7112 9.68408 20.6621 10.046 20.4873 10.3311C20.2888 10.6545 19.9231 10.8873 19.5 10.873V10.875H9.14648V10.873C8.72265 10.8877 8.35723 10.6547 8.15918 10.3311C7.95989 10.0053 7.92474 9.57933 8.17578 9.21777L13.3516 1.40234C13.5617 1.06298 13.9474 0.900217 14.3232 0.900391ZM14.3232 1.98242C14.2904 1.98229 14.2668 1.99487 14.2559 2.00879L9.10938 9.7793C9.12081 9.78215 9.13478 9.78463 9.15039 9.78516H19.499C19.5126 9.784 19.525 9.78109 19.5361 9.77832L14.3887 2.00781C14.3769 1.99466 14.3543 1.98263 14.3232 1.98242Z" fill="currentColor" stroke="currentColor" stroke-width="0.2"/>
<path d="M14.3223 3.56201C14.6232 3.56201 14.8671 3.80536 14.8672 4.10596V6.77393C14.8669 7.0744 14.6231 7.31787 14.3223 7.31787C14.0215 7.31776 13.7786 7.07433 13.7783 6.77393V4.10596C13.7784 3.80543 14.0215 3.56213 14.3223 3.56201Z" fill="currentColor" stroke="currentColor" stroke-width="0.2"/>
<path d="M14.0195 8.09912C14.1988 7.9846 14.4458 7.98461 14.625 8.09912L14.709 8.16553L14.7158 8.17334L14.7695 8.24072L14.7744 8.24756C14.7946 8.27791 14.8096 8.30907 14.8213 8.34033C14.9175 8.54853 14.8502 8.78305 14.7119 8.93506L14.708 8.93896L14.707 8.93799C14.4971 9.14544 14.1462 9.14601 13.9365 8.93799L13.9316 8.93408V8.93311C13.8863 8.88245 13.8506 8.82604 13.8242 8.76416C13.7709 8.65536 13.7722 8.54649 13.7881 8.44678V8.44482C13.7938 8.41281 13.8048 8.38149 13.8193 8.3501C13.8309 8.31551 13.8477 8.2827 13.8682 8.25146H13.8672C13.8783 8.23294 13.8923 8.21645 13.9023 8.20459C13.9145 8.1903 13.9208 8.18317 13.9287 8.17334L13.9355 8.16553L14.0195 8.09912Z" fill="currentColor" stroke="currentColor" stroke-width="0.2"/>
</svg>
