<svg width="113" height="113" viewBox="0 0 113 113" fill="currentColor" xmlns="http://www.w3.org/2000/svg">
    <circle cx="56.5942" cy="56.4146" r="55.3286" />
    <circle cx="56.5942" cy="56.4146" r="55.6823" stroke="#9B9B9B" stroke-opacity="0.2" stroke-width="0.707379" />
    <path fill-rule="evenodd" clip-rule="evenodd"
        d="M70.3486 84.9425C75.8181 84.9425 78.6222 82.0826 78.6222 76.4749V52.5303H59.382C56.0226 52.5303 54.4401 50.9322 54.4401 47.5395V27.8848H42.3907C36.9213 27.8848 34.1172 30.7447 34.1172 36.3243V76.4749C34.1172 82.1106 36.9213 84.9425 42.3907 84.9425H70.3486ZM78.3068 48.8295C78.1402 47.6799 77.3351 46.5864 76.058 45.2686L61.6209 30.4364C60.3716 29.1467 59.2332 28.3336 58.1227 28.1373V47.3435C58.1227 48.3248 58.5947 48.8295 59.5664 48.8295H78.3068ZM66.5156 63.9987H46.2482C45.1654 63.9987 44.3603 63.1856 44.3603 62.1482C44.3603 61.0827 45.1654 60.2976 46.2482 60.2976H66.5156C67.5706 60.2976 68.4035 61.0827 68.4035 62.1482C68.4035 63.1856 67.5706 63.9987 66.5156 63.9987ZM66.5156 74.1476H46.2482C45.1654 74.1476 44.3603 73.3345 44.3603 72.269C44.3603 71.2316 45.1654 70.4185 46.2482 70.4185H66.5156C67.5706 70.4185 68.4035 71.2316 68.4035 72.269C68.4035 73.3345 67.5706 74.1476 66.5156 74.1476Z"
        fill="white" />
</svg>