<svg width="50" height="50" viewBox="0 0 50 50" fill="none" xmlns="http://www.w3.org/2000/svg">
<g id="Icon/File">
<circle id="Oval" cx="25" cy="25" r="25" fill="#55AB68" fill-opacity="0.2"/>
<path id="&#244;&#128;&#137;&#128;" fill-rule="evenodd" clip-rule="evenodd" d="M32.9726 41C35.9876 41 37.5333 39.3961 37.5333 36.2511V22.8221H26.9272C25.0754 22.8221 24.203 21.9258 24.203 20.0231V9H17.5608C14.5458 9 13 10.6039 13 13.7332V36.2511C13 39.4118 14.5458 41 17.5608 41H32.9726ZM37.3648 20.7455C37.2729 20.1008 36.8291 19.4876 36.1251 18.7485L28.1667 10.4301C27.478 9.70672 26.8505 9.2507 26.2383 9.14062V19.9121C26.2383 20.4625 26.4985 20.7455 27.0341 20.7455H37.3648ZM30.8615 29.2548H19.6892C19.0923 29.2548 18.6484 28.7987 18.6484 28.2167C18.6484 27.6191 19.0923 27.1787 19.6892 27.1787H30.8615C31.4431 27.1787 31.9022 27.6191 31.9022 28.2167C31.9022 28.7987 31.4431 29.2548 30.8615 29.2548ZM30.8615 34.9459H19.6892C19.0923 34.9459 18.6484 34.4899 18.6484 33.8923C18.6484 33.3105 19.0923 32.8545 19.6892 32.8545H30.8615C31.4431 32.8545 31.9023 33.3105 31.9023 33.8923C31.9023 34.4899 31.4431 34.9459 30.8615 34.9459Z" fill="#55AB68"/>
</g>
</svg>
