<svg xmlns="http://www.w3.org/2000/svg" width="24" height="32" viewBox="0 0 24 32" fill="currentColor">
    <path
        d="M4.81227 2.43199C4.81227 1.66867 3.89684 1.27818 3.34587 1.80648L1.55612 3.52263C0.992493 4.06308 1.37504 5.01475 2.1559 5.01475H3.94566C4.42428 5.01475 4.81227 4.62676 4.81227 4.14815V2.43199Z" />
    <path
        d="M9.29887 0C8.1002 0 7.12849 0.971709 7.12849 2.17037V4.83077C7.12849 6.02943 6.15678 7.00114 4.95812 7.00114H2.35077C1.15211 7.00114 0.180397 7.97285 0.180397 9.17151V29.8296C0.180397 31.0283 1.15211 32 2.35077 32H21.8278C23.0265 32 23.9981 31.0284 23.9982 29.8298L23.9998 2.1705C23.9999 0.971786 23.0282 0 21.8294 0H9.29887ZM19.0383 24.9989C19.0378 25.5509 18.5901 25.9982 18.038 25.9982H6.14525C5.5928 25.9982 5.14496 25.5504 5.14496 24.9979C5.14496 24.4454 5.5928 23.9976 6.14526 23.9976H18.038C18.5908 23.9976 19.0388 24.446 19.0383 24.9989ZM19.0383 20.0002C19.0378 20.5523 18.5901 20.9996 18.038 20.9996H6.14525C5.5928 20.9996 5.14496 20.5517 5.14496 19.9993C5.14496 19.4468 5.5928 18.999 6.14526 18.999H18.038C18.5908 18.999 19.0388 19.4474 19.0383 20.0002ZM19.0383 14.9997C19.0378 15.5518 18.5901 15.999 18.038 15.999H6.14525C5.5928 15.999 5.14496 15.5512 5.14496 14.9987C5.14496 14.4463 5.5928 13.9984 6.14526 13.9984H18.038C18.5908 13.9984 19.0388 14.4469 19.0383 14.9997Z" />
</svg>