<svg width="24" height="24" viewBox="0 0 24 24" fill="none" xmlns="http://www.w3.org/2000/svg">
<path fill-rule="evenodd" clip-rule="evenodd" d="M17.7879 2H9.79756V3.94191C9.79756 5.51399 8.51475 6.79741 6.94267 6.79741H5.00077V19.2581C5.00077 20.3261 5.87469 21.2 6.94267 21.2H17.7886C18.8565 21.2 19.7305 20.3261 19.7305 19.2581V3.94252C19.7305 2.87453 18.8565 2.00061 17.7886 2.00061L17.7879 2ZM5.00016 5.88382H6.94206C8.01005 5.88382 8.88397 5.0099 8.88397 3.94191V2L5.00016 5.88382ZM16.7029 17.3327C16.9549 17.3327 17.1594 17.1282 17.1594 16.8762C17.1594 16.6241 16.9549 16.4197 16.7029 16.4197H8.02653C7.77449 16.4197 7.57004 16.6241 7.57004 16.8762C7.57004 17.1282 7.77449 17.3327 8.02653 17.3327H16.7029ZM16.7029 10.8253C16.9549 10.8253 17.1594 10.6208 17.1594 10.3688C17.1594 10.1167 16.9549 9.91227 16.7029 9.91227H8.02653C7.77449 9.91227 7.57004 10.1167 7.57004 10.3688C7.57004 10.6208 7.77449 10.8253 8.02653 10.8253H16.7029ZM16.7029 14.0786C16.9549 14.0786 17.1594 13.8742 17.1594 13.6222C17.1594 13.3701 16.9549 13.1657 16.7029 13.1657H8.02653C7.77449 13.1657 7.57004 13.3701 7.57004 13.6222C7.57004 13.8742 7.77449 14.0786 8.02653 14.0786H16.7029Z" fill="#002633"/>
</svg>
