<svg width="17" height="16" viewBox="0 0 17 16" fill="currentColor" xmlns="http://www.w3.org/2000/svg">
  <path
    fill-rule="evenodd"
    clip-rule="evenodd"
    d="M8.5 16C12.9183 16 16.5 12.4183 16.5 8C16.5 3.58172 12.9183 0 8.5 0C4.08172 0 0.5 3.58172 0.5 8C0.5 12.4183 4.08172 16 8.5 16ZM5.5 9C6.05228 9 6.5 8.55229 6.5 8C6.5 7.44772 6.05228 7 5.5 7C4.94772 7 4.5 7.44772 4.5 8C4.5 8.55229 4.94772 9 5.5 9ZM9.5 8C9.5 8.55229 9.05229 9 8.5 9C7.94772 9 7.5 8.55229 7.5 8C7.5 7.44772 7.94772 7 8.5 7C9.05229 7 9.5 7.44772 9.5 8ZM11.5 9C12.0523 9 12.5 8.55229 12.5 8C12.5 7.44772 12.0523 7 11.5 7C10.9477 7 10.5 7.44772 10.5 8C10.5 8.55229 10.9477 9 11.5 9Z"
  />
</svg>
