<svg xmlns="http://www.w3.org/2000/svg" width="17" height="17" viewBox="0 0 17 17" fill="none">
    <path fill-rule="evenodd" clip-rule="evenodd"
        d="M8.5 0.09375C12.9178 0.09375 16.5 3.67597 16.5 8.09375C16.5 12.5115 12.9178 16.0938 8.5 16.0938C4.08222 16.0938 0.5 12.5115 0.5 8.09375C0.5 3.67597 4.08222 0.09375 8.5 0.09375ZM8.5 0.982639C4.57289 0.982639 1.38889 4.16664 1.38889 8.09375C1.38889 12.0209 4.57289 15.2049 8.5 15.2049C12.2778 15.2049 15.3676 12.2591 15.5978 8.53819L10.2218 8.53908C10.0236 9.30531 9.32844 9.87153 8.5 9.87153C7.51778 9.87153 6.72222 9.07597 6.72222 8.09375C6.72222 7.11153 7.51778 6.31597 8.5 6.31597C9.32844 6.31597 10.0244 6.88219 10.2218 7.64931H15.5978C15.3684 3.93019 12.2778 0.982639 8.5 0.982639Z"
        fill="black" />
</svg>