<svg xmlns="http://www.w3.org/2000/svg" width="17" height="17" viewBox="0 0 17 17" fill="none">
    <path fill-rule="evenodd" clip-rule="evenodd"
        d="M8.5 0.09375C9.48222 0.09375 10.2778 0.889306 10.2778 1.87153C10.2778 1.95775 10.2716 2.04219 10.26 2.12575C12.2813 2.71864 13.8751 4.31242 14.4698 6.33375L14.5898 6.32042L14.7222 6.31597C15.7044 6.31597 16.5 7.11153 16.5 8.09375C16.5 9.07597 15.7044 9.87153 14.7222 9.87153C14.636 9.87153 14.5516 9.8653 14.468 9.85375C13.8751 11.8751 12.2813 13.4689 10.26 14.0635C10.2716 14.1453 10.2778 14.2297 10.2778 14.316C10.2778 15.2982 9.48222 16.0938 8.5 16.0938C7.51778 16.0938 6.72222 15.2982 6.72222 14.316C6.72222 14.2297 6.72844 14.1453 6.74 14.0617C4.71867 13.4689 3.12489 11.8751 2.53022 9.85375L2.41022 9.86708L2.27778 9.87153C1.29556 9.87153 0.5 9.07597 0.5 8.09375C0.5 7.11153 1.29556 6.31597 2.27778 6.31597C2.364 6.31597 2.44844 6.32219 2.532 6.33375C3.12489 4.31242 4.71867 2.71864 6.74 2.12397C6.72844 2.04219 6.72222 1.95775 6.72222 1.87153C6.72222 0.889306 7.51778 0.09375 8.5 0.09375ZM9.91333 2.94975L9.84222 3.03864C9.51511 3.41108 9.03422 3.64931 8.5 3.64931C7.924 3.64931 7.412 3.37553 7.08667 2.95064C5.27689 3.44575 3.852 4.87064 3.356 6.68042C3.78178 7.00575 4.05556 7.51775 4.05556 8.09375C4.05556 8.66975 3.78178 9.18175 3.35689 9.50708C3.852 11.3169 5.27689 12.7417 7.08667 13.2378C7.412 12.812 7.924 12.5382 8.5 12.5382C9.076 12.5382 9.588 12.812 9.91333 13.2369C11.7231 12.7418 13.148 11.3169 13.644 9.50708C13.2182 9.18175 12.9444 8.66975 12.9444 8.09375C12.9444 7.51775 13.2182 7.00575 13.6431 6.68042C13.148 4.87064 11.7231 3.44575 9.91333 2.94975Z"
        fill="black" />
</svg>