<svg xmlns="http://www.w3.org/2000/svg" width="17" height="17" viewBox="0 0 17 17" fill="none">
    <path
        d="M8.5 0.09375C9.48222 0.09375 10.2778 0.889306 10.2778 1.87153C10.2778 2.39953 10.0467 2.87419 9.68222 3.19953L14.5071 12.5506C14.5782 12.5417 14.6493 12.5382 14.7222 12.5382C15.7044 12.5382 16.5 13.3337 16.5 14.316C16.5 15.2982 15.7044 16.0938 14.7222 16.0938C13.8938 16.0938 13.1978 15.5275 13.0004 14.7604H3.99956C3.80222 15.5275 3.10622 16.0938 2.27778 16.0938C1.29556 16.0938 0.5 15.2982 0.5 14.316C0.5 13.3337 1.29556 12.5382 2.27778 12.5382C2.40578 12.5382 2.53022 12.5515 2.65022 12.5773L7.33111 3.21108C6.95778 2.88486 6.72222 2.40486 6.72222 1.87153C6.72222 0.889306 7.51778 0.09375 8.5 0.09375ZM8.89111 3.60575C8.76667 3.63419 8.63422 3.64931 8.5 3.64931C8.37111 3.64931 8.24578 3.63597 8.12489 3.60931L3.444 12.9746C3.71067 13.2058 3.908 13.5169 3.99956 13.8706H13.0004C13.1053 13.4662 13.348 13.1178 13.676 12.8786L8.89111 3.60575Z"
        fill="#2A2A2A" />
</svg>