<svg xmlns="http://www.w3.org/2000/svg" width="17" height="17" viewBox="0 0 17 17" fill="none">
    <path
        d="M8.49994 0.0941774C8.78083 0.0817329 9.02083 0.343066 9.02083 0.615955V2.22751C9.52216 2.27196 10.0182 2.37862 10.4884 2.55196C11.6333 2.97329 12.6075 3.71907 13.3168 4.71196C13.9142 5.54751 14.2688 6.54929 14.3613 7.57151H15.979C16.2706 7.57151 16.4875 7.80884 16.4999 8.0924C16.5124 8.37418 16.251 8.61418 15.9782 8.61418H14.3604C14.3462 8.75995 14.3275 8.90573 14.3053 9.0524C14.1266 10.2195 13.5586 11.3244 12.7417 12.176C11.9337 13.0168 10.859 13.6213 9.71327 13.8542C9.48483 13.9013 9.25283 13.936 9.01994 13.9564V15.5715C9.01994 15.864 8.78172 16.0808 8.49905 16.0933C8.21816 16.1057 7.97816 15.8444 7.97816 15.5715L7.97727 13.9528L7.87061 13.944C7.33461 13.8817 6.82527 13.7564 6.32927 13.5617L6.03238 13.4373C4.96749 12.9573 4.05905 12.1271 3.45549 11.1297C2.99505 10.3715 2.71238 9.49951 2.63416 8.61418H1.02172C0.729272 8.61418 0.513272 8.37595 0.499939 8.0924C0.487495 7.81151 0.748828 7.57151 1.02172 7.57151H2.63683C2.74972 6.37062 3.21727 5.25151 3.98349 4.31818C4.72838 3.41151 5.76749 2.74662 6.89549 2.42662C7.24749 2.32707 7.61016 2.2604 7.97727 2.2284V0.615955C7.97816 0.323511 8.21549 0.107511 8.49994 0.0941774ZM8.48216 3.24973H8.35772C8.16394 3.25507 7.97016 3.27018 7.77816 3.29595L7.83061 3.28973L7.63949 3.32173C7.36305 3.37507 7.09105 3.44796 6.82616 3.54307L6.63149 3.61773L6.40927 3.71995C6.31772 3.7644 6.22705 3.8124 6.13816 3.86218L5.87505 4.01951C5.76572 4.09062 5.65994 4.16262 5.55505 4.24084L5.58349 4.2204L5.57461 4.22662C5.57638 4.22662 5.56394 4.23551 5.54172 4.25329L5.52927 4.26129L5.55327 4.24351L5.56483 4.23462L5.55594 4.24084L5.50172 4.28262L5.51683 4.27018L5.52216 4.26662L5.51861 4.27107L5.48305 4.29951C5.43061 4.34395 5.37816 4.38662 5.32661 4.43195C5.12661 4.60795 4.94172 4.79729 4.76927 5.00084C4.74438 5.02929 4.72038 5.05951 4.69638 5.08884L4.67683 5.11107L4.65372 5.13507L4.63949 5.15818V5.15907L4.62349 5.17951L4.59683 5.21684C4.51683 5.32795 4.43949 5.44173 4.36838 5.55818C4.22794 5.78751 4.10616 6.02751 4.00216 6.27373L4.02972 6.21151L3.95238 6.41151C3.85816 6.6764 3.78349 6.9484 3.73105 7.22484L3.69816 7.4204L3.67416 7.65329C3.65105 7.94307 3.65105 8.23373 3.67416 8.5244L3.69816 8.75551L3.73105 8.95107C3.78438 9.2284 3.85816 9.49951 3.95238 9.7644L4.02705 9.95907L4.00305 9.90662L4.02794 9.96529L4.05461 10.0275L4.02972 9.9644L4.12927 10.1822C4.17372 10.2737 4.22172 10.3635 4.27149 10.4533L4.42883 10.7155C4.49994 10.8257 4.57283 10.9306 4.65105 11.0355L4.62794 11.0044L4.63594 11.016L4.65194 11.0373L4.65016 11.0346L4.64661 11.0293L4.66083 11.048L4.65816 11.0453L4.67061 11.0613L4.66705 11.056L4.68038 11.0728L4.70972 11.1084C4.75327 11.16 4.79594 11.2124 4.84127 11.2648C5.01727 11.464 5.20661 11.6497 5.41016 11.8222L5.49816 11.8951L5.51505 11.9102L5.50261 11.9013L5.51683 11.912L5.51861 11.9137L5.51683 11.912L5.52038 11.9146L5.53461 11.9253L5.51949 11.9146L5.54527 11.9377L5.56394 11.9484L5.55327 11.9395L5.53905 11.9288L5.56927 11.952L5.56394 11.9484L5.58972 11.9671L5.62527 11.9937C5.73727 12.0746 5.85105 12.1511 5.96749 12.2222C6.19683 12.3635 6.43683 12.4853 6.68394 12.5893L6.63327 12.5662L6.82083 12.6382C7.08572 12.7333 7.35772 12.8071 7.63416 12.8604L7.82794 12.8915L8.06261 12.9164C8.35238 12.9395 8.64394 12.9395 8.93372 12.9164L9.16572 12.8915L9.36127 12.8595C9.63683 12.8071 9.90883 12.7333 10.1746 12.6382L10.3586 12.5671L10.5915 12.4613C10.6831 12.4168 10.7737 12.3697 10.8626 12.3191L11.1248 12.1617C11.2351 12.0915 11.3408 12.0186 11.4448 11.9404L11.4182 11.9591L11.4253 11.9555L11.4288 11.9511L11.4324 11.9484L11.4351 11.9466L11.4582 11.9288L11.4626 11.9253L11.4706 11.9191L11.4822 11.9102L11.5177 11.8817L11.6742 11.7493C11.8733 11.5742 12.0591 11.3848 12.2315 11.1804L12.3044 11.0933L12.3177 11.0782L12.3239 11.0711L12.3408 11.0488L12.3497 11.0382L12.3355 11.056L12.323 11.072C12.3319 11.0631 12.3408 11.0542 12.3471 11.0453L12.3613 11.0222L12.3773 11.0017L12.4039 10.9653C12.4839 10.8542 12.5604 10.7395 12.6315 10.6231C12.7728 10.3937 12.8946 10.1537 12.9986 9.90751L12.9702 9.96973L12.9479 10.0275L12.9728 9.96973L12.9986 9.90751L12.9737 9.96084L13.0484 9.76973C13.1426 9.50484 13.2173 9.23284 13.2697 8.9564L13.3008 8.75818L13.3222 8.57773C13.3293 8.49773 13.3346 8.41595 13.3382 8.33595L13.3426 8.09418L13.3497 8.17418C13.3915 8.41418 13.611 8.62484 13.8644 8.61418C13.5728 8.61329 13.3568 8.37595 13.3444 8.0924V8.06307L13.3435 8.0924C13.3435 7.85062 13.3275 7.60795 13.2946 7.36795L13.3017 7.4364L13.3124 7.50129L13.3035 7.43729L13.2946 7.36795L13.3008 7.43284L13.2688 7.2284C13.2155 6.95284 13.1417 6.68084 13.0466 6.41595L12.9693 6.21507L12.9959 6.27284L12.9719 6.21595L12.9453 6.15373L12.9675 6.21062L12.8697 5.99907C12.8253 5.90662 12.7782 5.81684 12.7275 5.72795L12.5702 5.46484C12.4999 5.35551 12.4279 5.24973 12.3497 5.14484L12.3666 5.16884L12.3577 5.15729L12.3479 5.14484L12.3524 5.15018L12.3497 5.14573L12.3471 5.14307L12.3382 5.13151L12.3293 5.11907L12.3213 5.10929L12.3275 5.11818L12.2902 5.07195L12.2244 4.99373L12.1586 4.9164C11.9826 4.7164 11.7924 4.53062 11.5897 4.35907L11.5008 4.28529L11.4839 4.26929L11.4306 4.2284L11.4102 4.21329L11.3737 4.18662C11.2626 4.10573 11.1488 4.02929 11.0315 3.95818C10.8022 3.81684 10.5631 3.69596 10.3159 3.59107L10.3791 3.61951L10.1791 3.54218C9.91416 3.44707 9.64216 3.37329 9.36572 3.31996L9.17194 3.28884L8.93638 3.26396C8.79416 3.2524 8.65016 3.24618 8.50616 3.24618L8.48216 3.24973ZM8.49994 6.31551C9.48216 6.31551 10.2777 7.11195 10.2777 8.09418C10.2777 9.07729 9.48216 9.87373 8.49994 9.87373C7.51683 9.87373 6.72038 9.07729 6.72038 8.09418C6.72038 7.11195 7.51683 6.31551 8.49905 6.31551H8.49994Z"
        fill="#2A2A2A" />
</svg>