<svg width="20" height="21" viewBox="0 0 20 21" fill="none" xmlns="http://www.w3.org/2000/svg">
<path fill-rule="evenodd" clip-rule="evenodd" d="M10 0.818359C4.48071 0.818359 0 5.29907 0 10.8184C0 16.3376 4.48071 20.8184 10 20.8184C15.5193 20.8184 20 16.3376 20 10.8184C20 5.29907 15.5193 0.818359 10 0.818359ZM8.55714 2.37122C7.92214 3.35907 7.395 4.34193 6.97286 5.31907C6.165 5.05479 5.35786 4.68193 4.55357 4.20265C5.68286 3.27193 7.05357 2.62622 8.55714 2.37122ZM11.4429 2.37122C12.9379 2.62479 14.3014 3.2655 15.4271 4.18765C14.6221 4.66193 13.8193 5.03265 13.0179 5.29765C12.5964 4.32765 12.0736 3.35193 11.4429 2.37122ZM10 2.7755C10.6479 3.74122 11.1857 4.70122 11.6157 5.65479C10.5336 5.84979 9.455 5.85479 8.37857 5.66907C8.80929 4.71122 9.34929 3.74622 10 2.7755ZM16.4829 5.21836C17.6364 6.55265 18.3857 8.24336 18.5393 10.1041H14.2464C14.1614 8.95836 13.9264 7.80407 13.5364 6.64122C14.5164 6.3055 15.4986 5.83122 16.4829 5.21836ZM3.50143 5.2355C4.48429 5.85336 5.46857 6.32907 6.455 6.66407C6.06929 7.81836 5.83786 8.9655 5.75357 10.1041H1.46071C1.61357 8.25122 2.35643 6.56622 3.50143 5.2355ZM12.1579 7.02407C12.5107 8.05765 12.7307 9.08336 12.815 10.1041H7.185C7.26929 9.08979 7.48714 8.06907 7.83643 7.04193C9.27214 7.33622 10.7129 7.32979 12.1579 7.02407ZM1.46071 11.5326H5.72429C5.76786 12.7005 5.97429 13.8605 6.34214 15.0119C5.39286 15.3448 4.44643 15.8069 3.50143 16.4012C2.35643 15.0705 1.61357 13.3855 1.46071 11.5326ZM7.15429 11.5326H12.8457C12.8021 12.5762 12.6129 13.6112 12.2779 14.6398C10.7529 14.2991 9.23143 14.2934 7.71643 14.6212C7.38572 13.5991 7.19714 12.5705 7.15429 11.5326ZM14.2757 11.5326H18.5393C18.3857 13.3934 17.6364 15.0841 16.4829 16.4184C15.5371 15.8298 14.5929 15.3691 13.6507 15.0355C14.0236 13.8762 14.2321 12.7084 14.2757 11.5326ZM9.97214 15.8298C10.5629 15.8305 11.1543 15.8912 11.7464 16.0069C11.2993 16.9905 10.7179 17.9676 10 18.9376C9.27857 17.9626 8.69429 16.9805 8.24643 15.9912C8.82071 15.8841 9.39571 15.8284 9.97214 15.8298ZM6.84857 16.3598C7.26929 17.3298 7.81 18.2934 8.47071 19.2505C7.00143 18.9848 5.66071 18.3469 4.55357 17.4341C5.31714 16.9791 6.08214 16.6205 6.84857 16.3598ZM13.1429 16.3819C13.9029 16.6441 14.6643 16.9998 15.4271 17.4491C14.3236 18.3541 12.9907 18.9862 11.5293 19.2505C12.185 18.3005 12.7236 17.3448 13.1429 16.3819Z" fill="currentColor"/>
</svg>
