<svg width="17" height="17" viewBox="0 0 17 17" xmlns="http://www.w3.org/2000/svg">
    <path fill-rule="evenodd" clip-rule="evenodd"
        d="M8.5 16.5C9.59281 16.5 10.6216 16.2908 11.5863 15.8725C12.551 15.4542 13.402 14.8765 14.1392 14.1392C14.8765 13.402 15.4542 12.551 15.8725 11.5863C16.2908 10.6216 16.5 9.59281 16.5 8.5C16.5 7.40719 16.2908 6.37843 15.8725 5.41373C15.4542 4.44902 14.8765 3.59804 14.1392 2.86078C13.402 2.12353 12.5497 1.54575 11.5824 1.12745C10.615 0.70915 9.58497 0.5 8.49216 0.5C7.39935 0.5 6.37059 0.70915 5.40588 1.12745C4.44118 1.54575 3.5915 2.12353 2.85686 2.86078C2.12222 3.59804 1.54575 4.44902 1.12745 5.41373C0.70915 6.37843 0.5 7.40719 0.5 8.5C0.5 9.59281 0.70915 10.6216 1.12745 11.5863C1.54575 12.551 2.12353 13.402 2.86078 14.1392C3.59804 14.8765 4.44902 15.4542 5.41373 15.8725C6.37843 16.2908 7.40719 16.5 8.5 16.5ZM5.25215 4.11896L5.17814 4.09559C5.07639 4.06119 4.97715 4.0249 4.88042 3.98673C4.49349 3.83405 4.1509 3.65544 3.85265 3.45089L3.81152 3.42124L3.85278 3.3814C4.43068 2.85325 5.08565 2.43019 5.81767 2.11222C6.02682 2.02137 6.2394 1.94188 6.45542 1.87374L6.60343 1.83203L6.44543 2.00027C6.17398 2.30726 5.92552 2.67398 5.70003 3.10045C5.5454 3.39289 5.40495 3.70742 5.27866 4.04403L5.25215 4.11896ZM11.7273 4.04387L11.7526 4.1178L11.822 4.09543L12.1197 3.98657C12.5066 3.83389 12.8492 3.65527 13.1475 3.45072L13.1822 3.42509L13.1377 3.38123C12.5558 2.85309 11.8988 2.43003 11.1668 2.11206C10.9576 2.02121 10.745 1.94171 10.529 1.87357L10.4023 1.83789L10.5552 2.00011C10.8273 2.30709 11.0769 2.67382 11.304 3.10029C11.4598 3.39273 11.6009 3.70725 11.7273 4.04387ZM7.99028 4.55275L7.6716 4.53907C7.2694 4.51586 6.88556 4.47523 6.52007 4.41719L6.26855 4.37305L6.33793 4.18571C6.38005 4.07859 6.42377 3.97406 6.46909 3.87209C6.74098 3.26033 7.05209 2.77798 7.40242 2.42504C7.57758 2.24857 7.75667 2.11621 7.93968 2.02798L7.99028 2.00781V4.55275ZM9.0166 2.01172V4.55365L9.32863 4.53997C9.73083 4.51675 10.1147 4.47613 10.4802 4.41809L10.7313 4.37395L10.6623 4.18661L10.5311 3.87299C10.2592 3.26122 9.94814 2.77887 9.59781 2.42593C9.42265 2.24946 9.24356 2.11711 9.06055 2.02887L9.0166 2.01172ZM4.54848 7.98293H1.58691L1.60084 7.80081C1.66898 7.1116 1.83932 6.45326 2.11187 5.82581C2.339 5.30294 2.61922 4.81887 2.95256 4.37361L3.11488 4.16602L3.24651 4.26372C3.53758 4.46764 3.87571 4.65239 4.26089 4.81797C4.45348 4.90076 4.65406 4.97716 4.86263 5.04716L4.95407 5.07657L4.94236 5.12001C4.90971 5.24694 4.87863 5.37633 4.84913 5.50816C4.7016 6.16736 4.60676 6.86724 4.56461 7.6078L4.54848 7.98293ZM12.4514 7.98287H15.4119L15.3994 7.80076C15.3313 7.11154 15.1609 6.45321 14.8884 5.82576C14.6612 5.30288 14.38 4.81881 14.0446 4.37355L13.882 4.16797L13.7537 4.26367C13.4627 4.46759 13.1245 4.65234 12.7393 4.81791C12.5467 4.9007 12.3462 4.9771 12.1376 5.04711L12.0498 5.07451L12.0628 5.11995L12.155 5.50811C12.3007 6.16731 12.3943 6.86719 12.4359 7.60775L12.4514 7.98287ZM7.98992 7.98309H5.60059L5.61644 7.64253C5.6513 7.07027 5.72101 6.51835 5.82559 5.98676L5.90881 5.5958L5.97103 5.34277L6.2099 5.39068C6.64284 5.47068 7.09084 5.52668 7.5539 5.55868L7.98992 5.5807V7.98309ZM9.0166 7.98309H11.3989L11.3834 7.64253C11.3486 7.07027 11.2789 6.51835 11.1743 5.98676C11.1481 5.85386 11.1204 5.72354 11.0911 5.5958L11.0275 5.34277L10.79 5.39068C10.357 5.47068 9.90903 5.52668 9.44597 5.55868L9.0166 5.5807V7.98309ZM3.13599 12.8588L2.95412 12.6268C2.61976 12.1816 2.33902 11.6975 2.1119 11.1746C1.83935 10.5472 1.66901 9.88885 1.60087 9.19963L1.58594 9.01074H4.5465L4.56464 9.42337C4.60679 10.1629 4.70163 10.8603 4.84915 11.5158L4.94247 11.9018L4.95911 11.9633L4.86266 11.9925C4.65409 12.0625 4.45351 12.1389 4.26092 12.2217C3.87573 12.3873 3.53761 12.572 3.24654 12.7759L3.13599 12.8588ZM5.90884 11.4052L5.9811 11.6962L6.20993 11.6491C6.64287 11.5691 7.09087 11.5131 7.55393 11.4811L7.98995 11.4593V9.01074H5.59961L5.61647 9.37943C5.65133 9.94529 5.72104 10.4914 5.82562 11.0178C5.85176 11.1494 5.8795 11.2785 5.90884 11.4052ZM11.0187 11.6961L10.7902 11.649C10.3573 11.569 9.90926 11.513 9.4462 11.481L9.01683 11.4592V9.01062H11.4001L11.3837 9.3793C11.3488 9.94517 11.2791 10.4913 11.1745 11.0176L11.0913 11.4051L11.0187 11.6961ZM13.754 12.7759L13.8632 12.8588L14.0464 12.6268C14.3808 12.1816 14.6615 11.6975 14.8886 11.1746C15.1612 10.5472 15.3315 9.88885 15.3997 9.19963L15.4132 9.01074H12.4537L12.4359 9.42337C12.3937 10.1629 12.2989 10.8603 12.1514 11.5158C12.1219 11.6469 12.0908 11.7756 12.0581 11.9018L12.04 11.9633L12.1379 11.9925C12.3464 12.0625 12.547 12.1389 12.7396 12.2217C13.1248 12.3873 13.4629 12.572 13.754 12.7759ZM7.98982 14.993L7.93922 14.9716C7.75621 14.8833 7.57712 14.751 7.40196 14.5745C7.05163 14.2216 6.74052 13.7379 6.46863 13.1235L6.33747 12.809L6.28416 12.6639L6.51961 12.6216C6.8851 12.5635 7.26894 12.5229 7.67114 12.4997L7.98982 12.4872V14.993ZM9.01683 12.4872V14.99L9.06078 14.9716C9.24379 14.8833 9.42288 14.751 9.59804 14.5745C9.94837 14.2216 10.2595 13.7379 10.5314 13.1235C10.5767 13.0211 10.6204 12.9163 10.6625 12.809L10.7155 12.6639L10.4804 12.6216C10.1149 12.5635 9.73106 12.5229 9.32886 12.4997L9.01683 12.4872ZM6.60071 15.1667L6.46355 15.1268C6.24754 15.0586 6.03496 14.9791 5.82581 14.8883C5.09378 14.5703 4.43782 14.1473 3.85792 13.6191L3.83691 13.6006L3.85295 13.5888C4.15119 13.3843 4.49378 13.2057 4.88071 13.053L5.17844 12.9441L5.26047 12.9189L5.28023 12.9723C5.40716 13.3073 5.5485 13.6205 5.70424 13.9118C5.93136 14.3367 6.18096 14.7023 6.45301 15.0086L6.60071 15.1667ZM10.5473 15.0086L10.3992 15.1667L10.5368 15.1267C10.7528 15.0586 10.9654 14.9791 11.1745 14.8882C11.9065 14.5703 12.5625 14.1472 13.1424 13.6191L13.162 13.6005L13.1474 13.5888C12.8491 13.3842 12.5065 13.2056 12.1196 13.0529C12.0229 13.0148 11.9236 12.9785 11.8219 12.9441L11.7385 12.9189L11.7201 12.9723C11.5932 13.3073 11.4518 13.6204 11.2961 13.9118C11.069 14.3366 10.8194 14.7022 10.5473 15.0086Z" />
</svg>