<svg width="27" height="26" viewBox="0 0 27 26" fill="none" xmlns="http://www.w3.org/2000/svg">
  <path
    d="M13.5 25.6875C11.75 25.6875 10.1033 25.3533 8.5599 24.6849C7.01649 24.0165 5.67361 23.1111 4.53125 21.9688C3.38889 20.8264 2.48351 19.4835 1.8151 17.9401C1.1467 16.3967 0.8125 14.75 0.8125 13C0.8125 11.25 1.1467 9.6033 1.8151 8.0599C2.48351 6.51649 3.38889 5.17361 4.53125 4.03125C5.67361 2.88889 7.01649 1.98351 8.5599 1.3151C10.1033 0.646701 11.75 0.3125 13.5 0.3125C15.25 0.3125 16.8967 0.646701 18.4401 1.3151C19.9835 1.98351 21.3264 2.88889 22.4688 4.03125C23.6111 5.17361 24.5165 6.51649 25.1849 8.0599C25.8533 9.6033 26.1875 11.25 26.1875 13C26.1875 14.75 25.8533 16.3967 25.1849 17.9401C24.5165 19.4835 23.6111 20.8264 22.4688 21.9688C21.3264 23.1111 19.9835 24.0165 18.4401 24.6849C16.8967 25.3533 15.25 25.6875 13.5 25.6875ZM13.5 24.7031C14.4236 23.5365 15.1771 22.4063 15.7604 21.3125C16.3438 20.2188 16.8177 18.9792 17.1823 17.5938H9.81771C10.2309 19.0764 10.717 20.3646 11.276 21.4583C11.8351 22.5521 12.5764 23.6337 13.5 24.7031ZM12.224 24.5938C11.4705 23.7917 10.7778 22.7526 10.1458 21.4766C9.51389 20.2005 9.05208 18.9063 8.76042 17.5938H2.78125C3.65625 19.5868 4.93229 21.2031 6.60938 22.4427C8.28646 23.6823 10.158 24.3993 12.224 24.5938ZM14.776 24.5938C16.842 24.3993 18.7135 23.6823 20.3906 22.4427C22.0677 21.2031 23.3438 19.5868 24.2188 17.5938H18.2396C17.8264 18.9306 17.3038 20.237 16.6719 21.513C16.0399 22.7891 15.408 23.816 14.776 24.5938ZM2.38021 16.5729H8.54167C8.42014 15.941 8.33507 15.3273 8.28646 14.7318C8.23785 14.1363 8.21354 13.559 8.21354 13C8.21354 12.441 8.23785 11.8637 8.28646 11.2682C8.33507 10.6727 8.42014 10.059 8.54167 9.42708H2.38021C2.21007 9.9375 2.07639 10.5087 1.97917 11.1406C1.88194 11.7726 1.83333 12.3924 1.83333 13C1.83333 13.6076 1.88194 14.2274 1.97917 14.8594C2.07639 15.4913 2.21007 16.0625 2.38021 16.5729ZM9.5625 16.5729H17.4375C17.559 15.941 17.6441 15.3394 17.6927 14.7682C17.7413 14.197 17.7656 13.6076 17.7656 13C17.7656 12.3924 17.7413 11.803 17.6927 11.2318C17.6441 10.6606 17.559 10.059 17.4375 9.42708H9.5625C9.44097 10.059 9.3559 10.6606 9.30729 11.2318C9.25868 11.803 9.23438 12.3924 9.23438 13C9.23438 13.6076 9.25868 14.197 9.30729 14.7682C9.3559 15.3394 9.44097 15.941 9.5625 16.5729ZM18.4583 16.5729H24.6198C24.7899 16.0625 24.9236 15.4913 25.0208 14.8594C25.1181 14.2274 25.1667 13.6076 25.1667 13C25.1667 12.3924 25.1181 11.7726 25.0208 11.1406C24.9236 10.5087 24.7899 9.9375 24.6198 9.42708H18.4583C18.5799 10.059 18.6649 10.6727 18.7135 11.2682C18.7622 11.8637 18.7865 12.441 18.7865 13C18.7865 13.559 18.7622 14.1363 18.7135 14.7318C18.6649 15.3273 18.5799 15.941 18.4583 16.5729ZM18.2396 8.40625H24.2188C23.3194 6.36458 22.0616 4.74826 20.4453 3.55729C18.829 2.36632 16.9392 1.63715 14.776 1.36979C15.5295 2.2934 16.2101 3.375 16.8177 4.61458C17.4253 5.85417 17.8993 7.11806 18.2396 8.40625ZM9.81771 8.40625H17.1823C16.7691 6.94792 16.2648 5.64149 15.6693 4.48698C15.0738 3.33247 14.3507 2.2691 13.5 1.29688C12.6493 2.2691 11.9262 3.33247 11.3307 4.48698C10.7352 5.64149 10.2309 6.94792 9.81771 8.40625ZM2.78125 8.40625H8.76042C9.10069 7.11806 9.57465 5.85417 10.1823 4.61458C10.7899 3.375 11.4705 2.2934 12.224 1.36979C10.0365 1.63715 8.14062 2.3724 6.53646 3.57552C4.93229 4.77865 3.68056 6.38889 2.78125 8.40625Z"
    fill="currentColor" />
</svg>