<svg xmlns="http://www.w3.org/2000/svg" width="17" height="17" viewBox="0 0 17 17" fill="currentColor">
    <path fill-rule="evenodd" clip-rule="evenodd"
        d="M8.6665 16.5C4.2465 16.5 0.666504 12.92 0.666504 8.5C0.666504 4.08 4.2465 0.5 8.6665 0.5C13.0865 0.5 16.6665 4.08 16.6665 8.5C16.6665 12.92 13.0865 16.5 8.6665 16.5Z" />
    <path
        d="M11.8015 7.20685L9.94117 5.36575L10.554 4.75205C10.7218 4.58402 10.9279 4.5 11.1723 4.5C11.4167 4.5 11.6228 4.58402 11.7906 4.75205L12.4034 5.36575C12.5712 5.53379 12.6588 5.73653 12.666 5.97397C12.6733 6.21142 12.5931 6.41416 12.4253 6.58219L11.8015 7.20685ZM5.10424 12.5C4.98021 12.5 4.87625 12.458 4.79235 12.374C4.70845 12.29 4.6665 12.1858 4.6665 12.0616V10.8233C4.6665 10.7648 4.67745 10.7082 4.69933 10.6534C4.72122 10.5986 4.75405 10.5493 4.79782 10.5055L9.30646 5.99041L11.1668 7.85342L6.65818 12.3685C6.61441 12.4123 6.56516 12.4452 6.51045 12.4671C6.45573 12.489 6.39919 12.5 6.34083 12.5H5.10424Z"
        fill="white" />
</svg>