<svg width="24" height="24" viewBox="0 0 24 24" fill="none" xmlns="http://www.w3.org/2000/svg">
<g id="u:edit-alt">
<path id="Vector" d="M6.3993 16.8009H9.79032C9.89558 16.8015 9.99992 16.7814 10.0974 16.7416C10.1948 16.7018 10.2834 16.6431 10.3582 16.569L15.8926 11.0266L18.1639 8.80325C18.2389 8.7289 18.2984 8.64044 18.339 8.54298C18.3796 8.44552 18.4005 8.34099 18.4005 8.23541C18.4005 8.12983 18.3796 8.0253 18.339 7.92784C18.2984 7.83038 18.2389 7.74192 18.1639 7.66758L14.7729 4.23657C14.6985 4.16161 14.6101 4.10211 14.5126 4.06151C14.4152 4.0209 14.3106 4 14.205 4C14.0995 4 13.9949 4.0209 13.8975 4.06151C13.8 4.10211 13.7116 4.16161 13.6372 4.23657L11.3819 6.49991L5.83147 12.0423C5.75735 12.117 5.6987 12.2057 5.6589 12.3031C5.6191 12.4005 5.59893 12.5049 5.59954 12.6101V16.0012C5.59954 16.2133 5.6838 16.4167 5.83378 16.5667C5.98377 16.7167 6.18719 16.8009 6.3993 16.8009ZM14.205 5.93208L16.4684 8.19542L15.3327 9.33109L13.0694 7.06775L14.205 5.93208ZM7.19907 12.938L11.9417 8.19542L14.205 10.4588L9.46242 15.2014H7.19907V12.938ZM19.1956 18.4005H4.79977C4.58766 18.4005 4.38423 18.4847 4.23425 18.6347C4.08426 18.7847 4 18.9881 4 19.2002C4 19.4123 4.08426 19.6158 4.23425 19.7658C4.38423 19.9157 4.58766 20 4.79977 20H19.1956C19.4077 20 19.6111 19.9157 19.7611 19.7658C19.9111 19.6158 19.9954 19.4123 19.9954 19.2002C19.9954 18.9881 19.9111 18.7847 19.7611 18.6347C19.6111 18.4847 19.4077 18.4005 19.1956 18.4005Z" fill="#002633"/>
</g>
</svg>
