<svg width="24" height="25" viewBox="0 0 24 25" fill="none" xmlns="http://www.w3.org/2000/svg">
<mask id="mask0_5142_8206" style="mask-type:alpha" maskUnits="userSpaceOnUse" x="0" y="0" width="25" height="25">
<rect x="0.242188" y="0.722656" width="24" height="24" fill="#D9D9D9"/>
</mask>
<g mask="url(#mask0_5142_8206)">
<path d="M5.24219 19.7227H6.66719L16.4422 9.94766L15.0172 8.52266L5.24219 18.2977V19.7227ZM3.24219 21.7227V17.4727L16.4422 4.29766C16.6422 4.11432 16.863 3.97266 17.1047 3.87266C17.3464 3.77266 17.6005 3.72266 17.8672 3.72266C18.1339 3.72266 18.3922 3.77266 18.6422 3.87266C18.8922 3.97266 19.1089 4.12266 19.2922 4.32266L20.6672 5.72266C20.8672 5.90599 21.013 6.12266 21.1047 6.37266C21.1964 6.62266 21.2422 6.87266 21.2422 7.12266C21.2422 7.38932 21.1964 7.64349 21.1047 7.88516C21.013 8.12682 20.8672 8.34766 20.6672 8.54766L7.49219 21.7227H3.24219ZM15.7172 9.24766L15.0172 8.52266L16.4422 9.94766L15.7172 9.24766Z" fill="currentColor"/>
</g>
</svg>
