<svg width="16" height="16" viewBox="0 0 16 16" fill="none" xmlns="http://www.w3.org/2000/svg">
<path d="M2.3993 12.8009H5.79032C5.89558 12.8015 5.99992 12.7814 6.0974 12.7416C6.1948 12.7018 6.2834 12.6431 6.3582 12.569L11.8926 7.0266L14.1639 4.80325C14.2389 4.7289 14.2984 4.64044 14.339 4.54298C14.3796 4.44552 14.4005 4.34099 14.4005 4.23541C14.4005 4.12983 14.3796 4.0253 14.339 3.92784C14.2984 3.83038 14.2389 3.74192 14.1639 3.66758L10.7729 0.23657C10.6985 0.16161 10.6101 0.10211 10.5126 0.0615101C10.4152 0.0209001 10.3106 0 10.205 0C10.0995 0 9.9949 0.0209001 9.8975 0.0615101C9.8 0.10211 9.7116 0.16161 9.6372 0.23657L7.3819 2.49991L1.83147 8.0423C1.75735 8.117 1.6987 8.2057 1.6589 8.3031C1.6191 8.4005 1.59893 8.5049 1.59954 8.6101V12.0012C1.59954 12.2133 1.6838 12.4167 1.83378 12.5667C1.98377 12.7167 2.18719 12.8009 2.3993 12.8009ZM10.205 1.93208L12.4684 4.19542L11.3327 5.33109L9.0694 3.06775L10.205 1.93208ZM3.19907 8.938L7.9417 4.19542L10.205 6.4588L5.46242 11.2014H3.19907V8.938ZM15.1956 14.4005H0.79977C0.58766 14.4005 0.38423 14.4847 0.23425 14.6347C0.0842601 14.7847 0 14.9881 0 15.2002C0 15.4123 0.0842601 15.6158 0.23425 15.7658C0.38423 15.9157 0.58766 16 0.79977 16H15.1956C15.4077 16 15.6111 15.9157 15.7611 15.7658C15.9111 15.6158 15.9954 15.4123 15.9954 15.2002C15.9954 14.9881 15.9111 14.7847 15.7611 14.6347C15.6111 14.4847 15.4077 14.4005 15.1956 14.4005Z" fill="currentColor"/>
</svg>
