<svg width="20" height="20" viewBox="0 0 20 20" fill="currentColor" xmlns="http://www.w3.org/2000/svg">
    <path fill-rule="evenodd" clip-rule="evenodd"
        d="M10 20C15.5228 20 20 15.5228 20 10C20 4.47715 15.5228 0 10 0C4.47715 0 0 4.47715 0 10C0 15.5228 4.47715 20 10 20ZM9.91488 17.8403C14.1853 17.8403 17.6471 14.37 17.6471 10.0891C17.6471 5.80822 14.1853 2.33789 9.91488 2.33789C5.64447 2.33789 2.18262 5.80822 2.18262 10.0891C2.18262 14.37 5.64447 17.8403 9.91488 17.8403ZM11.0744 13.5889V10.7263V10.3199C11.0744 9.99938 10.9348 9.66383 10.7088 9.43736C10.4928 9.22088 10.1372 9.05852 9.8282 9.07098C9.50586 9.08597 9.17189 9.19172 8.94758 9.43736C8.72327 9.68048 8.58203 9.98273 8.58203 10.3199V13.1826V13.5889C8.58203 13.9095 8.7216 14.245 8.94758 14.4715C9.16358 14.688 9.51916 14.8504 9.8282 14.8379C10.1505 14.8229 10.4845 14.7172 10.7088 14.4715C10.9331 14.2284 11.0744 13.9286 11.0744 13.5889ZM11.0719 6.51047V6.5521C11.0719 6.77691 11.0137 6.98673 10.9016 7.18323C10.8525 7.24705 10.802 7.31185 10.7519 7.37612C10.7367 7.39571 10.7215 7.41524 10.7063 7.43469C10.551 7.58872 10.3682 7.6953 10.1564 7.75525C10.0442 7.7694 9.93373 7.78356 9.82406 7.79855C9.65292 7.80521 9.49342 7.7694 9.34388 7.6903C9.19103 7.64035 9.05561 7.55542 8.94346 7.4322C8.823 7.32063 8.73578 7.18491 8.68593 7.03087C8.60701 6.88266 8.57128 6.72279 8.57793 6.54961V6.50797C8.57793 6.28316 8.63608 6.07251 8.74824 5.87684C8.79735 5.81291 8.84793 5.748 8.8981 5.68362C8.91328 5.66415 8.92842 5.64472 8.94347 5.62539C9.09881 5.47135 9.28158 5.36477 9.49343 5.30482C9.60557 5.29067 9.71607 5.27651 9.82573 5.26153C9.99687 5.25486 10.1564 5.29067 10.3059 5.36977C10.4588 5.41972 10.5942 5.50465 10.7063 5.62788C10.8268 5.73944 10.914 5.87517 10.9639 6.02921C11.0428 6.17741 11.0785 6.33728 11.0719 6.51047Z" />
</svg>