<svg xmlns="http://www.w3.org/2000/svg" width="20" height="20" viewBox="0 0 20 20" fill="currentColor">
    <path fill-rule="evenodd" clip-rule="evenodd"
        d="M10.0002 20C15.5231 20 20.0002 15.5228 20.0002 10C20.0002 4.47715 15.5231 0 10.0002 0C4.4774 0 0.000244141 4.47715 0.000244141 10C0.000244141 15.5228 4.4774 20 10.0002 20ZM9.91512 17.8403C14.1855 17.8403 17.6474 14.37 17.6474 10.0891C17.6474 5.80822 14.1855 2.33789 9.91512 2.33789C5.64471 2.33789 2.18286 5.80822 2.18286 10.0891C2.18286 14.37 5.64471 17.8403 9.91512 17.8403ZM11.0746 13.5889V10.7263V10.3199C11.0746 9.99938 10.935 9.66383 10.7091 9.43736C10.4931 9.22088 10.1375 9.05852 9.82844 9.07098C9.50611 9.08597 9.17214 9.19172 8.94783 9.43736C8.72352 9.68048 8.58228 9.98273 8.58228 10.3199V13.1826V13.5889C8.58228 13.9095 8.72185 14.245 8.94783 14.4715C9.16382 14.688 9.5194 14.8504 9.82844 14.8379C10.1508 14.8229 10.4847 14.7172 10.7091 14.4715C10.9334 14.2284 11.0746 13.9286 11.0746 13.5889ZM11.0721 6.51047V6.5521C11.0721 6.77691 11.014 6.98673 10.9018 7.18323C10.8528 7.247 10.8024 7.31175 10.7523 7.37598C10.737 7.39561 10.7217 7.4152 10.7066 7.43469C10.5512 7.58872 10.3685 7.6953 10.1566 7.75525C10.0445 7.7694 9.93397 7.78356 9.82431 7.79855C9.65317 7.80521 9.49367 7.7694 9.34413 7.6903C9.19128 7.64035 9.05585 7.55542 8.9437 7.4322C8.82325 7.32063 8.73602 7.18491 8.68617 7.03087C8.60725 6.88266 8.57153 6.72279 8.57817 6.54961V6.50797C8.57817 6.28316 8.63633 6.07251 8.74848 5.87684C8.79759 5.81291 8.84818 5.748 8.89835 5.68362C8.91352 5.66415 8.92866 5.64472 8.94371 5.62539C9.09905 5.47135 9.28183 5.36477 9.49367 5.30482C9.60581 5.29067 9.71632 5.27651 9.82598 5.26153C9.99712 5.25486 10.1566 5.29067 10.3062 5.36977C10.459 5.41972 10.5944 5.50465 10.7066 5.62788C10.827 5.73944 10.9143 5.87517 10.9641 6.02921C11.043 6.17741 11.0788 6.33728 11.0721 6.51047Z" />
</svg>