<svg width="17" height="16" viewBox="0 0 17 16" fill="currentColor" xmlns="http://www.w3.org/2000/svg">
  <path
    d="M8.5 0C6.37825 0 4.3435 0.84285 2.84316 2.34316C1.34282 3.84347 0.5 5.87825 0.5 8C0.5 10.1218 1.34285 12.1565 2.84316 13.6568C4.34347 15.1572 6.37825 16 8.5 16C10.6218 16 12.6565 15.1572 14.1568 13.6568C15.6572 12.1565 16.5 10.1218 16.5 8C16.5 5.87825 15.6572 3.8435 14.1568 2.34316C12.6565 0.842819 10.6218 0 8.5 0ZM8.5 11.819C8.29791 11.819 8.10411 11.7387 7.96126 11.5958C7.8184 11.4529 7.7381 11.2591 7.7381 11.0571C7.7381 10.855 7.81839 10.6612 7.96126 10.5183C8.10412 10.3755 8.29793 10.2952 8.5 10.2952C8.70207 10.2952 8.89589 10.3755 9.03874 10.5183C9.1816 10.6612 9.2619 10.855 9.2619 11.0571C9.2619 11.2591 9.18161 11.453 9.03874 11.5958C8.89588 11.7387 8.70207 11.819 8.5 11.819ZM9.2619 8.77135C9.2619 9.04355 9.11667 9.2951 8.88095 9.43118C8.64523 9.56731 8.35477 9.56731 8.11905 9.43118C7.88333 9.29511 7.7381 9.04355 7.7381 8.77135V4.19992C7.7381 3.92773 7.88333 3.67618 8.11905 3.5401C8.35477 3.40397 8.64523 3.40397 8.88095 3.5401C9.11667 3.67617 9.2619 3.92773 9.2619 4.19992V8.77135Z"
  />
</svg>
