<svg width="15" height="20" viewBox="0 0 15 20" fill="none" xmlns="http://www.w3.org/2000/svg">
<path fill-rule="evenodd" clip-rule="evenodd" d="M12.7879 0H4.79756V1.94191C4.79756 3.51399 3.51475 4.79741 1.94267 4.79741H0.000765926V17.2581C0.000765926 18.3261 0.874685 19.2 1.94267 19.2H12.7886C13.8565 19.2 14.7305 18.3261 14.7305 17.2581V1.94252C14.7305 0.87453 13.8565 0.000610293 12.7886 0.000610293L12.7879 0ZM0.000155051 3.88382H1.94206C3.01005 3.88382 3.88397 3.0099 3.88397 1.94191V0L0.000155051 3.88382ZM11.7029 15.3327C11.9549 15.3327 12.1594 15.1282 12.1594 14.8762C12.1594 14.6241 11.9549 14.4197 11.7029 14.4197H3.02653C2.77449 14.4197 2.57004 14.6241 2.57004 14.8762C2.57004 15.1282 2.77449 15.3327 3.02653 15.3327H11.7029ZM11.7029 8.82525C11.9549 8.82525 12.1594 8.62081 12.1594 8.36876C12.1594 8.11672 11.9549 7.91227 11.7029 7.91227H3.02653C2.77449 7.91227 2.57004 8.11672 2.57004 8.36876C2.57004 8.62081 2.77449 8.82525 3.02653 8.82525H11.7029ZM11.7029 12.0786C11.9549 12.0786 12.1594 11.8742 12.1594 11.6222C12.1594 11.3701 11.9549 11.1657 11.7029 11.1657H3.02653C2.77449 11.1657 2.57004 11.3701 2.57004 11.6222C2.57004 11.8742 2.77449 12.0786 3.02653 12.0786H11.7029Z" fill="currentColor"/>
</svg>
