<svg width="23" height="17" viewBox="0 0 23 17" fill="none" xmlns="http://www.w3.org/2000/svg">
<path fill-rule="evenodd" clip-rule="evenodd" d="M4.1683 1.76756H18.4322C18.4322 3.16533 19.5763 4.30853 20.9732 4.30853V8.52968C19.5754 8.52968 18.4322 9.67373 18.4322 11.0706H4.1683C4.1683 9.67288 3.02517 8.52968 1.62733 8.52968V4.30853C3.0251 4.30853 4.1683 3.1654 4.1683 1.76756ZM20.1041 15.6301C19.9293 15.6664 19.7481 15.6849 19.5623 15.6849H3.03811C2.85317 15.6849 2.67193 15.6664 2.49723 15.6301C2.55206 15.9758 2.71749 16.2862 2.95448 16.5232C3.2491 16.8178 3.65615 17 4.1041 17H18.4972C18.9452 17 19.3522 16.8169 19.6468 16.5223C19.8848 16.2862 20.0493 15.9758 20.105 15.6301H20.1041ZM21.4386 13.4275C21.1255 13.5428 20.7872 13.606 20.434 13.606H2.16638C1.81414 13.606 1.47494 13.5428 1.16172 13.4275C1.24443 13.7853 1.42567 14.105 1.6766 14.355C1.83738 14.5158 2.02605 14.6478 2.26768 14.7593C2.50374 14.8634 2.76396 14.9201 3.03721 14.9201H19.5614C19.8346 14.9201 20.0948 14.8634 20.3318 14.7593L20.368 14.7426C20.5753 14.6468 20.7621 14.5149 20.921 14.3559C21.1729 14.1041 21.355 13.7844 21.4368 13.4266L21.4386 13.4275ZM0.929369 12.4507C0.94238 12.4582 0.954462 12.4665 0.965613 12.4758C1.30948 12.7054 1.72305 12.8401 2.16729 12.8401H20.4349C20.8801 12.8401 21.2936 12.7054 21.6384 12.474L21.67 12.4526C21.7778 12.3773 21.8764 12.2946 21.9674 12.2044C22.3596 11.8122 22.6031 11.2695 22.6031 10.6719V2.16822C22.6031 1.57064 22.3596 1.02788 21.9674 0.635694C21.5753 0.243509 21.0325 0 20.4349 0H2.16729C1.56971 0 1.02695 0.243485 0.635694 0.635694C0.243509 1.02788 0 1.57064 0 2.16822V10.6719C0 11.2695 0.243486 11.8113 0.635694 12.2044C0.725844 12.2946 0.824356 12.3773 0.930309 12.4507L0.929369 12.4507ZM11.3012 8.96381C9.89599 8.96381 8.7576 7.82439 8.7576 6.42022C8.7576 5.01503 9.89608 3.87664 11.3012 3.87664C12.7063 3.87664 13.8448 5.01512 13.8448 6.42022C13.8448 7.82532 12.7054 8.96381 11.3012 8.96381ZM5.27328 5.44047C5.81417 5.44047 6.25191 5.87915 6.25191 6.42003C6.25191 6.96091 5.81324 7.39866 5.27328 7.39866C4.7324 7.39866 4.29373 6.95999 4.29373 6.42003C4.29373 5.87915 4.7324 5.44047 5.27328 5.44047ZM17.33 5.44047C17.8709 5.44047 18.3087 5.87915 18.3087 6.42003C18.3087 6.96091 17.87 7.39866 17.33 7.39866C16.7892 7.39866 16.3505 6.95999 16.3505 6.42003C16.3505 5.87915 16.7892 5.44047 17.33 5.44047Z" fill="currentColor"/>
</svg>
