<svg width="32" height="32" viewBox="0 0 32 32" fill="none" xmlns="http://www.w3.org/2000/svg">
<path d="M25.0536 19.409L24.9389 19.3516L24.3243 13.1996C24.1183 11.1347 23.1522 9.22002 21.6137 7.82739C20.0752 6.43477 18.0741 5.66357 15.9989 5.66357C13.9238 5.66357 11.9227 6.43477 10.3842 7.82739C8.84568 9.22002 7.87963 11.1347 7.67362 13.1996L7.06562 19.3516L6.95095 19.409C6.2148 19.7767 5.62431 20.3822 5.27509 21.1274C4.92587 21.8725 4.83836 22.7137 5.02671 23.5148C5.21506 24.3159 5.66826 25.0299 6.31293 25.5414C6.95761 26.0528 7.75603 26.3317 8.57895 26.333H23.4189C24.2424 26.3332 25.0419 26.0554 25.6877 25.5445C26.3335 25.0335 26.7879 24.3195 26.9771 23.518C27.1663 22.7166 27.0793 21.8747 26.7302 21.1289C26.3811 20.3831 25.7903 19.777 25.0536 19.409Z" fill="white"/>
<path d="M16.0026 30.3332C15.0304 30.3325 14.0981 29.9459 13.4107 29.2585C12.7232 28.571 12.3366 27.6387 12.3359 26.6665V25.3332C12.3359 25.068 12.4413 24.8136 12.6288 24.6261C12.8164 24.4385 13.0707 24.3332 13.3359 24.3332H18.6693C18.9345 24.3332 19.1888 24.4385 19.3764 24.6261C19.5639 24.8136 19.6693 25.068 19.6693 25.3332V26.6665C19.6686 27.6387 19.282 28.571 18.5945 29.2585C17.9071 29.9459 16.9748 30.3325 16.0026 30.3332ZM14.3359 26.3332V26.6665C14.3359 27.1085 14.5115 27.5325 14.8241 27.845C15.1367 28.1576 15.5606 28.3332 16.0026 28.3332C16.4446 28.3332 16.8686 28.1576 17.1811 27.845C17.4937 27.5325 17.6693 27.1085 17.6693 26.6665V26.3332H14.3359ZM16.0026 2.6665C16.7098 2.6665 17.3881 2.94746 17.8882 3.44755C18.3883 3.94765 18.6693 4.62593 18.6693 5.33317V7.99984H13.3359V5.33317C13.3359 4.62593 13.6169 3.94765 14.117 3.44755C14.6171 2.94746 15.2954 2.6665 16.0026 2.6665Z" fill="white"/>
</svg>
