<svg width="32" height="32" viewBox="0 0 32 32" xmlns="http://www.w3.org/2000/svg">
<g id="users">
<g id="Group 5332522">
<path id="Vector" fill-rule="evenodd" clip-rule="evenodd" d="M23.3333 15.3333C24.8061 15.3333 26 14.1394 26 12.6667V8.66667C26 7.19391 24.8061 6 23.3333 6H8.66667C7.19391 6 6 7.19391 6 8.66667V12.6667C6 14.1394 7.19391 15.3333 8.66667 15.3333H23.3333ZM22.3333 11.3333C22.7015 11.3333 23 11.0349 23 10.6667C23 10.2985 22.7015 10 22.3333 10H15C14.6318 10 14.3333 10.2985 14.3333 10.6667C14.3333 11.0349 14.6318 11.3333 15 11.3333H22.3333ZM12.8371 10.1033C13.0783 9.82503 13.0482 9.404 12.77 9.16287C12.4917 8.92173 12.0707 8.9518 11.8295 9.23003L10.6111 10.6359L10.1797 10.116C9.94467 9.83263 9.52437 9.7935 9.241 10.0286C8.95763 10.2637 8.9185 10.684 9.1536 10.9673L10.0869 12.0923C10.212 12.2431 10.397 12.3312 10.5928 12.3333C10.7887 12.3354 10.9755 12.2513 11.1038 12.1033L12.8371 10.1033Z" fill="currentColor"/>
<path id="Vector_2" fill-rule="evenodd" clip-rule="evenodd" d="M23.3333 25.9993C24.8061 25.9993 26 24.8054 26 23.3327V19.3327C26 17.8599 24.8061 16.666 23.3333 16.666H8.66667C7.19391 16.666 6 17.8599 6 19.3327V23.3327C6 24.8054 7.19391 25.9993 8.66667 25.9993H23.3333ZM9 21.3327C9 20.044 10.0447 18.9993 11.3333 18.9993C12.622 18.9993 13.6667 20.044 13.6667 21.3327C13.6667 22.6213 12.622 23.666 11.3333 23.666C10.0447 23.666 9 22.6213 9 21.3327ZM23 21.3327C23 21.7009 22.7015 21.9993 22.3333 21.9993H15C14.6318 21.9993 14.3333 21.7009 14.3333 21.3327C14.3333 20.9645 14.6318 20.666 15 20.666H22.3333C22.7015 20.666 23 20.9645 23 21.3327Z" fill="currentColor"/>
</g>
</g>
</svg>
