<svg width="16" height="10" viewBox="0 0 16 10" fill="none" xmlns="http://www.w3.org/2000/svg">
<path d="M12.1338 7.46853V6.47558C12.699 6.39003 13.1326 5.90359 13.1326 5.31448C13.1326 4.66511 12.6062 4.13865 11.9568 4.13865C11.3074 4.13865 10.7809 4.66511 10.7809 5.31448C10.7809 5.90359 11.2146 6.39003 11.7798 6.47558V7.45355C11.2104 7.41837 10.6391 7.33039 10.0666 7.21648V4.47063C10.9671 4.29852 11.648 3.5079 11.648 2.5573C11.648 1.48084 10.7753 0.608202 9.69888 0.608202C8.62242 0.608202 7.74978 1.48084 7.74978 2.5573C7.74978 2.66613 7.76094 2.77215 7.77809 2.87611C7.64703 2.8257 7.50523 2.7969 7.3564 2.7969C6.707 2.7969 6.18057 3.32334 6.18057 3.97275C6.18057 4.56182 6.61422 5.04828 7.17941 5.13382V6.55263C6.65924 6.43974 6.1393 6.34286 5.6202 6.28216C5.3981 6.25619 5.17622 6.2392 4.95483 6.23002V3.86242C5.85528 3.69032 6.53619 2.89972 6.53619 1.94912C6.53619 0.872656 5.66354 0 4.58708 0C3.51062 0 2.63798 0.872656 2.63798 1.94912C2.63798 2.88678 3.30032 3.66927 4.18255 3.85558V6.23102C2.71388 6.29623 1.28614 6.71708 0 7.41729C0 7.41729 10.6099 11.8532 15.4765 6.64423C14.375 7.28752 13.2586 7.49248 12.1338 7.46853ZM7.5334 6.63172V5.13382C8.0541 5.05501 8.46252 4.63591 8.52363 4.10958C8.74794 4.27971 9.00906 4.40355 9.29436 4.46378V7.04979C8.70786 6.91509 8.12057 6.76617 7.5334 6.63172Z" fill="white"/>
</svg>
