<svg width="32" height="32" viewBox="0 0 32 32" xmlns="http://www.w3.org/2000/svg">
<g id="users">
<g id="Group">
<path id="Vector" d="M16 6C10.5 6 6 10.5 6 16C6 21.5 10.5 26 16 26C21.5 26 26 21.5 26 16C26 10.5 21.5 6 16 6ZM16 15C17.9 15 19.5 16.6 19.5 18.5C19.5 20.1 18.4 21.4 17 21.8V23H15V21.8C13.6 21.4 12.5 20 12.5 18.5H14.5C14.5 20.5 17.5 20.5 17.5 18.5C17.5 17.7 16.8 17 16 17C14.1 17 12.5 15.4 12.5 13.5C12.5 11.9 13.6 10.6 15 10.2V9H17V10.2C18.4 10.6 19.5 12 19.5 13.5H17.5C17.5 11.5 14.5 11.5 14.5 13.5C14.5 14.3 15.2 15 16 15Z" fill="currentColor"/>
</g>
</g>
</svg>
