<svg width="229" height="133" viewBox="0 0 229 133" fill="none" xmlns="http://www.w3.org/2000/svg">
<g clip-path="url(#clip0_4231_148301)">
<rect x="25.5" y="5" width="209" height="1" fill="black" fill-opacity="0.1"/>
<rect x="25.5" y="33" width="209" height="1" fill="black" fill-opacity="0.1"/>
<rect x="25.5" y="61" width="209" height="1" fill="black" fill-opacity="0.1"/>
<rect x="25.5" y="89" width="209" height="1" fill="black" fill-opacity="0.1"/>
<rect x="25.5" y="117" width="209" height="1" fill="black" fill-opacity="0.25"/>
<path d="M4.45421 11V10.3608L6.85478 7.73295C7.13651 7.42519 7.36851 7.15767 7.55081 6.9304C7.7331 6.70076 7.86804 6.48532 7.95564 6.28409C8.0456 6.08049 8.09058 5.86742 8.09058 5.64489C8.09058 5.3892 8.02903 5.16785 7.90592 4.98082C7.78518 4.7938 7.61946 4.64938 7.40876 4.54759C7.19806 4.44579 6.96132 4.39489 6.69853 4.39489C6.41918 4.39489 6.17533 4.45289 5.967 4.56889C5.76103 4.68253 5.60123 4.84233 5.4876 5.0483C5.37633 5.25426 5.32069 5.49574 5.32069 5.77273H4.48262C4.48262 5.34659 4.58087 4.97254 4.77737 4.65057C4.97386 4.3286 5.24138 4.07765 5.57993 3.89773C5.92083 3.7178 6.30317 3.62784 6.72694 3.62784C7.15308 3.62784 7.53068 3.7178 7.85975 3.89773C8.18883 4.07765 8.44688 4.32031 8.6339 4.62571C8.82093 4.93111 8.91444 5.27083 8.91444 5.64489C8.91444 5.91241 8.86591 6.17401 8.76885 6.42969C8.67415 6.683 8.50843 6.96591 8.27169 7.27841C8.03731 7.58854 7.71179 7.96733 7.29512 8.41477L5.6616 10.1619V10.2188H9.04228V11H4.45421ZM12.753 11.0994C12.218 11.0994 11.7623 10.9538 11.3858 10.6626C11.0094 10.3691 10.7218 9.94413 10.5229 9.38778C10.3241 8.82907 10.2246 8.15436 10.2246 7.36364C10.2246 6.57765 10.3241 5.90649 10.5229 5.35014C10.7241 4.79143 11.013 4.36529 11.3894 4.07173C11.7682 3.7758 12.2227 3.62784 12.753 3.62784C13.2833 3.62784 13.7367 3.7758 14.1131 4.07173C14.4919 4.36529 14.7807 4.79143 14.9796 5.35014C15.1808 5.90649 15.2814 6.57765 15.2814 7.36364C15.2814 8.15436 15.182 8.82907 14.9831 9.38778C14.7843 9.94413 14.4966 10.3691 14.1202 10.6626C13.7438 10.9538 13.2881 11.0994 12.753 11.0994ZM12.753 10.3182C13.2833 10.3182 13.6953 10.0625 13.9888 9.55114C14.2824 9.03977 14.4292 8.31061 14.4292 7.36364C14.4292 6.7339 14.3617 6.19768 14.2268 5.75497C14.0942 5.31226 13.9024 4.97491 13.6515 4.7429C13.4029 4.51089 13.1034 4.39489 12.753 4.39489C12.2275 4.39489 11.8167 4.65412 11.5208 5.17259C11.2249 5.68868 11.0769 6.41903 11.0769 7.36364C11.0769 7.99337 11.1432 8.52841 11.2758 8.96875C11.4083 9.40909 11.5989 9.74408 11.8475 9.97372C12.0984 10.2034 12.4003 10.3182 12.753 10.3182ZM18.875 11.0994C18.34 11.0994 17.8842 10.9538 17.5078 10.6626C17.1314 10.3691 16.8438 9.94413 16.6449 9.38778C16.446 8.82907 16.3466 8.15436 16.3466 7.36364C16.3466 6.57765 16.446 5.90649 16.6449 5.35014C16.8461 4.79143 17.1349 4.36529 17.5114 4.07173C17.8902 3.7758 18.3447 3.62784 18.875 3.62784C19.4053 3.62784 19.8587 3.7758 20.2351 4.07173C20.6139 4.36529 20.9027 4.79143 21.1016 5.35014C21.3028 5.90649 21.4034 6.57765 21.4034 7.36364C21.4034 8.15436 21.304 8.82907 21.1051 9.38778C20.9062 9.94413 20.6186 10.3691 20.2422 10.6626C19.8658 10.9538 19.41 11.0994 18.875 11.0994ZM18.875 10.3182C19.4053 10.3182 19.8172 10.0625 20.1108 9.55114C20.4044 9.03977 20.5511 8.31061 20.5511 7.36364C20.5511 6.7339 20.4837 6.19768 20.3487 5.75497C20.2161 5.31226 20.0244 4.97491 19.7734 4.7429C19.5249 4.51089 19.2254 4.39489 18.875 4.39489C18.3494 4.39489 17.9387 4.65412 17.6428 5.17259C17.3468 5.68868 17.1989 6.41903 17.1989 7.36364C17.1989 7.99337 17.2652 8.52841 17.3977 8.96875C17.5303 9.40909 17.7209 9.74408 17.9695 9.97372C18.2204 10.2034 18.5223 10.3182 18.875 10.3182Z" fill="#353535"/>
<path d="M8.5833 30.7273V38H7.70262V31.6506H7.66L5.88444 32.8295V31.9347L7.70262 30.7273H8.5833ZM12.8196 38.0994C12.4029 38.0994 12.0277 38.0166 11.6939 37.8509C11.3601 37.6851 11.0926 37.4579 10.8913 37.169C10.6901 36.8802 10.58 36.5511 10.5611 36.1818H11.4134C11.4465 36.5109 11.5957 36.7831 11.8608 36.9986C12.1283 37.2116 12.4479 37.3182 12.8196 37.3182C13.1179 37.3182 13.3831 37.2483 13.6151 37.1087C13.8494 36.969 14.0329 36.7772 14.1655 36.5334C14.3004 36.2872 14.3679 36.009 14.3679 35.6989C14.3679 35.3816 14.2981 35.0987 14.1584 34.8501C14.0211 34.5992 13.8317 34.4015 13.5902 34.2571C13.3487 34.1127 13.0729 34.0393 12.7628 34.0369C12.5403 34.0346 12.3118 34.0689 12.0774 34.1399C11.8431 34.2086 11.6501 34.2973 11.4986 34.4062L10.6747 34.3068L11.1151 30.7273H14.8935V31.5085H11.8537L11.598 33.6534H11.6406C11.7898 33.535 11.9768 33.4368 12.2017 33.3587C12.4266 33.2805 12.661 33.2415 12.9048 33.2415C13.3499 33.2415 13.7465 33.348 14.0945 33.5611C14.4449 33.7718 14.7195 34.0606 14.9183 34.4276C15.1196 34.7945 15.2202 35.2135 15.2202 35.6847C15.2202 36.1487 15.116 36.563 14.9077 36.9276C14.7017 37.2898 14.4176 37.5762 14.0554 37.7869C13.6932 37.9953 13.2813 38.0994 12.8196 38.0994ZM18.875 38.0994C18.34 38.0994 17.8842 37.9538 17.5078 37.6626C17.1314 37.3691 16.8438 36.9441 16.6449 36.3878C16.446 35.8291 16.3466 35.1544 16.3466 34.3636C16.3466 33.5777 16.446 32.9065 16.6449 32.3501C16.8461 31.7914 17.1349 31.3653 17.5114 31.0717C17.8902 30.7758 18.3447 30.6278 18.875 30.6278C19.4053 30.6278 19.8587 30.7758 20.2351 31.0717C20.6139 31.3653 20.9027 31.7914 21.1016 32.3501C21.3028 32.9065 21.4034 33.5777 21.4034 34.3636C21.4034 35.1544 21.304 35.8291 21.1051 36.3878C20.9062 36.9441 20.6186 37.3691 20.2422 37.6626C19.8658 37.9538 19.41 38.0994 18.875 38.0994ZM18.875 37.3182C19.4053 37.3182 19.8172 37.0625 20.1108 36.5511C20.4044 36.0398 20.5511 35.3106 20.5511 34.3636C20.5511 33.7339 20.4837 33.1977 20.3487 32.755C20.2161 32.3123 20.0244 31.9749 19.7734 31.7429C19.5249 31.5109 19.2254 31.3949 18.875 31.3949C18.3494 31.3949 17.9387 31.6541 17.6428 32.1726C17.3468 32.6887 17.1989 33.419 17.1989 34.3636C17.1989 34.9934 17.2652 35.5284 17.3977 35.9688C17.5303 36.4091 17.7209 36.7441 17.9695 36.9737C18.2204 37.2034 18.5223 37.3182 18.875 37.3182Z" fill="#353535"/>
<path d="M8.41728 57.7273V65H7.5366V58.6506H7.49399L5.71842 59.8295V58.9347L7.5366 57.7273H8.41728ZM12.753 65.0994C12.218 65.0994 11.7623 64.9538 11.3858 64.6626C11.0094 64.3691 10.7218 63.9441 10.5229 63.3878C10.3241 62.8291 10.2246 62.1544 10.2246 61.3636C10.2246 60.5777 10.3241 59.9065 10.5229 59.3501C10.7241 58.7914 11.013 58.3653 11.3894 58.0717C11.7682 57.7758 12.2227 57.6278 12.753 57.6278C13.2833 57.6278 13.7367 57.7758 14.1131 58.0717C14.4919 58.3653 14.7807 58.7914 14.9796 59.3501C15.1808 59.9065 15.2814 60.5777 15.2814 61.3636C15.2814 62.1544 15.182 62.8291 14.9831 63.3878C14.7843 63.9441 14.4966 64.3691 14.1202 64.6626C13.7438 64.9538 13.2881 65.0994 12.753 65.0994ZM12.753 64.3182C13.2833 64.3182 13.6953 64.0625 13.9888 63.5511C14.2824 63.0398 14.4292 62.3106 14.4292 61.3636C14.4292 60.7339 14.3617 60.1977 14.2268 59.755C14.0942 59.3123 13.9024 58.9749 13.6515 58.7429C13.4029 58.5109 13.1034 58.3949 12.753 58.3949C12.2275 58.3949 11.8167 58.6541 11.5208 59.1726C11.2249 59.6887 11.0769 60.419 11.0769 61.3636C11.0769 61.9934 11.1432 62.5284 11.2758 62.9688C11.4083 63.4091 11.5989 63.7441 11.8475 63.9737C12.0984 64.2034 12.4003 64.3182 12.753 64.3182ZM18.875 65.0994C18.34 65.0994 17.8842 64.9538 17.5078 64.6626C17.1314 64.3691 16.8438 63.9441 16.6449 63.3878C16.446 62.8291 16.3466 62.1544 16.3466 61.3636C16.3466 60.5777 16.446 59.9065 16.6449 59.3501C16.8461 58.7914 17.1349 58.3653 17.5114 58.0717C17.8902 57.7758 18.3447 57.6278 18.875 57.6278C19.4053 57.6278 19.8587 57.7758 20.2351 58.0717C20.6139 58.3653 20.9027 58.7914 21.1016 59.3501C21.3028 59.9065 21.4034 60.5777 21.4034 61.3636C21.4034 62.1544 21.304 62.8291 21.1051 63.3878C20.9062 63.9441 20.6186 64.3691 20.2422 64.6626C19.8658 64.9538 19.41 65.0994 18.875 65.0994ZM18.875 64.3182C19.4053 64.3182 19.8172 64.0625 20.1108 63.5511C20.4044 63.0398 20.5511 62.3106 20.5511 61.3636C20.5511 60.7339 20.4837 60.1977 20.3487 59.755C20.2161 59.3123 20.0244 58.9749 19.7734 58.7429C19.5249 58.5109 19.2254 58.3949 18.875 58.3949C18.3494 58.3949 17.9387 58.6541 17.6428 59.1726C17.3468 59.6887 17.1989 60.419 17.1989 61.3636C17.1989 61.9934 17.2652 62.5284 17.3977 62.9688C17.5303 63.4091 17.7209 63.7441 17.9695 63.9737C18.2204 64.2034 18.5223 64.3182 18.875 64.3182Z" fill="#353535"/>
<path d="M12.8196 92.0994C12.4029 92.0994 12.0277 92.0166 11.6939 91.8509C11.3601 91.6851 11.0926 91.4579 10.8913 91.169C10.6901 90.8802 10.58 90.5511 10.5611 90.1818H11.4134C11.4465 90.5109 11.5957 90.7831 11.8608 90.9986C12.1283 91.2116 12.4479 91.3182 12.8196 91.3182C13.1179 91.3182 13.3831 91.2483 13.6151 91.1087C13.8494 90.969 14.0329 90.7772 14.1655 90.5334C14.3004 90.2872 14.3679 90.009 14.3679 89.6989C14.3679 89.3816 14.2981 89.0987 14.1584 88.8501C14.0211 88.5992 13.8317 88.4015 13.5902 88.2571C13.3487 88.1127 13.0729 88.0393 12.7628 88.0369C12.5403 88.0346 12.3118 88.0689 12.0774 88.1399C11.8431 88.2086 11.6501 88.2973 11.4986 88.4062L10.6747 88.3068L11.1151 84.7273H14.8935V85.5085H11.8537L11.598 87.6534H11.6406C11.7898 87.535 11.9768 87.4368 12.2017 87.3587C12.4266 87.2805 12.661 87.2415 12.9048 87.2415C13.3499 87.2415 13.7465 87.348 14.0945 87.5611C14.4449 87.7718 14.7195 88.0606 14.9183 88.4276C15.1196 88.7945 15.2202 89.2135 15.2202 89.6847C15.2202 90.1487 15.116 90.563 14.9077 90.9276C14.7017 91.2898 14.4176 91.5762 14.0554 91.7869C13.6932 91.9953 13.2813 92.0994 12.8196 92.0994ZM18.875 92.0994C18.34 92.0994 17.8842 91.9538 17.5078 91.6626C17.1314 91.3691 16.8438 90.9441 16.6449 90.3878C16.446 89.8291 16.3466 89.1544 16.3466 88.3636C16.3466 87.5777 16.446 86.9065 16.6449 86.3501C16.8461 85.7914 17.1349 85.3653 17.5114 85.0717C17.8902 84.7758 18.3447 84.6278 18.875 84.6278C19.4053 84.6278 19.8587 84.7758 20.2351 85.0717C20.6139 85.3653 20.9027 85.7914 21.1016 86.3501C21.3028 86.9065 21.4034 87.5777 21.4034 88.3636C21.4034 89.1544 21.304 89.8291 21.1051 90.3878C20.9062 90.9441 20.6186 91.3691 20.2422 91.6626C19.8658 91.9538 19.41 92.0994 18.875 92.0994ZM18.875 91.3182C19.4053 91.3182 19.8172 91.0625 20.1108 90.5511C20.4044 90.0398 20.5511 89.3106 20.5511 88.3636C20.5511 87.7339 20.4837 87.1977 20.3487 86.755C20.2161 86.3123 20.0244 85.9749 19.7734 85.7429C19.5249 85.5109 19.2254 85.3949 18.875 85.3949C18.3494 85.3949 17.9387 85.6541 17.6428 86.1726C17.3468 86.6887 17.1989 87.419 17.1989 88.3636C17.1989 88.9934 17.2652 89.5284 17.3977 89.9688C17.5303 90.4091 17.7209 90.7441 17.9695 90.9737C18.2204 91.2034 18.5223 91.3182 18.875 91.3182Z" fill="#353535"/>
<path d="M18.7765 119.121C18.2154 119.118 17.736 118.97 17.3382 118.677C16.9405 118.383 16.6363 117.956 16.4256 117.395C16.2149 116.834 16.1096 116.158 16.1096 115.367C16.1096 114.579 16.2149 113.905 16.4256 113.347C16.6387 112.788 16.9441 112.362 17.3418 112.068C17.7419 111.775 18.2201 111.628 18.7765 111.628C19.3328 111.628 19.8098 111.776 20.2076 112.072C20.6053 112.365 20.9095 112.791 21.1202 113.35C21.3333 113.906 21.4398 114.579 21.4398 115.367C21.4398 116.16 21.3345 116.837 21.1238 117.398C20.9131 117.957 20.6088 118.384 20.2111 118.68C19.8134 118.974 19.3352 119.121 18.7765 119.121ZM18.7765 118.173C19.2689 118.173 19.6536 117.932 19.9306 117.452C20.2099 116.971 20.3496 116.276 20.3496 115.367C20.3496 114.763 20.2857 114.253 20.1578 113.837C20.0324 113.418 19.8513 113.1 19.6145 112.885C19.3801 112.667 19.1008 112.558 18.7765 112.558C18.2864 112.558 17.9017 112.8 17.6223 113.283C17.343 113.766 17.2021 114.46 17.1998 115.367C17.1998 115.973 17.2625 116.486 17.388 116.905C17.5158 117.321 17.6969 117.638 17.9313 117.853C18.1657 118.066 18.4474 118.173 18.7765 118.173Z" fill="#353535"/>
<path opacity="0.1" d="M26 99C26 97.8954 26.8954 97 28 97H36C37.1046 97 38 97.8954 38 99V117H26V99Z" fill="black"/>
<path d="M42 36C42 34.8954 42.8954 34 44 34H52C53.1046 34 54 34.8954 54 36V117H42V36Z" fill="#27A9E0"/>
<path d="M28.3037 131V130.205L30.7647 127.655C31.0275 127.378 31.2441 127.135 31.4145 126.927C31.5873 126.716 31.7164 126.516 31.8016 126.327C31.8868 126.137 31.9294 125.936 31.9294 125.723C31.9294 125.482 31.8726 125.273 31.759 125.098C31.6453 124.92 31.4903 124.784 31.2938 124.69C31.0973 124.593 30.8759 124.544 30.6297 124.544C30.3693 124.544 30.142 124.597 29.9479 124.704C29.7538 124.81 29.6046 124.961 29.5005 125.155C29.3963 125.349 29.3442 125.576 29.3442 125.837H28.2966C28.2966 125.394 28.3984 125.007 28.602 124.675C28.8056 124.344 29.085 124.087 29.4401 123.905C29.7952 123.72 30.1989 123.628 30.651 123.628C31.1079 123.628 31.5104 123.719 31.8584 123.901C32.2088 124.081 32.4822 124.327 32.6787 124.64C32.8752 124.95 32.9735 125.3 32.9735 125.691C32.9735 125.961 32.9226 126.225 32.8208 126.483C32.7213 126.741 32.5473 127.029 32.2988 127.346C32.0502 127.661 31.7045 128.043 31.2618 128.493L29.8165 130.006V130.059H33.0907V131H28.3037ZM36.8405 131.121C36.2794 131.118 35.8 130.97 35.4023 130.677C35.0045 130.383 34.7003 129.956 34.4896 129.395C34.2789 128.834 34.1736 128.158 34.1736 127.367C34.1736 126.579 34.2789 125.905 34.4896 125.347C34.7027 124.788 35.0081 124.362 35.4058 124.068C35.8059 123.775 36.2841 123.628 36.8405 123.628C37.3968 123.628 37.8739 123.776 38.2716 124.072C38.6693 124.365 38.9735 124.791 39.1842 125.35C39.3973 125.906 39.5038 126.579 39.5038 127.367C39.5038 128.16 39.3985 128.837 39.1878 129.398C38.9771 129.957 38.6729 130.384 38.2751 130.68C37.8774 130.974 37.3992 131.121 36.8405 131.121ZM36.8405 130.173C37.3329 130.173 37.7176 129.932 37.9946 129.452C38.2739 128.971 38.4136 128.276 38.4136 127.367C38.4136 126.763 38.3497 126.253 38.2219 125.837C38.0964 125.418 37.9153 125.1 37.6785 124.885C37.4442 124.667 37.1648 124.558 36.8405 124.558C36.3504 124.558 35.9657 124.8 35.6864 125.283C35.407 125.766 35.2661 126.46 35.2638 127.367C35.2638 127.973 35.3265 128.486 35.452 128.905C35.5798 129.321 35.7609 129.638 35.9953 129.853C36.2297 130.066 36.5114 130.173 36.8405 130.173ZM40.6356 131V130.205L43.0965 127.655C43.3593 127.378 43.5759 127.135 43.7464 126.927C43.9192 126.716 44.0482 126.516 44.1334 126.327C44.2187 126.137 44.2613 125.936 44.2613 125.723C44.2613 125.482 44.2045 125.273 44.0908 125.098C43.9772 124.92 43.8221 124.784 43.6256 124.69C43.4291 124.593 43.2078 124.544 42.9616 124.544C42.7011 124.544 42.4739 124.597 42.2797 124.704C42.0856 124.81 41.9365 124.961 41.8323 125.155C41.7281 125.349 41.676 125.576 41.676 125.837H40.6285C40.6285 125.394 40.7303 125.007 40.9339 124.675C41.1375 124.344 41.4168 124.087 41.7719 123.905C42.127 123.72 42.5307 123.628 42.9829 123.628C43.4398 123.628 43.8422 123.719 44.1902 123.901C44.5406 124.081 44.8141 124.327 45.0106 124.64C45.2071 124.95 45.3053 125.3 45.3053 125.691C45.3053 125.961 45.2544 126.225 45.1526 126.483C45.0532 126.741 44.8792 127.029 44.6306 127.346C44.382 127.661 44.0364 128.043 43.5937 128.493L42.1483 130.006V130.059H45.4225V131H40.6356ZM49.1723 131.121C48.6112 131.118 48.1318 130.97 47.7341 130.677C47.3364 130.383 47.0321 129.956 46.8214 129.395C46.6107 128.834 46.5054 128.158 46.5054 127.367C46.5054 126.579 46.6107 125.905 46.8214 125.347C47.0345 124.788 47.3399 124.362 47.7376 124.068C48.1377 123.775 48.616 123.628 49.1723 123.628C49.7286 123.628 50.2057 123.776 50.6034 124.072C51.0011 124.365 51.3053 124.791 51.516 125.35C51.7291 125.906 51.8357 126.579 51.8357 127.367C51.8357 128.16 51.7303 128.837 51.5196 129.398C51.3089 129.957 51.0047 130.384 50.607 130.68C50.2092 130.974 49.731 131.121 49.1723 131.121ZM49.1723 130.173C49.6647 130.173 50.0494 129.932 50.3264 129.452C50.6058 128.971 50.7455 128.276 50.7455 127.367C50.7455 126.763 50.6815 126.253 50.5537 125.837C50.4282 125.418 50.2471 125.1 50.0104 124.885C49.776 124.667 49.4966 124.558 49.1723 124.558C48.6822 124.558 48.2975 124.8 48.0182 125.283C47.7388 125.766 47.598 126.46 47.5956 127.367C47.5956 127.973 47.6583 128.486 47.7838 128.905C47.9116 129.321 48.0928 129.638 48.3271 129.853C48.5615 130.066 48.8432 130.173 49.1723 130.173Z" fill="#353535"/>
<path opacity="0.1" d="M70 99C70 97.8954 70.8954 97 72 97H80C81.1046 97 82 97.8954 82 99V117H70V99Z" fill="black"/>
<path d="M86 31C86 29.8954 86.8954 29 88 29H96C97.1046 29 98 29.8954 98 31V117H86V31Z" fill="#27A9E0"/>
<path d="M72.4649 131V130.205L74.9258 127.655C75.1886 127.378 75.4052 127.135 75.5757 126.927C75.7485 126.716 75.8775 126.516 75.9627 126.327C76.048 126.137 76.0906 125.936 76.0906 125.723C76.0906 125.482 76.0338 125.273 75.9201 125.098C75.8065 124.92 75.6514 124.784 75.4549 124.69C75.2584 124.593 75.0371 124.544 74.7909 124.544C74.5304 124.544 74.3032 124.597 74.109 124.704C73.9149 124.81 73.7658 124.961 73.6616 125.155C73.5574 125.349 73.5053 125.576 73.5053 125.837H72.4578C72.4578 125.394 72.5596 125.007 72.7632 124.675C72.9668 124.344 73.2461 124.087 73.6012 123.905C73.9563 123.72 74.36 123.628 74.8122 123.628C75.2691 123.628 75.6715 123.719 76.0195 123.901C76.3699 124.081 76.6434 124.327 76.8399 124.64C77.0364 124.95 77.1346 125.3 77.1346 125.691C77.1346 125.961 77.0837 126.225 76.9819 126.483C76.8825 126.741 76.7085 127.029 76.4599 127.346C76.2113 127.661 75.8657 128.043 75.423 128.493L73.9776 130.006V130.059H77.2518V131H72.4649ZM81.0016 131.121C80.4405 131.118 79.9611 130.97 79.5634 130.677C79.1657 130.383 78.8615 129.956 78.6508 129.395C78.4401 128.834 78.3347 128.158 78.3347 127.367C78.3347 126.579 78.4401 125.905 78.6508 125.347C78.8638 124.788 79.1692 124.362 79.5669 124.068C79.967 123.775 80.4453 123.628 81.0016 123.628C81.5579 123.628 82.035 123.776 82.4327 124.072C82.8304 124.365 83.1347 124.791 83.3454 125.35C83.5584 125.906 83.665 126.579 83.665 127.367C83.665 128.16 83.5596 128.837 83.3489 129.398C83.1382 129.957 82.834 130.384 82.4363 130.68C82.0385 130.974 81.5603 131.121 81.0016 131.121ZM81.0016 130.173C81.494 130.173 81.8787 129.932 82.1557 129.452C82.4351 128.971 82.5748 128.276 82.5748 127.367C82.5748 126.763 82.5108 126.253 82.383 125.837C82.2575 125.418 82.0764 125.1 81.8397 124.885C81.6053 124.667 81.3259 124.558 81.0016 124.558C80.5115 124.558 80.1268 124.8 79.8475 125.283C79.5681 125.766 79.4273 126.46 79.4249 127.367C79.4249 127.973 79.4876 128.486 79.6131 128.905C79.741 129.321 79.9221 129.638 80.1564 129.853C80.3908 130.066 80.6725 130.173 81.0016 130.173ZM84.7967 131V130.205L87.2576 127.655C87.5204 127.378 87.737 127.135 87.9075 126.927C88.0803 126.716 88.2093 126.516 88.2946 126.327C88.3798 126.137 88.4224 125.936 88.4224 125.723C88.4224 125.482 88.3656 125.273 88.2519 125.098C88.1383 124.92 87.9832 124.784 87.7867 124.69C87.5903 124.593 87.3689 124.544 87.1227 124.544C86.8623 124.544 86.635 124.597 86.4409 124.704C86.2467 124.81 86.0976 124.961 85.9934 125.155C85.8893 125.349 85.8372 125.576 85.8372 125.837H84.7896C84.7896 125.394 84.8914 125.007 85.095 124.675C85.2986 124.344 85.5779 124.087 85.9331 123.905C86.2882 123.72 86.6918 123.628 87.144 123.628C87.6009 123.628 88.0034 123.719 88.3514 123.901C88.7018 124.081 88.9752 124.327 89.1717 124.64C89.3682 124.95 89.4664 125.3 89.4664 125.691C89.4664 125.961 89.4155 126.225 89.3137 126.483C89.2143 126.741 89.0403 127.029 88.7917 127.346C88.5431 127.661 88.1975 128.043 87.7548 128.493L86.3095 130.006V130.059H89.5836V131H84.7967ZM90.8015 131V130.205L93.2624 127.655C93.5252 127.378 93.7418 127.135 93.9123 126.927C94.0851 126.716 94.2141 126.516 94.2993 126.327C94.3846 126.137 94.4272 125.936 94.4272 125.723C94.4272 125.482 94.3704 125.273 94.2567 125.098C94.1431 124.92 93.988 124.784 93.7915 124.69C93.595 124.593 93.3737 124.544 93.1275 124.544C92.867 124.544 92.6398 124.597 92.4456 124.704C92.2515 124.81 92.1024 124.961 91.9982 125.155C91.894 125.349 91.842 125.576 91.842 125.837H90.7944C90.7944 125.394 90.8962 125.007 91.0998 124.675C91.3034 124.344 91.5827 124.087 91.9378 123.905C92.2929 123.72 92.6966 123.628 93.1488 123.628C93.6057 123.628 94.0081 123.719 94.3562 123.901C94.7065 124.081 94.98 124.327 95.1765 124.64C95.373 124.95 95.4712 125.3 95.4712 125.691C95.4712 125.961 95.4203 126.225 95.3185 126.483C95.2191 126.741 95.0451 127.029 94.7965 127.346C94.5479 127.661 94.2023 128.043 93.7596 128.493L92.3143 130.006V130.059H95.5884V131H90.8015Z" fill="#353535"/>
<path opacity="0.1" d="M114 99C114 97.8954 114.895 97 116 97H124C125.105 97 126 97.8954 126 99V117H114V99Z" fill="black"/>
<path d="M130 22C130 20.8954 130.895 20 132 20H140C141.105 20 142 20.8954 142 22V117H130V22Z" fill="#27A9E0"/>
<path d="M116.338 131V130.205L118.799 127.655C119.062 127.378 119.278 127.135 119.449 126.927C119.622 126.716 119.751 126.516 119.836 126.327C119.921 126.137 119.964 125.936 119.964 125.723C119.964 125.482 119.907 125.273 119.793 125.098C119.68 124.92 119.524 124.784 119.328 124.69C119.131 124.593 118.91 124.544 118.664 124.544C118.403 124.544 118.176 124.597 117.982 124.704C117.788 124.81 117.639 124.961 117.535 125.155C117.43 125.349 117.378 125.576 117.378 125.837H116.331C116.331 125.394 116.433 125.007 116.636 124.675C116.84 124.344 117.119 124.087 117.474 123.905C117.829 123.72 118.233 123.628 118.685 123.628C119.142 123.628 119.545 123.719 119.893 123.901C120.243 124.081 120.516 124.327 120.713 124.64C120.909 124.95 121.008 125.3 121.008 125.691C121.008 125.961 120.957 126.225 120.855 126.483C120.756 126.741 120.582 127.029 120.333 127.346C120.084 127.661 119.739 128.043 119.296 128.493L117.851 130.006V130.059H121.125V131H116.338ZM124.875 131.121C124.314 131.118 123.834 130.97 123.436 130.677C123.039 130.383 122.734 129.956 122.524 129.395C122.313 128.834 122.208 128.158 122.208 127.367C122.208 126.579 122.313 125.905 122.524 125.347C122.737 124.788 123.042 124.362 123.44 124.068C123.84 123.775 124.318 123.628 124.875 123.628C125.431 123.628 125.908 123.776 126.306 124.072C126.703 124.365 127.008 124.791 127.218 125.35C127.431 125.906 127.538 126.579 127.538 127.367C127.538 128.16 127.433 128.837 127.222 129.398C127.011 129.957 126.707 130.384 126.309 130.68C125.912 130.974 125.433 131.121 124.875 131.121ZM124.875 130.173C125.367 130.173 125.752 129.932 126.029 129.452C126.308 128.971 126.448 128.276 126.448 127.367C126.448 126.763 126.384 126.253 126.256 125.837C126.131 125.418 125.949 125.1 125.713 124.885C125.478 124.667 125.199 124.558 124.875 124.558C124.385 124.558 124 124.8 123.721 125.283C123.441 125.766 123.3 126.46 123.298 127.367C123.298 127.973 123.361 128.486 123.486 128.905C123.614 129.321 123.795 129.638 124.029 129.853C124.264 130.066 124.546 130.173 124.875 130.173ZM128.67 131V130.205L131.131 127.655C131.393 127.378 131.61 127.135 131.781 126.927C131.953 126.716 132.082 126.516 132.168 126.327C132.253 126.137 132.295 125.936 132.295 125.723C132.295 125.482 132.239 125.273 132.125 125.098C132.011 124.92 131.856 124.784 131.66 124.69C131.463 124.593 131.242 124.544 130.996 124.544C130.735 124.544 130.508 124.597 130.314 124.704C130.12 124.81 129.971 124.961 129.866 125.155C129.762 125.349 129.71 125.576 129.71 125.837H128.663C128.663 125.394 128.764 125.007 128.968 124.675C129.172 124.344 129.451 124.087 129.806 123.905C130.161 123.72 130.565 123.628 131.017 123.628C131.474 123.628 131.876 123.719 132.224 123.901C132.575 124.081 132.848 124.327 133.045 124.64C133.241 124.95 133.339 125.3 133.339 125.691C133.339 125.961 133.289 126.225 133.187 126.483C133.087 126.741 132.913 127.029 132.665 127.346C132.416 127.661 132.071 128.043 131.628 128.493L130.183 130.006V130.059H133.457V131H128.67ZM134.366 129.58V128.692L137.508 123.727H138.208V125.034H137.764L135.516 128.592V128.649H139.824V129.58H134.366ZM137.814 131V129.31L137.821 128.905V123.727H138.861V131H137.814Z" fill="#353535"/>
<path opacity="0.1" d="M158 96C158 94.8954 158.895 94 160 94H168C169.105 94 170 94.8954 170 96V117H158V96Z" fill="black"/>
<path d="M174 16C174 14.8954 174.895 14 176 14H184C185.105 14 186 14.8954 186 16V117H174V16Z" fill="#27A9E0"/>
<path d="M160.353 131V130.205L162.813 127.655C163.076 127.378 163.293 127.135 163.463 126.927C163.636 126.716 163.765 126.516 163.85 126.327C163.936 126.137 163.978 125.936 163.978 125.723C163.978 125.482 163.921 125.273 163.808 125.098C163.694 124.92 163.539 124.784 163.343 124.69C163.146 124.593 162.925 124.544 162.679 124.544C162.418 124.544 162.191 124.597 161.997 124.704C161.803 124.81 161.653 124.961 161.549 125.155C161.445 125.349 161.393 125.576 161.393 125.837H160.345C160.345 125.394 160.447 125.007 160.651 124.675C160.854 124.344 161.134 124.087 161.489 123.905C161.844 123.72 162.248 123.628 162.7 123.628C163.157 123.628 163.559 123.719 163.907 123.901C164.258 124.081 164.531 124.327 164.728 124.64C164.924 124.95 165.022 125.3 165.022 125.691C165.022 125.961 164.971 126.225 164.87 126.483C164.77 126.741 164.596 127.029 164.348 127.346C164.099 127.661 163.753 128.043 163.311 128.493L161.865 130.006V130.059H165.139V131H160.353ZM168.889 131.121C168.328 131.118 167.849 130.97 167.451 130.677C167.053 130.383 166.749 129.956 166.538 129.395C166.328 128.834 166.222 128.158 166.222 127.367C166.222 126.579 166.328 125.905 166.538 125.347C166.752 124.788 167.057 124.362 167.455 124.068C167.855 123.775 168.333 123.628 168.889 123.628C169.446 123.628 169.923 123.776 170.32 124.072C170.718 124.365 171.022 124.791 171.233 125.35C171.446 125.906 171.553 126.579 171.553 127.367C171.553 128.16 171.447 128.837 171.237 129.398C171.026 129.957 170.722 130.384 170.324 130.68C169.926 130.974 169.448 131.121 168.889 131.121ZM168.889 130.173C169.382 130.173 169.766 129.932 170.043 129.452C170.323 128.971 170.462 128.276 170.462 127.367C170.462 126.763 170.399 126.253 170.271 125.837C170.145 125.418 169.964 125.1 169.727 124.885C169.493 124.667 169.214 124.558 168.889 124.558C168.399 124.558 168.015 124.8 167.735 125.283C167.456 125.766 167.315 126.46 167.313 127.367C167.313 127.973 167.375 128.486 167.501 128.905C167.629 129.321 167.81 129.638 168.044 129.853C168.279 130.066 168.56 130.173 168.889 130.173ZM172.684 131V130.205L175.145 127.655C175.408 127.378 175.625 127.135 175.795 126.927C175.968 126.716 176.097 126.516 176.182 126.327C176.267 126.137 176.31 125.936 176.31 125.723C176.31 125.482 176.253 125.273 176.14 125.098C176.026 124.92 175.871 124.784 175.674 124.69C175.478 124.593 175.257 124.544 175.01 124.544C174.75 124.544 174.523 124.597 174.329 124.704C174.134 124.81 173.985 124.961 173.881 125.155C173.777 125.349 173.725 125.576 173.725 125.837H172.677C172.677 125.394 172.779 125.007 172.983 124.675C173.186 124.344 173.466 124.087 173.821 123.905C174.176 123.72 174.58 123.628 175.032 123.628C175.489 123.628 175.891 123.719 176.239 123.901C176.589 124.081 176.863 124.327 177.059 124.64C177.256 124.95 177.354 125.3 177.354 125.691C177.354 125.961 177.303 126.225 177.201 126.483C177.102 126.741 176.928 127.029 176.679 127.346C176.431 127.661 176.085 128.043 175.642 128.493L174.197 130.006V130.059H177.471V131H172.684ZM181.228 131.099C180.904 131.095 180.584 131.036 180.269 130.922C179.957 130.808 179.673 130.619 179.417 130.354C179.161 130.089 178.957 129.732 178.803 129.285C178.651 128.837 178.576 128.279 178.576 127.609C178.576 126.974 178.638 126.411 178.764 125.918C178.892 125.426 179.075 125.01 179.314 124.672C179.553 124.331 179.842 124.072 180.181 123.894C180.519 123.717 180.899 123.628 181.321 123.628C181.754 123.628 182.139 123.713 182.475 123.884C182.811 124.054 183.083 124.29 183.291 124.59C183.502 124.891 183.636 125.233 183.693 125.616H182.61C182.536 125.313 182.391 125.066 182.173 124.874C181.955 124.683 181.671 124.587 181.321 124.587C180.788 124.587 180.372 124.819 180.074 125.283C179.778 125.747 179.629 126.392 179.627 127.218H179.68C179.805 127.012 179.959 126.837 180.142 126.692C180.326 126.546 180.532 126.433 180.759 126.355C180.989 126.275 181.231 126.234 181.484 126.234C181.905 126.234 182.286 126.337 182.627 126.543C182.971 126.747 183.244 127.029 183.448 127.388C183.651 127.748 183.753 128.16 183.753 128.624C183.753 129.088 183.648 129.509 183.437 129.885C183.229 130.261 182.935 130.56 182.556 130.78C182.178 130.998 181.735 131.104 181.228 131.099ZM181.225 130.176C181.504 130.176 181.754 130.107 181.974 129.97C182.194 129.833 182.368 129.648 182.496 129.416C182.624 129.184 182.688 128.925 182.688 128.638C182.688 128.359 182.625 128.105 182.5 127.875C182.376 127.645 182.206 127.463 181.988 127.328C181.773 127.193 181.527 127.126 181.25 127.126C181.039 127.126 180.844 127.166 180.664 127.246C180.486 127.327 180.33 127.438 180.195 127.58C180.06 127.722 179.953 127.886 179.875 128.07C179.799 128.253 179.762 128.446 179.762 128.649C179.762 128.921 179.824 129.174 179.95 129.406C180.078 129.638 180.252 129.825 180.472 129.967C180.694 130.106 180.945 130.176 181.225 130.176Z" fill="#353535"/>
<path opacity="0.1" d="M202 95C202 93.8954 202.895 93 204 93H212C213.105 93 214 93.8954 214 95V117H202V95Z" fill="black"/>
<path d="M218 11C218 9.89543 218.895 9 220 9H228C229.105 9 230 9.89543 230 11V117H218V11Z" fill="#27A9E0"/>
<path d="M204.372 131V130.205L206.833 127.655C207.096 127.378 207.312 127.135 207.483 126.927C207.656 126.716 207.785 126.516 207.87 126.327C207.955 126.137 207.998 125.936 207.998 125.723C207.998 125.482 207.941 125.273 207.827 125.098C207.714 124.92 207.559 124.784 207.362 124.69C207.166 124.593 206.944 124.544 206.698 124.544C206.438 124.544 206.21 124.597 206.016 124.704C205.822 124.81 205.673 124.961 205.569 125.155C205.465 125.349 205.413 125.576 205.413 125.837H204.365C204.365 125.394 204.467 125.007 204.67 124.675C204.874 124.344 205.153 124.087 205.508 123.905C205.864 123.72 206.267 123.628 206.719 123.628C207.176 123.628 207.579 123.719 207.927 123.901C208.277 124.081 208.551 124.327 208.747 124.64C208.944 124.95 209.042 125.3 209.042 125.691C209.042 125.961 208.991 126.225 208.889 126.483C208.79 126.741 208.616 127.029 208.367 127.346C208.119 127.661 207.773 128.043 207.33 128.493L205.885 130.006V130.059H209.159V131H204.372ZM212.909 131.121C212.348 131.118 211.868 130.97 211.471 130.677C211.073 130.383 210.769 129.956 210.558 129.395C210.347 128.834 210.242 128.158 210.242 127.367C210.242 126.579 210.347 125.905 210.558 125.347C210.771 124.788 211.076 124.362 211.474 124.068C211.874 123.775 212.352 123.628 212.909 123.628C213.465 123.628 213.942 123.776 214.34 124.072C214.738 124.365 215.042 124.791 215.253 125.35C215.466 125.906 215.572 126.579 215.572 127.367C215.572 128.16 215.467 128.837 215.256 129.398C215.045 129.957 214.741 130.384 214.343 130.68C213.946 130.974 213.468 131.121 212.909 131.121ZM212.909 130.173C213.401 130.173 213.786 129.932 214.063 129.452C214.342 128.971 214.482 128.276 214.482 127.367C214.482 126.763 214.418 126.253 214.29 125.837C214.165 125.418 213.984 125.1 213.747 124.885C213.513 124.667 213.233 124.558 212.909 124.558C212.419 124.558 212.034 124.8 211.755 125.283C211.475 125.766 211.334 126.46 211.332 127.367C211.332 127.973 211.395 128.486 211.52 128.905C211.648 129.321 211.829 129.638 212.064 129.853C212.298 130.066 212.58 130.173 212.909 130.173ZM216.704 131V130.205L219.165 127.655C219.428 127.378 219.644 127.135 219.815 126.927C219.988 126.716 220.117 126.516 220.202 126.327C220.287 126.137 220.33 125.936 220.33 125.723C220.33 125.482 220.273 125.273 220.159 125.098C220.046 124.92 219.89 124.784 219.694 124.69C219.497 124.593 219.276 124.544 219.03 124.544C218.769 124.544 218.542 124.597 218.348 124.704C218.154 124.81 218.005 124.961 217.901 125.155C217.796 125.349 217.744 125.576 217.744 125.837H216.697C216.697 125.394 216.799 125.007 217.002 124.675C217.206 124.344 217.485 124.087 217.84 123.905C218.195 123.72 218.599 123.628 219.051 123.628C219.508 123.628 219.911 123.719 220.259 123.901C220.609 124.081 220.882 124.327 221.079 124.64C221.275 124.95 221.374 125.3 221.374 125.691C221.374 125.961 221.323 126.225 221.221 126.483C221.122 126.741 220.948 127.029 220.699 127.346C220.45 127.661 220.105 128.043 219.662 128.493L218.217 130.006V130.059H221.491V131H216.704ZM225.166 131.099C224.657 131.099 224.207 131.012 223.817 130.837C223.428 130.661 223.124 130.42 222.904 130.112C222.684 129.804 222.575 129.454 222.577 129.061C222.575 128.753 222.638 128.47 222.766 128.212C222.896 127.952 223.072 127.735 223.295 127.562C223.517 127.387 223.766 127.276 224.04 127.229V127.186C223.678 127.098 223.388 126.904 223.17 126.604C222.953 126.303 222.845 125.957 222.847 125.567C222.845 125.195 222.943 124.864 223.142 124.572C223.343 124.279 223.619 124.048 223.969 123.88C224.32 123.712 224.719 123.628 225.166 123.628C225.609 123.628 226.004 123.713 226.352 123.884C226.703 124.052 226.978 124.282 227.18 124.576C227.381 124.867 227.483 125.197 227.485 125.567C227.483 125.957 227.371 126.303 227.151 126.604C226.931 126.904 226.645 127.098 226.292 127.186V127.229C226.564 127.276 226.809 127.387 227.027 127.562C227.247 127.735 227.422 127.952 227.552 128.212C227.685 128.47 227.752 128.753 227.755 129.061C227.752 129.454 227.641 129.804 227.421 130.112C227.201 130.42 226.895 130.661 226.505 130.837C226.117 131.012 225.67 131.099 225.166 131.099ZM225.166 130.201C225.467 130.201 225.727 130.151 225.947 130.052C226.168 129.95 226.338 129.809 226.459 129.629C226.579 129.447 226.641 129.234 226.643 128.99C226.641 128.737 226.575 128.513 226.444 128.319C226.317 128.125 226.143 127.972 225.922 127.861C225.702 127.75 225.45 127.694 225.166 127.694C224.88 127.694 224.625 127.75 224.403 127.861C224.18 127.972 224.005 128.125 223.877 128.319C223.749 128.513 223.686 128.737 223.689 128.99C223.686 129.234 223.744 129.447 223.863 129.629C223.984 129.809 224.155 129.95 224.378 130.052C224.6 130.151 224.863 130.201 225.166 130.201ZM225.166 126.817C225.408 126.817 225.622 126.768 225.809 126.671C225.996 126.574 226.143 126.439 226.249 126.266C226.358 126.094 226.414 125.891 226.416 125.659C226.414 125.432 226.359 125.233 226.253 125.062C226.149 124.892 226.003 124.761 225.816 124.668C225.629 124.574 225.412 124.526 225.166 124.526C224.915 124.526 224.695 124.574 224.506 124.668C224.319 124.761 224.173 124.892 224.069 125.062C223.965 125.233 223.914 125.432 223.916 125.659C223.914 125.891 223.966 126.094 224.072 126.266C224.179 126.439 224.326 126.574 224.513 126.671C224.702 126.768 224.92 126.817 225.166 126.817Z" fill="#353535"/>
</g>
<defs>
<clipPath id="clip0_4231_148301">
<rect width="229" height="133" fill="white"/>
</clipPath>
</defs>
</svg>
