<svg width="226" height="170" viewBox="0 0 226 170" fill="none" xmlns="http://www.w3.org/2000/svg">
<path d="M10.5533 10.0795C10.2199 10.0795 9.91974 10.0133 9.6527 9.88068C9.38565 9.74811 9.17164 9.56629 9.01065 9.33523C8.84967 9.10417 8.7616 8.84091 8.74645 8.54545H9.42827C9.45478 8.80871 9.5741 9.02652 9.78622 9.19886C10.0002 9.36932 10.2559 9.45455 10.5533 9.45455C10.7919 9.45455 11.004 9.39867 11.1896 9.28693C11.3771 9.17519 11.5239 9.02178 11.63 8.8267C11.7379 8.62973 11.7919 8.4072 11.7919 8.15909C11.7919 7.9053 11.736 7.67898 11.6243 7.48011C11.5144 7.27936 11.3629 7.12121 11.1697 7.00568C10.9766 6.89015 10.7559 6.83144 10.5078 6.82955C10.3298 6.82765 10.147 6.85511 9.95952 6.91193C9.77202 6.96686 9.61766 7.03788 9.49645 7.125L8.83736 7.04545L9.18963 4.18182H12.2124V4.80682H9.78054L9.57599 6.52273H9.61009C9.7294 6.42803 9.87902 6.34943 10.0589 6.28693C10.2389 6.22443 10.4264 6.19318 10.6214 6.19318C10.9775 6.19318 11.2947 6.27841 11.5732 6.44886C11.8535 6.61742 12.0732 6.84848 12.2322 7.14205C12.3932 7.43561 12.4737 7.77083 12.4737 8.14773C12.4737 8.51894 12.3904 8.85038 12.2237 9.14205C12.0589 9.43182 11.8317 9.66098 11.5419 9.82955C11.2521 9.99621 10.9226 10.0795 10.5533 10.0795Z" fill="#353535"/>
<path d="M1.90947 23.4064V22.8269L4.46629 18.7814H4.88674V19.6792H4.60265L2.67083 22.736V22.7814H6.11402V23.4064H1.90947ZM4.64811 24.5996V23.2303V22.9604V18.7814H5.31856V24.5996H4.64811ZM7.27718 24.6451C7.13703 24.6451 7.01676 24.5949 6.91638 24.4945C6.816 24.3941 6.76581 24.2739 6.76581 24.1337C6.76581 23.9935 6.816 23.8733 6.91638 23.7729C7.01676 23.6725 7.13703 23.6223 7.27718 23.6223C7.41733 23.6223 7.5376 23.6725 7.63797 23.7729C7.73835 23.8733 7.78854 23.9935 7.78854 24.1337C7.78854 24.2265 7.76487 24.3117 7.71752 24.3894C7.67206 24.467 7.61051 24.5295 7.53286 24.5769C7.4571 24.6223 7.37188 24.6451 7.27718 24.6451ZM10.5533 24.6792C10.2199 24.6792 9.91974 24.6129 9.6527 24.4803C9.38565 24.3477 9.17164 24.1659 9.01065 23.9348C8.84967 23.7038 8.7616 23.4405 8.74645 23.1451H9.42827C9.45478 23.4083 9.5741 23.6261 9.78622 23.7985C10.0002 23.9689 10.2559 24.0542 10.5533 24.0542C10.7919 24.0542 11.004 23.9983 11.1896 23.8865C11.3771 23.7748 11.5239 23.6214 11.63 23.4263C11.7379 23.2293 11.7919 23.0068 11.7919 22.7587C11.7919 22.5049 11.736 22.2786 11.6243 22.0797C11.5144 21.879 11.3629 21.7208 11.1697 21.6053C10.9766 21.4898 10.7559 21.431 10.5078 21.4292C10.3298 21.4273 10.147 21.4547 9.95952 21.5115C9.77202 21.5665 9.61766 21.6375 9.49645 21.7246L8.83736 21.6451L9.18963 18.7814H12.2124V19.4064H9.78054L9.57599 21.1223H9.61009C9.7294 21.0276 9.87902 20.949 10.0589 20.8865C10.2389 20.824 10.4264 20.7928 10.6214 20.7928C10.9775 20.7928 11.2947 20.878 11.5732 21.0485C11.8535 21.217 12.0732 21.4481 12.2322 21.7417C12.3932 22.0352 12.4737 22.3704 12.4737 22.7473C12.4737 23.1185 12.3904 23.45 12.2237 23.7417C12.0589 24.0314 11.8317 24.2606 11.5419 24.4292C11.2521 24.5958 10.9226 24.6792 10.5533 24.6792Z" fill="#353535"/>
<path d="M8.3331 38.007V37.4275L10.8899 33.382H11.3104V34.2797H11.0263L9.09446 37.3366V37.382H12.5376V38.007H8.3331ZM11.0717 39.2002V37.8309V37.561V33.382H11.7422V39.2002H11.0717Z" fill="#353535"/>
<path d="M3.95706 53.8794C3.58206 53.8794 3.24778 53.815 2.95422 53.6862C2.66255 53.5574 2.43054 53.3784 2.25819 53.1492C2.08774 52.9182 1.99493 52.6502 1.97978 52.3453H2.69569C2.71084 52.5328 2.77524 52.6947 2.88887 52.8311C3.00251 52.9655 3.15118 53.0697 3.3349 53.1436C3.51861 53.2174 3.72221 53.2544 3.94569 53.2544C4.19569 53.2544 4.41728 53.2108 4.61047 53.1237C4.80365 53.0365 4.95516 52.9153 5.06501 52.76C5.17486 52.6047 5.22978 52.4248 5.22978 52.2203C5.22978 52.0062 5.17675 51.8178 5.07069 51.6549C4.96463 51.4901 4.80933 51.3614 4.60478 51.2686C4.40024 51.1758 4.15024 51.1293 3.85478 51.1293H3.38887V50.5043H3.85478C4.08584 50.5043 4.2885 50.4627 4.46274 50.3793C4.63887 50.296 4.77618 50.1786 4.87467 50.0271C4.97505 49.8756 5.02524 49.6975 5.02524 49.493C5.02524 49.296 4.98168 49.1246 4.89456 48.9788C4.80743 48.8329 4.68433 48.7193 4.52524 48.6379C4.36804 48.5564 4.18243 48.5157 3.96842 48.5157C3.76766 48.5157 3.57827 48.5526 3.40024 48.6265C3.2241 48.6985 3.08016 48.8036 2.96842 48.9419C2.85668 49.0782 2.79607 49.243 2.7866 49.4362H2.10478C2.11615 49.1312 2.208 48.8642 2.38035 48.635C2.5527 48.404 2.77808 48.224 3.05649 48.0953C3.33679 47.9665 3.64456 47.9021 3.97978 47.9021C4.33963 47.9021 4.64834 47.975 4.90592 48.1208C5.1635 48.2648 5.36141 48.4551 5.49967 48.6919C5.63793 48.9286 5.70706 49.1843 5.70706 49.4589C5.70706 49.7865 5.62088 50.0659 5.44853 50.297C5.27808 50.528 5.04607 50.6881 4.75251 50.7771V50.8225C5.11993 50.8831 5.40687 51.0394 5.61331 51.2913C5.81975 51.5413 5.92297 51.8509 5.92297 52.2203C5.92297 52.5365 5.83679 52.8206 5.66444 53.0725C5.49399 53.3225 5.26103 53.5195 4.96558 53.6634C4.67012 53.8074 4.33395 53.8794 3.95706 53.8794ZM7.27718 53.8453C7.13703 53.8453 7.01676 53.7951 6.91638 53.6947C6.816 53.5943 6.76581 53.474 6.76581 53.3339C6.76581 53.1937 6.816 53.0735 6.91638 52.9731C7.01676 52.8727 7.13703 52.8225 7.27718 52.8225C7.41733 52.8225 7.5376 52.8727 7.63797 52.9731C7.73835 53.0735 7.78854 53.1937 7.78854 53.3339C7.78854 53.4267 7.76487 53.5119 7.71752 53.5896C7.67206 53.6672 7.61051 53.7297 7.53286 53.7771C7.4571 53.8225 7.37188 53.8453 7.27718 53.8453ZM10.5533 53.8794C10.2199 53.8794 9.91974 53.8131 9.6527 53.6805C9.38565 53.5479 9.17164 53.3661 9.01065 53.135C8.84967 52.904 8.7616 52.6407 8.74645 52.3453H9.42827C9.45478 52.6085 9.5741 52.8263 9.78622 52.9987C10.0002 53.1691 10.2559 53.2544 10.5533 53.2544C10.7919 53.2544 11.004 53.1985 11.1896 53.0867C11.3771 52.975 11.5239 52.8216 11.63 52.6265C11.7379 52.4295 11.7919 52.207 11.7919 51.9589C11.7919 51.7051 11.736 51.4788 11.6243 51.2799C11.5144 51.0792 11.3629 50.921 11.1697 50.8055C10.9766 50.69 10.7559 50.6312 10.5078 50.6293C10.3298 50.6275 10.147 50.6549 9.95952 50.7117C9.77202 50.7667 9.61766 50.8377 9.49645 50.9248L8.83736 50.8453L9.18963 47.9816H12.2124V48.6066H9.78054L9.57599 50.3225H9.61009C9.7294 50.2278 9.87902 50.1492 10.0589 50.0867C10.2389 50.0242 10.4264 49.993 10.6214 49.993C10.9775 49.993 11.2947 50.0782 11.5732 50.2487C11.8535 50.4172 12.0732 50.6483 12.2322 50.9418C12.3932 51.2354 12.4737 51.5706 12.4737 51.9475C12.4737 52.3187 12.3904 52.6502 12.2237 52.9419C12.0589 53.2316 11.8317 53.4608 11.5419 53.6294C11.2521 53.796 10.9226 53.8794 10.5533 53.8794Z" fill="#353535"/>
<path d="M10.4744 68.4799C10.0994 68.4799 9.76515 68.4155 9.47159 68.2868C9.17992 68.158 8.94792 67.979 8.77557 67.7498C8.60511 67.5188 8.51231 67.2508 8.49716 66.9458H9.21307C9.22822 67.1333 9.29261 67.2953 9.40625 67.4316C9.51989 67.5661 9.66856 67.6703 9.85227 67.7441C10.036 67.818 10.2396 67.8549 10.4631 67.8549C10.7131 67.8549 10.9347 67.8114 11.1278 67.7243C11.321 67.6371 11.4725 67.5159 11.5824 67.3606C11.6922 67.2053 11.7472 67.0254 11.7472 66.8208C11.7472 66.6068 11.6941 66.4184 11.5881 66.2555C11.482 66.0907 11.3267 65.9619 11.1222 65.8691C10.9176 65.7763 10.6676 65.7299 10.3722 65.7299H9.90625V65.1049H10.3722C10.6032 65.1049 10.8059 65.0633 10.9801 64.9799C11.1563 64.8966 11.2936 64.7792 11.392 64.6277C11.4924 64.4761 11.5426 64.2981 11.5426 64.0936C11.5426 63.8966 11.4991 63.7252 11.4119 63.5794C11.3248 63.4335 11.2017 63.3199 11.0426 63.2385C10.8854 63.157 10.6998 63.1163 10.4858 63.1163C10.285 63.1163 10.0956 63.1532 9.91761 63.2271C9.74148 63.2991 9.59754 63.4042 9.4858 63.5424C9.37405 63.6788 9.31345 63.8436 9.30398 64.0368H8.62216C8.63352 63.7318 8.72538 63.4648 8.89773 63.2356C9.07008 63.0046 9.29545 62.8246 9.57386 62.6958C9.85417 62.5671 10.1619 62.5027 10.4972 62.5027C10.857 62.5027 11.1657 62.5756 11.4233 62.7214C11.6809 62.8654 11.8788 63.0557 12.017 63.2924C12.1553 63.5292 12.2244 63.7849 12.2244 64.0595C12.2244 64.3871 12.1383 64.6665 11.9659 64.8975C11.7955 65.1286 11.5634 65.2886 11.2699 65.3777V65.4231C11.6373 65.4837 11.9242 65.64 12.1307 65.8919C12.3371 66.1419 12.4403 66.4515 12.4403 66.8208C12.4403 67.1371 12.3542 67.4212 12.1818 67.6731C12.0114 67.9231 11.7784 68.1201 11.483 68.264C11.1875 68.408 10.8513 68.4799 10.4744 68.4799Z" fill="#353535"/>
<path d="M2.06146 83V82.4886L3.98191 80.3864C4.20729 80.1402 4.3929 79.9261 4.53873 79.7443C4.68457 79.5606 4.79252 79.3883 4.8626 79.2273C4.93457 79.0644 4.97055 78.8939 4.97055 78.7159C4.97055 78.5114 4.92131 78.3343 4.82282 78.1847C4.72623 78.035 4.59366 77.9195 4.4251 77.8381C4.25654 77.7566 4.06714 77.7159 3.85691 77.7159C3.63343 77.7159 3.43835 77.7623 3.27169 77.8551C3.10691 77.946 2.97907 78.0739 2.88816 78.2386C2.79915 78.4034 2.75464 78.5966 2.75464 78.8182H2.08419C2.08419 78.4773 2.16279 78.178 2.31998 77.9205C2.47718 77.6629 2.69119 77.4621 2.96203 77.3182C3.23475 77.1742 3.54063 77.1023 3.87964 77.1023C4.22055 77.1023 4.52263 77.1742 4.78589 77.3182C5.04915 77.4621 5.25559 77.6562 5.40521 77.9006C5.55483 78.1449 5.62964 78.4167 5.62964 78.7159C5.62964 78.9299 5.59082 79.1392 5.51316 79.3438C5.43741 79.5464 5.30483 79.7727 5.11544 80.0227C4.92794 80.2708 4.66752 80.5739 4.33419 80.9318L3.02737 82.3295V82.375H5.73191V83H2.06146ZM7.27718 83.0455C7.13703 83.0455 7.01676 82.9953 6.91638 82.8949C6.816 82.7945 6.76581 82.6742 6.76581 82.5341C6.76581 82.3939 6.816 82.2737 6.91638 82.1733C7.01676 82.0729 7.13703 82.0227 7.27718 82.0227C7.41733 82.0227 7.5376 82.0729 7.63797 82.1733C7.73835 82.2737 7.78854 82.3939 7.78854 82.5341C7.78854 82.6269 7.76487 82.7121 7.71752 82.7898C7.67206 82.8674 7.61051 82.9299 7.53286 82.9773C7.4571 83.0227 7.37188 83.0455 7.27718 83.0455ZM10.5533 83.0795C10.2199 83.0795 9.91974 83.0133 9.6527 82.8807C9.38565 82.7481 9.17164 82.5663 9.01065 82.3352C8.84967 82.1042 8.7616 81.8409 8.74645 81.5455H9.42827C9.45478 81.8087 9.5741 82.0265 9.78622 82.1989C10.0002 82.3693 10.2559 82.4545 10.5533 82.4545C10.7919 82.4545 11.004 82.3987 11.1896 82.2869C11.3771 82.1752 11.5239 82.0218 11.63 81.8267C11.7379 81.6297 11.7919 81.4072 11.7919 81.1591C11.7919 80.9053 11.736 80.679 11.6243 80.4801C11.5144 80.2794 11.3629 80.1212 11.1697 80.0057C10.9766 79.8902 10.7559 79.8314 10.5078 79.8295C10.3298 79.8277 10.147 79.8551 9.95952 79.9119C9.77202 79.9669 9.61766 80.0379 9.49645 80.125L8.83736 80.0455L9.18963 77.1818H12.2124V77.8068H9.78054L9.57599 79.5227H9.61009C9.7294 79.428 9.87902 79.3494 10.0589 79.2869C10.2389 79.2244 10.4264 79.1932 10.6214 79.1932C10.9775 79.1932 11.2947 79.2784 11.5732 79.4489C11.8535 79.6174 12.0732 79.8485 12.2322 80.142C12.3932 80.4356 12.4737 80.7708 12.4737 81.1477C12.4737 81.5189 12.3904 81.8504 12.2237 82.142C12.0589 82.4318 11.8317 82.661 11.5419 82.8295C11.2521 82.9962 10.9226 83.0795 10.5533 83.0795Z" fill="#353535"/>
<path d="M8.75852 97.5996V97.0882L10.679 94.986C10.9044 94.7398 11.09 94.5257 11.2358 94.3439C11.3816 94.1602 11.4896 93.9879 11.5597 93.8269C11.6316 93.664 11.6676 93.4935 11.6676 93.3155C11.6676 93.111 11.6184 92.9339 11.5199 92.7843C11.4233 92.6346 11.2907 92.5191 11.1222 92.4377C10.9536 92.3562 10.7642 92.3155 10.554 92.3155C10.3305 92.3155 10.1354 92.3619 9.96875 92.4547C9.80398 92.5456 9.67614 92.6735 9.58523 92.8382C9.49621 93.003 9.4517 93.1962 9.4517 93.4178H8.78125C8.78125 93.0769 8.85985 92.7776 9.01705 92.5201C9.17424 92.2625 9.38826 92.0617 9.65909 91.9178C9.93182 91.7739 10.2377 91.7019 10.5767 91.7019C10.9176 91.7019 11.2197 91.7739 11.483 91.9178C11.7462 92.0617 11.9527 92.2559 12.1023 92.5002C12.2519 92.7445 12.3267 93.0163 12.3267 93.3155C12.3267 93.5295 12.2879 93.7388 12.2102 93.9434C12.1345 94.146 12.0019 94.3723 11.8125 94.6223C11.625 94.8704 11.3646 95.1735 11.0312 95.5314L9.72443 96.9292V96.9746H12.429V97.5996H8.75852Z" fill="#353535"/>
<path d="M5.57566 106.382V112.2H4.87112V107.121H4.83703L3.41657 108.064V107.348L4.87112 106.382H5.57566ZM7.27718 112.246C7.13703 112.246 7.01676 112.195 6.91638 112.095C6.816 111.995 6.76581 111.874 6.76581 111.734C6.76581 111.594 6.816 111.474 6.91638 111.373C7.01676 111.273 7.13703 111.223 7.27718 111.223C7.41733 111.223 7.5376 111.273 7.63797 111.373C7.73835 111.474 7.78854 111.594 7.78854 111.734C7.78854 111.827 7.76487 111.912 7.71752 111.99C7.67206 112.068 7.61051 112.13 7.53286 112.177C7.4571 112.223 7.37188 112.246 7.27718 112.246ZM10.5533 112.28C10.2199 112.28 9.91974 112.213 9.6527 112.081C9.38565 111.948 9.17164 111.766 9.01065 111.535C8.84967 111.304 8.7616 111.041 8.74645 110.746H9.42827C9.45478 111.009 9.5741 111.227 9.78622 111.399C10.0002 111.57 10.2559 111.655 10.5533 111.655C10.7919 111.655 11.004 111.599 11.1896 111.487C11.3771 111.375 11.5239 111.222 11.63 111.027C11.7379 110.83 11.7919 110.607 11.7919 110.359C11.7919 110.105 11.736 109.879 11.6243 109.68C11.5144 109.48 11.3629 109.321 11.1697 109.206C10.9766 109.09 10.7559 109.032 10.5078 109.03C10.3298 109.028 10.147 109.055 9.95952 109.112C9.77202 109.167 9.61766 109.238 9.49645 109.325L8.83736 109.246L9.18963 106.382H12.2124V107.007H9.78054L9.57599 108.723H9.61009C9.7294 108.628 9.87902 108.55 10.0589 108.487C10.2389 108.425 10.4264 108.393 10.6214 108.393C10.9775 108.393 11.2947 108.479 11.5732 108.649C11.8535 108.818 12.0732 109.049 12.2322 109.342C12.3932 109.636 12.4737 109.971 12.4737 110.348C12.4737 110.719 12.3904 111.051 12.2237 111.342C12.0589 111.632 11.8317 111.861 11.5419 112.03C11.2521 112.196 10.9226 112.28 10.5533 112.28Z" fill="#353535"/>
<path d="M11.929 120.982V126.8H11.2244V121.72H11.1903L9.76989 122.663V121.948L11.2244 120.982H11.929Z" fill="#353535"/>
<path d="M4.00606 141.48C3.57803 141.48 3.21345 141.363 2.91231 141.131C2.61118 140.896 2.38106 140.556 2.22197 140.111C2.06288 139.664 1.98333 139.124 1.98333 138.491C1.98333 137.863 2.06288 137.326 2.22197 136.881C2.38296 136.434 2.61402 136.093 2.91515 135.858C3.21818 135.621 3.58182 135.503 4.00606 135.503C4.4303 135.503 4.79299 135.621 5.09413 135.858C5.39716 136.093 5.62822 136.434 5.78731 136.881C5.9483 137.326 6.02879 137.863 6.02879 138.491C6.02879 139.124 5.94924 139.664 5.79015 140.111C5.63106 140.556 5.40095 140.896 5.09981 141.131C4.79868 141.363 4.43409 141.48 4.00606 141.48ZM4.00606 140.855C4.4303 140.855 4.75985 140.65 4.9947 140.241C5.22955 139.832 5.34697 139.249 5.34697 138.491C5.34697 137.988 5.29299 137.559 5.18504 137.204C5.07898 136.85 4.92557 136.58 4.72481 136.395C4.52595 136.209 4.28636 136.116 4.00606 136.116C3.58561 136.116 3.25701 136.324 3.02027 136.738C2.78352 137.151 2.66515 137.736 2.66515 138.491C2.66515 138.995 2.71818 139.423 2.82424 139.775C2.9303 140.128 3.08277 140.396 3.28163 140.579C3.48239 140.763 3.72386 140.855 4.00606 140.855ZM7.27718 141.446C7.13703 141.446 7.01676 141.396 6.91638 141.295C6.816 141.195 6.76581 141.075 6.76581 140.934C6.76581 140.794 6.816 140.674 6.91638 140.574C7.01676 140.473 7.13703 140.423 7.27718 140.423C7.41733 140.423 7.5376 140.473 7.63797 140.574C7.73835 140.674 7.78854 140.794 7.78854 140.934C7.78854 141.027 7.76487 141.113 7.71752 141.19C7.67206 141.268 7.61051 141.33 7.53286 141.378C7.4571 141.423 7.37188 141.446 7.27718 141.446ZM10.5533 141.48C10.2199 141.48 9.91974 141.414 9.6527 141.281C9.38565 141.148 9.17164 140.967 9.01065 140.736C8.84967 140.505 8.7616 140.241 8.74645 139.946H9.42827C9.45478 140.209 9.5741 140.427 9.78622 140.599C10.0002 140.77 10.2559 140.855 10.5533 140.855C10.7919 140.855 11.004 140.799 11.1896 140.687C11.3771 140.576 11.5239 140.422 11.63 140.227C11.7379 140.03 11.7919 139.808 11.7919 139.559C11.7919 139.306 11.736 139.079 11.6243 138.881C11.5144 138.68 11.3629 138.522 11.1697 138.406C10.9766 138.291 10.7559 138.232 10.5078 138.23C10.3298 138.228 10.147 138.256 9.95952 138.312C9.77202 138.367 9.61766 138.438 9.49645 138.525L8.83736 138.446L9.18963 135.582H12.2124V136.207H9.78054L9.57599 137.923H9.61009C9.7294 137.828 9.87902 137.75 10.0589 137.687C10.2389 137.625 10.4264 137.594 10.6214 137.594C10.9775 137.594 11.2947 137.679 11.5732 137.849C11.8535 138.018 12.0732 138.249 12.2322 138.542C12.3932 138.836 12.4737 139.171 12.4737 139.548C12.4737 139.919 12.3904 140.251 12.2237 140.542C12.0589 140.832 11.8317 141.061 11.5419 141.23C11.2521 141.397 10.9226 141.48 10.5533 141.48Z" fill="#353535"/>
<path d="M10.4212 156.097C9.9723 156.095 9.58878 155.976 9.2706 155.741C8.95241 155.507 8.70904 155.165 8.54048 154.716C8.37192 154.267 8.28764 153.726 8.28764 153.094C8.28764 152.463 8.37192 151.924 8.54048 151.477C8.71094 151.03 8.95526 150.689 9.27344 150.455C9.59351 150.22 9.97609 150.102 10.4212 150.102C10.8662 150.102 11.2479 150.221 11.5661 150.457C11.8842 150.692 12.1276 151.033 12.2962 151.48C12.4666 151.925 12.5518 152.463 12.5518 153.094C12.5518 153.728 12.4676 154.27 12.299 154.719C12.1304 155.166 11.8871 155.508 11.5689 155.744C11.2507 155.979 10.8681 156.097 10.4212 156.097ZM10.4212 155.338C10.8151 155.338 11.1229 155.146 11.3445 154.761C11.5679 154.377 11.6797 153.821 11.6797 153.094C11.6797 152.611 11.6286 152.203 11.5263 151.869C11.4259 151.534 11.281 151.28 11.0916 151.108C10.9041 150.934 10.6806 150.847 10.4212 150.847C10.0291 150.847 9.72135 151.04 9.49787 151.426C9.27438 151.812 9.1617 152.368 9.1598 153.094C9.1598 153.579 9.20999 153.989 9.31037 154.324C9.41264 154.657 9.55753 154.91 9.74503 155.082C9.93253 155.253 10.1579 155.338 10.4212 155.338Z" fill="#353535"/>
<rect x="17" y="7" width="209" height="1" fill="black" fill-opacity="0.1"/>
<rect x="17" y="21.5996" width="209" height="1" fill="black" fill-opacity="0.1"/>
<rect x="17" y="36.2002" width="209" height="1" fill="black" fill-opacity="0.1"/>
<rect x="17" y="50.7998" width="209" height="1" fill="black" fill-opacity="0.1"/>
<rect x="17" y="65.4004" width="209" height="1" fill="black" fill-opacity="0.1"/>
<rect x="17" y="80" width="209" height="1" fill="black" fill-opacity="0.1"/>
<rect x="17" y="94.5996" width="209" height="1" fill="black" fill-opacity="0.1"/>
<rect x="17" y="109.2" width="209" height="1" fill="black" fill-opacity="0.1"/>
<rect x="17" y="123.8" width="209" height="1" fill="black" fill-opacity="0.1"/>
<rect x="17" y="138.4" width="209" height="1" fill="black" fill-opacity="0.1"/>
<rect x="17" y="153" width="209" height="1" fill="black" fill-opacity="0.25"/>
<path d="M21.2129 167V166.489L23.1334 164.386C23.3588 164.14 23.5444 163.926 23.6902 163.744C23.836 163.561 23.944 163.388 24.0141 163.227C24.086 163.064 24.122 162.894 24.122 162.716C24.122 162.511 24.0728 162.334 23.9743 162.185C23.8777 162.035 23.7451 161.92 23.5766 161.838C23.408 161.757 23.2186 161.716 23.0084 161.716C22.7849 161.716 22.5898 161.762 22.4232 161.855C22.2584 161.946 22.1305 162.074 22.0396 162.239C21.9506 162.403 21.9061 162.597 21.9061 162.818H21.2357C21.2357 162.477 21.3143 162.178 21.4715 161.92C21.6286 161.663 21.8427 161.462 22.1135 161.318C22.3862 161.174 22.6921 161.102 23.0311 161.102C23.372 161.102 23.6741 161.174 23.9374 161.318C24.2006 161.462 24.4071 161.656 24.5567 161.901C24.7063 162.145 24.7811 162.417 24.7811 162.716C24.7811 162.93 24.7423 163.139 24.6646 163.344C24.5889 163.546 24.4563 163.773 24.2669 164.023C24.0794 164.271 23.819 164.574 23.4857 164.932L22.1788 166.33V166.375H24.8834V167H21.2129ZM27.8264 167.08C27.3983 167.08 27.0338 166.963 26.7326 166.73C26.4315 166.495 26.2014 166.155 26.0423 165.71C25.8832 165.263 25.8036 164.723 25.8036 164.091C25.8036 163.462 25.8832 162.925 26.0423 162.48C26.2033 162.033 26.4343 161.692 26.7355 161.457C27.0385 161.221 27.4021 161.102 27.8264 161.102C28.2506 161.102 28.6133 161.221 28.9144 161.457C29.2175 161.692 29.4485 162.033 29.6076 162.48C29.7686 162.925 29.8491 163.462 29.8491 164.091C29.8491 164.723 29.7696 165.263 29.6105 165.71C29.4514 166.155 29.2213 166.495 28.9201 166.73C28.619 166.963 28.2544 167.08 27.8264 167.08ZM27.8264 166.455C28.2506 166.455 28.5802 166.25 28.815 165.841C29.0499 165.432 29.1673 164.848 29.1673 164.091C29.1673 163.587 29.1133 163.158 29.0054 162.804C28.8993 162.45 28.7459 162.18 28.5451 161.994C28.3463 161.809 28.1067 161.716 27.8264 161.716C27.4059 161.716 27.0773 161.923 26.8406 162.338C26.6038 162.751 26.4855 163.335 26.4855 164.091C26.4855 164.595 26.5385 165.023 26.6446 165.375C26.7506 165.727 26.9031 165.995 27.1019 166.179C27.3027 166.363 27.5442 166.455 27.8264 166.455ZM32.6983 167.08C32.2703 167.08 31.9057 166.963 31.6046 166.73C31.3035 166.495 31.0733 166.155 30.9143 165.71C30.7552 165.263 30.6756 164.723 30.6756 164.091C30.6756 163.462 30.7552 162.925 30.9143 162.48C31.0752 162.033 31.3063 161.692 31.6074 161.457C31.9105 161.221 32.2741 161.102 32.6983 161.102C33.1226 161.102 33.4853 161.221 33.7864 161.457C34.0894 161.692 34.3205 162.033 34.4796 162.48C34.6406 162.925 34.7211 163.462 34.7211 164.091C34.7211 164.723 34.6415 165.263 34.4824 165.71C34.3233 166.155 34.0932 166.495 33.7921 166.73C33.491 166.963 33.1264 167.08 32.6983 167.08ZM32.6983 166.455C33.1226 166.455 33.4521 166.25 33.687 165.841C33.9218 165.432 34.0393 164.848 34.0393 164.091C34.0393 163.587 33.9853 163.158 33.8773 162.804C33.7713 162.45 33.6179 162.18 33.4171 161.994C33.2182 161.809 32.9786 161.716 32.6983 161.716C32.2779 161.716 31.9493 161.923 31.7125 162.338C31.4758 162.751 31.3574 163.335 31.3574 164.091C31.3574 164.595 31.4105 165.023 31.5165 165.375C31.6226 165.727 31.775 165.995 31.9739 166.179C32.1747 166.363 32.4161 166.455 32.6983 166.455ZM37.5362 167.08C37.1461 167.08 36.8014 167.01 36.5021 166.872C36.2048 166.732 35.9728 166.54 35.8061 166.295C35.6394 166.049 35.5571 165.769 35.5589 165.455C35.5571 165.208 35.6054 164.981 35.7038 164.773C35.8023 164.562 35.9368 164.387 36.1072 164.247C36.2796 164.105 36.4718 164.015 36.6839 163.977V163.943C36.4055 163.871 36.1839 163.715 36.0192 163.474C35.8544 163.232 35.773 162.956 35.7749 162.648C35.773 162.352 35.8478 162.088 35.9993 161.855C36.1508 161.622 36.3591 161.438 36.6243 161.304C36.8913 161.17 37.1953 161.102 37.5362 161.102C37.8733 161.102 38.1745 161.17 38.4396 161.304C38.7048 161.438 38.9131 161.622 39.0646 161.855C39.218 162.088 39.2957 162.352 39.2976 162.648C39.2957 162.956 39.2114 163.232 39.0447 163.474C38.88 163.715 38.6612 163.871 38.3885 163.943V163.977C38.5987 164.015 38.7881 164.105 38.9567 164.247C39.1252 164.387 39.2597 164.562 39.3601 164.773C39.4605 164.981 39.5116 165.208 39.5135 165.455C39.5116 165.769 39.4264 166.049 39.2578 166.295C39.0911 166.54 38.8591 166.732 38.5618 166.872C38.2663 167.01 37.9245 167.08 37.5362 167.08ZM37.5362 166.455C37.7995 166.455 38.0268 166.412 38.218 166.327C38.4093 166.241 38.5571 166.121 38.6612 165.966C38.7654 165.811 38.8184 165.629 38.8203 165.42C38.8184 165.201 38.7616 165.007 38.6499 164.838C38.5381 164.67 38.3857 164.537 38.1925 164.44C38.0012 164.344 37.7824 164.295 37.5362 164.295C37.2881 164.295 37.0665 164.344 36.8714 164.44C36.6783 164.537 36.5258 164.67 36.4141 164.838C36.3042 165.007 36.2502 165.201 36.2521 165.42C36.2502 165.629 36.3004 165.811 36.4027 165.966C36.5069 166.121 36.6555 166.241 36.8487 166.327C37.0419 166.412 37.2711 166.455 37.5362 166.455ZM37.5362 163.693C37.7446 163.693 37.9292 163.652 38.0902 163.568C38.2531 163.485 38.3809 163.368 38.4737 163.219C38.5665 163.069 38.6139 162.894 38.6158 162.693C38.6139 162.496 38.5675 162.325 38.4766 162.179C38.3857 162.031 38.2597 161.918 38.0987 161.838C37.9377 161.757 37.7502 161.716 37.5362 161.716C37.3184 161.716 37.1281 161.757 36.9652 161.838C36.8023 161.918 36.6764 162.031 36.5874 162.179C36.4983 162.325 36.4548 162.496 36.4567 162.693C36.4548 162.894 36.4993 163.069 36.5902 163.219C36.683 163.368 36.8108 163.485 36.9737 163.568C37.1366 163.652 37.3241 163.693 37.5362 163.693Z" fill="#353535"/>
<path d="M48.8536 167V166.489L50.774 164.386C50.9994 164.14 51.185 163.926 51.3308 163.744C51.4767 163.561 51.5846 163.388 51.6547 163.227C51.7267 163.064 51.7626 162.894 51.7626 162.716C51.7626 162.511 51.7134 162.334 51.6149 162.185C51.5183 162.035 51.3857 161.92 51.2172 161.838C51.0486 161.757 50.8592 161.716 50.649 161.716C50.4255 161.716 50.2304 161.762 50.0638 161.855C49.899 161.946 49.7712 162.074 49.6803 162.239C49.5912 162.403 49.5467 162.597 49.5467 162.818H48.8763C48.8763 162.477 48.9549 162.178 49.1121 161.92C49.2693 161.663 49.4833 161.462 49.7541 161.318C50.0268 161.174 50.3327 161.102 50.6717 161.102C51.0126 161.102 51.3147 161.174 51.578 161.318C51.8412 161.462 52.0477 161.656 52.1973 161.901C52.3469 162.145 52.4217 162.417 52.4217 162.716C52.4217 162.93 52.3829 163.139 52.3053 163.344C52.2295 163.546 52.0969 163.773 51.9075 164.023C51.72 164.271 51.4596 164.574 51.1263 164.932L49.8195 166.33V166.375H52.524V167H48.8536ZM55.467 167.08C55.039 167.08 54.6744 166.963 54.3732 166.73C54.0721 166.495 53.842 166.155 53.6829 165.71C53.5238 165.263 53.4443 164.723 53.4443 164.091C53.4443 163.462 53.5238 162.925 53.6829 162.48C53.8439 162.033 54.075 161.692 54.3761 161.457C54.6791 161.221 55.0428 161.102 55.467 161.102C55.8912 161.102 56.2539 161.221 56.5551 161.457C56.8581 161.692 57.0892 162.033 57.2482 162.48C57.4092 162.925 57.4897 163.462 57.4897 164.091C57.4897 164.723 57.4102 165.263 57.2511 165.71C57.092 166.155 56.8619 166.495 56.5607 166.73C56.2596 166.963 55.895 167.08 55.467 167.08ZM55.467 166.455C55.8912 166.455 56.2208 166.25 56.4556 165.841C56.6905 165.432 56.8079 164.848 56.8079 164.091C56.8079 163.587 56.7539 163.158 56.646 162.804C56.5399 162.45 56.3865 162.18 56.1857 161.994C55.9869 161.809 55.7473 161.716 55.467 161.716C55.0465 161.716 54.7179 161.923 54.4812 162.338C54.2445 162.751 54.1261 163.335 54.1261 164.091C54.1261 164.595 54.1791 165.023 54.2852 165.375C54.3912 165.727 54.5437 165.995 54.7426 166.179C54.9433 166.363 55.1848 166.455 55.467 166.455ZM60.4867 161.182V167H59.7822V161.92H59.7481L58.3276 162.864V162.148L59.7822 161.182H60.4867ZM63.9297 167.08C63.5017 167.08 63.1371 166.963 62.8359 166.73C62.5348 166.495 62.3047 166.155 62.1456 165.71C61.9865 165.263 61.907 164.723 61.907 164.091C61.907 163.462 61.9865 162.925 62.1456 162.48C62.3066 162.033 62.5376 161.692 62.8388 161.457C63.1418 161.221 63.5054 161.102 63.9297 161.102C64.3539 161.102 64.7166 161.221 65.0178 161.457C65.3208 161.692 65.5518 162.033 65.7109 162.48C65.8719 162.925 65.9524 163.462 65.9524 164.091C65.9524 164.723 65.8729 165.263 65.7138 165.71C65.5547 166.155 65.3246 166.495 65.0234 166.73C64.7223 166.963 64.3577 167.08 63.9297 167.08ZM63.9297 166.455C64.3539 166.455 64.6835 166.25 64.9183 165.841C65.1532 165.432 65.2706 164.848 65.2706 164.091C65.2706 163.587 65.2166 163.158 65.1087 162.804C65.0026 162.45 64.8492 162.18 64.6484 161.994C64.4496 161.809 64.21 161.716 63.9297 161.716C63.5092 161.716 63.1806 161.923 62.9439 162.338C62.7072 162.751 62.5888 163.335 62.5888 164.091C62.5888 164.595 62.6418 165.023 62.7479 165.375C62.8539 165.727 63.0064 165.995 63.2053 166.179C63.406 166.363 63.6475 166.455 63.9297 166.455Z" fill="#353535"/>
<path d="M75.4395 167V166.489L77.3599 164.386C77.5853 164.14 77.7709 163.926 77.9168 163.744C78.0626 163.561 78.1706 163.388 78.2406 163.227C78.3126 163.064 78.3486 162.894 78.3486 162.716C78.3486 162.511 78.2993 162.334 78.2009 162.185C78.1043 162.035 77.9717 161.92 77.8031 161.838C77.6346 161.757 77.4452 161.716 77.2349 161.716C77.0115 161.716 76.8164 161.762 76.6497 161.855C76.4849 161.946 76.3571 162.074 76.2662 162.239C76.1772 162.403 76.1327 162.597 76.1327 162.818H75.4622C75.4622 162.477 75.5408 162.178 75.698 161.92C75.8552 161.663 76.0692 161.462 76.3401 161.318C76.6128 161.174 76.9187 161.102 77.2577 161.102C77.5986 161.102 77.9007 161.174 78.1639 161.318C78.4272 161.462 78.6336 161.656 78.7832 161.901C78.9329 162.145 79.0077 162.417 79.0077 162.716C79.0077 162.93 78.9688 163.139 78.8912 163.344C78.8154 163.546 78.6829 163.773 78.4935 164.023C78.306 164.271 78.0456 164.574 77.7122 164.932L76.4054 166.33V166.375H79.1099V167H75.4395ZM82.0529 167.08C81.6249 167.08 81.2603 166.963 80.9592 166.73C80.6581 166.495 80.4279 166.155 80.2688 165.71C80.1098 165.263 80.0302 164.723 80.0302 164.091C80.0302 163.462 80.1098 162.925 80.2688 162.48C80.4298 162.033 80.6609 161.692 80.962 161.457C81.2651 161.221 81.6287 161.102 82.0529 161.102C82.4772 161.102 82.8399 161.221 83.141 161.457C83.444 161.692 83.6751 162.033 83.8342 162.48C83.9952 162.925 84.0757 163.462 84.0757 164.091C84.0757 164.723 83.9961 165.263 83.837 165.71C83.6779 166.155 83.4478 166.495 83.1467 166.73C82.8456 166.963 82.481 167.08 82.0529 167.08ZM82.0529 166.455C82.4772 166.455 82.8067 166.25 83.0416 165.841C83.2764 165.432 83.3938 164.848 83.3938 164.091C83.3938 163.587 83.3399 163.158 83.2319 162.804C83.1259 162.45 82.9724 162.18 82.7717 161.994C82.5728 161.809 82.3332 161.716 82.0529 161.716C81.6325 161.716 81.3039 161.923 81.0671 162.338C80.8304 162.751 80.712 163.335 80.712 164.091C80.712 164.595 80.7651 165.023 80.8711 165.375C80.9772 165.727 81.1296 165.995 81.3285 166.179C81.5293 166.363 81.7707 166.455 82.0529 166.455ZM87.0726 161.182V167H86.3681V161.92H86.334L84.9135 162.864V162.148L86.3681 161.182H87.0726ZM88.6179 167V166.489L90.5384 164.386C90.7637 164.14 90.9493 163.926 91.0952 163.744C91.241 163.561 91.349 163.388 91.419 163.227C91.491 163.064 91.527 162.894 91.527 162.716C91.527 162.511 91.4777 162.334 91.3793 162.185C91.2827 162.035 91.1501 161.92 90.9815 161.838C90.813 161.757 90.6236 161.716 90.4134 161.716C90.1899 161.716 89.9948 161.762 89.8281 161.855C89.6634 161.946 89.5355 162.074 89.4446 162.239C89.3556 162.403 89.3111 162.597 89.3111 162.818H88.6406C88.6406 162.477 88.7192 162.178 88.8764 161.92C89.0336 161.663 89.2476 161.462 89.5185 161.318C89.7912 161.174 90.0971 161.102 90.4361 161.102C90.777 161.102 91.0791 161.174 91.3423 161.318C91.6056 161.462 91.812 161.656 91.9616 161.901C92.1113 162.145 92.1861 162.417 92.1861 162.716C92.1861 162.93 92.1473 163.139 92.0696 163.344C91.9938 163.546 91.8613 163.773 91.6719 164.023C91.4844 164.271 91.224 164.574 90.8906 164.932L89.5838 166.33V166.375H92.2884V167H88.6179Z" fill="#353535"/>
<path d="M101.58 167V166.489L103.501 164.386C103.726 164.14 103.912 163.926 104.057 163.744C104.203 163.561 104.311 163.388 104.381 163.227C104.453 163.064 104.489 162.894 104.489 162.716C104.489 162.511 104.44 162.334 104.341 162.185C104.245 162.035 104.112 161.92 103.944 161.838C103.775 161.757 103.586 161.716 103.376 161.716C103.152 161.716 102.957 161.762 102.79 161.855C102.626 161.946 102.498 162.074 102.407 162.239C102.318 162.403 102.273 162.597 102.273 162.818H101.603C101.603 162.477 101.681 162.178 101.839 161.92C101.996 161.663 102.21 161.462 102.481 161.318C102.753 161.174 103.059 161.102 103.398 161.102C103.739 161.102 104.041 161.174 104.305 161.318C104.568 161.462 104.774 161.656 104.924 161.901C105.073 162.145 105.148 162.417 105.148 162.716C105.148 162.93 105.109 163.139 105.032 163.344C104.956 163.546 104.823 163.773 104.634 164.023C104.447 164.271 104.186 164.574 103.853 164.932L102.546 166.33V166.375H105.251V167H101.58ZM108.194 167.08C107.766 167.08 107.401 166.963 107.1 166.73C106.799 166.495 106.569 166.155 106.409 165.71C106.25 165.263 106.171 164.723 106.171 164.091C106.171 163.462 106.25 162.925 106.409 162.48C106.57 162.033 106.802 161.692 107.103 161.457C107.406 161.221 107.769 161.102 108.194 161.102C108.618 161.102 108.98 161.221 109.282 161.457C109.585 161.692 109.816 162.033 109.975 162.48C110.136 162.925 110.216 163.462 110.216 164.091C110.216 164.723 110.137 165.263 109.978 165.71C109.819 166.155 109.588 166.495 109.287 166.73C108.986 166.963 108.622 167.08 108.194 167.08ZM108.194 166.455C108.618 166.455 108.947 166.25 109.182 165.841C109.417 165.432 109.534 164.848 109.534 164.091C109.534 163.587 109.48 163.158 109.373 162.804C109.266 162.45 109.113 162.18 108.912 161.994C108.713 161.809 108.474 161.716 108.194 161.716C107.773 161.716 107.445 161.923 107.208 162.338C106.971 162.751 106.853 163.335 106.853 164.091C106.853 164.595 106.906 165.023 107.012 165.375C107.118 165.727 107.27 165.995 107.469 166.179C107.67 166.363 107.911 166.455 108.194 166.455ZM113.213 161.182V167H112.509V161.92H112.475L111.054 162.864V162.148L112.509 161.182H113.213ZM114.622 165.807V165.227L117.179 161.182H117.599V162.08H117.315L115.384 165.136V165.182H118.827V165.807H114.622ZM117.361 167V165.631V165.361V161.182H118.031V167H117.361Z" fill="#353535"/>
<path d="M128.143 167V166.489L130.063 164.386C130.288 164.14 130.474 163.926 130.62 163.744C130.766 163.561 130.874 163.388 130.944 163.227C131.016 163.064 131.052 162.894 131.052 162.716C131.052 162.511 131.002 162.334 130.904 162.185C130.807 162.035 130.675 161.92 130.506 161.838C130.338 161.757 130.148 161.716 129.938 161.716C129.715 161.716 129.52 161.762 129.353 161.855C129.188 161.946 129.06 162.074 128.969 162.239C128.88 162.403 128.836 162.597 128.836 162.818H128.165C128.165 162.477 128.244 162.178 128.401 161.92C128.558 161.663 128.772 161.462 129.043 161.318C129.316 161.174 129.622 161.102 129.961 161.102C130.302 161.102 130.604 161.174 130.867 161.318C131.13 161.462 131.337 161.656 131.486 161.901C131.636 162.145 131.711 162.417 131.711 162.716C131.711 162.93 131.672 163.139 131.594 163.344C131.519 163.546 131.386 163.773 131.197 164.023C131.009 164.271 130.749 164.574 130.415 164.932L129.109 166.33V166.375H131.813V167H128.143ZM134.756 167.08C134.328 167.08 133.963 166.963 133.662 166.73C133.361 166.495 133.131 166.155 132.972 165.71C132.813 165.263 132.733 164.723 132.733 164.091C132.733 163.462 132.813 162.925 132.972 162.48C133.133 162.033 133.364 161.692 133.665 161.457C133.968 161.221 134.332 161.102 134.756 161.102C135.18 161.102 135.543 161.221 135.844 161.457C136.147 161.692 136.378 162.033 136.537 162.48C136.698 162.925 136.779 163.462 136.779 164.091C136.779 164.723 136.699 165.263 136.54 165.71C136.381 166.155 136.151 166.495 135.85 166.73C135.549 166.963 135.184 167.08 134.756 167.08ZM134.756 166.455C135.18 166.455 135.51 166.25 135.745 165.841C135.98 165.432 136.097 164.848 136.097 164.091C136.097 163.587 136.043 163.158 135.935 162.804C135.829 162.45 135.676 162.18 135.475 161.994C135.276 161.809 135.036 161.716 134.756 161.716C134.336 161.716 134.007 161.923 133.77 162.338C133.534 162.751 133.415 163.335 133.415 164.091C133.415 164.595 133.468 165.023 133.574 165.375C133.68 165.727 133.833 165.995 134.032 166.179C134.232 166.363 134.474 166.455 134.756 166.455ZM139.776 161.182V167H139.071V161.92H139.037L137.617 162.864V162.148L139.071 161.182H139.776ZM143.253 167.08C143.014 167.076 142.776 167.03 142.537 166.943C142.298 166.856 142.08 166.709 141.884 166.503C141.687 166.295 141.528 166.013 141.409 165.659C141.29 165.303 141.23 164.856 141.23 164.318C141.23 163.803 141.278 163.347 141.375 162.949C141.472 162.549 141.612 162.213 141.795 161.94C141.979 161.666 142.201 161.457 142.46 161.315C142.722 161.173 143.016 161.102 143.344 161.102C143.67 161.102 143.959 161.168 144.213 161.298C144.469 161.427 144.677 161.607 144.838 161.838C144.999 162.069 145.103 162.335 145.151 162.636H144.457C144.393 162.375 144.268 162.158 144.082 161.986C143.897 161.813 143.651 161.727 143.344 161.727C142.893 161.727 142.538 161.923 142.278 162.315C142.021 162.707 141.891 163.258 141.889 163.966H141.935C142.041 163.805 142.167 163.668 142.313 163.554C142.46 163.438 142.623 163.349 142.801 163.287C142.979 163.224 143.168 163.193 143.366 163.193C143.7 163.193 144.005 163.277 144.281 163.443C144.558 163.608 144.779 163.836 144.946 164.128C145.113 164.418 145.196 164.75 145.196 165.125C145.196 165.485 145.116 165.814 144.955 166.114C144.794 166.411 144.567 166.648 144.276 166.824C143.986 166.998 143.645 167.083 143.253 167.08ZM143.253 166.455C143.491 166.455 143.705 166.395 143.895 166.276C144.086 166.156 144.237 165.996 144.347 165.795C144.458 165.595 144.514 165.371 144.514 165.125C144.514 164.884 144.46 164.666 144.352 164.469C144.246 164.27 144.099 164.112 143.912 163.994C143.726 163.877 143.514 163.818 143.276 163.818C143.096 163.818 142.928 163.854 142.773 163.926C142.617 163.996 142.481 164.093 142.364 164.216C142.248 164.339 142.157 164.48 142.091 164.639C142.025 164.796 141.991 164.962 141.991 165.136C141.991 165.367 142.045 165.583 142.153 165.784C142.263 165.985 142.413 166.147 142.602 166.27C142.794 166.393 143.01 166.455 143.253 166.455Z" fill="#353535"/>
<path d="M154.635 167V166.489L156.555 164.386C156.781 164.14 156.966 163.926 157.112 163.744C157.258 163.561 157.366 163.388 157.436 163.227C157.508 163.064 157.544 162.894 157.544 162.716C157.544 162.511 157.495 162.334 157.396 162.185C157.3 162.035 157.167 161.92 156.998 161.838C156.83 161.757 156.64 161.716 156.43 161.716C156.207 161.716 156.012 161.762 155.845 161.855C155.68 161.946 155.552 162.074 155.462 162.239C155.372 162.403 155.328 162.597 155.328 162.818H154.658C154.658 162.477 154.736 162.178 154.893 161.92C155.051 161.663 155.265 161.462 155.535 161.318C155.808 161.174 156.114 161.102 156.453 161.102C156.794 161.102 157.096 161.174 157.359 161.318C157.622 161.462 157.829 161.656 157.979 161.901C158.128 162.145 158.203 162.417 158.203 162.716C158.203 162.93 158.164 163.139 158.087 163.344C158.011 163.546 157.878 163.773 157.689 164.023C157.501 164.271 157.241 164.574 156.908 164.932L155.601 166.33V166.375H158.305V167H154.635ZM161.248 167.08C160.82 167.08 160.456 166.963 160.154 166.73C159.853 166.495 159.623 166.155 159.464 165.71C159.305 165.263 159.226 164.723 159.226 164.091C159.226 163.462 159.305 162.925 159.464 162.48C159.625 162.033 159.856 161.692 160.157 161.457C160.46 161.221 160.824 161.102 161.248 161.102C161.672 161.102 162.035 161.221 162.336 161.457C162.639 161.692 162.87 162.033 163.029 162.48C163.19 162.925 163.271 163.462 163.271 164.091C163.271 164.723 163.191 165.263 163.032 165.71C162.873 166.155 162.643 166.495 162.342 166.73C162.041 166.963 161.676 167.08 161.248 167.08ZM161.248 166.455C161.672 166.455 162.002 166.25 162.237 165.841C162.472 165.432 162.589 164.848 162.589 164.091C162.589 163.587 162.535 163.158 162.427 162.804C162.321 162.45 162.168 162.18 161.967 161.994C161.768 161.809 161.529 161.716 161.248 161.716C160.828 161.716 160.499 161.923 160.262 162.338C160.026 162.751 159.907 163.335 159.907 164.091C159.907 164.595 159.96 165.023 160.066 165.375C160.172 165.727 160.325 165.995 160.524 166.179C160.725 166.363 160.966 166.455 161.248 166.455ZM166.268 161.182V167H165.563V161.92H165.529L164.109 162.864V162.148L165.563 161.182H166.268ZM169.677 167.08C169.287 167.08 168.942 167.01 168.643 166.872C168.345 166.732 168.113 166.54 167.947 166.295C167.78 166.049 167.698 165.769 167.7 165.455C167.698 165.208 167.746 164.981 167.844 164.773C167.943 164.562 168.077 164.387 168.248 164.247C168.42 164.105 168.612 164.015 168.825 163.977V163.943C168.546 163.871 168.325 163.715 168.16 163.474C167.995 163.232 167.914 162.956 167.915 162.648C167.914 162.352 167.988 162.088 168.14 161.855C168.291 161.622 168.5 161.438 168.765 161.304C169.032 161.17 169.336 161.102 169.677 161.102C170.014 161.102 170.315 161.17 170.58 161.304C170.845 161.438 171.054 161.622 171.205 161.855C171.359 162.088 171.436 162.352 171.438 162.648C171.436 162.956 171.352 163.232 171.185 163.474C171.021 163.715 170.802 163.871 170.529 163.943V163.977C170.739 164.015 170.929 164.105 171.097 164.247C171.266 164.387 171.4 164.562 171.501 164.773C171.601 164.981 171.652 165.208 171.654 165.455C171.652 165.769 171.567 166.049 171.398 166.295C171.232 166.54 171 166.732 170.702 166.872C170.407 167.01 170.065 167.08 169.677 167.08ZM169.677 166.455C169.94 166.455 170.167 166.412 170.359 166.327C170.55 166.241 170.698 166.121 170.802 165.966C170.906 165.811 170.959 165.629 170.961 165.42C170.959 165.201 170.902 165.007 170.79 164.838C170.679 164.67 170.526 164.537 170.333 164.44C170.142 164.344 169.923 164.295 169.677 164.295C169.429 164.295 169.207 164.344 169.012 164.44C168.819 164.537 168.666 164.67 168.555 164.838C168.445 165.007 168.391 165.201 168.393 165.42C168.391 165.629 168.441 165.811 168.543 165.966C168.647 166.121 168.796 166.241 168.989 166.327C169.183 166.412 169.412 166.455 169.677 166.455ZM169.677 163.693C169.885 163.693 170.07 163.652 170.231 163.568C170.394 163.485 170.522 163.368 170.614 163.219C170.707 163.069 170.754 162.894 170.756 162.693C170.754 162.496 170.708 162.325 170.617 162.179C170.526 162.031 170.4 161.918 170.239 161.838C170.078 161.757 169.891 161.716 169.677 161.716C169.459 161.716 169.269 161.757 169.106 161.838C168.943 161.918 168.817 162.031 168.728 162.179C168.639 162.325 168.595 162.496 168.597 162.693C168.595 162.894 168.64 163.069 168.731 163.219C168.824 163.368 168.951 163.485 169.114 163.568C169.277 163.652 169.465 163.693 169.677 163.693Z" fill="#353535"/>
<path d="M179.869 167V166.489L181.79 164.386C182.015 164.14 182.201 163.926 182.346 163.744C182.492 163.561 182.6 163.388 182.67 163.227C182.742 163.064 182.778 162.894 182.778 162.716C182.778 162.511 182.729 162.334 182.631 162.185C182.534 162.035 182.401 161.92 182.233 161.838C182.064 161.757 181.875 161.716 181.665 161.716C181.441 161.716 181.246 161.762 181.079 161.855C180.915 161.946 180.787 162.074 180.696 162.239C180.607 162.403 180.562 162.597 180.562 162.818H179.892C179.892 162.477 179.971 162.178 180.128 161.92C180.285 161.663 180.499 161.462 180.77 161.318C181.042 161.174 181.348 161.102 181.687 161.102C182.028 161.102 182.33 161.174 182.594 161.318C182.857 161.462 183.063 161.656 183.213 161.901C183.363 162.145 183.437 162.417 183.437 162.716C183.437 162.93 183.399 163.139 183.321 163.344C183.245 163.546 183.113 163.773 182.923 164.023C182.736 164.271 182.475 164.574 182.142 164.932L180.835 166.33V166.375H183.54V167H179.869ZM186.483 167.08C186.055 167.08 185.69 166.963 185.389 166.73C185.088 166.495 184.858 166.155 184.699 165.71C184.539 165.263 184.46 164.723 184.46 164.091C184.46 163.462 184.539 162.925 184.699 162.48C184.86 162.033 185.091 161.692 185.392 161.457C185.695 161.221 186.058 161.102 186.483 161.102C186.907 161.102 187.27 161.221 187.571 161.457C187.874 161.692 188.105 162.033 188.264 162.48C188.425 162.925 188.505 163.462 188.505 164.091C188.505 164.723 188.426 165.263 188.267 165.71C188.108 166.155 187.878 166.495 187.576 166.73C187.275 166.963 186.911 167.08 186.483 167.08ZM186.483 166.455C186.907 166.455 187.236 166.25 187.471 165.841C187.706 165.432 187.824 164.848 187.824 164.091C187.824 163.587 187.77 163.158 187.662 162.804C187.556 162.45 187.402 162.18 187.201 161.994C187.003 161.809 186.763 161.716 186.483 161.716C186.062 161.716 185.734 161.923 185.497 162.338C185.26 162.751 185.142 163.335 185.142 164.091C185.142 164.595 185.195 165.023 185.301 165.375C185.407 165.727 185.559 165.995 185.758 166.179C185.959 166.363 186.2 166.455 186.483 166.455ZM189.457 167V166.489L191.377 164.386C191.603 164.14 191.788 163.926 191.934 163.744C192.08 163.561 192.188 163.388 192.258 163.227C192.33 163.064 192.366 162.894 192.366 162.716C192.366 162.511 192.317 162.334 192.218 162.185C192.122 162.035 191.989 161.92 191.821 161.838C191.652 161.757 191.463 161.716 191.252 161.716C191.029 161.716 190.834 161.762 190.667 161.855C190.502 161.946 190.374 162.074 190.284 162.239C190.195 162.403 190.15 162.597 190.15 162.818H189.48C189.48 162.477 189.558 162.178 189.715 161.92C189.873 161.663 190.087 161.462 190.357 161.318C190.63 161.174 190.936 161.102 191.275 161.102C191.616 161.102 191.918 161.174 192.181 161.318C192.445 161.462 192.651 161.656 192.801 161.901C192.95 162.145 193.025 162.417 193.025 162.716C193.025 162.93 192.986 163.139 192.909 163.344C192.833 163.546 192.7 163.773 192.511 164.023C192.323 164.271 192.063 164.574 191.73 164.932L190.423 166.33V166.375H193.127V167H189.457ZM196.07 167.08C195.642 167.08 195.278 166.963 194.977 166.73C194.675 166.495 194.445 166.155 194.286 165.71C194.127 165.263 194.048 164.723 194.048 164.091C194.048 163.462 194.127 162.925 194.286 162.48C194.447 162.033 194.678 161.692 194.979 161.457C195.282 161.221 195.646 161.102 196.07 161.102C196.495 161.102 196.857 161.221 197.158 161.457C197.461 161.692 197.692 162.033 197.852 162.48C198.013 162.925 198.093 163.462 198.093 164.091C198.093 164.723 198.013 165.263 197.854 165.71C197.695 166.155 197.465 166.495 197.164 166.73C196.863 166.963 196.498 167.08 196.07 167.08ZM196.07 166.455C196.495 166.455 196.824 166.25 197.059 165.841C197.294 165.432 197.411 164.848 197.411 164.091C197.411 163.587 197.357 163.158 197.249 162.804C197.143 162.45 196.99 162.18 196.789 161.994C196.59 161.809 196.351 161.716 196.07 161.716C195.65 161.716 195.321 161.923 195.085 162.338C194.848 162.751 194.729 163.335 194.729 164.091C194.729 164.595 194.782 165.023 194.888 165.375C194.995 165.727 195.147 165.995 195.346 166.179C195.547 166.363 195.788 166.455 196.07 166.455Z" fill="#353535"/>
<path d="M206.455 167V166.489L208.376 164.386C208.601 164.14 208.787 163.926 208.932 163.744C209.078 163.561 209.186 163.388 209.256 163.227C209.328 163.064 209.364 162.894 209.364 162.716C209.364 162.511 209.315 162.334 209.216 162.185C209.12 162.035 208.987 161.92 208.819 161.838C208.65 161.757 208.461 161.716 208.251 161.716C208.027 161.716 207.832 161.762 207.665 161.855C207.501 161.946 207.373 162.074 207.282 162.239C207.193 162.403 207.148 162.597 207.148 162.818H206.478C206.478 162.477 206.556 162.178 206.714 161.92C206.871 161.663 207.085 161.462 207.356 161.318C207.628 161.174 207.934 161.102 208.273 161.102C208.614 161.102 208.916 161.174 209.18 161.318C209.443 161.462 209.649 161.656 209.799 161.901C209.948 162.145 210.023 162.417 210.023 162.716C210.023 162.93 209.984 163.139 209.907 163.344C209.831 163.546 209.698 163.773 209.509 164.023C209.322 164.271 209.061 164.574 208.728 164.932L207.421 166.33V166.375H210.126V167H206.455ZM213.069 167.08C212.641 167.08 212.276 166.963 211.975 166.73C211.674 166.495 211.444 166.155 211.284 165.71C211.125 165.263 211.046 164.723 211.046 164.091C211.046 163.462 211.125 162.925 211.284 162.48C211.445 162.033 211.677 161.692 211.978 161.457C212.281 161.221 212.644 161.102 213.069 161.102C213.493 161.102 213.855 161.221 214.157 161.457C214.46 161.692 214.691 162.033 214.85 162.48C215.011 162.925 215.091 163.462 215.091 164.091C215.091 164.723 215.012 165.263 214.853 165.71C214.694 166.155 214.463 166.495 214.162 166.73C213.861 166.963 213.497 167.08 213.069 167.08ZM213.069 166.455C213.493 166.455 213.822 166.25 214.057 165.841C214.292 165.432 214.409 164.848 214.409 164.091C214.409 163.587 214.355 163.158 214.248 162.804C214.141 162.45 213.988 162.18 213.787 161.994C213.588 161.809 213.349 161.716 213.069 161.716C212.648 161.716 212.32 161.923 212.083 162.338C211.846 162.751 211.728 163.335 211.728 164.091C211.728 164.595 211.781 165.023 211.887 165.375C211.993 165.727 212.145 165.995 212.344 166.179C212.545 166.363 212.786 166.455 213.069 166.455ZM216.043 167V166.489L217.963 164.386C218.189 164.14 218.374 163.926 218.52 163.744C218.666 163.561 218.774 163.388 218.844 163.227C218.916 163.064 218.952 162.894 218.952 162.716C218.952 162.511 218.903 162.334 218.804 162.185C218.708 162.035 218.575 161.92 218.406 161.838C218.238 161.757 218.048 161.716 217.838 161.716C217.615 161.716 217.42 161.762 217.253 161.855C217.088 161.946 216.96 162.074 216.87 162.239C216.78 162.403 216.736 162.597 216.736 162.818H216.066C216.066 162.477 216.144 162.178 216.301 161.92C216.459 161.663 216.673 161.462 216.943 161.318C217.216 161.174 217.522 161.102 217.861 161.102C218.202 161.102 218.504 161.174 218.767 161.318C219.03 161.462 219.237 161.656 219.387 161.901C219.536 162.145 219.611 162.417 219.611 162.716C219.611 162.93 219.572 163.139 219.495 163.344C219.419 163.546 219.286 163.773 219.097 164.023C218.909 164.271 218.649 164.574 218.316 164.932L217.009 166.33V166.375H219.713V167H216.043ZM220.759 167V166.489L222.679 164.386C222.904 164.14 223.09 163.926 223.236 163.744C223.382 163.561 223.49 163.388 223.56 163.227C223.632 163.064 223.668 162.894 223.668 162.716C223.668 162.511 223.618 162.334 223.52 162.185C223.423 162.035 223.291 161.92 223.122 161.838C222.954 161.757 222.764 161.716 222.554 161.716C222.33 161.716 222.135 161.762 221.969 161.855C221.804 161.946 221.676 162.074 221.585 162.239C221.496 162.403 221.452 162.597 221.452 162.818H220.781C220.781 162.477 220.86 162.178 221.017 161.92C221.174 161.663 221.388 161.462 221.659 161.318C221.932 161.174 222.238 161.102 222.577 161.102C222.918 161.102 223.22 161.174 223.483 161.318C223.746 161.462 223.953 161.656 224.102 161.901C224.252 162.145 224.327 162.417 224.327 162.716C224.327 162.93 224.288 163.139 224.21 163.344C224.134 163.546 224.002 163.773 223.813 164.023C223.625 164.271 223.365 164.574 223.031 164.932L221.724 166.33V166.375H224.429V167H220.759Z" fill="#353535"/>
<g filter="url(#filter0_d_4231_148402)">
<path d="M57 142L83 138.5L110.5 142L137.5 138.5L149.5 7.5L163.5 148L190 142L216 138.5" stroke="#27A9E0" stroke-width="2"/>
</g>
<g filter="url(#filter1_d_4231_148402)">
<circle cx="58" cy="142" r="3" fill="white"/>
<circle cx="58" cy="142" r="3.73053" stroke="#27A9E0" stroke-width="1.46107"/>
</g>
<g filter="url(#filter2_d_4231_148402)">
<circle cx="84" cy="138" r="3" fill="white"/>
<circle cx="84" cy="138" r="3.73053" stroke="#27A9E0" stroke-width="1.46107"/>
</g>
<g filter="url(#filter3_d_4231_148402)">
<circle cx="111" cy="142" r="3" fill="white"/>
<circle cx="111" cy="142" r="3.73053" stroke="#27A9E0" stroke-width="1.46107"/>
</g>
<g filter="url(#filter4_d_4231_148402)">
<circle cx="138" cy="139" r="3" fill="white"/>
<circle cx="138" cy="139" r="3.73053" stroke="#27A9E0" stroke-width="1.46107"/>
</g>
<g filter="url(#filter5_d_4231_148402)">
<circle cx="149" cy="7" r="3" fill="white"/>
<circle cx="149" cy="7" r="3.73053" stroke="#27A9E0" stroke-width="1.46107"/>
</g>
<g filter="url(#filter6_d_4231_148402)">
<circle cx="165" cy="147" r="3" fill="white"/>
<circle cx="165" cy="147" r="3.73053" stroke="#27A9E0" stroke-width="1.46107"/>
</g>
<g filter="url(#filter7_d_4231_148402)">
<circle cx="190" cy="141" r="3" fill="white"/>
<circle cx="190" cy="141" r="3.73053" stroke="#27A9E0" stroke-width="1.46107"/>
</g>
<g filter="url(#filter8_d_4231_148402)">
<circle cx="216" cy="137" r="3" fill="white"/>
<circle cx="216" cy="137" r="3.73053" stroke="#27A9E0" stroke-width="1.46107"/>
</g>
<defs>
<filter id="filter0_d_4231_148402" x="52.8672" y="5.40039" width="167.266" height="149.825" filterUnits="userSpaceOnUse" color-interpolation-filters="sRGB">
<feFlood flood-opacity="0" result="BackgroundImageFix"/>
<feColorMatrix in="SourceAlpha" type="matrix" values="0 0 0 0 0 0 0 0 0 0 0 0 0 0 0 0 0 0 127 0" result="hardAlpha"/>
<feOffset dy="2"/>
<feGaussianBlur stdDeviation="2"/>
<feComposite in2="hardAlpha" operator="out"/>
<feColorMatrix type="matrix" values="0 0 0 0 0 0 0 0 0 0 0 0 0 0 0 0 0 0 0.2 0"/>
<feBlend mode="normal" in2="BackgroundImageFix" result="effect1_dropShadow_4231_148402"/>
<feBlend mode="normal" in="SourceGraphic" in2="effect1_dropShadow_4231_148402" result="shape"/>
</filter>
<filter id="filter1_d_4231_148402" x="49.5391" y="135.539" width="16.9219" height="16.9219" filterUnits="userSpaceOnUse" color-interpolation-filters="sRGB">
<feFlood flood-opacity="0" result="BackgroundImageFix"/>
<feColorMatrix in="SourceAlpha" type="matrix" values="0 0 0 0 0 0 0 0 0 0 0 0 0 0 0 0 0 0 127 0" result="hardAlpha"/>
<feOffset dy="2"/>
<feGaussianBlur stdDeviation="2"/>
<feComposite in2="hardAlpha" operator="out"/>
<feColorMatrix type="matrix" values="0 0 0 0 0 0 0 0 0 0 0 0 0 0 0 0 0 0 0.2 0"/>
<feBlend mode="normal" in2="BackgroundImageFix" result="effect1_dropShadow_4231_148402"/>
<feBlend mode="normal" in="SourceGraphic" in2="effect1_dropShadow_4231_148402" result="shape"/>
</filter>
<filter id="filter2_d_4231_148402" x="75.5391" y="131.539" width="16.9219" height="16.9219" filterUnits="userSpaceOnUse" color-interpolation-filters="sRGB">
<feFlood flood-opacity="0" result="BackgroundImageFix"/>
<feColorMatrix in="SourceAlpha" type="matrix" values="0 0 0 0 0 0 0 0 0 0 0 0 0 0 0 0 0 0 127 0" result="hardAlpha"/>
<feOffset dy="2"/>
<feGaussianBlur stdDeviation="2"/>
<feComposite in2="hardAlpha" operator="out"/>
<feColorMatrix type="matrix" values="0 0 0 0 0 0 0 0 0 0 0 0 0 0 0 0 0 0 0.2 0"/>
<feBlend mode="normal" in2="BackgroundImageFix" result="effect1_dropShadow_4231_148402"/>
<feBlend mode="normal" in="SourceGraphic" in2="effect1_dropShadow_4231_148402" result="shape"/>
</filter>
<filter id="filter3_d_4231_148402" x="102.539" y="135.539" width="16.9219" height="16.9219" filterUnits="userSpaceOnUse" color-interpolation-filters="sRGB">
<feFlood flood-opacity="0" result="BackgroundImageFix"/>
<feColorMatrix in="SourceAlpha" type="matrix" values="0 0 0 0 0 0 0 0 0 0 0 0 0 0 0 0 0 0 127 0" result="hardAlpha"/>
<feOffset dy="2"/>
<feGaussianBlur stdDeviation="2"/>
<feComposite in2="hardAlpha" operator="out"/>
<feColorMatrix type="matrix" values="0 0 0 0 0 0 0 0 0 0 0 0 0 0 0 0 0 0 0.2 0"/>
<feBlend mode="normal" in2="BackgroundImageFix" result="effect1_dropShadow_4231_148402"/>
<feBlend mode="normal" in="SourceGraphic" in2="effect1_dropShadow_4231_148402" result="shape"/>
</filter>
<filter id="filter4_d_4231_148402" x="129.539" y="132.539" width="16.9219" height="16.9219" filterUnits="userSpaceOnUse" color-interpolation-filters="sRGB">
<feFlood flood-opacity="0" result="BackgroundImageFix"/>
<feColorMatrix in="SourceAlpha" type="matrix" values="0 0 0 0 0 0 0 0 0 0 0 0 0 0 0 0 0 0 127 0" result="hardAlpha"/>
<feOffset dy="2"/>
<feGaussianBlur stdDeviation="2"/>
<feComposite in2="hardAlpha" operator="out"/>
<feColorMatrix type="matrix" values="0 0 0 0 0 0 0 0 0 0 0 0 0 0 0 0 0 0 0.2 0"/>
<feBlend mode="normal" in2="BackgroundImageFix" result="effect1_dropShadow_4231_148402"/>
<feBlend mode="normal" in="SourceGraphic" in2="effect1_dropShadow_4231_148402" result="shape"/>
</filter>
<filter id="filter5_d_4231_148402" x="140.539" y="0.539062" width="16.9219" height="16.9219" filterUnits="userSpaceOnUse" color-interpolation-filters="sRGB">
<feFlood flood-opacity="0" result="BackgroundImageFix"/>
<feColorMatrix in="SourceAlpha" type="matrix" values="0 0 0 0 0 0 0 0 0 0 0 0 0 0 0 0 0 0 127 0" result="hardAlpha"/>
<feOffset dy="2"/>
<feGaussianBlur stdDeviation="2"/>
<feComposite in2="hardAlpha" operator="out"/>
<feColorMatrix type="matrix" values="0 0 0 0 0 0 0 0 0 0 0 0 0 0 0 0 0 0 0.2 0"/>
<feBlend mode="normal" in2="BackgroundImageFix" result="effect1_dropShadow_4231_148402"/>
<feBlend mode="normal" in="SourceGraphic" in2="effect1_dropShadow_4231_148402" result="shape"/>
</filter>
<filter id="filter6_d_4231_148402" x="156.539" y="140.539" width="16.9219" height="16.9219" filterUnits="userSpaceOnUse" color-interpolation-filters="sRGB">
<feFlood flood-opacity="0" result="BackgroundImageFix"/>
<feColorMatrix in="SourceAlpha" type="matrix" values="0 0 0 0 0 0 0 0 0 0 0 0 0 0 0 0 0 0 127 0" result="hardAlpha"/>
<feOffset dy="2"/>
<feGaussianBlur stdDeviation="2"/>
<feComposite in2="hardAlpha" operator="out"/>
<feColorMatrix type="matrix" values="0 0 0 0 0 0 0 0 0 0 0 0 0 0 0 0 0 0 0.2 0"/>
<feBlend mode="normal" in2="BackgroundImageFix" result="effect1_dropShadow_4231_148402"/>
<feBlend mode="normal" in="SourceGraphic" in2="effect1_dropShadow_4231_148402" result="shape"/>
</filter>
<filter id="filter7_d_4231_148402" x="181.539" y="134.539" width="16.9219" height="16.9219" filterUnits="userSpaceOnUse" color-interpolation-filters="sRGB">
<feFlood flood-opacity="0" result="BackgroundImageFix"/>
<feColorMatrix in="SourceAlpha" type="matrix" values="0 0 0 0 0 0 0 0 0 0 0 0 0 0 0 0 0 0 127 0" result="hardAlpha"/>
<feOffset dy="2"/>
<feGaussianBlur stdDeviation="2"/>
<feComposite in2="hardAlpha" operator="out"/>
<feColorMatrix type="matrix" values="0 0 0 0 0 0 0 0 0 0 0 0 0 0 0 0 0 0 0.2 0"/>
<feBlend mode="normal" in2="BackgroundImageFix" result="effect1_dropShadow_4231_148402"/>
<feBlend mode="normal" in="SourceGraphic" in2="effect1_dropShadow_4231_148402" result="shape"/>
</filter>
<filter id="filter8_d_4231_148402" x="207.539" y="130.539" width="16.9219" height="16.9219" filterUnits="userSpaceOnUse" color-interpolation-filters="sRGB">
<feFlood flood-opacity="0" result="BackgroundImageFix"/>
<feColorMatrix in="SourceAlpha" type="matrix" values="0 0 0 0 0 0 0 0 0 0 0 0 0 0 0 0 0 0 127 0" result="hardAlpha"/>
<feOffset dy="2"/>
<feGaussianBlur stdDeviation="2"/>
<feComposite in2="hardAlpha" operator="out"/>
<feColorMatrix type="matrix" values="0 0 0 0 0 0 0 0 0 0 0 0 0 0 0 0 0 0 0.2 0"/>
<feBlend mode="normal" in2="BackgroundImageFix" result="effect1_dropShadow_4231_148402"/>
<feBlend mode="normal" in="SourceGraphic" in2="effect1_dropShadow_4231_148402" result="shape"/>
</filter>
</defs>
</svg>
