<svg width="141" height="140" viewBox="0 0 141 140" fill="none" xmlns="http://www.w3.org/2000/svg">
<circle cx="69.7004" cy="69.7063" r="52.4192" stroke="#13487A" stroke-width="33.459"/>
<path d="M121.982 69.9856C121.982 41.0353 98.5128 17.5664 69.5625 17.5664" stroke="#353535" stroke-width="33.459"/>
<path d="M69.2422 17.5664C43.3101 17.5664 21.7761 36.3969 17.5679 61.1301" stroke="#27A9E0" stroke-width="33.459"/>
<path d="M26.0797 39V37.892L28.6684 35.495C28.8886 35.282 29.0733 35.0902 29.2224 34.9197C29.3739 34.7493 29.4888 34.5824 29.5669 34.419C29.645 34.2533 29.6841 34.0746 29.6841 33.8828C29.6841 33.6697 29.6355 33.4863 29.5385 33.3324C29.4414 33.1761 29.3088 33.0566 29.1407 32.9737C28.9727 32.8885 28.7821 32.8459 28.569 32.8459C28.3465 32.8459 28.1523 32.8909 27.9866 32.9808C27.8209 33.0708 27.6931 33.1998 27.6031 33.3679C27.5131 33.536 27.4682 33.736 27.4682 33.968H26.0086C26.0086 33.4922 26.1164 33.0791 26.3318 32.7287C26.5472 32.3783 26.8491 32.1072 27.2373 31.9155C27.6256 31.7237 28.073 31.6278 28.5797 31.6278C29.1005 31.6278 29.5539 31.7202 29.9397 31.9048C30.328 32.0871 30.6299 32.3404 30.8453 32.6648C31.0607 32.9891 31.1684 33.3608 31.1684 33.7798C31.1684 34.0545 31.114 34.3255 31.0051 34.593C30.8986 34.8606 30.708 35.1577 30.4334 35.4844C30.1587 35.8087 29.7717 36.1982 29.2721 36.6527L28.2103 37.6932V37.7429H31.2643V39H26.0797ZM32.2926 39V37.892L34.8814 35.495C35.1016 35.282 35.2862 35.0902 35.4354 34.9197C35.5869 34.7493 35.7017 34.5824 35.7798 34.419C35.858 34.2533 35.897 34.0746 35.897 33.8828C35.897 33.6697 35.8485 33.4863 35.7514 33.3324C35.6544 33.1761 35.5218 33.0566 35.3537 32.9737C35.1856 32.8885 34.995 32.8459 34.782 32.8459C34.5594 32.8459 34.3653 32.8909 34.1996 32.9808C34.0339 33.0708 33.906 33.1998 33.8161 33.3679C33.7261 33.536 33.6811 33.736 33.6811 33.968H32.2216C32.2216 33.4922 32.3293 33.0791 32.5447 32.7287C32.7602 32.3783 33.062 32.1072 33.4503 31.9155C33.8385 31.7237 34.286 31.6278 34.7926 31.6278C35.3134 31.6278 35.7668 31.7202 36.1527 31.9048C36.541 32.0871 36.8428 32.3404 37.0582 32.6648C37.2737 32.9891 37.3814 33.3608 37.3814 33.7798C37.3814 34.0545 37.3269 34.3255 37.218 34.593C37.1115 34.8606 36.9209 35.1577 36.6463 35.4844C36.3717 35.8087 35.9846 36.1982 35.4851 36.6527L34.4233 37.6932V37.7429H37.4773V39H32.2926ZM42.4864 37.6364V37.2528C42.4864 36.9616 42.5479 36.6941 42.671 36.4503C42.7965 36.2041 42.9776 36.0076 43.2144 35.8608C43.4535 35.7116 43.7447 35.6371 44.0879 35.6371C44.436 35.6371 44.7283 35.7105 44.9651 35.8572C45.2042 36.004 45.3841 36.2005 45.5049 36.4467C45.628 36.6906 45.6895 36.9593 45.6895 37.2528V37.6364C45.6895 37.9276 45.628 38.1963 45.5049 38.4425C45.3817 38.6863 45.2006 38.8816 44.9615 39.0284C44.7224 39.1776 44.4312 39.2521 44.0879 39.2521C43.7399 39.2521 43.4476 39.1776 43.2108 39.0284C42.9741 38.8816 42.7942 38.6863 42.671 38.4425C42.5479 38.1963 42.4864 37.9276 42.4864 37.6364ZM43.5198 37.2528V37.6364C43.5198 37.8045 43.56 37.9631 43.6405 38.1122C43.7234 38.2614 43.8725 38.3359 44.0879 38.3359C44.3034 38.3359 44.4502 38.2625 44.5283 38.1158C44.6088 37.969 44.649 37.8092 44.649 37.6364V37.2528C44.649 37.08 44.6112 36.919 44.5354 36.7699C44.4596 36.6207 44.3105 36.5462 44.0879 36.5462C43.8749 36.5462 43.7269 36.6207 43.6441 36.7699C43.5612 36.919 43.5198 37.08 43.5198 37.2528ZM38.7541 33.4744V33.0909C38.7541 32.7973 38.8169 32.5286 38.9424 32.2848C39.0678 32.0386 39.2489 31.8421 39.4857 31.6953C39.7248 31.5485 40.0136 31.4751 40.3522 31.4751C40.7025 31.4751 40.9961 31.5485 41.2328 31.6953C41.4696 31.8421 41.6495 32.0386 41.7726 32.2848C41.8957 32.5286 41.9573 32.7973 41.9573 33.0909V33.4744C41.9573 33.768 41.8945 34.0367 41.7691 34.2805C41.646 34.5244 41.4648 34.7197 41.2257 34.8665C40.989 35.0109 40.6978 35.0831 40.3522 35.0831C40.0065 35.0831 39.7141 35.0097 39.475 34.8629C39.2383 34.7138 39.0584 34.5185 38.9353 34.277C38.8145 34.0331 38.7541 33.7656 38.7541 33.4744ZM39.7946 33.0909V33.4744C39.7946 33.6473 39.8349 33.8071 39.9154 33.9538C39.9982 34.1006 40.1438 34.174 40.3522 34.174C40.57 34.174 40.7179 34.1006 40.796 33.9538C40.8765 33.8071 40.9168 33.6473 40.9168 33.4744V33.0909C40.9168 32.9181 40.8789 32.7571 40.8031 32.608C40.7274 32.4588 40.5771 32.3842 40.3522 32.3842C40.1415 32.3842 39.9959 32.46 39.9154 32.6115C39.8349 32.763 39.7946 32.9228 39.7946 33.0909ZM39.2229 39L44.2229 31.7273H45.1533L40.1533 39H39.2229Z" fill="white"/>
<path d="M99.1031 38.916V37.8081L101.692 35.411C101.912 35.198 102.097 35.0062 102.246 34.8358C102.397 34.6653 102.512 34.4984 102.59 34.335C102.668 34.1693 102.708 33.9906 102.708 33.7988C102.708 33.5858 102.659 33.4023 102.562 33.2484C102.465 33.0922 102.332 32.9726 102.164 32.8897C101.996 32.8045 101.806 32.7619 101.592 32.7619C101.37 32.7619 101.176 32.8069 101.01 32.8968C100.844 32.9868 100.717 33.1158 100.627 33.2839C100.537 33.452 100.492 33.652 100.492 33.8841H99.0321C99.0321 33.4082 99.1398 32.9951 99.3552 32.6447C99.5707 32.2943 99.8725 32.0233 100.261 31.8315C100.649 31.6397 101.096 31.5439 101.603 31.5439C102.124 31.5439 102.577 31.6362 102.963 31.8208C103.351 32.0031 103.653 32.2565 103.869 32.5808C104.084 32.9051 104.192 33.2768 104.192 33.6958C104.192 33.9705 104.137 34.2415 104.029 34.5091C103.922 34.7766 103.731 35.0737 103.457 35.4004C103.182 35.7247 102.795 36.1142 102.296 36.5687L101.234 37.6092V37.6589H104.288V38.916H99.1031ZM108.029 39.0154C107.482 39.0154 106.996 38.9267 106.57 38.7491C106.146 38.5692 105.813 38.3242 105.572 38.014C105.33 37.7039 105.21 37.3523 105.21 36.9593C105.21 36.6563 105.278 36.3781 105.415 36.1248C105.555 35.8691 105.745 35.6573 105.984 35.4892C106.223 35.3187 106.49 35.2098 106.786 35.1625V35.1127C106.398 35.0346 106.083 34.8464 105.842 34.5481C105.6 34.2475 105.479 33.8983 105.479 33.5005C105.479 33.1241 105.589 32.7891 105.81 32.4956C106.03 32.1996 106.332 31.9676 106.715 31.7995C107.101 31.6291 107.539 31.5439 108.029 31.5439C108.519 31.5439 108.956 31.6291 109.339 31.7995C109.725 31.97 110.028 32.2032 110.249 32.4991C110.469 32.7927 110.58 33.1265 110.582 33.5005C110.58 33.9006 110.457 34.2498 110.213 34.5481C109.969 34.8464 109.657 35.0346 109.276 35.1127V35.1625C109.567 35.2098 109.831 35.3187 110.067 35.4892C110.307 35.6573 110.496 35.8691 110.636 36.1248C110.778 36.3781 110.85 36.6563 110.852 36.9593C110.85 37.3523 110.728 37.7039 110.487 38.014C110.245 38.3242 109.911 38.5692 109.485 38.7491C109.061 38.9267 108.576 39.0154 108.029 39.0154ZM108.029 37.8862C108.273 37.8862 108.486 37.8424 108.668 37.7548C108.851 37.6648 108.993 37.5417 109.094 37.3855C109.199 37.2269 109.251 37.0446 109.251 36.8386C109.251 36.6279 109.197 36.4421 109.091 36.2811C108.984 36.1177 108.84 35.9899 108.658 35.8975C108.475 35.8029 108.266 35.7555 108.029 35.7555C107.795 35.7555 107.585 35.8029 107.401 35.8975C107.216 35.9899 107.07 36.1177 106.964 36.2811C106.86 36.4421 106.808 36.6279 106.808 36.8386C106.808 37.0446 106.858 37.2269 106.96 37.3855C107.062 37.5417 107.205 37.6648 107.39 37.7548C107.575 37.8424 107.788 37.8862 108.029 37.8862ZM108.029 34.6369C108.233 34.6369 108.414 34.5955 108.572 34.5126C108.731 34.4297 108.855 34.3149 108.945 34.1681C109.035 34.0214 109.08 33.8521 109.08 33.6603C109.08 33.4709 109.035 33.3052 108.945 33.1632C108.855 33.0188 108.732 32.9063 108.576 32.8258C108.42 32.743 108.237 32.7015 108.029 32.7015C107.823 32.7015 107.641 32.743 107.482 32.8258C107.324 32.9063 107.199 33.0188 107.109 33.1632C107.022 33.3052 106.978 33.4709 106.978 33.6603C106.978 33.8521 107.023 34.0214 107.113 34.1681C107.203 34.3149 107.327 34.4297 107.486 34.5126C107.644 34.5955 107.826 34.6369 108.029 34.6369ZM115.822 37.5524V37.1689C115.822 36.8777 115.884 36.6101 116.007 36.3663C116.132 36.1201 116.314 35.9236 116.55 35.7768C116.789 35.6277 117.081 35.5531 117.424 35.5531C117.772 35.5531 118.064 35.6265 118.301 35.7733C118.54 35.92 118.72 36.1165 118.841 36.3627C118.964 36.6066 119.025 36.8753 119.025 37.1689V37.5524C119.025 37.8436 118.964 38.1123 118.841 38.3585C118.718 38.6023 118.537 38.7976 118.297 38.9444C118.058 39.0936 117.767 39.1681 117.424 39.1681C117.076 39.1681 116.783 39.0936 116.547 38.9444C116.31 38.7976 116.13 38.6023 116.007 38.3585C115.884 38.1123 115.822 37.8436 115.822 37.5524ZM116.856 37.1689V37.5524C116.856 37.7205 116.896 37.8791 116.976 38.0282C117.059 38.1774 117.208 38.252 117.424 38.252C117.639 38.252 117.786 38.1786 117.864 38.0318C117.945 37.885 117.985 37.7252 117.985 37.5524V37.1689C117.985 36.996 117.947 36.835 117.871 36.6859C117.796 36.5368 117.646 36.4622 117.424 36.4622C117.211 36.4622 117.063 36.5368 116.98 36.6859C116.897 36.835 116.856 36.996 116.856 37.1689ZM112.09 33.3904V33.0069C112.09 32.7134 112.153 32.4447 112.278 32.2008C112.404 31.9546 112.585 31.7581 112.822 31.6113C113.061 31.4645 113.35 31.3912 113.688 31.3912C114.038 31.3912 114.332 31.4645 114.569 31.6113C114.806 31.7581 114.985 31.9546 115.109 32.2008C115.232 32.4447 115.293 32.7134 115.293 33.0069V33.3904C115.293 33.684 115.23 33.9527 115.105 34.1966C114.982 34.4404 114.801 34.6357 114.562 34.7825C114.325 34.9269 114.034 34.9991 113.688 34.9991C113.342 34.9991 113.05 34.9257 112.811 34.7789C112.574 34.6298 112.394 34.4345 112.271 34.193C112.15 33.9492 112.09 33.6816 112.09 33.3904ZM113.131 33.0069V33.3904C113.131 33.5633 113.171 33.7231 113.251 33.8699C113.334 34.0166 113.48 34.09 113.688 34.09C113.906 34.09 114.054 34.0166 114.132 33.8699C114.212 33.7231 114.253 33.5633 114.253 33.3904V33.0069C114.253 32.8341 114.215 32.6731 114.139 32.524C114.063 32.3748 113.913 32.3002 113.688 32.3002C113.477 32.3002 113.332 32.376 113.251 32.5275C113.171 32.679 113.131 32.8388 113.131 33.0069ZM112.559 38.916L117.559 31.6433H118.489L113.489 38.916H112.559Z" fill="white"/>
<path d="M62.1978 126.142C61.6959 126.142 61.2485 126.05 60.8555 125.865C60.4649 125.681 60.1547 125.426 59.9251 125.102C59.6955 124.778 59.5759 124.406 59.5664 123.987H61.0579C61.0745 124.269 61.1929 124.497 61.413 124.672C61.6332 124.847 61.8948 124.935 62.1978 124.935C62.4393 124.935 62.6524 124.882 62.837 124.775C63.0241 124.666 63.1697 124.516 63.2738 124.324C63.3804 124.13 63.4336 123.908 63.4336 123.657C63.4336 123.401 63.3792 123.176 63.2703 122.982C63.1637 122.788 63.0158 122.636 62.8264 122.527C62.637 122.418 62.4204 122.363 62.1765 122.36C61.9635 122.36 61.7563 122.404 61.5551 122.492C61.3562 122.579 61.2011 122.699 61.0899 122.85L59.7227 122.605L60.0671 118.77H64.5132V120.027H61.3349L61.1467 121.849H61.1893C61.3171 121.669 61.5101 121.52 61.7681 121.402C62.0262 121.283 62.315 121.224 62.6346 121.224C63.0726 121.224 63.4632 121.327 63.8065 121.533C64.1498 121.739 64.4208 122.022 64.6197 122.382C64.8186 122.739 64.9168 123.151 64.9144 123.618C64.9168 124.108 64.8032 124.543 64.5735 124.924C64.3463 125.303 64.0278 125.601 63.6183 125.819C63.2111 126.035 62.7376 126.142 62.1978 126.142ZM68.7526 126.203C68.1418 126.2 67.6162 126.05 67.1759 125.752C66.7379 125.453 66.4005 125.021 66.1638 124.456C65.9294 123.89 65.8134 123.209 65.8158 122.414C65.8158 121.621 65.933 120.945 66.1673 120.386C66.4041 119.827 66.7414 119.402 67.1794 119.111C67.6198 118.818 68.1441 118.671 68.7526 118.671C69.361 118.671 69.8842 118.818 70.3222 119.111C70.7625 119.405 71.1011 119.831 71.3378 120.39C71.5745 120.946 71.6917 121.621 71.6894 122.414C71.6894 123.212 71.571 123.893 71.3343 124.459C71.0999 125.025 70.7637 125.457 70.3257 125.755C69.8878 126.054 69.3634 126.203 68.7526 126.203ZM68.7526 124.928C69.1692 124.928 69.5019 124.718 69.7504 124.299C69.999 123.88 70.1221 123.252 70.1198 122.414C70.1198 121.862 70.0629 121.403 69.9493 121.036C69.838 120.669 69.6794 120.393 69.4735 120.208C69.2699 120.024 69.0296 119.931 68.7526 119.931C68.3383 119.931 68.0068 120.139 67.7583 120.553C67.5097 120.967 67.3842 121.587 67.3818 122.414C67.3818 122.972 67.4375 123.439 67.5487 123.813C67.6624 124.185 67.8222 124.464 68.0281 124.651C68.2341 124.836 68.4756 124.928 68.7526 124.928ZM76.6807 124.679V124.296C76.6807 124.005 76.7423 123.737 76.8654 123.493C76.9909 123.247 77.172 123.051 77.4087 122.904C77.6478 122.755 77.939 122.68 78.2823 122.68C78.6303 122.68 78.9227 122.753 79.1594 122.9C79.3985 123.047 79.5785 123.243 79.6992 123.49C79.8223 123.734 79.8838 124.002 79.8838 124.296V124.679C79.8838 124.971 79.8223 125.239 79.6992 125.485C79.5761 125.729 79.395 125.925 79.1559 126.071C78.9168 126.221 78.6256 126.295 78.2823 126.295C77.9343 126.295 77.6419 126.221 77.4052 126.071C77.1684 125.925 76.9885 125.729 76.8654 125.485C76.7423 125.239 76.6807 124.971 76.6807 124.679ZM77.7141 124.296V124.679C77.7141 124.847 77.7544 125.006 77.8348 125.155C77.9177 125.304 78.0669 125.379 78.2823 125.379C78.4977 125.379 78.6445 125.306 78.7226 125.159C78.8031 125.012 78.8434 124.852 78.8434 124.679V124.296C78.8434 124.123 78.8055 123.962 78.7297 123.813C78.654 123.664 78.5048 123.589 78.2823 123.589C78.0692 123.589 77.9213 123.664 77.8384 123.813C77.7555 123.962 77.7141 124.123 77.7141 124.296ZM72.9485 120.517V120.134C72.9485 119.84 73.0112 119.572 73.1367 119.328C73.2622 119.082 73.4433 118.885 73.68 118.738C73.9191 118.592 74.2079 118.518 74.5465 118.518C74.8969 118.518 75.1904 118.592 75.4272 118.738C75.6639 118.885 75.8438 119.082 75.9669 119.328C76.0901 119.572 76.1516 119.84 76.1516 120.134V120.517C76.1516 120.811 76.0889 121.08 75.9634 121.324C75.8403 121.567 75.6592 121.763 75.4201 121.909C75.1833 122.054 74.8921 122.126 74.5465 122.126C74.2008 122.126 73.9085 122.053 73.6694 121.906C73.4326 121.757 73.2527 121.561 73.1296 121.32C73.0088 121.076 72.9485 120.809 72.9485 120.517ZM73.989 120.134V120.517C73.989 120.69 74.0292 120.85 74.1097 120.997C74.1926 121.144 74.3382 121.217 74.5465 121.217C74.7643 121.217 74.9123 121.144 74.9904 120.997C75.0709 120.85 75.1111 120.69 75.1111 120.517V120.134C75.1111 119.961 75.0732 119.8 74.9975 119.651C74.9217 119.502 74.7714 119.427 74.5465 119.427C74.3358 119.427 74.1902 119.503 74.1097 119.654C74.0292 119.806 73.989 119.966 73.989 120.134ZM73.4172 126.043L78.4172 118.77H79.3476L74.3476 126.043H73.4172Z" fill="white"/>
</svg>
