<svg width="552" height="323" viewBox="0 0 552 323" fill="none" xmlns="http://www.w3.org/2000/svg">
<path d="M5.14062 189.384L3.81818 189.384L3.81818 181.504L5.14062 181.504L5.14062 184.68L14 184.68L14 186.212L5.14062 186.212L5.14062 189.384ZM14 180.829L6.36364 180.829L6.36364 179.392L7.5767 179.392L7.5767 179.312C7.16572 179.173 6.84257 178.928 6.60724 178.576C6.36861 178.222 6.24929 177.821 6.24929 177.373C6.24929 177.28 6.2526 177.171 6.25923 177.045C6.26586 176.916 6.27415 176.815 6.28409 176.742L7.70597 176.742C7.68939 176.802 7.67116 176.908 7.65128 177.06C7.62808 177.213 7.61648 177.365 7.61648 177.517C7.61648 177.869 7.69105 178.182 7.8402 178.457C7.98603 178.729 8.18987 178.944 8.4517 179.103C8.71023 179.262 9.00521 179.342 9.33665 179.342L14 179.342L14 180.829ZM14.1541 172.592C14.1541 173.344 13.9934 173.992 13.6719 174.536C13.3471 175.076 12.8913 175.493 12.3047 175.788C11.7147 176.08 11.0237 176.226 10.2315 176.226C9.44934 176.226 8.75994 176.08 8.16335 175.788C7.56676 175.493 7.10109 175.083 6.76633 174.556C6.43158 174.025 6.2642 173.405 6.2642 172.696C6.2642 172.265 6.33546 171.848 6.47798 171.443C6.6205 171.039 6.84422 170.676 7.14915 170.355C7.45407 170.033 7.85014 169.779 8.33736 169.594C8.82126 169.408 9.40956 169.315 10.1023 169.315L10.6293 169.315L10.6293 175.386L9.51562 175.386L9.51562 170.772C9.12453 170.772 8.77817 170.852 8.47656 171.011C8.17164 171.17 7.93134 171.394 7.75568 171.682C7.58002 171.967 7.49219 172.302 7.49219 172.686C7.49219 173.104 7.59493 173.468 7.80043 173.78C8.0026 174.088 8.26775 174.327 8.59588 174.496C8.92069 174.662 9.27367 174.744 9.65483 174.744L10.5249 174.744C11.0353 174.744 11.4695 174.655 11.8274 174.476C12.1854 174.294 12.4588 174.04 12.6477 173.715C12.8333 173.391 12.9261 173.011 12.9261 172.577C12.9261 172.295 12.8864 172.038 12.8068 171.806C12.724 171.574 12.6013 171.374 12.4389 171.205C12.2765 171.036 12.076 170.906 11.8374 170.817L12.0909 169.41C12.5052 169.523 12.8681 169.725 13.1797 170.016C13.4879 170.305 13.7282 170.668 13.9006 171.105C14.0696 171.539 14.1541 172.035 14.1541 172.592ZM14.1541 164.529C14.1541 165.281 13.9934 165.929 13.6719 166.473C13.3471 167.013 12.8913 167.431 12.3047 167.726C11.7147 168.017 11.0237 168.163 10.2315 168.163C9.44934 168.163 8.75994 168.017 8.16335 167.726C7.56676 167.431 7.10109 167.02 6.76633 166.493C6.43158 165.962 6.2642 165.343 6.2642 164.633C6.2642 164.202 6.33546 163.785 6.47798 163.381C6.6205 162.976 6.84422 162.613 7.14915 162.292C7.45407 161.97 7.85014 161.717 8.33736 161.531C8.82126 161.345 9.40956 161.253 10.1023 161.253L10.6293 161.253L10.6293 167.323L9.51562 167.323L9.51562 162.709C9.12453 162.709 8.77817 162.789 8.47656 162.948C8.17164 163.107 7.93134 163.331 7.75568 163.619C7.58002 163.904 7.49219 164.239 7.49219 164.623C7.49219 165.041 7.59493 165.406 7.80042 165.717C8.0026 166.025 8.26775 166.264 8.59588 166.433C8.92069 166.599 9.27367 166.682 9.65483 166.682L10.5249 166.682C11.0353 166.682 11.4695 166.592 11.8274 166.413C12.1854 166.231 12.4588 165.977 12.6477 165.653C12.8333 165.328 12.9261 164.948 12.9261 164.514C12.9261 164.232 12.8864 163.975 12.8068 163.743C12.724 163.511 12.6013 163.311 12.4389 163.142C12.2765 162.973 12.076 162.844 11.8374 162.754L12.0909 161.347C12.5052 161.46 12.8681 161.662 13.1797 161.954C13.4879 162.242 13.7282 162.605 13.9006 163.042C14.0696 163.477 14.1541 163.972 14.1541 164.529ZM7.12926 147.63L7.12926 149.181C6.79782 149.241 6.50615 149.352 6.25426 149.514C6.00237 149.677 5.78859 149.876 5.61292 150.111C5.43726 150.346 5.30469 150.61 5.2152 150.902C5.12571 151.19 5.08096 151.497 5.08096 151.821C5.08096 152.408 5.22845 152.933 5.52344 153.397C5.81842 153.858 6.25095 154.223 6.82102 154.491C7.3911 154.756 8.08712 154.889 8.90909 154.889C9.73769 154.889 10.437 154.756 11.0071 154.491C11.5772 154.223 12.008 153.856 12.2997 153.392C12.5914 152.928 12.7372 152.406 12.7372 151.826C12.7372 151.505 12.6941 151.2 12.608 150.912C12.5185 150.62 12.3875 150.356 12.2152 150.121C12.0428 149.886 11.8324 149.687 11.5838 149.524C11.3319 149.359 11.0436 149.244 10.7187 149.181L10.7237 147.63C11.2242 147.713 11.6849 147.874 12.1058 148.113C12.5234 148.348 12.8847 148.651 13.1896 149.022C13.4912 149.39 13.7249 149.811 13.8906 150.285C14.0563 150.759 14.1392 151.276 14.1392 151.836C14.1392 152.718 13.9304 153.503 13.5128 154.193C13.0919 154.882 12.4903 155.426 11.7081 155.823C10.9259 156.218 9.9929 156.415 8.90909 156.415C7.82197 156.415 6.88897 156.216 6.11008 155.818C5.32789 155.421 4.72798 154.877 4.31037 154.188C3.88944 153.498 3.67898 152.715 3.67898 151.836C3.67898 151.296 3.75686 150.792 3.91264 150.325C4.0651 149.854 4.29048 149.432 4.58878 149.057C4.88376 148.683 5.24503 148.373 5.67258 148.127C6.09683 147.882 6.58238 147.716 7.12926 147.63ZM14.1541 142.849C14.1541 143.565 13.9901 144.189 13.6619 144.723C13.3338 145.257 12.8748 145.671 12.2848 145.966C11.6948 146.261 11.0054 146.408 10.2166 146.408C9.42448 146.408 8.73177 146.261 8.13849 145.966C7.54522 145.671 7.08451 145.257 6.75639 144.723C6.42827 144.189 6.2642 143.565 6.2642 142.849C6.2642 142.133 6.42827 141.508 6.75639 140.974C7.08451 140.441 7.54522 140.027 8.13849 139.732C8.73177 139.437 9.42448 139.289 10.2166 139.289C11.0054 139.289 11.6948 139.437 12.2848 139.732C12.8748 140.027 13.3338 140.441 13.6619 140.974C13.9901 141.508 14.1541 142.133 14.1541 142.849ZM12.9062 142.844C12.9062 142.38 12.7836 141.995 12.5384 141.69C12.2931 141.385 11.9666 141.16 11.5589 141.014C11.1513 140.865 10.7022 140.79 10.2116 140.79C9.72443 140.79 9.27699 140.865 8.86932 141.014C8.45833 141.16 8.12855 141.385 7.87997 141.69C7.63139 141.995 7.5071 142.38 7.5071 142.844C7.5071 143.311 7.63139 143.699 7.87997 144.007C8.12855 144.312 8.45833 144.539 8.86932 144.688C9.27699 144.834 9.72443 144.907 10.2116 144.907C10.7022 144.907 11.1513 144.834 11.5589 144.688C11.9666 144.539 12.2931 144.312 12.5384 144.007C12.7836 143.699 12.9062 143.311 12.9062 142.844ZM6.36363 131.511L14 134.28L14 135.871L6.36363 138.645L6.36363 137.049L12.2401 135.115L12.2401 135.036L6.36363 133.107L6.36363 131.511ZM14.1541 127.236C14.1541 127.989 13.9934 128.637 13.6719 129.18C13.3471 129.721 12.8913 130.138 12.3047 130.433C11.7147 130.725 11.0237 130.871 10.2315 130.871C9.44933 130.871 8.75994 130.725 8.16335 130.433C7.56676 130.138 7.10109 129.727 6.76633 129.2C6.43158 128.67 6.2642 128.05 6.2642 127.341C6.2642 126.91 6.33546 126.492 6.47798 126.088C6.6205 125.684 6.84422 125.321 7.14914 124.999C7.45407 124.678 7.85014 124.424 8.33736 124.239C8.82126 124.053 9.40956 123.96 10.1023 123.96L10.6293 123.96L10.6293 130.03L9.51562 130.03L9.51562 125.417C9.12452 125.417 8.77817 125.496 8.47656 125.655C8.17164 125.815 7.93134 126.038 7.75568 126.327C7.58002 126.612 7.49218 126.946 7.49218 127.331C7.49218 127.749 7.59493 128.113 7.80042 128.425C8.0026 128.733 8.26775 128.972 8.59588 129.141C8.92069 129.306 9.27367 129.389 9.65483 129.389L10.5249 129.389C11.0353 129.389 11.4695 129.3 11.8274 129.121C12.1854 128.938 12.4588 128.685 12.6477 128.36C12.8333 128.035 12.9261 127.656 12.9261 127.222C12.9261 126.94 12.8864 126.683 12.8068 126.451C12.724 126.219 12.6013 126.018 12.4389 125.849C12.2765 125.68 12.076 125.551 11.8374 125.462L12.0909 124.055C12.5052 124.167 12.8681 124.369 13.1797 124.661C13.4879 124.95 13.7282 125.312 13.9006 125.75C14.0696 126.184 14.1541 126.68 14.1541 127.236ZM14 122.465L6.36363 122.465L6.36363 121.028L7.5767 121.028L7.5767 120.949C7.16572 120.809 6.84256 120.564 6.60724 120.213C6.3686 119.858 6.24929 119.457 6.24929 119.01C6.24929 118.917 6.2526 118.807 6.25923 118.681C6.26586 118.552 6.27414 118.451 6.28409 118.378L7.70596 118.378C7.68939 118.438 7.67116 118.544 7.65128 118.696C7.62807 118.849 7.61647 119.001 7.61647 119.154C7.61647 119.505 7.69105 119.818 7.8402 120.093C7.98603 120.365 8.18986 120.581 8.4517 120.74C8.71022 120.899 9.00521 120.978 9.33664 120.978L14 120.978L14 122.465ZM12.0909 108.4L11.554 108.4C11.1695 108.4 10.8182 108.32 10.5 108.161C10.1785 107.999 9.92163 107.764 9.7294 107.455C9.53385 107.144 9.43608 106.768 9.43608 106.327C9.43608 105.876 9.53219 105.498 9.72443 105.193C9.91666 104.888 10.1735 104.658 10.495 104.502C10.8165 104.343 11.1695 104.264 11.554 104.264L12.0909 104.264C12.4754 104.264 12.8284 104.343 13.1499 104.502C13.468 104.661 13.7249 104.895 13.9205 105.203C14.1127 105.508 14.2088 105.883 14.2088 106.327C14.2088 106.774 14.1127 107.152 13.9205 107.46C13.7249 107.769 13.468 108.002 13.1499 108.161C12.8284 108.32 12.4754 108.4 12.0909 108.4ZM11.554 107.242L12.0909 107.242C12.3759 107.242 12.6345 107.174 12.8665 107.038C13.0985 106.902 13.2145 106.665 13.2145 106.327C13.2145 105.992 13.0985 105.758 12.8665 105.626C12.6345 105.493 12.3759 105.427 12.0909 105.427L11.554 105.427C11.2689 105.427 11.0104 105.492 10.7784 105.621C10.5464 105.747 10.4304 105.982 10.4304 106.327C10.4304 106.658 10.5464 106.894 10.7784 107.033C11.0104 107.172 11.2689 107.242 11.554 107.242ZM6.2642 113.521L5.72727 113.521C5.3428 113.521 4.98982 113.441 4.66832 113.282C4.34682 113.12 4.08996 112.884 3.89772 112.576C3.70549 112.265 3.60937 111.888 3.60937 111.448C3.60937 110.997 3.70549 110.619 3.89772 110.314C4.08996 110.009 4.34682 109.779 4.66832 109.623C4.98982 109.467 5.3428 109.389 5.72727 109.389L6.2642 109.389C6.64867 109.389 7.00165 109.469 7.32315 109.628C7.64133 109.784 7.8982 110.016 8.09375 110.324C8.28598 110.629 8.3821 111.003 8.3821 111.448C8.3821 111.898 8.28598 112.278 8.09375 112.586C7.8982 112.891 7.64133 113.123 7.32315 113.282C7.00165 113.441 6.64867 113.521 6.2642 113.521ZM5.72727 112.357L6.2642 112.357C6.54924 112.357 6.80776 112.291 7.03977 112.158C7.27178 112.023 7.38778 111.786 7.38778 111.448C7.38778 111.116 7.27178 110.884 7.03977 110.752C6.80776 110.616 6.54924 110.548 6.2642 110.548L5.72727 110.548C5.44223 110.548 5.18371 110.612 4.9517 110.742C4.71969 110.871 4.60369 111.106 4.60369 111.448C4.60369 111.779 4.71969 112.014 4.9517 112.154C5.18371 112.289 5.44223 112.357 5.72727 112.357ZM14 113.048L3.81818 106.048L3.81818 104.86L14 111.86L14 113.048Z" fill="#353535"/>
<path d="M82.1588 320V318.886L85.6041 315.317C85.972 314.929 86.2753 314.589 86.5139 314.298C86.7559 314.003 86.9365 313.723 87.0558 313.457C87.1751 313.192 87.2348 312.911 87.2348 312.612C87.2348 312.274 87.1552 311.982 86.9961 311.737C86.8371 311.489 86.62 311.298 86.3449 311.165C86.0698 311.03 85.7599 310.962 85.4152 310.962C85.0506 310.962 84.7324 311.036 84.4606 311.185C84.1889 311.335 83.98 311.545 83.8342 311.817C83.6884 312.089 83.6155 312.407 83.6155 312.771H82.1488C82.1488 312.152 82.2914 311.61 82.5764 311.146C82.8614 310.682 83.2525 310.322 83.7497 310.067C84.2469 309.808 84.812 309.679 85.445 309.679C86.0847 309.679 86.6481 309.807 87.1354 310.062C87.6259 310.314 88.0087 310.658 88.2838 311.096C88.5589 311.53 88.6964 312.021 88.6964 312.567C88.6964 312.945 88.6252 313.315 88.4827 313.676C88.3434 314.037 88.0998 314.44 87.7518 314.884C87.4038 315.325 86.9199 315.86 86.3001 316.49L84.2767 318.608V318.683H88.8605V320H82.1588ZM94.1355 320.169C93.35 320.166 92.6788 319.959 92.122 319.548C91.5652 319.137 91.1393 318.538 90.8443 317.753C90.5493 316.967 90.4018 316.021 90.4018 314.914C90.4018 313.81 90.5493 312.867 90.8443 312.085C91.1426 311.303 91.5701 310.706 92.1269 310.295C92.6871 309.884 93.3566 309.679 94.1355 309.679C94.9144 309.679 95.5822 309.886 96.139 310.3C96.6958 310.711 97.1217 311.308 97.4167 312.09C97.715 312.869 97.8642 313.81 97.8642 314.914C97.8642 316.024 97.7167 316.972 97.4217 317.758C97.1267 318.54 96.7008 319.138 96.144 319.553C95.5872 319.964 94.9177 320.169 94.1355 320.169ZM94.1355 318.842C94.8249 318.842 95.3635 318.505 95.7512 317.832C96.1423 317.16 96.3379 316.187 96.3379 314.914C96.3379 314.069 96.2484 313.355 96.0694 312.771C95.8938 312.185 95.6402 311.741 95.3088 311.439C94.9806 311.134 94.5895 310.982 94.1355 310.982C93.4494 310.982 92.9108 311.32 92.5197 311.996C92.1286 312.672 91.9314 313.645 91.9281 314.914C91.9281 315.763 92.0159 316.48 92.1916 317.067C92.3706 317.65 92.6241 318.093 92.9522 318.394C93.2804 318.692 93.6748 318.842 94.1355 318.842ZM99.4738 320V318.886L102.919 315.317C103.287 314.929 103.59 314.589 103.829 314.298C104.071 314.003 104.252 313.723 104.371 313.457C104.49 313.192 104.55 312.911 104.55 312.612C104.55 312.274 104.47 311.982 104.311 311.737C104.152 311.489 103.935 311.298 103.66 311.165C103.385 311.03 103.075 310.962 102.73 310.962C102.366 310.962 102.047 311.036 101.776 311.185C101.504 311.335 101.295 311.545 101.149 311.817C101.003 312.089 100.931 312.407 100.931 312.771H99.4639C99.4639 312.152 99.6064 311.61 99.8914 311.146C100.176 310.682 100.568 310.322 101.065 310.067C101.562 309.808 102.127 309.679 102.76 309.679C103.4 309.679 103.963 309.807 104.45 310.062C104.941 310.314 105.324 310.658 105.599 311.096C105.874 311.53 106.011 312.021 106.011 312.567C106.011 312.945 105.94 313.315 105.798 313.676C105.658 314.037 105.415 314.44 105.067 314.884C104.719 315.325 104.235 315.86 103.615 316.49L101.592 318.608V318.683H106.176V320H99.4738ZM111.451 320.169C110.665 320.166 109.994 319.959 109.437 319.548C108.88 319.137 108.454 318.538 108.159 317.753C107.864 316.967 107.717 316.021 107.717 314.914C107.717 313.81 107.864 312.867 108.159 312.085C108.458 311.303 108.885 310.706 109.442 310.295C110.002 309.884 110.672 309.679 111.451 309.679C112.229 309.679 112.897 309.886 113.454 310.3C114.011 310.711 114.437 311.308 114.732 312.09C115.03 312.869 115.179 313.81 115.179 314.914C115.179 316.024 115.032 316.972 114.737 317.758C114.442 318.54 114.016 319.138 113.459 319.553C112.902 319.964 112.233 320.169 111.451 320.169ZM111.451 318.842C112.14 318.842 112.678 318.505 113.066 317.832C113.457 317.16 113.653 316.187 113.653 314.914C113.653 314.069 113.563 313.355 113.384 312.771C113.209 312.185 112.955 311.741 112.624 311.439C112.296 311.134 111.905 310.982 111.451 310.982C110.764 310.982 110.226 311.32 109.835 311.996C109.444 312.672 109.246 313.645 109.243 314.914C109.243 315.763 109.331 316.48 109.507 317.067C109.686 317.65 109.939 318.093 110.267 318.394C110.595 318.692 110.99 318.842 111.451 318.842Z" fill="#353535"/>
<path d="M149.525 320V318.886L152.97 315.317C153.338 314.929 153.641 314.589 153.88 314.298C154.122 314.003 154.303 313.723 154.422 313.457C154.541 313.192 154.601 312.911 154.601 312.612C154.601 312.274 154.521 311.982 154.362 311.737C154.203 311.489 153.986 311.298 153.711 311.165C153.436 311.03 153.126 310.962 152.781 310.962C152.417 310.962 152.099 311.036 151.827 311.185C151.555 311.335 151.346 311.545 151.2 311.817C151.055 312.089 150.982 312.407 150.982 312.771H149.515C149.515 312.152 149.658 311.61 149.943 311.146C150.228 310.682 150.619 310.322 151.116 310.067C151.613 309.808 152.178 309.679 152.811 309.679C153.451 309.679 154.014 309.807 154.502 310.062C154.992 310.314 155.375 310.658 155.65 311.096C155.925 311.53 156.063 312.021 156.063 312.567C156.063 312.945 155.991 313.315 155.849 313.676C155.71 314.037 155.466 314.44 155.118 314.884C154.77 315.325 154.286 315.86 153.666 316.49L151.643 318.608V318.683H156.227V320H149.525ZM161.502 320.169C160.716 320.166 160.045 319.959 159.488 319.548C158.931 319.137 158.505 318.538 158.21 317.753C157.916 316.967 157.768 316.021 157.768 314.914C157.768 313.81 157.916 312.867 158.21 312.085C158.509 311.303 158.936 310.706 159.493 310.295C160.053 309.884 160.723 309.679 161.502 309.679C162.281 309.679 162.948 309.886 163.505 310.3C164.062 310.711 164.488 311.308 164.783 312.09C165.081 312.869 165.23 313.81 165.23 314.914C165.23 316.024 165.083 316.972 164.788 317.758C164.493 318.54 164.067 319.138 163.51 319.553C162.953 319.964 162.284 320.169 161.502 320.169ZM161.502 318.842C162.191 318.842 162.73 318.505 163.117 317.832C163.509 317.16 163.704 316.187 163.704 314.914C163.704 314.069 163.615 313.355 163.436 312.771C163.26 312.185 163.006 311.741 162.675 311.439C162.347 311.134 161.956 310.982 161.502 310.982C160.816 310.982 160.277 311.32 159.886 311.996C159.495 312.672 159.298 313.645 159.294 314.914C159.294 315.763 159.382 316.48 159.558 317.067C159.737 317.65 159.99 318.093 160.318 318.394C160.647 318.692 161.041 318.842 161.502 318.842ZM166.84 320V318.886L170.285 315.317C170.653 314.929 170.957 314.589 171.195 314.298C171.437 314.003 171.618 313.723 171.737 313.457C171.856 313.192 171.916 312.911 171.916 312.612C171.916 312.274 171.836 311.982 171.677 311.737C171.518 311.489 171.301 311.298 171.026 311.165C170.751 311.03 170.441 310.962 170.096 310.962C169.732 310.962 169.414 311.036 169.142 311.185C168.87 311.335 168.661 311.545 168.515 311.817C168.37 312.089 168.297 312.407 168.297 312.771H166.83C166.83 312.152 166.973 311.61 167.258 311.146C167.543 310.682 167.934 310.322 168.431 310.067C168.928 309.808 169.493 309.679 170.126 309.679C170.766 309.679 171.329 309.807 171.817 310.062C172.307 310.314 172.69 310.658 172.965 311.096C173.24 311.53 173.378 312.021 173.378 312.567C173.378 312.945 173.306 313.315 173.164 313.676C173.025 314.037 172.781 314.44 172.433 314.884C172.085 315.325 171.601 315.86 170.981 316.49L168.958 318.608V318.683H173.542V320H166.84ZM175.272 320V318.886L178.717 315.317C179.085 314.929 179.388 314.589 179.627 314.298C179.869 314.003 180.05 313.723 180.169 313.457C180.288 313.192 180.348 312.911 180.348 312.612C180.348 312.274 180.268 311.982 180.109 311.737C179.95 311.489 179.733 311.298 179.458 311.165C179.183 311.03 178.873 310.962 178.528 310.962C178.164 310.962 177.846 311.036 177.574 311.185C177.302 311.335 177.093 311.545 176.947 311.817C176.802 312.089 176.729 312.407 176.729 312.771H175.262C175.262 312.152 175.405 311.61 175.69 311.146C175.975 310.682 176.366 310.322 176.863 310.067C177.36 309.808 177.925 309.679 178.558 309.679C179.198 309.679 179.761 309.807 180.249 310.062C180.739 310.314 181.122 310.658 181.397 311.096C181.672 311.53 181.81 312.021 181.81 312.567C181.81 312.945 181.738 313.315 181.596 313.676C181.457 314.037 181.213 314.44 180.865 314.884C180.517 315.325 180.033 315.86 179.413 316.49L177.39 318.608V318.683H181.974V320H175.272Z" fill="#353535"/>
<path d="M216.496 320V318.886L219.941 315.317C220.309 314.929 220.612 314.589 220.851 314.298C221.093 314.003 221.273 313.723 221.393 313.457C221.512 313.192 221.572 312.911 221.572 312.612C221.572 312.274 221.492 311.982 221.333 311.737C221.174 311.489 220.957 311.298 220.682 311.165C220.407 311.03 220.097 310.962 219.752 310.962C219.388 310.962 219.069 311.036 218.798 311.185C218.526 311.335 218.317 311.545 218.171 311.817C218.025 312.089 217.952 312.407 217.952 312.771H216.486C216.486 312.152 216.628 311.61 216.913 311.146C217.198 310.682 217.589 310.322 218.087 310.067C218.584 309.808 219.149 309.679 219.782 309.679C220.422 309.679 220.985 309.807 221.472 310.062C221.963 310.314 222.346 310.658 222.621 311.096C222.896 311.53 223.033 312.021 223.033 312.567C223.033 312.945 222.962 313.315 222.82 313.676C222.68 314.037 222.437 314.44 222.089 314.884C221.741 315.325 221.257 315.86 220.637 316.49L218.614 318.608V318.683H223.197V320H216.496ZM228.472 320.169C227.687 320.166 227.016 319.959 226.459 319.548C225.902 319.137 225.476 318.538 225.181 317.753C224.886 316.967 224.739 316.021 224.739 314.914C224.739 313.81 224.886 312.867 225.181 312.085C225.479 311.303 225.907 310.706 226.464 310.295C227.024 309.884 227.693 309.679 228.472 309.679C229.251 309.679 229.919 309.886 230.476 310.3C231.033 310.711 231.459 311.308 231.754 312.09C232.052 312.869 232.201 313.81 232.201 314.914C232.201 316.024 232.054 316.972 231.759 317.758C231.464 318.54 231.038 319.138 230.481 319.553C229.924 319.964 229.255 320.169 228.472 320.169ZM228.472 318.842C229.162 318.842 229.7 318.505 230.088 317.832C230.479 317.16 230.675 316.187 230.675 314.914C230.675 314.069 230.585 313.355 230.406 312.771C230.231 312.185 229.977 311.741 229.646 311.439C229.318 311.134 228.926 310.982 228.472 310.982C227.786 310.982 227.248 311.32 226.857 311.996C226.466 312.672 226.268 313.645 226.265 314.914C226.265 315.763 226.353 316.48 226.528 317.067C226.707 317.65 226.961 318.093 227.289 318.394C227.617 318.692 228.012 318.842 228.472 318.842ZM233.811 320V318.886L237.256 315.317C237.624 314.929 237.927 314.589 238.166 314.298C238.408 314.003 238.588 313.723 238.708 313.457C238.827 313.192 238.887 312.911 238.887 312.612C238.887 312.274 238.807 311.982 238.648 311.737C238.489 311.489 238.272 311.298 237.997 311.165C237.722 311.03 237.412 310.962 237.067 310.962C236.703 310.962 236.384 311.036 236.113 311.185C235.841 311.335 235.632 311.545 235.486 311.817C235.34 312.089 235.267 312.407 235.267 312.771H233.801C233.801 312.152 233.943 311.61 234.228 311.146C234.513 310.682 234.904 310.322 235.402 310.067C235.899 309.808 236.464 309.679 237.097 309.679C237.737 309.679 238.3 309.807 238.787 310.062C239.278 310.314 239.661 310.658 239.936 311.096C240.211 311.53 240.348 312.021 240.348 312.567C240.348 312.945 240.277 313.315 240.135 313.676C239.995 314.037 239.752 314.44 239.404 314.884C239.056 315.325 238.572 315.86 237.952 316.49L235.929 318.608V318.683H240.512V320H233.811ZM241.81 318.011V316.768L246.21 309.818H247.189V311.648H246.568L243.421 316.629V316.709H249.451V318.011H241.81ZM246.638 320V317.634L246.648 317.067V309.818H248.104V320H246.638Z" fill="#353535"/>
<path d="M283.657 320V318.886L287.102 315.317C287.47 314.929 287.773 314.589 288.012 314.298C288.254 314.003 288.435 313.723 288.554 313.457C288.673 313.192 288.733 312.911 288.733 312.612C288.733 312.274 288.653 311.982 288.494 311.737C288.335 311.489 288.118 311.298 287.843 311.165C287.568 311.03 287.258 310.962 286.913 310.962C286.549 310.962 286.23 311.036 285.959 311.185C285.687 311.335 285.478 311.545 285.332 311.817C285.186 312.089 285.114 312.407 285.114 312.771H283.647C283.647 312.152 283.789 311.61 284.074 311.146C284.359 310.682 284.751 310.322 285.248 310.067C285.745 309.808 286.31 309.679 286.943 309.679C287.583 309.679 288.146 309.807 288.633 310.062C289.124 310.314 289.507 310.658 289.782 311.096C290.057 311.53 290.194 312.021 290.194 312.567C290.194 312.945 290.123 313.315 289.981 313.676C289.841 314.037 289.598 314.44 289.25 314.884C288.902 315.325 288.418 315.86 287.798 316.49L285.775 318.608V318.683H290.359V320H283.657ZM295.634 320.169C294.848 320.166 294.177 319.959 293.62 319.548C293.063 319.137 292.637 318.538 292.342 317.753C292.047 316.967 291.9 316.021 291.9 314.914C291.9 313.81 292.047 312.867 292.342 312.085C292.641 311.303 293.068 310.706 293.625 310.295C294.185 309.884 294.855 309.679 295.634 309.679C296.412 309.679 297.08 309.886 297.637 310.3C298.194 310.711 298.62 311.308 298.915 312.09C299.213 312.869 299.362 313.81 299.362 314.914C299.362 316.024 299.215 316.972 298.92 317.758C298.625 318.54 298.199 319.138 297.642 319.553C297.085 319.964 296.416 320.169 295.634 320.169ZM295.634 318.842C296.323 318.842 296.861 318.505 297.249 317.832C297.64 317.16 297.836 316.187 297.836 314.914C297.836 314.069 297.746 313.355 297.567 312.771C297.392 312.185 297.138 311.741 296.807 311.439C296.479 311.134 296.088 310.982 295.634 310.982C294.947 310.982 294.409 311.32 294.018 311.996C293.627 312.672 293.429 313.645 293.426 314.914C293.426 315.763 293.514 316.48 293.69 317.067C293.869 317.65 294.122 318.093 294.45 318.394C294.778 318.692 295.173 318.842 295.634 318.842ZM300.972 320V318.886L304.417 315.317C304.785 314.929 305.088 314.589 305.327 314.298C305.569 314.003 305.75 313.723 305.869 313.457C305.988 313.192 306.048 312.911 306.048 312.612C306.048 312.274 305.968 311.982 305.809 311.737C305.65 311.489 305.433 311.298 305.158 311.165C304.883 311.03 304.573 310.962 304.228 310.962C303.864 310.962 303.546 311.036 303.274 311.185C303.002 311.335 302.793 311.545 302.647 311.817C302.501 312.089 302.429 312.407 302.429 312.771H300.962C300.962 312.152 301.104 311.61 301.389 311.146C301.675 310.682 302.066 310.322 302.563 310.067C303.06 309.808 303.625 309.679 304.258 309.679C304.898 309.679 305.461 309.807 305.948 310.062C306.439 310.314 306.822 310.658 307.097 311.096C307.372 311.53 307.51 312.021 307.51 312.567C307.51 312.945 307.438 313.315 307.296 313.676C307.157 314.037 306.913 314.44 306.565 314.884C306.217 315.325 305.733 315.86 305.113 316.49L303.09 318.608V318.683H307.674V320H300.972ZM312.959 320.139C312.504 320.133 312.057 320.05 311.616 319.891C311.179 319.732 310.781 319.466 310.423 319.095C310.065 318.724 309.778 318.225 309.563 317.599C309.351 316.972 309.245 316.19 309.245 315.252C309.245 314.364 309.333 313.575 309.508 312.886C309.687 312.196 309.944 311.615 310.279 311.141C310.614 310.663 311.018 310.3 311.492 310.052C311.966 309.803 312.498 309.679 313.088 309.679C313.694 309.679 314.233 309.798 314.704 310.037C315.174 310.276 315.555 310.605 315.847 311.026C316.142 311.447 316.329 311.926 316.409 312.463H314.892C314.79 312.039 314.586 311.692 314.281 311.424C313.976 311.156 313.578 311.021 313.088 311.021C312.342 311.021 311.76 311.346 311.343 311.996C310.928 312.645 310.72 313.549 310.716 314.705H310.791C310.967 314.417 311.182 314.172 311.437 313.969C311.696 313.764 311.984 313.607 312.302 313.497C312.624 313.384 312.962 313.328 313.316 313.328C313.906 313.328 314.44 313.472 314.917 313.761C315.398 314.046 315.781 314.44 316.066 314.944C316.351 315.448 316.493 316.024 316.493 316.674C316.493 317.324 316.346 317.912 316.051 318.439C315.759 318.966 315.348 319.384 314.818 319.692C314.288 319.997 313.668 320.146 312.959 320.139ZM312.954 318.847C313.345 318.847 313.694 318.75 314.003 318.558C314.311 318.366 314.554 318.107 314.733 317.783C314.912 317.458 315.002 317.095 315.002 316.694C315.002 316.303 314.914 315.946 314.738 315.625C314.566 315.304 314.327 315.048 314.022 314.859C313.721 314.67 313.376 314.576 312.988 314.576C312.693 314.576 312.42 314.632 312.168 314.745C311.919 314.858 311.701 315.013 311.512 315.212C311.323 315.411 311.174 315.64 311.064 315.898C310.958 316.154 310.905 316.424 310.905 316.709C310.905 317.09 310.993 317.443 311.169 317.768C311.348 318.093 311.591 318.354 311.9 318.553C312.211 318.749 312.562 318.847 312.954 318.847Z" fill="#353535"/>
<path d="M350.825 320V318.886L354.27 315.317C354.638 314.929 354.941 314.589 355.18 314.298C355.422 314.003 355.603 313.723 355.722 313.457C355.841 313.192 355.901 312.911 355.901 312.612C355.901 312.274 355.821 311.982 355.662 311.737C355.503 311.489 355.286 311.298 355.011 311.165C354.736 311.03 354.426 310.962 354.081 310.962C353.717 310.962 353.398 311.036 353.127 311.185C352.855 311.335 352.646 311.545 352.5 311.817C352.354 312.089 352.281 312.407 352.281 312.771H350.815C350.815 312.152 350.957 311.61 351.242 311.146C351.527 310.682 351.919 310.322 352.416 310.067C352.913 309.808 353.478 309.679 354.111 309.679C354.751 309.679 355.314 309.807 355.801 310.062C356.292 310.314 356.675 310.658 356.95 311.096C357.225 311.53 357.362 312.021 357.362 312.567C357.362 312.945 357.291 313.315 357.149 313.676C357.009 314.037 356.766 314.44 356.418 314.884C356.07 315.325 355.586 315.86 354.966 316.49L352.943 318.608V318.683H357.527V320H350.825ZM362.801 320.169C362.016 320.166 361.345 319.959 360.788 319.548C360.231 319.137 359.805 318.538 359.51 317.753C359.215 316.967 359.068 316.021 359.068 314.914C359.068 313.81 359.215 312.867 359.51 312.085C359.809 311.303 360.236 310.706 360.793 310.295C361.353 309.884 362.023 309.679 362.801 309.679C363.58 309.679 364.248 309.886 364.805 310.3C365.362 310.711 365.788 311.308 366.083 312.09C366.381 312.869 366.53 313.81 366.53 314.914C366.53 316.024 366.383 316.972 366.088 317.758C365.793 318.54 365.367 319.138 364.81 319.553C364.253 319.964 363.584 320.169 362.801 320.169ZM362.801 318.842C363.491 318.842 364.029 318.505 364.417 317.832C364.808 317.16 365.004 316.187 365.004 314.914C365.004 314.069 364.914 313.355 364.735 312.771C364.56 312.185 364.306 311.741 363.975 311.439C363.647 311.134 363.256 310.982 362.801 310.982C362.115 310.982 361.577 311.32 361.186 311.996C360.795 312.672 360.597 313.645 360.594 314.914C360.594 315.763 360.682 316.48 360.858 317.067C361.037 317.65 361.29 318.093 361.618 318.394C361.946 318.692 362.341 318.842 362.801 318.842ZM368.14 320V318.886L371.585 315.317C371.953 314.929 372.256 314.589 372.495 314.298C372.737 314.003 372.918 313.723 373.037 313.457C373.156 313.192 373.216 312.911 373.216 312.612C373.216 312.274 373.136 311.982 372.977 311.737C372.818 311.489 372.601 311.298 372.326 311.165C372.051 311.03 371.741 310.962 371.396 310.962C371.032 310.962 370.713 311.036 370.442 311.185C370.17 311.335 369.961 311.545 369.815 311.817C369.669 312.089 369.597 312.407 369.597 312.771H368.13C368.13 312.152 368.272 311.61 368.557 311.146C368.843 310.682 369.234 310.322 369.731 310.067C370.228 309.808 370.793 309.679 371.426 309.679C372.066 309.679 372.629 309.807 373.116 310.062C373.607 310.314 373.99 310.658 374.265 311.096C374.54 311.53 374.677 312.021 374.677 312.567C374.677 312.945 374.606 313.315 374.464 313.676C374.325 314.037 374.081 314.44 373.733 314.884C373.385 315.325 372.901 315.86 372.281 316.49L370.258 318.608V318.683H374.842V320H368.14ZM380.012 320.139C379.3 320.139 378.67 320.017 378.123 319.771C377.579 319.526 377.153 319.188 376.845 318.757C376.537 318.326 376.385 317.836 376.388 317.286C376.385 316.855 376.472 316.459 376.651 316.097C376.834 315.733 377.081 315.429 377.392 315.188C377.704 314.942 378.052 314.786 378.436 314.72V314.661C377.929 314.538 377.523 314.266 377.218 313.845C376.913 313.424 376.762 312.94 376.766 312.393C376.762 311.873 376.9 311.409 377.178 311.001C377.46 310.59 377.846 310.267 378.337 310.032C378.827 309.797 379.386 309.679 380.012 309.679C380.632 309.679 381.185 309.798 381.673 310.037C382.163 310.272 382.549 310.595 382.831 311.006C383.113 311.414 383.255 311.876 383.259 312.393C383.255 312.94 383.099 313.424 382.791 313.845C382.483 314.266 382.082 314.538 381.588 314.661V314.72C381.969 314.786 382.312 314.942 382.617 315.188C382.925 315.429 383.171 315.733 383.353 316.097C383.539 316.459 383.633 316.855 383.636 317.286C383.633 317.836 383.477 318.326 383.169 318.757C382.861 319.188 382.433 319.526 381.886 319.771C381.343 320.017 380.718 320.139 380.012 320.139ZM380.012 318.881C380.433 318.881 380.798 318.812 381.106 318.673C381.414 318.53 381.653 318.333 381.822 318.081C381.991 317.826 382.077 317.527 382.08 317.186C382.077 316.831 381.984 316.518 381.802 316.246C381.623 315.975 381.379 315.761 381.071 315.605C380.763 315.449 380.41 315.371 380.012 315.371C379.611 315.371 379.255 315.449 378.943 315.605C378.632 315.761 378.386 315.975 378.207 316.246C378.028 316.518 377.941 316.831 377.944 317.186C377.941 317.527 378.022 317.826 378.188 318.081C378.357 318.333 378.597 318.53 378.908 318.673C379.22 318.812 379.588 318.881 380.012 318.881ZM380.012 314.143C380.35 314.143 380.65 314.076 380.912 313.94C381.174 313.804 381.379 313.615 381.528 313.373C381.681 313.131 381.759 312.848 381.762 312.523C381.759 312.205 381.683 311.926 381.533 311.688C381.388 311.449 381.184 311.265 380.922 311.136C380.66 311.003 380.357 310.937 380.012 310.937C379.661 310.937 379.353 311.003 379.087 311.136C378.826 311.265 378.622 311.449 378.476 311.688C378.33 311.926 378.259 312.205 378.262 312.523C378.259 312.848 378.332 313.131 378.481 313.373C378.63 313.615 378.836 313.804 379.097 313.94C379.363 314.076 379.667 314.143 380.012 314.143Z" fill="#353535"/>
<path d="M417.651 320V318.886L421.096 315.317C421.464 314.929 421.767 314.589 422.006 314.298C422.248 314.003 422.429 313.723 422.548 313.457C422.667 313.192 422.727 312.911 422.727 312.612C422.727 312.274 422.647 311.982 422.488 311.737C422.329 311.489 422.112 311.298 421.837 311.165C421.562 311.03 421.252 310.962 420.907 310.962C420.543 310.962 420.225 311.036 419.953 311.185C419.681 311.335 419.472 311.545 419.326 311.817C419.181 312.089 419.108 312.407 419.108 312.771H417.641C417.641 312.152 417.784 311.61 418.069 311.146C418.354 310.682 418.745 310.322 419.242 310.067C419.739 309.808 420.304 309.679 420.937 309.679C421.577 309.679 422.14 309.807 422.628 310.062C423.118 310.314 423.501 310.658 423.776 311.096C424.051 311.53 424.189 312.021 424.189 312.567C424.189 312.945 424.117 313.315 423.975 313.676C423.836 314.037 423.592 314.44 423.244 314.884C422.896 315.325 422.412 315.86 421.792 316.49L419.769 318.608V318.683H424.353V320H417.651ZM429.628 320.169C428.842 320.166 428.171 319.959 427.614 319.548C427.057 319.137 426.631 318.538 426.336 317.753C426.041 316.967 425.894 316.021 425.894 314.914C425.894 313.81 426.041 312.867 426.336 312.085C426.635 311.303 427.062 310.706 427.619 310.295C428.179 309.884 428.849 309.679 429.628 309.679C430.407 309.679 431.074 309.886 431.631 310.3C432.188 310.711 432.614 311.308 432.909 312.09C433.207 312.869 433.356 313.81 433.356 314.914C433.356 316.024 433.209 316.972 432.914 317.758C432.619 318.54 432.193 319.138 431.636 319.553C431.079 319.964 430.41 320.169 429.628 320.169ZM429.628 318.842C430.317 318.842 430.856 318.505 431.243 317.832C431.635 317.16 431.83 316.187 431.83 314.914C431.83 314.069 431.741 313.355 431.562 312.771C431.386 312.185 431.132 311.741 430.801 311.439C430.473 311.134 430.082 310.982 429.628 310.982C428.942 310.982 428.403 311.32 428.012 311.996C427.621 312.672 427.424 313.645 427.42 314.914C427.42 315.763 427.508 316.48 427.684 317.067C427.863 317.65 428.116 318.093 428.444 318.394C428.773 318.692 429.167 318.842 429.628 318.842ZM438.511 320.139C437.828 320.139 437.218 320.022 436.681 319.786C436.148 319.551 435.725 319.224 435.413 318.807C435.105 318.386 434.94 317.899 434.916 317.345H436.477C436.497 317.647 436.598 317.909 436.781 318.131C436.966 318.349 437.208 318.518 437.507 318.638C437.805 318.757 438.136 318.817 438.501 318.817C438.902 318.817 439.257 318.747 439.565 318.608C439.876 318.469 440.12 318.275 440.296 318.026C440.471 317.774 440.559 317.484 440.559 317.156C440.559 316.815 440.471 316.515 440.296 316.256C440.123 315.995 439.87 315.789 439.535 315.64C439.203 315.491 438.802 315.416 438.332 315.416H437.472V314.163H438.332C438.71 314.163 439.041 314.095 439.326 313.96C439.614 313.824 439.84 313.635 440.002 313.393C440.165 313.147 440.246 312.861 440.246 312.533C440.246 312.218 440.175 311.944 440.032 311.712C439.893 311.477 439.694 311.293 439.435 311.161C439.18 311.028 438.879 310.962 438.531 310.962C438.199 310.962 437.889 311.023 437.601 311.146C437.316 311.265 437.084 311.437 436.905 311.663C436.726 311.885 436.63 312.152 436.617 312.463H435.13C435.147 311.913 435.309 311.429 435.617 311.011C435.929 310.594 436.34 310.267 436.85 310.032C437.361 309.797 437.927 309.679 438.551 309.679C439.203 309.679 439.767 309.807 440.241 310.062C440.718 310.314 441.086 310.65 441.345 311.071C441.606 311.492 441.736 311.953 441.732 312.453C441.736 313.023 441.577 313.507 441.255 313.905C440.937 314.303 440.513 314.569 439.982 314.705V314.785C440.658 314.888 441.182 315.156 441.553 315.59C441.928 316.024 442.114 316.563 442.11 317.206C442.114 317.766 441.958 318.268 441.643 318.712C441.331 319.156 440.905 319.506 440.365 319.761C439.825 320.013 439.207 320.139 438.511 320.139ZM447.38 320.169C446.595 320.166 445.924 319.959 445.367 319.548C444.81 319.137 444.384 318.538 444.089 317.753C443.794 316.967 443.647 316.021 443.647 314.914C443.647 313.81 443.794 312.867 444.089 312.085C444.387 311.303 444.815 310.706 445.372 310.295C445.932 309.884 446.601 309.679 447.38 309.679C448.159 309.679 448.827 309.886 449.384 310.3C449.941 310.711 450.366 311.308 450.661 312.09C450.96 312.869 451.109 313.81 451.109 314.914C451.109 316.024 450.961 316.972 450.666 317.758C450.371 318.54 449.946 319.138 449.389 319.553C448.832 319.964 448.162 320.169 447.38 320.169ZM447.38 318.842C448.07 318.842 448.608 318.505 448.996 317.832C449.387 317.16 449.583 316.187 449.583 314.914C449.583 314.069 449.493 313.355 449.314 312.771C449.138 312.185 448.885 311.741 448.554 311.439C448.225 311.134 447.834 310.982 447.38 310.982C446.694 310.982 446.156 311.32 445.764 311.996C445.373 312.672 445.176 313.645 445.173 314.914C445.173 315.763 445.261 316.48 445.436 317.067C445.615 317.65 445.869 318.093 446.197 318.394C446.525 318.692 446.92 318.842 447.38 318.842Z" fill="#353535"/>
<path d="M485.025 320V318.886L488.47 315.317C488.838 314.929 489.141 314.589 489.38 314.298C489.622 314.003 489.803 313.723 489.922 313.457C490.041 313.192 490.101 312.911 490.101 312.612C490.101 312.274 490.021 311.982 489.862 311.737C489.703 311.489 489.486 311.298 489.211 311.165C488.936 311.03 488.626 310.962 488.281 310.962C487.917 310.962 487.599 311.036 487.327 311.185C487.055 311.335 486.846 311.545 486.7 311.817C486.555 312.089 486.482 312.407 486.482 312.771H485.015C485.015 312.152 485.158 311.61 485.443 311.146C485.728 310.682 486.119 310.322 486.616 310.067C487.113 309.808 487.678 309.679 488.311 309.679C488.951 309.679 489.514 309.807 490.002 310.062C490.492 310.314 490.875 310.658 491.15 311.096C491.425 311.53 491.563 312.021 491.563 312.567C491.563 312.945 491.491 313.315 491.349 313.676C491.21 314.037 490.966 314.44 490.618 314.884C490.27 315.325 489.786 315.86 489.166 316.49L487.143 318.608V318.683H491.727V320H485.025ZM497.002 320.169C496.216 320.166 495.545 319.959 494.988 319.548C494.431 319.137 494.005 318.538 493.71 317.753C493.416 316.967 493.268 316.021 493.268 314.914C493.268 313.81 493.416 312.867 493.71 312.085C494.009 311.303 494.436 310.706 494.993 310.295C495.553 309.884 496.223 309.679 497.002 309.679C497.781 309.679 498.448 309.886 499.005 310.3C499.562 310.711 499.988 311.308 500.283 312.09C500.581 312.869 500.73 313.81 500.73 314.914C500.73 316.024 500.583 316.972 500.288 317.758C499.993 318.54 499.567 319.138 499.01 319.553C498.453 319.964 497.784 320.169 497.002 320.169ZM497.002 318.842C497.691 318.842 498.23 318.505 498.617 317.832C499.009 317.16 499.204 316.187 499.204 314.914C499.204 314.069 499.115 313.355 498.936 312.771C498.76 312.185 498.506 311.741 498.175 311.439C497.847 311.134 497.456 310.982 497.002 310.982C496.316 310.982 495.777 311.32 495.386 311.996C494.995 312.672 494.798 313.645 494.794 314.914C494.794 315.763 494.882 316.48 495.058 317.067C495.237 317.65 495.49 318.093 495.818 318.394C496.147 318.692 496.541 318.842 497.002 318.842ZM505.885 320.139C505.202 320.139 504.592 320.022 504.055 319.786C503.522 319.551 503.099 319.224 502.787 318.807C502.479 318.386 502.314 317.899 502.29 317.345H503.851C503.871 317.647 503.972 317.909 504.155 318.131C504.34 318.349 504.582 318.518 504.881 318.638C505.179 318.757 505.51 318.817 505.875 318.817C506.276 318.817 506.631 318.747 506.939 318.608C507.25 318.469 507.494 318.275 507.67 318.026C507.845 317.774 507.933 317.484 507.933 317.156C507.933 316.815 507.845 316.515 507.67 316.256C507.497 315.995 507.244 315.789 506.909 315.64C506.578 315.491 506.176 315.416 505.706 315.416H504.846V314.163H505.706C506.084 314.163 506.415 314.095 506.7 313.96C506.988 313.824 507.214 313.635 507.376 313.393C507.539 313.147 507.62 312.861 507.62 312.533C507.62 312.218 507.549 311.944 507.406 311.712C507.267 311.477 507.068 311.293 506.81 311.161C506.554 311.028 506.253 310.962 505.905 310.962C505.573 310.962 505.263 311.023 504.975 311.146C504.69 311.265 504.458 311.437 504.279 311.663C504.1 311.885 504.004 312.152 503.991 312.463H502.504C502.521 311.913 502.683 311.429 502.991 311.011C503.303 310.594 503.714 310.267 504.224 310.032C504.735 309.797 505.301 309.679 505.925 309.679C506.578 309.679 507.141 309.807 507.615 310.062C508.092 310.314 508.46 310.65 508.719 311.071C508.98 311.492 509.11 311.953 509.106 312.453C509.11 313.023 508.951 313.507 508.629 313.905C508.311 314.303 507.887 314.569 507.356 314.705V314.785C508.033 314.888 508.556 315.156 508.927 315.59C509.302 316.024 509.488 316.563 509.484 317.206C509.488 317.766 509.332 318.268 509.017 318.712C508.705 319.156 508.279 319.506 507.739 319.761C507.199 320.013 506.581 320.139 505.885 320.139ZM511.209 320V318.886L514.655 315.317C515.023 314.929 515.326 314.589 515.565 314.298C515.807 314.003 515.987 313.723 516.107 313.457C516.226 313.192 516.285 312.911 516.285 312.612C516.285 312.274 516.206 311.982 516.047 311.737C515.888 311.489 515.671 311.298 515.396 311.165C515.12 311.03 514.811 310.962 514.466 310.962C514.101 310.962 513.783 311.036 513.511 311.185C513.24 311.335 513.031 311.545 512.885 311.817C512.739 312.089 512.666 312.407 512.666 312.771H511.2C511.2 312.152 511.342 311.61 511.627 311.146C511.912 310.682 512.303 310.322 512.8 310.067C513.298 309.808 513.863 309.679 514.496 309.679C515.135 309.679 515.699 309.807 516.186 310.062C516.677 310.314 517.059 310.658 517.334 311.096C517.61 311.53 517.747 312.021 517.747 312.567C517.747 312.945 517.676 313.315 517.533 313.676C517.394 314.037 517.151 314.44 516.803 314.884C516.455 315.325 515.971 315.86 515.351 316.49L513.327 318.608V318.683H517.911V320H511.209Z" fill="#353535"/>
<path d="M29.4589 3.81818V14H27.9177V5.35938H27.8581L25.422 6.95028V5.47869L27.9625 3.81818H29.4589ZM35.6039 14.169C34.8184 14.1657 34.1473 13.9586 33.5904 13.5476C33.0336 13.1366 32.6077 12.5384 32.3127 11.7528C32.0178 10.9673 31.8703 10.0211 31.8703 8.91406C31.8703 7.81037 32.0178 6.86742 32.3127 6.08523C32.611 5.30303 33.0386 4.70644 33.5954 4.29545C34.1555 3.88447 34.825 3.67898 35.6039 3.67898C36.3828 3.67898 37.0507 3.88613 37.6075 4.30043C38.1643 4.71141 38.5902 5.308 38.8852 6.0902C39.1835 6.86908 39.3326 7.81037 39.3326 8.91406C39.3326 10.0244 39.1851 10.9723 38.8902 11.7578C38.5952 12.54 38.1693 13.1383 37.6125 13.5526C37.0556 13.9635 36.3861 14.169 35.6039 14.169ZM35.6039 12.8416C36.2933 12.8416 36.8319 12.5052 37.2197 11.8324C37.6108 11.1596 37.8063 10.1868 37.8063 8.91406C37.8063 8.06889 37.7169 7.35464 37.5379 6.77131C37.3622 6.18466 37.1087 5.74053 36.7772 5.43892C36.4491 5.134 36.058 4.98153 35.6039 4.98153C34.9179 4.98153 34.3793 5.3196 33.9882 5.99574C33.5971 6.67187 33.3999 7.64465 33.3965 8.91406C33.3965 9.76255 33.4844 10.4801 33.66 11.0668C33.839 11.6501 34.0926 12.0926 34.4207 12.3942C34.7488 12.6925 35.1432 12.8416 35.6039 12.8416ZM44.487 14.169C43.7015 14.1657 43.0304 13.9586 42.4735 13.5476C41.9167 13.1366 41.4908 12.5384 41.1958 11.7528C40.9009 10.9673 40.7534 10.0211 40.7534 8.91406C40.7534 7.81037 40.9009 6.86742 41.1958 6.08523C41.4941 5.30303 41.9217 4.70644 42.4785 4.29545C43.0386 3.88447 43.7082 3.67898 44.487 3.67898C45.2659 3.67898 45.9338 3.88613 46.4906 4.30043C47.0474 4.71141 47.4733 5.308 47.7683 6.0902C48.0666 6.86908 48.2157 7.81037 48.2157 8.91406C48.2157 10.0244 48.0682 10.9723 47.7733 11.7578C47.4783 12.54 47.0524 13.1383 46.4956 13.5526C45.9387 13.9635 45.2692 14.169 44.487 14.169ZM44.487 12.8416C45.1764 12.8416 45.715 12.5052 46.1028 11.8324C46.4939 11.1596 46.6895 10.1868 46.6895 8.91406C46.6895 8.06889 46.6 7.35464 46.421 6.77131C46.2453 6.18466 45.9918 5.74053 45.6603 5.43892C45.3322 5.134 44.9411 4.98153 44.487 4.98153C43.801 4.98153 43.2624 5.3196 42.8713 5.99574C42.4802 6.67187 42.283 7.64465 42.2797 8.91406C42.2797 9.76255 42.3675 10.4801 42.5431 11.0668C42.7221 11.6501 42.9757 12.0926 43.3038 12.3942C43.6319 12.6925 44.0263 12.8416 44.487 12.8416Z" fill="#353535"/>
<path d="M35.6909 69.3394C34.9783 69.3394 34.3486 69.2168 33.8017 68.9715C33.2582 68.7262 32.8323 68.3882 32.524 67.9573C32.2158 67.5264 32.0633 67.0359 32.0666 66.4857C32.0633 66.0548 32.1512 65.6588 32.3301 65.2975C32.5124 64.9329 32.7593 64.6296 33.0709 64.3877C33.3825 64.1424 33.7305 63.9867 34.1149 63.9204V63.8607C33.6078 63.7381 33.2018 63.4663 32.8969 63.0454C32.592 62.6244 32.4412 62.1405 32.4445 61.5937C32.4412 61.0733 32.5787 60.6093 32.8571 60.2016C33.1388 59.7906 33.525 59.4675 34.0155 59.2322C34.506 58.9968 35.0645 58.8792 35.6909 58.8792C36.3107 58.8792 36.8642 58.9985 37.3514 59.2371C37.842 59.4724 38.2281 59.7956 38.5098 60.2066C38.7915 60.6143 38.9341 61.0766 38.9374 61.5937C38.9341 62.1405 38.7783 62.6244 38.4701 63.0454C38.1618 63.4663 37.7608 63.7381 37.2669 63.8607V63.9204C37.6481 63.9867 37.9911 64.1424 38.296 64.3877C38.6043 64.6296 38.8495 64.9329 39.0318 65.2975C39.2174 65.6588 39.3119 66.0548 39.3152 66.4857C39.3119 67.0359 39.1561 67.5264 38.8479 67.9573C38.5397 68.3882 38.1121 68.7262 37.5652 68.9715C37.0217 69.2168 36.3969 69.3394 35.6909 69.3394ZM35.6909 68.0816C36.1119 68.0816 36.4764 68.012 36.7847 67.8728C37.0929 67.7303 37.3316 67.5331 37.5006 67.2812C37.6696 67.026 37.7558 66.7277 37.7591 66.3863C37.7558 66.0316 37.663 65.7184 37.4807 65.4466C37.3017 65.1749 37.0581 64.9611 36.7499 64.8053C36.4416 64.6495 36.0887 64.5716 35.6909 64.5716C35.2899 64.5716 34.9336 64.6495 34.622 64.8053C34.3105 64.9611 34.0652 65.1749 33.8862 65.4466C33.7073 65.7184 33.6194 66.0316 33.6227 66.3863C33.6194 66.7277 33.7006 67.026 33.8664 67.2812C34.0354 67.5331 34.2757 67.7303 34.5872 67.8728C34.8988 68.012 35.2667 68.0816 35.6909 68.0816ZM35.6909 63.3437C36.029 63.3437 36.329 63.2757 36.5908 63.1398C36.8526 63.0039 37.0581 62.815 37.2073 62.5731C37.3597 62.3311 37.4376 62.0477 37.4409 61.7229C37.4376 61.4047 37.3614 61.1263 37.2122 60.8877C37.0664 60.6491 36.8626 60.4651 36.6007 60.3358C36.3389 60.2033 36.0356 60.137 35.6909 60.137C35.3396 60.137 35.0314 60.2033 34.7662 60.3358C34.5044 60.4651 34.3005 60.6491 34.1547 60.8877C34.0089 61.1263 33.9376 61.4047 33.9409 61.7229C33.9376 62.0477 34.0105 62.3311 34.1597 62.5731C34.3088 62.815 34.5143 63.0039 34.7762 63.1398C35.0413 63.2757 35.3462 63.3437 35.6909 63.3437ZM44.487 69.3692C43.7015 69.3659 43.0304 69.1588 42.4735 68.7478C41.9167 68.3368 41.4908 67.7385 41.1958 66.953C40.9009 66.1675 40.7534 65.2213 40.7534 64.1143C40.7534 63.0106 40.9009 62.0676 41.1958 61.2854C41.4941 60.5032 41.9217 59.9066 42.4785 59.4956C43.0386 59.0847 43.7082 58.8792 44.487 58.8792C45.2659 58.8792 45.9338 59.0863 46.4906 59.5006C47.0474 59.9116 47.4733 60.5082 47.7683 61.2904C48.0666 62.0693 48.2157 63.0106 48.2157 64.1143C48.2157 65.2246 48.0682 66.1725 47.7733 66.958C47.4783 67.7402 47.0524 68.3385 46.4956 68.7528C45.9387 69.1637 45.2692 69.3692 44.487 69.3692ZM44.487 68.0418C45.1764 68.0418 45.715 67.7054 46.1028 67.0326C46.4939 66.3598 46.6895 65.387 46.6895 64.1143C46.6895 63.2691 46.6 62.5548 46.421 61.9715C46.2453 61.3849 45.9918 60.9407 45.6603 60.6391C45.3322 60.3342 44.9411 60.1817 44.487 60.1817C43.801 60.1817 43.2624 60.5198 42.8713 61.1959C42.4802 61.8721 42.283 62.8448 42.2797 64.1143C42.2797 64.9627 42.3675 65.6803 42.5431 66.267C42.7221 66.8503 42.9757 67.2928 43.3038 67.5944C43.6319 67.8927 44.0263 68.0418 44.487 68.0418Z" fill="#353535"/>
<path d="M35.7506 124.54C35.2965 124.533 34.8491 124.45 34.4083 124.291C33.9708 124.132 33.573 123.867 33.2151 123.496C32.8571 123.124 32.5704 122.626 32.355 121.999C32.1429 121.373 32.0368 120.59 32.0368 119.653C32.0368 118.764 32.1246 117.975 32.3003 117.286C32.4793 116.597 32.7361 116.015 33.0709 115.541C33.4057 115.064 33.81 114.701 34.284 114.452C34.7579 114.204 35.2899 114.079 35.8799 114.079C36.4864 114.079 37.025 114.199 37.4956 114.437C37.9663 114.676 38.3474 115.006 38.6391 115.427C38.9341 115.848 39.1213 116.327 39.2009 116.863H37.6845C37.5818 116.439 37.378 116.093 37.073 115.824C36.7681 115.556 36.3704 115.422 35.8799 115.422C35.1341 115.422 34.5524 115.747 34.1348 116.396C33.7205 117.046 33.5117 117.949 33.5084 119.106H33.583C33.7586 118.817 33.9741 118.572 34.2293 118.37C34.4878 118.164 34.7762 118.007 35.0943 117.898C35.4158 117.785 35.7539 117.729 36.1085 117.729C36.6985 117.729 37.2321 117.873 37.7094 118.161C38.19 118.446 38.5728 118.84 38.8578 119.344C39.1429 119.848 39.2854 120.425 39.2854 121.074C39.2854 121.724 39.1379 122.312 38.8429 122.839C38.5513 123.366 38.1403 123.784 37.61 124.092C37.0797 124.397 36.4599 124.546 35.7506 124.54ZM35.7456 123.247C36.1367 123.247 36.4864 123.151 36.7946 122.959C37.1029 122.766 37.3465 122.508 37.5254 122.183C37.7044 121.858 37.7939 121.495 37.7939 121.094C37.7939 120.703 37.7061 120.347 37.5304 120.025C37.3581 119.704 37.1194 119.449 36.8145 119.26C36.5129 119.071 36.1682 118.976 35.7804 118.976C35.4854 118.976 35.212 119.033 34.9601 119.145C34.7115 119.258 34.4928 119.414 34.3039 119.613C34.1149 119.812 33.9658 120.04 33.8564 120.299C33.7504 120.554 33.6973 120.824 33.6973 121.109C33.6973 121.49 33.7852 121.843 33.9608 122.168C34.1398 122.493 34.3834 122.755 34.6916 122.954C35.0032 123.149 35.3545 123.247 35.7456 123.247ZM44.487 124.569C43.7015 124.566 43.0304 124.359 42.4735 123.948C41.9167 123.537 41.4908 122.939 41.1958 122.153C40.9009 121.368 40.7534 120.421 40.7534 119.314C40.7534 118.211 40.9009 117.268 41.1958 116.486C41.4941 115.703 41.9217 115.107 42.4785 114.696C43.0386 114.285 43.7082 114.079 44.487 114.079C45.2659 114.079 45.9338 114.287 46.4906 114.701C47.0474 115.112 47.4733 115.708 47.7683 116.491C48.0666 117.269 48.2157 118.211 48.2157 119.314C48.2157 120.425 48.0682 121.373 47.7733 122.158C47.4783 122.94 47.0524 123.539 46.4956 123.953C45.9387 124.364 45.2692 124.569 44.487 124.569ZM44.487 123.242C45.1764 123.242 45.715 122.906 46.1028 122.233C46.4939 121.56 46.6895 120.587 46.6895 119.314C46.6895 118.469 46.6 117.755 46.421 117.172C46.2453 116.585 45.9918 116.141 45.6603 115.839C45.3322 115.534 44.9411 115.382 44.487 115.382C43.801 115.382 43.2624 115.72 42.8713 116.396C42.4802 117.072 42.283 118.045 42.2797 119.314C42.2797 120.163 42.3675 120.881 42.5431 121.467C42.7221 122.05 42.9757 122.493 43.3038 122.795C43.6319 123.093 44.0263 123.242 44.487 123.242Z" fill="#353535"/>
<path d="M31.7224 177.611V176.368L36.1222 169.418H37.1016V171.247H36.4802L33.3332 176.229V176.308H39.3637V177.611H31.7224ZM36.5498 179.6V177.233L36.5597 176.666V169.418H38.0164V179.6H36.5498ZM44.487 179.769C43.7015 179.765 43.0304 179.558 42.4735 179.147C41.9167 178.736 41.4908 178.138 41.1958 177.352C40.9009 176.567 40.7534 175.621 40.7534 174.514C40.7534 173.41 40.9009 172.467 41.1958 171.685C41.4941 170.903 41.9217 170.306 42.4785 169.895C43.0386 169.484 43.7082 169.279 44.487 169.279C45.2659 169.279 45.9338 169.486 46.4906 169.9C47.0474 170.311 47.4733 170.908 47.7683 171.69C48.0666 172.469 48.2157 173.41 48.2157 174.514C48.2157 175.624 48.0682 176.572 47.7733 177.357C47.4783 178.14 47.0524 178.738 46.4956 179.152C45.9387 179.563 45.2692 179.769 44.487 179.769ZM44.487 178.441C45.1764 178.441 45.715 178.105 46.1028 177.432C46.4939 176.759 46.6895 175.786 46.6895 174.514C46.6895 173.669 46.6 172.954 46.421 172.371C46.2453 171.784 45.9918 171.34 45.6603 171.039C45.3322 170.734 44.9411 170.581 44.487 170.581C43.801 170.581 43.2624 170.919 42.8713 171.595C42.4802 172.271 42.283 173.244 42.2797 174.514C42.2797 175.362 42.3675 176.08 42.5431 176.666C42.7221 177.25 42.9757 177.692 43.3038 177.994C43.6319 178.292 44.0263 178.441 44.487 178.441Z" fill="#353535"/>
<path d="M32.5104 234.8V233.686L35.9557 230.117C36.3236 229.729 36.6268 229.389 36.8655 229.097C37.1074 228.802 37.2881 228.522 37.4074 228.257C37.5267 227.992 37.5864 227.71 37.5864 227.412C37.5864 227.074 37.5068 226.782 37.3477 226.537C37.1886 226.288 36.9715 226.098 36.6964 225.965C36.4213 225.829 36.1114 225.761 35.7667 225.761C35.4022 225.761 35.084 225.836 34.8122 225.985C34.5404 226.134 34.3316 226.345 34.1858 226.617C34.0399 226.888 33.967 227.207 33.967 227.571H32.5004C32.5004 226.951 32.6429 226.409 32.928 225.945C33.213 225.481 33.6041 225.122 34.1013 224.867C34.5984 224.608 35.1635 224.479 35.7966 224.479C36.4363 224.479 36.9997 224.606 37.4869 224.862C37.9774 225.113 38.3603 225.458 38.6354 225.896C38.9105 226.33 39.048 226.82 39.048 227.367C39.048 227.745 38.9767 228.115 38.8342 228.476C38.695 228.837 38.4514 229.24 38.1034 229.684C37.7554 230.125 37.2715 230.66 36.6517 231.29L34.6283 233.408V233.482H39.2121V234.8H32.5104ZM44.487 234.969C43.7015 234.966 43.0304 234.758 42.4735 234.347C41.9167 233.936 41.4908 233.338 41.1958 232.553C40.9009 231.767 40.7534 230.821 40.7534 229.714C40.7534 228.61 40.9009 227.667 41.1958 226.885C41.4941 226.103 41.9217 225.506 42.4785 225.095C43.0386 224.684 43.7082 224.479 44.487 224.479C45.2659 224.479 45.9338 224.686 46.4906 225.1C47.0474 225.511 47.4733 226.108 47.7683 226.89C48.0666 227.669 48.2157 228.61 48.2157 229.714C48.2157 230.824 48.0682 231.772 47.7733 232.558C47.4783 233.34 47.0524 233.938 46.4956 234.352C45.9387 234.763 45.2692 234.969 44.487 234.969ZM44.487 233.641C45.1764 233.641 45.715 233.305 46.1028 232.632C46.4939 231.959 46.6895 230.987 46.6895 229.714C46.6895 228.869 46.6 228.154 46.421 227.571C46.2453 226.984 45.9918 226.54 45.6603 226.239C45.3322 225.934 44.9411 225.781 44.487 225.781C43.801 225.781 43.2624 226.119 42.8713 226.796C42.4802 227.472 42.283 228.444 42.2797 229.714C42.2797 230.562 42.3675 231.28 42.5431 231.867C42.7221 232.45 42.9757 232.892 43.3038 233.194C43.6319 233.492 44.0263 233.641 44.487 233.641Z" fill="#353535"/>
<path d="M44.487 290.169C43.7015 290.166 43.0304 289.959 42.4735 289.548C41.9167 289.137 41.4908 288.538 41.1958 287.753C40.9009 286.967 40.7534 286.021 40.7534 284.914C40.7534 283.81 40.9009 282.867 41.1958 282.085C41.4941 281.303 41.9217 280.706 42.4785 280.295C43.0386 279.884 43.7082 279.679 44.487 279.679C45.2659 279.679 45.9338 279.886 46.4906 280.3C47.0474 280.711 47.4733 281.308 47.7683 282.09C48.0666 282.869 48.2157 283.81 48.2157 284.914C48.2157 286.024 48.0682 286.972 47.7733 287.758C47.4783 288.54 47.0524 289.138 46.4956 289.553C45.9387 289.964 45.2692 290.169 44.487 290.169ZM44.487 288.842C45.1764 288.842 45.715 288.505 46.1028 287.832C46.4939 287.16 46.6895 286.187 46.6895 284.914C46.6895 284.069 46.6 283.355 46.421 282.771C46.2453 282.185 45.9918 281.741 45.6603 281.439C45.3322 281.134 44.9411 280.982 44.487 280.982C43.801 280.982 43.2624 281.32 42.8713 281.996C42.4802 282.672 42.283 283.645 42.2797 284.914C42.2797 285.763 42.3675 286.48 42.5431 287.067C42.7221 287.65 42.9757 288.093 43.3038 288.394C43.6319 288.692 44.0263 288.842 44.487 288.842Z" fill="#353535"/>
<rect x="65" y="10" width="487" height="1" fill="black" fill-opacity="0.1"/>
<rect x="65" y="65.7998" width="487" height="1" fill="black" fill-opacity="0.1"/>
<rect x="65" y="121.6" width="487" height="1" fill="black" fill-opacity="0.1"/>
<rect x="65" y="177.4" width="487" height="1" fill="black" fill-opacity="0.1"/>
<rect x="65" y="233.2" width="487" height="1" fill="black" fill-opacity="0.1"/>
<rect x="65" y="289" width="487" height="1" fill="black" fill-opacity="0.25"/>
<path d="M65 148.5V288.5H296.5L222 122L65 148.5Z" fill="#27A9E0" fill-opacity="0.2" stroke="#27A9E0"/>
</svg>
