<svg width="16" height="16" viewBox="0 0 16 16" fill="none" xmlns="http://www.w3.org/2000/svg">
<path d="M13.1334 12.2674L11.8001 13.6008C11.6668 13.7341 11.4668 13.8008 11.3334 13.8008C11.2001 13.8008 11.0001 13.7341 10.8668 13.6008L9.53343 12.2674C9.26676 12.0008 9.26676 11.6008 9.53343 11.3341C9.8001 11.0674 10.2001 11.0674 10.4668 11.3341L10.6668 11.5341V2.46745C10.6668 2.06745 11.0001 1.80078 11.3334 1.80078C11.6668 1.80078 12.0001 2.06745 12.0001 2.46745V11.5341L12.2001 11.3341C12.4668 11.0674 12.8668 11.0674 13.1334 11.3341C13.4001 11.6008 13.4001 12.0008 13.1334 12.2674ZM7.93343 6.33411L5.93343 2.33411C5.73343 1.86745 4.93343 1.86745 4.73343 2.33411L2.73343 6.33411C2.6001 6.66745 2.73343 7.06745 3.0001 7.20078C3.33343 7.33412 3.73343 7.20078 3.86676 6.93411L4.06676 6.66745H6.6001L6.73343 7.00078C6.86676 7.20078 7.06676 7.33411 7.33343 7.33411C7.46676 7.33411 7.53343 7.33411 7.66676 7.26745C7.93343 7.13411 8.06676 6.66745 7.93343 6.33411ZM4.73343 5.33411L5.33343 4.13411L5.93343 5.33411H4.73343ZM7.33343 14.0008H3.33343C3.06676 14.0008 2.8001 13.8674 2.73343 13.6008C2.6001 13.3341 2.66676 13.0674 2.86676 12.8674L5.73343 10.0008H3.33343C2.93343 10.0008 2.66676 9.73411 2.66676 9.33411C2.66676 8.93411 2.93343 8.66745 3.33343 8.66745H7.33343C7.6001 8.66745 7.86676 8.80078 7.93343 9.06745C8.06676 9.33412 8.0001 9.60078 7.8001 9.80078L4.93343 12.6674H7.33343C7.73343 12.6674 8.0001 12.9341 8.0001 13.3341C8.0001 13.7341 7.73343 14.0008 7.33343 14.0008Z" fill="currentColor"/>
</svg>
