<svg width="16" height="17" viewBox="0 0 16 17" fill="none" xmlns="http://www.w3.org/2000/svg">
<g id="ic-critical">
<g id="Group 5332714">
<circle id="Ellipse 229" cx="8" cy="8.5" r="6" fill="#FF4040"/>
<path id="ic_close-white" d="M5.89645 7.10355L7.29289 8.5L5.89645 9.89645C5.70118 10.0917 5.70118 10.4083 5.89645 10.6036C6.09171 10.7988 6.40829 10.7988 6.60355 10.6036L8 9.20711L9.39645 10.6036C9.59171 10.7988 9.90829 10.7988 10.1036 10.6036C10.2988 10.4083 10.2988 10.0917 10.1036 9.89645L8.70711 8.5L10.1036 7.10355C10.2988 6.90829 10.2988 6.59171 10.1036 6.39645C9.90829 6.20118 9.59171 6.20118 9.39645 6.39645L8 7.79289L6.60355 6.39645C6.40829 6.20118 6.09171 6.20118 5.89645 6.39645C5.70118 6.59171 5.70118 6.90829 5.89645 7.10355Z" fill="white" stroke="white" stroke-width="0.5"/>
</g>
</g>
</svg>
