<svg width="24" height="24" viewBox="0 0 24 24" fill="none" xmlns="http://www.w3.org/2000/svg">
<circle cx="12" cy="12" r="9" fill="#FF4040"/>
<path d="M12 11.1161L9.81694 8.93306C9.57286 8.68898 9.17714 8.68898 8.93306 8.93306C8.68898 9.17714 8.68898 9.57286 8.93306 9.81694L11.1161 12L8.93306 14.1831C8.68898 14.4271 8.68898 14.8229 8.93306 15.0669C9.17714 15.311 9.57286 15.311 9.81694 15.0669L12 12.8839L14.1831 15.0669C14.4271 15.311 14.8229 15.311 15.0669 15.0669C15.311 14.8229 15.311 14.4271 15.0669 14.1831L12.8839 12L15.0669 9.81694C15.311 9.57286 15.311 9.17714 15.0669 8.93306C14.8229 8.68898 14.4271 8.68898 14.1831 8.93306L14.3586 9.1086L14.1831 8.93306L12 11.1161Z" fill="white" stroke="white" stroke-width="0.5"/>
</svg>
