<svg width="40" height="40" viewBox="0 0 40 40" fill="none" xmlns="http://www.w3.org/2000/svg">
<path d="M23.5 30C19.7032 30 19 30 19 30C19 30 15.4 30 7 30C7 23.3726 12.3726 18 19 18C22.2592 18 25.2148 19.2993 27.3774 21.4081" stroke="#092C3C" stroke-width="2" stroke-linecap="round" stroke-linejoin="round"/>
<path d="M19 17C22.3137 17 25 14.3137 25 11C25 7.68629 22.3137 5 19 5C15.6863 5 13 7.68629 13 11C13 14.3137 15.6863 17 19 17Z" stroke="#092C3C" stroke-width="2" stroke-linecap="round" stroke-linejoin="round"/>
<path d="M31 35C34.866 35 38 31.866 38 28C38 24.134 34.866 21 31 21C27.134 21 24 24.134 24 28C24 31.866 27.134 35 31 35Z" stroke="#092C3C" stroke-width="2" stroke-linecap="round" stroke-linejoin="round"/>
<path d="M34.9995 30.0589H34.529V26.765H34.9995C35.2023 26.765 35.3816 26.6356 35.4456 26.4431C35.5101 26.2511 35.4437 26.0394 35.2814 25.9179L31.5169 23.0946C31.3499 22.9685 31.1198 22.9685 30.9527 23.0946L27.1882 25.9179C27.0264 26.0394 26.96 26.2511 27.0245 26.4431C27.0885 26.6356 27.2677 26.765 27.4706 26.765H27.9411V30.0589H27.4706C27.2103 30.0589 27 30.2692 27 30.5294C27 30.7897 27.2103 31 27.4706 31H34.9995C35.2598 31 35.4701 30.7897 35.4701 30.5294C35.4701 30.2692 35.2598 30.0589 34.9995 30.0589ZM31.235 24.0592L33.5878 25.8238H28.8822L31.235 24.0592ZM28.8822 30.0589V26.765H29.8234V30.0589H28.8822ZM30.7645 30.0589V26.765H31.7056V30.0589H30.7645ZM32.6467 30.0589V26.765H33.5878V30.0589H32.6467Z" fill="#092C3C"/>
</svg>
