<svg width="40" height="40" viewBox="0 0 40 40" fill="none" xmlns="http://www.w3.org/2000/svg">
<path d="M23.5 30C19.7032 30 19 30 19 30C19 30 15.4 30 7 30C7 23.3726 12.3726 18 19 18C22.2592 18 25.2148 19.2993 27.3774 21.4081" stroke="#092C3C" stroke-width="2" stroke-linecap="round" stroke-linejoin="round"/>
<path d="M19 17C22.3137 17 25 14.3137 25 11C25 7.68629 22.3137 5 19 5C15.6863 5 13 7.68629 13 11C13 14.3137 15.6863 17 19 17Z" stroke="#092C3C" stroke-width="2" stroke-linecap="round" stroke-linejoin="round"/>
<path d="M31 35C34.866 35 38 31.866 38 28C38 24.134 34.866 21 31 21C27.134 21 24 24.134 24 28C24 31.866 27.134 35 31 35Z" stroke="#092C3C" stroke-width="2" stroke-linecap="round" stroke-linejoin="round"/>
<path d="M31.8182 24.8447H31.5045V24V23.95H31.4545H30.5455H30.4955V24V24.8447H30.1818C29.5112 24.8447 28.95 25.5058 28.95 26.2632V27.1579C28.95 27.9152 29.5112 28.5763 30.1818 28.5763H31.8636C31.9128 28.5763 31.9683 28.6055 32.0133 28.6577C32.0579 28.7093 32.0864 28.777 32.0864 28.8421V29.7368C32.0864 29.8019 32.0579 29.8696 32.0133 29.9213C31.9683 29.9734 31.9128 30.0026 31.8636 30.0026H30.1818C30.1327 30.0026 30.0772 29.9734 30.0322 29.9213C29.9876 29.8696 29.9591 29.8019 29.9591 29.7368V29.2632V29.2132H29.9091H29H28.95V29.2632V29.7368C28.95 30.4942 29.5112 31.1553 30.1818 31.1553H30.4955V32V32.05H30.5455H31.4545H31.5045V32V31.1553H31.8182C32.4888 31.1553 33.05 30.4942 33.05 29.7368V28.8421C33.05 28.0848 32.4888 27.4237 31.8182 27.4237H30.1364C30.0872 27.4237 30.0317 27.3945 29.9867 27.3423C29.9421 27.2907 29.9136 27.223 29.9136 27.1579V26.2632C29.9136 26.1981 29.9421 26.1304 29.9867 26.0787C30.0317 26.0266 30.0872 25.9974 30.1364 25.9974H31.8182C31.8673 25.9974 31.9228 26.0266 31.9678 26.0787C32.0124 26.1304 32.0409 26.1981 32.0409 26.2632V26.7368V26.7868H32.0909H33H33.05V26.7368V26.2632C33.05 25.4532 32.5342 24.8447 31.8182 24.8447Z" fill="#092C3C" stroke="#092C3C" stroke-width="0.1"/>
</svg>
