<svg width="40" height="40" viewBox="0 0 40 40" fill="none" xmlns="http://www.w3.org/2000/svg">
<path d="M23.5 30C19.7032 30 19 30 19 30C19 30 15.4 30 7 30C7 23.3726 12.3726 18 19 18C22.2592 18 25.2148 19.2993 27.3774 21.4081" stroke="#092C3C" stroke-width="2" stroke-linecap="round" stroke-linejoin="round"/>
<path d="M19 17C22.3137 17 25 14.3137 25 11C25 7.68629 22.3137 5 19 5C15.6863 5 13 7.68629 13 11C13 14.3137 15.6863 17 19 17Z" stroke="#092C3C" stroke-width="2" stroke-linecap="round" stroke-linejoin="round"/>
<path d="M31 35C34.866 35 38 31.866 38 28C38 24.134 34.866 21 31 21C27.134 21 24 24.134 24 28C24 31.866 27.134 35 31 35Z" stroke="#092C3C" stroke-width="2" stroke-linecap="round" stroke-linejoin="round"/>
<path d="M35.1663 28.0007C35.1663 27.4535 35.0586 26.9117 34.8492 26.4061C34.6398 25.9006 34.3329 25.4413 33.946 25.0544C33.559 24.6675 33.0997 24.3605 32.5942 24.1512C32.0887 23.9418 31.5468 23.834 30.9997 23.834C29.8946 23.834 28.8348 24.273 28.0534 25.0544C27.272 25.8358 26.833 26.8956 26.833 28.0007C26.833 29.1057 27.272 30.1655 28.0534 30.9469C28.8348 31.7283 29.8946 32.1673 30.9997 32.1673C32.1047 32.1673 33.1646 31.7283 33.946 30.9469C34.7274 30.1655 35.1663 29.1057 35.1663 28.0007ZM34.3038 27.584H33.083C33.0143 26.604 32.6785 25.6616 32.1122 24.859C32.694 25.0656 33.2071 25.4298 33.594 25.911C33.981 26.3922 34.2268 26.9713 34.3038 27.584ZM29.783 28.4173H32.2497C32.143 29.4467 31.7043 30.4135 30.9997 31.1715C30.2955 30.4166 29.8668 29.4462 29.783 28.4173ZM29.783 27.584C29.88 26.5597 30.307 25.5947 30.9997 24.834C31.71 25.5865 32.1497 26.554 32.2497 27.584H29.783ZM29.933 24.8465C29.3637 25.6536 29.0225 26.5993 28.9455 27.584H27.6955C27.7742 26.9638 28.0258 26.3782 28.4214 25.8941C28.8171 25.4101 29.3409 25.047 29.933 24.8465ZM27.6955 28.4173H28.9455C29.0141 29.4012 29.353 30.347 29.9247 31.1507C29.3347 30.9491 28.813 30.5861 28.419 30.103C28.0249 29.6198 27.7743 29.0358 27.6955 28.4173ZM32.0913 31.1465C32.6615 30.3426 33.0041 29.3997 33.083 28.4173H34.3122C34.2334 29.0341 33.9836 29.6165 33.5912 30.0988C33.1987 30.5811 32.6792 30.944 32.0913 31.1465Z" fill="#092C3C"/>
</svg>
