<svg width="40" height="40" viewBox="0 0 40 40" fill="none" xmlns="http://www.w3.org/2000/svg">
<path d="M23.5 30C19.7032 30 19 30 19 30C19 30 15.4 30 7 30C7 23.3726 12.3726 18 19 18C22.2592 18 25.2148 19.2993 27.3774 21.4081" stroke="#092C3C" stroke-width="2" stroke-linecap="round" stroke-linejoin="round"/>
<path d="M19 17C22.3137 17 25 14.3137 25 11C25 7.68629 22.3137 5 19 5C15.6863 5 13 7.68629 13 11C13 14.3137 15.6863 17 19 17Z" stroke="#092C3C" stroke-width="2" stroke-linecap="round" stroke-linejoin="round"/>
<path d="M31 35C34.866 35 38 31.866 38 28C38 24.134 34.866 21 31 21C27.134 21 24 24.134 24 28C24 31.866 27.134 35 31 35Z" stroke="#092C3C" stroke-width="2" stroke-linecap="round" stroke-linejoin="round"/>
<path d="M34.2385 27.5081L34.6465 27.1341C34.785 27.0073 34.8166 26.8016 34.7226 26.6392L33.9836 25.3602C33.8896 25.1982 33.6964 25.1214 33.5168 25.1786L33.0159 25.3366C32.8471 25.3898 32.6574 25.3626 32.469 25.2546C32.2902 25.1522 32.1702 24.9998 32.1314 24.8265L32.0173 24.3132C31.9765 24.13 31.8141 24 31.6265 24H30.1499C29.9622 24 29.7998 24.13 29.759 24.3132L29.645 24.8261C29.6062 25.0001 29.4866 25.1522 29.2981 25.2602C29.1201 25.3626 28.9281 25.3902 28.7609 25.3366L28.2596 25.1786C28.08 25.1218 27.8863 25.1982 27.7927 25.3602L27.0538 26.6392C26.9602 26.8016 26.9918 27.0073 27.1298 27.1341L27.5379 27.5077C27.6675 27.6269 27.7415 27.7974 27.7411 27.9762V28.025C27.7411 28.2026 27.6675 28.3731 27.5379 28.4919L27.1298 28.8659C26.9914 28.9927 26.9598 29.1984 27.0538 29.3608L27.7927 30.6398C27.8863 30.8018 28.0796 30.8778 28.2596 30.8214L28.7605 30.6634C28.9289 30.6098 29.1193 30.6378 29.3073 30.7454C29.4862 30.8478 29.6062 31.0002 29.645 31.1735L29.759 31.6868C29.7998 31.87 29.9622 32 30.1499 32H31.6265C31.8141 32 31.9765 31.87 32.0173 31.6868L32.1314 31.1739C32.1702 30.9998 32.2898 30.8478 32.4782 30.7398C32.6558 30.637 32.8475 30.609 33.0155 30.6634L33.5168 30.8214C33.6968 30.8782 33.8896 30.8018 33.9836 30.6398L34.7226 29.3608C34.8162 29.1984 34.7846 28.9927 34.6465 28.8659L34.2385 28.4923C34.1089 28.3731 34.0348 28.2026 34.0352 28.0238V27.975C34.0352 27.7974 34.1089 27.6269 34.2385 27.5081ZM33.6976 29.0816L33.8688 29.2388L33.4512 29.9621L33.2559 29.9005C32.8715 29.7797 32.4538 29.8313 32.0722 30.0513C31.6949 30.2669 31.4385 30.6042 31.35 31.0006L31.306 31.2007H30.4707L30.4267 31.0003C30.3383 30.6042 30.0823 30.2669 29.6978 30.0473C29.3229 29.8317 28.9053 29.7801 28.5208 29.9005L28.326 29.9621L27.9083 29.2388L28.0796 29.0812C28.3744 28.8107 28.5432 28.4247 28.542 28.0234V27.977C28.5432 27.5745 28.3744 27.1885 28.0796 26.918L27.9083 26.7608L28.326 26.0375L28.5212 26.0991C28.9053 26.2203 29.3233 26.1687 29.705 25.9483C30.0823 25.7327 30.3387 25.3954 30.4271 24.9989L30.4711 24.7989H31.3064L31.3504 24.9993C31.4389 25.3954 31.6949 25.7327 32.0794 25.9523C32.4542 26.1679 32.8719 26.2195 33.2563 26.0991L33.4512 26.0375L33.8688 26.7608L33.6976 26.918C33.4028 27.1889 33.2339 27.5749 33.2351 27.9762V28.0226C33.2339 28.4251 33.4028 28.8111 33.6976 29.0816Z" fill="#092C3C"/>
<path d="M30.8882 26.1992C29.8956 26.1992 29.0879 27.0069 29.0879 27.9995C29.0879 28.992 29.8956 29.7998 30.8882 29.7998C31.8807 29.7998 32.6884 28.992 32.6884 27.9995C32.6884 27.0069 31.8807 26.1992 30.8882 26.1992ZM30.8882 28.9996C30.3365 28.9996 29.888 28.5512 29.888 27.9995C29.888 27.4478 30.3365 26.9993 30.8882 26.9993C31.4398 26.9993 31.8883 27.4478 31.8883 27.9995C31.8883 28.5512 31.4398 28.9996 30.8882 28.9996Z" fill="#092C3C"/>
</svg>
