<svg width="40" height="40" viewBox="0 0 40 40" fill="none" xmlns="http://www.w3.org/2000/svg">
<path d="M23.5 30C19.7032 30 19 30 19 30C19 30 15.4 30 7 30C7 23.3726 12.3726 18 19 18C22.2592 18 25.2148 19.2993 27.3774 21.4081" stroke="#092C3C" stroke-width="1.5" stroke-linecap="round" stroke-linejoin="round"/>
<path d="M19 17C22.3137 17 25 14.3137 25 11C25 7.68629 22.3137 5 19 5C15.6863 5 13 7.68629 13 11C13 14.3137 15.6863 17 19 17Z" stroke="#092C3C" stroke-width="1.5" stroke-linecap="round" stroke-linejoin="round"/>
<path d="M31 35C34.866 35 38 31.866 38 28C38 24.134 34.866 21 31 21C27.134 21 24 24.134 24 28C24 31.866 27.134 35 31 35Z" stroke="#092C3C" stroke-width="1.5" stroke-linecap="round" stroke-linejoin="round"/>
<g clip-path="url(#clip0_1807_19833)">
<path fill-rule="evenodd" clip-rule="evenodd" d="M31.3088 30.6765V31.4706H33.4265C33.4967 31.4706 33.564 31.4985 33.6136 31.5481C33.6633 31.5978 33.6912 31.6651 33.6912 31.7353C33.6912 31.8055 33.6633 31.8728 33.6136 31.9225C33.564 31.9721 33.4967 32 33.4265 32H28.6618C28.5916 32 28.5242 31.9721 28.4746 31.9225C28.4249 31.8728 28.3971 31.8055 28.3971 31.7353C28.3971 31.6651 28.4249 31.5978 28.4746 31.5481C28.5242 31.4985 28.5916 31.4706 28.6618 31.4706H30.7794V30.6765H30.1176C28.948 30.6765 28 29.7286 28 28.5588C28 27.8734 28.3285 27.2456 28.8629 26.8525C28.7503 26.6404 28.6833 26.407 28.6662 26.1675C28.649 25.9279 28.6822 25.6874 28.7636 25.4614C28.8449 25.2354 28.9727 25.0289 29.1385 24.8552C29.3044 24.6815 29.5048 24.5444 29.7268 24.4527C29.7227 24.4098 29.7206 24.3667 29.7206 24.3235C29.7206 23.5925 30.3131 23 31.0441 23C31.7751 23 32.3676 23.5925 32.3676 24.3235C32.3676 24.3668 32.3655 24.4098 32.3614 24.4524C32.6766 24.5825 32.9461 24.8031 33.1357 25.0865C33.3253 25.3699 33.4265 25.7032 33.4265 26.0441C33.4265 26.3305 33.3561 26.6066 33.225 26.8524C33.4928 27.0491 33.7105 27.3061 33.8604 27.6025C34.0104 27.899 34.0884 28.2266 34.0882 28.5588C34.0882 29.7284 33.1405 30.6765 31.9706 30.6765H31.3088ZM31.3088 30.1471H31.9706C32.8481 30.1471 33.5588 29.4361 33.5588 28.5588C33.5588 27.9717 33.2379 27.4415 32.7321 27.1646C32.6986 27.1462 32.6695 27.1208 32.6467 27.0901C32.6239 27.0594 32.6081 27.0241 32.6003 26.9867C32.5924 26.9493 32.5928 26.9106 32.6013 26.8734C32.6098 26.8361 32.6264 26.8011 32.6497 26.7709C32.8105 26.5628 32.8975 26.3071 32.8971 26.0441C32.8972 25.7782 32.8083 25.52 32.6447 25.3104C32.481 25.1009 32.252 24.9521 31.994 24.8878C31.9592 24.8791 31.9264 24.8635 31.8978 24.8418C31.8692 24.8201 31.8453 24.7928 31.8276 24.7616C31.8098 24.7304 31.7986 24.6959 31.7946 24.6602C31.7906 24.6246 31.7939 24.5884 31.8044 24.5541C31.8402 24.4355 31.8478 24.3101 31.8265 24.188C31.8052 24.0659 31.7557 23.9505 31.6818 23.851C31.6079 23.7515 31.5118 23.6707 31.401 23.615C31.2903 23.5593 31.1681 23.5303 31.0442 23.5303C30.9203 23.5303 30.798 23.5593 30.6873 23.615C30.5766 23.6707 30.4805 23.7515 30.4066 23.851C30.3327 23.9505 30.2832 24.0659 30.2619 24.188C30.2406 24.3101 30.2482 24.4355 30.284 24.5541C30.2944 24.5884 30.2977 24.6246 30.2937 24.6602C30.2897 24.6959 30.2785 24.7304 30.2608 24.7616C30.2431 24.7928 30.2192 24.8201 30.1905 24.8418C30.1619 24.8635 30.1292 24.8791 30.0944 24.8878C29.9024 24.9358 29.7254 25.0308 29.5794 25.1642C29.4333 25.2977 29.3227 25.4654 29.2576 25.6522C29.1926 25.8391 29.175 26.0392 29.2065 26.2345C29.2381 26.4299 29.3177 26.6143 29.4383 26.7711C29.4616 26.8014 29.4781 26.8364 29.4866 26.8736C29.4951 26.9109 29.4955 26.9495 29.4876 26.9869C29.4798 27.0243 29.464 27.0596 29.4412 27.0903C29.4185 27.121 29.3893 27.1464 29.3558 27.1648C29.1056 27.3015 28.8967 27.5031 28.7513 27.7484C28.6059 27.9937 28.5292 28.2736 28.5294 28.5588C28.5294 29.4361 29.2404 30.1471 30.1176 30.1471H30.7794V29.7272L29.7981 28.746C29.7499 28.696 29.7232 28.6292 29.7239 28.5598C29.7245 28.4904 29.7523 28.424 29.8014 28.3749C29.8505 28.3258 29.9168 28.298 29.9862 28.2974C30.0557 28.2968 30.1225 28.3235 30.1724 28.3717L30.7794 28.9786V27.0802L30.1952 26.496C30.147 26.446 30.1203 26.3792 30.1209 26.3098C30.1215 26.2404 30.1494 26.174 30.1984 26.1249C30.2475 26.0758 30.3139 26.048 30.3833 26.0474C30.4527 26.0468 30.5196 26.0735 30.5695 26.1217L30.7794 26.3316V25.6471C30.7794 25.5769 30.8073 25.5095 30.8569 25.4599C30.9066 25.4102 30.9739 25.3824 31.0441 25.3824C31.1143 25.3824 31.1817 25.4102 31.2313 25.4599C31.2809 25.5095 31.3088 25.5769 31.3088 25.6471V27.9198L31.6511 27.5776C31.701 27.5293 31.7679 27.5027 31.8373 27.5033C31.9067 27.5039 31.9731 27.5317 32.0222 27.5808C32.0712 27.6299 32.0991 27.6963 32.0997 27.7657C32.1003 27.8351 32.0736 27.9019 32.0254 27.9519L31.3088 28.6684V30.1471Z" fill="#092C3C"/>
</g>
<defs>
<clipPath id="clip0_1807_19833">
<rect width="6.08824" height="9" fill="white" transform="translate(28 23)"/>
</clipPath>
</defs>
</svg>
