<svg width="18" height="18" viewBox="0 0 18 18" fill="none" xmlns="http://www.w3.org/2000/svg">
<path d="M17.4 5.6H15.06L10.8 2.5V0.6C10.8 0.26 10.54 0 10.2 0H7.8C7.46 0 7.2 0.26 7.2 0.6V2.5L2.94 5.6H0.6C0.26 5.6 0 5.86 0 6.2V8.6C0 8.92 0.26 9.2 0.6 9.2H1.46L3.16 14.4C2.86 14.42 2.6 14.68 2.6 15V17.4C2.6 17.72 2.86 18 3.2 18H5.6C5.94 18 6.2 17.72 6.2 17.4V16.8H11.8V17.4C11.8 17.72 12.06 18 12.4 18H14.8C15.14 18 15.4 17.72 15.4 17.4V15C15.4 14.68 15.16 14.42 14.84 14.4L16.54 9.2H17.4C17.74 9.2 18 8.92 18 8.6V6.2C18 5.86 17.74 5.6 17.4 5.6ZM13.58 14.4H12.4C12.06 14.4 11.8 14.66 11.8 15V15.6H6.2V15C6.2 14.66 5.94 14.4 5.6 14.4H4.42L2.72 9.2H3C3.34 9.2 3.6 8.92 3.6 8.6V6.6L7.74 3.6C7.76 3.6 7.78 3.6 7.8 3.6H10.2C10.22 3.6 10.24 3.6 10.26 3.6L14.4 6.6V8.6C14.4 8.92 14.66 9.2 15 9.2H15.28L13.58 14.4Z" fill="currentColor "/>
</svg>
