<svg width="11" height="12" viewBox="0 0 11 12" fill="none" xmlns="http://www.w3.org/2000/svg">
  <path
    d="M0 11.5V10.125H1.89062L1.61563 9.88441C1.05417 9.32296 0.644531 8.7128 0.386719 8.05394C0.128906 7.39509 0 6.72191 0 6.03441C0 4.76254 0.38099 3.63103 1.14297 2.63988C1.90495 1.64874 2.89896 0.992746 4.125 0.671913V2.11566C3.3 2.41358 2.63542 2.92061 2.13125 3.63676C1.62708 4.3529 1.375 5.15212 1.375 6.03441C1.375 6.55004 1.4724 7.05134 1.66719 7.53832C1.86198 8.0253 2.16563 8.47504 2.57812 8.88754L2.75 9.05941V7.37504H4.125V11.5H0ZM6.875 11.3282V9.88441C7.7 9.5865 8.36458 9.07947 8.86875 8.36332C9.37292 7.64717 9.625 6.84795 9.625 5.96566C9.625 5.45004 9.5276 4.94874 9.33281 4.46176C9.13802 3.97478 8.83438 3.52504 8.42188 3.11254L8.25 2.94066V4.62504H6.875V0.500038H11V1.87504H9.10938L9.38438 2.11566C9.94583 2.67712 10.3555 3.28728 10.6133 3.94613C10.8711 4.60499 11 5.27816 11 5.96566C11 7.23754 10.619 8.36905 9.85703 9.36019C9.09505 10.3513 8.10104 11.0073 6.875 11.3282Z"
    fill="currentColor" />
</svg>