<svg width="32" height="32" viewBox="0 0 32 32" fill="none" xmlns="http://www.w3.org/2000/svg">
<g clip-path="url(#clip0_5084_13470)">
<path d="M16.0001 0C7.1778 0 0 7.1778 0 16.0001C0 20.7275 2.06812 25.1807 5.67557 28.2178C6.02964 28.5156 6.39555 28.7956 6.7748 29.0622C9.477 30.9852 12.6665 32 15.9998 32C19.3317 32 22.5211 30.9837 25.2203 29.0652C25.604 28.7971 25.9744 28.5111 26.3285 28.2134C26.3285 28.2134 26.3299 28.2134 26.3299 28.2119C29.9329 25.1719 31.9994 20.7216 31.9994 16.0002C31.9994 7.17795 24.8216 0.000149377 15.9994 0.000149377L16.0001 0ZM16.0001 30.8146C12.9156 30.8146 9.96306 29.8753 7.45921 28.0931C7.23995 27.9405 7.03846 27.7731 6.83108 27.6116C8.5096 24.9583 12.419 22.9362 16 22.9362C19.5777 22.9362 23.4903 24.9554 25.1734 27.6071C24.9631 27.7715 24.7586 27.9404 24.5364 28.096C22.0357 29.8737 19.0845 30.8146 16.0001 30.8146ZM26.0754 26.8263C24.1317 23.933 19.8798 21.7507 16.0001 21.7507C12.0429 21.7507 7.89346 23.9063 5.94825 26.8483C2.92308 24.0572 1.18518 20.1491 1.18518 15.9982C1.18518 7.82936 7.83088 1.18366 15.9997 1.18366C24.1685 1.18366 30.8142 7.82936 30.8142 15.9982C30.8142 20.1358 29.0838 24.0338 26.075 26.8248L26.0754 26.8263ZM16.0001 6.32865C12.729 6.32865 10.0666 8.98936 10.0666 12.2621C10.0666 15.5332 12.7288 18.1956 16.0001 18.1956C19.2713 18.1956 21.9335 15.5349 21.9335 12.2621C21.9335 8.99102 19.2713 6.32865 16.0001 6.32865ZM16.0001 17.0085C13.3823 17.0085 11.2518 14.8781 11.2518 12.2602C11.2518 9.64228 13.3821 7.51193 16.0001 7.51193C18.618 7.51193 20.7483 9.64228 20.7483 12.2602C20.7483 14.8781 18.618 17.0085 16.0001 17.0085Z" fill="white" fill-opacity="0.5"/>
</g>
<defs>
<clipPath id="clip0_5084_13470">
<rect width="32" height="32" rx="8" fill="white"/>
</clipPath>
</defs>
</svg>
