<svg width="24" height="24" viewBox="0 0 24 24" fill="none" xmlns="http://www.w3.org/2000/svg">
<path d="M20.7337 17.4666L14.05 4.28632C13.4491 3.1054 12.0447 2.65619 10.9126 3.28304C10.503 3.50999 10.1683 3.85903 9.95077 4.28632L3.2671 17.4666C2.67218 18.6436 3.1043 20.1016 4.23338 20.7222C4.56722 20.9061 4.94008 21.0015 5.31744 21H18.6833C19.9587 21.0039 20.9962 19.9286 21 18.5974C21.0015 18.203 20.91 17.8149 20.7337 17.4666ZM12.0004 18.6522C11.3792 18.6522 10.8751 18.1263 10.8751 17.4784C10.8751 16.8304 11.3792 16.3045 12.0004 16.3045C12.6216 16.3045 13.1257 16.8304 13.1257 17.4784C13.1257 18.1263 12.6216 18.6522 12.0004 18.6522ZM12.398 14.7393H11.602C11.404 14.7393 11.2397 14.5789 11.2277 14.3723L10.8991 8.89417C10.8856 8.66879 11.0574 8.47862 11.2734 8.47862H12.7259C12.9419 8.47862 13.1137 8.66879 13.1002 8.89417L12.7716 14.3723C12.7596 14.5789 12.5961 14.7393 12.398 14.7393Z" fill="#FF8938"/>
</svg>
