<svg width="16" height="16" viewBox="0 0 16 16" fill="none" xmlns="http://www.w3.org/2000/svg">
<path d="M13.1339 12.2674L11.8006 13.6008C11.6673 13.7341 11.4673 13.8008 11.3339 13.8008C11.2006 13.8008 11.0006 13.7341 10.8673 13.6008L9.53395 12.2674C9.26728 12.0008 9.26728 11.6008 9.53395 11.3341C9.80062 11.0674 10.2006 11.0674 10.4673 11.3341L10.6673 11.5341V2.46745C10.6673 2.06745 11.0006 1.80078 11.3339 1.80078C11.6673 1.80078 12.0006 2.06745 12.0006 2.46745V11.5341L12.2006 11.3341C12.4673 11.0674 12.8673 11.0674 13.1339 11.3341C13.4006 11.6008 13.4006 12.0008 13.1339 12.2674ZM7.93395 13.0008L5.93395 9.00078C5.73395 8.53411 4.93395 8.53411 4.73395 9.00078L2.73395 13.0008C2.60061 13.3341 2.73395 13.7341 3.00061 13.8674C3.33395 14.0008 3.73395 13.8674 3.86728 13.6008L4.06728 13.3341H6.60061L6.73395 13.6674C6.86728 13.8674 7.06728 14.0008 7.33395 14.0008C7.46728 14.0008 7.53395 14.0008 7.66728 13.9341C7.93395 13.8008 8.06728 13.3341 7.93395 13.0008ZM4.73395 12.0008L5.33395 10.8008L5.93395 12.0008H4.73395Z" fill="currentColor"/>
<path d="M3.33343 7.33333H7.33343C7.73343 7.33333 8.0001 7.06667 8.0001 6.66667C8.0001 6.26667 7.73343 6 7.33343 6H4.93343L7.8001 3.13333C8.0001 2.93333 8.06676 2.66667 7.93343 2.4C7.86676 2.13333 7.6001 2 7.33343 2H3.33343C2.93343 2 2.66676 2.26667 2.66676 2.66667C2.66676 3.06667 2.93343 3.33333 3.33343 3.33333H5.73343L2.86676 6.2C2.66676 6.4 2.6001 6.66667 2.73343 6.93333C2.8001 7.2 3.06676 7.33333 3.33343 7.33333Z" fill="currentColor"/>
</svg>
