<svg width="12" height="11" viewBox="0 0 12 11" fill="none" xmlns="http://www.w3.org/2000/svg">
<mask id="path-1-outside-1_5163_9498" maskUnits="userSpaceOnUse" x="0" y="0" width="12" height="11" fill="black">
<rect fill="white" width="12" height="11"/>
<path d="M3.91677 1.35698C3.91677 1.16161 4.07364 1.00313 4.26864 1L4.27364 1.00031C4.47082 1.00031 4.6305 1.16005 4.6305 1.35729V1.36198V4.21872C4.6305 4.22185 4.63019 4.22684 4.63019 4.22684C4.62956 4.25717 4.62519 4.28624 4.618 4.31187L4.61769 4.31343L4.61706 4.31593C4.61353 4.32883 4.6091 4.34153 4.60417 4.35352L4.60417 4.35351C4.60686 4.3494 4.60212 4.35928 4.59748 4.36871C4.5957 4.37249 4.59389 4.37615 4.59206 4.3797L4.59194 4.37987C4.5933 4.37713 4.59538 4.37297 4.59748 4.36871C4.59978 4.36381 4.60202 4.35873 4.60417 4.35352L4.57331 4.4119C4.56113 4.43128 4.54581 4.45003 4.53019 4.46629C4.52806 4.46851 4.50817 4.48263 4.48699 4.49756C4.49946 4.49171 4.5077 4.48771 4.50863 4.48692C4.47314 4.51047 4.45241 4.52407 4.44203 4.5307C4.44834 4.52844 4.45087 4.52779 4.44738 4.52974C4.43769 4.53506 4.42769 4.54006 4.41551 4.54537L4.41332 4.54631L4.41356 4.5462C4.40316 4.55058 4.3919 4.55468 4.37926 4.5585L4.38176 4.55788C4.38176 4.55788 4.38145 4.55756 4.37926 4.5585C4.3919 4.55468 4.40316 4.55058 4.41356 4.5462L4.41738 4.54443L4.41551 4.54537C4.42769 4.54006 4.43769 4.53506 4.44738 4.52974C4.45087 4.52779 4.44834 4.52844 4.44203 4.5307C4.4312 4.53762 4.43163 4.53694 4.43828 4.53206C4.41684 4.53999 4.36852 4.55935 4.34434 4.56765C4.35709 4.56506 4.36958 4.56179 4.38176 4.55788L4.37926 4.5585C4.38145 4.55756 4.38176 4.55788 4.38176 4.55788C4.36958 4.56179 4.35709 4.56506 4.34434 4.56765C4.33347 4.57138 4.32748 4.57288 4.33102 4.57009C4.31229 4.57316 4.29309 4.57476 4.27364 4.57476H1.41873H1.41341C1.21623 4.57476 1.05655 4.41502 1.05655 4.21778C1.05655 4.02054 1.21623 3.86081 1.41341 3.86081H1.41841H3.41179L1.16592 1.61392C1.09936 1.54922 1.0578 1.45857 1.0578 1.35823C1.0578 1.1613 1.21779 1.00156 1.41466 1.00125C1.51497 1.00125 1.60559 1.04251 1.67059 1.10941L3.91677 3.35629V1.36229V1.35698Z"/>
<path d="M4.59748 4.36871C4.59538 4.37297 4.5933 4.37713 4.59194 4.37987L4.59113 4.38158C4.58972 4.38431 4.59035 4.38305 4.59194 4.37987L4.59206 4.3797C4.59389 4.37615 4.5957 4.37249 4.59748 4.36871Z"/>
<path d="M7.98861 1.00375C7.79362 1.00688 7.63675 1.16536 7.63675 1.36073V1.36604V4.22184V4.22372C7.63675 4.23404 7.63737 4.24435 7.63831 4.25435L7.638 4.25279C7.63831 4.2556 7.63831 4.25873 7.63831 4.25873V4.25748C7.63925 4.2681 7.64081 4.27717 7.64237 4.28624L7.64206 4.28405L7.64425 4.29624L7.64394 4.29405C7.65136 4.3284 7.66277 4.35907 7.67754 4.38698C7.67948 4.39102 7.68093 4.39333 7.68237 4.39564L7.68144 4.39377C7.68675 4.40315 7.69112 4.41065 7.69612 4.41815L7.69518 4.4169C7.69737 4.42065 7.69894 4.42284 7.7005 4.42503L7.69956 4.42377C7.71956 4.45222 7.74237 4.47692 7.76831 4.49786L7.77206 4.5013C7.83018 4.54725 7.90424 4.57601 7.98455 4.57788C7.98455 4.57788 7.98955 4.57819 7.99267 4.57819H10.8485H10.8535C11.0507 4.57819 11.2104 4.41846 11.2104 4.22122C11.2104 4.02398 11.0507 3.86424 10.8535 3.86424H10.8482H8.85515L11.101 1.61736C11.1676 1.55234 11.2088 1.462 11.2088 1.36166C11.2088 1.16442 11.0491 1.00469 10.852 1.00469C10.8485 1.00469 10.8448 1.00469 10.8413 1.005C10.7451 1.00781 10.6592 1.04845 10.5967 1.11253L8.35048 3.35941V1.3651V1.36041C8.35048 1.16317 8.19048 1.00344 7.99361 1.00344L7.98861 1.00375Z"/>
<path d="M4.17084 7.07851C4.18365 7.07663 4.19677 7.07538 4.21052 7.07507C4.21396 7.07476 4.21709 7.07476 4.22052 7.07476C4.41771 7.07476 4.57739 7.23449 4.57739 7.43173C4.57739 7.4483 4.57614 7.46487 4.57426 7.47893V10.291V10.2963C4.57426 10.4935 4.41458 10.6533 4.2174 10.6533C4.02022 10.6533 3.86054 10.4935 3.86054 10.2963V10.2913V8.29729L1.61436 10.5442C1.54967 10.6086 1.4603 10.6486 1.36186 10.6486C1.16468 10.6486 1.00469 10.4888 1.00469 10.2916C1.00469 10.1928 1.04469 10.1037 1.10937 10.039L3.35555 7.79214H1.36218H1.35686C1.15968 7.79214 1 7.63241 1 7.43517C1 7.23793 1.15968 7.07819 1.35686 7.07819H1.36186H4.17271L4.17084 7.07851Z"/>
<path d="M7.77206 7.43548C7.77206 7.23855 7.93174 7.07882 8.12861 7.07851C8.14517 7.07851 8.16142 7.08007 8.17548 7.08226H10.987H10.9923C11.1895 7.08226 11.3491 7.2423 11.3491 7.43923C11.3491 7.63616 11.1895 7.79621 10.9923 7.79621H10.9873H8.99358L11.2398 10.0431C11.3044 10.1078 11.3444 10.1969 11.3444 10.2957C11.3444 10.4926 11.1848 10.6526 10.9876 10.6526C10.8891 10.6526 10.8001 10.6129 10.7354 10.5482L8.48922 8.30135V10.295V10.3004C8.48922 10.4976 8.32923 10.6573 8.13236 10.6573C7.93549 10.6573 7.77549 10.4976 7.77549 10.3004V10.2953V7.4855L7.77581 7.48737C7.77331 7.47018 7.77206 7.45299 7.77206 7.43548Z"/>
</mask>
<path d="M3.91677 1.35698C3.91677 1.16161 4.07364 1.00313 4.26864 1L4.27364 1.00031C4.47082 1.00031 4.6305 1.16005 4.6305 1.35729V1.36198V4.21872C4.6305 4.22185 4.63019 4.22684 4.63019 4.22684C4.62956 4.25717 4.62519 4.28624 4.618 4.31187L4.61769 4.31343L4.61706 4.31593C4.61353 4.32883 4.6091 4.34153 4.60417 4.35352L4.60417 4.35351C4.60686 4.3494 4.60212 4.35928 4.59748 4.36871C4.5957 4.37249 4.59389 4.37615 4.59206 4.3797L4.59194 4.37987C4.5933 4.37713 4.59538 4.37297 4.59748 4.36871C4.59978 4.36381 4.60202 4.35873 4.60417 4.35352L4.57331 4.4119C4.56113 4.43128 4.54581 4.45003 4.53019 4.46629C4.52806 4.46851 4.50817 4.48263 4.48699 4.49756C4.49946 4.49171 4.5077 4.48771 4.50863 4.48692C4.47314 4.51047 4.45241 4.52407 4.44203 4.5307C4.44834 4.52844 4.45087 4.52779 4.44738 4.52974C4.43769 4.53506 4.42769 4.54006 4.41551 4.54537L4.41332 4.54631L4.41356 4.5462C4.40316 4.55058 4.3919 4.55468 4.37926 4.5585L4.38176 4.55788C4.38176 4.55788 4.38145 4.55756 4.37926 4.5585C4.3919 4.55468 4.40316 4.55058 4.41356 4.5462L4.41738 4.54443L4.41551 4.54537C4.42769 4.54006 4.43769 4.53506 4.44738 4.52974C4.45087 4.52779 4.44834 4.52844 4.44203 4.5307C4.4312 4.53762 4.43163 4.53694 4.43828 4.53206C4.41684 4.53999 4.36852 4.55935 4.34434 4.56765C4.35709 4.56506 4.36958 4.56179 4.38176 4.55788L4.37926 4.5585C4.38145 4.55756 4.38176 4.55788 4.38176 4.55788C4.36958 4.56179 4.35709 4.56506 4.34434 4.56765C4.33347 4.57138 4.32748 4.57288 4.33102 4.57009C4.31229 4.57316 4.29309 4.57476 4.27364 4.57476H1.41873H1.41341C1.21623 4.57476 1.05655 4.41502 1.05655 4.21778C1.05655 4.02054 1.21623 3.86081 1.41341 3.86081H1.41841H3.41179L1.16592 1.61392C1.09936 1.54922 1.0578 1.45857 1.0578 1.35823C1.0578 1.1613 1.21779 1.00156 1.41466 1.00125C1.51497 1.00125 1.60559 1.04251 1.67059 1.10941L3.91677 3.35629V1.36229V1.35698Z" fill="#637579"/>
<path d="M4.59748 4.36871C4.59538 4.37297 4.5933 4.37713 4.59194 4.37987L4.59113 4.38158C4.58972 4.38431 4.59035 4.38305 4.59194 4.37987L4.59206 4.3797C4.59389 4.37615 4.5957 4.37249 4.59748 4.36871Z" fill="#637579"/>
<path d="M7.98861 1.00375C7.79362 1.00688 7.63675 1.16536 7.63675 1.36073V1.36604V4.22184V4.22372C7.63675 4.23404 7.63737 4.24435 7.63831 4.25435L7.638 4.25279C7.63831 4.2556 7.63831 4.25873 7.63831 4.25873V4.25748C7.63925 4.2681 7.64081 4.27717 7.64237 4.28624L7.64206 4.28405L7.64425 4.29624L7.64394 4.29405C7.65136 4.3284 7.66277 4.35907 7.67754 4.38698C7.67948 4.39102 7.68093 4.39333 7.68237 4.39564L7.68144 4.39377C7.68675 4.40315 7.69112 4.41065 7.69612 4.41815L7.69518 4.4169C7.69737 4.42065 7.69894 4.42284 7.7005 4.42503L7.69956 4.42377C7.71956 4.45222 7.74237 4.47692 7.76831 4.49786L7.77206 4.5013C7.83018 4.54725 7.90424 4.57601 7.98455 4.57788C7.98455 4.57788 7.98955 4.57819 7.99267 4.57819H10.8485H10.8535C11.0507 4.57819 11.2104 4.41846 11.2104 4.22122C11.2104 4.02398 11.0507 3.86424 10.8535 3.86424H10.8482H8.85515L11.101 1.61736C11.1676 1.55234 11.2088 1.462 11.2088 1.36166C11.2088 1.16442 11.0491 1.00469 10.852 1.00469C10.8485 1.00469 10.8448 1.00469 10.8413 1.005C10.7451 1.00781 10.6592 1.04845 10.5967 1.11253L8.35048 3.35941V1.3651V1.36041C8.35048 1.16317 8.19048 1.00344 7.99361 1.00344L7.98861 1.00375Z" fill="#637579"/>
<path d="M4.17084 7.07851C4.18365 7.07663 4.19677 7.07538 4.21052 7.07507C4.21396 7.07476 4.21709 7.07476 4.22052 7.07476C4.41771 7.07476 4.57739 7.23449 4.57739 7.43173C4.57739 7.4483 4.57614 7.46487 4.57426 7.47893V10.291V10.2963C4.57426 10.4935 4.41458 10.6533 4.2174 10.6533C4.02022 10.6533 3.86054 10.4935 3.86054 10.2963V10.2913V8.29729L1.61436 10.5442C1.54967 10.6086 1.4603 10.6486 1.36186 10.6486C1.16468 10.6486 1.00469 10.4888 1.00469 10.2916C1.00469 10.1928 1.04469 10.1037 1.10937 10.039L3.35555 7.79214H1.36218H1.35686C1.15968 7.79214 1 7.63241 1 7.43517C1 7.23793 1.15968 7.07819 1.35686 7.07819H1.36186H4.17271L4.17084 7.07851Z" fill="#637579"/>
<path d="M7.77206 7.43548C7.77206 7.23855 7.93174 7.07882 8.12861 7.07851C8.14517 7.07851 8.16142 7.08007 8.17548 7.08226H10.987H10.9923C11.1895 7.08226 11.3491 7.2423 11.3491 7.43923C11.3491 7.63616 11.1895 7.79621 10.9923 7.79621H10.9873H8.99358L11.2398 10.0431C11.3044 10.1078 11.3444 10.1969 11.3444 10.2957C11.3444 10.4926 11.1848 10.6526 10.9876 10.6526C10.8891 10.6526 10.8001 10.6129 10.7354 10.5482L8.48922 8.30135V10.295V10.3004C8.48922 10.4976 8.32923 10.6573 8.13236 10.6573C7.93549 10.6573 7.77549 10.4976 7.77549 10.3004V10.2953V7.4855L7.77581 7.48737C7.77331 7.47018 7.77206 7.45299 7.77206 7.43548Z" fill="#637579"/>
<path d="M4.33102 4.57009L4.27026 4.49067L4.34717 4.66878L4.33102 4.57009ZM4.34434 4.56765L4.36426 4.66565L4.36426 4.66565L4.34434 4.56765ZM4.38176 4.55788L4.41234 4.65309L4.56829 4.60299L4.45247 4.48717L4.38176 4.55788ZM4.37926 4.5585L4.33986 4.46659L4.40354 4.65551L4.37926 4.5585ZM4.41356 4.5462L4.37477 4.45403L4.37476 4.45403L4.41356 4.5462ZM4.41551 4.54537L4.45489 4.63729L4.45548 4.63704L4.41551 4.54537ZM4.44738 4.52974L4.49548 4.61742L4.4962 4.61701L4.44738 4.52974ZM4.44203 4.5307L4.4083 4.43656L4.4083 4.43656L4.44203 4.5307ZM4.43828 4.53206L4.37916 4.45142L4.47296 4.62586L4.43828 4.53206ZM4.48699 4.49756L4.5446 4.57929L4.44454 4.40702L4.48699 4.49756ZM4.59748 4.36871L4.68799 4.41123L4.50777 4.32452L4.59748 4.36871ZM4.59194 4.37987L4.50246 4.33521L4.67154 4.44039L4.59194 4.37987ZM4.59206 4.3797L4.67166 4.44023L4.67692 4.43331L4.68091 4.42559L4.59206 4.3797ZM7.67754 4.38698L7.58728 4.43021L7.58916 4.43376L7.67754 4.38698ZM7.678 4.38783L7.58979 4.43493L7.76746 4.34314L7.678 4.38783ZM7.67706 4.38595L7.76652 4.34127L7.58645 4.42826L7.67706 4.38595ZM4.34717 4.66878C4.3529 4.66784 4.3586 4.6668 4.36426 4.66565L4.32443 4.46965C4.32126 4.4703 4.31807 4.47088 4.31487 4.47141L4.34717 4.66878ZM4.36426 4.66565C4.38061 4.66232 4.39666 4.65812 4.41234 4.65309L4.35118 4.46267C4.3425 4.46545 4.33357 4.4678 4.32443 4.46965L4.36426 4.66565ZM4.35748 4.46087L4.35498 4.46149L4.40354 4.65551L4.40604 4.65488L4.35748 4.46087ZM4.41866 4.65041C4.41599 4.65156 4.40621 4.65568 4.39241 4.65722C4.38512 4.65803 4.37331 4.65853 4.35924 4.65529C4.35197 4.65362 4.3438 4.65088 4.33537 4.64646C4.33116 4.64426 4.32695 4.64167 4.32282 4.63866C4.32077 4.63716 4.31875 4.63557 4.31678 4.63389C4.31579 4.63304 4.31482 4.63218 4.31386 4.6313C4.31339 4.63085 4.31291 4.63041 4.31244 4.62996C4.31221 4.62973 4.31197 4.6295 4.31174 4.62928C4.31163 4.62916 4.31145 4.62899 4.31139 4.62893C4.31122 4.62876 4.31105 4.62859 4.38176 4.55788C4.45247 4.48717 4.4523 4.48699 4.45212 4.48682C4.45206 4.48676 4.45189 4.48659 4.45177 4.48648C4.45154 4.48625 4.45131 4.48602 4.45107 4.4858C4.4506 4.48534 4.45013 4.4849 4.44965 4.48446C4.44869 4.48357 4.44772 4.48271 4.44674 4.48187C4.44476 4.48018 4.44274 4.47858 4.44068 4.47708C4.43656 4.47407 4.43234 4.47148 4.42811 4.46927C4.41965 4.46484 4.41144 4.46208 4.40411 4.46039C4.38992 4.45712 4.37789 4.4576 4.37025 4.45845C4.35574 4.46007 4.34472 4.46451 4.33986 4.46659L4.41866 4.65041ZM4.4082 4.65422C4.42413 4.6494 4.43869 4.64412 4.45236 4.63836L4.37476 4.45403C4.36764 4.45703 4.35967 4.45995 4.35031 4.46278L4.4082 4.65422ZM4.45235 4.63837C4.45324 4.638 4.45409 4.63763 4.45489 4.63729L4.37612 4.45346C4.37564 4.45366 4.37519 4.45385 4.37477 4.45403L4.45235 4.63837ZM4.45548 4.63704C4.47059 4.63045 4.4833 4.6241 4.49548 4.61742L4.39928 4.44207C4.39209 4.44602 4.3848 4.44967 4.37554 4.45371L4.45548 4.63704ZM4.4026 4.44033L4.40073 4.44127L4.49028 4.6201L4.49216 4.61916L4.4026 4.44033ZM4.4962 4.61701C4.49757 4.61625 4.50011 4.6148 4.50305 4.61288C4.50452 4.61192 4.50697 4.61028 4.50983 4.60807C4.51195 4.60643 4.51801 4.60169 4.52442 4.59431C4.52761 4.59063 4.53345 4.58341 4.53858 4.57302C4.54341 4.56326 4.55155 4.54277 4.54816 4.51605C4.53938 4.44688 4.47657 4.43214 4.46839 4.43051C4.45353 4.42756 4.44159 4.4288 4.43883 4.42908C4.43413 4.42954 4.43041 4.43025 4.42844 4.43065C4.41887 4.4326 4.40909 4.43627 4.4083 4.43656L4.47576 4.62484C4.48128 4.62286 4.47592 4.62509 4.46832 4.62663C4.4666 4.62698 4.46309 4.62765 4.45856 4.6281C4.45597 4.62836 4.44415 4.62961 4.42939 4.62667C4.42129 4.62506 4.35853 4.61035 4.34975 4.54124C4.34637 4.51455 4.3545 4.49408 4.35931 4.48436C4.36443 4.47401 4.37023 4.46683 4.37339 4.46319C4.37972 4.4559 4.38566 4.45126 4.38762 4.44975C4.39032 4.44767 4.39255 4.44617 4.39377 4.44538C4.39621 4.44379 4.39806 4.44275 4.39856 4.44247L4.4962 4.61701ZM4.4083 4.43656C4.40678 4.4371 4.4052 4.43768 4.40361 4.43827L4.47296 4.62586C4.4741 4.62544 4.47503 4.6251 4.47577 4.62484L4.4083 4.43656ZM4.39177 4.64952C4.38827 4.6522 4.38539 4.65402 4.38432 4.65469C4.38294 4.65555 4.38184 4.65619 4.38126 4.65652C4.3801 4.65718 4.37932 4.65759 4.37928 4.65761C4.37913 4.65769 4.37958 4.65745 4.38096 4.65678C4.38358 4.65549 4.38763 4.65357 4.39308 4.65101C4.40388 4.64595 4.41856 4.63917 4.43489 4.63166C4.4671 4.61687 4.50573 4.59922 4.52944 4.5881L4.44454 4.40702C4.42175 4.4177 4.38449 4.43472 4.35138 4.44994C4.33505 4.45744 4.31973 4.46451 4.30815 4.46994C4.30242 4.47263 4.29719 4.47511 4.29307 4.47712C4.29108 4.4781 4.28879 4.47924 4.28661 4.48037C4.28556 4.48092 4.28395 4.48178 4.28214 4.48281C4.28164 4.48309 4.27623 4.4861 4.27026 4.49067L4.39177 4.64952ZM4.49741 4.61271C4.50542 4.60684 4.52448 4.59348 4.5446 4.57929L4.42938 4.41582C4.41088 4.42886 4.38916 4.44409 4.37916 4.45142L4.49741 4.61271ZM4.50777 4.32452C4.5058 4.32851 4.50384 4.33245 4.50246 4.33521L4.68141 4.42452C4.68277 4.4218 4.68496 4.41742 4.68718 4.4129L4.50777 4.32452ZM4.67154 4.44039L4.67166 4.44023L4.51246 4.31917L4.51234 4.31934L4.67154 4.44039ZM4.68091 4.42559C4.68333 4.42092 4.68569 4.41612 4.68799 4.41123L4.50696 4.3262C4.50572 4.32885 4.50446 4.33139 4.50321 4.33381L4.68091 4.42559ZM7.58916 4.43376C7.58936 4.43414 7.58957 4.43453 7.58979 4.43493L7.76621 4.34072C7.76612 4.34056 7.76603 4.34038 7.76593 4.34019L7.58916 4.43376ZM7.76746 4.34314L7.76652 4.34127L7.5876 4.43064L7.58854 4.43251L7.76746 4.34314ZM7.58645 4.42826C7.58675 4.42889 7.58705 4.42953 7.58736 4.43018L7.76773 4.34377C7.76773 4.34376 7.7677 4.34372 7.76767 4.34364L7.58645 4.42826ZM4.26864 1L4.28112 0.80039L4.27328 0.7999L4.26543 0.800026L4.26864 1ZM3.91677 3.35629L3.77533 3.49769L4.11677 3.83924V3.35629H3.91677ZM1.67059 1.10941L1.52714 1.24879L1.52915 1.2508L1.67059 1.10941ZM1.41466 1.00125L1.41466 0.801251L1.41434 0.801251L1.41466 1.00125ZM1.16592 1.61392L1.30739 1.47252L1.30533 1.47052L1.16592 1.61392ZM3.41179 3.86081V4.06081H3.89448L3.55324 3.71942L3.41179 3.86081ZM4.33102 4.57009L4.45475 4.72722L4.29871 4.37272L4.33102 4.57009ZM4.34434 4.56765L4.40928 4.75681L4.40928 4.75681L4.34434 4.56765ZM4.41356 4.5462L4.49737 4.72779L4.49744 4.72776L4.41356 4.5462ZM4.41551 4.54537L4.49448 4.72949L4.50502 4.72422L4.41551 4.54537ZM4.41332 4.54631L4.32951 4.36472L4.49216 4.73011L4.41332 4.54631ZM4.41738 4.54443L4.5069 4.72328L4.3335 4.36287L4.41738 4.54443ZM4.44203 4.5307L4.54969 4.69925L4.54969 4.69925L4.44203 4.5307ZM4.43828 4.53206L4.55654 4.69336L4.36893 4.34448L4.43828 4.53206ZM4.48699 4.49756L4.37176 4.33408L4.5719 4.67864L4.48699 4.49756ZM4.50863 4.48692L4.63882 4.63874L4.39806 4.32026L4.50863 4.48692ZM4.53019 4.46629L4.386 4.32769L4.38564 4.32806L4.53019 4.46629ZM4.57331 4.4119L4.74262 4.51836L4.74663 4.51199L4.75014 4.50534L4.57331 4.4119ZM4.60417 4.35351L4.43676 4.24408L4.43044 4.25374L4.42528 4.26407L4.60417 4.35351ZM4.59748 4.36871L4.41645 4.28369L4.77689 4.45709L4.59748 4.36871ZM4.59194 4.37987L4.77269 4.46547L4.41298 4.29056L4.59194 4.37987ZM4.59113 4.38158L4.76903 4.4732L4.77188 4.46718L4.59113 4.38158ZM4.61706 4.31593L4.81001 4.36878L4.81109 4.36444L4.61706 4.31593ZM4.61769 4.31343L4.81194 4.362L4.8138 4.35266L4.61769 4.31343ZM4.618 4.31187L4.42543 4.25787L4.42337 4.26519L4.42188 4.27265L4.618 4.31187ZM4.63019 4.22684L4.4304 4.21434L4.43023 4.22272L4.63019 4.22684ZM4.27364 1.00031L4.26112 1.20031H4.27364V1.00031ZM7.98861 1.00375L7.99182 1.20394L8.0011 1.20336L7.98861 1.00375ZM7.63831 4.25435L7.44217 4.29346L7.83744 4.23569L7.63831 4.25435ZM7.638 4.25279L7.83414 4.21368L7.43922 4.27486L7.638 4.25279ZM7.63831 4.25873H7.43831L7.83831 4.25876L7.63831 4.25873ZM7.63831 4.25748L7.83754 4.2399L7.43831 4.25748H7.63831ZM7.64237 4.28624L7.44528 4.32021L7.84036 4.2579L7.64237 4.28624ZM7.64206 4.28405L7.83892 4.24871L7.44408 4.31238L7.64206 4.28405ZM7.64425 4.29624L7.4474 4.33157L7.84223 4.26791L7.64425 4.29624ZM7.64394 4.29405L7.83942 4.2518L7.44595 4.32238L7.64394 4.29405ZM7.67754 4.38698L7.85802 4.30042L7.85429 4.29337L7.67754 4.38698ZM7.68237 4.39564L7.51276 4.50163L7.86126 4.3062L7.68237 4.39564ZM7.68144 4.39377L7.85545 4.29519L7.50255 4.48321L7.68144 4.39377ZM7.69612 4.41815L7.53606 4.53807L7.86255 4.30723L7.69612 4.41815ZM7.69518 4.4169L7.85524 4.29697L7.52241 4.51764L7.69518 4.4169ZM7.7005 4.42503L7.5405 4.54503L7.86326 4.3088L7.7005 4.42503ZM7.69956 4.42377L7.85956 4.30377L7.53595 4.53881L7.69956 4.42377ZM7.76831 4.49786L7.90371 4.35013L7.89396 4.34226L7.76831 4.49786ZM7.77206 4.5013L7.63692 4.64873L7.6423 4.65366L7.64802 4.65819L7.77206 4.5013ZM7.98455 4.57788L7.99705 4.37812L7.98922 4.37794L7.98455 4.57788ZM8.85515 3.86424L8.7137 3.72285L8.37246 4.06424H8.85515V3.86424ZM11.101 1.61736L10.9613 1.47428L10.9596 1.47597L11.101 1.61736ZM10.8413 1.005L10.8472 1.20529L10.8595 1.20418L10.8413 1.005ZM10.5967 1.11253L10.7381 1.25394L10.7398 1.25217L10.5967 1.11253ZM8.35048 3.35941H8.15048V3.84236L8.49192 3.50081L8.35048 3.35941ZM7.99361 1.00344V0.803046L7.98113 0.803827L7.99361 1.00344ZM4.21052 7.07507L4.21508 7.27548L4.22865 7.27425L4.21052 7.07507ZM4.17084 7.07851L4.13793 6.88123L4.19981 7.2764L4.17084 7.07851ZM4.17271 7.07819L4.20563 7.27547L4.17271 6.87819V7.07819ZM3.35555 7.79214L3.497 7.93354L3.83829 7.59214H3.35555V7.79214ZM1.10937 10.039L0.967928 9.89763L0.967928 9.89763L1.10937 10.039ZM1.61436 10.5442L1.75546 10.6859L1.7558 10.6856L1.61436 10.5442ZM3.86054 8.29729H4.06054V7.81434L3.71909 8.15589L3.86054 8.29729ZM4.57426 7.47893L4.37602 7.45251L4.37426 7.46566V7.47893H4.57426ZM8.12861 7.07851L8.12861 6.87851L8.12829 6.87851L8.12861 7.07851ZM7.77581 7.48737L7.57853 7.52025L7.97373 7.45859L7.77581 7.48737ZM7.77549 7.4855L7.97277 7.45262L7.57549 7.4855H7.77549ZM8.48922 8.30135L8.63067 8.15995L8.28922 7.8184V8.30135H8.48922ZM10.7354 10.5482L10.594 10.6896L10.594 10.6896L10.7354 10.5482ZM11.2398 10.0431L11.0983 10.1845L11.0983 10.1845L11.2398 10.0431ZM8.99358 7.79621V7.59621H8.51085L8.85214 7.93761L8.99358 7.79621ZM8.17548 7.08226L8.14473 7.27988L8.16001 7.28226H8.17548V7.08226ZM4.26543 0.800026C3.96179 0.804893 3.71677 1.05186 3.71677 1.35698H4.11677C4.11677 1.27136 4.1855 1.20136 4.27184 1.19997L4.26543 0.800026ZM3.71677 1.35698V1.36229H4.11677V1.35698H3.71677ZM3.71677 1.36229V3.35629H4.11677V1.36229H3.71677ZM4.05822 3.21489L1.81204 0.968006L1.52915 1.2508L3.77533 3.49769L4.05822 3.21489ZM1.81403 0.970031C1.71284 0.865883 1.57107 0.801251 1.41466 0.801251V1.20125C1.45887 1.20125 1.49835 1.21914 1.52715 1.24878L1.81403 0.970031ZM1.41434 0.801251C1.1075 0.801739 0.857798 1.05061 0.857798 1.35823H1.2578C1.2578 1.27198 1.32809 1.20139 1.41498 1.20125L1.41434 0.801251ZM0.857798 1.35823C0.857798 1.51493 0.922928 1.65663 1.02651 1.75733L1.30533 1.47052C1.27579 1.4418 1.2578 1.4022 1.2578 1.35823H0.857798ZM1.02447 1.75531L3.27033 4.00219L3.55324 3.71942L1.30737 1.47253L1.02447 1.75531ZM3.41179 3.66081H1.41841V4.06081H3.41179V3.66081ZM1.41841 3.66081H1.41341V4.06081H1.41841V3.66081ZM1.41341 3.66081C1.10572 3.66081 0.856548 3.91014 0.856548 4.21778H1.25655C1.25655 4.13094 1.32675 4.06081 1.41341 4.06081V3.66081ZM0.856548 4.21778C0.856548 4.52542 1.10572 4.77476 1.41341 4.77476V4.37476C1.32675 4.37476 1.25655 4.30463 1.25655 4.21778H0.856548ZM1.41341 4.77476H1.41873V4.37476H1.41341V4.77476ZM1.41873 4.77476H4.27364V4.37476H1.41873V4.77476ZM4.27364 4.77476C4.30403 4.77476 4.33404 4.77226 4.36332 4.76747L4.29871 4.37272C4.29054 4.37406 4.28214 4.37476 4.27364 4.37476V4.77476ZM4.33666 4.36157L4.33448 4.36251L4.49216 4.73011L4.49435 4.72918L4.33666 4.36157ZM4.49713 4.7279L4.49737 4.72779L4.32975 4.36461L4.32951 4.36472L4.49713 4.7279ZM4.49744 4.72776L4.50126 4.72599L4.3335 4.36287L4.32968 4.36464L4.49744 4.72776ZM4.32787 4.36558L4.32599 4.36652L4.50502 4.72422L4.5069 4.72328L4.32787 4.36558ZM4.36893 4.34448C4.33513 4.35697 4.30285 4.37043 4.2794 4.37849L4.40928 4.75681C4.43418 4.74826 4.49855 4.72302 4.50764 4.71965L4.36893 4.34448ZM4.2794 4.37849C4.27261 4.38082 4.28015 4.37783 4.2923 4.37535C4.29565 4.37467 4.30676 4.37243 4.32147 4.37175C4.32866 4.37141 4.34326 4.37108 4.36147 4.37395C4.37576 4.3762 4.41714 4.38393 4.45743 4.4172C4.51014 4.46073 4.53561 4.52677 4.52896 4.59162C4.52387 4.64126 4.50169 4.67466 4.49373 4.68598C4.47627 4.71081 4.45715 4.72534 4.45475 4.72722L4.20728 4.41296C4.204 4.41555 4.18429 4.43064 4.16652 4.4559C4.15841 4.46745 4.13615 4.50103 4.13104 4.55082C4.12438 4.61583 4.1499 4.682 4.20273 4.72562C4.24313 4.75899 4.28469 4.76679 4.29923 4.76908C4.31769 4.77198 4.3326 4.77166 4.34015 4.77131C4.3556 4.77059 4.36769 4.76821 4.37225 4.76728C4.38923 4.76382 4.4052 4.75821 4.40928 4.75681L4.2794 4.37849ZM4.5719 4.67864C4.5784 4.67559 4.58481 4.67255 4.59011 4.66996C4.5926 4.66874 4.59612 4.667 4.59975 4.66508C4.60145 4.66419 4.60467 4.66248 4.60846 4.66027C4.61034 4.65918 4.61355 4.65728 4.6174 4.65477C4.62 4.65308 4.62874 4.64738 4.63882 4.63874L4.37844 4.3351C4.38405 4.33028 4.38884 4.32672 4.39173 4.32464C4.39484 4.32241 4.39748 4.32065 4.39934 4.31944C4.40296 4.31708 4.40589 4.31535 4.40743 4.31446C4.41055 4.31265 4.41287 4.31142 4.41347 4.31111C4.41491 4.31035 4.41542 4.31012 4.41417 4.31073C4.41199 4.3118 4.40805 4.31368 4.40208 4.31648L4.5719 4.67864ZM4.39806 4.32026C4.36234 4.34396 4.34306 4.3566 4.33438 4.36214L4.54969 4.69925C4.56177 4.69153 4.58393 4.67698 4.6192 4.65358L4.39806 4.32026ZM4.33438 4.36214C4.33208 4.36361 4.33172 4.36382 4.33248 4.36336C4.33265 4.36325 4.33482 4.36193 4.33798 4.3602C4.33941 4.35941 4.34307 4.35742 4.34794 4.3551C4.35037 4.35394 4.35469 4.35195 4.36023 4.34976C4.36426 4.34817 4.37638 4.34345 4.39265 4.34004C4.40063 4.33837 4.41666 4.33548 4.43712 4.33584C4.45432 4.33615 4.49866 4.33891 4.54432 4.36928C4.60143 4.40727 4.62997 4.46749 4.63322 4.52441C4.63581 4.56985 4.62218 4.60372 4.61646 4.61665C4.60439 4.64395 4.58885 4.66185 4.58615 4.66504C4.58062 4.67155 4.57585 4.67632 4.57347 4.67864C4.56854 4.68346 4.56448 4.68691 4.5631 4.68808C4.56123 4.68966 4.55974 4.69085 4.55896 4.69147C4.55651 4.69342 4.5551 4.69441 4.55654 4.69336L4.32003 4.37077C4.31814 4.37216 4.31418 4.37507 4.31012 4.3783C4.3097 4.37863 4.30216 4.3845 4.29391 4.39256C4.29145 4.39496 4.28661 4.3998 4.28104 4.40637C4.27829 4.40961 4.26272 4.42756 4.25063 4.45489C4.2449 4.46784 4.23127 4.50172 4.23387 4.54718C4.23711 4.6041 4.26565 4.66433 4.32278 4.70233C4.36844 4.7327 4.41279 4.73547 4.43001 4.73578C4.4505 4.73614 4.46655 4.73324 4.47455 4.73157C4.49087 4.72815 4.50306 4.72341 4.50718 4.72179C4.5128 4.71956 4.51723 4.71752 4.51978 4.71631C4.5249 4.71387 4.52886 4.71172 4.53068 4.71072C4.53461 4.70856 4.53785 4.70661 4.5394 4.70568C4.54292 4.70355 4.54657 4.70124 4.54969 4.69925L4.33438 4.36214ZM4.60221 4.66103C4.61278 4.65358 4.62377 4.64582 4.63252 4.63952C4.6368 4.63644 4.64139 4.63311 4.64544 4.63007C4.64739 4.62862 4.65017 4.62651 4.65315 4.62413C4.65463 4.62296 4.65696 4.62108 4.65966 4.61877C4.6614 4.61728 4.66762 4.61196 4.67474 4.60452L4.38564 4.32806C4.38957 4.32396 4.39286 4.32088 4.3947 4.31919C4.39672 4.31734 4.3984 4.31588 4.39951 4.31492C4.40168 4.31306 4.40335 4.31173 4.40403 4.31118C4.40543 4.31007 4.40615 4.30954 4.4056 4.30995C4.40467 4.31065 4.40256 4.3122 4.39895 4.3148C4.39193 4.31984 4.38238 4.3266 4.37176 4.33408L4.60221 4.66103ZM4.67438 4.60489C4.69738 4.58096 4.72175 4.55156 4.74262 4.51836L4.40401 4.30543C4.40051 4.311 4.39425 4.31911 4.386 4.32769L4.67438 4.60489ZM4.75014 4.50534L4.78099 4.44696L4.42734 4.26007L4.39648 4.31846L4.75014 4.50534ZM4.78305 4.44296L4.78305 4.44296L4.42528 4.26407L4.42528 4.26407L4.78305 4.44296ZM4.77157 4.46294C4.77068 4.46431 4.76847 4.46765 4.76538 4.47184C4.76502 4.47232 4.75441 4.48733 4.7373 4.50245C4.73598 4.50362 4.69876 4.53968 4.63778 4.54983C4.59709 4.55661 4.53791 4.55264 4.48427 4.51206C4.43582 4.4754 4.41824 4.42841 4.41181 4.40453C4.40033 4.36185 4.40661 4.32659 4.4072 4.32272C4.4089 4.31151 4.4112 4.30289 4.41228 4.29901C4.41459 4.29076 4.41692 4.28456 4.41764 4.28265C4.41867 4.27992 4.41953 4.27784 4.41998 4.27677C4.42087 4.27464 4.42151 4.27324 4.42157 4.27312C4.42174 4.27273 4.42153 4.27321 4.42071 4.27492C4.41998 4.27643 4.41908 4.27827 4.41806 4.28034L4.77689 4.45709C4.77914 4.45252 4.78273 4.44518 4.78557 4.43895C4.78634 4.43726 4.78758 4.43451 4.78893 4.43129C4.78902 4.43107 4.79373 4.42025 4.79753 4.40664C4.79865 4.40264 4.80098 4.39392 4.80269 4.38263C4.80329 4.37867 4.80957 4.34334 4.79808 4.30063C4.79165 4.27673 4.77406 4.22972 4.7256 4.19306C4.67195 4.15247 4.61275 4.14849 4.57204 4.15527C4.51103 4.16544 4.47377 4.20153 4.47239 4.20275C4.45516 4.21797 4.44438 4.23318 4.44379 4.23397C4.44047 4.23845 4.43799 4.2422 4.43676 4.24408L4.77157 4.46294ZM4.41298 4.29056C4.41266 4.29121 4.41127 4.29398 4.41042 4.29574C4.41031 4.29597 4.4096 4.29742 4.40876 4.29925C4.40863 4.29954 4.40703 4.30297 4.40523 4.30736C4.40469 4.30868 4.40377 4.31098 4.4027 4.31387C4.40193 4.31595 4.39962 4.32225 4.39737 4.33054C4.39631 4.33443 4.39406 4.34306 4.39243 4.35425C4.39191 4.35782 4.38568 4.39362 4.39767 4.43671C4.40673 4.46236 4.44351 4.51887 4.47384 4.54564C4.51386 4.56788 4.59377 4.58305 4.62954 4.5792C4.68883 4.56735 4.72453 4.53139 4.72565 4.53036C4.74206 4.51529 4.75226 4.50048 4.75273 4.49983C4.7558 4.49556 4.75804 4.49207 4.75906 4.49047C4.76124 4.48706 4.76282 4.48433 4.76337 4.48339C4.76467 4.48114 4.76565 4.47935 4.76591 4.47887C4.76664 4.47755 4.7672 4.47648 4.76734 4.47621C4.76799 4.47498 4.76867 4.47365 4.76893 4.47315L4.41332 4.29C4.41287 4.29087 4.41311 4.29042 4.41353 4.28962C4.41362 4.28945 4.41413 4.28847 4.41483 4.2872C4.41508 4.28674 4.41604 4.28497 4.41734 4.28274C4.41787 4.28181 4.41946 4.27908 4.42163 4.27568C4.42265 4.27408 4.42489 4.27059 4.42796 4.26632C4.42842 4.26568 4.43863 4.25087 4.45504 4.23579C4.45616 4.23477 4.49185 4.19881 4.55115 4.18696C4.58692 4.18311 4.66682 4.19828 4.70684 4.22051C4.73718 4.24728 4.77396 4.30379 4.78302 4.32945C4.79501 4.37253 4.78877 4.40834 4.78826 4.4119C4.78663 4.4231 4.78438 4.43172 4.78332 4.43561C4.78106 4.4439 4.77875 4.45021 4.77799 4.45228C4.77692 4.45517 4.776 4.45746 4.77546 4.45878C4.77367 4.46316 4.77208 4.46658 4.77196 4.46684C4.77113 4.46863 4.77046 4.47001 4.7704 4.47014C4.7699 4.47116 4.76963 4.4717 4.77089 4.46917L4.41298 4.29056ZM4.77188 4.46718L4.77269 4.46547L4.41118 4.29426L4.41037 4.29597L4.77188 4.46718ZM4.7785 4.45374C4.78217 4.44593 4.78572 4.43788 4.78911 4.42963L4.41922 4.2774C4.41832 4.27958 4.41739 4.28169 4.41645 4.28369L4.7785 4.45374ZM4.78911 4.42963C4.79686 4.41081 4.80405 4.39033 4.80996 4.36877L4.42417 4.2631C4.42301 4.26733 4.42134 4.27224 4.41922 4.2774L4.78911 4.42963ZM4.81109 4.36444L4.81172 4.36194L4.42366 4.26493L4.42303 4.26743L4.81109 4.36444ZM4.8138 4.35266L4.81412 4.35109L4.42188 4.27265L4.42157 4.27421L4.8138 4.35266ZM4.81057 4.36587C4.82252 4.32326 4.82919 4.27738 4.83014 4.23097L4.43023 4.22272C4.42994 4.23695 4.42785 4.24922 4.42543 4.25787L4.81057 4.36587ZM4.63019 4.22684C4.8298 4.23933 4.8298 4.23933 4.8298 4.23933C4.8298 4.23933 4.8298 4.23932 4.8298 4.23932C4.8298 4.23931 4.8298 4.23931 4.8298 4.2393C4.8298 4.23929 4.8298 4.23928 4.8298 4.23927C4.8298 4.23925 4.8298 4.23922 4.82981 4.2392C4.82981 4.23914 4.82981 4.23909 4.82982 4.23902C4.82982 4.2389 4.82983 4.23875 4.82984 4.23858C4.82986 4.23825 4.82989 4.23782 4.82992 4.23733C4.82997 4.23636 4.83004 4.23503 4.83012 4.23348C4.83022 4.23132 4.8305 4.22531 4.8305 4.21872H4.4305C4.4305 4.21525 4.43062 4.21331 4.43057 4.21443C4.43057 4.21452 4.43056 4.21463 4.43056 4.2147C4.43055 4.21472 4.43056 4.21472 4.43056 4.21467C4.43056 4.21464 4.43056 4.2146 4.43057 4.21455C4.43057 4.21453 4.43057 4.2145 4.43057 4.21447C4.43057 4.21445 4.43057 4.21443 4.43057 4.21441C4.43057 4.2144 4.43057 4.21439 4.43058 4.21439C4.43058 4.21438 4.43058 4.21438 4.43058 4.21437C4.43058 4.21437 4.43058 4.21436 4.43058 4.21436C4.43058 4.21436 4.43058 4.21436 4.63019 4.22684ZM4.8305 4.21872V1.36198H4.4305V4.21872H4.8305ZM4.8305 1.36198V1.35729H4.4305V1.36198H4.8305ZM4.8305 1.35729C4.8305 1.04965 4.58133 0.800313 4.27364 0.800313V1.20031C4.3603 1.20031 4.4305 1.27044 4.4305 1.35729H4.8305ZM4.28612 0.800703L4.28112 0.80039L4.25615 1.19961L4.26115 1.19992L4.28612 0.800703ZM7.98541 0.803776C7.68176 0.808643 7.43675 1.05561 7.43675 1.36073H7.83675C7.83675 1.27511 7.90547 1.20511 7.99182 1.20372L7.98541 0.803776ZM7.43675 1.36073V1.36604H7.83675V1.36073H7.43675ZM7.43675 1.36604V4.22184H7.83675V1.36604H7.43675ZM7.43675 4.22184V4.22372H7.83675V4.22184H7.43675ZM7.43675 4.22372C7.43675 4.24192 7.43784 4.25871 7.43918 4.27301L7.83744 4.23569C7.8369 4.22999 7.83675 4.22615 7.83675 4.22372H7.43675ZM7.83445 4.21524L7.83414 4.21368L7.44186 4.2919L7.44217 4.29346L7.83445 4.21524ZM7.43922 4.27486C7.43859 4.26914 7.43844 4.265 7.43839 4.26368C7.43836 4.26269 7.43834 4.26182 7.43833 4.26106C7.43832 4.26068 7.43832 4.26029 7.43832 4.2599C7.43831 4.25971 7.43831 4.25951 7.43831 4.25931C7.43831 4.25921 7.43831 4.25911 7.43831 4.25901C7.43831 4.25896 7.43831 4.2589 7.43831 4.25885C7.43831 4.25883 7.43831 4.2588 7.43831 4.25878C7.43831 4.25876 7.43831 4.25875 7.43831 4.25874C7.43831 4.25873 7.43831 4.25872 7.43831 4.25872C7.43831 4.25871 7.43831 4.2587 7.63831 4.25873C7.83831 4.25876 7.83831 4.25875 7.83831 4.25874C7.83831 4.25874 7.83831 4.25873 7.83831 4.25872C7.83831 4.25871 7.83831 4.25869 7.83831 4.25868C7.83831 4.25865 7.83831 4.25863 7.83831 4.2586C7.83831 4.25854 7.83831 4.25849 7.83831 4.25843C7.83831 4.25832 7.83831 4.2582 7.83831 4.25808C7.83831 4.25783 7.83831 4.25756 7.83831 4.25728C7.8383 4.25671 7.8383 4.25605 7.83829 4.25533C7.83827 4.2539 7.83823 4.25207 7.83815 4.24995C7.83803 4.24636 7.83773 4.23925 7.83678 4.23072L7.43922 4.27486ZM7.83831 4.25873V4.25748H7.43831V4.25873H7.83831ZM7.43908 4.27505C7.44084 4.29496 7.44379 4.31159 7.44528 4.32021L7.83947 4.25226C7.83783 4.24276 7.83766 4.24125 7.83754 4.2399L7.43908 4.27505ZM7.84036 4.2579L7.84004 4.25572L7.44408 4.31238L7.44439 4.31457L7.84036 4.2579ZM7.44521 4.31939L7.4474 4.33157L7.8411 4.2609L7.83892 4.24871L7.44521 4.31939ZM7.84223 4.26791L7.84192 4.26572L7.44595 4.32238L7.44627 4.32457L7.84223 4.26791ZM7.44845 4.33631C7.4597 4.38836 7.47737 4.43633 7.5008 4.48058L7.85429 4.29337C7.84816 4.28181 7.84302 4.26844 7.83942 4.2518L7.44845 4.33631ZM7.49721 4.47346C7.50397 4.48755 7.51003 4.49725 7.51276 4.50163L7.85198 4.28966C7.85114 4.28831 7.85237 4.29025 7.85379 4.29273C7.85542 4.29557 7.8568 4.29824 7.85788 4.30049L7.49721 4.47346ZM7.86126 4.3062L7.86032 4.30433L7.50255 4.48321L7.50349 4.48508L7.86126 4.3062ZM7.50742 4.49235C7.51314 4.50245 7.52046 4.51521 7.52969 4.52906L7.86255 4.30723C7.86178 4.30608 7.86036 4.30385 7.85545 4.29519L7.50742 4.49235ZM7.85618 4.29823L7.85524 4.29697L7.53513 4.53682L7.53606 4.53807L7.85618 4.29823ZM7.52241 4.51764C7.52927 4.52941 7.53505 4.5375 7.53774 4.54125L7.86326 4.3088C7.86238 4.30757 7.86335 4.3089 7.86451 4.31064C7.86587 4.31268 7.86704 4.31458 7.86796 4.31615L7.52241 4.51764ZM7.8605 4.30503L7.85956 4.30377L7.53956 4.54377L7.5405 4.54503L7.8605 4.30503ZM7.53595 4.53881C7.56592 4.58143 7.60128 4.62005 7.64266 4.65346L7.89396 4.34226C7.88346 4.33378 7.8732 4.32301 7.86317 4.30874L7.53595 4.53881ZM7.63317 4.6453L7.63692 4.64873L7.9072 4.35386L7.90345 4.35042L7.63317 4.6453ZM7.64802 4.65819C7.73884 4.72999 7.85446 4.7749 7.97988 4.77783L7.98922 4.37794C7.95402 4.37711 7.92152 4.36451 7.89609 4.3444L7.64802 4.65819ZM7.98455 4.57788C7.97206 4.77749 7.97207 4.77749 7.97207 4.77749C7.97207 4.77749 7.97207 4.77749 7.97208 4.77749C7.97208 4.77749 7.97209 4.77749 7.97209 4.77749C7.9721 4.77749 7.97212 4.77749 7.97213 4.77749C7.97215 4.7775 7.97217 4.7775 7.9722 4.7775C7.97225 4.7775 7.97231 4.77751 7.97237 4.77751C7.9725 4.77752 7.97265 4.77753 7.97281 4.77754C7.97315 4.77756 7.97357 4.77758 7.97407 4.77761C7.97503 4.77766 7.97637 4.77774 7.97792 4.77781C7.98007 4.77791 7.98608 4.77819 7.99267 4.77819V4.37819C7.99614 4.37819 7.99809 4.37832 7.99696 4.37826C7.99687 4.37826 7.99676 4.37825 7.99669 4.37825C7.99667 4.37825 7.99668 4.37825 7.99673 4.37825C7.99675 4.37825 7.99679 4.37826 7.99684 4.37826C7.99687 4.37826 7.9969 4.37826 7.99693 4.37826C7.99695 4.37827 7.99696 4.37827 7.99698 4.37827C7.99699 4.37827 7.997 4.37827 7.99701 4.37827C7.99701 4.37827 7.99702 4.37827 7.99702 4.37827C7.99703 4.37827 7.99703 4.37827 7.99703 4.37827C7.99704 4.37827 7.99704 4.37827 7.98455 4.57788ZM7.99267 4.77819H10.8485V4.37819H7.99267V4.77819ZM10.8485 4.77819H10.8535V4.37819H10.8485V4.77819ZM10.8535 4.77819C11.1612 4.77819 11.4104 4.52886 11.4104 4.22122H11.0104C11.0104 4.30806 10.9402 4.37819 10.8535 4.37819V4.77819ZM11.4104 4.22122C11.4104 3.91358 11.1612 3.66424 10.8535 3.66424V4.06424C10.9402 4.06424 11.0104 4.13437 11.0104 4.22122H11.4104ZM10.8535 3.66424H10.8482V4.06424H10.8535V3.66424ZM10.8482 3.66424H8.85515V4.06424H10.8482V3.66424ZM8.9966 4.00563L11.2425 1.75875L10.9596 1.47597L8.7137 3.72285L8.9966 4.00563ZM11.2408 1.76043C11.3441 1.65945 11.4088 1.5182 11.4088 1.36166H11.0088C11.0088 1.40581 10.991 1.44524 10.9613 1.47429L11.2408 1.76043ZM11.4088 1.36166C11.4088 1.05402 11.1597 0.804688 10.852 0.804688V1.20469C10.9386 1.20469 11.0088 1.27482 11.0088 1.36166H11.4088ZM10.852 0.804688C10.8504 0.804688 10.8373 0.804541 10.8232 0.805823L10.8595 1.20418C10.855 1.20459 10.8518 1.20466 10.851 1.20468C10.8503 1.2047 10.8499 1.20469 10.852 1.20469V0.804688ZM10.8355 0.805086C10.6852 0.80948 10.5506 0.873273 10.4535 0.972887L10.7398 1.25217C10.7677 1.22362 10.805 1.20615 10.8472 1.20492L10.8355 0.805086ZM10.4552 0.971131L8.20903 3.21801L8.49192 3.50081L10.7381 1.25393L10.4552 0.971131ZM8.55048 3.35941V1.3651H8.15048V3.35941H8.55048ZM8.55048 1.3651V1.36041H8.15048V1.3651H8.55048ZM8.55048 1.36041C8.55048 1.05266 8.30088 0.803437 7.99361 0.803437V1.20344C8.08008 1.20344 8.15048 1.27368 8.15048 1.36041H8.55048ZM7.98113 0.803827L7.97613 0.80414L8.0011 1.20336L8.0061 1.20305L7.98113 0.803827ZM4.20598 6.87512C4.18291 6.87565 4.16155 6.87773 4.14187 6.88062L4.19981 7.2764C4.20575 7.27553 4.21064 7.27512 4.21507 7.27502L4.20598 6.87512ZM4.20375 7.27578L4.20563 7.27547L4.1398 6.88092L4.13793 6.88123L4.20375 7.27578ZM4.17271 6.87819H1.36186V7.27819H4.17271V6.87819ZM1.36186 6.87819H1.35686V7.27819H1.36186V6.87819ZM1.35686 6.87819C1.04917 6.87819 0.8 7.12753 0.8 7.43517H1.2C1.2 7.34832 1.2702 7.27819 1.35686 7.27819V6.87819ZM0.8 7.43517C0.8 7.74281 1.04917 7.99214 1.35686 7.99214V7.59214C1.2702 7.59214 1.2 7.52201 1.2 7.43517H0.8ZM1.35686 7.99214H1.36218V7.59214H1.35686V7.99214ZM1.36218 7.99214H3.35555V7.59214H1.36218V7.99214ZM3.21411 7.65075L0.967928 9.89763L1.25082 10.1804L3.497 7.93354L3.21411 7.65075ZM0.967928 9.89763C0.867389 9.9982 0.804687 10.1375 0.804687 10.2916H1.20469C1.20469 10.2481 1.22198 10.2093 1.25082 10.1804L0.967928 9.89763ZM0.804687 10.2916C0.804687 10.5995 1.05439 10.8486 1.36186 10.8486V10.4486C1.27497 10.4486 1.20469 10.3782 1.20469 10.2916H0.804687ZM1.36186 10.8486C1.51551 10.8486 1.65497 10.7859 1.75546 10.6859L1.47325 10.4024C1.44437 10.4312 1.40509 10.4486 1.36186 10.4486V10.8486ZM1.7558 10.6856L4.00198 8.43869L3.71909 8.15589L1.47291 10.4028L1.7558 10.6856ZM3.66054 8.29729V10.2913H4.06054V8.29729H3.66054ZM3.66054 10.2913V10.2963H4.06054V10.2913H3.66054ZM3.66054 10.2963C3.66054 10.6039 3.9097 10.8533 4.2174 10.8533V10.4533C4.13073 10.4533 4.06054 10.3831 4.06054 10.2963H3.66054ZM4.2174 10.8533C4.5251 10.8533 4.77426 10.6039 4.77426 10.2963H4.37426C4.37426 10.3831 4.30406 10.4533 4.2174 10.4533V10.8533ZM4.77426 10.2963V10.291H4.37426V10.2963H4.77426ZM4.77426 10.291V7.47893H4.37426V10.291H4.77426ZM4.77251 7.50536C4.77547 7.48313 4.77739 7.45772 4.77739 7.43173H4.37739C4.37739 7.43888 4.3768 7.4466 4.37602 7.45251L4.77251 7.50536ZM4.77739 7.43173C4.77739 7.12409 4.52822 6.87476 4.22052 6.87476V7.27476C4.30719 7.27476 4.37739 7.34489 4.37739 7.43173H4.77739ZM4.22052 6.87476C4.21815 6.87476 4.20623 6.87463 4.1924 6.87589L4.22865 7.27425C4.22169 7.27488 4.21602 7.27476 4.22052 7.27476V6.87476ZM8.12829 6.87851C7.82122 6.87899 7.57206 7.12809 7.57206 7.43548H7.97206C7.97206 7.34901 8.04226 7.27864 8.12893 7.27851L8.12829 6.87851ZM7.57206 7.43548C7.57206 7.46263 7.574 7.48944 7.57789 7.51615L7.97373 7.45859C7.97261 7.45092 7.97206 7.44334 7.97206 7.43548H7.57206ZM7.97309 7.45449L7.97277 7.45262L7.57822 7.51838L7.57853 7.52025L7.97309 7.45449ZM7.57549 7.4855V10.2953H7.97549V7.4855H7.57549ZM7.57549 10.2953V10.3004H7.97549V10.2953H7.57549ZM7.57549 10.3004C7.57549 10.6081 7.82509 10.8573 8.13236 10.8573V10.4573C8.04589 10.4573 7.97549 10.3871 7.97549 10.3004H7.57549ZM8.13236 10.8573C8.43963 10.8573 8.68922 10.6081 8.68922 10.3004H8.28922C8.28922 10.3871 8.21883 10.4573 8.13236 10.4573V10.8573ZM8.68922 10.3004V10.295H8.28922V10.3004H8.68922ZM8.68922 10.295V8.30135H8.28922V10.295H8.68922ZM8.34778 8.44275L10.594 10.6896L10.8768 10.4068L8.63067 8.15995L8.34778 8.44275ZM10.594 10.6896C10.6948 10.7905 10.8341 10.8526 10.9876 10.8526V10.4526C10.9441 10.4526 10.9054 10.4354 10.8768 10.4068L10.594 10.6896ZM10.9876 10.8526C11.2954 10.8526 11.5444 10.6029 11.5444 10.2957H11.1444C11.1444 10.3823 11.0741 10.4526 10.9876 10.4526V10.8526ZM11.5444 10.2957C11.5444 10.1416 11.4817 10.0023 11.3812 9.90169L11.0983 10.1845C11.1272 10.2133 11.1444 10.2522 11.1444 10.2957H11.5444ZM11.3812 9.90169L9.13503 7.65481L8.85214 7.93761L11.0983 10.1845L11.3812 9.90169ZM8.99358 7.99621H10.9873V7.59621H8.99358V7.99621ZM10.9873 7.99621H10.9923V7.59621H10.9873V7.99621ZM10.9923 7.99621C11.3001 7.99621 11.5491 7.74645 11.5491 7.43923H11.1491C11.1491 7.52588 11.0788 7.59621 10.9923 7.59621V7.99621ZM11.5491 7.43923C11.5491 7.13202 11.3001 6.88226 10.9923 6.88226V7.28226C11.0788 7.28226 11.1491 7.35258 11.1491 7.43923H11.5491ZM10.9923 6.88226H10.987V7.28226H10.9923V6.88226ZM10.987 6.88226H8.17548V7.28226H10.987V6.88226ZM8.20624 6.88463C8.18386 6.88115 8.1572 6.87851 8.12861 6.87851V7.27851C8.13315 7.27851 8.13898 7.27898 8.14473 7.27988L8.20624 6.88463Z" fill="#637579" mask="url(#path-1-outside-1_5163_9498)"/>
</svg>
