<svg width="17" height="17" viewBox="0 0 17 17" fill="none" xmlns="http://www.w3.org/2000/svg">
<path d="M14.7609 0.449585C15.228 0.450281 15.6756 0.640446 16.005 0.975952C16.3342 1.31144 16.5192 1.76555 16.5197 2.23865V14.9613C16.5192 15.4344 16.3342 15.8885 16.005 16.224C15.6756 16.5595 15.228 16.7497 14.7609 16.7504H1.97864C1.51152 16.7498 1.06405 16.5603 0.734497 16.225C0.405001 15.8895 0.219411 15.4347 0.218872 14.9613V2.23865L0.227661 2.06189C0.267971 1.65334 0.446254 1.26849 0.734497 0.974976C1.06405 0.639608 1.51152 0.450134 1.97864 0.449585H14.7609ZM1.97864 1.47498C1.78135 1.47524 1.59168 1.55475 1.45129 1.69763C1.31083 1.84066 1.23089 2.03523 1.23059 2.23865V12.3988L5.03821 9.0697H5.03918C5.13685 8.98479 5.26345 8.94065 5.3927 8.94666C5.52181 8.95275 5.64311 9.00855 5.73254 9.10193H5.73352L7.18372 10.6263L11.7579 6.15955C11.8522 6.06748 11.9787 6.01566 12.1105 6.01599C12.2422 6.01638 12.3683 6.06899 12.462 6.1615L15.5079 9.16443V2.23865C15.5077 2.03528 15.4276 1.84066 15.2872 1.69763C15.1469 1.55478 14.9572 1.47525 14.7599 1.47498H1.97864Z" fill="currentColor" stroke="currentColor" stroke-width="0.3"/>
<path d="M3.3429 2.59119C3.67576 2.45088 4.0421 2.41417 4.39563 2.48572C4.74934 2.55736 5.07378 2.73444 5.32825 2.99353C5.5827 3.25263 5.75624 3.58216 5.82629 3.9408C5.89633 4.2994 5.86025 4.6712 5.72278 5.00916C5.58528 5.34712 5.35231 5.63646 5.05286 5.84021C4.79077 6.01853 4.48817 6.1242 4.17493 6.14783L4.04016 6.15271C3.55655 6.15216 3.0932 5.95613 2.75208 5.60876C2.41119 5.26152 2.21941 4.791 2.21887 4.30115C2.21893 3.93566 2.32583 3.57812 2.52551 3.2738C2.72527 2.96941 3.00989 2.73165 3.3429 2.59119ZM4.04016 3.47498C3.8265 3.47529 3.6208 3.56148 3.46887 3.71619C3.31703 3.8709 3.23098 4.08128 3.23059 4.30115C3.23059 4.46529 3.27901 4.62603 3.36829 4.76208C3.45753 4.89796 3.5841 5.00359 3.73157 5.0658C3.87901 5.12794 4.04106 5.1443 4.19739 5.11267C4.35385 5.08098 4.49808 5.00252 4.61145 4.88708C4.72485 4.77161 4.80267 4.62417 4.83411 4.46326C4.86553 4.30235 4.84882 4.13517 4.78723 3.98376C4.72562 3.83254 4.62134 3.7041 4.4884 3.61365C4.35539 3.52316 4.1996 3.47498 4.04016 3.47498Z" fill="currentColor" stroke="currentColor" stroke-width="0.3"/>
</svg>
