<svg width="14" height="14" viewBox="0 0 14 14" fill="none" xmlns="http://www.w3.org/2000/svg">
<path d="M9.8 13H3.62091C3.21703 13 3.0151 13 2.92159 12.9201C2.84045 12.8509 2.79739 12.7469 2.80577 12.6405C2.81541 12.5179 2.95821 12.3751 3.24379 12.0895L8.9124 6.42093C9.1764 6.15693 9.30847 6.02487 9.46067 5.97547C9.59453 5.93193 9.7388 5.93193 9.87267 5.97547C10.0249 6.02487 10.1569 6.15693 10.4209 6.42093L13 9V9.8M9.8 13C10.9201 13 11.4801 13 11.908 12.782C12.2843 12.5903 12.5903 12.2843 12.782 11.908C13 11.4801 13 10.9201 13 9.8M9.8 13H4.2C3.07989 13 2.51984 13 2.09202 12.782C1.71569 12.5903 1.40973 12.2843 1.21799 11.908C1 11.4801 1 10.9201 1 9.8V4.2C1 3.07989 1 2.51984 1.21799 2.09202C1.40973 1.71569 1.71569 1.40973 2.09202 1.21799C2.51984 1 3.07989 1 4.2 1H9.8C10.9201 1 11.4801 1 11.908 1.21799C12.2843 1.40973 12.5903 1.71569 12.782 2.09202C13 2.51984 13 3.07989 13 4.2V9.8M6 4.66667C6 5.40305 5.40305 6 4.66667 6C3.93029 6 3.33333 5.40305 3.33333 4.66667C3.33333 3.93029 3.93029 3.33333 4.66667 3.33333C5.40305 3.33333 6 3.93029 6 4.66667Z" stroke="currentColor" stroke-width="1.5" stroke-linecap="round" stroke-linejoin="round"/>
</svg>
