<svg width="65" height="64" viewBox="0 0 65 64" fill="none" xmlns="http://www.w3.org/2000/svg">
  <mask id="mask0_5737_11071" style="mask-type:alpha" maskUnits="userSpaceOnUse" x="0" y="0"
    width="65" height="64">
    <rect x="0.400391" width="64" height="64" fill="currentColor" />
  </mask>
  <g mask="url(#mask0_5737_11071)">
    <path
      d="M13.7337 56C12.2671 56 11.0115 55.4778 9.96706 54.4333C8.92261 53.3889 8.40039 52.1333 8.40039 50.6667V13.3333C8.40039 11.8667 8.92261 10.6111 9.96706 9.56667C11.0115 8.52222 12.2671 8 13.7337 8H51.0671C52.5337 8 53.7893 8.52222 54.8337 9.56667C55.8782 10.6111 56.4004 11.8667 56.4004 13.3333V50.6667C56.4004 52.1333 55.8782 53.3889 54.8337 54.4333C53.7893 55.4778 52.5337 56 51.0671 56H13.7337ZM13.7337 50.6667H51.0671V13.3333H13.7337V50.6667ZM16.4004 45.3333H48.4004L38.4004 32L30.4004 42.6667L24.4004 34.6667L16.4004 45.3333ZM23.0671 26.6667C24.1782 26.6667 25.1226 26.2778 25.9004 25.5C26.6782 24.7222 27.0671 23.7778 27.0671 22.6667C27.0671 21.5556 26.6782 20.6111 25.9004 19.8333C25.1226 19.0556 24.1782 18.6667 23.0671 18.6667C21.9559 18.6667 21.0115 19.0556 20.2337 19.8333C19.4559 20.6111 19.0671 21.5556 19.0671 22.6667C19.0671 23.7778 19.4559 24.7222 20.2337 25.5C21.0115 26.2778 21.9559 26.6667 23.0671 26.6667Z"
      fill="currentColor" />
  </g>
</svg>

