<svg width="50" height="50" viewBox="0 0 50 50" fill="currentColor" xmlns="http://www.w3.org/2000/svg">
  <path
    fill-rule="evenodd"
    clip-rule="evenodd"
    d="M25 50C38.8071 50 50 38.8071 50 25C50 11.1929 38.8071 0 25 0C11.1929 0 0 11.1929 0 25C0 38.8071 11.1929 50 25 50ZM24.7872 44.6007C35.4632 44.6007 44.1179 35.9249 44.1179 25.2227C44.1179 14.5206 35.4632 5.84473 24.7872 5.84473C14.1112 5.84473 5.45654 14.5206 5.45654 25.2227C5.45654 35.9249 14.1112 44.6007 24.7872 44.6007ZM27.6859 33.9723V26.8157V25.7999C27.6859 24.9985 27.337 24.1596 26.772 23.5934C26.232 23.0522 25.3431 22.6463 24.5705 22.6775C23.7647 22.7149 22.9297 22.9793 22.369 23.5934C21.8082 24.2012 21.4551 24.9568 21.4551 25.7999V32.9565V33.9723C21.4551 34.7737 21.804 35.6126 22.369 36.1788C22.9089 36.72 23.7979 37.1259 24.5705 37.0947C25.3763 37.0573 26.2113 36.7929 26.772 36.1788C27.3328 35.571 27.6859 34.8216 27.6859 33.9723ZM27.6797 16.2762V16.3802C27.6797 16.9423 27.5343 17.4668 27.2539 17.9581C27.1314 18.1175 27.0053 18.2794 26.8801 18.44C26.8419 18.489 26.8037 18.538 26.7658 18.5867C26.3775 18.9718 25.9205 19.2383 25.3909 19.3881C25.1106 19.4235 24.8343 19.4589 24.5602 19.4964C24.1323 19.513 23.7336 19.4235 23.3597 19.2258C22.9776 19.1009 22.639 18.8886 22.3586 18.5805C22.0575 18.3016 21.8394 17.9623 21.7148 17.5772C21.5175 17.2067 21.4282 16.807 21.4448 16.374V16.2699C21.4448 15.7079 21.5902 15.1813 21.8706 14.6921C21.9934 14.5323 22.1198 14.37 22.2452 14.2091C22.2832 14.1604 22.321 14.1118 22.3587 14.0635C22.747 13.6784 23.204 13.4119 23.7336 13.2621C24.0139 13.2267 24.2902 13.1913 24.5643 13.1538C24.9922 13.1372 25.3909 13.2267 25.7648 13.4244C26.1469 13.5493 26.4855 13.7616 26.7658 14.0697C27.067 14.3486 27.2851 14.6879 27.4097 15.073C27.607 15.4435 27.6963 15.8432 27.6797 16.2762Z"
  />
</svg>
