<svg width="60" height="60" viewBox="0 0 60 60" fill="none" xmlns="http://www.w3.org/2000/svg">
<path fill-rule="evenodd" clip-rule="evenodd" d="M30 60C46.5685 60 60 46.5685 60 30C60 13.4315 46.5685 0 30 0C13.4315 0 0 13.4315 0 30C0 46.5685 13.4315 60 30 60ZM30.0044 54.5401C43.5605 54.5401 54.5499 43.5508 54.5499 29.9947C54.5499 16.4386 43.5605 5.44922 30.0044 5.44922C16.4484 5.44922 5.45898 16.4386 5.45898 29.9947C5.45898 43.5508 16.4484 54.5401 30.0044 54.5401ZM33.9125 41.3689V32.2423V30.9469C33.9125 29.9249 33.4665 28.8551 32.7443 28.1331C32.054 27.4429 30.9176 26.9253 29.9299 26.965C28.8997 27.0128 27.8324 27.3499 27.1155 28.1331C26.3987 28.9082 25.9473 29.8718 25.9473 30.9469V40.0735V41.3689C25.9473 42.3909 26.3933 43.4606 27.1155 44.1827C27.8058 44.8728 28.9422 45.3905 29.9299 45.3507C30.9601 45.3029 32.0274 44.9658 32.7443 44.1827C33.4612 43.4076 33.9125 42.4519 33.9125 41.3689ZM33.9154 18.8085V18.9412C33.9154 19.658 33.7295 20.3269 33.3711 20.9534C33.2143 21.1569 33.0529 21.3635 32.8928 21.5685C32.8441 21.6309 32.7955 21.6931 32.7471 21.755C32.2507 22.2461 31.6665 22.5859 30.9895 22.777C30.6311 22.8222 30.2779 22.8673 29.9275 22.9151C29.3805 22.9363 28.8707 22.8222 28.3928 22.57C27.9043 22.4107 27.4715 22.14 27.1131 21.7471C26.7281 21.3914 26.4493 20.9587 26.29 20.4676C26.0378 19.9951 25.9236 19.4854 25.9449 18.9333V18.8006C25.9449 18.0838 26.1307 17.4123 26.4892 16.7884C26.6462 16.5846 26.8079 16.3776 26.9683 16.1723C27.0167 16.1102 27.0651 16.0483 27.1131 15.9867C27.6096 15.4957 28.1937 15.1559 28.8708 14.9647C29.2292 14.9196 29.5823 14.8745 29.9328 14.8267C30.4797 14.8055 30.9895 14.9196 31.4674 15.1718C31.9559 15.3311 32.3887 15.6018 32.7472 15.9947C33.1321 16.3504 33.4109 16.7831 33.5702 17.2742C33.8224 17.7467 33.9366 18.2564 33.9154 18.8085Z" fill="black"/>
</svg>
