<svg width="40" height="40" viewBox="0 0 40 40" fill="none" xmlns="http://www.w3.org/2000/svg">
<g clip-path="url(#clip0_4666_5691)">
<circle cx="20" cy="19.999" r="20" fill="black" fill-opacity="0.03"/>
<path fill-rule="evenodd" clip-rule="evenodd" d="M19.4 25.424C19.6 25.4907 19.8 25.524 20 25.524C20.2 25.524 20.4 25.4907 20.6 25.424C20.8 25.3574 20.9833 25.2574 21.15 25.124C23.1167 23.5574 24.5833 22.0282 25.55 20.5365C26.5167 19.0449 27 17.5824 27 16.149C27 14.0657 26.35 12.3532 25.05 11.0115C23.75 9.66986 22.0667 8.99902 20 8.99902C17.9333 8.99902 16.25 9.66986 14.95 11.0115C13.65 12.3532 13 14.0657 13 16.149C13 17.5824 13.4833 19.0449 14.45 20.5365C15.4167 22.0282 16.8833 23.5574 18.85 25.124C19.0167 25.2574 19.2 25.3574 19.4 25.424ZM13.2875 28.7115C13.4792 28.9032 13.7167 28.999 14 28.999H26C26.2833 28.999 26.5208 28.9032 26.7125 28.7115C26.9042 28.5199 27 28.2824 27 27.999C27 27.7157 26.9042 27.4782 26.7125 27.2865C26.5208 27.0949 26.2833 26.999 26 26.999H14C13.7167 26.999 13.4792 27.0949 13.2875 27.2865C13.0958 27.4782 13 27.7157 13 27.999C13 28.2824 13.0958 28.5199 13.2875 28.7115ZM19.6438 21.8553C19.7396 21.9511 19.8583 21.999 20 21.999C20.1417 21.999 20.2604 21.9511 20.3563 21.8553C20.4521 21.7594 20.5 21.6407 20.5 21.499V19.499C21.0333 19.499 21.5438 19.399 22.0312 19.199C22.5188 18.999 22.95 18.7115 23.325 18.3365C23.7 17.9615 23.9896 17.5282 24.1938 17.0365C24.3979 16.5449 24.5 16.0324 24.5 15.499V14.999C24.5 14.8574 24.4521 14.7386 24.3562 14.6428C24.2604 14.5469 24.1417 14.499 24 14.499H23.5C22.9667 14.499 22.4542 14.6011 21.9625 14.8053C21.4708 15.0094 21.0375 15.299 20.6625 15.674C20.6042 15.7324 20.55 15.7886 20.5 15.8428C20.45 15.8969 20.4042 15.9532 20.3625 16.0115C20.2708 15.6615 20.1396 15.3324 19.9688 15.024C19.7979 14.7157 19.5833 14.4324 19.325 14.174C18.95 13.799 18.5167 13.5094 18.025 13.3053C17.5333 13.1011 17.025 12.999 16.5 12.999H16C15.8583 12.999 15.7396 13.0469 15.6437 13.1428C15.5479 13.2386 15.5 13.3574 15.5 13.499V13.999C15.5 14.5324 15.6 15.0449 15.8 15.5365C16 16.0282 16.2875 16.4615 16.6625 16.8365C17.0375 17.2115 17.4708 17.5011 17.9625 17.7053C18.4542 17.9094 18.9667 18.0115 19.5 18.0115V21.499C19.5 21.6407 19.5479 21.7594 19.6438 21.8553ZM19.2687 15.8553C19.4229 16.2178 19.5 16.599 19.5 16.999C19.1 16.999 18.7167 16.924 18.35 16.774C17.9833 16.624 17.6583 16.4074 17.375 16.124C17.0917 15.8407 16.875 15.5157 16.725 15.149C16.575 14.7824 16.5 14.399 16.5 13.999C16.9 13.999 17.2812 14.0761 17.6437 14.2303C18.0062 14.3844 18.3292 14.6032 18.6125 14.8865C18.8958 15.1699 19.1146 15.4928 19.2687 15.8553ZM21.6438 18.274C21.2812 18.424 20.9 18.499 20.5 18.499C20.5 18.099 20.575 17.7178 20.725 17.3553C20.875 16.9928 21.0917 16.6699 21.375 16.3865C21.6583 16.1032 21.9833 15.8844 22.35 15.7303C22.7167 15.5761 23.1 15.499 23.5 15.499C23.5 15.899 23.4229 16.2824 23.2688 16.649C23.1146 17.0157 22.8958 17.3407 22.6125 17.624C22.3292 17.9074 22.0063 18.124 21.6438 18.274Z" fill="#27A9E0"/>
</g>
<defs>
<clipPath id="clip0_4666_5691">
<rect width="40" height="40" fill="white" transform="translate(0 -0.000976562)"/>
</clipPath>
</defs>
</svg>
