<svg width="40" height="40" viewBox="0 0 40 40" fill="none" xmlns="http://www.w3.org/2000/svg">
<g clip-path="url(#clip0_5203_11967)">
<circle cx="20" cy="20" r="20" fill="black" fill-opacity="0.03"/>
<mask id="mask0_5203_11967" style="mask-type:alpha" maskUnits="userSpaceOnUse" x="8" y="8" width="24" height="24">
<rect x="8" y="8" width="24" height="24" fill="#D9D9D9"/>
</mask>
<g mask="url(#mask0_5203_11967)">
<path d="M18.6957 29C15.2174 29 12.5451 29 12.5451 29C12.5451 29 13.413 27.5 14.3261 26.9348C15.2391 26.3696 16.2899 26.0145 17.4783 25.8696C17.3913 25.2609 17.2754 24.6522 17.1304 24.0435C16.9855 23.4348 16.8116 22.8696 16.6087 22.3478C16.2899 22.6087 15.942 22.8116 15.5652 22.9565C15.1884 23.1014 14.7826 23.1739 14.3478 23.1739C13.3913 23.1739 12.5725 22.8333 11.8913 22.1522C11.2101 21.471 10.8696 20.6522 10.8696 19.6957V17.9565C10.8696 17.4638 10.7899 17 10.6304 16.5652C10.471 16.1304 10.2609 15.7246 10 15.3478C11.4493 15.3188 12.7391 15.4493 13.8696 15.7391C14.8551 16 15.7536 16.4275 16.5652 17.0217C17.3768 17.6159 17.7971 18.5072 17.8261 19.6957C17.8261 19.9565 17.8043 20.1957 17.7609 20.413C17.7174 20.6304 17.6377 20.8551 17.5217 21.087C17.1449 20.7971 16.7681 20.5362 16.3913 20.3043C16.0145 20.0725 15.6232 19.8696 15.2174 19.6957C15.7101 20.0725 16.2754 20.6522 16.913 21.4348C17.5507 22.2174 18.1449 23.1449 18.6957 24.2174C19.2754 22.7971 20 21.3986 20.8696 20.0217C21.7391 18.6449 22.7536 17.3768 23.913 16.2174C23.2464 16.6812 22.6087 17.1739 22 17.6957C21.3913 18.2174 20.7971 18.7681 20.2174 19.3478C20.0145 19.029 19.8551 18.6739 19.7391 18.2826C19.6232 17.8913 19.5652 17.4928 19.5652 17.087C19.5652 15.8696 19.9855 14.8406 20.8261 14C21.6667 13.1594 22.6957 12.7391 23.913 12.7391H25.6522C26.3188 12.7391 26.8696 12.6522 27.3043 12.4783C27.7391 12.3043 28.1014 12.1014 28.3913 11.8696C28.7101 11.6087 28.9565 11.3188 29.1304 11C29.2464 12.942 29.1449 14.6812 28.8261 16.2174C28.5652 17.5217 28.0725 18.7174 27.3478 19.8043C26.6232 20.8913 25.4783 21.4348 23.913 21.4348C23.4783 21.4348 23.0652 21.3768 22.6739 21.2609C22.2826 21.1449 21.9275 20.9855 21.6087 20.7826C21.4058 21.3333 21.1739 22.0652 20.913 22.9783C20.6522 23.8913 20.4493 24.8696 20.3043 25.913C21.4058 26.1159 22.3768 26.4928 23.2174 27.0435C24.2342 27.7097 24.992 29 24.992 29C24.992 29 22.1739 29 18.6957 29Z" fill="#27A9E0"/>
</g>
</g>
<defs>
<clipPath id="clip0_5203_11967">
<rect width="40" height="40" fill="white"/>
</clipPath>
</defs>
</svg>
