<svg xmlns="http://www.w3.org/2000/svg" width="20" height="20" viewBox="0 0 20 20" fill="currentColor">
    <rect width="20" height="20" rx="10" />
    <path fill-rule="evenodd" clip-rule="evenodd"
        d="M15.0381 6.68814C14.4232 7.8918 9.84863 7.41873 11.3787 11.6911C11.4094 11.6499 11.4393 11.6079 11.4706 11.5675C11.9083 10.9965 12.3962 10.5102 12.9381 10.1151C12.4672 10.6301 12.0659 11.2239 11.7311 11.8905C11.5357 12.2797 11.3631 12.6939 11.2107 13.1309C11.1508 13.1221 11.0902 13.1177 11.0283 13.1177C10.9527 13.1177 10.8791 13.1265 10.8068 13.139C10.4336 12.095 9.99002 11.1444 9.46695 10.3013C8.9921 9.5369 8.45148 8.86003 7.83919 8.27809C8.90677 8.85123 9.68978 9.75177 10.3593 10.7942C12.3349 4.3367 5.97225 5.73312 4.98491 4.16663C2.68626 7.90045 5.57766 12.816 9.37646 12.1347C9.60054 12.6093 9.80506 13.111 9.9907 13.64C9.97442 13.6614 9.95618 13.6827 9.9412 13.7055C9.84284 13.8527 9.71647 13.9439 9.55754 13.9844C9.3276 14.0425 9.13219 14.1911 9.00908 14.3912C8.9231 14.531 8.81301 14.6237 8.66971 14.676C8.4541 14.754 8.29972 14.9659 8.29972 15.2145C8.29972 15.5302 8.5479 15.7862 8.85468 15.7862C8.89377 15.7862 8.9322 15.7818 8.96867 15.7744C9.16994 15.731 9.34841 15.7347 9.5484 15.7877C9.62005 15.8068 9.69496 15.8164 9.77181 15.8164C9.82978 15.8164 9.88645 15.8105 9.94051 15.8002C10.2258 15.7443 10.4779 15.7465 10.7625 15.8061C10.8485 15.8237 10.9371 15.8333 11.0276 15.8333C11.1442 15.8333 11.2576 15.8178 11.365 15.7884C11.5292 15.7435 11.6777 15.7435 11.8419 15.7869C11.9142 15.8061 11.9897 15.8164 12.0672 15.8164C12.1141 15.8164 12.1597 15.8127 12.2047 15.8053C12.4574 15.7656 12.6769 15.759 12.9316 15.784C12.9492 15.7855 12.9668 15.7869 12.9844 15.7869C13.2905 15.7869 13.5393 15.5309 13.5393 15.2153C13.5393 14.9666 13.385 14.7547 13.1693 14.6767C13.026 14.6245 12.916 14.5318 12.83 14.392C12.7225 14.2169 12.5597 14.0808 12.3662 14.0116C12.2933 13.9851 12.2385 13.9351 12.2014 13.8593C12.1558 13.7681 12.0991 13.6835 12.0353 13.6055C12.1174 13.3642 12.2073 13.1317 12.303 12.9058C15.1405 13.1037 16.9622 9.25428 15.0381 6.68803L15.0381 6.68814Z"
        fill="white" />
</svg>