<svg width="40" height="40" viewBox="0 0 40 40" fill="none" xmlns="http://www.w3.org/2000/svg">
<g clip-path="url(#clip0_4666_5683)">
<circle cx="20" cy="19.999" r="20" fill="black" fill-opacity="0.03"/>
<mask id="mask0_4666_5683" style="mask-type:alpha" maskUnits="userSpaceOnUse" x="8" y="7" width="24" height="25">
<rect x="8" y="7.99902" width="24" height="24" fill="#D9D9D9"/>
</mask>
<g mask="url(#mask0_4666_5683)">
<path fill-rule="evenodd" clip-rule="evenodd" d="M20 28.999C19.7167 28.999 19.4792 28.9032 19.2875 28.7115C19.0958 28.5199 19 28.2824 19 27.999V21.024C17.9333 21.024 16.9083 20.8199 15.925 20.4115C14.9417 20.0032 14.075 19.424 13.325 18.674C12.575 17.924 12 17.0574 11.6 16.074C11.2 15.0907 11 14.0657 11 12.999V11.999C11 11.7157 11.0958 11.4782 11.2875 11.2865C11.4792 11.0949 11.7167 10.999 12 10.999H13C14.05 10.999 15.0667 11.2032 16.05 11.6115C17.0333 12.0199 17.9 12.599 18.65 13.349C19.1667 13.8657 19.5958 14.4324 19.9375 15.049C20.2792 15.6657 20.5417 16.324 20.725 17.024C20.8083 16.9074 20.9 16.7949 21 16.6865C21.1 16.5782 21.2083 16.4657 21.325 16.349C22.075 15.599 22.9417 15.0199 23.925 14.6115C24.9083 14.2032 25.9333 13.999 27 13.999H28C28.2833 13.999 28.5208 14.0949 28.7125 14.2865C28.9042 14.4782 29 14.7157 29 14.999V15.999C29 17.0657 28.7958 18.0907 28.3875 19.074C27.9792 20.0574 27.4 20.924 26.65 21.674C25.9 22.424 25.0375 22.999 24.0625 23.399C23.0875 23.799 22.0667 23.999 21 23.999V27.999C21 28.2824 20.9042 28.5199 20.7125 28.7115C20.5208 28.9032 20.2833 28.999 20 28.999ZM25.3773 18.3104C25.4815 18.5188 25.3971 18.7722 25.1887 18.8764C24.7472 19.0971 24.1595 19.5612 23.6108 20.1098C23.0621 20.6585 22.5981 21.2462 22.3773 21.6877C22.2731 21.8961 22.0197 21.9806 21.8113 21.8764C21.6029 21.7722 21.5185 21.5188 21.6227 21.3104C21.9019 20.7518 22.4379 20.0896 23.0142 19.5132C23.5905 18.9369 24.2528 18.4009 24.8113 18.1217C25.0197 18.0175 25.2731 18.102 25.3773 18.3104ZM18.649 19.233C18.7782 19.4269 19.0402 19.4793 19.234 19.35C19.4279 19.2208 19.4803 18.9589 19.351 18.765C18.8463 18.0079 18.453 17.4804 17.9858 17.0132C17.5186 16.546 16.9911 16.1527 16.234 15.648C16.0402 15.5188 15.7782 15.5711 15.649 15.765C15.5197 15.9589 15.5721 16.2208 15.766 16.35C16.5089 16.8453 16.9814 17.202 17.3892 17.6098C17.797 18.0176 18.1537 18.4901 18.649 19.233Z" fill="#27A9E0"/>
</g>
</g>
<defs>
<clipPath id="clip0_4666_5683">
<rect width="40" height="40" fill="white" transform="translate(0 -0.000976562)"/>
</clipPath>
</defs>
</svg>
