<svg width="40" height="40" viewBox="0 0 40 40" fill="none" xmlns="http://www.w3.org/2000/svg">
<g clip-path="url(#clip0_1516_56474)">
<circle cx="20" cy="20" r="20" fill="black" fill-opacity="0.03"/>
<path d="M14.3286 17.7295C12.5141 16.0225 11.941 12.7697 12.0047 10C14.6152 10 16.5571 10.161 18.7855 11.9968C19.7087 12.963 20.4091 14.2512 20.7593 15.8293C20.9821 15.153 21.3005 14.5411 21.7143 13.9936C23.0196 12.3833 25.7574 11.6747 28.1768 11.8035C28.1768 14.7343 28.4559 17.0866 26.4896 19.372C24.9563 21.154 23.1469 21.4976 21.1732 22.1417C20.7275 23.9453 20.1863 25.781 20.1226 27.5845C21.7462 27.81 23.2424 28.1643 23.7836 28.1643C24.2611 28.1643 24.675 28.6151 24.675 29.0982C24.675 29.5491 24.2611 30 23.7836 30C22.5739 30 21.1095 29.5169 19.5177 29.3237C17.926 29.0982 16.3342 29.1626 15.3155 29.839C14.9017 30.1288 14.3286 30 14.0421 29.6135C13.7875 29.2271 13.9148 28.6151 14.2968 28.3575C15.3474 27.649 16.9073 27.2947 18.3398 27.3913C18.4354 24.7504 19.2631 22.2383 19.7087 20.2415L19.6791 20.2322C17.749 19.624 16.0073 19.0752 14.3286 17.7295Z" stroke="#353535"/>
</g>
<defs>
<clipPath id="clip0_1516_56474">
<rect width="40" height="40" fill="white"/>
</clipPath>
</defs>
</svg>
