<svg width="96" height="96" viewBox="0 0 96 96" fill="none" xmlns="http://www.w3.org/2000/svg">
<circle cx="48" cy="48" r="48" fill="#55AB68" fill-opacity="0.2"/>
<path d="M47.9969 38.2852C41.8748 38.2852 39.418 42.9103 39.418 46.1629C39.418 50.914 43.2247 54.421 44.0973 58.1066H51.8961C52.769 54.421 56.5754 50.914 56.5754 46.1629C56.5757 42.9103 54.1193 38.2852 47.9969 38.2852Z" fill="#55AB68"/>
<path d="M44.0996 61.6684C44.0996 62.7723 44.5436 63.2063 45.6728 63.2063H45.8332L45.9875 63.6592C46.2222 64.3491 46.5097 64.5518 47.2535 64.5518H48.7447C49.4889 64.5518 49.7757 64.3491 50.0109 63.6591L50.1647 63.2062H50.3254C51.455 63.2062 51.8983 62.7722 51.8983 61.6683L51.8984 59.3691H44.0996L44.0996 61.6684Z" fill="#55AB68"/>
<path d="M47.9964 36.3274C48.4706 36.3274 48.776 36.028 48.776 35.565V32.2104C48.776 31.7473 48.4706 31.4482 47.9964 31.4482C47.5226 31.4482 47.2168 31.7473 47.2168 32.2107V35.5653C47.2168 36.0285 47.5226 36.3274 47.9964 36.3274Z" fill="#55AB68"/>
<path d="M54.8897 38.3372C55.2638 38.6219 55.6931 38.5704 55.9848 38.2058L58.0972 35.5623C58.3892 35.1974 58.3365 34.7769 57.9632 34.4923C57.59 34.2069 57.1598 34.2583 56.8681 34.6237L54.7561 37.2668C54.4634 37.632 54.5168 38.0522 54.8897 38.3372Z" fill="#55AB68"/>
<path d="M63.4868 42.988C63.3717 42.5385 63.001 42.3203 62.5412 42.4325L59.2111 43.2443C58.7513 43.3565 58.5285 43.7188 58.6429 44.1683C58.7577 44.6182 59.1287 44.8357 59.5885 44.7238L62.9183 43.9123C63.3786 43.8001 63.6016 43.4375 63.4869 42.988H63.4868Z" fill="#55AB68"/>
<path d="M61.8299 51.8566L58.6951 50.4923C58.2623 50.304 57.8579 50.4559 57.6656 50.8793C57.4729 51.3027 57.628 51.6973 58.0611 51.886L61.1956 53.2496C61.6283 53.4387 62.0327 53.2867 62.2251 52.8633C62.418 52.4406 62.2625 52.0456 61.8299 51.8566L61.8299 51.8566Z" fill="#55AB68"/>
<path d="M40.0144 38.2056C40.3061 38.5704 40.7357 38.6215 41.109 38.3369C41.4822 38.0515 41.535 37.6318 41.2433 37.2665L39.1305 34.6233C38.8389 34.2585 38.4092 34.2069 38.036 34.4919C37.6628 34.777 37.6105 35.1971 37.902 35.5619L40.0144 38.2056Z" fill="#55AB68"/>
<path d="M37.3555 44.1704C37.4703 43.7205 37.2471 43.3582 36.7873 43.246L33.4575 42.4342C32.9977 42.3227 32.6267 42.5405 32.5119 42.99C32.3979 43.4395 32.6203 43.8018 33.0805 43.914L36.41 44.7255C36.8699 44.8373 37.2409 44.6199 37.3556 44.1704L37.3555 44.1704Z" fill="#55AB68"/>
<path d="M37.3052 50.492L34.1704 51.8569C33.7373 52.0449 33.5822 52.4403 33.7752 52.863C33.9675 53.2863 34.3719 53.4379 34.8047 53.2499L37.9395 51.885C38.3726 51.697 38.5277 51.3016 38.3347 50.8789C38.1421 50.4558 37.7383 50.3043 37.3052 50.492Z" fill="#55AB68"/>
</svg>
