<svg width="61" height="60" viewBox="0 0 61 60" fill="currentColor" xmlns="http://www.w3.org/2000/svg">
    <circle cx="30.5" cy="30" r="29" />
    <circle cx="30.5" cy="30" r="29.2544" stroke="#9B9B9B" stroke-opacity="0.2" stroke-width="0.508772" />
    <path
        d="M30.4837 21.1191C24.5717 21.1191 22.1992 25.6882 22.1992 28.9013C22.1992 33.5948 25.8753 37.0592 26.718 40.7001H34.2491C35.0921 37.0592 38.7679 33.5948 38.7679 28.9013C38.7681 25.6882 36.396 21.1191 30.4837 21.1191Z"
        fill="white" />
    <path
        d="M26.7188 44.2187C26.7188 45.3091 27.1475 45.7379 28.238 45.7379H28.3928L28.5419 46.1853C28.7685 46.8668 29.0461 47.0671 29.7644 47.0671H31.2044C31.9231 47.0671 32.2 46.8668 32.4271 46.1851L32.5757 45.7378H32.7309C33.8217 45.7378 34.2498 45.309 34.2498 44.2186L34.2499 41.9473H26.7188L26.7188 44.2187Z"
        fill="white" />
    <path
        d="M30.4833 19.1852C30.9412 19.1852 31.2362 18.8894 31.2362 18.432V15.1181C31.2362 14.6607 30.9412 14.3652 30.4833 14.3652C30.0258 14.3652 29.7305 14.6607 29.7305 15.1185V18.4324C29.7305 18.8899 30.0258 19.1852 30.4833 19.1852Z"
        fill="white" />
    <path
        d="M37.1385 21.1705C37.4997 21.4518 37.9143 21.401 38.1959 21.0408L40.2358 18.4293C40.5178 18.0689 40.467 17.6535 40.1064 17.3724C39.746 17.0904 39.3306 17.1412 39.049 17.5021L37.0094 20.1132C36.7267 20.474 36.7783 20.889 37.1385 21.1705Z"
        fill="white" />
    <path
        d="M45.4406 25.7649C45.3295 25.3209 44.9715 25.1054 44.5275 25.2162L41.3117 26.0182C40.8677 26.129 40.6525 26.4869 40.763 26.931C40.8738 27.3754 41.2321 27.5902 41.6761 27.4797L44.8916 26.6781C45.3361 26.5673 45.5515 26.209 45.4407 25.7649H45.4406Z"
        fill="white" />
    <path
        d="M43.8405 34.5261L40.8132 33.1784C40.3953 32.9923 40.0048 33.1424 39.819 33.5606C39.633 33.9789 39.7827 34.3688 40.201 34.5552L43.2279 35.9022C43.6458 36.089 44.0363 35.9389 44.222 35.5206C44.4083 35.103 44.2582 34.7128 43.8404 34.526L43.8405 34.5261Z"
        fill="white" />
    <path
        d="M22.7734 21.0406C23.055 21.401 23.47 21.4515 23.8304 21.1704C24.1908 20.8884 24.2418 20.4738 23.9601 20.1129L21.9198 17.5018C21.6382 17.1414 21.2233 17.0904 20.8629 17.3721C20.5025 17.6537 20.452 18.0686 20.7335 18.429L22.7734 21.0406Z"
        fill="white" />
    <path
        d="M20.2058 26.933C20.3167 26.4886 20.1012 26.1307 19.6571 26.0199L16.4416 25.2179C15.9976 25.1078 15.6393 25.3229 15.5285 25.767C15.4184 26.211 15.6332 26.5689 16.0776 26.6798L19.2927 27.4814C19.7369 27.5919 20.0952 27.3771 20.2059 26.9331L20.2058 26.933Z"
        fill="white" />
    <path
        d="M20.1558 33.178L17.1286 34.5264C16.7104 34.7121 16.5606 35.1027 16.747 35.5202C16.9327 35.9385 17.3233 36.0882 17.7412 35.9025L20.7684 34.5541C21.1867 34.3684 21.3364 33.9778 21.15 33.5603C20.9641 33.1423 20.5741 32.9927 20.1558 33.178Z"
        fill="white" />
</svg>