<svg width="14" height="14" viewBox="0 0 14 14" fill="none" xmlns="http://www.w3.org/2000/svg">
    <g id="Icon">
        <mask id="mask0_4352_1403" style="mask-type:alpha" maskUnits="userSpaceOnUse" x="0" y="0" width="14"
            height="14">
            <rect id="Bounding box" width="14" height="14" fill="#D9D9D9" />
        </mask>
        <g mask="url(#mask0_4352_1403)">
            <path id="arrow_outward"
                d="M10.1851 4.8525L3.61103 11.4451C3.46288 11.5932 3.28696 11.6673 3.08325 11.6673C2.87955 11.6673 2.70362 11.5932 2.55547 11.4451C2.40733 11.2969 2.33325 11.121 2.33325 10.9173C2.33325 10.7136 2.40733 10.5377 2.55547 10.3895L9.14807 3.81547H3.51844C3.30856 3.81547 3.13263 3.74448 2.99066 3.6025C2.84868 3.46053 2.7777 3.2846 2.7777 3.07473C2.7777 2.86485 2.84868 2.68892 2.99066 2.54695C3.13263 2.40497 3.30856 2.33398 3.51844 2.33398H10.9258C11.1357 2.33398 11.3116 2.40497 11.4536 2.54695C11.5956 2.68892 11.6666 2.86485 11.6666 3.07473V10.4821C11.6666 10.692 11.5956 10.8679 11.4536 11.0099C11.3116 11.1519 11.1357 11.2229 10.9258 11.2229C10.716 11.2229 10.54 11.1519 10.3981 11.0099C10.2561 10.8679 10.1851 10.692 10.1851 10.4821V4.8525Z"
                fill="#1C1B1F" />
        </g>
    </g>
</svg>