<svg width="12" height="12" viewBox="0 0 12 12" fill="none" xmlns="http://www.w3.org/2000/svg">
<g id="ic-link">
<path id="Vector" d="M2.33072 10.5992H8.83805C9.08489 10.5992 9.32162 10.5012 9.49617 10.3266C9.67071 10.1521 9.76877 9.91533 9.76877 9.66848V6.76081C9.76877 6.66085 9.72906 6.56498 9.65837 6.49429C9.58769 6.4236 9.49182 6.38389 9.39186 6.38389C9.2919 6.38389 9.19603 6.4236 9.12534 6.49429C9.05466 6.56498 9.01495 6.66085 9.01495 6.76081V9.66848C9.01495 9.7154 8.99631 9.76041 8.96314 9.79358C8.92996 9.82676 8.88496 9.8454 8.83805 9.8454H2.33072C2.2838 9.8454 2.23881 9.82676 2.20563 9.79358C2.17245 9.76041 2.15381 9.7154 2.15381 9.66848V3.16084C2.15381 3.11392 2.17245 3.06892 2.20563 3.03574C2.23881 3.00256 2.2838 2.98392 2.33072 2.98392H5.23825C5.33821 2.98392 5.43408 2.94421 5.50477 2.87352C5.57545 2.80283 5.61516 2.70696 5.61516 2.607C5.61516 2.50703 5.57545 2.41116 5.50477 2.34048C5.43408 2.26979 5.33821 2.23008 5.23825 2.23008H2.33072C2.08388 2.23008 1.84714 2.32814 1.6726 2.50269C1.49806 2.67725 1.4 2.91399 1.4 3.16084V9.66848C1.4 9.91533 1.49806 10.1521 1.6726 10.3266C1.84714 10.5012 2.08388 10.5992 2.33072 10.5992Z" fill="#353535" stroke="#353535" stroke-width="0.2"/>
<path id="Vector_2" d="M7.61927 2.16353C7.51981 2.16317 7.4245 2.1235 7.35414 2.05313C7.28346 1.98245 7.24375 1.88658 7.24375 1.78661C7.24375 1.68665 7.28346 1.59078 7.35414 1.52009C7.42477 1.44946 7.52055 1.40975 7.62043 1.40969L7.62024 1.40969L7.62066 1.50969V1.40969L9.94626 1.4L9.94668 1.4C10.0466 1.4 10.1425 1.43971 10.2132 1.5104C10.2839 1.58109 10.3236 1.67696 10.3236 1.77692C10.3236 1.87688 10.2839 1.97276 10.2132 2.04344C10.1426 2.11408 10.0468 2.15378 9.9469 2.15384L9.9471 2.15384L7.61927 2.16353ZM7.61927 2.16353V2.16353H7.62066L7.61927 2.16353ZM7.62066 2.16353L9.94668 2.15384L7.62066 2.06353V2.16353Z" fill="#353535" stroke="#353535" stroke-width="0.2"/>
<path id="Vector_3" d="M9.83359 1.9488L9.8336 1.9493L9.84605 4.40785H9.94605L9.84606 4.40836L9.84605 4.40813C9.84613 4.50799 9.88583 4.60375 9.95645 4.67438C10.0271 4.74506 10.123 4.78477 10.223 4.78477C10.3229 4.78477 10.4188 4.74506 10.4895 4.67438C10.5602 4.60369 10.5999 4.50782 10.5999 4.40785L10.5999 4.40735L10.5874 1.9488H10.4874L10.5874 1.94829L10.5874 1.94853C10.5873 1.84866 10.5476 1.7529 10.477 1.68227C10.4063 1.61159 10.3105 1.57187 10.2105 1.57187C10.1105 1.57187 10.0147 1.61159 9.94399 1.68227C9.8733 1.75296 9.83359 1.84883 9.83359 1.9488Z" fill="#353535" stroke="#353535" stroke-width="0.2"/>
<path id="Vector_4" d="M7.26862 5.15262C7.36812 5.15268 7.46361 5.11339 7.53426 5.04331L7.53455 5.04302L10.2552 2.32227L10.2553 2.32237L10.2587 2.31858C10.3235 2.24677 10.3583 2.15277 10.3557 2.05605C10.3532 1.95932 10.3135 1.86729 10.245 1.79899C10.1764 1.73069 10.0843 1.69137 9.98753 1.68916C9.89081 1.68695 9.79693 1.72203 9.72535 1.78712L9.72528 1.78704L9.72192 1.7904L7.00273 4.50972C7.00271 4.50973 7.0027 4.50975 7.00269 4.50976C6.96766 4.54476 6.93988 4.58632 6.92092 4.63205C6.90195 4.67781 6.89219 4.72686 6.89219 4.77639C6.89219 4.82592 6.90195 4.87497 6.92092 4.92073C6.93988 4.96648 6.96768 5.00805 7.00273 5.04306L7.00298 5.04331C7.07363 5.11339 7.16912 5.15268 7.26862 5.15262ZM7.26862 5.15262C7.26859 5.15262 7.26857 5.15262 7.26854 5.15262L7.26862 5.05262L7.2687 5.15262C7.26867 5.15262 7.26865 5.15262 7.26862 5.15262Z" fill="#353535" stroke="#353535" stroke-width="0.2"/>
<path id="Vector_5" d="M10.2181 2.14553C10.4239 2.14553 10.5908 1.97864 10.5908 1.77277C10.5908 1.5669 10.4239 1.4 10.2181 1.4C10.0122 1.4 9.84531 1.5669 9.84531 1.77277C9.84531 1.97864 10.0122 2.14553 10.2181 2.14553Z" fill="#353535" stroke="#353535" stroke-width="0.2"/>
</g>
</svg>
