<svg width="10" height="10" viewBox="0 0 10 10" fill="none" xmlns="http://www.w3.org/2000/svg">
<path d="M1.33072 9.6012H7.83805C8.08489 9.6012 8.32162 9.50313 8.49617 9.32858C8.67071 9.15403 8.76877 8.91729 8.76877 8.67043V5.76276C8.76877 5.6628 8.72906 5.56693 8.65837 5.49624C8.58769 5.42556 8.49182 5.38584 8.39186 5.38584C8.2919 5.38584 8.19603 5.42556 8.12534 5.49624C8.05466 5.56693 8.01495 5.6628 8.01495 5.76276V8.67043C8.01495 8.71736 7.99631 8.76236 7.96314 8.79554C7.92996 8.82872 7.88496 8.84735 7.83805 8.84735H1.33072C1.2838 8.84735 1.23881 8.82872 1.20563 8.79554C1.17245 8.76236 1.15381 8.71736 1.15381 8.67043V2.16279C1.15381 2.11587 1.17245 2.07087 1.20563 2.03769C1.23881 2.00451 1.2838 1.98587 1.33072 1.98587H4.23825C4.33821 1.98587 4.43408 1.94616 4.50477 1.87547C4.57545 1.80479 4.61516 1.70892 4.61516 1.60895C4.61516 1.50899 4.57545 1.41312 4.50477 1.34243C4.43408 1.27174 4.33821 1.23203 4.23825 1.23203H1.33072C1.08388 1.23203 0.847144 1.33009 0.6726 1.50465C0.498057 1.6792 0.4 1.91594 0.4 2.16279V8.67043C0.4 8.91729 0.498057 9.15403 0.6726 9.32858C0.847144 9.50313 1.08388 9.6012 1.33072 9.6012Z" fill="#002633" stroke="#002633" stroke-width="0.2"/>
<path d="M6.61927 1.16353C6.51981 1.16317 6.4245 1.1235 6.35414 1.05313C6.28346 0.982448 6.24375 0.886577 6.24375 0.786613C6.24375 0.686649 6.28346 0.590778 6.35414 0.520092C6.42477 0.449457 6.52055 0.409751 6.62043 0.409692L6.62024 0.409693L6.62066 0.509692V0.409692L8.94626 0.400001L8.94668 0.399999C9.04664 0.4 9.14251 0.439712 9.21319 0.510399C9.28388 0.581086 9.32359 0.676957 9.32359 0.776921C9.32359 0.876885 9.28388 0.972755 9.21319 1.04344C9.14256 1.11408 9.04678 1.15378 8.9469 1.15384L8.9471 1.15384L6.61927 1.16353ZM6.61927 1.16353V1.16353H6.62066L6.61927 1.16353ZM6.62066 1.16353L8.94668 1.15384L6.62066 1.06353V1.16353Z" fill="#002633" stroke="#002633" stroke-width="0.2"/>
<path d="M8.83359 0.948796L8.8336 0.949303L8.84605 3.40785H8.94605L8.84606 3.40836L8.84605 3.40813C8.84613 3.50799 8.88583 3.60375 8.95645 3.67438C9.02713 3.74506 9.123 3.78477 9.22296 3.78477C9.32292 3.78477 9.41879 3.74506 9.48948 3.67438C9.56016 3.60369 9.59987 3.50782 9.59987 3.40785L9.59987 3.40735L9.58741 0.948796H9.48741L9.58741 0.948289L9.58741 0.948529C9.58734 0.848661 9.54764 0.752898 9.47702 0.682274C9.40633 0.611588 9.31047 0.571875 9.2105 0.571875C9.11054 0.571875 9.01467 0.611587 8.94399 0.682274C8.8733 0.752961 8.83359 0.848832 8.83359 0.948796Z" fill="#002633" stroke="#002633" stroke-width="0.2"/>
<path d="M6.26862 4.15262C6.36812 4.15268 6.46361 4.11339 6.53426 4.04331L6.53455 4.04302L9.25517 1.32227L9.25526 1.32237L9.25868 1.31858C9.32352 1.24677 9.35826 1.15277 9.35571 1.05605C9.35315 0.959324 9.31351 0.867287 9.24497 0.798991C9.17644 0.730694 9.08426 0.69137 8.98753 0.689161C8.89081 0.686952 8.79693 0.722028 8.72535 0.787125L8.72528 0.787041L8.72192 0.790398L6.00273 3.50972C6.00271 3.50973 6.0027 3.50975 6.00269 3.50976C5.96766 3.54476 5.93988 3.58632 5.92092 3.63205C5.90195 3.67781 5.89219 3.72686 5.89219 3.77639C5.89219 3.82592 5.90195 3.87497 5.92092 3.92073C5.93988 3.96648 5.96768 4.00805 6.00273 4.04306L6.00298 4.04331C6.07363 4.11339 6.16912 4.15268 6.26862 4.15262ZM6.26862 4.15262C6.26859 4.15262 6.26857 4.15262 6.26854 4.15262L6.26862 4.05262L6.2687 4.15262C6.26867 4.15262 6.26865 4.15262 6.26862 4.15262Z" fill="#002633" stroke="#002633" stroke-width="0.2"/>
<path d="M9.21807 1.14553C9.42394 1.14553 9.59082 0.978636 9.59082 0.772767C9.59082 0.566898 9.42394 0.4 9.21807 0.4C9.0122 0.4 8.84531 0.566898 8.84531 0.772767C8.84531 0.978636 9.0122 1.14553 9.21807 1.14553Z" fill="#002633" stroke="#002633" stroke-width="0.2"/>
</svg>
