<svg width="32" height="32" viewBox="0 0 32 32" fill="currentColor"
  xmlns="http://www.w3.org/2000/svg">
  <circle cx="16" cy="16" r="16" />
  <path
    d="M20.583 14.3329H19.8942V12.3943C19.8942 11.3543 19.4888 10.3764 18.7534 9.64043C18.0171 8.90502 17.0392 8.5 16.0001 8.5C13.8531 8.5 12.1054 10.247 12.1054 12.3947V14.3333H11.4167C10.4975 14.3333 9.75 15.0809 9.75 16V21.8333C9.75 22.7525 10.4975 23.5 11.4167 23.5H20.5833C21.5025 23.5 22.25 22.7525 22.25 21.8333V16C22.25 15.0809 21.5025 14.3333 20.5833 14.3333L20.583 14.3329ZM16.7138 19.2554V20.553C16.7138 21.0651 16.1751 21.4513 15.6334 21.1755C15.4117 21.0626 15.2851 20.8196 15.2851 20.571V19.2555C14.8142 18.9264 14.5785 18.2843 14.8917 17.6284C14.9955 17.4109 15.1742 17.2305 15.3913 17.126C16.328 16.6756 17.2493 17.346 17.2493 18.2318C17.2493 18.656 17.0368 19.0298 16.7135 19.2556L16.7138 19.2554ZM18.2271 14.3329H13.7718V12.3943C13.7718 11.166 14.7709 10.1663 15.9998 10.1663C16.5944 10.1663 17.154 10.3984 17.5748 10.8187C17.9956 11.24 18.2273 11.7991 18.2273 12.3937L18.2271 14.3329Z"
    fill="white" />
</svg>

