<svg width="16" height="17" viewBox="0 0 16 17" fill="currentColor" xmlns="http://www.w3.org/2000/svg">
    <path fill-rule="evenodd" clip-rule="evenodd"
        d="M8 0.5C12.4183 0.5 16 4.08172 16 8.5C16 12.9183 12.4183 16.5 8 16.5C3.58172 16.5 0 12.9183 0 8.5C0 4.08172 3.58172 0.5 8 0.5ZM8 1.5C4.13401 1.5 1 4.63401 1 8.5C1 12.366 4.13401 15.5 8 15.5C11.866 15.5 15 12.366 15 8.5C15 4.63401 11.866 1.5 8 1.5ZM7.88767 11.2844C7.88767 11.5493 8.10352 11.75 8.39868 11.75C8.61013 11.75 8.77313 11.6617 8.98899 11.4971L12.2841 8.66743C12.4383 8.52695 12.5 8.37844 12.5 8.25C12.5 8.11755 12.4427 7.97305 12.2841 7.82856L8.98899 5.02695C8.7511 4.84232 8.61894 4.75 8.40749 4.75C8.10352 4.75 7.88767 4.97076 7.88767 5.23567V6.6445H7.77313C4.81718 6.6445 3.5 8.37041 3.5 11.16C3.5 11.5373 3.71145 11.746 3.95815 11.746C4.14758 11.746 4.34582 11.6978 4.49559 11.445C5.19604 10.2448 6.18722 9.85952 7.77313 9.85952H7.88767V11.2844Z" />
</svg>