<svg width="11" height="12" viewBox="0 0 11 12" fill="none" xmlns="http://www.w3.org/2000/svg">
  <mask id="mask0_7276_10846" style="mask-type:alpha" maskUnits="userSpaceOnUse" x="0" y="0" width="11" height="12">
    <rect y="0.5" width="11" height="11" fill="#D9D9D9" />
  </mask>
  <g mask="url(#mask0_7276_10846)">
    <path
      d="M1.22222 11.5C0.886111 11.5 0.59838 11.3803 0.359028 11.141C0.119676 10.9016 0 10.6139 0 10.2778V1.72222C0 1.38611 0.119676 1.09838 0.359028 0.859028C0.59838 0.619676 0.886111 0.5 1.22222 0.5H5.5V1.72222H1.22222V10.2778H5.5V11.5H1.22222ZM7.94444 9.05556L7.10417 8.16944L8.6625 6.61111H3.66667V5.38889H8.6625L7.10417 3.83056L7.94444 2.94444L11 6L7.94444 9.05556Z"
      fill="currentColor" />
  </g>
</svg>