<svg width="50" height="50" viewBox="0 0 50 50" fill="currentColor" xmlns="http://www.w3.org/2000/svg">
  <path
    d="M4.79348 50H45.2065C46.4783 49.9986 47.6976 49.5004 48.5964 48.6149C49.4951 47.7295 50 46.5291 50 45.2776V20.0235C49.9998 19.8289 49.9564 19.6366 49.8729 19.4602C49.7893 19.2837 49.6676 19.1274 49.5163 19.002L42.8261 13.4399V3.74372C42.8261 2.75082 42.4253 1.79859 41.7118 1.09651C40.9984 0.394426 40.0307 0 39.0217 0H11.2446C10.2356 0 9.26794 0.394426 8.55449 1.09651C7.84103 1.79859 7.44022 2.75082 7.44022 3.74372V13.2367L0.483696 19.002C0.33237 19.1274 0.210684 19.2837 0.127139 19.4602C0.0435929 19.6366 0.000202934 19.8289 0 20.0235V45.2776C-8.15587e-07 46.5291 0.504851 47.7295 1.40365 48.6149C2.30244 49.5004 3.52167 49.9986 4.79348 50ZM45.2011 47.3259H4.79348C4.24237 47.3245 3.71432 47.1081 3.32513 46.7241C2.93595 46.3401 2.71739 45.8199 2.71739 45.2776V22.5746L18.2065 33.3565L7.21196 41.6355C6.92368 41.8482 6.73309 42.165 6.68213 42.516C6.63117 42.8671 6.72401 43.2236 6.94022 43.5073C7.15643 43.791 7.4783 43.9786 7.83503 44.0287C8.19175 44.0789 8.55411 43.9875 8.84239 43.7747L20.5326 34.9717L24.337 37.6457C24.5665 37.8058 24.8409 37.8917 25.1223 37.8917C25.4036 37.8917 25.678 37.8058 25.9076 37.6457L29.712 34.9717L41.4076 43.7587C41.6959 43.9715 42.0583 44.0628 42.415 44.0127C42.7717 43.9625 43.0936 43.775 43.3098 43.4913C43.526 43.2076 43.6188 42.851 43.5679 42.5C43.5169 42.1489 43.3263 41.8322 43.038 41.6194L32.0652 33.3565L47.2826 22.7671V45.2829C47.2812 45.8243 47.062 46.3431 46.673 46.726C46.2839 47.1088 45.7567 47.3245 45.2065 47.3259H45.2011ZM46.5217 20.0182L42.8261 22.5907V16.9376L46.5217 20.0182ZM11.2446 2.67943H39.0272C39.3154 2.67943 39.5919 2.79212 39.7958 2.99272C39.9996 3.19331 40.1141 3.46538 40.1141 3.74906V24.4679L25.1359 34.9021L10.163 24.4679V3.74372C10.1645 3.46188 10.2789 3.19199 10.4814 2.99271C10.6839 2.79342 10.9582 2.68084 11.2446 2.67943ZM7.44022 22.5907L3.59239 19.9166L7.44022 16.7077V22.5907Z"
  />
</svg>
