<svg width="14" height="18" viewBox="0 0 14 18" fill="currentColor" xmlns="http://www.w3.org/2000/svg">
  <path
    fill-rule="evenodd"
    clip-rule="evenodd"
    d="M6.86594 17.8648C8.17206 16.5008 13.0469 11.0906 13.0469 6.28661C13.0469 4.04061 11.8078 1.9648 9.79646 0.841997C7.78598 -0.280666 5.30783 -0.280666 3.29729 0.841997C1.286 1.96466 0.046875 4.04041 0.046875 6.28661C0.046875 11.0912 4.92074 16.5014 6.22781 17.8648C6.3102 17.9508 6.42571 18 6.54688 18C6.66804 18 6.78354 17.9508 6.86594 17.8648ZM3.1582 6.28635C3.1582 5.41681 3.51523 4.58401 4.15092 3.96915C4.78581 3.35509 5.64768 3.00977 6.54588 3.00977C7.44408 3.00977 8.30595 3.35509 8.94083 3.96915C9.57652 4.58399 9.93355 5.41681 9.93355 6.28555C9.93355 7.1551 9.57652 7.9879 8.94083 8.60276C8.30595 9.21682 7.44408 9.56214 6.54588 9.56214C5.64768 9.56214 4.78581 9.21682 4.15092 8.60276C3.51523 7.98792 3.1582 7.1551 3.1582 6.28635Z"
  />
</svg>
