<svg width="32" height="33" viewBox="0 0 32 33" fill="none" xmlns="http://www.w3.org/2000/svg">
<rect y="0.5" width="32" height="32" rx="8" fill="#353535"/>
<path d="M15.6768 6.1001C14.7939 6.1001 14.0564 6.677 13.4524 7.4646C12.8484 8.25219 12.3383 9.29764 11.9092 10.4742C11.8197 10.7216 11.7326 10.9751 11.6499 11.2325C11.4491 10.8549 11.2328 10.511 10.998 10.2117C10.4958 9.57218 9.87075 9.09034 9.11412 9.09034C8.3483 9.09034 7.71987 9.58428 7.21505 10.2371C6.71022 10.8898 6.28958 11.747 5.93545 12.7093C5.22744 14.634 4.79688 16.9726 4.79688 18.8535C4.79688 21.0266 6.44995 22.8246 8.57011 23.0904V25.078H6.19185C6.04761 25.078 5.90928 25.1353 5.80726 25.2373C5.70525 25.3393 5.6479 25.4776 5.64784 25.6218C5.64784 25.6933 5.66191 25.764 5.68925 25.83C5.71659 25.896 5.75666 25.956 5.80718 26.0065C5.85769 26.057 5.91766 26.0971 5.98367 26.1244C6.04967 26.1518 6.12041 26.1658 6.19185 26.1658H9.11388H15.6768C15.6767 26.1658 15.677 26.1658 15.6768 26.1658H22.2074H25.1618C25.2333 26.1658 25.304 26.1518 25.37 26.1244C25.436 26.0971 25.496 26.057 25.5465 26.0065C25.597 25.956 25.6371 25.896 25.6644 25.83C25.6918 25.764 25.7058 25.6933 25.7058 25.6218C25.7058 25.4776 25.6484 25.3393 25.5464 25.2373C25.4444 25.1353 25.3061 25.078 25.1618 25.078H22.7516V23.0941C24.8868 22.8425 26.5568 21.0378 26.5568 18.8535C26.5568 16.9522 26.1265 14.6127 25.4182 12.6928C25.0639 11.733 24.643 10.8794 24.1379 10.2299C23.6326 9.58041 23.0037 9.09034 22.2398 9.09034C21.4832 9.09034 20.8601 9.57363 20.3591 10.2134C20.1245 10.5122 19.9099 10.8549 19.7103 11.2313C19.6257 10.9672 19.5362 10.7074 19.4445 10.4541C19.0152 9.28071 18.5048 8.23961 17.9005 7.45613C17.296 6.67241 16.5578 6.1001 15.6768 6.1001ZM15.6768 7.18812C16.0677 7.18812 16.5411 7.47524 17.0389 8.1206C17.5365 8.76596 18.0186 9.72336 18.4228 10.8278C19.2312 13.037 19.7386 15.8395 19.7386 17.9926C19.7386 18.9972 19.3732 19.9137 18.7679 20.6195C18.7542 20.6341 18.7413 20.6495 18.7292 20.6655C18.0986 21.3791 17.2186 21.8682 16.2216 22V16.7343L18.155 15.0633C18.2641 14.9689 18.3313 14.8351 18.3417 14.6912C18.3521 14.5473 18.305 14.4052 18.2106 14.296C18.1545 14.2311 18.0838 14.1804 18.0043 14.148C17.9248 14.1156 17.8387 14.1025 17.7532 14.1098C17.6387 14.1195 17.5303 14.1652 17.4434 14.2404L16.2213 15.2965V13.2987C16.2213 13.2273 16.2073 13.1566 16.1799 13.0906C16.1526 13.0245 16.1125 12.9646 16.062 12.9141C16.0115 12.8635 15.9515 12.8235 15.8855 12.7961C15.8195 12.7688 15.7488 12.7547 15.6773 12.7547C15.6059 12.7547 15.5351 12.7688 15.4691 12.7961C15.4031 12.8235 15.3432 12.8635 15.2926 12.9141C15.2421 12.9646 15.2021 13.0245 15.1747 13.0906C15.1474 13.1566 15.1333 13.2273 15.1333 13.2987V18.4689L13.9113 17.4128C13.8244 17.3376 13.7159 17.2919 13.6014 17.2822C13.5159 17.2749 13.4299 17.288 13.3504 17.3204C13.2709 17.3528 13.2001 17.4035 13.144 17.4684C13.0496 17.5776 13.0025 17.7197 13.0129 17.8636C13.0234 18.0075 13.0905 18.1413 13.1996 18.2357L15.1331 19.9067V22C14.1471 21.8694 13.2751 21.3902 12.6462 20.6892C12.6243 20.6576 12.5992 20.6284 12.5712 20.6021C11.975 19.8985 11.6157 18.989 11.6157 17.9929C11.6157 15.8671 12.1232 13.0634 12.9319 10.8474C13.3361 9.73933 13.8184 8.77661 14.3164 8.12713C14.8145 7.47742 15.2879 7.18812 15.6768 7.18812ZM9.11412 10.1784C9.38939 10.1784 9.74836 10.3815 10.1422 10.8835C10.5122 11.3549 10.8785 12.0516 11.1932 12.8621C10.7691 14.6095 10.527 16.4339 10.527 17.9926C10.527 19.1123 10.8898 20.1495 11.5035 20.9942C11.0292 21.5087 10.3867 21.8699 9.65813 21.9913V18.3361C9.65813 18.2647 9.64406 18.1939 9.61673 18.1279C9.58939 18.0619 9.54932 18.0019 9.4988 17.9514C9.44828 17.9009 9.38831 17.8608 9.32231 17.8335C9.25631 17.8062 9.18556 17.7921 9.11412 17.7921C9.04268 17.7921 8.97194 17.8062 8.90594 17.8335C8.83994 17.8608 8.77996 17.9009 8.72945 17.9514C8.67893 18.0019 8.63886 18.0619 8.61152 18.1279C8.58418 18.1939 8.57011 18.2647 8.57011 18.3361V21.991C7.03895 21.7375 5.8849 20.4318 5.8849 18.8535C5.8849 17.1431 6.29901 14.8722 6.95647 13.0849C7.2852 12.1914 7.67754 11.4173 8.07569 10.9026C8.47384 10.3878 8.83789 10.1784 9.11412 10.1784ZM22.2398 10.1784C22.5177 10.1784 22.8813 10.3864 23.2789 10.8977C23.6766 11.4091 24.0687 12.1788 24.3974 13.0694C25.0547 14.8507 25.4688 17.1208 25.4688 18.8535C25.4688 20.443 24.2985 21.7562 22.7516 21.9966V18.3361C22.7516 18.2647 22.7376 18.1939 22.7102 18.1279C22.6829 18.0619 22.6428 18.0019 22.5923 17.9514C22.5418 17.9009 22.4818 17.8608 22.4158 17.8335C22.3498 17.8062 22.2791 17.7921 22.2076 17.7921C22.1362 17.7921 22.0654 17.8062 21.9994 17.8335C21.9334 17.8608 21.8735 17.9009 21.8229 17.9514C21.7724 18.0019 21.7324 18.0619 21.705 18.1279C21.6777 18.1939 21.6636 18.2647 21.6636 18.3361V21.9857C20.9481 21.8599 20.3175 21.5012 19.8502 20.9942C20.4641 20.1495 20.8267 19.1123 20.8267 17.9926C20.8267 16.424 20.5872 14.6032 20.1663 12.8629C20.4808 12.053 20.8465 11.3561 21.2159 10.884C21.6089 10.3818 21.9669 10.1784 22.2398 10.1784ZM12.2345 21.8045C13.0209 22.5104 14.0255 22.9789 15.1328 23.0958V25.078H9.65813V23.0904C10.6642 22.9647 11.5657 22.4959 12.2345 21.8045ZM19.1192 21.8045C19.781 22.4886 20.6704 22.9545 21.6636 23.0861V25.078H16.2208V23.0958C17.3285 22.9797 18.333 22.5104 19.1192 21.8045Z" fill="white"/>
</svg>
