<svg width="16" height="16" viewBox="0 0 16 16" fill="none" xmlns="http://www.w3.org/2000/svg">
  <mask id="mask0_7275_10820" style="mask-type:alpha" maskUnits="userSpaceOnUse" x="0" y="0" width="16" height="16">
    <rect width="16" height="16" fill="#D9D9D9" />
  </mask>
  <g mask="url(#mask0_7275_10820)">
    <path
      d="M3.2183 12.2338C3.8983 11.7293 4.6391 11.3308 5.4407 11.0384C6.24217 10.7461 7.09524 10.6 7.9999 10.6C8.90457 10.6 9.75764 10.7461 10.5591 11.0384C11.3607 11.3308 12.1015 11.7293 12.7815 12.2338C13.2788 11.6871 13.6729 11.0543 13.9637 10.3354C14.2545 9.61647 14.3999 8.838 14.3999 8C14.3999 6.22667 13.7766 4.71667 12.5299 3.47C11.2832 2.22333 9.77324 1.6 7.9999 1.6C6.22657 1.6 4.71657 2.22333 3.4699 3.47C2.22324 4.71667 1.5999 6.22667 1.5999 8C1.5999 8.838 1.7453 9.61647 2.0361 10.3354C2.3269 11.0543 2.72097 11.6871 3.2183 12.2338ZM7.9999 15.6C6.94457 15.6 5.95457 15.4015 5.0299 15.0046C4.10524 14.6077 3.3009 14.0671 2.6169 13.383C1.93277 12.699 1.39224 11.8947 0.995302 10.97C0.598369 10.0453 0.399902 9.05533 0.399902 8C0.399902 6.94467 0.598369 5.95467 0.995302 5.03C1.39224 4.10533 1.93277 3.301 2.6169 2.617C3.3009 1.93287 4.10524 1.39233 5.0299 0.9954C5.95457 0.598467 6.94457 0.4 7.9999 0.4C9.05524 0.4 10.0452 0.598467 10.9699 0.9954C11.8946 1.39233 12.6989 1.93287 13.3829 2.617C14.067 3.301 14.6076 4.10533 15.0045 5.03C15.4014 5.95467 15.5999 6.94467 15.5999 8C15.5999 9.05533 15.4014 10.0453 15.0045 10.97C14.6076 11.8947 14.067 12.699 13.3829 13.383C12.6989 14.0671 11.8946 14.6077 10.9699 15.0046C10.0452 15.4015 9.05524 15.6 7.9999 15.6ZM7.9999 14.4C8.7219 14.4 9.41803 14.2839 10.0883 14.0516C10.7586 13.8192 11.3537 13.4943 11.8737 13.077C11.3537 12.6749 10.7663 12.3615 10.1115 12.137C9.45657 11.9123 8.7527 11.8 7.9999 11.8C7.2471 11.8 6.54197 11.911 5.8845 12.133C5.22704 12.3551 4.6409 12.6698 4.1261 13.077C4.6461 13.4943 5.24124 13.8192 5.9115 14.0516C6.58177 14.2839 7.2779 14.4 7.9999 14.4Z"
      fill="currentColor" />
    <path fill-rule="evenodd" clip-rule="evenodd"
      d="M8 9C9.65685 9 11 7.65685 11 6C11 4.34315 9.65685 3 8 3C6.34315 3 5 4.34315 5 6C5 7.65685 6.34315 9 8 9ZM8 8C9.10457 8 10 7.10457 10 6C10 4.89543 9.10457 4 8 4C6.89543 4 6 4.89543 6 6C6 7.10457 6.89543 8 8 8Z"
      fill="currentColor" />
  </g>
</svg>