<svg width="30" height="30" viewBox="0 0 30 30" fill="none" xmlns="http://www.w3.org/2000/svg">
<path fill-rule="evenodd" clip-rule="evenodd" d="M14.25 23.0303C14.5 23.1136 14.75 23.1553 15 23.1553C15.25 23.1553 15.5 23.1136 15.75 23.0303C16 22.9469 16.2292 22.8219 16.4375 22.6553C18.8958 20.6969 20.7292 18.7855 21.9375 16.9209C23.1458 15.0563 23.75 13.2282 23.75 11.4365C23.75 8.83236 22.9375 6.69173 21.3125 5.01465C19.6875 3.33757 17.5833 2.49902 15 2.49902C12.4167 2.49902 10.3125 3.33757 8.6875 5.01465C7.0625 6.69173 6.25 8.83236 6.25 11.4365C6.25 13.2282 6.85417 15.0563 8.0625 16.9209C9.27083 18.7855 11.1042 20.6969 13.5625 22.6553C13.7708 22.8219 14 22.9469 14.25 23.0303ZM6.60938 27.1396C6.84896 27.3792 7.14583 27.499 7.5 27.499H22.5C22.8542 27.499 23.151 27.3792 23.3906 27.1396C23.6302 26.9001 23.75 26.6032 23.75 26.249C23.75 25.8949 23.6302 25.598 23.3906 25.3584C23.151 25.1188 22.8542 24.999 22.5 24.999H7.5C7.14583 24.999 6.84896 25.1188 6.60938 25.3584C6.36979 25.598 6.25 25.8949 6.25 26.249C6.25 26.6032 6.36979 26.9001 6.60938 27.1396ZM14.5547 18.5693C14.6745 18.6891 14.8229 18.749 15 18.749C15.1771 18.749 15.3255 18.6891 15.4453 18.5693C15.5651 18.4495 15.625 18.3011 15.625 18.124V15.624C16.2917 15.624 16.9297 15.499 17.5391 15.249C18.1484 14.999 18.6875 14.6396 19.1563 14.1709C19.625 13.7021 19.987 13.1605 20.2422 12.5459C20.4974 11.9313 20.625 11.2907 20.625 10.624V9.99902C20.625 9.82194 20.5651 9.6735 20.4453 9.55371C20.3255 9.43392 20.1771 9.37402 20 9.37402H19.375C18.7083 9.37402 18.0677 9.50163 17.4531 9.75684C16.8385 10.012 16.2969 10.374 15.8281 10.8428C15.7552 10.9157 15.6875 10.986 15.625 11.0537C15.5625 11.1214 15.5052 11.1917 15.4531 11.2646C15.3385 10.8271 15.1745 10.4157 14.9609 10.0303C14.7474 9.64486 14.4792 9.29069 14.1562 8.96777C13.6875 8.49902 13.1458 8.13704 12.5312 7.88184C11.9167 7.62663 11.2812 7.49902 10.625 7.49902H10C9.82292 7.49902 9.67448 7.55892 9.55469 7.67871C9.4349 7.7985 9.375 7.94694 9.375 8.12402V8.74902C9.375 9.41569 9.5 10.0563 9.75 10.6709C10 11.2855 10.3594 11.8271 10.8281 12.2959C11.2969 12.7646 11.8385 13.1266 12.4531 13.3818C13.0677 13.637 13.7083 13.7646 14.375 13.7646V18.124C14.375 18.3011 14.4349 18.4495 14.5547 18.5693ZM14.0859 11.0693C14.2786 11.5225 14.375 11.999 14.375 12.499C13.875 12.499 13.3958 12.4053 12.9375 12.2178C12.4792 12.0303 12.0729 11.7594 11.7188 11.4053C11.3646 11.0511 11.0938 10.6449 10.9062 10.1865C10.7188 9.72819 10.625 9.24902 10.625 8.74902C11.125 8.74902 11.6016 8.84538 12.0547 9.03809C12.5078 9.23079 12.9115 9.50423 13.2656 9.8584C13.6198 10.2126 13.8932 10.6162 14.0859 11.0693ZM17.0547 14.0928C16.6016 14.2803 16.125 14.374 15.625 14.374C15.625 13.874 15.7188 13.3975 15.9062 12.9443C16.0938 12.4912 16.3646 12.0876 16.7188 11.7334C17.0729 11.3792 17.4792 11.1058 17.9375 10.9131C18.3958 10.7204 18.875 10.624 19.375 10.624C19.375 11.124 19.2786 11.6032 19.0859 12.0615C18.8932 12.5199 18.6198 12.9261 18.2656 13.2803C17.9115 13.6344 17.5078 13.9053 17.0547 14.0928Z" fill="currentColor" />
</svg>
