<svg width="30" height="30" viewBox="0 0 30 30" fill="none" xmlns="http://www.w3.org/2000/svg">
<mask id="mask0_4819_4892" style="mask-type:alpha" maskUnits="userSpaceOnUse" x="0" y="-1" width="30" height="31">
<rect y="-0.000976562" width="30" height="30" fill="#D9D9D9"/>
</mask>
<g mask="url(#mask0_4819_4892)">
<path fill-rule="evenodd" clip-rule="evenodd" d="M1.25 8.87402C1.25 7.76945 2.14543 6.87402 3.25 6.87402H26.75C27.8546 6.87402 28.75 7.76945 28.75 8.87402V21.124C28.75 22.2286 27.8546 23.124 26.75 23.124H3.25C2.14543 23.124 1.25 22.2286 1.25 21.124V8.87402ZM2.5 9.12402C2.5 8.57174 2.94772 8.12402 3.5 8.12402H26.5C27.0523 8.12402 27.5 8.57174 27.5 9.12402V20.874C27.5 21.4263 27.0523 21.874 26.5 21.874H3.5C2.94772 21.874 2.5 21.4263 2.5 20.874V9.12402ZM10.4967 11.624V18.4649H9.39442L6.17103 13.8052H6.11425V18.4649H4.875V11.624H5.98398L9.20402 16.2871H9.26414V11.624H10.4967ZM11.5111 11.624V18.4649H15.9871V17.4261H12.7503V15.5589H15.7299V14.5201H12.7503V12.6629H15.9604V11.624H11.5111ZM16.3977 11.624L18.3284 18.4649H19.5509L20.9238 13.6649H20.9772L22.3468 18.4649H23.5693L25.5 11.624H24.1672L22.9346 16.6545H22.8745L21.5551 11.624H20.3426L19.0265 16.6512H18.963L17.7305 11.624H16.3977Z" fill="currentColor"/>
</g>
</svg>
