<svg width="30" height="31" viewBox="0 0 30 31" fill="none" xmlns="http://www.w3.org/2000/svg">
<mask id="mask0_5142_10280" style="mask-type:alpha" maskUnits="userSpaceOnUse" x="0" y="0" width="30" height="31">
<rect y="0.5" width="30" height="30" fill="#D9D9D9"/>
</mask>
<g mask="url(#mask0_5142_10280)">
<path fill-rule="evenodd" clip-rule="evenodd" d="M1.25 9.375C1.25 8.27043 2.14543 7.375 3.25 7.375H26.75C27.8546 7.375 28.75 8.27043 28.75 9.375V21.625C28.75 22.7296 27.8546 23.625 26.75 23.625H3.25C2.14543 23.625 1.25 22.7296 1.25 21.625V9.375ZM2.5 9.625C2.5 9.07272 2.94772 8.625 3.5 8.625H26.5C27.0523 8.625 27.5 9.07272 27.5 9.625V21.375C27.5 21.9273 27.0523 22.375 26.5 22.375H3.5C2.94772 22.375 2.5 21.9273 2.5 21.375V9.625ZM10.4967 12.125V18.9659H9.39442L6.17103 14.3062H6.11425V18.9659H4.875V12.125H5.98398L9.20402 16.7881H9.26414V12.125H10.4967ZM11.5111 12.125V18.9659H15.9871V17.9271H12.7503V16.0599H15.7299V15.021H12.7503V13.1638H15.9604V12.125H11.5111ZM16.3977 12.125L18.3284 18.9659H19.5509L20.9238 14.1659H20.9772L22.3468 18.9659H23.5693L25.5 12.125H24.1672L22.9346 17.1555H22.8745L21.5551 12.125H20.3426L19.0265 17.1521H18.963L17.7305 12.125H16.3977Z" fill="#FF8938"/>
</g>
</svg>
