<svg width="30" height="31" viewBox="0 0 30 31" fill="none" xmlns="http://www.w3.org/2000/svg">
<mask id="mask0_5142_11941" style="mask-type:alpha" maskUnits="userSpaceOnUse" x="0" y="-1" width="30" height="31">
<rect y="-0.125" width="30" height="30" fill="#D9D9D9"/>
</mask>
<g mask="url(#mask0_5142_11941)">
<path fill-rule="evenodd" clip-rule="evenodd" d="M24.884 13.6839C23.4888 14.8851 21.6729 15.6112 19.6875 15.6112C15.2865 15.6112 11.7188 12.0434 11.7188 7.64243C11.7188 5.95491 12.2433 4.3899 13.1382 3.10156C11.9637 3.31298 10.9095 3.83604 9.97559 4.67075C8.72493 5.78859 8 7.17759 7.80078 8.83774C6.5612 9.34686 5.57617 10.1603 4.8457 11.2782C4.11523 12.396 3.75 13.619 3.75 14.9471C3.75 16.7844 4.39746 18.3504 5.69238 19.6454C6.9873 20.9403 8.55339 21.5877 10.3906 21.5877H13.0469V25.5721H6.40625C6.02995 25.5721 5.71452 25.6994 5.45996 25.954C5.2054 26.2085 5.07812 26.5239 5.07812 26.9002C5.07812 27.2765 5.2054 27.592 5.45996 27.8465C5.71452 28.1011 6.02995 28.2284 6.40625 28.2284H22.3438C22.7201 28.2284 23.0355 28.1011 23.29 27.8465C23.5446 27.592 23.6719 27.2765 23.6719 26.9002C23.6719 26.5239 23.5446 26.2085 23.29 25.954C23.0355 25.6994 22.7201 25.5721 22.3438 25.5721H15.7031V21.5877H18.3594C20.1966 21.5877 21.7627 20.9403 23.0576 19.6454C24.3525 18.3504 25 16.7844 25 14.9471C25 14.5149 24.9613 14.0939 24.884 13.6839Z" fill="currentColor"/>
<path d="M19.9992 11.8123C20.2026 11.8123 20.3734 11.7434 20.5115 11.6058C20.6496 11.4682 20.7187 11.2977 20.7187 11.0943C20.7187 10.891 20.6499 10.7196 20.5124 10.5801C20.3748 10.4408 20.2042 10.3711 20.0008 10.3711C19.7974 10.3711 19.6267 10.4408 19.4885 10.5801C19.3504 10.7196 19.2813 10.891 19.2813 11.0943C19.2813 11.2977 19.3501 11.4682 19.4876 11.6058C19.6252 11.7434 19.7958 11.8123 19.9992 11.8123ZM20 9.2449C20.1955 9.2449 20.3605 9.17762 20.4951 9.04306C20.6295 8.90861 20.6968 8.74363 20.6968 8.54812V3.68215C20.6968 3.48665 20.6295 3.32162 20.4951 3.18706C20.3605 3.0526 20.1955 2.98538 20 2.98538C19.8045 2.98538 19.6395 3.0526 19.5049 3.18706C19.3705 3.32162 19.3032 3.48665 19.3032 3.68215V8.54812C19.3032 8.74363 19.3705 8.90861 19.5049 9.04306C19.6395 9.17762 19.8045 9.2449 20 9.2449ZM20 13.625C19.1331 13.625 18.3198 13.461 17.5599 13.1331C16.7999 12.8052 16.1389 12.3602 15.5768 11.7982C15.0148 11.2361 14.5698 10.5751 14.2419 9.81509C13.914 9.05522 13.75 8.24186 13.75 7.375C13.75 6.50814 13.914 5.69478 14.2419 4.93491C14.5698 4.17494 15.0148 3.51389 15.5768 2.95178C16.1389 2.38976 16.7999 1.9448 17.5599 1.61688C18.3198 1.28896 19.1331 1.125 20 1.125C20.8669 1.125 21.6802 1.28896 22.4401 1.61688C23.2001 1.9448 23.8611 2.38976 24.4232 2.95178C24.9852 3.51389 25.4302 4.17494 25.7581 4.93491C26.086 5.69478 26.25 6.50814 26.25 7.375C26.25 8.24186 26.086 9.05522 25.7581 9.81509C25.4302 10.5751 24.9852 11.2361 24.4232 11.7982C23.8611 12.3602 23.2001 12.8052 22.4401 13.1331C21.6802 13.461 20.8669 13.625 20 13.625Z" fill="currentColor"/>
</g>
</svg>
