<svg width="45" height="46" viewBox="0 0 45 46" fill="none" xmlns="http://www.w3.org/2000/svg">
<mask id="mask0_4839_4877" style="mask-type:alpha" maskUnits="userSpaceOnUse" x="0" y="0" width="45" height="46">
<rect y="0.499023" width="45" height="45" fill="#D9D9D9"/>
</mask>
<g mask="url(#mask0_4839_4877)">
<path d="M3.75 37.999V34.249H14.5312C13.8438 31.5928 12.5391 29.3037 10.6172 27.3818C8.69531 25.46 6.40625 24.1553 3.75 23.4678C4.375 23.3115 4.99219 23.1943 5.60156 23.1162C6.21094 23.0381 6.84375 22.999 7.5 22.999C11.6875 22.999 15.2344 24.4521 18.1406 27.3584C21.0469 30.2646 22.5 33.8115 22.5 37.999H3.75ZM26.25 37.999C26.25 36.6865 26.1094 35.3818 25.8281 34.085C25.5469 32.7881 25.1406 31.5459 24.6094 30.3584C25.9219 28.1396 27.7109 26.3584 29.9766 25.0146C32.2422 23.6709 34.75 22.999 37.5 22.999C38.1562 22.999 38.7891 23.0381 39.3984 23.1162C40.0078 23.1943 40.625 23.3115 41.25 23.4678C38.5938 24.1553 36.3125 25.46 34.4062 27.3818C32.5 29.3037 31.1875 31.5928 30.4688 34.249H41.25V37.999H26.25ZM22.5 26.7959C22.5 24.7647 22.875 22.8584 23.625 21.0771C24.375 19.2959 25.4062 17.7256 26.7188 16.3662C28.0312 15.0068 29.5703 13.9209 31.3359 13.1084C33.1016 12.2959 34.9844 11.8584 36.9844 11.7959C35.2344 12.8896 33.7031 14.2334 32.3906 15.8271C31.0781 17.4209 30.0625 19.2021 29.3438 21.1709C27.9688 21.8271 26.7109 22.6318 25.5703 23.585C24.4297 24.5381 23.4062 25.6084 22.5 26.7959ZM19.0781 23.2803C18.7031 22.999 18.3281 22.7334 17.9531 22.4834C17.5781 22.2334 17.1875 21.9834 16.7813 21.7334C16.7813 21.5459 16.7969 21.3506 16.8281 21.1475C16.8594 20.9443 16.875 20.749 16.875 20.5615C16.875 18.1865 16.5 15.9365 15.75 13.8115C15 11.6865 13.9375 9.74902 12.5625 7.99902C14.625 8.84277 16.4141 10.0537 17.9297 11.6318C19.4453 13.21 20.6094 15.0303 21.4219 17.0928C20.8594 18.0303 20.375 19.0225 19.9688 20.0693C19.5625 21.1162 19.2656 22.1865 19.0781 23.2803Z" fill="currentColor"/>
</g>
</svg>
