<svg width="40" height="41" viewBox="0 0 40 41" fill="none" xmlns="http://www.w3.org/2000/svg">
<g clip-path="url(#clip0_4667_6028)">
<circle cx="20" cy="20.249" r="20" fill="black" fill-opacity="0.03"/>
<mask id="mask0_4667_6028" style="mask-type:alpha" maskUnits="userSpaceOnUse" x="8" y="7" width="24" height="25">
<rect x="8" y="7.24902" width="24" height="24" fill="#D9D9D9"/>
</mask>
<g mask="url(#mask0_4667_6028)">
<path d="M10 27.249V25.249H15.75C15.3833 23.8324 14.6875 22.6115 13.6625 21.5865C12.6375 20.5615 11.4167 19.8657 10 19.499C10.3333 19.4157 10.6625 19.3532 10.9875 19.3115C11.3125 19.2699 11.65 19.249 12 19.249C14.2333 19.249 16.125 20.024 17.675 21.574C19.225 23.124 20 25.0157 20 27.249H10ZM22 27.249C22 26.549 21.925 25.8532 21.775 25.1615C21.625 24.4699 21.4083 23.8074 21.125 23.174C21.825 21.9907 22.7792 21.0407 23.9875 20.324C25.1958 19.6074 26.5333 19.249 28 19.249C28.35 19.249 28.6875 19.2699 29.0125 19.3115C29.3375 19.3532 29.6667 19.4157 30 19.499C28.5833 19.8657 27.3667 20.5615 26.35 21.5865C25.3333 22.6115 24.6333 23.8324 24.25 25.249H30V27.249H22ZM20 21.274C20 20.1907 20.2 19.174 20.6 18.224C21 17.274 21.55 16.4365 22.25 15.7115C22.95 14.9865 23.7708 14.4074 24.7125 13.974C25.6542 13.5407 26.6583 13.3074 27.725 13.274C26.7917 13.8574 25.975 14.574 25.275 15.424C24.575 16.274 24.0333 17.224 23.65 18.274C22.9167 18.624 22.2458 19.0532 21.6375 19.5615C21.0292 20.0699 20.4833 20.6407 20 21.274ZM18.175 19.399C17.975 19.249 17.775 19.1074 17.575 18.974C17.375 18.8407 17.1667 18.7074 16.95 18.574C16.95 18.474 16.9583 18.3699 16.975 18.2615C16.9917 18.1532 17 18.049 17 17.949C17 16.6824 16.8 15.4824 16.4 14.349C16 13.2157 15.4333 12.1824 14.7 11.249C15.8 11.699 16.7542 12.3449 17.5625 13.1865C18.3708 14.0282 18.9917 14.999 19.425 16.099C19.125 16.599 18.8667 17.1282 18.65 17.6865C18.4333 18.2449 18.275 18.8157 18.175 19.399Z" fill="#27A9E0"/>
</g>
</g>
<defs>
<clipPath id="clip0_4667_6028">
<rect width="40" height="40" fill="white" transform="translate(0 0.249023)"/>
</clipPath>
</defs>
</svg>
