<svg width="32" height="32" viewBox="0 0 32 32" xmlns="http://www.w3.org/2000/svg">
<g id="users">
<g id="Group 5332523">
<path id="Vector" d="M20.667 18.3328V13.6663C20.667 13.0474 20.4212 12.454 19.9836 12.0164C19.546 11.5788 18.9526 11.333 18.3338 11.333H13.6672C13.0484 11.333 12.4549 11.5788 12.0174 12.0164C11.5798 12.454 11.334 13.0474 11.334 13.6663V18.3328C11.334 18.9516 11.5798 19.5451 12.0174 19.9826C12.4549 20.4202 13.0484 20.666 13.6672 20.666H18.3338C18.9526 20.666 19.546 20.4202 19.9836 19.9826C20.4212 19.5451 20.667 18.9516 20.667 18.3328ZM13.3339 18.3328V13.6663C13.3339 13.5779 13.369 13.4931 13.4315 13.4306C13.4941 13.3681 13.5788 13.3329 13.6672 13.3329H18.3338C18.4222 13.3329 18.5069 13.3681 18.5695 13.4306C18.632 13.4931 18.6671 13.5779 18.6671 13.6663V18.3328C18.6671 18.4212 18.632 18.506 18.5695 18.5685C18.5069 18.631 18.4222 18.6661 18.3338 18.6661H13.6672C13.5788 18.6661 13.4941 18.631 13.4315 18.5685C13.369 18.506 13.3339 18.4212 13.3339 18.3328Z" fill="currentColor"/>
<path id="Vector_2" d="M22.3324 6.00033H21.0558C20.7997 5.9939 20.5503 6.08218 20.3554 6.24825C20.1604 6.41432 20.0336 6.6465 19.9992 6.9003C19.9851 7.03977 20.0006 7.18063 20.0445 7.31374C20.0885 7.44685 20.1599 7.56924 20.2542 7.67296C20.3485 7.77668 20.4635 7.85942 20.5919 7.9158C20.7202 7.97219 20.8589 8.00097 20.9991 8.00026H22.3324C22.7744 8.00026 23.1983 8.17585 23.5109 8.4884C23.8234 8.80095 23.999 9.22486 23.999 9.66687V10.9435C23.9926 11.1995 24.0809 11.4489 24.247 11.6439C24.413 11.8389 24.6452 11.9657 24.899 12.0001C25.0385 12.0142 25.1793 11.9987 25.3124 11.9548C25.4455 11.9108 25.5679 11.8394 25.6717 11.7451C25.7754 11.6508 25.8581 11.5358 25.9145 11.4074C25.9709 11.2791 25.9997 11.1403 25.999 11.0002V9.66687C25.999 9.18538 25.9041 8.70859 25.7199 8.26375C25.5356 7.8189 25.2655 7.4147 24.9251 7.07423C24.5846 6.73376 24.1804 6.46369 23.7355 6.27943C23.2907 6.09517 22.8139 6.00033 22.3324 6.00033Z" fill="currentColor"/>
<path id="Vector_3" d="M9.66656 6.00001C8.69413 6.00001 7.76153 6.38631 7.07392 7.07392C6.38631 7.76153 6.00001 8.69413 6.00001 9.66656V10.9998C5.99931 11.14 6.02809 11.2788 6.08447 11.4071C6.14086 11.5354 6.2236 11.6505 6.32732 11.7448C6.43104 11.8391 6.55342 11.9105 6.68653 11.9544C6.81964 11.9984 6.9605 12.0138 7.09998 11.9998C7.35377 11.9654 7.58595 11.8386 7.75202 11.6436C7.91809 11.4486 8.00637 11.1992 7.99995 10.9432V9.66656C7.99995 9.22455 8.17554 8.80064 8.48809 8.48809C8.80064 8.17554 9.22455 7.99995 9.66656 7.99995H10.9432C11.1992 8.00637 11.4486 7.91809 11.6436 7.75202C11.8386 7.58595 11.9654 7.35377 11.9998 7.09998C12.0138 6.9605 11.9984 6.81964 11.9544 6.68653C11.9105 6.55342 11.8391 6.43104 11.7448 6.32732C11.6505 6.2236 11.5354 6.14086 11.4071 6.08447C11.2788 6.02809 11.14 5.99931 10.9998 6.00001H9.66656Z" fill="currentColor"/>
<path id="Vector_4" d="M6 22.3333C6 22.8148 6.09484 23.2915 6.2791 23.7364C6.46336 24.1812 6.73344 24.5854 7.07391 24.9259C7.41438 25.2664 7.81857 25.5364 8.26342 25.7207C8.70827 25.905 9.18505 25.9998 9.66655 25.9998H10.9432C11.1992 26.0062 11.4486 25.9179 11.6436 25.7519C11.8386 25.5858 11.9654 25.3536 11.9998 25.0998C12.0138 24.9604 11.9984 24.8195 11.9544 24.6864C11.9105 24.5533 11.8391 24.4309 11.7448 24.3272C11.6505 24.2235 11.5354 24.1407 11.4071 24.0843C11.2788 24.0279 11.14 23.9992 10.9998 23.9999H9.66655C9.22453 23.9999 8.80062 23.8243 8.48807 23.5117C8.17552 23.1992 7.99993 22.7753 7.99993 22.3333V21.0566C8.00636 20.8006 7.91808 20.5512 7.75201 20.3562C7.58594 20.1612 7.35376 20.0344 7.09996 20H6.99997C6.75329 20.0015 6.51586 20.0941 6.33332 20.26C6.22913 20.3532 6.14563 20.4672 6.08822 20.5946C6.0308 20.7221 6.00075 20.8602 6 21V22.3333Z" fill="currentColor"/>
<path id="Vector_5" d="M24.899 20.0001C24.6452 20.0345 24.413 20.1614 24.247 20.3563C24.0809 20.5513 23.9926 20.8007 23.999 21.0568V22.3334C23.999 22.7754 23.8234 23.1993 23.5109 23.5119C23.1983 23.8244 22.7744 24 22.3324 24H21.0558C20.7997 23.9936 20.5503 24.0819 20.3554 24.2479C20.1604 24.414 20.0336 24.6462 19.9992 24.9C19.9851 25.0394 20.0006 25.1803 20.0445 25.3134C20.0885 25.4465 20.1599 25.5689 20.2542 25.6726C20.3485 25.7764 20.4635 25.8591 20.5919 25.9155C20.7202 25.9719 20.8589 26.0006 20.9991 25.9999H22.3324C22.8139 25.9999 23.2907 25.9051 23.7355 25.7208C24.1804 25.5366 24.5846 25.2665 24.9251 24.926C25.2655 24.5856 25.5356 24.1814 25.7199 23.7365C25.9041 23.2917 25.999 22.8149 25.999 22.3334V21.0001C25.9997 20.8599 25.9709 20.7212 25.9145 20.5928C25.8581 20.4645 25.7754 20.3495 25.6717 20.2552C25.5679 20.1609 25.4455 20.0894 25.3124 20.0455C25.1793 20.0016 25.0385 19.9861 24.899 20.0001Z" fill="currentColor"/>
</g>
</g>
</svg>
