<svg width="59" height="58" viewBox="0 0 59 58" fill="none" xmlns="http://www.w3.org/2000/svg">
    <circle cx="29.5" cy="29" r="29" fill="#009344" />
    <path fill-rule="evenodd" clip-rule="evenodd"
        d="M39.3634 30.8433C38.0985 32.9698 28.6879 32.134 31.8356 39.6818C31.8986 39.609 31.9602 39.5349 32.0245 39.4634C32.925 38.4548 33.9286 37.5956 35.0435 36.8976C34.0747 37.8075 33.2492 38.8564 32.5605 40.0341C32.1585 40.7216 31.8034 41.4534 31.4899 42.2255C31.3666 42.2099 31.242 42.2021 31.1147 42.2021C30.9592 42.2021 30.8078 42.2177 30.6591 42.2398C29.8913 40.3954 28.9788 38.716 27.9028 37.2266C26.9259 35.8761 25.8138 34.6803 24.5542 33.6522C26.7504 34.6648 28.3612 36.2557 29.7384 38.0974C33.8027 26.6891 20.7137 29.1561 18.6826 26.3887C13.9539 32.9851 19.902 41.6691 27.7166 40.4656C28.1776 41.3039 28.5983 42.1904 28.9802 43.125C28.9467 43.1627 28.9092 43.2004 28.8784 43.2407C28.676 43.5006 28.4161 43.6618 28.0891 43.7333C27.6161 43.836 27.2141 44.0985 26.9609 44.4521C26.784 44.6991 26.5575 44.8628 26.2627 44.9551C25.8192 45.0929 25.5016 45.4672 25.5016 45.9066C25.5016 46.4642 26.0121 46.9165 26.6432 46.9165C26.7236 46.9165 26.8027 46.9087 26.8777 46.8957C27.2918 46.819 27.6589 46.8255 28.0703 46.9191C28.2177 46.9529 28.3718 46.9698 28.5299 46.9698C28.6492 46.9698 28.7657 46.9594 28.877 46.9412C29.4638 46.8424 29.9824 46.8463 30.568 46.9516C30.7449 46.9828 30.9271 46.9997 31.1133 46.9997C31.3532 46.9997 31.5863 46.9724 31.8074 46.9204C32.1451 46.8411 32.4506 46.8411 32.7883 46.9178C32.937 46.9516 33.0925 46.9698 33.2519 46.9698C33.3484 46.9698 33.4422 46.9633 33.5347 46.9503C34.0545 46.8801 34.5061 46.8684 35.0301 46.9126C35.0662 46.9152 35.1024 46.9178 35.1386 46.9178C35.7684 46.9178 36.2802 46.4655 36.2802 45.9079C36.2802 45.4685 35.9627 45.0942 35.5191 44.9564C35.2243 44.8641 34.9979 44.7003 34.821 44.4534C34.5999 44.144 34.2649 43.9036 33.8669 43.7814C33.7169 43.7346 33.6043 43.6462 33.5279 43.5124C33.4341 43.3512 33.3176 43.2017 33.1863 43.0639C33.3551 42.6376 33.54 42.2268 33.737 41.8278C39.574 42.1775 43.3216 35.3768 39.3634 30.8431L39.3634 30.8433Z"
        fill="white" />
    <path d="M29.5098 26.3887L28.2332 26.3887L28.2332 22.6638L29.5098 22.6638L29.5098 26.3887Z" fill="white" />
    <path d="M24.9141 21.9935L22.2405 24.8994L21.3396 24.0804L24.0131 21.1745L24.9141 21.9935Z" fill="white" />
    <path d="M36.6602 24.0804L35.7592 24.8994L33.0857 21.9935L33.9866 21.1745L36.6602 24.0804Z" fill="white" />
    <ellipse cx="28.957" cy="14.863" rx="5" ry="4.86305" fill="white" />
</svg>