<svg width="32" height="32" viewBox="0 0 32 32" xmlns="http://www.w3.org/2000/svg">
<g id="users">
<g id="Group 5332521">
<path id="Vector" d="M10.375 12.1084V26.0001H24.2149V12.1084H10.375ZM14.542 24.3375H12.1674V21.9629H14.542V24.3375ZM14.542 20.3453H12.1674V17.9705H14.542V20.3453ZM14.542 16.3465H12.1674V13.9719H14.542V16.3465ZM18.5342 25.5086H16.1595V21.9629H18.5342V25.5086ZM18.5342 20.3453H16.1595V17.9705H18.5342V20.3453ZM18.5342 16.3465H16.1595V13.9719H18.5342V16.3465ZM22.5327 24.3375H20.1583V21.9629H22.533L22.5327 24.3375ZM22.5327 20.3453H20.1583V17.9705H22.533L22.5327 20.3453ZM22.5327 16.3465H20.1583V13.9719H22.533L22.5327 16.3465Z" fill="currentColor"/>
<path id="Vector_2" d="M18.0933 6H8V25.9996H9.86329V11.5903H18.0936L18.0933 6ZM12.2379 10.0115H9.86329V7.63708H12.2381L12.2379 10.0115ZM16.2301 10.0115H13.8554V7.63708H16.2301V10.0115Z" fill="currentColor"/>
</g>
</g>
</svg>
