<svg width="16" height="16" viewBox="0 0 16 16" fill="none" xmlns="http://www.w3.org/2000/svg">
<g id="fi:paperclip" clip-path="url(#clip0_2425_63945)">
<path id="Vector" d="M14.2948 7.36726L8.16816 13.4939C7.4176 14.2445 6.39962 14.6662 5.33816 14.6662C4.27671 14.6662 3.25872 14.2445 2.50816 13.4939C1.7576 12.7434 1.33594 11.7254 1.33594 10.6639C1.33594 9.60248 1.7576 8.58449 2.50816 7.83393L8.63483 1.70726C9.1352 1.20689 9.81386 0.925781 10.5215 0.925781C11.2291 0.925781 11.9078 1.20689 12.4082 1.70726C12.9085 2.20764 13.1896 2.88629 13.1896 3.59393C13.1896 4.30157 12.9085 4.98022 12.4082 5.4806L6.27483 11.6073C6.02464 11.8575 5.68531 11.998 5.3315 11.998C4.97768 11.998 4.63835 11.8575 4.38816 11.6073C4.13797 11.3571 3.99742 11.0177 3.99742 10.6639C3.99742 10.3101 4.13797 9.97079 4.38816 9.7206L10.0482 4.06726" stroke="#353535" stroke-width="1.5" stroke-linecap="round" stroke-linejoin="round"/>
</g>
<defs>
<clipPath id="clip0_2425_63945">
<rect width="16" height="16" fill="white"/>
</clipPath>
</defs>
</svg>
