<svg width="32" height="32" viewBox="0 0 32 32" xmlns="http://www.w3.org/2000/svg">
<g id="users">
<path id="Vector" d="M27.9683 24.0691C27.9501 24.0691 27.9319 24.0706 27.9139 24.0721C27.907 24.0716 27.9011 24.0701 27.8944 24.0701H23.7144L23.6406 21.5336L26.9531 21.5395C27.554 21.5441 27.745 21.4613 27.7555 21.0652C27.7619 20.8153 27.4437 20.4797 27.4437 20.4797C27.4437 20.4797 26.297 19.1048 25.4851 18.2742H26.2004C26.8015 18.2788 26.9923 18.1952 27.0025 17.7997C27.0089 17.5502 26.6913 17.2139 26.6913 17.2139C26.6913 17.2139 25.632 16.2407 24.8288 15.4275L24.8516 15.3227L25.5356 15.3294C26.137 15.3342 26.3275 15.2509 26.338 14.8551C26.3452 14.6054 26.0263 14.269 26.0263 14.269C26.0263 14.269 24.0972 12.3355 23.4727 11.5772C23.3791 11.4634 23.2891 11.3785 23.205 11.3149V11.3093C23.205 11.3093 23.053 11.1434 22.8033 11.154C22.5531 11.1434 22.4021 11.3093 22.4021 11.3093V11.3149C22.3172 11.3785 22.228 11.4634 22.1347 11.5772C21.5097 12.3355 19.5803 14.269 19.5803 14.269C19.5803 14.269 19.1014 14.6054 19.1081 14.8551C19.1186 15.2507 19.4698 15.3342 20.0704 15.3294L20.7549 15.3227L20.7778 15.4275C19.9751 16.2405 18.916 17.2139 18.916 17.2139C18.916 17.2139 18.5971 17.5502 18.604 17.7997C18.6146 18.1952 18.8055 18.2786 19.4067 18.2742H20.1212C19.8715 18.5301 19.59 18.8069 19.3198 19.0674C19.5446 19.2768 19.6844 19.4058 19.6892 19.4104L19.7054 19.425L19.7208 19.4414C21.05 20.7709 20.1468 21.5364 20.1468 21.5364L21.9665 21.5334L21.8924 24.0698H13.2327L13.1263 21.518L18.3336 21.5267C19.2662 21.5341 19.5621 21.4049 19.5782 20.7909C19.5885 20.4036 19.0947 19.8821 19.0947 19.8821C19.0947 19.8821 17.3156 18.2465 16.056 16.9583H17.1656C18.0985 16.9657 18.3938 16.8365 18.4105 16.223C18.4202 15.8352 17.9267 15.3137 17.9267 15.3137C17.9267 15.3137 16.2834 13.8037 15.0383 12.5424L15.0734 12.3791L16.1345 12.3899C17.0677 12.3973 17.3632 12.2681 17.3799 11.6541C17.3896 11.2668 16.8959 10.7451 16.8959 10.7451C16.8959 10.7451 13.9026 7.83378 12.9335 6.65707C12.7887 6.48094 12.6495 6.34892 12.5182 6.25073V6.24176C12.5182 6.24176 12.2826 5.98411 11.895 6.00077C11.5074 5.98411 11.272 6.24176 11.272 6.24176V6.25073C11.1408 6.34917 11.0018 6.48094 10.8567 6.65707C9.88766 7.83378 6.89409 10.7456 6.89409 10.7456C6.89409 10.7456 6.40034 11.2673 6.41034 11.6546C6.42649 12.2686 6.72284 12.3976 7.65524 12.3904L8.71659 12.3796L8.75197 12.5429C7.50604 13.8042 5.86274 15.3142 5.86274 15.3142C5.86274 15.3142 5.36898 15.8357 5.37924 16.2236C5.39539 16.8373 5.69149 16.9662 6.6244 16.9588H7.73343C6.47494 18.2468 4.69526 19.8824 4.69526 19.8824C4.69526 19.8824 4.20201 20.4038 4.21201 20.7912C4.22791 21.4054 4.52401 21.5344 5.45692 21.527L10.6411 21.5182L10.5347 24.0701H5.03904C5.03263 24.0701 5.02648 24.0716 5.01982 24.0721C5.00161 24.0706 4.98367 24.0691 4.96547 24.0691C4.43223 24.0691 4 24.5016 4 25.0348C4 25.5678 4.43249 26 4.96547 26C4.99444 26 5.02264 25.9982 5.05084 25.9954H27.8831C27.9108 25.9982 27.9395 26 27.9683 26C28.5012 26 28.9337 25.5678 28.9337 25.0348C28.9337 24.5016 28.5012 24.0691 27.9683 24.0691Z" fill="currentColor"/>
</g>
</svg>
