<svg width="16" height="16" viewBox="0 0 16 16" fill="ffffff" xmlns="http://www.w3.org/2000/svg">
<g id="fi:plus-circle">
<g id="Group 5332772">
<path id="Subtract" fill-rule="evenodd" clip-rule="evenodd" d="M7.9987 14.6673C11.6806 14.6673 14.6654 11.6825 14.6654 8.00065C14.6654 4.31875 11.6806 1.33398 7.9987 1.33398C4.3168 1.33398 1.33203 4.31875 1.33203 8.00065C1.33203 11.6825 4.3168 14.6673 7.9987 14.6673ZM8.00195 4.25C8.41617 4.25 8.75195 4.58579 8.75195 5V7.25H11C11.4142 7.25 11.75 7.58579 11.75 8C11.75 8.41421 11.4142 8.75 11 8.75H8.75195V11C8.75195 11.4142 8.41617 11.75 8.00195 11.75C7.58774 11.75 7.25195 11.4142 7.25195 11V8.75H5C4.58579 8.75 4.25 8.41421 4.25 8C4.25 7.58579 4.58579 7.25 5 7.25H7.25195V5C7.25195 4.58579 7.58774 4.25 8.00195 4.25Z" fill="currentColor"/>
</g>
</g>
</svg>
