<svg width="24" height="24" viewBox="0 0 24 24" fill="none" xmlns="http://www.w3.org/2000/svg">
<g id="users">
<path id="Vector" d="M20.4 8.6H18.06L13.8 5.5V3.6C13.8 3.26 13.54 3 13.2 3H10.8C10.46 3 10.2 3.26 10.2 3.6V5.5L5.94 8.6H3.6C3.26 8.6 3 8.86 3 9.2V11.6C3 11.92 3.26 12.2 3.6 12.2H4.46L6.16 17.4C5.86 17.42 5.6 17.68 5.6 18V20.4C5.6 20.72 5.86 21 6.2 21H8.6C8.94 21 9.2 20.72 9.2 20.4V19.8H14.8V20.4C14.8 20.72 15.06 21 15.4 21H17.8C18.14 21 18.4 20.72 18.4 20.4V18C18.4 17.68 18.16 17.42 17.84 17.4L19.54 12.2H20.4C20.74 12.2 21 11.92 21 11.6V9.2C21 8.86 20.74 8.6 20.4 8.6ZM16.58 17.4H15.4C15.06 17.4 14.8 17.66 14.8 18V18.6H9.2V18C9.2 17.66 8.94 17.4 8.6 17.4H7.42L5.72 12.2H6C6.34 12.2 6.6 11.92 6.6 11.6V9.6L10.74 6.6C10.76 6.6 10.78 6.6 10.8 6.6H13.2C13.22 6.6 13.24 6.6 13.26 6.6L17.4 9.6V11.6C17.4 11.92 17.66 12.2 18 12.2H18.28L16.58 17.4Z" fill="currentColor"/>
</g>
</svg>
