<svg width="66" height="68" viewBox="0 0 66 68" fill="none" xmlns="http://www.w3.org/2000/svg">
<path d="M42.8242 63.81H6.10425C5.50751 63.81 4.93521 63.573 4.51326 63.151C4.0913 62.729 3.85425 62.1567 3.85425 61.56V6.435C3.85425 5.83826 4.0913 5.26597 4.51326 4.84401C4.93521 4.42205 5.50751 4.185 6.10425 4.185H35.0392V18.405C35.0392 18.8526 35.217 19.2818 35.5335 19.5982C35.85 19.9147 36.2792 20.0925 36.7267 20.0925H50.9467V32.9513C50.9467 33.3988 51.1245 33.828 51.441 34.1445C51.7575 34.461 52.1867 34.6388 52.6342 34.6388C53.0818 34.6388 53.511 34.461 53.8275 34.1445C54.144 33.828 54.3217 33.3988 54.3217 32.9513V18.405C54.3223 18.1753 54.2757 17.9479 54.1848 17.737C54.0938 17.526 53.9605 17.336 53.793 17.1788L37.953 1.3725C37.7834 1.19892 37.5806 1.06119 37.3567 0.967502C37.1568 0.885492 36.9428 0.84345 36.7267 0.843752H6.10425C4.61241 0.843752 3.18166 1.43638 2.12677 2.49128C1.07188 3.54617 0.479248 4.97691 0.479248 6.46875V61.5938C0.479248 63.0856 1.07188 64.5163 2.12677 65.5712C3.18166 66.6261 4.61241 67.2188 6.10425 67.2188H42.8242C43.2718 67.2187 43.701 67.041 44.0175 66.7245C44.334 66.408 44.5117 65.9788 44.5117 65.5312C44.5117 65.0837 44.334 64.6545 44.0175 64.338C43.701 64.0215 43.2718 63.8438 42.8242 63.8438V63.81ZM38.4142 6.58125L48.5392 16.7063H38.4142V6.58125Z" fill="#353535"/>
<path d="M63.8826 38.0166H41.3826C40.935 38.0166 40.5058 38.1944 40.1894 38.5108C39.8729 38.8273 39.6951 39.2565 39.6951 39.7041V45.6103C39.6809 46.0194 39.817 46.4196 40.0776 46.7353L47.8851 56.2191V65.5003C47.888 65.947 48.0668 66.3745 48.3826 66.6903C48.6984 67.0061 49.126 67.1849 49.5726 67.1878C49.8603 67.1892 50.1433 67.1155 50.3938 66.9741L56.5026 63.5991C56.7659 63.4537 56.9853 63.2402 57.1377 62.9809C57.2901 62.7216 57.37 62.4261 57.3688 62.1253V56.1628L65.2438 46.6791C65.5044 46.3634 65.6405 45.9632 65.6263 45.5541V39.7041C65.6265 39.4776 65.581 39.2535 65.4927 39.045C65.4044 38.8365 65.2751 38.6479 65.1124 38.4905C64.9497 38.333 64.7569 38.2099 64.5457 38.1285C64.3344 38.0471 64.1089 38.009 63.8826 38.0166ZM62.1951 45.0028L54.3876 54.4753C54.1265 54.7915 53.9869 55.1904 53.9938 55.6003V61.2253L51.2601 62.7441V55.6566C51.2712 55.2479 51.1355 54.8488 50.8776 54.5316L43.0701 45.0591V41.3916H62.1951V45.0028Z" fill="#353535"/>
</svg>
