<svg width="16" height="17" viewBox="0 0 16 17" fill="currentColor" xmlns="http://www.w3.org/2000/svg">
    <path fill-rule="evenodd" clip-rule="evenodd"
        d="M8 0.5C12.4183 0.5 16 4.08172 16 8.5C16 12.9183 12.4183 16.5 8 16.5C3.58172 16.5 0 12.9183 0 8.5C0 4.08172 3.58172 0.5 8 0.5ZM8 1.5C4.13401 1.5 1 4.63401 1 8.5C1 10.4158 1.76959 12.1518 3.01648 13.4157C3.04043 13.2245 3.09028 13.0272 3.16478 12.8281C3.69163 11.4207 5.45118 9.92958 8 9.92958C10.9152 9.92958 12.7908 11.8723 12.9836 13.4157C14.2304 12.1517 15 10.4157 15 8.5C15 4.63401 11.866 1.5 8 1.5ZM8.00601 8.83862C9.28581 8.83862 10.3837 7.65728 10.3837 6.1338C10.3837 4.62969 9.27954 3.5 8.00601 3.5C6.72621 3.5 5.62207 4.65552 5.62207 6.14671C5.62834 7.65728 6.71994 8.83862 8.00601 8.83862Z" />
</svg>