<svg width="32" height="32" viewBox="0 0 32 32" xmlns="http://www.w3.org/2000/svg">
<g id="users">
<g id="Group">
<g id="Group_2">
<path id="Vector" d="M19.2559 9.33579C19.2559 9.56584 19.4427 9.75272 19.6728 9.75272H22.742C22.7098 9.71144 22.6797 9.6689 22.642 9.63118L19.3774 6.36666C19.3397 6.32895 19.2972 6.29882 19.2559 6.2666V9.33579Z" fill="currentColor"/>
</g>
<g id="Group_3">
<path id="Vector_2" d="M19.6733 10.5868C18.9836 10.5868 18.4225 10.0258 18.4225 9.33603V6H9.25078C8.55869 6 8 6.56284 8 7.25078V24.7409C8 25.4288 8.55869 25.9917 9.25078 25.9917L21.3834 26C21.817 26 22.2256 25.8333 22.5341 25.5247C22.8385 25.2203 23.0094 24.8118 23.0094 24.3782V10.5868H19.6733ZM10.5009 10.1638H13.8363V10.9976H10.5009V10.1638ZM10.5009 12.6653H20.5072V13.4992H10.5009V12.6653ZM10.5009 15.1669H20.5072V16.0008H10.5009V15.1669ZM13.0025 23.5055H10.5009V22.6716H13.0025V23.5055ZM14.6702 21.0039H10.5009V20.17H14.6702V21.0039ZM16.3379 18.5023H10.5009V17.6685H16.3379V18.5023ZM21.341 23.6081C21.341 24.0677 20.9668 24.4419 20.5072 24.4419H17.5887C17.129 24.4419 16.7548 24.0677 16.7548 23.6081V19.7531C16.7548 19.2934 17.129 18.9193 17.5887 18.9193H20.5072C20.9668 18.9193 21.341 19.2934 21.341 19.7531V23.6081Z" fill="currentColor"/>
</g>
</g>
</g>
</svg>
