<svg width="27" height="28" viewBox="0 0 27 28" fill="none" xmlns="http://www.w3.org/2000/svg">
<path d="M26.1817 26.3515H20.2548V22.8694C23.8356 22.6125 26.6754 19.6243 26.6754 15.9793C26.6754 12.3344 23.5737 9.06468 19.7608 9.06468C19.257 9.06468 18.7581 9.12395 18.2741 9.22767V9.06468C18.2741 3.58732 13.6363 0.767088 13.587 0.737375C13.429 0.643531 13.2363 0.643531 13.0783 0.737375C8.45029 3.55261 8.39623 8.83741 8.39623 9.05963C8.39623 9.31646 8.41105 9.57329 8.43081 9.82519C7.95666 9.65232 7.44793 9.55354 6.91451 9.55354C4.46475 9.55354 2.46953 11.5489 2.46953 13.9985C2.46953 14.3047 2.49916 14.611 2.56337 14.9122C1.01253 15.6383 0 17.199 0 18.9374C0 21.3872 1.99537 23.3824 4.44498 23.3824C5.32412 23.3824 6.18846 23.1157 6.91451 22.6317V26.3458H0.498646C0.226997 26.3458 0.00474144 26.5681 0.00474144 26.8398C0.00474144 27.1114 0.226997 27.3337 0.498646 27.3337H26.1817C26.4533 27.3337 26.6756 27.1114 26.6756 26.8398C26.6756 26.5681 26.4533 26.3458 26.1817 26.3458L26.1817 26.3515ZM19.267 22.8694V26.3515H13.8339V19.5209C14.9749 21.4126 16.99 22.7062 19.267 22.8694ZM19.7609 10.0525C23.0307 10.0525 25.6878 12.7097 25.6878 15.9793C25.6878 19.249 23.2924 21.6296 20.2547 21.8815V17.9945L22.0031 16.2461C22.1957 16.0534 22.1957 15.7423 22.0031 15.5497C21.8105 15.3571 21.4993 15.3571 21.3067 15.5497L20.2547 16.6017V14.5026C20.2547 14.2309 20.0324 14.0087 19.7608 14.0087C19.4891 14.0087 19.2669 14.2309 19.2669 14.5026V18.4687L18.0222 17.2241C17.8296 17.0314 17.5184 17.0314 17.3258 17.2241C17.1332 17.4167 17.1332 17.7278 17.3258 17.9204L19.2669 19.8615V21.8865C16.664 21.6642 14.4761 19.7281 13.9574 17.1599C16.9998 15.12 17.9035 11.9888 18.1653 10.2749C18.6789 10.1317 19.2123 10.0526 19.7606 10.0526L19.7609 10.0525ZM9.3891 9.06468C9.3891 8.86712 9.43355 4.3134 13.3353 1.74984C14.2342 2.38204 17.2916 4.84663 17.2916 9.06468C17.2916 9.25237 17.2422 13.4161 13.8341 16.0189V15.9793V11.9589L15.7751 10.0178C15.9677 9.82522 15.9677 9.51405 15.7751 9.32145C15.5825 9.12885 15.2713 9.12883 15.0787 9.32145L13.8341 10.5661V6.6C13.8341 6.32835 13.6118 6.10609 13.3402 6.10609C13.0685 6.10609 12.8463 6.32835 12.8463 6.6V8.69908L11.7943 7.64708C11.6016 7.45445 11.2905 7.45445 11.0979 7.64708C10.9053 7.8397 10.9052 8.15087 11.0979 8.34347L12.8463 10.0919V15.9941C12.4265 15.6483 11.8782 15.1396 11.3399 14.4679C11.3547 14.3148 11.3646 14.1617 11.3646 14.0036C11.3646 12.517 10.6287 11.1983 9.50255 10.3932C9.43341 9.95358 9.3891 9.50918 9.3891 9.06468ZM6.60841 21.6394C5.98607 22.1382 5.2403 22.4 4.45005 22.4C2.5436 22.4 0.992563 20.8492 0.992563 18.9425C0.992563 17.4707 1.92603 16.1618 3.31886 15.6779C3.57075 15.589 3.70905 15.3173 3.62508 15.0605C3.51642 14.7147 3.45715 14.3591 3.45715 14.0035C3.45715 12.0971 5.008 10.546 6.91464 10.546C8.82129 10.546 10.3721 12.0969 10.3721 14.0035C10.3721 14.1813 10.3573 14.3591 10.3326 14.5369V14.5517C10.303 14.7246 10.2635 14.8925 10.2091 15.0605C10.1252 15.3173 10.2635 15.589 10.5154 15.6778C11.9082 16.1619 12.8417 17.4707 12.8417 18.9425C12.8417 20.849 11.2908 22.4 9.38418 22.4C8.86065 22.4 8.36179 22.2765 7.90246 22.0543V18.9822L9.65087 17.2337C9.84349 17.0411 9.84349 16.7299 9.65087 16.5373C9.45825 16.3448 9.14707 16.3447 8.95447 16.5373L7.90246 17.5894V15.4903C7.90246 15.2186 7.68021 14.9964 7.40856 14.9964C7.13691 14.9964 6.91465 15.2186 6.91465 15.4903V19.4564L5.67001 18.2117C5.47739 18.0191 5.16622 18.0191 4.97362 18.2117C4.78102 18.4044 4.78099 18.7155 4.97362 18.9081L6.91465 20.8492V21.5307C6.806 21.5307 6.69734 21.5653 6.60349 21.6394L6.60841 21.6394ZM7.90739 23.1211C8.38153 23.2891 8.88037 23.3878 9.3891 23.3878C10.7869 23.3878 12.0315 22.7408 12.8466 21.7283V26.3513H7.90754L7.90739 23.1211Z" fill="currentColor"/>
</svg>
