<svg xmlns="http://www.w3.org/2000/svg" width="20" height="20" viewBox="0 0 20 20" fill="currentColor">
    <rect width="20" height="20" rx="10" />
    <path
        d="M8.24376 7.99535C8.43755 8.02892 8.6471 7.93459 8.76332 7.76682L10.4054 5.19132C10.5555 4.96482 10.4937 4.63552 10.2466 4.49283L7.69791 2.86473C7.53197 2.74937 7.31271 2.75977 7.13227 2.87091C7.06931 2.91287 7.02082 2.96319 6.97844 3.0366C6.91912 3.13935 6.89492 3.28201 6.92522 3.39738L7.19793 4.67058C7.17493 4.67687 7.15194 4.68315 7.12039 4.70413C6.18911 5.24308 5.39344 6.01694 4.84248 6.97123C3.20655 9.80474 4.15792 13.4273 6.96337 15.047C9.76881 16.6668 13.3817 15.6794 15.0177 12.8459C16.6536 10.0124 15.7022 6.3898 12.8968 4.77007C12.577 4.58545 12.1628 4.69867 11.9763 5.02163C11.7898 5.3446 11.8989 5.75997 12.2187 5.94458C14.3845 7.19504 15.1178 9.98697 13.8548 12.1745C12.5918 14.362 9.80734 15.123 7.64147 13.8725C5.47561 12.6221 4.74239 9.83015 6.00536 7.64262C6.37832 6.99663 6.90268 6.45765 7.5155 6.0676L7.84642 7.60936C7.88638 7.80863 8.04996 7.96175 8.24375 7.99533L8.24376 7.99535Z"
        fill="white" />
</svg>