<svg width="40" height="40" viewBox="0 0 40 40" fill="none" xmlns="http://www.w3.org/2000/svg">
<g clip-path="url(#clip0_5203_11972)">
<circle cx="20" cy="20" r="20" fill="black" fill-opacity="0.03"/>
<mask id="mask0_5203_11972" style="mask-type:alpha" maskUnits="userSpaceOnUse" x="8" y="8" width="24" height="24">
<rect x="8" y="8" width="24" height="24" fill="#D9D9D9"/>
</mask>
<g mask="url(#mask0_5203_11972)">
<path fill-rule="evenodd" clip-rule="evenodd" d="M23.5125 29.287C22.4208 29.762 21.25 29.9995 20 29.9995C18.75 29.9995 17.5792 29.762 16.4875 29.287C15.3958 28.812 14.4458 28.1704 13.6375 27.362C12.8292 26.5537 12.1875 25.6037 11.7125 24.512C11.2375 23.4204 11 22.2495 11 20.9995C11 19.7495 11.2375 18.5787 11.7125 17.487C12.1875 16.3954 12.8292 15.4454 13.6375 14.637C14.4458 13.8287 15.3958 13.187 16.4875 12.712C17.5792 12.237 18.75 11.9995 20 11.9995H20.15L19.3 11.1495C19.1 10.9495 19.0042 10.7162 19.0125 10.4495C19.0208 10.1829 19.1167 9.94952 19.3 9.74952C19.5 9.54952 19.7375 9.44536 20.0125 9.43702C20.2875 9.42869 20.525 9.52452 20.725 9.72452L23.3 12.2995C23.5 12.4995 23.6 12.7329 23.6 12.9995C23.6 13.2662 23.5 13.4995 23.3 13.6995L20.725 16.2745C20.525 16.4745 20.2875 16.5704 20.0125 16.562C19.7375 16.5537 19.5 16.4495 19.3 16.2495C19.1167 16.0495 19.0208 15.8162 19.0125 15.5495C19.0042 15.2829 19.1 15.0495 19.3 14.8495L20.15 13.9995H20C18.05 13.9995 16.3958 14.6787 15.0375 16.037C13.6792 17.3954 13 19.0495 13 20.9995C13 22.9495 13.6792 24.6037 15.0375 25.962C15.3919 26.3164 15.7664 26.6245 16.161 26.8865C16.3508 26.6038 16.7161 26.1114 17.0943 25.8816C17.6418 25.5488 18.2719 25.3397 18.9846 25.2544C18.9324 24.896 18.8629 24.5376 18.776 24.1792C18.6891 23.8209 18.5848 23.4881 18.4631 23.1809C18.2719 23.3345 18.0633 23.4539 17.8374 23.5393C17.6114 23.6246 17.368 23.6673 17.1073 23.6673C16.5337 23.6673 16.0427 23.4667 15.6342 23.0657C15.2257 22.6646 15.0215 22.1825 15.0215 21.6193V20.5954C15.0215 20.3053 14.9737 20.0322 14.8781 19.7762C14.7825 19.5202 14.6564 19.2813 14.5 19.0594C15.3691 19.0424 16.1426 19.1192 16.8205 19.2898C17.4115 19.4434 17.9503 19.6951 18.437 20.045C18.9237 20.3949 19.1758 20.9196 19.1932 21.6193C19.1932 21.7729 19.1801 21.9137 19.1541 22.0417C19.128 22.1697 19.0802 22.302 19.0107 22.4385C18.7847 22.2678 18.5587 22.1143 18.3328 21.9777C18.1068 21.8412 17.8721 21.7217 17.6288 21.6193C17.9243 21.8412 18.2632 22.1825 18.6456 22.6433C19.028 23.1041 19.3844 23.6502 19.7146 24.2816C20.0623 23.4454 20.4968 22.622 21.0183 21.8113C21.5398 21.0007 22.1481 20.2541 22.8434 19.5714C22.4436 19.8445 22.0612 20.1346 21.6962 20.4418C21.3312 20.749 20.9748 21.0732 20.6272 21.4145C20.5055 21.2268 20.4099 21.0178 20.3404 20.7874C20.2709 20.557 20.2361 20.3223 20.2361 20.0834C20.2361 19.3666 20.4881 18.7608 20.9922 18.2659C21.4963 17.7709 22.1134 17.5235 22.8434 17.5235H23.8863C24.2861 17.5235 24.6164 17.4723 24.8771 17.3699C25.1378 17.2675 25.3551 17.148 25.5289 17.0115C25.7201 16.8579 25.8679 16.6873 25.9722 16.4995C26.0417 17.643 25.9809 18.6669 25.7897 19.5714C25.6332 20.3394 25.3377 21.0434 24.9032 21.6833C24.4686 22.3233 23.782 22.6433 22.8434 22.6433C22.5827 22.6433 22.335 22.6092 22.1003 22.5409C21.8657 22.4726 21.6527 22.3788 21.4615 22.2593C21.3399 22.5836 21.2008 23.0145 21.0444 23.5521C20.8879 24.0896 20.7662 24.6656 20.6793 25.28C21.3399 25.3995 21.9222 25.6213 22.4262 25.9456C23.036 26.3378 23.4904 27.0975 23.4904 27.0975C23.4904 27.0975 23.4832 27.1036 23.4691 27.115C24.0013 26.8097 24.4991 26.4254 24.9625 25.962C26.3208 24.6037 27 22.9495 27 20.9995C27 20.7162 27.0958 20.4787 27.2875 20.287C27.4792 20.0954 27.7167 19.9995 28 19.9995C28.2833 19.9995 28.5208 20.0954 28.7125 20.287C28.9042 20.4787 29 20.7162 29 20.9995C29 22.2495 28.7625 23.4204 28.2875 24.512C27.8125 25.6037 27.1708 26.5537 26.3625 27.362C25.5542 28.1704 24.6042 28.812 23.5125 29.287Z" fill="#27A9E0"/>
</g>
</g>
<defs>
<clipPath id="clip0_5203_11972">
<rect width="40" height="40" fill="white"/>
</clipPath>
</defs>
</svg>
