<svg width="32" height="32" viewBox="0 0 32 32" xmlns="http://www.w3.org/2000/svg">
<g id="users">
<g id="Group">
<path id="Vector" d="M19.7354 23.8413L18.1058 24.3069C17.9788 24.3492 17.8307 24.3704 17.6825 24.3704C17.2593 24.3704 16.8571 24.1799 16.582 23.8624C16.3069 23.5238 16.1799 23.1005 16.2434 22.6772L16.3704 21.8307H10.4021C10.0212 21.8307 9.72487 21.5344 9.72487 21.1534C9.72487 20.7937 10.0212 20.4762 10.4021 20.4762H16.6878C16.7513 20.4127 16.7937 20.3492 16.8571 20.2645L21.5979 14.8466V8.96296C21.5979 8.34921 21.0899 7.84127 20.455 7.84127H18.7407V7.07937C18.7407 6.46561 18.254 6 17.6614 6C17.0688 6 16.6032 6.46561 16.6032 7.07937V7.84127H14.8889V7.07937C14.8889 6.46561 14.4021 6 13.8095 6C13.2169 6 12.7302 6.46561 12.7302 7.07937V7.84127H11.0159V7.07937C11.0159 6.46561 10.5503 6 9.93651 6C9.34392 6 8.85714 6.46561 8.85714 7.07937V7.84127H7.14286C6.5291 7.84127 6 8.34921 6 8.96296V24.8571C6 25.4709 6.50794 26 7.14286 26H20.4762C21.0899 26 21.619 25.4921 21.619 24.8571V22.0423L20.4339 23.3968C20.2434 23.6085 19.9894 23.7566 19.7354 23.8413ZM10.4021 11.8201H17.1958C17.5767 11.8201 17.873 12.1164 17.873 12.4974C17.873 12.8571 17.5767 13.1746 17.1958 13.1746H10.4021C10.0212 13.1746 9.72487 12.8571 9.72487 12.4974C9.72487 12.1164 10.0423 11.8201 10.4021 11.8201ZM10.4021 16.1587H17.1958C17.5767 16.1587 17.873 16.455 17.873 16.836C17.873 17.1958 17.5767 17.5132 17.1958 17.5132H10.4021C10.0212 17.5132 9.72487 17.1958 9.72487 16.836C9.72487 16.455 10.0423 16.1587 10.4021 16.1587Z" fill="currentColor"/>
<path id="Vector_2" d="M17.323 22.8463C17.2807 23.1214 17.5346 23.3542 17.8309 23.2696L19.4394 22.7828C19.5029 22.7616 19.5664 22.7193 19.6087 22.677L20.0743 22.1479L18.1484 20.4336L17.6828 20.9627C17.6193 21.0262 17.5981 21.0897 17.5981 21.1743L17.323 22.8463Z" fill="currentColor"/>
<path id="Vector_3" d="M18.7188 19.7986L20.6447 21.5129L24.6235 16.9627L22.6976 15.2695L18.7188 19.7986Z" fill="currentColor"/>
<path id="Vector_4" d="M25.9785 14.8673L24.624 13.6821C24.4547 13.534 24.2219 13.5552 24.0738 13.7033L23.2695 14.6134L25.1955 16.3065L25.9997 15.3964C26.1478 15.2483 26.1267 15.0155 25.9785 14.8673Z" fill="currentColor"/>
</g>
</g>
</svg>
