<svg width="32" height="32" viewBox="0 0 32 32" xmlns="http://www.w3.org/2000/svg">
<g id="users">
<path id="Vector" fill-rule="evenodd" clip-rule="evenodd" d="M6 16C6 10.4771 10.4771 6 16 6C21.5228 6 26 10.4771 26 16C26 21.5228 21.5228 26 16 26C10.4771 26 6 21.5228 6 16ZM17 11C17 10.4477 16.5523 10 16 10C15.4477 10 15 10.4477 15 11V14.9627C15 15.1959 14.9999 15.4337 15.0191 15.6396C15.0411 15.8758 15.0929 16.14 15.2367 16.4085C15.3804 16.6771 15.5714 16.8667 15.7558 17.0161C15.9165 17.1463 16.1143 17.2781 16.3084 17.4075L18.4453 18.8321C18.9048 19.1384 19.5257 19.0142 19.8321 18.5547C20.1384 18.0952 20.0142 17.4743 19.5547 17.1679L17.4453 15.7617C17.2121 15.6062 17.0942 15.5264 17.0149 15.4622L17.011 15.459L17.0105 15.4539C17.001 15.3523 17 15.2099 17 14.9296V11Z" fill="currentColor"/>
</g>
</svg>
