<svg width="24" height="24" viewBox="0 0 24 24" xmlns="http://www.w3.org/2000/svg">
<g id="fi:zoom-in">
<g id="Group 5332807">
<path id="Vector" d="M3.9 9.07051V9.07043C3.90058 8.38131 4.17458 7.72058 4.66187 7.23329C5.14915 6.74601 5.80988 6.472 6.499 6.47143L6.49908 6.47143L8.68814 6.47143C8.85355 6.47143 9.01219 6.53714 9.12916 6.6541C9.24612 6.77107 9.31183 6.92971 9.31183 7.09512C9.31183 7.26054 9.24612 7.41918 9.12916 7.53614C9.01219 7.65311 8.85355 7.71882 8.68814 7.71882L6.49923 7.71882C6.4992 7.71882 6.49917 7.71882 6.49915 7.71882C6.14081 7.71936 5.79729 7.86195 5.54391 8.11533C5.29052 8.36872 5.14793 8.71223 5.14739 9.07057C5.14739 9.0706 5.14739 9.07063 5.14739 9.07065V15.2018C5.14739 15.2018 5.14739 15.2019 5.14739 15.2019C5.14793 15.5602 5.29052 15.9037 5.54391 16.1571C5.79728 16.4105 6.14077 16.5531 6.49908 16.5536C6.49913 16.5536 6.49918 16.5536 6.49923 16.5536M3.9 9.07051L6.49908 16.6536L6.49923 16.5536M3.9 9.07051L3.9 15.2061L3.9 15.2064C3.90173 15.8948 4.17625 16.5544 4.6634 17.0407C5.15056 17.5271 5.81063 17.8005 6.499 17.801H6.49908H12.1366M3.9 9.07051L15.306 20.9704M6.49923 16.5536L12.3938 16.5536H12.3944C12.4767 16.5542 12.5581 16.571 12.6339 16.6031L12.5949 16.6951L12.6339 16.6031C12.7095 16.6351 12.7781 16.6818 12.8356 16.7404C12.8358 16.7405 12.8359 16.7406 12.836 16.7408L15.1239 19.0306M6.49923 16.5536L15.1239 19.0306M17.503 17.701H16.3713V17.801M17.503 17.701L6.49908 6.57143C5.83646 6.57198 5.20113 6.83545 4.73258 7.304C4.26403 7.77255 4.00055 8.40788 4 9.07051V15.2061C4.00166 15.868 4.26563 16.5023 4.73405 16.9699C5.20248 17.4376 5.83718 17.7005 6.49908 17.701H12.1781M17.503 17.701C18.1646 17.6999 18.7987 17.4368 19.2667 16.9692M17.503 17.701L19.2667 16.9692M16.3713 17.801H16.2713V20.529M16.3713 17.801L16.3713 20.5288M16.3713 17.801H17.503L17.5032 17.801C18.1912 17.7999 18.8507 17.5262 19.3374 17.0399C19.8241 16.5537 20.0983 15.8944 20.1 15.2064V15.2061V9.07051V9.07043C20.0994 8.38131 19.8254 7.72057 19.3381 7.23329C18.8509 6.74601 18.1901 6.472 17.501 6.47143H17.5009H17.1637C16.9982 6.47143 16.8396 6.53714 16.7226 6.6541C16.6057 6.77107 16.54 6.92971 16.54 7.09512C16.54 7.26054 16.6057 7.41918 16.7226 7.53614C16.8396 7.65311 16.9982 7.71882 17.1637 7.71882L17.5029 7.71882L17.503 7.61882M16.2713 20.529C16.2715 20.6327 16.2408 20.7342 16.1833 20.8204C16.1258 20.9067 16.0439 20.974 15.9481 21.0137C15.8523 21.0534 15.7469 21.0638 15.6452 21.0435C15.5434 21.0232 15.45 20.9732 15.3768 20.8998M16.2713 20.529L16.3713 20.5288M16.2713 20.529L15.306 20.9704M15.3768 20.8998L12.1781 17.701M15.3768 20.8998L15.306 20.9704M15.3768 20.8998L15.3061 20.9705M12.1781 17.701L12.1073 17.7718L12.1366 17.801M12.1781 17.701V17.801H12.1366M12.1366 17.801L15.306 20.9704M15.306 20.9704L15.3061 20.9705M15.306 20.9704L15.3061 20.9705M15.3061 20.9705C15.3933 21.0579 15.5045 21.1174 15.6256 21.1416C15.7467 21.1658 15.8723 21.1534 15.9864 21.1061C16.1005 21.0588 16.198 20.9787 16.2665 20.8759C16.335 20.7732 16.3715 20.6525 16.3713 20.529C16.3713 20.5289 16.3713 20.5289 16.3713 20.5288M16.3713 20.5288L18.8547 9.07065C18.8547 9.07061 18.8547 9.07056 18.8547 9.07051C18.8541 8.71219 18.7116 8.36871 18.4582 8.11533C18.2048 7.86195 17.8613 7.71936 17.5029 7.71882H17.503V7.61882M17.503 7.61882H17.1637C17.0248 7.61882 16.8916 7.56365 16.7933 7.46543C16.6951 7.36722 16.64 7.23402 16.64 7.09512C16.64 6.95623 16.6951 6.82303 16.7933 6.72481C16.8916 6.6266 17.0248 6.57143 17.1637 6.57143H17.5009L17.503 7.61882ZM15.1239 19.0306V17.1773C15.1239 17.0119 15.1896 16.8533 15.3066 16.7363C15.4235 16.6194 15.5822 16.5536 15.7476 16.5536H17.5009C17.859 16.5536 18.2024 16.4118 18.4561 16.1592C18.7098 15.9066 18.8531 15.5639 18.8547 15.2059C18.8547 15.2059 18.8547 15.2058 18.8547 15.2057L15.1239 19.0306ZM19.2667 16.9692C19.7347 16.5016 19.9983 15.8677 20 15.2061L19.2667 16.9692Z" fill="currentColor" stroke="currentColor" stroke-width="0.2"/>
<g id="Group 5332806">
<path id="Vector_2" d="M15.528 4.41129L15.528 4.4113C15.568 5.82433 14.7748 7.13941 13.5073 7.76233C12.9613 8.03081 12.6246 8.56377 12.6246 9.1531V9.67444C12.6246 10.0669 12.3063 10.3853 11.9136 10.3853C11.521 10.3853 11.2028 10.0669 11.2028 9.67444V9.1531C11.2028 8.01629 11.8463 6.99489 12.8798 6.48689M15.528 4.41129L14.1072 4.45158C14.1311 5.30963 13.6495 6.10851 12.8798 6.48689M15.528 4.41129C15.4748 2.54171 13.9132 0.968591 12.0444 0.902633C10.4746 0.842978 9.053 1.8018 8.51528 3.27838L8.51525 3.27844M15.528 4.41129L8.51525 3.27844M12.8798 6.48689L12.9239 6.57663M12.8798 6.48689C12.8798 6.48689 12.8798 6.48689 12.8798 6.48689L12.9239 6.57663M12.9239 6.57663C11.924 7.06814 11.3028 8.05515 11.3028 9.1531V9.67444C11.3028 10.0117 11.5762 10.2852 11.9136 10.2852C12.2511 10.2852 12.5246 10.0117 12.5246 9.67444V9.1531C12.5246 8.52439 12.8841 7.95732 13.4631 7.6726L12.9239 6.57663ZM8.51525 3.27844C8.3811 3.6476 8.5712 4.05531 8.94004 4.18955M8.51525 3.27844L9.85126 3.76515M9.85126 3.76515L9.85125 3.76519C9.71683 4.13396 9.30932 4.32421 8.94004 4.18955M9.85126 3.76515C10.1774 2.86929 11.0401 2.29529 11.9941 2.32334M9.85126 3.76515L11.9941 2.32334M8.94004 4.18955L8.9743 4.0956L8.9401 4.18957C8.94008 4.18957 8.94006 4.18956 8.94004 4.18955ZM11.9941 2.32334C13.1258 2.36339 14.0749 3.3193 14.1072 4.45152L11.9941 2.32334Z" fill="currentColor" stroke="currentColor" stroke-width="0.2"/>
<path id="Vector_3" d="M11.8784 12.9505C12.271 12.9505 12.5892 12.6323 12.5892 12.2397C12.5892 11.8471 12.271 11.5289 11.8784 11.5289C11.4858 11.5289 11.1676 11.8471 11.1676 12.2397C11.1676 12.6323 11.4858 12.9505 11.8784 12.9505Z" fill="currentColor" stroke="currentColor" stroke-width="0.2"/>
</g>
</g>
</g>
</svg>
