<svg width="70" height="67" viewBox="0 0 70 67" fill="none" xmlns="http://www.w3.org/2000/svg">
<path d="M24.3596 33.0895C10.4899 36.3666 0.801343 48.6191 0.801343 62.8853C0.801343 63.5823 1.36689 64.1478 2.06384 64.1478H48.1432C50.2162 65.3595 52.6258 66.055 55.1942 66.055C62.9175 66.055 69.2013 59.77 69.2013 52.0457C69.2013 44.3224 62.9174 38.0385 55.1942 38.0396C53.5151 38.0396 51.9036 38.3367 50.41 38.881C47.2188 36.3498 43.6372 34.5136 39.7552 33.4178C39.3135 33.2929 38.8423 33.4166 38.5192 33.7398L38.6404 33.861L38.5192 33.7398L32.1889 40.0711L25.5431 33.4253C25.2342 33.1164 24.786 32.9871 24.3596 33.0895ZM24.3596 33.0895C24.3597 33.0895 24.3599 33.0895 24.3601 33.0894L24.4061 33.2839L24.3594 33.0896C24.3594 33.0896 24.3595 33.0896 24.3596 33.0895ZM33.0826 42.75L33.0826 42.75L39.774 36.0565C42.6431 36.9482 45.3268 38.2891 47.7813 40.0577C43.6165 42.5675 41.0191 47.0789 41.0191 52.0467C41.0191 55.6722 42.3926 59.062 44.8094 61.6228H3.3537C3.89499 49.3087 12.3067 38.848 24.2638 35.7154L31.2973 42.75L31.4186 42.6288L31.2974 42.75C31.7739 43.2265 32.606 43.2265 33.0826 42.75ZM43.7109 52.0457C43.7109 45.7153 48.8627 40.5635 55.1942 40.5635C61.5246 40.5635 66.6763 45.7153 66.6763 52.0457C66.6763 58.3783 61.5246 63.53 55.1942 63.5289C48.8627 63.5289 43.7109 58.3772 43.7109 52.0457ZM53.9317 60.126C53.9317 60.8228 54.496 61.3885 55.1942 61.3885L56.2556 60.126H56.4556V60.1256V53.3092H63.2723C63.9705 53.3092 64.5348 52.7436 64.5348 52.0467C64.5348 51.3499 63.9705 50.7842 63.2723 50.7842H56.4556V43.9675C56.4556 43.2707 55.8912 42.705 55.1931 42.705C54.4949 42.705 53.9306 43.2707 53.9306 43.9675V50.7842H47.1138C46.4157 50.7842 45.8513 51.3499 45.8513 52.0467C45.8513 52.7436 46.4157 53.3092 47.1138 53.3092H53.9317V60.126ZM16.7442 15.4797C16.7442 23.5749 23.3287 30.1606 31.4239 30.1606C39.519 30.1606 46.1047 23.576 46.1037 15.4797C46.1037 7.38461 39.5191 0.8 31.4239 0.8C23.3298 0.8 16.7442 7.3846 16.7442 15.4797ZM19.2692 15.4797C19.2692 8.77746 24.7216 3.325 31.4239 3.325C38.1262 3.325 43.5797 8.77853 43.5787 15.4797C43.5787 22.1821 38.1262 27.6356 31.4239 27.6356C24.7216 27.6356 19.2692 22.1821 19.2692 15.4797Z" fill="#353535" stroke="#353535" stroke-width="0.4"/>
</svg>
