<svg width="16" height="16" viewBox="0 0 16 16" fill="none" xmlns="http://www.w3.org/2000/svg">
<path fill-rule="evenodd" clip-rule="evenodd" d="M8 16C3.58 16 0 12.42 0 8C0 3.58 3.58 0 8 0C12.42 0 16 3.58 16 8C16 12.42 12.42 16 8 16Z" fill="#009344"/>
<path d="M11.2657 5.2089C11.5499 4.93037 11.9998 4.93037 12.2838 5.2089C12.568 5.48745 12.568 5.95182 12.3075 6.23036L7.26449 11.2911C6.98032 11.5696 6.53046 11.5696 6.24639 11.2911L3.71305 8.73751C3.42898 8.45888 3.42898 7.99459 3.71305 7.71606C3.99723 7.43753 4.44709 7.43753 4.73116 7.71606L6.74362 9.75893L11.2657 5.2089Z" fill="white"/>
</svg>
