<svg width="16" height="16" viewBox="0 0 16 16" fill="none" xmlns="http://www.w3.org/2000/svg">
<path d="M8 0C5.87825 0 3.8435 0.84285 2.34316 2.34316C0.842819 3.84347 0 5.87825 0 8C0 10.1218 0.84285 12.1565 2.34316 13.6568C3.84347 15.1572 5.87825 16 8 16C10.1218 16 12.1565 15.1572 13.6568 13.6568C15.1572 12.1565 16 10.1218 16 8C16 5.87825 15.1572 3.8435 13.6568 2.34316C12.1565 0.842819 10.1218 0 8 0Z" fill="#D50000"/>
<path d="M8 8.94826L5.13707 11.8112C5.0112 11.9371 4.85315 12 4.66294 12C4.47273 12 4.31469 11.9371 4.18881 11.8112C4.06294 11.6853 4 11.5273 4 11.3371C4 11.1468 4.06294 10.9888 4.18881 10.8629L7.05174 8L4.18881 5.13707C4.06294 5.0112 4 4.85315 4 4.66294C4 4.47273 4.06294 4.31469 4.18881 4.18881C4.31469 4.06294 4.47273 4 4.66294 4C4.85315 4 5.0112 4.06294 5.13707 4.18881L8 7.05174L10.8629 4.18881C10.9888 4.06294 11.1468 4 11.3371 4C11.5273 4 11.6853 4.06294 11.8112 4.18881C11.9371 4.31469 12 4.47273 12 4.66294C12 4.85315 11.9371 5.0112 11.8112 5.13707L8.94826 8L11.8112 10.8629C11.9371 10.9888 12 11.1468 12 11.3371C12 11.5273 11.9371 11.6853 11.8112 11.8112C11.6853 11.9371 11.5273 12 11.3371 12C11.1468 12 10.9888 11.9371 10.8629 11.8112L8 8.94826Z" fill="white"/>
</svg>
