<svg width="14" height="14" viewBox="0 0 14 14" fill="none" xmlns="http://www.w3.org/2000/svg">
<path d="M9 1L9 13M5 1L5 13M13 4.2L13 9.8C13 10.9201 13 11.4801 12.782 11.908C12.5903 12.2843 12.2843 12.5903 11.908 12.782C11.4802 13 10.9201 13 9.8 13L4.2 13C3.07987 13 2.51987 13 2.092 12.782C1.71567 12.5903 1.40973 12.2843 1.218 11.908C0.999999 11.4801 0.999999 10.9201 0.999999 9.8L1 4.2C1 3.07989 0.999999 2.51984 1.218 2.09202C1.40973 1.71569 1.71567 1.40973 2.092 1.21799C2.51987 1 3.07987 1 4.2 1L9.8 1C10.9201 1 11.4802 1 11.908 1.21799C12.2843 1.40973 12.5903 1.71569 12.782 2.09202C13 2.51984 13 3.07989 13 4.2Z" stroke="currentColor" stroke-width="1.5" stroke-linecap="round" stroke-linejoin="round"/>
</svg>
