<svg xmlns="http://www.w3.org/2000/svg" width="20" height="21" viewBox="0 0 20 21" fill="currentColor">
    <path
        d="M17.7211 16.4544L12.8987 11.631C13.6404 10.6571 14.0578 9.405 14.0578 8.05981C14.0578 4.72075 11.3683 2.03125 8.0292 2.03125C4.69014 2.03125 1.99976 4.72164 1.99976 8.0607C1.99976 11.3998 4.68925 14.0893 8.02831 14.0893C9.37351 14.0893 10.5787 13.6719 11.5995 12.9302L16.4229 17.7535C16.6081 17.9387 16.8403 18.0318 17.0725 18.0318C17.3047 18.0318 17.5359 17.9387 17.722 17.7535C18.0925 17.3822 18.0925 16.8257 17.7211 16.4544ZM8.0292 12.2345C5.71012 12.2345 3.85538 10.3798 3.85538 8.0607C3.85538 5.74161 5.71012 3.88688 8.0292 3.88688C10.3483 3.88688 12.203 5.74161 12.203 8.0607C12.203 10.3789 10.3474 12.2345 8.0292 12.2345Z" />
</svg>