<svg width="45" height="46" viewBox="0 0 45 46" fill="none" xmlns="http://www.w3.org/2000/svg">
<mask id="mask0_4330_4545" style="mask-type:alpha" maskUnits="userSpaceOnUse" x="0" y="0" width="45" height="46">
<rect y="0.499023" width="45" height="45" fill="#D9D9D9"/>
</mask>
<g mask="url(#mask0_4330_4545)">
<path d="M20.0543 39.874C13.5326 39.874 8.52199 39.874 8.52199 39.874C8.52199 39.874 10.1495 37.0615 11.8614 36.0017C13.5734 34.942 15.5435 34.2762 17.7717 34.0045C17.6087 32.8632 17.3913 31.7218 17.1196 30.5805C16.8478 29.4392 16.5217 28.3795 16.1413 27.4012C15.5435 27.8903 14.8913 28.2708 14.1848 28.5425C13.4783 28.8142 12.7174 28.9501 11.9022 28.9501C10.1087 28.9501 8.57337 28.3115 7.2962 27.0343C6.01902 25.7572 5.38043 24.2218 5.38043 22.4284V19.1675C5.38043 18.2436 5.23098 17.374 4.93207 16.5588C4.63315 15.7436 4.23913 14.9827 3.75 14.2762C6.46739 14.2218 8.88587 14.4664 11.0054 15.0099C12.8533 15.499 14.538 16.3007 16.0598 17.4148C17.5815 18.5289 18.3696 20.2001 18.4239 22.4284C18.4239 22.9175 18.3832 23.3659 18.3016 23.7735C18.2201 24.1811 18.0706 24.6023 17.8533 25.0371C17.1467 24.4936 16.4402 24.0045 15.7337 23.5697C15.0272 23.1349 14.2935 22.7545 13.5326 22.4284C14.4565 23.1349 15.5163 24.2218 16.712 25.6892C17.9076 27.1566 19.0217 28.8958 20.0543 30.9066C21.1413 28.2436 22.5 25.6213 24.1304 23.0398C25.7609 20.4583 27.663 18.0805 29.837 15.9066C28.587 16.7762 27.3913 17.7001 26.25 18.6784C25.1087 19.6566 23.9946 20.6892 22.9076 21.7762C22.5272 21.1784 22.2283 20.5126 22.0109 19.7789C21.7935 19.0452 21.6848 18.2979 21.6848 17.5371C21.6848 15.2545 22.4728 13.3251 24.0489 11.749C25.625 10.1729 27.5543 9.38489 29.837 9.38489H33.0978C34.3478 9.38489 35.3804 9.22185 36.1956 8.89576C37.0109 8.56968 37.6902 8.18924 38.2337 7.75446C38.8315 7.26533 39.2935 6.72185 39.6196 6.12402C39.837 9.76533 39.6467 13.0262 39.0489 15.9066C38.5598 18.3523 37.6359 20.5941 36.2772 22.6322C34.9185 24.6702 32.7717 25.6892 29.837 25.6892C29.0217 25.6892 28.2473 25.5805 27.5136 25.3632C26.7799 25.1458 26.1141 24.8468 25.5163 24.4664C25.1359 25.499 24.7011 26.8713 24.212 28.5833C23.7228 30.2952 23.3424 32.1295 23.0707 34.086C25.1359 34.4664 26.9565 35.1729 28.5326 36.2055C30.4391 37.4547 31.86 39.874 31.86 39.874C31.86 39.874 26.5761 39.874 20.0543 39.874Z" fill="currentColor"/>
</g>
</svg>
