<svg width="25" height="24" viewBox="0 0 25 24" fill="none" xmlns="http://www.w3.org/2000/svg">
  <path
    d="M20.8927 8.03168L19.1457 6.51461C17.8871 5.42153 17.3937 4.83352 16.7121 5.04139C15.8622 5.30059 16.142 6.93609 16.142 7.48824C14.8206 7.48824 13.4468 7.38661 12.1443 7.59836C7.84453 8.29742 6.5 11.3566 6.5 14.6525C7.71697 13.9065 8.93274 13.0746 10.3954 12.7289C12.2212 12.2973 14.2603 12.5032 16.142 12.5032C16.142 13.0554 15.8622 14.6909 16.7121 14.9501C17.4844 15.1856 17.8871 14.5699 19.1457 13.4769L20.8927 11.9598C21.9642 11.0293 22.5 10.564 22.5 9.99574C22.5 9.4275 21.9642 8.96223 20.8927 8.03168Z"
    stroke="currentColor" stroke-width="1.5" stroke-linecap="round" stroke-linejoin="round" />
  <path
    d="M11.0676 3C7.20735 3.00694 5.18594 3.10152 3.89411 4.39073C2.5 5.78202 2.5 8.02125 2.5 12.4997C2.5 16.9782 2.5 19.2174 3.8941 20.6087C5.28821 22 7.53198 22 12.0195 22C16.5071 22 18.7509 22 20.145 20.6087C21.1156 19.64 21.4104 18.2603 21.5 16"
    stroke="currentColor" stroke-width="1.5" stroke-linecap="round" stroke-linejoin="round" />
</svg>