<svg width="59" height="58" viewBox="0 0 59 58" fill="none" xmlns="http://www.w3.org/2000/svg">
    <circle cx="29.5" cy="29" r="29" fill="#009344" />
    <path
        d="M19.4143 31.5087L19.4752 31.5962C19.5479 31.7062 19.6246 31.8124 19.7012 31.9303L28.3881 44.4181C28.513 44.5977 28.6795 44.7444 28.8734 44.8457C29.0673 44.9471 29.2829 45 29.5017 45C29.7204 45 29.936 44.9471 30.1299 44.8457C30.3238 44.7444 30.4903 44.5977 30.6152 44.4181L39.2814 31.9391C39.365 31.8232 39.4446 31.7092 39.5242 31.605L39.5782 31.5264C41.1471 29.0971 41.7871 26.1835 41.3808 23.3204C40.9744 20.4573 39.5489 17.8368 37.366 15.94C35.1839 14.0441 32.3904 13 29.4997 13C26.6089 13 23.8155 14.0441 21.6334 15.94C19.4506 17.8369 18.0253 20.4575 17.6191 23.3206C17.2129 26.1837 17.8531 29.0972 19.4221 31.5264L19.4143 31.5087ZM29.5017 20.0115C30.828 20.0123 32.0998 20.5398 33.0373 21.478C33.9749 22.4163 34.5014 23.6884 34.5011 25.0147C34.5014 26.341 33.9749 27.6132 33.0373 28.5514C32.0998 29.4896 30.828 30.0171 29.5017 30.0179C28.1753 30.0174 26.9034 29.4901 25.9657 28.5521C25.028 27.614 24.5012 26.342 24.5012 25.0157C24.5009 24.3588 24.6301 23.7083 24.8812 23.1013C25.1324 22.4943 25.5006 21.9427 25.965 21.478C26.4293 21.0134 26.9806 20.6447 27.5875 20.3931C28.1943 20.1414 28.8447 20.0118 29.5017 20.0115Z"
        fill="white" />
</svg>