<svg width="32" height="32" viewBox="0 0 32 32" xmlns="http://www.w3.org/2000/svg">
<g id="users">
<path id="Vector" fill-rule="evenodd" clip-rule="evenodd" d="M16 6C10.4807 6 6 10.4807 6 16C6 21.5193 10.4807 26 16 26C21.5193 26 26 21.5193 26 16C26 10.4807 21.5193 6 16 6ZM14.5571 7.55286C13.9221 8.54071 13.395 9.52357 12.9729 10.5007C12.165 10.2364 11.3579 9.86357 10.5536 9.38429C11.6829 8.45357 13.0536 7.80786 14.5571 7.55286ZM17.4429 7.55286C18.9379 7.80643 20.3014 8.44714 21.4271 9.36929C20.6221 9.84357 19.8193 10.2143 19.0179 10.4793C18.5964 9.50929 18.0736 8.53357 17.4429 7.55286ZM16 7.95714C16.6479 8.92286 17.1857 9.88286 17.6157 10.8364C16.5336 11.0314 15.455 11.0364 14.3786 10.8507C14.8093 9.89286 15.3493 8.92786 16 7.95714ZM22.4829 10.4C23.6364 11.7343 24.3857 13.425 24.5393 15.2857H20.2464C20.1614 14.14 19.9264 12.9857 19.5364 11.8229C20.5164 11.4871 21.4986 11.0129 22.4829 10.4ZM9.50143 10.4171C10.4843 11.035 11.4686 11.5107 12.455 11.8457C12.0693 13 11.8379 14.1471 11.7536 15.2857H7.46071C7.61357 13.4329 8.35643 11.7479 9.50143 10.4171ZM18.1579 12.2057C18.5107 13.2393 18.7307 14.265 18.815 15.2857H13.185C13.2693 14.2714 13.4871 13.2507 13.8364 12.2236C15.2721 12.5179 16.7129 12.5114 18.1579 12.2057ZM7.46071 16.7143H11.7243C11.7679 17.8821 11.9743 19.0421 12.3421 20.1936C11.3929 20.5264 10.4464 20.9886 9.50143 21.5829C8.35643 20.2521 7.61357 18.5671 7.46071 16.7143ZM13.1543 16.7143H18.8457C18.8021 17.7579 18.6129 18.7929 18.2779 19.8214C16.7529 19.4807 15.2314 19.475 13.7164 19.8029C13.3857 18.7807 13.1971 17.7521 13.1543 16.7143ZM20.2757 16.7143H24.5393C24.3857 18.575 23.6364 20.2657 22.4829 21.6C21.5371 21.0114 20.5929 20.5507 19.6507 20.2171C20.0236 19.0579 20.2321 17.89 20.2757 16.7143ZM15.9721 21.0114C16.5629 21.0121 17.1543 21.0729 17.7464 21.1886C17.2993 22.1721 16.7179 23.1493 16 24.1193C15.2786 23.1443 14.6943 22.1621 14.2464 21.1729C14.8207 21.0657 15.3957 21.01 15.9721 21.0114ZM12.8486 21.5414C13.2693 22.5114 13.81 23.475 14.4707 24.4321C13.0014 24.1664 11.6607 23.5286 10.5536 22.6157C11.3171 22.1607 12.0821 21.8021 12.8486 21.5414ZM19.1429 21.5636C19.9029 21.8257 20.6643 22.1814 21.4271 22.6307C20.3236 23.5357 18.9907 24.1679 17.5293 24.4321C18.185 23.4821 18.7236 22.5264 19.1429 21.5636Z" fill="currentColor"/>
</g>
</svg>
