<svg width="20" height="17" viewBox="0 0 20 17" fill="none" xmlns="http://www.w3.org/2000/svg">
<path d="M9.99333 2.37805e-06C9.63166 2.37805e-06 9.26833 0.0716691 8.92666 0.214169L1.4825 3.2925C1.06333 3.46583 1.07417 4.04917 1.4925 4.2225L8.97749 7.1875C9.63324 7.45333 10.3667 7.45333 11.0225 7.1875L18.5075 4.2225C18.9267 4.05917 18.9267 3.46583 18.5175 3.2925L11.0533 0.214169C10.7179 0.0723564 10.3575 -0.000479761 9.99333 2.37805e-06ZM19.5 5.075C19.4365 5.07541 19.3736 5.08815 19.315 5.1125L10.9717 8.34333C10.8783 8.38157 10.7984 8.44664 10.742 8.5303C10.6857 8.61396 10.6554 8.71245 10.655 8.81333V16.2267C10.6558 16.3078 10.6763 16.3876 10.7148 16.459C10.7533 16.5305 10.8086 16.5915 10.876 16.6368C10.9433 16.682 11.0207 16.7102 11.1014 16.7189C11.1821 16.7276 11.2637 16.7166 11.3392 16.6867L19.6833 13.445C19.7769 13.4102 19.8575 13.3475 19.9141 13.2654C19.9708 13.1832 20.0008 13.0856 20 12.9858V5.5725C19.9991 5.44047 19.946 5.31415 19.8524 5.2211C19.7587 5.12805 19.632 5.07583 19.5 5.07583V5.075ZM0.563333 5.1075C0.489344 5.10487 0.415612 5.11758 0.346774 5.14483C0.277935 5.17208 0.215479 5.21328 0.163333 5.26583C0.0716666 5.35833 0 5.47 0 5.60333V12.5658C0 12.9342 0.429166 13.18 0.756666 13.0158L5.98166 10.5108L6.2375 10.3883L8.71166 9.19166C9.09999 9.00833 9.06999 8.435 8.66083 8.28166L0.735833 5.14333C0.681126 5.12045 0.622618 5.10801 0.563333 5.10667V5.1075Z" fill="currentColor
"/>
</svg>
