<svg width="40" height="40" viewBox="0 0 40 40" fill="none" xmlns="http://www.w3.org/2000/svg">
<g clip-path="url(#clip0_4666_5676)">
<circle cx="20" cy="20" r="20" fill="black" fill-opacity="0.03"/>
<mask id="mask0_4666_5676" style="mask-type:alpha" maskUnits="userSpaceOnUse" x="8" y="8" width="24" height="24">
<rect x="8" y="8" width="24" height="24" fill="#D9D9D9"/>
</mask>
<g mask="url(#mask0_4666_5676)">
<path d="M18.7 20.725L17.85 19.45C17.7667 19.3167 17.65 19.2083 17.5 19.125C17.35 19.0417 17.1917 19 17.025 19H10.475C10.2917 18.5667 10.1667 18.15 10.1 17.75C10.0333 17.35 10 16.9333 10 16.5C10 14.9333 10.525 13.625 11.575 12.575C12.625 11.525 13.9333 11 15.5 11C16.3667 11 17.1917 11.1833 17.975 11.55C18.7583 11.9167 19.4333 12.4333 20 13.1C20.5667 12.4333 21.2417 11.9167 22.025 11.55C22.8083 11.1833 23.6333 11 24.5 11C26.0667 11 27.375 11.525 28.425 12.575C29.475 13.625 30 14.9333 30 16.5C30 16.9333 29.9667 17.35 29.9 17.75C29.8333 18.15 29.7083 18.5667 29.525 19H23.575L21.85 16.45C21.75 16.3 21.6208 16.1875 21.4625 16.1125C21.3042 16.0375 21.1333 16 20.95 16C20.7333 16 20.5458 16.0625 20.3875 16.1875C20.2292 16.3125 20.1167 16.475 20.05 16.675L18.7 20.725ZM20 29.35L18.55 28.05C16.8 26.4833 15.3667 25.1417 14.25 24.025C13.1333 22.9083 12.2583 21.9 11.625 21H16.425L18.15 23.55C18.25 23.7 18.3792 23.8125 18.5375 23.8875C18.6958 23.9625 18.8667 24 19.05 24C19.2667 24 19.4542 23.9375 19.6125 23.8125C19.7708 23.6875 19.8833 23.525 19.95 23.325L21.3 19.25L22.175 20.55C22.2583 20.6833 22.375 20.7917 22.525 20.875C22.675 20.9583 22.8333 21 23 21H28.375C27.7417 21.9 26.8667 22.9083 25.75 24.025C24.6333 25.1417 23.2 26.4833 21.45 28.05L20 29.35Z" fill="#27A9E0"/>
</g>
</g>
<defs>
<clipPath id="clip0_4666_5676">
<rect width="40" height="40" fill="white" transform="translate(0 -0.000976562)"/>
</clipPath>
</defs>
</svg>
