<svg width="14" height="15" viewBox="0 0 14 15" fill="none" xmlns="http://www.w3.org/2000/svg">
<path d="M1 5.5H13M1 9.5H13M7 1.5V13.5M4.2 1.5H9.8C10.9201 1.5 11.4801 1.5 11.908 1.71799C12.2843 1.90973 12.5903 2.21569 12.782 2.59202C13 3.01984 13 3.57989 13 4.7V10.3C13 11.4201 13 11.9801 12.782 12.408C12.5903 12.7843 12.2843 13.0903 11.908 13.282C11.4801 13.5 10.9201 13.5 9.8 13.5H4.2C3.07989 13.5 2.51984 13.5 2.09202 13.282C1.71569 13.0903 1.40973 12.7843 1.21799 12.408C1 11.9801 1 11.4201 1 10.3V4.7C1 3.57989 1 3.01984 1.21799 2.59202C1.40973 2.21569 1.71569 1.90973 2.09202 1.71799C2.51984 1.5 3.07989 1.5 4.2 1.5Z" stroke="#0E121B" stroke-width="1.5" stroke-linecap="round" stroke-linejoin="round"/>
</svg>
