<svg width="32" height="32" viewBox="0 0 32 32" fill="currentColor" xmlns="http://www.w3.org/2000/svg">
    <circle cx="16.0002" cy="16" r="16" />
    <path
        d="M11.625 24C11.1437 24 10.7318 23.8259 10.3891 23.4778C10.0464 23.1296 9.875 22.7111 9.875 22.2222V10.6667C9.62708 10.6667 9.41927 10.5815 9.25156 10.4111C9.08385 10.2407 9 10.0296 9 9.77778C9 9.52593 9.08385 9.31481 9.25156 9.14444C9.41927 8.97407 9.62708 8.88889 9.875 8.88889H13.375C13.375 8.63704 13.4589 8.42593 13.6266 8.25556C13.7943 8.08519 14.0021 8 14.25 8H17.75C17.9979 8 18.2057 8.08519 18.3734 8.25556C18.5411 8.42593 18.625 8.63704 18.625 8.88889H22.125C22.3729 8.88889 22.5807 8.97407 22.7484 9.14444C22.9161 9.31481 23 9.52593 23 9.77778C23 10.0296 22.9161 10.2407 22.7484 10.4111C22.5807 10.5815 22.3729 10.6667 22.125 10.6667V22.2222C22.125 22.7111 21.9536 23.1296 21.6109 23.4778C21.2682 23.8259 20.8562 24 20.375 24H11.625ZM11.625 10.6667V22.2222H20.375V10.6667H11.625ZM13.375 19.5556C13.375 19.8074 13.4589 20.0185 13.6266 20.1889C13.7943 20.3593 14.0021 20.4444 14.25 20.4444C14.4979 20.4444 14.7057 20.3593 14.8734 20.1889C15.0411 20.0185 15.125 19.8074 15.125 19.5556V13.3333C15.125 13.0815 15.0411 12.8704 14.8734 12.7C14.7057 12.5296 14.4979 12.4444 14.25 12.4444C14.0021 12.4444 13.7943 12.5296 13.6266 12.7C13.4589 12.8704 13.375 13.0815 13.375 13.3333V19.5556ZM16.875 19.5556C16.875 19.8074 16.9589 20.0185 17.1266 20.1889C17.2943 20.3593 17.5021 20.4444 17.75 20.4444C17.9979 20.4444 18.2057 20.3593 18.3734 20.1889C18.5411 20.0185 18.625 19.8074 18.625 19.5556V13.3333C18.625 13.0815 18.5411 12.8704 18.3734 12.7C18.2057 12.5296 17.9979 12.4444 17.75 12.4444C17.5021 12.4444 17.2943 12.5296 17.1266 12.7C16.9589 12.8704 16.875 13.0815 16.875 13.3333V19.5556Z"
        fill="white" />
</svg>