<svg width="15" height="16" viewBox="0 0 15 16" fill="none" xmlns="http://www.w3.org/2000/svg">
<path d="M3.5822 16C2.68847 16 2.14351 15.4986 2.10718 14.5976L1.64214 3.98183H0.544959C0.254314 3.98183 0 3.73479 0 3.42961C0 3.1317 0.254314 2.88465 0.544959 2.88465H3.77112V1.77293C3.77112 0.675749 4.49046 0 5.65304 0H8.4069C9.56948 0 10.2888 0.675749 10.2888 1.77293V2.88465H13.5295C13.8274 2.88465 14.0745 3.1317 14.0745 3.42961C14.0745 3.72752 13.8274 3.98183 13.5295 3.98183H12.4396L11.9746 14.5976C11.9382 15.4986 11.3933 16 10.4923 16H3.5822ZM5.08629 1.84559V2.88465H8.98093V1.84559C8.98093 1.48229 8.72661 1.23524 8.33424 1.23524H5.73297C5.3406 1.23524 5.08629 1.48229 5.08629 1.84559ZM4.73751 13.9219C5.01362 13.9219 5.19528 13.7475 5.18801 13.4932L4.97003 5.57312C4.96276 5.3188 4.77384 5.15168 4.51953 5.15168C4.23615 5.15168 4.0545 5.32607 4.06176 5.58038L4.28701 13.4932C4.29428 13.7548 4.47593 13.9219 4.73751 13.9219ZM7.04087 13.9219C7.31698 13.9219 7.5059 13.7475 7.5059 13.4932V5.58038C7.5059 5.32607 7.31698 5.15168 7.04087 5.15168C6.76476 5.15168 6.56857 5.32607 6.56857 5.58038V13.4932C6.56857 13.7475 6.76476 13.9219 7.04087 13.9219ZM9.33697 13.9219C9.59855 13.9219 9.7802 13.7548 9.78747 13.4932L10.0127 5.58038C10.02 5.32607 9.83106 5.15168 9.55495 5.15168C9.30064 5.15168 9.11172 5.3188 9.10445 5.58038L8.88647 13.4932C8.8792 13.7475 9.06085 13.9219 9.33697 13.9219Z" fill="#3D3B3B"/>
</svg>
