<svg width="24" height="24" viewBox="0 0 24 24" fill="none" xmlns="http://www.w3.org/2000/svg">
<g id="Frame 5332530">
<g id="Group">
<path id="Vector" d="M10.416 5.55718V5.55705C10.416 5.28691 10.6364 5.06644 10.9066 5.06644H13.5353C13.8054 5.06644 14.0259 5.28691 14.0259 5.55705V5.86456H10.4156L10.416 5.55718ZM18.3754 8.63941V8.63946C18.3754 8.9096 18.155 9.13007 17.8848 9.13007H6.55705C6.28691 9.13007 6.06644 8.9096 6.06644 8.63946V7.52161C6.06644 7.25147 6.28691 7.03101 6.55705 7.03101H17.8854C18.1555 7.03101 18.3759 7.25144 18.376 7.52156C18.376 7.52158 18.376 7.52159 18.376 7.52161L18.3754 8.63941ZM17.8848 5.86456H15.1923V5.55705C15.1923 4.6433 14.4491 3.9 13.5353 3.9H10.9066C9.99283 3.9 9.24953 4.6433 9.24953 5.55705V5.86456H6.55705C5.6433 5.86456 4.9 6.60786 4.9 7.52161V8.63946C4.9 9.44732 5.4825 10.1143 6.24711 10.26V17.3691C6.24711 18.8751 7.47202 20.1 8.97799 20.1H15.4639C16.9699 20.1 18.1948 18.8751 18.1948 17.3691V10.26C18.9594 10.1143 19.5419 9.44732 19.5419 8.63946V7.52161C19.5419 6.60786 18.7986 5.86456 17.8848 5.86456ZM15.4639 18.9336H8.97799C8.11563 18.9336 7.41356 18.2315 7.41356 17.3691V10.2965H17.0283V17.3691C17.0283 18.2315 16.3268 18.9336 15.4639 18.9336Z" fill="currentColor" stroke="currentColor" stroke-width="0.2"/>
<path id="Vector_2" d="M10.4637 11.5836C10.1416 11.5836 9.88047 11.8447 9.88047 12.1668V17.064C9.88047 17.3861 10.1416 17.6472 10.4637 17.6472C10.7858 17.6472 11.0469 17.3861 11.0469 17.064V12.1668C11.0469 11.8447 10.7858 11.5836 10.4637 11.5836Z" fill="currentColor" stroke="currentColor" stroke-width="0.2"/>
<path id="Vector_3" d="M13.9793 11.5836C13.6572 11.5836 13.3961 11.8447 13.3961 12.1668V17.064C13.3961 17.3861 13.6572 17.6472 13.9793 17.6472C14.3014 17.6472 14.5625 17.3861 14.5625 17.064V12.1668C14.5625 11.8447 14.3014 11.5836 13.9793 11.5836Z" fill="currentColor" stroke="currentColor" stroke-width="0.2"/>
</g>
</g>
</svg>
