<svg width="16" height="18" viewBox="0 0 16 18" fill="none" xmlns="http://www.w3.org/2000/svg">
<path d="M6.41597 2.55718V2.55705C6.41597 2.28691 6.63644 2.06644 6.90658 2.06644H9.5353C9.80544 2.06644 10.0259 2.28691 10.0259 2.55705V2.86456H6.41557L6.41597 2.55718ZM14.3754 5.63941V5.63946C14.3754 5.9096 14.155 6.13007 13.8848 6.13007H2.55705C2.28691 6.13007 2.06644 5.9096 2.06644 5.63946V4.52161C2.06644 4.25147 2.28691 4.03101 2.55705 4.03101H13.8854C14.1555 4.03101 14.3759 4.25144 14.376 4.52156C14.376 4.52158 14.376 4.52159 14.376 4.52161L14.3754 5.63941ZM13.8848 2.86456H11.1923V2.55705C11.1923 1.6433 10.4491 0.9 9.5353 0.9H6.90658C5.99283 0.9 5.24953 1.6433 5.24953 2.55705V2.86456H2.55705C1.6433 2.86456 0.9 3.60786 0.9 4.52161V5.63946C0.9 6.44732 1.4825 7.11427 2.24711 7.25998V14.3691C2.24711 15.8751 3.47202 17.1 4.97799 17.1H11.4639C12.9699 17.1 14.1948 15.8751 14.1948 14.3691V7.25998C14.9594 7.11427 15.5419 6.44732 15.5419 5.63946V4.52161C15.5419 3.60786 14.7986 2.86456 13.8848 2.86456ZM11.4639 15.9336H4.97799C4.11563 15.9336 3.41356 15.2315 3.41356 14.3691V7.29651H13.0283V14.3691C13.0283 15.2315 12.3268 15.9336 11.4639 15.9336Z" fill="currentColor" stroke="currentColor" stroke-width="0.2"/>
<path d="M6.46369 8.58359C6.14162 8.58359 5.88047 8.84474 5.88047 9.16682V14.064C5.88047 14.3861 6.14162 14.6472 6.46369 14.6472C6.78576 14.6472 7.04691 14.3861 7.04691 14.064V9.16682C7.04691 8.84474 6.78576 8.58359 6.46369 8.58359Z" fill="currentColor" stroke="currentColor" stroke-width="0.2"/>
<path d="M9.97932 8.58359C9.65724 8.58359 9.39609 8.84474 9.39609 9.16682V14.064C9.39609 14.3861 9.65724 14.6472 9.97932 14.6472C10.3014 14.6472 10.5625 14.3861 10.5625 14.064V9.16682C10.5625 8.84474 10.3014 8.58359 9.97932 8.58359Z" fill="currentColor" stroke="currentColor" stroke-width="0.2"/>
</svg>
