<svg width="24" height="25" viewBox="0 0 24 25" fill="none" xmlns="http://www.w3.org/2000/svg">
<mask id="mask0_5142_8207" style="mask-type:alpha" maskUnits="userSpaceOnUse" x="-1" y="0" width="25" height="25">
<rect x="-0.34375" y="0.25" width="24" height="24" fill="#D9D9D9"/>
</mask>
<g mask="url(#mask0_5142_8207)">
<path d="M6.65625 21.25C6.10625 21.25 5.63542 21.0542 5.24375 20.6625C4.85208 20.2708 4.65625 19.8 4.65625 19.25V6.25H3.65625V4.25H8.65625V3.25H14.6562V4.25H19.6562V6.25H18.6562V19.25C18.6562 19.8 18.4604 20.2708 18.0688 20.6625C17.6771 21.0542 17.2063 21.25 16.6562 21.25H6.65625ZM16.6562 6.25H6.65625V19.25H16.6562V6.25ZM8.65625 17.25H10.6562V8.25H8.65625V17.25ZM12.6562 17.25H14.6562V8.25H12.6562V17.25Z" fill="currentColor"/>
</g>
</svg>
