<svg width="32" height="32" viewBox="0 0 32 32" fill="none" xmlns="http://www.w3.org/2000/svg">
<g clip-path="url(#clip0_4253_180358)">
<circle cx="16" cy="16" r="16" fill="#FF6464"/>
<path d="M14.416 9.55718V9.55705C14.416 9.28691 14.6364 9.06644 14.9066 9.06644H17.5353C17.8054 9.06644 18.0259 9.28691 18.0259 9.55705V9.86456H14.4156L14.416 9.55718ZM22.3754 12.6394V12.6395C22.3754 12.9096 22.155 13.1301 21.8848 13.1301H10.557C10.2869 13.1301 10.0664 12.9096 10.0664 12.6395V11.5216C10.0664 11.2515 10.2869 11.031 10.557 11.031H21.8854C22.1555 11.031 22.3759 11.2514 22.376 11.5216C22.376 11.5216 22.376 11.5216 22.376 11.5216L22.3754 12.6394ZM21.8848 9.86456H19.1923V9.55705C19.1923 8.6433 18.4491 7.9 17.5353 7.9H14.9066C13.9928 7.9 13.2495 8.6433 13.2495 9.55705V9.86456H10.557C9.6433 9.86456 8.9 10.6079 8.9 11.5216V12.6395C8.9 13.4473 9.4825 14.1143 10.2471 14.26V21.3691C10.2471 22.8751 11.472 24.1 12.978 24.1H19.4639C20.9699 24.1 22.1948 22.8751 22.1948 21.3691V14.26C22.9594 14.1143 23.5419 13.4473 23.5419 12.6395V11.5216C23.5419 10.6079 22.7986 9.86456 21.8848 9.86456ZM19.4639 22.9336H12.978C12.1156 22.9336 11.4136 22.2315 11.4136 21.3691V14.2965H21.0283V21.3691C21.0283 22.2315 20.3268 22.9336 19.4639 22.9336Z" fill="white" stroke="white" stroke-width="0.2"/>
<path d="M14.4676 15.5836C14.1455 15.5836 13.8844 15.8447 13.8844 16.1668V21.064C13.8844 21.3861 14.1455 21.6472 14.4676 21.6472C14.7897 21.6472 15.0508 21.3861 15.0508 21.064V16.1668C15.0508 15.8447 14.7897 15.5836 14.4676 15.5836Z" fill="white" stroke="white" stroke-width="0.2"/>
<path d="M17.9832 15.5836C17.6611 15.5836 17.4 15.8447 17.4 16.1668V21.064C17.4 21.3861 17.6611 21.6472 17.9832 21.6472C18.3053 21.6472 18.5664 21.3861 18.5664 21.064V16.1668C18.5664 15.8447 18.3053 15.5836 17.9832 15.5836Z" fill="white" stroke="white" stroke-width="0.2"/>
</g>
<defs>
<clipPath id="clip0_4253_180358">
<rect width="32" height="32" fill="white"/>
</clipPath>
</defs>
</svg>
