<svg width="24" height="28" viewBox="0 0 24 28" fill="currentColor" xmlns="http://www.w3.org/2000/svg">
    <path fill-rule="evenodd" clip-rule="evenodd"
        d="M23.2497 3.1473H16.0373V1.58836C16.0373 0.705937 15.3203 0 14.4226 0H9.63502C8.73735 0 8.01921 0.705937 8.01921 1.58836V3.17563L0.807918 3.17672C0.593377 3.17584 0.387367 3.25924 0.235663 3.40836C0.0839583 3.55749 -0.00087467 3.76 1.37089e-05 3.9709V7.91129C1.37089e-05 8.3525 0.359082 8.70656 0.807918 8.70656H1.64464L3.74031 25.2362C3.94977 26.7951 5.29628 28 6.91319 28H17.0868C18.7015 28 20.079 26.8234 20.2586 25.2362L22.3531 8.70547H23.191C23.4057 8.70663 23.612 8.62337 23.7639 8.47421C23.9159 8.32505 24.0009 8.12238 24 7.91129L23.9978 3.94039C24.0118 3.73613 23.9395 3.53522 23.7979 3.3851C23.6563 3.23497 23.458 3.14894 23.2497 3.1473V3.1473ZM9.63502 1.58836H14.4226V3.17563L9.63502 3.17672V1.58836ZM18.7015 25.0019C18.6084 25.7922 17.926 26.3875 17.1167 26.3844H6.94201C6.133 26.3844 5.44589 25.7961 5.35501 25.0019L3.29148 8.67715H20.7961L18.7015 25.0019ZM22.4418 7.08988H1.61582V4.73675H22.4418V7.08988Z" />
    <path fill-rule="evenodd" clip-rule="evenodd"
        d="M8.37866 23.9725H8.4385C8.65311 23.9578 8.85283 23.8594 8.9933 23.6992C9.13377 23.5391 9.20334 23.3304 9.18656 23.1195L8.34874 11.9422C8.33373 11.7312 8.23364 11.5349 8.0707 11.3968C7.90775 11.2587 7.69546 11.1904 7.48099 11.2068C7.26638 11.2216 7.06666 11.32 6.92619 11.4802C6.78572 11.6403 6.71615 11.849 6.73293 12.0599L7.57075 23.2372C7.60068 23.649 7.95864 23.9725 8.37977 23.9725H8.37866ZM12.0292 23.9725C12.2437 23.9734 12.4497 23.89 12.6014 23.7409C12.7532 23.5918 12.838 23.3893 12.8371 23.1784V12.001C12.838 11.7901 12.7532 11.5876 12.6014 11.4385C12.4497 11.2894 12.2437 11.206 12.0292 11.2068C11.8145 11.206 11.6083 11.2895 11.4565 11.4389C11.3048 11.5882 11.2201 11.791 11.2213 12.0021V23.1795C11.2213 23.6196 11.5804 23.9725 12.0292 23.9725ZM15.6199 23.9725H15.6797C16.1023 23.9705 16.4531 23.6512 16.4876 23.2372L17.3255 12.0599C17.3425 11.849 17.2731 11.6401 17.1325 11.4799C16.992 11.3196 16.7921 11.2213 16.5774 11.2068C16.3629 11.1901 16.1504 11.2583 15.9874 11.3965C15.8244 11.5346 15.7244 11.7311 15.7096 11.9422L14.8718 23.1195C14.855 23.3304 14.9246 23.5391 15.0651 23.6992C15.2055 23.8594 15.4053 23.9578 15.6199 23.9725Z" />
</svg>