<svg width="45" height="46" viewBox="0 0 45 46" fill="none" xmlns="http://www.w3.org/2000/svg">
<mask id="mask0_4330_4685" style="mask-type:alpha" maskUnits="userSpaceOnUse" x="0" y="0" width="45" height="46">
<rect y="0.499023" width="45" height="45" fill="#D9D9D9"/>
</mask>
<g mask="url(#mask0_4330_4685)">
<path fill-rule="evenodd" clip-rule="evenodd" d="M29.0859 40.413C27.0391 41.3037 24.8438 41.749 22.5 41.749C20.1562 41.749 17.9609 41.3037 15.9141 40.413C13.8672 39.5224 12.0859 38.3193 10.5703 36.8037C9.05469 35.2881 7.85156 33.5068 6.96094 31.4599C6.07031 29.413 5.625 27.2177 5.625 24.874C5.625 22.5302 6.07031 20.3349 6.96094 18.288C7.85156 16.2412 9.05469 14.4599 10.5703 12.9443C12.0859 11.4287 13.8672 10.2255 15.9141 9.33492C17.9609 8.4443 20.1562 7.99898 22.5 7.99898H22.7812L21.1875 6.40523C20.8125 6.03023 20.6328 5.59273 20.6484 5.09273C20.6641 4.59273 20.8438 4.15523 21.1875 3.78023C21.5625 3.40523 22.0078 3.20992 22.5234 3.1943C23.0391 3.17867 23.4844 3.35836 23.8594 3.73336L28.6875 8.56148C29.0625 8.93648 29.25 9.37398 29.25 9.87398C29.25 10.374 29.0625 10.8115 28.6875 11.1865L23.8594 16.0146C23.4844 16.3896 23.0391 16.5693 22.5234 16.5537C22.0078 16.538 21.5625 16.3427 21.1875 15.9677C20.8438 15.5927 20.6641 15.1552 20.6484 14.6552C20.6328 14.1552 20.8125 13.7177 21.1875 13.3427L22.7812 11.749H22.5C18.8438 11.749 15.7422 13.0224 13.1953 15.5693C10.6484 18.1162 9.375 21.2177 9.375 24.874C9.375 28.5302 10.6484 31.6318 13.1953 34.1787C13.8598 34.8431 14.562 35.4209 15.3019 35.912C15.6578 35.3821 16.3427 34.4588 17.0518 34.0278C18.0784 33.4039 19.2598 33.0119 20.5961 32.8519C20.4983 32.1799 20.368 31.5079 20.205 30.836C20.042 30.164 19.8465 29.54 19.6184 28.964C19.2598 29.252 18.8687 29.476 18.4451 29.636C18.0214 29.796 17.5651 29.876 17.0762 29.876C16.0007 29.876 15.08 29.5 14.3141 28.748C13.5482 27.9961 13.1652 27.0921 13.1652 26.0361V24.1162C13.1652 23.5722 13.0756 23.0602 12.8964 22.5803C12.7171 22.1003 12.4808 21.6523 12.1875 21.2363C13.8171 21.2043 15.2674 21.3483 16.5385 21.6683C17.6466 21.9563 18.6569 22.4283 19.5695 23.0842C20.482 23.7402 20.9546 24.7242 20.9872 26.0361C20.9872 26.3241 20.9627 26.5881 20.9139 26.8281C20.865 27.0681 20.7753 27.3161 20.645 27.5721C20.2213 27.2521 19.7976 26.9641 19.3739 26.7081C18.9502 26.4521 18.5102 26.2281 18.054 26.0361C18.608 26.4521 19.2435 27.0921 19.9606 27.9561C20.6776 28.82 21.3457 29.844 21.9649 31.028C22.6168 29.46 23.4315 27.9161 24.4093 26.3961C25.387 24.8762 26.5277 23.4762 27.8314 22.1963C27.0818 22.7083 26.3648 23.2522 25.6804 23.8282C24.9959 24.4042 24.3278 25.0122 23.676 25.6521C23.4478 25.3002 23.2686 24.9082 23.1382 24.4762C23.0079 24.0442 22.9427 23.6042 22.9427 23.1562C22.9427 21.8123 23.4153 20.6763 24.3604 19.7484C25.3056 18.8204 26.4626 18.3564 27.8314 18.3564H29.7869C30.5365 18.3564 31.1557 18.2604 31.6446 18.0684C32.1335 17.8764 32.5409 17.6524 32.8668 17.3965C33.2253 17.1085 33.5023 16.7885 33.6979 16.4365C33.8282 18.5804 33.7141 20.5003 33.3556 22.1963C33.0623 23.6362 32.5083 24.9562 31.6935 26.1561C30.8787 27.3561 29.5913 27.9561 27.8314 27.9561C27.3425 27.9561 26.8781 27.8921 26.4381 27.7641C25.9981 27.6361 25.5989 27.4601 25.2404 27.2361C25.0122 27.8441 24.7515 28.652 24.4582 29.66C24.1649 30.668 23.9367 31.7479 23.7738 32.8999C25.0122 33.1239 26.104 33.5399 27.0492 34.1478C28.1925 34.8833 29.0446 36.3078 29.0446 36.3078C29.0446 36.3078 29.031 36.3192 29.0046 36.3406C30.0025 35.7681 30.9359 35.0475 31.8047 34.1787C34.3516 31.6318 35.625 28.5302 35.625 24.874C35.625 24.3427 35.8047 23.8974 36.1641 23.538C36.5234 23.1787 36.9688 22.999 37.5 22.999C38.0312 22.999 38.4766 23.1787 38.8359 23.538C39.1953 23.8974 39.375 24.3427 39.375 24.874C39.375 27.2177 38.9297 29.413 38.0391 31.4599C37.1484 33.5068 35.9453 35.2881 34.4297 36.8037C32.9141 38.3193 31.1328 39.5224 29.0859 40.413Z" fill="currentColor"/>
</g>
</svg>
