<svg width="17" height="21" viewBox="0 0 17 21" fill="none" xmlns="http://www.w3.org/2000/svg">
<path fill-rule="evenodd" clip-rule="evenodd" d="M7.4375 14.875V18.0625H2.125C1.82396 18.0625 1.57161 18.1643 1.36797 18.368C1.16432 18.5716 1.0625 18.824 1.0625 19.125C1.0625 19.426 1.16432 19.6784 1.36797 19.882C1.57161 20.0857 1.82396 20.1875 2.125 20.1875H14.875C15.176 20.1875 15.4284 20.0857 15.632 19.882C15.8357 19.6784 15.9375 19.426 15.9375 19.125C15.9375 18.824 15.8357 18.5716 15.632 18.368C15.4284 18.1643 15.176 18.0625 14.875 18.0625H9.5625V14.875H11.6875C13.1573 14.875 14.4102 14.357 15.4461 13.3211C16.482 12.2852 17 11.0323 17 9.5625C17 8.5 16.7078 7.52162 16.1234 6.62734C15.5391 5.73307 14.751 5.08229 13.7594 4.675C13.6 3.34688 13.0201 2.23568 12.0195 1.34141C11.019 0.447135 9.84583 0 8.5 0C7.15417 0 5.98099 0.447135 4.98047 1.34141C3.97995 2.23568 3.4 3.34688 3.24063 4.675C2.24896 5.08229 1.46094 5.73307 0.876563 6.62734C0.292188 7.52162 0 8.5 0 9.5625C0 11.0323 0.517969 12.2852 1.55391 13.3211C2.58984 14.357 3.84271 14.875 5.3125 14.875H7.4375ZM14.8902 9.03125C14.8902 8.79825 14.7013 8.60938 14.4683 8.60938C14.2353 8.60938 14.0464 8.79825 14.0464 9.03125C14.0464 10.2408 13.6257 11.013 13.1304 11.4977C12.6234 11.9939 12.0163 12.2094 11.6352 12.257C11.404 12.2859 11.24 12.4967 11.2689 12.7279C11.2977 12.9591 11.5085 13.1231 11.7398 13.0943C12.2856 13.0261 13.0689 12.7384 13.7205 12.1008C14.3839 11.4516 14.8902 10.4595 14.8902 9.03125Z" fill="currentColor"/>
</svg>
