<svg width="40" height="40" viewBox="0 0 40 40" fill="none" xmlns="http://www.w3.org/2000/svg">
<g clip-path="url(#clip0_5203_16137)">
<circle cx="20" cy="20" r="20" fill="black" fill-opacity="0.03"/>
<mask id="mask0_5203_16137" style="mask-type:alpha" maskUnits="userSpaceOnUse" x="8" y="7" width="24" height="25">
<rect x="8" y="7.5" width="24" height="24" fill="#D9D9D9"/>
</mask>
<g mask="url(#mask0_5203_16137)">
<path fill-rule="evenodd" clip-rule="evenodd" d="M18.4375 24.875V28.0625H13.125C12.824 28.0625 12.5716 28.1643 12.368 28.368C12.1643 28.5716 12.0625 28.824 12.0625 29.125C12.0625 29.426 12.1643 29.6784 12.368 29.882C12.5716 30.0857 12.824 30.1875 13.125 30.1875H25.875C26.176 30.1875 26.4284 30.0857 26.632 29.882C26.8357 29.6784 26.9375 29.426 26.9375 29.125C26.9375 28.824 26.8357 28.5716 26.632 28.368C26.4284 28.1643 26.176 28.0625 25.875 28.0625H20.5625V24.875H22.6875C24.1573 24.875 25.4102 24.357 26.4461 23.3211C27.482 22.2852 28 21.0323 28 19.5625C28 18.5 27.7078 17.5216 27.1234 16.6273C26.5391 15.7331 25.751 15.0823 24.7594 14.675C24.6 13.3469 24.0201 12.2357 23.0195 11.3414C22.019 10.4471 20.8458 10 19.5 10C18.1542 10 16.981 10.4471 15.9805 11.3414C14.9799 12.2357 14.4 13.3469 14.2406 14.675C13.249 15.0823 12.4609 15.7331 11.8766 16.6273C11.2922 17.5216 11 18.5 11 19.5625C11 21.0323 11.518 22.2852 12.5539 23.3211C13.5898 24.357 14.8427 24.875 16.3125 24.875H18.4375ZM25.8902 19.0312C25.8902 18.7983 25.7013 18.6094 25.4683 18.6094C25.2353 18.6094 25.0464 18.7983 25.0464 19.0312C25.0464 20.2408 24.6257 21.013 24.1304 21.4977C23.6234 21.9939 23.0163 22.2094 22.6352 22.257C22.404 22.2859 22.24 22.4967 22.2689 22.7279C22.2977 22.9591 22.5085 23.1231 22.7398 23.0943C23.2856 23.0261 24.0689 22.7384 24.7205 22.1008C25.3839 21.4516 25.8902 20.4595 25.8902 19.0312Z" fill="#27A9E0"/>
</g>
</g>
<defs>
<clipPath id="clip0_5203_16137">
<rect width="40" height="40" fill="white"/>
</clipPath>
</defs>
</svg>
