<svg width="12" height="14" viewBox="0 0 12 14" fill="none" xmlns="http://www.w3.org/2000/svg">
<path d="M0.7 14V12.6H4.9V9.8H3.5C2.53167 9.8 1.70625 9.45875 1.02375 8.77625C0.34125 8.09375 0 7.26833 0 6.3C0 5.6 0.1925 4.95542 0.5775 4.36625C0.9625 3.77708 1.48167 3.34833 2.135 3.08C2.24 2.205 2.62208 1.47292 3.28125 0.88375C3.94042 0.294583 4.71333 0 5.6 0C6.48667 0 7.25958 0.294583 7.91875 0.88375C8.57792 1.47292 8.96 2.205 9.065 3.08C9.71833 3.34833 10.2375 3.77708 10.6225 4.36625C11.0075 4.95542 11.2 5.6 11.2 6.3C11.2 7.26833 10.8588 8.09375 10.1763 8.77625C9.49375 9.45875 8.66833 9.8 7.7 9.8H6.3V12.6H10.5V14H0.7Z" fill="currentColor"/>
</svg>
