<svg width="20" height="20" viewBox="0 0 20 20" fill="none" xmlns="http://www.w3.org/2000/svg">
<g id="fi:upload-cloud" clip-path="url(#clip0_2567_51736)">
<path id="Vector" d="M13.1969 13.1995L9.99688 9.99951L6.79688 13.1995" stroke="currentColor" stroke-width="2" stroke-linecap="round" stroke-linejoin="round"/>
<path id="Vector_2" d="M10 9.99951V17.1995" stroke="currentColor" stroke-width="2" stroke-linecap="round" stroke-linejoin="round"/>
<path id="Vector_3" d="M16.7116 15.1113C17.4918 14.6859 18.1082 14.0128 18.4635 13.1982C18.8187 12.3836 18.8925 11.4739 18.6733 10.6127C18.4541 9.75142 17.9544 8.98771 17.2529 8.44206C16.5515 7.89641 15.6883 7.59989 14.7996 7.5993H13.7916C13.5494 6.6627 13.0981 5.79317 12.4715 5.0561C11.845 4.31902 11.0595 3.73358 10.1741 3.34379C9.28866 2.954 8.32642 2.76999 7.35967 2.80561C6.39292 2.84123 5.44683 3.09554 4.59252 3.54944C3.73821 4.00333 2.99791 4.64499 2.42728 5.42617C1.85664 6.20735 1.47053 7.10773 1.29796 8.05962C1.12539 9.01151 1.17086 9.99013 1.43095 10.9219C1.69103 11.8537 2.15897 12.7144 2.79958 13.4393" stroke="currentColor" stroke-width="2" stroke-linecap="round" stroke-linejoin="round"/>
<path id="Vector_4" d="M13.1969 13.1995L9.99688 9.99951L6.79688 13.1995" stroke="currentColor" stroke-width="2" stroke-linecap="round" stroke-linejoin="round"/>
</g>
<defs>
<clipPath id="clip0_2567_51736">
<rect width="19.2" height="19.2" fill="white" transform="translate(0.398438 0.399902)"/>
</clipPath>
</defs>
</svg>
