<svg width="30" height="19" viewBox="0 0 30 19" fill="currentColor" xmlns="http://www.w3.org/2000/svg">
    <path fill-rule="evenodd" clip-rule="evenodd"
        d="M14.9999 0.000306449C17.2319 0.000306449 19.4668 0.744886 21.1702 2.24122C22.6159 3.51129 23.4485 5.11537 23.6665 6.77084C27.2205 7.05454 30 9.67494 30 12.871C30 16.2564 26.8768 19 23.0233 19H5.93023C2.64488 19 0 16.6765 0 13.7904C0 10.9042 2.64488 8.58073 5.93023 8.58073H6.34448C6.03652 6.32664 6.87181 3.97081 8.84083 2.24091C10.5441 0.744579 12.768 0 14.9999 0L14.9999 0.000306449ZM15.003 6.33206C14.8128 6.33088 14.68 6.36152 14.5219 6.48286L10.5838 9.49872C10.3041 9.71077 10.2524 10.1243 10.5279 10.3564C10.7936 10.5802 11.2677 10.6073 11.546 10.3941L14.287 8.29237V14.7765C14.287 15.1099 14.6072 15.3797 15.003 15.3797C15.3987 15.3797 15.719 15.1099 15.719 14.7765V8.29237L18.46 10.3941C18.7383 10.6073 19.2249 10.592 19.4781 10.3564C19.7312 10.1208 19.7158 9.71432 19.4221 9.49872L15.4841 6.48286C15.382 6.40393 15.1946 6.3356 15.003 6.33206H15.003Z" />
</svg>