<svg width="113" height="113" viewBox="0 0 113 113" fill="currentColor" xmlns="http://www.w3.org/2000/svg">
    <circle cx="56.8442" cy="56.5337" r="55.3286" />
    <circle cx="56.8442" cy="56.5337" r="55.6823" stroke="#9B9B9B" stroke-opacity="0.2" stroke-width="0.707379" />
    <path fill-rule="evenodd" clip-rule="evenodd"
        d="M56.4142 28.002C72.409 28.002 85.3753 40.9683 85.3753 56.963C85.3753 72.9578 72.409 85.9241 56.4142 85.9241C40.4194 85.9241 27.4531 72.9578 27.4531 56.963C27.4531 40.9683 40.4194 28.002 56.4142 28.002ZM56.4112 31.6218C42.4158 31.6218 31.0702 42.9673 31.0702 56.9627C31.0702 63.8979 33.8562 70.1824 38.3699 74.7581C38.4565 74.0655 38.6371 73.3507 38.9069 72.6298C40.8142 67.5348 47.184 62.1366 56.4111 62.1366C66.9652 62.1366 73.7556 69.1706 74.4524 74.7582C78.9662 70.1824 81.7521 63.8979 81.7521 56.9627C81.7521 42.9673 70.4066 31.6218 56.4112 31.6218ZM56.4342 58.1881C61.0672 58.1881 65.0416 53.9115 65.0416 48.3963C65.0416 42.9512 61.0445 38.8616 56.4342 38.8616C51.8011 38.8616 47.804 43.0447 47.804 48.4431C47.8267 53.9115 51.7784 58.1881 56.4342 58.1881Z"
        fill="white" />
</svg>