<svg width="32" height="32" viewBox="0 0 32 32" xmlns="http://www.w3.org/2000/svg">
<g id="users">
<g id="Group">
<path id="Vector" d="M11.4949 16.4911C11.8253 16.4911 12.1557 16.4461 12.4711 16.356C13.1169 15.0193 14.0631 13.8629 15.2345 12.9918C15.2496 12.9017 15.2496 12.8116 15.2496 12.7215C15.2496 10.6489 13.5675 8.9668 11.4949 8.9668C9.42232 8.9668 7.74023 10.6489 7.74023 12.7215C7.74023 14.8091 9.42232 16.4911 11.4949 16.4911Z" fill="currentColor"/>
<path id="Vector_2" d="M12.02 17.4978C10.5692 17.63 9.2325 17.235 8.20523 16.4766C5.71213 17.7531 4 20.4865 4 23.6405C4 27.3651 14.8134 27.9208 18.0725 25.3075C12.873 24.6632 10.3439 22.5261 12.02 17.4978Z" fill="currentColor"/>
<path id="Vector_3" d="M20.5042 13.5123C22.5787 13.5123 24.2604 11.8306 24.2604 9.75617C24.2604 7.68169 22.5787 6 20.5042 6C18.4297 6 16.748 7.68169 16.748 9.75617C16.748 11.8306 18.4297 13.5123 20.5042 13.5123Z" fill="currentColor"/>
<path id="Vector_4" d="M23.7936 13.5098C21.8847 14.9125 19.1318 14.9155 17.2199 13.5098C14.7208 14.7864 13.0117 17.5107 13.0117 20.6662C13.0117 25.0606 28.0003 25.0606 28.0003 20.6662C28.0003 17.5107 26.2912 14.7864 23.7936 13.5098Z" fill="currentColor"/>
</g>
</g>
</svg>
