<svg width="69" height="68" viewBox="0 0 69 68" fill="none" xmlns="http://www.w3.org/2000/svg">
<path d="M2 23.3333H66M23.3333 23.3333V66M66 41.9333V19.0667C66 13.0928 66 10.1058 64.8373 7.82411C63.8148 5.81703 62.1831 4.18524 60.176 3.1626C57.894 2 54.9074 2 48.9333 2H19.0667C13.0928 2 10.1058 2 7.82411 3.1626C5.81703 4.18524 4.18524 5.81703 3.1626 7.82411C2 10.1058 2 13.0928 2 19.0667V48.9333C2 54.9074 2 57.894 3.1626 60.176C4.18524 62.1831 5.81703 63.8148 7.82411 64.8373C10.1058 66 13.0928 66 19.0667 66H43.9333" stroke="#353535" stroke-width="3" stroke-linecap="round" stroke-linejoin="round"/>
<path d="M41.124 38.4482C40.2509 38.1042 39.8143 37.9323 39.5362 38.0248C39.2947 38.1051 39.1051 38.2947 39.0248 38.5362C38.9323 38.8143 39.1042 39.2509 39.4482 40.124L48.0096 61.8568C48.2866 62.5598 48.4251 62.9115 48.6508 63.0526C48.8476 63.1757 49.0878 63.208 49.3102 63.1416C49.5652 63.0654 49.792 62.763 50.2454 62.1583L53.703 57.5485L59.2741 65.2089C59.5804 65.6299 59.7336 65.8405 59.9288 65.9286C60.1 66.0058 60.2928 66.021 60.474 65.9714C60.6804 65.9148 60.8646 65.7307 61.2328 65.3625L66.3626 60.2329C66.7307 59.8646 66.9148 59.6805 66.9713 59.4741C67.0209 59.2929 67.0059 59.1 66.9285 58.9288C66.8405 58.7335 66.63 58.5804 66.2088 58.2742L58.5484 52.703L63.1584 49.2454C63.763 48.7921 64.0653 48.5652 64.1416 48.3102C64.208 48.0878 64.1757 47.8476 64.0526 47.6508C63.9114 47.4251 63.56 47.2866 62.8567 47.0095L41.124 38.4482Z" stroke="#353535" stroke-width="3" stroke-linecap="round" stroke-linejoin="round"/>
</svg>
