<svg xmlns="http://www.w3.org/2000/svg" width="17" height="16" viewBox="0 0 17 16" fill="currentColor">
    <circle cx="8.5" cy="8" r="8" />
    <path
        d="M7.7929 12.7337C7.9804 12.9042 8.23476 13 8.5 13C8.76522 13 9.01959 12.9042 9.2071 12.7337C9.39461 12.5633 9.5 12.332 9.5 12.0909C9.5 11.8498 9.3946 11.6186 9.2071 11.4481C9.0196 11.2776 8.76522 11.1818 8.5 11.1818C8.23478 11.1818 7.98041 11.2776 7.7929 11.4481C7.60539 11.6185 7.5 11.8498 7.5 12.0909C7.5 12.332 7.6054 12.5633 7.7929 12.7337Z"
        fill="white" />
    <path
        d="M9 10.1509C9.30938 9.98857 9.5 9.68842 9.5 9.36364V6.63638V3.90911C9.5 3.58433 9.30938 3.28418 9 3.12182C8.69062 2.95939 8.30938 2.95939 8 3.12182C7.69062 3.28418 7.5 3.58433 7.5 3.90911V9.36364C7.5 9.68842 7.69062 9.98858 8 10.1509C8.30938 10.3134 8.69062 10.3134 9 10.1509Z"
        fill="white" />
</svg>