<svg width="108" height="30" viewBox="0 0 108 30" fill="none" xmlns="http://www.w3.org/2000/svg">
    <path fill-rule="evenodd" clip-rule="evenodd"
        d="M40.9802 13.8389V4.89484H46.1251V2.76953H33.2109V4.89484H38.3559V13.8389H40.9802ZM48.3339 2.76953V13.8389H60.3257V11.7135H50.9297V9.2829H57.1691V7.15759H50.9297V4.89484H59.9124V2.76953H48.3339ZM72.7847 6.2578C72.7847 5.43083 72.133 4.85938 71.0219 4.85938H65.1414V7.7171H71.0367C72.1482 7.7171 72.7847 7.16041 72.7847 6.2578ZM70.0736 9.80777L72.7109 13.6576H75.6433L72.9175 9.61222C74.5327 9.16114 75.362 8.04821 75.362 6.33385C75.362 4.21316 73.7625 2.76953 71.318 2.76953H62.5345V13.6576H65.1409V9.80777H70.0736ZM88.1023 6.2578C88.1023 5.43083 87.4506 4.85938 86.3396 4.85938H80.459V7.7171H86.3543C87.4659 7.7171 88.1023 7.16041 88.1023 6.2578ZM85.3913 9.80777L88.0285 13.6576H90.9614L88.2356 9.61222C89.8499 9.16114 90.6801 8.04821 90.6801 6.33385C90.6801 4.21316 89.0801 2.76953 86.6356 2.76953H77.8521V13.6576H80.4589V9.80777H85.3913ZM100.458 4.75488L98.1025 9.22181H102.813L100.458 4.75488ZM103.909 11.3118L105.138 13.6581H107.775L102.087 2.76953H98.8728L93.1698 13.6581H95.8066L97.0362 11.3118H103.909Z"
        fill="#27A9E0" />
    <path fill-rule="evenodd" clip-rule="evenodd"
        d="M89.2351 19.7575L89.235 19.7573L91.6053 18.9C89.872 16.7194 87.6499 15.6816 84.7617 15.6816C82.6138 15.6816 80.6882 16.3435 79.34 17.4712C78.1252 18.4937 77.4882 19.8626 77.4882 21.4271C77.4882 23.2614 78.407 24.9005 79.8437 25.8032C81.3837 26.7657 82.9841 27.202 84.8798 27.202C87.6794 27.202 89.694 26.3294 91.472 24.2691L89.2646 23.0658C88.0055 24.4495 86.5683 25.0961 84.7617 25.0961C81.9173 25.0961 80.0807 23.5768 80.0807 21.4271C80.0807 19.3211 81.8883 17.7871 84.5541 17.7871C86.4797 17.7871 88.0349 18.5536 89.235 19.7573L89.2346 19.7575H89.2351ZM46.1279 19.7629V27.493H48.7347V16.6045H45.6833L40.9728 22.3794L36.2624 16.6045H33.2109V27.493H35.8182V19.7625H35.863L40.9733 26.0042L46.0832 19.7629H46.1279ZM55.6701 23.0561L58.0251 18.5896L60.381 23.0561H55.6701ZM62.706 27.493L61.4764 25.1472H54.6037L53.3741 27.493H50.7373L56.4403 16.6045H59.655L65.3428 27.493H62.706ZM71.3692 27.493V18.6952H76.4796V16.6045H63.6516V18.6952H68.7619V27.493H71.3692ZM105.369 22.801V27.4778H107.976V16.6045H105.369V20.5747H97.6215V16.6045H95.0146V27.4778H97.6215V22.801H105.369Z"
        fill="#8CC63F" />
    <path d="M22.586 6.58718V0.283203H0V23.2151H6.20989V6.58718H22.586Z" fill="#27A9E0" />
    <path d="M22.5866 6.58594V23.213H6.21094V29.5179H28.797V6.58594H22.5866Z" fill="#8CC63F" />
    <path d="M6.21094 23.213H22.5871V6.58594H6.21094V23.213Z" fill="#009344" />
    <path
        d="M15.7999 15.65C16.2907 14.8622 17.3658 14.5458 18.3505 14.3341C18.7831 14.2414 19.2637 14.127 19.4957 13.789C19.6617 13.5468 19.6562 13.2364 19.5616 12.9657C19.4666 12.695 19.2914 12.4537 19.1276 12.2097C19.0483 12.0926 18.969 11.9667 18.9704 11.8297C18.9717 11.5271 19.3352 11.3468 19.6359 11.2043C19.9366 11.0627 20.2659 10.7952 20.146 10.512C20.0902 10.3801 19.95 10.2943 19.8181 10.2168C18.9939 9.73345 18.0973 9.23164 17.1107 9.26808C16.6855 9.28376 16.2408 9.3986 15.8451 9.25747C15.5439 9.14954 15.3309 8.91248 15.073 8.73767C14.8126 8.56378 14.5153 8.45292 14.2046 8.4139C13.9753 8.38484 13.7378 8.39406 13.5206 8.46463C13.2687 8.5458 13.0589 8.70308 12.8546 8.85759L11.9367 9.55127C11.8293 9.6329 11.7167 9.71639 11.5802 9.74775C11.4059 9.78741 11.2241 9.73576 11.0498 9.69609C10.5679 9.58636 10.0703 9.5634 9.58035 9.62829C9.29439 9.66657 8.98998 9.74867 8.82117 9.95807C8.57119 10.2708 8.73446 10.7076 8.95631 11.0364C9.20939 11.4093 9.51905 11.7404 9.87414 12.0179C10.0356 12.1452 10.2219 12.2863 10.2307 12.4777C10.2422 12.7277 9.94932 12.902 9.86215 13.14C9.73485 13.4906 10.1089 13.8475 10.5111 13.9375C10.9128 14.0274 11.3344 13.9435 11.7485 13.9361C11.8454 13.9347 11.9469 13.9379 12.0322 13.979C12.2384 14.0777 12.2531 14.336 12.2001 14.5385C12.1466 14.7414 12.0534 14.9549 12.1374 15.1491C12.2554 15.4226 12.6558 15.4987 12.9823 15.46C13.3089 15.4212 13.6359 15.3101 13.9587 15.3687C14.3083 15.4323 14.5795 15.6846 14.9213 15.7773C15.3018 15.8811 15.5453 15.9498 15.7916 15.6717L15.7999 15.65Z"
        fill="#FEFEFE" />
    <path d="M15.601 21.3977H13.9609L14.2653 13.8457H15.3275L15.601 21.3977Z" fill="#FEFEFE" />
</svg>