<svg width="22" height="22" viewBox="0 0 22 22" fill="currentColor" xmlns="http://www.w3.org/2000/svg">
  <path fill-rule="evenodd" clip-rule="evenodd"
    d="M10.9871 0.519531C16.7793 0.519531 21.4546 5.22083 21.4546 10.9871C21.4546 16.7793 16.7793 21.4546 10.9871 21.4546C5.22083 21.4546 0.519531 16.7793 0.519531 10.9871C0.519531 5.22083 5.22083 0.519531 10.9871 0.519531ZM10.9871 12.4936L7.14291 16.3637C6.15589 17.3507 4.6494 15.8442 5.63641 14.8572L9.48057 10.9871L5.63641 7.14291C4.6494 6.15589 6.15589 4.6494 7.14291 5.63641L10.9871 9.48057L14.8572 5.63641C15.8442 4.6494 17.3507 6.15589 16.3637 7.14291L12.4936 10.9871L16.3637 14.8572C17.3507 15.8442 15.8442 17.3507 14.8572 16.3637L10.9871 12.4936Z" />
</svg>