<svg width="108" height="29" viewBox="0 0 108 29" fill="none" xmlns="http://www.w3.org/2000/svg">
<g id="Terrmatch">
<path id="Shape" fill-rule="evenodd" clip-rule="evenodd" d="M40.988 13.4449V4.57302H46.1342V2.46484H33.2168V4.57302H38.363V13.4449H40.988ZM48.3438 2.46484V13.4449H60.3385V11.3368H50.9402V8.92572H57.1811V6.81754H50.9402V4.57302H59.9252V2.46484H48.3438ZM72.8006 5.92426C72.8006 5.10396 72.1487 4.53711 71.0373 4.53711H65.1553V7.3718H71.0521C72.1639 7.3718 72.8006 6.8196 72.8006 5.92426ZM70.0889 9.44636L72.7268 13.2651H75.66L72.9335 9.25237C74.5491 8.80493 75.3786 7.70098 75.3786 6.00043C75.3786 3.89683 73.7786 2.46484 71.3336 2.46484H62.5479V13.2651H65.1549V9.44636H70.0889ZM88.1218 5.92426C88.1218 5.10396 87.47 4.53711 86.3586 4.53711H80.4766V7.3718H86.3734C87.4852 7.3718 88.1218 6.8196 88.1218 5.92426ZM85.4102 9.44636L88.0481 13.2651H90.9817L88.2552 9.25237C89.8699 8.80493 90.7003 7.70098 90.7003 6.00043C90.7003 3.89683 89.0999 2.46484 86.6549 2.46484H77.8691V13.2651H80.4766V9.44636H85.4102ZM100.48 4.43359L98.1245 8.86452H102.837L100.48 4.43359ZM103.933 10.9383L105.163 13.2656H107.8L102.111 2.46484H98.8954L93.1909 13.2656H95.8284L97.0583 10.9383H103.933Z" fill="#27A9E0"/>
<path id="Shape_2" fill-rule="evenodd" clip-rule="evenodd" d="M89.2551 19.3184L89.255 19.3182L91.6259 18.4679C89.8922 16.3048 87.6695 15.2754 84.7806 15.2754C82.6321 15.2754 80.706 15.9319 79.3575 17.0505C78.1424 18.0648 77.5053 19.4227 77.5053 20.9745C77.5053 22.794 78.4243 24.42 79.8613 25.3153C81.4017 26.2701 83.0026 26.7029 84.8987 26.7029C87.699 26.7029 89.7141 25.8373 91.4926 23.7937L89.2846 22.6C88.0251 23.9725 86.5876 24.614 84.7806 24.614C81.9355 24.614 80.0984 23.1069 80.0984 20.9745C80.0984 18.8856 81.9064 17.3639 84.573 17.3639C86.499 17.3639 88.0546 18.1242 89.255 19.3182L89.2546 19.3184H89.2551ZM46.137 19.3244V26.9922H48.7445V16.1914H45.6923L40.9806 21.9198L36.269 16.1914H33.2168V26.9922H35.8247V19.3239H35.8695L40.9811 25.5153L46.0923 19.3244H46.137ZM55.6816 22.5905L58.0372 18.16L60.3937 22.5905H55.6816ZM62.7193 26.9922L61.4893 24.6653H54.615L53.385 26.9922H50.7476L56.452 16.1914H59.6675L65.3567 26.9922H62.7193ZM71.3846 26.9922V18.2653H76.4962V16.1914H63.665V18.2653H68.7767V26.9922H71.3846ZM105.393 22.338V26.9771H108.001V16.1914H105.393V20.1296H97.6436V16.1914H95.0361V26.9771H97.6436V22.338H105.393Z" fill="#8CC63F"/>
<path id="Path" d="M22.5917 6.25317V0H0V22.7471H6.21145V6.25317H22.5917Z" fill="#27A9E0"/>
<path id="Path_2" d="M22.5907 6.25195V22.745H6.21094V28.9991H28.8026V6.25195H22.5907Z" fill="#8CC63F"/>
<path id="Path_3" d="M6.21094 22.745H22.5912V6.25195H6.21094V22.745Z" fill="#009344"/>
<path id="Path_4" d="M15.8017 15.2439C16.2926 14.4625 17.3679 14.1486 18.3529 13.9386C18.7856 13.8467 19.2663 13.7332 19.4984 13.3979C19.6645 13.1577 19.6589 12.8498 19.5644 12.5812C19.4693 12.3127 19.294 12.0734 19.1303 11.8314C19.0509 11.7152 18.9716 11.5903 18.9729 11.4544C18.9743 11.1543 19.3379 10.9754 19.6386 10.834C19.9394 10.6936 20.2688 10.4282 20.1489 10.1473C20.0931 10.0165 19.9528 9.93136 19.8209 9.8545C18.9965 9.37503 18.0996 8.87727 17.1128 8.91341C16.6875 8.92897 16.2427 9.04289 15.8469 8.90289C15.5457 8.79583 15.3325 8.56068 15.0746 8.38728C14.8141 8.21479 14.5167 8.10483 14.2059 8.06611C13.9767 8.03729 13.7391 8.04644 13.5218 8.11644C13.2699 8.19696 13.06 8.35297 12.8556 8.50623L11.9375 9.19432C11.83 9.2753 11.7175 9.35811 11.5809 9.38922C11.4065 9.42856 11.2248 9.37732 11.0504 9.33798C10.5684 9.22913 10.0706 9.20635 9.58057 9.27072C9.29454 9.3087 8.99006 9.39013 8.82121 9.59784C8.57116 9.90803 8.73447 10.3413 8.95638 10.6675C9.20952 11.0373 9.51926 11.3658 9.87444 11.6411C10.0359 11.7673 10.2223 11.9073 10.2311 12.0972C10.2426 12.3451 9.94964 12.5181 9.86244 12.7542C9.73512 13.1019 10.1093 13.456 10.5115 13.5452C10.9134 13.6344 11.335 13.5511 11.7493 13.5438C11.8462 13.5424 11.9477 13.5456 12.033 13.5864C12.2393 13.6843 12.254 13.9405 12.201 14.1413C12.1474 14.3426 12.0543 14.5544 12.1382 14.747C12.2563 15.0183 12.6568 15.0938 12.9834 15.0554C13.31 15.017 13.6371 14.9067 13.96 14.9648C14.3097 15.028 14.581 15.2782 14.9229 15.3702C15.3035 15.4731 15.547 15.5413 15.7934 15.2654L15.8017 15.2439Z" fill="white"/>
<path id="Path_5" d="M15.6049 20.9443H13.9648L14.2693 13.4531H15.3314L15.6049 20.9443Z" fill="white"/>
</g>
</svg>
