<svg xmlns="http://www.w3.org/2000/svg" width="34" height="33" viewBox="0 0 34 33">
    <path fill="#2A2A2A" fill-rule="evenodd" d="M27.52 3.194c.105-1.064.105-2.022.105-3.194H6.375c0 1.172 0 2.13.106 3.194H0v1.063c0 9.476 12.007 16.182 14.876 17.671l-.002 3.62c0 1.811-1.38 3.195-3.187 3.195H9.56V33h14.876v-4.257h-2.126c-1.807 0-3.187-1.384-3.187-3.194V21.93C21.993 20.44 34 13.733 34 4.26V3.195l-6.48-.002zM2 5h4.26C6.667 9.95 7.784 13.471 9 16 5.753 13.25 2.405 9.4 2 5zm23 11c1.217-2.53 2.334-6.05 2.74-11H32c-.508 4.4-3.856 8.25-7 11z"/>
</svg>
