<svg xmlns="http://www.w3.org/2000/svg" width="13" height="18" viewBox="0 0 13 18">
    <g fill="#27A9E0" fill-rule="evenodd">
        <path d="M4.803 5.527l1.136-1.885L3.743 0H.136L3.71 5.921c.35-.16.715-.295 1.094-.395zM9.254 0L6.04 5.326a6.651 6.651 0 0 1 3.25.595l3.573-5.92L9.254 0zM6.5 18c3.155 0 5.722-2.606 5.722-5.81 0-3.204-2.567-5.81-5.722-5.81-3.155 0-5.721 2.607-5.721 5.81C.779 15.394 3.345 18 6.5 18zm0-10.188c2.377 0 4.313 1.964 4.313 4.379 0 2.414-1.935 4.378-4.313 4.378-2.377 0-4.312-1.964-4.312-4.378 0-2.415 1.934-4.38 4.312-4.38z"/>
        <path d="M6.5 16.06c2.101 0 3.811-1.737 3.811-3.87 0-2.134-1.71-3.87-3.811-3.87s-3.81 1.736-3.81 3.87c-.001 2.133 1.709 3.87 3.81 3.87zm-1.016-5.337L6.5 8.633l1.016 2.09 2.272.336-1.644 1.627.389 2.297L6.5 13.898l-2.032 1.085.389-2.297-1.645-1.627 2.272-.336z"/>
        <path d="M5.416 13.659l1.084-.58 1.084.58-.207-1.226.877-.869-1.212-.178L6.5 10.27l-.542 1.116-1.212.178.877.869z"/>
    </g>
</svg>
