<svg xmlns="http://www.w3.org/2000/svg" width="34" height="34" viewBox="0 0 34 34">
    <g fill="none" fill-rule="evenodd">
        <circle cx="17" cy="17" r="17" fill="#27A9E0"/>
        <path fill="#FFF" stroke="#FFF" stroke-width="2" d="M23.81 11.082a.59.59 0 0 0 .19-.446.622.622 0 0 0-.19-.455.606.606 0 0 0-.446-.181.64.64 0 0 0-.456.18L17 16.099l-5.918-5.917a.606.606 0 0 0-.446-.181.64.64 0 0 0-.455.18.64.64 0 0 0-.181.456c0 .176.06.325.18.446L16.099 17l-5.917 5.908a.64.64 0 0 0-.181.456c0 .175.06.324.18.445.128.128.28.191.456.191a.59.59 0 0 0 .446-.19L17 17.9l5.908 5.908c.128.128.28.191.456.191a.59.59 0 0 0 .445-.19.59.59 0 0 0 .191-.446.622.622 0 0 0-.19-.456L17.9 17l5.908-5.918z"/>
    </g>
</svg>
