<svg xmlns="http://www.w3.org/2000/svg" width="13" height="11" viewBox="0 0 13 11">
    <path fill-rule="evenodd" d="M5.995 9.07c0-.072.012-.14.038-.203.025-.064.06-.12.105-.166.045-.047.099-.084.16-.112.063-.027.13-.041.2-.041s.136.014.198.041c.063.028.117.065.163.112s.082.102.108.166c.026.064.039.13.039.203 0 .074-.013.143-.04.205-.025.062-.06.117-.107.164-.046.047-.1.083-.163.11-.062.026-.128.039-.198.039s-.137-.013-.2-.04c-.062-.026-.115-.063-.16-.11-.044-.046-.08-.1-.105-.163-.026-.062-.038-.13-.038-.205zm.88-5.28v2.552c0 .133-.003.265-.008.392-.004.128-.01.257-.019.387-.008.13-.019.261-.032.397l-.045.435h-.517c-.017-.155-.033-.3-.045-.435-.013-.136-.024-.268-.032-.397-.009-.13-.015-.258-.02-.387-.004-.127-.006-.259-.006-.392V3.79h.723zM6.5.596l5.922 9.81H.578L6.5.595zM6.5 0c-.2 0-.385.106-.49.281l-5.923 9.81c-.11.184-.116.415-.014.604.102.188.295.305.505.305h11.844c.21 0 .403-.117.505-.306.102-.189.097-.42-.014-.603L6.991.281C6.885.105 6.7 0 6.501 0z"/>
</svg>
