<svg xmlns="http://www.w3.org/2000/svg" width="14" height="19" viewBox="0 0 14 19">
    <path fill="#fff" fill-rule="evenodd" d="M7.344 18.857C8.75 17.417 14 11.707 14 6.636c0-2.37-1.334-4.562-3.5-5.747a7.334 7.334 0 0 0-7 0C1.334 2.074 0 4.265 0 6.636c0 5.071 5.249 10.782 6.656 12.221.09.091.214.143.344.143.13 0 .255-.052.344-.143zM3.352 6.636A3.37 3.37 0 0 1 4.42 4.19 3.752 3.752 0 0 1 7 3.177c.967 0 1.895.365 2.58 1.013a3.369 3.369 0 0 1 1.068 2.445A3.37 3.37 0 0 1 9.58 9.081 3.752 3.752 0 0 1 7 10.094 3.752 3.752 0 0 1 4.42 9.08a3.369 3.369 0 0 1-1.068-2.445z"/>
</svg>
