<svg xmlns="http://www.w3.org/2000/svg" width="119" height="147" viewBox="0 0 119 147">
    <g fill="#F0AB00" fill-rule="evenodd">
        <path d="M77.485 43.555L51.323 69.717l-9.64-9.639c-1.988-1.976-5.201-1.976-7.19 0-.963.957-1.51 2.264-1.51 3.622s.547 2.664 1.51 3.62l13.21 13.21c.955.975 2.256 1.523 3.62 1.53 1.364-.007 2.665-.555 3.621-1.53l29.734-29.734c.962-.956 1.51-2.263 1.51-3.62 0-1.359-.548-2.665-1.51-3.622-1.99-1.976-5.202-1.976-7.191 0h-.002zm35.7 1.479c-1.217-1.352-2.25-2.863-3.06-4.488-.274-1.894-.274-3.819 0-5.712.574-4.322-.382-8.702-2.703-12.393-2.926-3.366-6.961-5.572-11.373-6.222-1.785-.396-3.5-1.052-5.1-1.938-1.332-1.288-2.467-2.767-3.366-4.386-2.04-4.01-5.412-7.185-9.537-8.976-4.258-.95-8.72-.37-12.597 1.632-1.868.758-3.85 1.205-5.865 1.326-1.957-.223-3.87-.753-5.66-1.581C50.046.294 45.583-.286 41.325.664c-4.125 1.791-7.497 4.966-9.537 8.976-.899 1.619-2.034 3.098-3.366 4.386-1.6.886-3.315 1.542-5.1 1.938-4.52.67-8.638 2.97-11.577 6.477-2.276 3.8-3.124 8.28-2.397 12.648.274 1.893.274 3.818 0 5.712-.81 1.625-1.843 3.136-3.06 4.488C3.03 48.362.959 52.473.424 56.917c.408 4.526 2.416 8.753 5.66 11.934 1.218 1.351 2.251 2.862 3.06 4.488.275 1.893.275 3.818 0 5.712-.726 4.367.122 8.848 2.398 12.648 2.977 3.41 7.089 5.623 11.577 6.222 1.785.395 3.5 1.052 5.1 1.938 1.332 1.288 2.467 2.767 3.366 4.386 2.04 4.01 5.412 7.184 9.537 8.976 1.186.382 2.423.574 3.672.561 3.08-.198 6.1-.937 8.925-2.193 1.855-.86 3.832-1.41 5.865-1.632 1.964.242 3.87.79 5.661 1.632 3.876 2.002 8.339 2.582 12.597 1.632 4.163-1.843 7.536-5.094 9.537-9.18.9-1.62 2.034-3.098 3.366-4.386 1.6-.886 3.315-1.543 5.1-1.938 4.412-.65 8.447-2.856 11.373-6.222 2.276-3.8 3.124-8.281 2.398-12.648-.275-1.894-.275-3.819 0-5.712.81-1.626 1.842-3.137 3.06-4.488 3.244-3.181 5.253-7.408 5.66-11.934-.356-4.38-2.212-8.504-5.252-11.68h.101zm-7.905 17.39c-2.16 2.25-3.888 4.877-5.1 7.752-.803 3.06-1.026 6.242-.663 9.384.313 2.066.16 4.176-.459 6.171-1.727 1.192-3.69 1.996-5.763 2.346-3.079.638-6.018 1.83-8.67 3.52-2.377 2.065-4.347 4.557-5.814 7.343-1.275 1.99-2.856 4.437-4.08 4.845-2.04-.044-4.048-.548-5.865-1.479-2.907-1.415-6.056-2.282-9.282-2.55-3.206.192-6.355.97-9.282 2.295-1.867.95-3.927 1.46-6.018 1.48-1.224-.409-2.805-2.857-4.08-4.846-1.536-2.71-3.563-5.113-5.967-7.089-2.652-1.69-5.59-2.881-8.67-3.519-2.071-.35-4.035-1.154-5.763-2.346-.618-1.995-.77-4.105-.459-6.17.396-3.137.204-6.318-.56-9.385-1.212-2.875-2.94-5.501-5.1-7.752-1.582-1.938-3.367-4.13-3.367-5.508 0-1.377 1.786-3.519 3.366-5.457 2.162-2.25 3.89-4.877 5.1-7.752.804-3.06 1.027-6.24.663-9.384-.312-2.065-.159-4.175.46-6.17 1.714-1.218 3.684-2.015 5.762-2.347 3.086-.586 6.044-1.727 8.721-3.366 2.398-1.989 4.418-4.386 5.967-7.089 1.275-1.989 2.856-4.437 4.08-5.1h.561c1.766.268 3.481.784 5.1 1.53 2.99 1.352 6.21 2.136 9.486 2.295 3.207-.172 6.35-.93 9.282-2.244 1.868-.95 3.927-1.46 6.018-1.479 1.224.408 2.703 2.754 4.08 5.1 1.511 2.652 3.481 5.017 5.814 6.987 2.652 1.69 5.591 2.881 8.67 3.519 2.079.331 4.049 1.128 5.763 2.346.619 1.995.772 4.105.46 6.17-.326 3.093-.084 6.223.713 9.232 1.212 2.875 2.94 5.501 5.1 7.752 1.581 1.938 3.366 4.13 3.366 5.457 0 1.326-2.09 3.57-3.672 5.508h.102z"/>
        <path d="M96.05 97.92c-1.786.395-3.5 1.052-5.1 1.938l-.256.255v33.763l-29.274-9.792c-1.065-.306-2.2-.306-3.264 0l-29.478 9.792V99.858c-1.6-.886-3.315-1.542-5.1-1.938-1.326-.357-2.703-.765-4.029-1.224-.389.689-.599 1.46-.612 2.244v42.024c.007 1.639.804 3.182 2.142 4.131 1.333.944 3.041 1.192 4.59.663l33.915-11.424 34.373 11.424c.523.198 1.071.306 1.632.306 1.352 0 2.652-.535 3.608-1.491.957-.957 1.492-2.257 1.492-3.609V98.94c-.013-.784-.223-1.555-.612-2.244-1.326.46-2.703.867-4.029 1.224h.001z"/>
    </g>
</svg>
