<svg xmlns="http://www.w3.org/2000/svg" width="22" height="26" viewBox="0 0 22 26">
    <g fill="#FFFFFF" fill-rule="evenodd">
        <path d="M21.195 3.024h-6.508V1.593c0-.81-.647-1.458-1.457-1.458H8.91c-.81 0-1.458.648-1.458 1.458V3.05l-6.507.001a.726.726 0 0 0-.729.729v3.617c0 .405.324.73.729.73H1.7L3.591 23.3c.189 1.431 1.404 2.537 2.863 2.537h9.18c1.457 0 2.7-1.08 2.862-2.537l1.89-15.174h.756a.726.726 0 0 0 .73-.729l-.002-3.645a.682.682 0 0 0-.675-.728zM8.91 1.593h4.32V3.05l-4.32.001V1.593zm8.181 21.492a1.434 1.434 0 0 1-1.43 1.269H6.48c-.73 0-1.35-.54-1.432-1.269L3.186 8.1h15.795l-1.89 14.985zm3.375-16.442H1.674v-2.16h18.792v2.16z"/>
        <path d="M7.776 22.14h.054a.728.728 0 0 0 .675-.783l-.756-10.26a.728.728 0 0 0-.783-.675.728.728 0 0 0-.675.783l.756 10.26c.027.378.35.675.73.675zM11.07 22.14a.726.726 0 0 0 .729-.729v-10.26a.726.726 0 0 0-.729-.729.726.726 0 0 0-.729.73v10.26c0 .404.324.728.729.728zM14.31 22.14h.054a.735.735 0 0 0 .729-.675l.756-10.26a.727.727 0 0 0-.675-.783.727.727 0 0 0-.783.675l-.756 10.26a.728.728 0 0 0 .675.783z"/>
    </g>
</svg>
