<svg xmlns="http://www.w3.org/2000/svg" width="18" height="18" viewBox="0 0 18 18">
    <path fill="#000" fill-rule="evenodd" d="M1.926 12.894A7.843 7.843 0 0 1 .003 7.521a7.835 7.835 0 0 1 2.224-5.255A7.583 7.583 0 0 1 8.32.032a.44.44 0 0 1 .393.347l.28 1.336a.288.288 0 0 1-.34.348A5.662 5.662 0 0 0 3.602 3.66a5.85 5.85 0 0 0-1.652 3.86 5.86 5.86 0 0 0 1.354 3.977l.18-.182a.471.471 0 0 1 .582-.071.504.504 0 0 1 .223.334l.471 2.247a.476.476 0 0 1-.556.565l-2.248-.477a.482.482 0 0 1-.238-.807l.209-.21zm12.143-.346a7.86 7.86 0 0 0 1.545-4.995 7.85 7.85 0 0 0-1.926-4.859l.206-.206a.483.483 0 0 0-.238-.808l-2.25-.47a.474.474 0 0 0-.469.168.483.483 0 0 0-.094.402l.475 2.243a.505.505 0 0 0 .224.333.472.472 0 0 0 .582-.07l.181-.183a5.861 5.861 0 0 1 1.357 3.981 5.858 5.858 0 0 1-1.655 3.866 5.678 5.678 0 0 1-5.063 1.597.288.288 0 0 0-.26.081.292.292 0 0 0-.078.265l.28 1.338a.442.442 0 0 0 .395.348 7.581 7.581 0 0 0 5.319-1.547l3.625 3.66c.406.41 1.065.41 1.47 0a1.056 1.056 0 0 0 0-1.485l-3.626-3.659zm-6.537-1.656c0 .28.225.508.503.508a.505.505 0 0 0 .503-.508v-.461C9.55 10.24 10.2 9.542 10.2 8.644c0-.897-.46-1.406-1.59-1.802-.826-.322-1.092-.503-1.092-.779 0-.308.276-.485.76-.485v.001a2.8 2.8 0 0 1 .814.117.551.551 0 0 0 .162.023.588.588 0 0 0 .574-.516.593.593 0 0 0-.424-.648 3.936 3.936 0 0 0-.82-.124v-.323A.505.505 0 0 0 8.08 3.6a.505.505 0 0 0-.502.508v.399C6.604 4.712 6 5.369 6 6.226c0 1.055.914 1.501 1.713 1.771.69.236.96.454.96.779s-.326.54-.852.54a3.043 3.043 0 0 1-.996-.18.574.574 0 0 0-.754.402l-.01.046H6.06a.596.596 0 0 0 .387.72c.352.113.716.18 1.085.2v.388z"/>
</svg>
