<svg xmlns="http://www.w3.org/2000/svg" width="20" height="20" viewBox="0 0 20 20">
    <path fill-rule="evenodd" d="M5.048 14.77l.509-1.134a.564.564 0 01.324-.3.539.539 0 01.439.037c.774.413 1.814.66 2.78.66 1.136 0 1.962-.464 1.962-1.103 0-.414-.239-.912-2.006-1.489-1.914-.602-3.865-1.481-3.865-3.453 0-1.497 1.088-2.667 2.91-3.13l.276-.07V3.55c0-.302.25-.55.553-.55h1.31c.305 0 .552.248.552.55v1.112l.324.04a6.698 6.698 0 012.102.584.537.537 0 01.284.314.538.538 0 01-.018.421l-.528 1.12a.56.56 0 01-.5.318.55.55 0 01-.23-.052c-.343-.16-1.146-.525-2.43-.525-1.166 0-1.686.45-1.686.901 0 .502.543.842 2.239 1.404C12.156 9.777 14 10.669 14 12.81c0 1.156-.8 2.711-3.058 3.28l-.276.075v1.281a.555.555 0 01-.553.554H8.782a.553.553 0 01-.553-.554v-1.174l-.328-.034c-1.018-.115-1.977-.392-2.622-.765a.548.548 0 01-.231-.703z"/>
</svg>
