<svg xmlns="http://www.w3.org/2000/svg" width="17" height="17" viewBox="0 0 17 17">
    <g fill="#000" fill-rule="evenodd">
        <path d="M13.399 15.186V1.814l1.942 1.753.838-.755L13.228.157a.627.627 0 0 0-.42-.157.627.627 0 0 0-.419.157L9.438 2.812l.838.755 1.942-1.753v13.372l-1.942-1.753-.838.755 2.951 2.655c.111.1.262.157.42.157a.627.627 0 0 0 .419-.157l2.951-2.655-.838-.755-1.942 1.753zM6.798 0H.618C.277 0 0 .238 0 .531v2.125h4.326V3.72H0v1.594h3.09v1.062H0v1.594h4.326V9.03H0v1.594h3.09v1.063H0v1.593h4.326v1.063H0v2.125c0 .14.065.276.18.376.117.1.274.155.438.155h6.18a.673.673 0 0 0 .437-.155c.116-.1.18-.235.18-.376V.53a.497.497 0 0 0-.18-.376A.673.673 0 0 0 6.798 0z"/>
    </g>
</svg>
