<svg xmlns="http://www.w3.org/2000/svg" width="20" height="20" viewBox="0 0 20 20">
    <g fill-rule="evenodd">
        <path d="M15.725 13.48l-2.178-5.13a.417.417 0 00-.38-.248h-3.63V9.9c0 .89-.726 1.633-1.633 1.633-.89 0-1.633-.726-1.633-1.633V8.102H2.64c-.166 0-.314.099-.38.247L.114 13.48a.442.442 0 00.033.38.409.409 0 00.347.182h14.85a.379.379 0 00.33-.182c.1-.115.1-.264.05-.38z" transform="translate(2 3)"/>
        <path d="M4.24 5.808h3.07v4.075c0 .33.28.61.61.61.33 0 .61-.28.61-.61V5.808h3.07c.23 0 .412-.182.412-.413V.561A.409.409 0 0011.6.148H4.24a.409.409 0 00-.412.413v4.834c0 .232.182.413.412.413zM5.857 1.65h4.109c.23 0 .412.182.412.413 0 .23-.182.412-.412.412H5.857a.409.409 0 01-.412-.412c.017-.231.198-.413.412-.413zm0 1.848h4.109c.23 0 .412.182.412.412 0 .231-.182.413-.412.413H5.857a.409.409 0 01-.412-.413c.017-.23.198-.412.412-.412z" transform="translate(2 3)"/>
    </g>
</svg>
