<svg xmlns="http://www.w3.org/2000/svg" width="20" height="20" viewBox="0 0 20 20">
    <path fill="#000" fill-rule="evenodd" d="M10 0C4.486 0 0 4.486 0 10s4.486 10 10 10 10-4.486 10-10S15.514 0 10 0zm9.298 11.772a1.274 1.274 0 0 1-.136-.163c-.082-.11-.23.153-.272.234a.781.781 0 0 0-.076.401c.017.144-.098.192-.186.24-.088.047-.098-.02-.174-.058-.077-.038-.262.024-.344.172-.082.148.028.487.01.492a.62.62 0 0 1-.327-.191 1.746 1.746 0 0 1-.3-.602c-.016-.106-.344-.377-.567-.444-.224-.067-.027.22.01.272.038.053.333.238.35.368.017.13-.29.582-.212.421.075-.163-.154-.239-.22-.363-.065-.124-.316-.258-.534-.468-.219-.21-.305-.01-.448-.067-.141-.057-.262.077-.393.048-.13-.028-.087.135-.098.287-.01.153-.076.077-.284.258-.207.182-.175.315-.294.381-.121.066-.36.126-.72.135-.36.01-.34-.144-.328-.307.01-.163.065-.381.174-.582.108-.2.687-.105.808-.134.12-.029.043-.192.043-.387 0-.196-.272-.295-.388-.364-.114-.066.115-.076.377-.133.262-.057.426-.172.491-.291.066-.12.382-.358.53-.45.147-.09.284-.123.392-.19.11-.067.314.114.314.114l.966-.136s.189-.093.221-.25c.033-.158.033-.18.156-.437.123-.258.647-.352.647-.387 0-.036-.23-.058-.573 0-.344.057-.279-.165-.344-.294-.066-.129 0-.186.188-.487s-.04-.122-.295-.108c-.253.015-.22.308-.294.387-.074.079-.099.15-.041.423.057.272-.27.881-.442.91-.172.028-.418-.416-.459-.473-.04-.057-.335.172-.54.172-.205 0-.205-.552-.074-.73.131-.18.587-.452.75-.758.164-.305.262-.554.58-.898.317-.344.632-.477 1.146-.458.513.019.032.162.186.229.045.02.162.05.309.087.12.254.228.514.322.779l-.03.003c-.217.012-.05.176.125.288.243.775.375 1.59.375 2.43a8.362 8.362 0 0 1-.077 1.08zm.077-.522c-.055.425-.123.84-.204 1.25-.256-.094-.405-.495-.42-.783-.015-.264.34-.393.624-.467zm-7.738-2.544c-.301.311-.78-1.128-.82-1.245-.041-.117-.125-.233.04-.564.167-.33.354-.915.105-1.002-.25-.088.04-.311.103-.642.062-.331-.197-.584-.27-.682-.073-.097-.228-.184-.562-.194-.332-.01-.186-.448-.186-.448s.08-.294-.033-.499c-.112-.204.455-.153.846-.153.39 0 .155-.153.093-.343-.062-.19.756-.496.865-.613.109-.117.475-.015.693 0 .188.013.945-.298 1.323-.446.298.14.588.295.867.462.155.192.433.43.654.463.033.004.06.013.087.022.055.039.107.078.16.118.052.095.016.226-.111.367a3.211 3.211 0 0 0-.592.895c-.176.398-.041 1.099-.312 1.372-.27.272-.352 1.06-.644 1.255-.29.194-.457.107-.738.175-.28.067-.322.331-.633.35-.311.019-.633 1.041-.935 1.352zm-2.89-4.813c.118.015.53.225.487.406-.045.18-.62 0-.958-.135-.34-.136 0-.437 0-.482 0-.045.118-.18.339-.21.22-.031.471-.212.516-.246.044-.033-.015-.252-.207-.327-.191-.075-.17-.248-.17-.324 0-.075.096-.353.133-.474.037-.12.221-.308.546-.593.324-.285 1.975-.257 1.975-.257s.405.173.464.459c.059.286-.781.707-.781.707s-.324.15-.649.241c-.324.09-.368.467-.412.482a.607.607 0 0 0-.264.27c-.085.166-.179.197-.311.317-.133.12-.236-.015-.457-.045-.221-.03-.369.195-.25.21zm6.027 6.243c-.035-.095-.348-.228-.394-.399-.045-.17.22-.36.22-.36.14-.02.4.218.4.218s-.008.17.073.351c.082.18.313.447.51.77s-.336.494-.81.532c-.475.038 0-.523.08-.637.083-.114-.044-.38-.08-.475zm-.004-.123c.377-.1.202.416.092.534-.111.117-.487.09-.487 0s.395-.534.395-.534zM7.1 19.51a4.063 4.063 0 0 1-.221-.6c-.46-1.604.057-1.247.152-1.366.097-.119.135-.514.135-.514s-.369.173-.714-.199c-.345-.37-.575-.668-.862-.757-.288-.09-.187-.341-.489-.282-.301.06-1.207-.119-1.38-.683-.172-.564-.387-.92-.531-1.113-.144-.193-.647-.668-.417-.268.23.401.316.95.316.95s-.488-.832-.517-1.105c-.029-.274-.23-.478-.388-.74s-.374-.84 0-1.88c.374-1.039-.227-.994-.206-1.069.02-.074.221-.326.164-.564-.058-.237-.259-.015-.302 0-.043.015-.072-.646-.1-.86-.03-.216-.151-.528-.223-.706-.036-.09-.157-.222-.267-.33a9.618 9.618 0 0 1 1.558-2.94c.09.07.158.135.182.182.107.215.194.349.294.364.1.014.122-.075.36-.097.237-.022.603-.223.747-.06.144.164.61.583.711.672.1.089.364.114.273.207-.09.094-.096.14-.024.179.072.039.302.104.302.104s.096.286.225.182c.13-.104.1-.326.1-.326s-.473-.03-.473-.134c0-.104-.345-.327-.216-.445.13-.119.36-.09.317-.223-.043-.134-.288-.267-.23-.386.057-.119-.173-.178-.216-.104-.043.074-.345.015-.273-.148.071-.164.028-.416.33-.564.302-.149.776-.238.82.059.042.297.014.4.114.49.1.089.086.252.173.178.086-.074.115.252.158.193.043-.06.445-.609.474-.371.029.237-.1.386-.13.55-.028.162-.23.192-.157.296.071.104.33.238.115.371-.216.134-.13.253-.288.253-.158 0-.374 0-.273.103.1.104.259.238.259.238s.359.055.484-.084c.124-.139.057-.268.201-.386.144-.12.106-.396.307-.514.201-.12.344.108.297.375-.049.268-.038.297.009.416.048.119.172.09.192.248.02.157-.067.247.02.257.086.01.286-.149.325-.287.037-.14.009-.337.009-.337s-.278-.04-.192-.356c.087-.316.287-.564.412-.634.124-.068.287-.208.267-.068-.018.138.03.128.298.098.267-.03.335-.03.43.198.096.228.039.327.192.465.154.139.326.287.355.346.029.06-.077.287-.058.535.02.248.02.169.144.307.124.138.345.288.288.366a6.092 6.092 0 0 1-.27.307s-.334-.327-.344-.228c-.009.1.25.456.192.624-.057.168-.278.455-.402.316-.124-.138-.374-.583-.451-.573-.076.01-.555 0-.517-.13.038-.128.278-.198.412-.217.134-.02.048-.247.21-.306.164-.06.135-.407.077-.545-.057-.138-.134-.376-.172-.346-.039.03-.164-.098-.287 0-.125.098-.164-.02-.164.108 0 .13.124.139-.009.297-.135.159-.182.12-.22.238-.039.119-.423.05-.518.218-.095.168 0 .247.02.306.018.06.248.297.114.327-.134.03-.258.089-.258.119s-.211-.11-.135-.268c.077-.157.049-.297-.009-.217-.057.079-.91.584-1.063.9-.154.318-.154.426-.106.575.048.148-.029.286.057.286.086 0 .25 0 .336.09.086.088.01.178.163.228.153.049.153.08.258.148.106.069.164-.01.183.069.019.08-.154.128-.106.267.048.14.134.436.316.466.181.03-.038-.505.106-.604.144-.1.555-.397.469-.713-.087-.316.066-.287.134-.435.067-.149-.172-.535.02-.525.191.01.709.267.728.555.019.286.019.297.066.356.049.06.182.138.259.039.077-.098.143-.317.22-.178.077.139.125.544.163.673.039.128.427.4.484.618.058.22-.143.56.044.665.186.104.373.445.23.445-.144 0-.733-.074-.676-.148.058-.075.216-.312.225-.411.01-.1-.02-.06-.22-.01-.202.05-.68-.07-.785.01-.106.08-.02.124.062.232.081.11-.015.144.024.238.037.094.11.174.196.193.087.02.124-.119.206-.05.082.07-.34.324-.455.417-.115.093-.262.115-.216 0 .047-.115-.025-.17-.072-.133-.046.037-.388.107-.46.331-.071.223-.344.252-.46.445-.114.193-.258.654-.488.861-.23.208-.733.253-.704.58.03.326-.072.86-.086.742-.015-.119.043-.446-.259-.535-.302-.089-.532-.104-.675-.03-.144.075-.762-.155-.956.38-.194.534.029.586.014.8-.014.216.065.32.324.35.258.03.345-.334.51-.35.165-.014.36-.014.273.142-.086.156-.395.564-.209.616.187.052.51-.17.604.097.093.267-.05.497.05.564.1.066.187.282.27.311.082.03.18-.148.237-.089.057.06.172.123.208.112.036-.011.165-.137.165-.137s.402-.376.612-.297c.211.08.383.128.767.143.383.016.44.114.69.352.25.238 0 .217.498.276.34.041.323.37.45.592a.388.388 0 0 0 .316.2c.538.06.768.178 1.073.297.307.119.824.297.747.633-.073.325-.467.668-.51.905a8.958 8.958 0 0 1-1.976.223 8.97 8.97 0 0 1-2.905-.489zm9.143-2.636a.234.234 0 0 1-.145-.09c-.141-.19.721-.548-.7-.16-1.424.387-1.424 0-1.925-.445-.502-.445-.3-.523-.341-1.356-.04-.833.682-.988.983-1.44.3-.45.622-.671 1.783-.846 1.163-.174.742.291.742.462 0 .17 1.122.45 1.122.372 0-.078-.14-.407.12-.369.075.021.492.09.868.151a9.341 9.341 0 0 1-2.507 3.721z"/>
</svg>
