<svg xmlns="http://www.w3.org/2000/svg" width="20" height="20" viewBox="0 0 20 20">
    <path fill-rule="evenodd" stroke="#000" stroke-width=".5" d="M17.416 14.846h-1.368V4.954L17.88 3.24a.698.698 0 00.037-.978.677.677 0 00-.965-.038l-1.653 1.546H4.42V1.693A.688.688 0 003.737 1a.688.688 0 00-.684.693V3.77H1.684v-.001A.688.688 0 001 4.46c0 .383.306.693.684.693h1.368v11.077H14.68v2.077h.001c0 .382.306.692.684.692.378 0 .684-.31.684-.693v-2.076h1.368c.378 0 .684-.31.684-.692a.688.688 0 00-.684-.693h0zM13.82 5.153l-9.4 8.802V5.154h9.4zm-8.337 9.693l9.197-8.61v8.61H5.483z"/>
</svg>
