<svg xmlns="http://www.w3.org/2000/svg" width="20" height="20" viewBox="0 0 20 20">
    <path fill-rule="evenodd" d="M15.179 9.547c.962 2.6-1.804 4.49-3.848 3.663-.842 1.773-1.202 3.782-.24 5.79H8.566c.842-1.536.961-3.309-.121-5.553-2.765 1.3-5.41-1.89-3.608-4.372-1.683-1.654-.721-4.372 1.924-4.372.12-3.663 5.65-3.545 5.771 0 2.885-.472 4.57 2.836 2.645 4.844h.002zm-4.329 3.427c-.12-.119-.361-.236-.48-.355l.12 1.3.361-.945zm-1.323-.355c-.12.236-.36.473-.601.591.24.355.36.71.48 1.064l.121-1.654z"/>
</svg>
