<svg xmlns="http://www.w3.org/2000/svg" width="20" height="20" viewBox="0 0 20 20">
    <g fill-rule="evenodd">
        <path d="M2.624 5.856H.352a.27.27 0 00-.272.272v3.808c0 .16.128.272.272.272h2.272a.27.27 0 00.272-.272V6.144c.016-.16-.112-.288-.272-.288zM6.752 2.656H4.48a.27.27 0 00-.272.272v7.008c0 .16.128.272.272.272h2.272a.27.27 0 00.272-.272V2.944c.016-.16-.112-.288-.272-.288zM15.008 3.776h-2.272a.27.27 0 00-.272.272v5.888c0 .16.129.272.272.272h2.272a.27.27 0 00.272-.272V4.048a.28.28 0 00-.272-.272zM10.88.016H8.608a.27.27 0 00-.272.272v9.648c0 .16.128.272.272.272h2.272a.27.27 0 00.272-.272V.288a.28.28 0 00-.272-.272z" transform="translate(2 5)"/>
    </g>
</svg>
