<svg xmlns="http://www.w3.org/2000/svg" width="20" height="20" viewBox="0 0 20 20">
    <path fill-rule="evenodd" d="M15.992 11.697a.494.494 0 01-.1.287c-.334.423-.796.628-1.293.755a3.936 3.936 0 01-2.856-.277c-.087-.045-.17-.103-.253-.16-.345-.223-.57-.494-.504-.96a8.05 8.05 0 00.009-1.062c-.381-.058-.758-.133-1.137-.17a8.59 8.59 0 00-2.445.09 3.228 3.228 0 00-1.244.469.366.366 0 00-.183.333V18H5V2.48c0-.265.21-.48.467-.48h.053c.257 0 .466.215.466.48v1.082c.708-.74 1.604-.91 2.532-.988a5.37 5.37 0 012.411.32c.354.133.679.333.959.591a.3.3 0 01.109.247v1.426c1.388.291 2.735.33 4.003-.48v.138l-.008 6.882z"/>
</svg>
