<svg xmlns="http://www.w3.org/2000/svg" width="16" height="16" viewBox="0 0 16 16">
    <g fill="#000" fill-rule="nonzero">
        <path d="M13.887 2.872h.472c.574 0 1.026-.451 1.026-1.026 0-.574-.452-1.025-1.026-1.025h-3.077c-.574 0-1.026.45-1.026 1.025v2.872c0 .574.452 1.026 1.026 1.026.574 0 1.026-.452 1.026-1.026v-.554a5.855 5.855 0 0 1 1.518 3.918c0 3.2-2.605 5.826-5.826 5.826-.574 0-1.026.451-1.026 1.025 0 .575.452 1.026 1.026 1.026a7.879 7.879 0 0 0 7.877-7.877 7.859 7.859 0 0 0-1.99-5.21zM4.718 10.462c-.574 0-1.026.45-1.026 1.025v.492a5.816 5.816 0 0 1-1.518-3.917c0-3.2 2.605-5.826 5.826-5.826.574 0 1.026-.451 1.026-1.026C9.026.636 8.574.185 8 .185A7.879 7.879 0 0 0 .123 8.062c0 1.969.739 3.835 2.01 5.25h-.492c-.574 0-1.026.452-1.026 1.026 0 .575.452 1.026 1.026 1.026h3.077c.574 0 1.026-.451 1.026-1.026v-2.871c0-.554-.452-1.005-1.026-1.005z"/>
    </g>
</svg>
