<svg xmlns="http://www.w3.org/2000/svg" width="20" height="20" viewBox="0 0 20 20">
    <g fill="#1D1D1B" fill-rule="evenodd">
        <path d="M4.861 11.87c-.038.017-.08.028-.113.053-.398.3-.794.603-1.191.905-.587.446-1.176.89-1.76 1.34-.085.066-.125.057-.185-.03A9.256 9.256 0 01.478 11.89c-.056-.16-.048-.175.112-.22 1.168-.335 2.337-.668 3.504-1.006.102-.03.142-.011.189.088.16.34.334.674.503 1.01l.036.065.04.044zM7.885 13.987l-.13.713-.559 2.963c-.03.165-.04.168-.21.13a9.265 9.265 0 01-1.972-.705c-.124-.06-.243-.131-.366-.194-.079-.04-.098-.081-.045-.166.416-.668.828-1.34 1.242-2.01.235-.38.472-.762.705-1.144.05-.082.088-.1.189-.059.339.142.687.263 1.03.396.046.018.085.055.116.076M0 9.02l.029-.496c.004-.094.055-.122.141-.113.6.057 1.2.115 1.8.169.517.046 1.034.088 1.551.132l.3.026c.094.007.136.049.143.15.028.371.063.742.104 1.112.01.085-.01.12-.091.143-1.19.34-2.378.68-3.567 1.024-.1.029-.15.006-.164-.1-.07-.492-.146-.984-.21-1.477C.011 9.4.011 9.205 0 9.02M9.062 18.047c-.435-.035-.835-.07-1.235-.1-.11-.009-.128-.06-.11-.16.187-.98.37-1.96.555-2.94.04-.214.086-.427.118-.643.018-.127.077-.161.2-.16.36 0 .719-.009 1.077-.02.1-.003.119.057.133.132l.251 1.334c.143.753.283 1.507.43 2.26.022.116.005.168-.126.178-.441.035-.882.08-1.293.12M3.879 8.206c-.404-.036-.804-.07-1.204-.107l-1-.092L.363 7.89l-.038-.005c-.25-.024-.248-.024-.21-.271a9.055 9.055 0 01.691-2.32c.044-.097.09-.116.183-.07 1.11.557 2.22 1.112 3.33 1.665.076.038.074.08.051.151-.11.343-.218.686-.315 1.033-.03.105-.07.156-.176.134M12.569.71c.066.027.106.04.144.058.73.338 1.413.752 2.037 1.261.026.022.049.047.075.067.082.064.074.117.003.194-.464.5-.923 1.005-1.384 1.508-.371.405-.744.807-1.111 1.215-.063.069-.107.065-.18.018-.313-.202-.628-.4-.947-.593-.077-.046-.066-.096-.043-.158l.32-.834L12.486.841c.019-.048.056-.089.083-.131M6.144 13.204c-.012.026-.023.053-.038.078-.647 1.048-1.297 2.095-1.942 3.145-.061.1-.102.108-.202.041a9.714 9.714 0 01-1.325-1.095c-.189-.184-.353-.392-.532-.586-.076-.083-.072-.135.024-.207.71-.533 1.417-1.072 2.125-1.61.27-.205.54-.41.808-.62.079-.061.122-.051.197.022.255.247.524.48.79.715.037.033.088.05.132.074l-.037.043M5.462 5.385c-.017.026-.03.051-.048.073-.233.301-.469.6-.698.904-.051.068-.093.077-.167.04a934.188 934.188 0 00-3.322-1.648c-.099-.048-.109-.102-.052-.184.3-.437.59-.884.908-1.309.185-.246.417-.457.626-.685.07-.078.119-.088.2.002.304.344.622.678.932 1.018.473.52.943 1.042 1.415 1.563.048.053.1.101.15.153.02.02.035.045.056.073M16.105 14.572c-.043.066-.064.107-.093.142a9.538 9.538 0 01-1.827 1.696c-.095.067-.144.058-.205-.042-.631-1.028-1.267-2.054-1.901-3.08-.102-.165-.094-.156.052-.289.254-.23.5-.469.743-.71.065-.066.107-.068.178-.015.97.733 1.942 1.462 2.913 2.193l.14.105M13.43 6.544c-.015-.035-.023-.075-.045-.104a74.679 74.679 0 00-.69-.91c-.044-.056-.036-.091.008-.139.32-.343.64-.686.956-1.031.503-.55 1.005-1.1 1.504-1.653.153-.17.15-.176.311-.01a9.252 9.252 0 011.453 1.948c.047.083.039.133-.052.178-1.112.55-2.223 1.102-3.335 1.653-.022.011-.045.02-.068.03l-.042.038M10.307 13.951c.02-.017.046-.054.082-.069.347-.144.697-.282 1.044-.428.08-.034.121-.013.163.056.449.732.9 1.463 1.35 2.194.198.32.395.642.598.96.051.081.049.126-.042.177a9.203 9.203 0 01-2.303.92c-.157.04-.165.036-.194-.115l-.683-3.618-.015-.077M8.794 1.985v1.798c0 .164-.005.151-.168.176-.335.051-.668.113-1 .185-.103.023-.146.01-.185-.091A792.57 792.57 0 006.108.62c-.04-.103-.016-.152.089-.185A9.03 9.03 0 018.212.027c.142-.012.284-.014.426-.026.122-.01.159.043.158.16-.004.608-.002 1.216-.002 1.824M14.158 8.261c-.092.02-.123-.045-.15-.145-.09-.336-.185-.67-.29-1-.034-.104.01-.132.085-.17.702-.348 1.403-.7 2.104-1.05.397-.199.796-.395 1.191-.598.1-.052.146-.036.19.067.329.771.56 1.57.678 2.4.014.1-.009.136-.11.145-.621.055-1.242.115-1.862.175-.58.055-1.158.113-1.737.17l-.1.006M5.54.693c.022.033.05.066.066.103.235.602.469 1.203.702 1.805.211.547.42 1.096.635 1.641.038.097.014.137-.072.187-.303.177-.602.362-.899.55-.063.04-.102.052-.16-.011-.432-.478-.867-.953-1.302-1.43l-.865-.943c-.113-.124-.226-.248-.343-.368-.077-.08-.07-.148.018-.207.461-.31.918-.63 1.39-.926.232-.146.493-.247.741-.367.023-.011.047-.018.09-.034M18.057 8.95c-.02.743-.082 1.417-.237 2.08-.034.147-.048.158-.198.115l-3.31-.95c-.076-.022-.152-.049-.23-.066-.085-.018-.096-.064-.087-.146.039-.36.073-.723.1-1.085.006-.08.046-.09.101-.097a353.636 353.636 0 011.898-.184l1.474-.134c.113-.01.226-.015.337-.034.09-.015.123.012.126.101.006.155.02.31.026.4M9.346 1.98V.18c0-.173.005-.184.175-.177.605.023 1.2.12 1.785.272.198.051.391.124.59.176.123.032.136.09.093.199-.188.476-.37.953-.554 1.43-.251.653-.504 1.306-.751 1.96-.046.122-.106.142-.228.113-.322-.074-.646-.14-.972-.192-.11-.018-.14-.056-.14-.159.003-.608.002-1.215.002-1.823M13.871 10.628l.749.214 2.852.819c.155.044.164.06.112.21a9.314 9.314 0 01-1.066 2.157c-.064.094-.105.112-.203.038-.975-.74-1.952-1.477-2.932-2.21-.093-.07-.087-.12-.038-.216.152-.289.288-.586.433-.878.025-.052.066-.096.093-.134" transform="translate(1 1)"/>
    </g>
</svg>
