<svg width="17" height="16" viewBox="0 0 17 16" fill="none" xmlns="http://www.w3.org/2000/svg">
<path fill-rule="evenodd" clip-rule="evenodd" d="M8.6665 16C4.2465 16 0.666504 12.42 0.666504 8C0.666504 3.58 4.2465 0 8.6665 0C13.0865 0 16.6665 3.58 16.6665 8C16.6665 12.42 13.0865 16 8.6665 16Z" fill="currentColor"/>
<path d="M11.9322 5.2089C12.2164 4.93037 12.6663 4.93037 12.9503 5.2089C13.2345 5.48745 13.2345 5.95182 12.974 6.23036L7.931 11.2911C7.64682 11.5696 7.19696 11.5696 6.91289 11.2911L4.37956 8.73751C4.09549 8.45888 4.09549 7.99459 4.37956 7.71606C4.66373 7.43753 5.11359 7.43753 5.39767 7.71606L7.41012 9.75893L11.9322 5.2089Z" fill="white"/>
</svg>
