<svg width="16" height="16" viewBox="0 0 16 16" fill="none" xmlns="http://www.w3.org/2000/svg">
<path fill-rule="evenodd" clip-rule="evenodd" d="M8 16C3.58 16 0 12.42 0 8C0 3.58 3.58 0 8 0C12.42 0 16 3.58 16 8C16 12.42 12.42 16 8 16Z" fill="#27A9E0"/>
<path fill-rule="evenodd" clip-rule="evenodd" d="M7.79997 3C8.24176 3 8.59994 3.39798 8.59994 3.88887L8.59994 7.38179C8.59994 7.63096 8.60076 7.75748 8.60832 7.84783L8.60876 7.85234L8.61188 7.85519C8.67532 7.91227 8.76963 7.98317 8.95619 8.12144L10.6437 9.37136C11.0113 9.64371 11.1106 10.1956 10.8656 10.604C10.6205 11.0125 10.1237 11.1229 9.75618 10.8506L8.06872 9.6006C8.06134 9.59518 8.05403 9.58977 8.04672 9.58435C7.89141 9.46935 7.73316 9.35219 7.6046 9.23645C7.45711 9.10367 7.3043 8.93513 7.18937 8.69638C7.07431 8.4577 7.03288 8.22284 7.01525 8.01293C6.99994 7.8298 7 7.61855 7 7.41127L7 7.38182L7 3.88891C7 3.39802 7.35818 3.00003 7.79997 3.00003L7.79997 3Z" fill="white"/>
</svg>
