<svg width="16" height="16" viewBox="0 0 16 16" fill="none" xmlns="http://www.w3.org/2000/svg">
<path fill-rule="evenodd" clip-rule="evenodd" d="M8 16C3.58 16 0 12.42 0 8C0 3.58 3.58 0 8 0C12.42 0 16 3.58 16 8C16 12.42 12.42 16 8 16Z" fill="#5A5A5A"/>
<path d="M11.135 6.70685L9.27466 4.86575L9.88749 4.25205C10.0553 4.08402 10.2614 4 10.5058 4C10.7502 4 10.9563 4.08402 11.1241 4.25205L11.7369 4.86575C11.9047 5.03379 11.9922 5.23653 11.9995 5.47397C12.0068 5.71142 11.9266 5.91416 11.7588 6.08219L11.135 6.70685ZM4.43773 12C4.31371 12 4.20975 11.958 4.12585 11.874C4.04195 11.79 4 11.6858 4 11.5616V10.3233C4 10.2648 4.01094 10.2082 4.03283 10.1534C4.05472 10.0986 4.08755 10.0493 4.13132 10.0055L8.63995 5.49041L10.5003 7.35342L5.99168 11.8685C5.94791 11.9123 5.89866 11.9452 5.84394 11.9671C5.78923 11.989 5.73269 12 5.67432 12H4.43773Z" fill="white"/>
</svg>
