<svg width="16" height="16" viewBox="0 0 16 16" fill="none" xmlns="http://www.w3.org/2000/svg">
<path d="M8 0C5.87825 0 3.8435 0.84285 2.34316 2.34316C0.842819 3.84347 0 5.87825 0 8C0 10.1218 0.84285 12.1565 2.34316 13.6568C3.84347 15.1572 5.87825 16 8 16C10.1218 16 12.1565 15.1572 13.6568 13.6568C15.1572 12.1565 16 10.1218 16 8C16 5.87825 15.1572 3.8435 13.6568 2.34316C12.1565 0.842819 10.1218 0 8 0Z" fill="#D50000"/>
<path d="M7.2929 12.7337C7.4804 12.9042 7.73476 13 8 13C8.26522 13 8.51959 12.9042 8.7071 12.7337C8.89461 12.5633 9 12.332 9 12.0909C9 11.8498 8.8946 11.6186 8.7071 11.4481C8.5196 11.2776 8.26522 11.1818 8 11.1818C7.73478 11.1818 7.48041 11.2776 7.2929 11.4481C7.10539 11.6185 7 11.8498 7 12.0909C7 12.332 7.1054 12.5633 7.2929 12.7337Z" fill="white"/>
<path d="M8.5 10.1509C8.80938 9.98857 9 9.68842 9 9.36364V6.63638V3.90911C9 3.58433 8.80938 3.28418 8.5 3.12182C8.19062 2.95939 7.80938 2.95939 7.5 3.12182C7.19062 3.28418 7 3.58433 7 3.90911V9.36364C7 9.68842 7.19062 9.98858 7.5 10.1509C7.80938 10.3134 8.19062 10.3134 8.5 10.1509Z" fill="white"/>
</svg>
