<svg xmlns="http://www.w3.org/2000/svg" width="17" height="17" viewBox="0 0 17 17">
    <path fill="#9B9B9B" fill-rule="evenodd" d="M8.35 0c2.267 0 2.552.01 3.442.05.889.04 1.496.182 2.027.388.549.214 1.015.5 1.479.963.464.465.75.93.963 1.48.206.53.347 1.137.388 2.026.04.89.05 1.175.05 3.443 0 2.267-.01 2.552-.05 3.442-.04.889-.182 1.496-.388 2.027a4.093 4.093 0 0 1-.963 1.479c-.464.464-.93.75-1.48.963-.53.206-1.137.347-2.026.388-.89.04-1.175.05-3.442.05-2.268 0-2.552-.01-3.443-.05-.889-.04-1.496-.182-2.027-.388a4.093 4.093 0 0 1-1.479-.963 4.093 4.093 0 0 1-.963-1.48c-.206-.53-.347-1.137-.388-2.026C.01 10.902 0 10.617 0 8.35c0-2.268.01-2.552.05-3.443.04-.889.182-1.496.388-2.027.214-.549.5-1.014.963-1.479.465-.464.93-.75 1.48-.963C3.41.232 4.017.091 4.906.05 5.797.01 6.082 0 8.35 0zm0 1.504c-2.23 0-2.494.009-3.374.05-.814.036-1.257.172-1.55.287-.39.151-.669.332-.96.624-.293.292-.474.57-.625.96-.115.294-.25.737-.288 1.55-.04.881-.049 1.145-.049 3.375 0 2.229.009 2.493.05 3.374.036.814.172 1.256.287 1.55.151.39.332.668.624.96.292.292.57.473.96.625.294.114.737.25 1.55.287.881.04 1.145.049 3.375.049s2.493-.009 3.374-.049c.814-.037 1.256-.173 1.55-.287.39-.152.668-.333.96-.625.292-.292.473-.57.625-.96.114-.294.25-.736.287-1.55.04-.88.049-1.145.049-3.374 0-2.23-.009-2.494-.049-3.374-.037-.814-.173-1.257-.287-1.55a2.587 2.587 0 0 0-.625-.96 2.587 2.587 0 0 0-.96-.625c-.294-.115-.736-.25-1.55-.288-.88-.04-1.145-.049-3.374-.049zm0 2.558a4.288 4.288 0 1 1 0 8.575 4.288 4.288 0 0 1 0-8.575zm0 7.07a2.783 2.783 0 1 0 0-5.566 2.783 2.783 0 0 0 0 5.567zm5.459-7.24a1.002 1.002 0 1 1-2.004 0 1.002 1.002 0 0 1 2.004 0z"/>
</svg>
