<svg xmlns="http://www.w3.org/2000/svg" width="128" height="128" viewBox="0 0 128 128">
    <path fill="#27A9E0" fill-rule="evenodd" d="M120 0a8 8 0 0 1 8 8v112a8 8 0 0 1-8 8H8a8 8 0 0 1-8-8V8a8 8 0 0 1 8-8h112zM86.52 48c-9.619 0-16.021 4.501-18.52 9.51V48.8H50.667v61.333h18.666V80.424c0-9.957 3.667-16.29 12.48-16.29 6.355 0 8.854 5.874 8.854 16.29v29.71h18.666V76.258C109.333 57.968 104.957 48 86.52 48zm-49.187 0H18.667v61.333h18.666V48zM28 16c-6.627 0-12 5.373-12 12s5.373 12 12 12 12-5.373 12-12-5.373-12-12-12z"/>
</svg>
