<svg xmlns="http://www.w3.org/2000/svg" width="17" height="14" viewBox="0 0 17 14">
    <path fill="#27A9E0" fill-rule="evenodd" d="M16.7 1.647a6.692 6.692 0 0 1-1.968.553A3.505 3.505 0 0 0 16.239.257a6.748 6.748 0 0 1-2.177.852A3.379 3.379 0 0 0 11.562 0C9.67 0 8.135 1.573 8.135 3.513c0 .275.03.543.089.8C5.377 4.166 2.853 2.769 1.162.641A3.577 3.577 0 0 0 .7 2.41c0 1.219.605 2.294 1.524 2.924A3.364 3.364 0 0 1 .67 4.895v.043c0 1.703 1.182 3.123 2.75 3.445-.287.082-.59.123-.903.123-.22 0-.436-.02-.645-.062.436 1.395 1.7 2.411 3.2 2.439A6.765 6.765 0 0 1 0 12.339a9.539 9.539 0 0 0 5.252 1.577c6.302 0 9.748-5.352 9.748-9.995 0-.153-.003-.306-.01-.455a7.032 7.032 0 0 0 1.71-1.819"/>
</svg>
