<svg xmlns="http://www.w3.org/2000/svg" width="17" height="17" viewBox="0 0 17 17">
    <path fill="#27A9E0" fill-rule="evenodd" d="M8.4 0C6.172 0 4.035.885 2.46 2.46.885 4.037 0 6.173 0 8.4s.885 4.365 2.46 5.94c1.576 1.575 3.712 2.46 5.94 2.46s4.365-.885 5.94-2.46c1.575-1.575 2.46-3.712 2.46-5.94-.003-2.227-.889-4.362-2.464-5.936C12.762.889 10.627.003 8.4 0zM1.072 8.922h2.294c.044.989.24 1.965.582 2.893H1.89c-.47-.897-.748-1.882-.818-2.893zm7.85-4.981V1.483c.902.67 1.67 1.503 2.263 2.458H8.922zm2.785 1.044c.393.917.621 1.897.672 2.893H8.898V4.985h2.809zm-3.83-3.509v2.465H5.616c.587-.96 1.356-1.797 2.263-2.465zm0 3.51v2.892h-3.48c.048-.996.272-1.975.66-2.893h2.82zM3.353 7.877h-2.28c.07-1.01.35-1.996.822-2.893H3.95c-.343.929-.54 1.904-.585 2.893h-.014zm1.045 1.044h3.48v2.893H5.076c-.39-.918-.615-1.897-.665-2.893h-.013zm3.48 3.937v2.465c-.906-.667-1.675-1.505-2.262-2.465h2.263zm1.045 2.465v-2.465h2.263c-.588.96-1.356 1.798-2.263 2.465zm0-3.509V8.922h3.481c-.049.996-.272 1.975-.661 2.893h-2.82zm4.525-2.893h2.295c-.071 1.01-.35 1.996-.822 2.893h-2.068c.342-.929.538-1.904.582-2.893h.013zm0-1.044c-.043-.989-.239-1.964-.581-2.893h2.043c.472.898.752 1.883.822 2.893h-2.297.013zm.801-3.937h-1.845c-.517-.983-1.2-1.869-2.019-2.618 1.533.433 2.883 1.352 3.85 2.618h.014zM6.43 1.323c-.819.75-1.502 1.635-2.019 2.618H2.565c.97-1.268 2.326-2.187 3.864-2.618zM2.565 12.859H4.41c.517.983 1.2 1.869 2.02 2.618-1.539-.43-2.894-1.35-3.865-2.618zm7.808 2.618c.82-.75 1.503-1.635 2.02-2.618h1.845c-.972 1.27-2.33 2.188-3.868 2.618h.003z"/>
</svg>
