<svg xmlns="http://www.w3.org/2000/svg" width="398" height="225" viewBox="0 0 398 225">
    <g fill="none" fill-rule="evenodd">
        <path fill="#AEAEAE" d="M285.426 0c62.092 0 112.426 50.335 112.426 112.426 0 62.092-50.334 112.426-112.426 112.426-62.091 0-112.426-50.334-112.426-112.426C173 50.335 223.335 0 285.426 0zm6.155 46.844H280.68c-2.515 0-4.606 2.165-4.606 4.81V62.48l-2.299.615c-15.17 4.045-24.23 14.28-24.23 27.362 0 17.245 16.244 24.936 32.185 30.201 14.715 5.038 16.71 9.393 16.71 13.016 0 5.585-6.882 9.654-16.342 9.654-8.05 0-16.71-2.165-23.158-5.78a4.321 4.321 0 0 0-2.18-.58c-.488 0-.984.1-1.473.26a4.794 4.794 0 0 0-2.7 2.62l-4.237 9.914c-.953 2.291-.152 4.936 1.923 6.15 5.374 3.26 13.36 5.686 21.836 6.688l2.731.295v10.27c0 2.678 2.059 4.843 4.606 4.843h11.086c2.516 0 4.606-2.165 4.606-4.844V161.96l2.3-.649c18.8-4.98 25.465-18.575 25.465-28.684 0-18.726-15.356-26.519-30.408-31.683-14.122-4.91-18.64-7.885-18.64-12.274 0-3.942 4.326-7.885 14.034-7.885 10.695 0 17.383 3.202 20.243 4.592a4.406 4.406 0 0 0 1.906.454c1.779 0 3.405-1.103 4.174-2.78l4.39-9.789a4.916 4.916 0 0 0 .152-3.68 4.624 4.624 0 0 0-2.363-2.747c-5.28-2.62-11.023-4.296-17.503-5.105l-2.7-.354v-9.721c0-2.646-2.058-4.81-4.606-4.81z"/>
        <path fill="#9B9B9B" d="M112.5 225c62.132 0 112.5-50.368 112.5-112.5S174.632 0 112.5 0 0 50.368 0 112.5 50.368 225 112.5 225zm45.696-122.268c8.125 22.465-15.24 38.81-32.509 31.659-7.114 15.32-10.156 32.682-2.031 50.038h-21.333c7.114-13.278 8.125-28.6-1.02-47.996-23.363 11.237-45.709-16.337-30.48-37.784-14.218-14.295-6.093-37.785 16.251-37.785 1.02-31.658 47.74-30.642 48.76 0 24.376-4.084 38.605 24.505 22.346 41.868h.016zm-36.572 29.616c-1.02-1.025-3.052-2.042-4.063-3.067l1.02 11.236 3.051-8.169h-.008zm-11.177-3.067c-1.02 2.042-3.051 4.084-5.083 5.11 2.032 3.067 3.052 6.126 4.063 9.193l1.02-14.295v-.008z"/>
    </g>
</svg>
