<svg xmlns="http://www.w3.org/2000/svg" width="225" height="225" viewBox="0 0 225 225">
    <path fill="#000" fill-rule="evenodd" d="M112.32 224.64c62.033 0 112.32-50.287 112.32-112.32C224.64 50.287 174.353 0 112.32 0 50.287 0 0 50.287 0 112.32c0 62.033 50.287 112.32 112.32 112.32zM82.82 85.182c3.46 0 6.263 2.876 6.263 6.424l.008 36.413h-.009c0 3.499-2.732 6.334-6.128 6.415v27.622c0 3.548-2.748 6.424-6.128 6.424h-8.41c-3.388 0-6.136-2.876-6.136-6.424l.008-27.622c-3.396-.073-6.128-2.908-6.128-6.415V91.606c0-3.548 2.803-6.424 6.262-6.424h20.399zm39.691 0c3.46 0 6.263 2.876 6.263 6.424l.007 36.413c0 3.499-2.732 6.334-6.128 6.415v27.622c0 3.548-2.74 6.424-6.128 6.424h-8.41c-3.388 0-6.136-2.876-6.136-6.424v-27.622c-3.396-.073-6.128-2.908-6.128-6.415V91.606c0-3.548 2.803-6.424 6.262-6.424h20.398zm39.699 0c3.459 0 6.262 2.876 6.262 6.424l.008 36.413h-.008c0 3.499-2.733 6.334-6.128 6.415v27.622c0 3.548-2.748 6.424-6.136 6.424h-8.41c-3.389 0-6.137-2.876-6.137-6.424l.016-27.622c-3.396-.073-6.128-2.908-6.128-6.415V91.606c0-3.548 2.803-6.424 6.262-6.424h20.399zM152.006 56.16c7.384 0 13.362 6.14 13.362 13.706s-5.986 13.706-13.362 13.706c-7.383 0-13.361-6.14-13.361-13.706s5.985-13.706 13.361-13.706zm-39.69 0c7.383 0 13.37 6.14 13.37 13.706s-5.986 13.706-13.37 13.706c-7.384 0-13.362-6.14-13.362-13.706s5.978-13.706 13.362-13.706zm-39.69 0c7.383 0 13.36 6.14 13.36 13.706s-5.985 13.706-13.36 13.706c-7.384 0-13.363-6.14-13.363-13.706-.008-7.566 5.978-13.706 13.362-13.706z" opacity=".316"/>
</svg>
