<svg xmlns="http://www.w3.org/2000/svg" width="225" height="225" viewBox="0 0 225 225">
    <path fill="#000" fill-rule="evenodd" d="M112.426 0c62.092 0 112.426 50.335 112.426 112.426 0 62.092-50.334 112.426-112.426 112.426C50.335 224.852 0 174.518 0 112.426 0 50.335 50.335 0 112.426 0zm6.155 46.844H107.68c-2.515 0-4.606 2.165-4.606 4.81V62.48l-2.299.615c-15.17 4.045-24.23 14.28-24.23 27.362 0 17.245 16.244 24.936 32.185 30.201 14.715 5.038 16.71 9.393 16.71 13.016 0 5.585-6.882 9.654-16.342 9.654-8.05 0-16.71-2.165-23.158-5.78a4.321 4.321 0 0 0-2.18-.58c-.488 0-.984.1-1.473.26a4.794 4.794 0 0 0-2.7 2.62l-4.237 9.914c-.953 2.291-.152 4.936 1.923 6.15 5.374 3.26 13.36 5.686 21.836 6.688l2.731.295v10.27c0 2.678 2.059 4.843 4.606 4.843h11.086c2.516 0 4.606-2.165 4.606-4.844V161.96l2.3-.649c18.8-4.98 25.465-18.575 25.465-28.684 0-18.726-15.356-26.519-30.408-31.683-14.122-4.91-18.64-7.885-18.64-12.274 0-3.942 4.326-7.885 14.034-7.885 10.695 0 17.383 3.202 20.243 4.592a4.406 4.406 0 0 0 1.906.454c1.779 0 3.405-1.103 4.174-2.78l4.39-9.789a4.916 4.916 0 0 0 .152-3.68 4.624 4.624 0 0 0-2.363-2.747c-5.28-2.62-11.023-4.296-17.503-5.105l-2.7-.354v-9.721c0-2.646-2.058-4.81-4.606-4.81z" opacity=".32"/>
</svg>
