<svg xmlns="http://www.w3.org/2000/svg" width="225" height="225" viewBox="0 0 225 225">
    <path fill="#000" fill-rule="evenodd" d="M112.5 225c62.132 0 112.5-50.368 112.5-112.5S174.632 0 112.5 0 0 50.368 0 112.5 50.368 225 112.5 225zm45.696-122.268c8.125 22.465-15.24 38.81-32.509 31.659-7.114 15.32-10.156 32.682-2.031 50.038h-21.333c7.114-13.278 8.125-28.6-1.02-47.996-23.363 11.237-45.709-16.337-30.48-37.784-14.218-14.295-6.093-37.785 16.251-37.785 1.02-31.658 47.74-30.642 48.76 0 24.376-4.084 38.605 24.505 22.346 41.868h.016zm-36.572 29.616c-1.02-1.025-3.052-2.042-4.063-3.067l1.02 11.236 3.051-8.169h-.008zm-11.177-3.067c-1.02 2.042-3.051 4.084-5.083 5.11 2.032 3.067 3.052 6.126 4.063 9.193l1.02-14.295v-.008z" opacity=".32"/>
</svg>
