<svg width="32" height="32" viewBox="0 0 32 32" fill="none" xmlns="http://www.w3.org/2000/svg">
<g clip-path="url(#clip0_4116_139588)">
<path d="M32 16C32 24.8366 24.8366 32 16 32C7.16344 32 0 24.8366 0 16C0 7.16344 7.16344 0 16 0C24.8366 0 32 7.16344 32 16Z" fill="#002633"/>
<path d="M16.0022 11.6286C13.1645 11.6286 10.8756 13.8036 10.8756 16.5C10.8756 19.1964 13.1645 21.3714 16.0022 21.3714C18.8399 21.3714 21.1288 19.1964 21.1288 16.5C21.1288 13.8036 18.8399 11.6286 16.0022 11.6286ZM16.0022 19.667C14.1684 19.667 12.6693 18.2467 12.6693 16.5C12.6693 14.7533 14.164 13.333 16.0022 13.333C17.8405 13.333 19.3352 14.7533 19.3352 16.5C19.3352 18.2467 17.836 19.667 16.0022 19.667ZM22.5343 11.4294C22.5343 12.0611 21.9989 12.5656 21.3385 12.5656C20.6737 12.5656 20.1428 12.0568 20.1428 11.4294C20.1428 10.8019 20.6782 10.2931 21.3385 10.2931C21.9989 10.2931 22.5343 10.8019 22.5343 11.4294ZM25.9297 12.5826C25.8539 11.0605 25.488 9.71232 24.3146 8.60153C23.1456 7.49074 21.7267 7.14309 20.1249 7.06677C18.4741 6.97774 13.5259 6.97774 11.8751 7.06677C10.2777 7.13885 8.8589 7.4865 7.68544 8.59729C6.51199 9.70808 6.15059 11.0563 6.07027 12.5783C5.97658 14.147 5.97658 18.8488 6.07027 20.4174C6.14612 21.9395 6.51199 23.2877 7.68544 24.3985C8.8589 25.5093 10.2733 25.8569 11.8751 25.9332C13.5259 26.0223 18.4741 26.0223 20.1249 25.9332C21.7267 25.8612 23.1456 25.5135 24.3146 24.3985C25.4835 23.2877 25.8494 21.9395 25.9297 20.4174C26.0234 18.8488 26.0234 14.1512 25.9297 12.5826ZM23.797 22.1006C23.449 22.9316 22.7752 23.5717 21.8963 23.9067C20.58 24.4027 17.4568 24.2882 16.0022 24.2882C14.5477 24.2882 11.42 24.3985 10.1082 23.9067C9.23369 23.576 8.55996 22.9358 8.20747 22.1006C7.68544 20.8499 7.80591 17.8821 7.80591 16.5C7.80591 15.1179 7.68991 12.1459 8.20747 10.8994C8.55549 10.0684 9.22922 9.42826 10.1082 9.09333C11.4244 8.59729 14.5477 8.71176 16.0022 8.71176C17.4568 8.71176 20.5845 8.60153 21.8963 9.09333C22.7708 9.42402 23.4445 10.0642 23.797 10.8994C24.319 12.1501 24.1985 15.1179 24.1985 16.5C24.1985 17.8821 24.319 20.8541 23.797 22.1006Z" fill="white"/>
</g>
<defs>
<clipPath id="clip0_4116_139588">
<rect width="32" height="32" fill="white"/>
</clipPath>
</defs>
</svg>
