<svg width="32" height="32" viewBox="0 0 32 32" fill="none" xmlns="http://www.w3.org/2000/svg">
<g clip-path="url(#clip0_4116_139065)">
<path d="M32 16C32 24.8366 24.8366 32 16 32C7.16344 32 0 24.8366 0 16C0 7.16344 7.16344 0 16 0C24.8366 0 32 7.16344 32 16Z" fill="#002633"/>
<path d="M13.1337 21.25H10.2313V13.0715H13.1337V21.25ZM11.6809 11.9558C10.7528 11.9558 10 11.2832 10 10.4711C10 10.081 10.1771 9.70687 10.4923 9.43104C10.8076 9.15521 11.2351 9.00024 11.6809 9.00024C12.1267 9.00024 12.5543 9.15521 12.8695 9.43104C13.1848 9.70687 13.3619 10.081 13.3619 10.4711C13.3619 11.2832 12.6088 11.9558 11.6809 11.9558ZM23.9969 21.25H21.1006V17.2687C21.1006 16.3199 21.0787 15.1031 19.5916 15.1031C18.0825 15.1031 17.8513 16.134 17.8513 17.2004V21.25H14.9519V13.0715H17.7356V14.1871H17.7762C18.1637 13.5445 19.1103 12.8664 20.5225 12.8664C23.46 12.8664 24 14.559 24 16.7574V21.25H23.9969Z" fill="white"/>
</g>
<defs>
<clipPath id="clip0_4116_139065">
<rect width="32" height="32" fill="white"/>
</clipPath>
</defs>
</svg>
